<svg height="512pt" viewBox="0 0 512 512" width="512pt" xmlns="http://www.w3.org/2000/svg"><path d="m512 256c0 68.378906-26.628906 132.671875-74.980469 181.019531-48.347656 48.351563-112.640625 74.980469-181.019531 74.980469s-132.671875-26.628906-181.019531-74.980469c-48.351563-48.347656-74.980469-112.640625-74.980469-181.019531s26.628906-132.671875 74.980469-181.019531c48.347656-48.351563 112.640625-74.980469 181.019531-74.980469s132.671875 26.628906 181.019531 74.980469c48.351563 48.347656 74.980469 112.640625 74.980469 181.019531zm0 0" fill="#ffe171"/><path d="m512 256c0 68.378906-26.628906 132.671875-74.980469 181.019531-48.347656 48.351563-112.640625 74.980469-181.019531 74.980469v-512c68.378906 0 132.671875 26.628906 181.019531 74.980469 48.351563 48.347656 74.980469 112.640625 74.980469 181.019531zm0 0" fill="#ffd300"/><path d="m227.53125 174.527344h-30c0 14.152344-11.515625 25.667968-25.667969 25.667968-14.152343 0-25.667969-11.515624-25.667969-25.667968h-30c0 30.695312 24.972657 55.667968 55.667969 55.667968 30.695313 0 55.667969-24.972656 55.667969-55.667968zm0 0" fill="#b26d3c"/><path d="m395.804688 174.527344h-30c0 14.152344-11.515626 25.667968-25.667969 25.667968-14.152344 0-25.667969-11.515624-25.667969-25.667968h-30c0 30.695312 24.972656 55.667968 55.667969 55.667968 30.695312 0 55.667969-24.972656 55.667969-55.667968zm0 0" fill="#7a3d06"/><path d="m364.21875 382.699219-28.398438 9.671875c-11.628906-34.171875-43.699218-57.132813-79.820312-57.132813s-68.191406 22.960938-79.820312 57.132813l-28.398438-9.671875c15.757812-46.328125 59.25-77.460938 108.21875-77.460938s92.460938 31.132813 108.21875 77.460938zm0 0" fill="#b26d3c"/><path d="m364.21875 382.699219-28.398438 9.671875c-11.628906-34.171875-43.699218-57.132813-79.820312-57.132813v-30c48.96875 0 92.460938 31.132813 108.21875 77.460938zm0 0" fill="#7a3d06"/><path d="m433.628906 286.890625c-18.179687-22.058594-36.113281-38.925781-36.867187-39.632813l-10.257813-9.613281-10.257812 9.613281c-.753906.707032-18.6875 17.574219-36.867188 39.632813-26.222656 31.824219-38.972656 57.082031-38.972656 77.21875 0 47.472656 38.625 86.097656 86.097656 86.097656s86.097656-38.625 86.097656-86.097656c0-20.136719-12.75-45.394531-38.972656-77.21875zm0 0" fill="#169eff"/></svg>