<svg height="512pt" viewBox="0 0 512 512" width="512pt" xmlns="http://www.w3.org/2000/svg"><path d="m512 256c0 68.378906-26.628906 132.671875-74.980469 181.019531-48.347656 48.351563-112.640625 74.980469-181.019531 74.980469s-132.671875-26.628906-181.019531-74.980469c-34.339844-34.339843-57.71875-76.71875-68.371094-122.890625-.371094-1.589844-.71875-3.179687-1.058594-4.769531-1.160156-5.488281-2.140625-11.03125-2.941406-16.621094-1.347656-9.449219-2.1875-19.027343-2.480469-28.699219-.050781-1.347656-.128906-6.710937-.128906-8.039062 0-34.011719 255-195.691406 256-195.332031 35.058594 12.589843 255.539062 178.800781 255.761719 184.363281.027343.617188.046875 1.238281.066406 1.859375.121094 3.03125.171875 6.058594.171875 9.109375zm0 0" fill="#ffe171"/><path d="m512 256c0 68.378906-26.628906 132.671875-74.980469 181.019531-48.347656 48.351563-112.640625 74.980469-181.019531 74.980469v-383.660156c152.898438 2.257812 255.539062 111.128906 255.761719 116.691406.027343.617188.046875 1.238281.066406 1.859375.121094 3.03125.171875 6.058594.171875 9.109375zm0 0" fill="#ffd300"/><path d="m510.539062 228.449219c-21.398437-12.910157-43.4375-24.089844-65.777343-33.75-.101563-.050781-.210938-.089844-.3125-.128907-62.898438-27.160156-128.199219-42.332031-188.449219-50.320312-39.878906-5.300781-77.53125-7.441406-110.800781-7.851562-84.730469 74.839843-131.5 140.0625-142.589844 156.339843-1.730469-12.058593-2.609375-24.328125-2.609375-36.738281 0-68.378906 26.628906-132.671875 74.980469-181.019531 48.347656-48.351563 112.640625-74.980469 181.019531-74.980469s132.671875 26.628906 181.019531 74.980469c41.558594 41.558593 67.070313 94.890625 73.410157 152.480469.039062.328124.070312.660156.109374.988281zm0 0" fill="#dcf3ff"/><path d="m510.429688 227.460938c-21.410157-12.511719-43.398438-23.359376-65.667969-32.761719-.101563-.050781-.210938-.089844-.3125-.128907-63.007813-26.582031-128.199219-41.570312-188.449219-49.558593v-145.011719c68.378906 0 132.671875 26.628906 181.019531 74.980469 41.558594 41.558593 67.070313 94.890625 73.410157 152.480469zm0 0" fill="#b0e2fa"/><path d="m345.101562 289.152344c-32.054687 0-58.132812-26.078125-58.132812-58.136719h30c0 15.515625 12.621094 28.136719 28.132812 28.136719 15.515626 0 28.136719-12.621094 28.136719-28.136719h30c0 32.058594-26.082031 58.136719-58.136719 58.136719zm0 0" fill="#7a3d06"/><path d="m166.621094 289.152344c-32.054688 0-58.132813-26.078125-58.132813-58.136719h30c0 15.515625 12.621094 28.136719 28.132813 28.136719 15.511718 0 28.132812-12.621094 28.132812-28.136719h30c0 32.058594-26.078125 58.136719-58.132812 58.136719zm0 0" fill="#b26d3c"/><path d="m368.820312 401.699219-26.21875 14.601562c-17.5-31.441406-50.671874-50.992187-86.601562-51.039062h-.140625c-35.980469 0-69.210937 19.558593-86.738281 51.039062l-26.210938-14.601562c22.808594-40.980469 66.101563-66.4375 112.949219-66.4375h.140625c46.808594.046875 90.019531 25.5 112.820312 66.4375zm0 0" fill="#b26d3c"/><path d="m368.820312 401.699219-26.21875 14.601562c-17.5-31.441406-50.671874-50.992187-86.601562-51.039062v-30c46.808594.046875 90.019531 25.5 112.820312 66.4375zm0 0" fill="#7a3d06"/><path d="m510.539062 228.449219c-21.398437-12.910157-43.4375-24.089844-65.777343-33.75-.101563-.050781-.210938-.089844-.3125-.128907-62.898438-27.160156-128.199219-42.332031-188.449219-50.320312v-144.25c68.378906 0 132.671875 26.628906 181.019531 74.980469 41.558594 41.558593 67.070313 94.890625 73.410157 152.480469.039062.328124.070312.660156.109374.988281zm0 0" fill="#b0e2fa"/><path d="m510.539062 228.449219c-.800781-7.570313-1.9375-15.058594-3.398437-22.46875-52.25-26.429688-99.949219-45.070313-149.109375-57.929688-32.53125-8.511719-66.652344-15.101562-102.03125-19.710937h-.03125c-23.269531-3.050782-47.070312-5.21875-71.320312-6.539063-.679688-.03125-1.339844-.0625-2.019532-.101562 18.109375-14.859375 37.820313-30.058594 59.132813-45.257813 4.578125.4375 9.328125.957032 14.207031 1.578125h.03125c61.839844 7.75 153.351562 33.511719 233.53125 72.769531-6.78125-15.027343-15.03125-29.410156-24.703125-42.96875-1.378906-1.941406-2.789063-3.859374-4.21875-5.761718-30.589844-13.96875-66.910156-27.628906-99.589844-36.1875-25.710937-6.730469-52.570312-12.050782-80.359375-15.929688 17.53125-11.410156 35.941406-22.703125 55.289063-33.703125l3.730469-2.316406c-12.941407-4.460937-26.269532-7.871094-39.878907-10.210937-1.519531-.261719-3.039062-.511719-4.5625-.742188-12.75 8.320312-28.398437 18.820312-39.238281 26.152344-.011719.007812-.019531.007812-.03125.019531-8.738281 5.910156-16.699219 11.390625-22.769531 15.621094-6.898438-.542969-13.847657-1.023438-20.839844-1.402344-38.878906-2.097656-73.089844-1.289063-99.5.320313-1.757813 1.191406-3.507813 2.398437-5.238281 3.640624-11.519532 8.21875-22.429688 17.449219-32.640625 27.660157-.332031.328125-.671875.667969-1 1 32.070312-2.070313 79.148437-3.949219 120-2.570313-20.890625 15.960938-40.058594 31.738282-57.46875 46.929688-2.332031-.011719-4.640625-.019532-6.921875-.019532-26.980469 0-64.519532 1.070313-92.300782 2.449219-.269531.421875-.519531.851563-.777343 1.269531-6.492188 10.769532-12.171875 21.980469-16.980469 33.550782 15.410156-1.917969 44.609375-4.929688 82.667969-6.019532-14.289063 13.570313-27.007813 26.359376-38.078125 37.988282-28.859375 30.339844-50.082032 56.28125-63.992188 74.480468.292969 9.671876 1.132813 19.25 2.480469 28.699219.800781 5.589844 1.78125 11.132813 2.941406 16.621094l.390625-.609375c.257813-.410156 26.769532-41.449219 80.519532-97.949219 16.699218-17.570312 37.25-37.832031 61.519531-59.472656 11.46875.203125 23.417969.613281 35.769531 1.292969 22 1.207031 46.359375 3.339844 72.21875 6.867187h.03125c78.480469 10.710938 173.011719 35.691407 255.761719 85.542969-.222657-5.5625-.640625-11.089844-1.222657-16.582031zm0 0" fill="#b0e2fa"/><g fill="#73cce0"><path d="m489.53125 150.789062c-80.179688-39.257812-171.691406-65.019531-233.53125-72.769531v-48.898437c10.839844-7.332032 26.488281-17.832032 39.238281-26.152344 1.523438.230469 3.042969.480469 4.5625.742188 13.609375 2.339843 26.9375 5.75 39.878907 10.210937l-3.730469 2.316406c-19.347657 11-37.757813 22.292969-55.289063 33.703125 27.789063 3.878906 54.648438 9.199219 80.359375 15.929688 32.679688 8.558594 69 22.21875 99.589844 36.1875 1.429687 1.902344 2.839844 3.820312 4.21875 5.761718 9.671875 13.558594 17.921875 27.941407 24.703125 42.96875zm0 0"/><path d="m511.761719 245.03125c-82.75-49.851562-177.28125-74.832031-255.761719-85.542969v-31.148437c35.378906 4.609375 69.5 11.199218 102.03125 19.710937 49.160156 12.859375 96.859375 31.5 149.109375 57.929688 1.460937 7.410156 2.597656 14.898437 3.398437 22.46875.582032 5.492187 1 11.019531 1.222657 16.582031zm0 0"/></g></svg>