<svg xmlns="http://www.w3.org/2000/svg" xmlns:xlink="http://www.w3.org/1999/xlink" width="225pt" height="150pt" viewBox="0 0 225 150"><g id="surface1"><path d="M0 0h225v150H0z" style="fill:#002868;fill-opacity:1;stroke:none"/><path style="stroke:none;fill-rule:nonzero;fill:#fff;fill-opacity:1" d="M0 50H225v50H0zm0 0"/><path style="stroke:none;fill-rule:nonzero;fill:#bf0a30;fill-opacity:1" d="M141.351562 93.75C132.375 115.933594 108.941406 128.652344 85.449219 124.078125 61.957031 119.507812 45 98.933594 45 75c0-23.933594 16.957031-44.507812 40.449219-49.078125C108.941406 21.347656 132.375 34.066406 141.351562 56.25L95 75zm0 0"/><path style="stroke:none;fill-rule:nonzero;fill:gold;fill-opacity:1" d="M120 75c0 13.808594-11.191406 25-25 25-13.808594.0-25-11.191406-25-25 0-13.808594 11.191406-25 25-25 13.808594.0 25 11.191406 25 25zm0 0"/></g></svg>