<svg xmlns="http://www.w3.org/2000/svg" xmlns:xlink="http://www.w3.org/1999/xlink" width="225pt" height="150pt" viewBox="0 0 225 150"><g id="surface1"><path d="M0 0h225v150H0z" style="fill:#fff;fill-opacity:1;stroke:none"/><path style="fill-rule:nonzero;fill:#369443;fill-opacity:1;stroke-width:3;stroke-linecap:butt;stroke-linejoin:miter;stroke:#010002;stroke-opacity:1;stroke-miterlimit:10" d="M1885.940302 1567.624698C1885.940302 1567.624698 1884.899938 1560.629906 1898.181188 1555.516625 1911.462438 1550.381208 1912.480667 1531.278344 1909.824417 1518.528344 1909.824417 1518.528344 1902.896031 1530.658552 1894.484573 1534.687198c0 0-13.701822999999877 7.149738999999954-14.34375 20.80729199999996C1880.140823 1555.49449 1880.030146 1560.474958 1879.011917 1564.370792 1878.436396 1566.495792 1872.371292 1547.28225 1883.859573 1532.982771 1895.746292 1518.240583 1899.066604 1506.265323 1889.614781 1482.956729 1889.614781 1482.956729 1888.729365 1497.10126 1879.454625 1505.180687 1870.15775 1513.260115 1868.962438 1513.879906 1869.117385 1533.137719 1869.117385 1533.137719 1869.272333 1539.822615 1865.730667 1541.991885 1865.730667 1541.991885 1858.492385 1531.433292 1856.58874 1524.4385 1854.662958 1517.443708 1853.777542 1514.499698 1862.034052 1506.420271 1862.034052 1506.420271 1888.50801 1489.331729 1869.405146 1451.90074 1869.405146 1451.90074 1868.829625 1464.783552 1859.687698 1472.398135 1850.545771 1480.012719 1851.27624 1485.148135 1850.833531 1498.340844 1850.390823 1511.555687 1849.505406 1510.626 1848.465042 1512.485375 1848.465042 1512.485375 1831.66426 1481.562198 1844.635615 1465.093448 1857.606969 1448.646833 1864.84525 1445.215844 1850.545771 1414.624698 1850.545771 1414.624698 1851.165563 1430.318708 1839.721552 1438.066104 1828.255406 1445.835635 1830.911656 1464.008812 1830.911656 1464.008812 1830.911656 1464.008812 1831.66426 1470.848656 1829.295771 1475.829125c0 0-16.203125-31.609375-.7304690000000846-48.631509999999935C1841.691604 1412.765323 1842.577021 1402.649437 1835.493688 1382.152042 1835.493688 1382.152042 1834.608271 1391.626 1827.36999 1396.761417 1820.153844 1401.874698 1814.398635 1407.010115 1815.72676 1426.732771 1815.72676 1426.732771 1816.324417 1440.567406 1814.553583 1444.441104 1814.553583 1444.441104 1807.75801 1431.868187 1805.854365 1423.633812 1803.928583 1415.399437 1803.198115 1410.573917 1808.200719 1402.339542 1813.225458 1394.105167 1833.125198 1370.508812 1809.396031 1336.486677 1809.396031 1336.486677 1808.643427 1347.510115 1802.600458 1357.448917 1796.55749 1367.387719 1799.346552 1379.208031 1800.674677 1388.217146 1802.002802 1397.22626 1797.597854 1405.925479 1797.597854 1405.925479 1797.597854 1405.925479 1787.260615 1386.977562 1789.474156 1365.218448 1791.687698 1343.481469 1782.833531 1325.618187 1762.778844 1312.71324c0 0-14.609375 33.86718700000006 5.3125 51.110676999999896C1768.091344 1363.823917 1785.047073 1380.602562 1789.319208 1400.94501c0 0-12.816405999999915-1.2395829999998114-24.48176999999987-23.90625C1753.194208 1354.349958 1729.000198 1357.91376 1727.384313 1357.758812c0 0 3.984375 35.10677099999998 41.149738999999954 45.04557299999988C1768.534052 1402.804385 1792.285354 1406.855167 1796.712438 1424.253604c0 0 3.962238999999954 11.953125 5.600259999999935 18.328125C1802.312698 1442.581729 1794.786656 1439.637719 1787.858271 1429.366885 1780.929885 1419.118187 1781.815302 1417.878604 1758.35176 1415.554385 1758.35176 1415.554385 1748.922073 1414.46975 1743.897333 1407.784854 1743.897333 1407.784854 1753.769729 1444.905948 1779.159052 1444.596052c0 0 23.15364599999998-2.4791670000001886 36.125 27.957030999999915C1815.284052 1472.553083 1812.78275 1471.003604 1809.396031 1468.679385 1805.987177 1466.333031 1797.442906 1461.99449 1780.465042 1464.008812 1763.509313 1466.023135 1758.794469 1463.234073 1754.522333 1461.839542c0 0 17.110677000000123 31.365885000000162 41.30468800000017 22.046875C1819.998896 1474.567406 1831.686396 1508.567406 1831.952021 1509.209333 1831.952021 1509.209333 1828.698115 1506.730167 1824.425979 1502.524437 1820.153844 1498.340844 1811.277542 1493.161156 1794.498896 1498.495792 1794.498896 1498.495792 1782.390823 1503.166365 1770.149938 1499.425479c0 0 11.798176999999896 22.84375 39.378905999999915 18.94791699999996C1837.109573 1514.499698 1844.037958 1538.737979 1844.037958 1538.737979 1844.037958 1538.737979 1840.363479 1536.546573 1837.840042 1534.53225 1835.33874 1532.517927 1826.041865 1527.227562 1806.142125 1533.137719 1786.22025 1539.047875 1779.004104 1532.208031 1779.004104 1532.208031c0 0 11.067708999999923 20.1875 32.29557299999988 22.511719000000085C1811.299677 1554.71975 1823.097854 1554.564802 1828.122594 1552.705427 1833.125198 1550.846052 1846.406448 1547.902042 1855.548375 1561.09475 1855.548375 1561.09475 1853.047073 1561.559594 1849.217646 1559.855167 1849.217646 1559.855167 1835.050979 1554.71975 1824.271031 1563.728865 1824.271031 1563.728865 1814.686396 1573.512719 1801.117385 1571.653344c0 0 17.553386000000046 17.08854099999985 45.444011000000046 2.65625C1846.561396 1574.309594 1855.991083 1567.46975 1862.919469 1572.737979 1869.847854 1578.028344 1885.940302 1567.624698 1885.940302 1567.624698zm0 0" transform="matrix(0.176471,0,0,0.176471,-262.621588,-175.081059)"/><path style="fill-rule:nonzero;fill:#f4c53d;fill-opacity:1;stroke-width:3;stroke-linecap:butt;stroke-linejoin:miter;stroke:#010002;stroke-opacity:1;stroke-miterlimit:10" d="M2041.109573 1146.675479C2041.109573 1146.675479 2037.855667 1117.766625 2060.965042 1114.977562 2085.048375 1112.077823 2096.957229 1117.146833 2096.957229 1117.146833L2107.759312 1138.374698 2104.040562 1152.674177 2089.077021 1159.514021C2089.077021 1159.514021 2091.644729 1137.555687 2071.523635 1137.090844 2066.410354 1136.980167 2063.422073 1139.016625 2055.364781 1137.732771 2047.241083 1136.448917 2042.902542 1145.347354 2041.109573 1146.675479zm0 0" transform="matrix(0.176471,0,0,0.176471,-262.621588,-175.081059)"/><path style="fill-rule:nonzero;fill:#f4c53d;fill-opacity:1;stroke-width:3;stroke-linecap:butt;stroke-linejoin:miter;stroke:#010002;stroke-opacity:1;stroke-miterlimit:10" d="M2203.649937 1218.217146C2200.196812 1222.6885 2186.428583 1224.237979 2186.428583 1224.237979 2186.428583 1224.237979 2200.59525 1235.106469 2206.68249 1250.645531 2212.791865 1266.162458 2042.57051 1250.734073 2042.57051 1250.734073 2042.57051 1250.734073 2049.941604 1245.465844 2054.966344 1235.527042 2054.966344 1235.527042 2047.440302 1238.316104 2039.91426 1230.856469c0 0 5.600261000000046 1.859375 12.993489999999838-9.319011000000046C2052.90775 1221.537458 2063.82051 1207.57001 2071.479365 1203.829125 2071.479365 1203.829125 2067.937698 1205.998396 2059.393427 1201.349958c0 0 14.74218800000017-1.859375 20.05468800000017-27.027342999999973C2079.448115 1174.322615 2080.333531 1168.722354 2085.933792 1160.642927 2091.534052 1152.5635 2090.360875 1162.192406 2100.698115 1149.774437 2100.698115 1149.774437 2105.412958 1140.964542 2101.273635 1135.585635 2097.156448 1130.206729 2092.729365 1132.176781 2084.074417 1126.997094 2075.419469 1121.817406 2071.590042 1118.917667 2074.534052 1110.948917 2077.478062 1102.958031 2085.159052 1104.21975 2086.243687 1104.21975 2087.306187 1104.21975 2087.903844 1097.269229 2097.355667 1092.510115 2106.785354 1087.751 2131.864781 1089.809594 2135.605667 1091.890323 2139.324417 1093.948917 2154.465042 1098.420271 2163.319208 1120.777042 2172.173375 1143.155948 2160.972854 1151.545271 2185.056187 1185.301781 2185.056187 1185.301781 2175.427281 1187.360375 2169.229365 1185.501 2169.229365 1185.501 2181.71374 1207.658552 2203.649937 1218.217146zm0 0" transform="matrix(0.176471,0,0,0.176471,-262.621588,-175.081059)"/><path style="fill:none;stroke-width:3;stroke-linecap:butt;stroke-linejoin:miter;stroke:#010002;stroke-opacity:1;stroke-miterlimit:10" d="M2098.329625 1123.831729C2078.717646 1122.902042 2086.243687 1104.21975 2086.243687 1104.21975" transform="matrix(0.176471,0,0,0.176471,-262.621588,-175.081059)"/><path style="fill-rule:nonzero;fill:#f4c53d;fill-opacity:1;stroke-width:3;stroke-linecap:butt;stroke-linejoin:miter;stroke:#010002;stroke-opacity:1;stroke-miterlimit:10" d="M2132.396031 1126.399437c0 0-3.453125-1.6380200000000968-6.397135000000162-5.5117179999999735C2121.881708 1115.442406 2112.717646 1112.808292 2107.759312 1117.943708c0 0-5.002604000000247 5.578125-9.429687000000285 5.888020999999981C2098.329625 1123.831729 2103.332229 1125.381208 2106.80749 1128.568708 2110.28275 1131.756208 2113.890823 1134.080427 2119.048375 1133.394229 2124.205927 1132.685896 2125.024937 1129.96324 2127.459833 1128.347354 2129.894729 1126.709333 2132.396031 1126.399437 2132.396031 1126.399437zm0 0" transform="matrix(0.176471,0,0,0.176471,-262.621588,-175.081059)"/><path style="fill-rule:nonzero;fill:#f4c53d;fill-opacity:1;stroke-width:3;stroke-linecap:butt;stroke-linejoin:miter;stroke:#010002;stroke-opacity:1;stroke-miterlimit:4" d="M2259.984573 1405.770531c0 0 18.283853999999792 14.897136000000046 33.62369799999988.0.0.0 6.1979160000000775 7.459636000000046 18.59375 5.268229000000019C2324.575719 1408.86949 2326.656448 1402.339542 2327.829625 1398.620792 2327.829625 1398.620792 2338.543167 1404.862979 2347.596552 1399.926781 2356.649937 1394.990583 2356.649937 1387.530948 2356.649937 1387.530948 2356.649937 1387.530948 2372.366083 1390.629906 2380.44551 1379.982771 2388.502802 1369.3135 2383.58874 1358.754906 2379.250198 1357.515323 2379.250198 1357.515323 2396.272333 1361.964542 2400.898635 1347.355167 2404.816604 1334.937198 2395.962437 1328.517927 2395.962437 1328.517927c0 0 35.859375-.17708300000003874 50.55729199999996-11.399740000000065C2446.519729 1317.118187 2458.716344 1309.459333 2451.433792 1301.379906 2451.433792 1301.379906 2483.685094 1296.200219 2491.742385 1283.361677 2491.742385 1283.361677 2495.284052 1279.842146 2494.110875 1273.622094c0 0-.1992189999996299-3.5195320000000265-3.7408849999997074-3.71875C2490.36999 1269.903344 2527.159052 1264.214542 2537.761917 1252.084333c0 0 5.11328100000037-5.578125 2.5677080000000387-13.037759999999935C2540.329625 1239.046573 2539.77624 1237.076521 2538.890823 1235.748396 2538.890823 1235.748396 2572.381708 1228.687198 2588.894729 1213.767927c0 0 9.540364999999838-8.5 4.626302000000123-19.87760400000002C2593.521031 1193.890323 2649.457229 1178.572615 2636.485875 1153.91376 2636.485875 1153.91376 2662.649937 1145.435896 2654.393427 1121.817406 2654.393427 1121.817406 2676.019729 1110.83824 2666.567906 1093.439802 2657.536656 1076.793969 2629.800979 1096.339542 2596.952021 1105.437198 2596.952021 1105.437198 2508.078323 1133.416365 2464.294469 1140.853865L2339.915562 1326.03876 2267.355667 1353.995792zm0 0" transform="matrix(0.176471,0,0,0.176471,-262.621588,-175.081059)"/><path style="fill-rule:nonzero;fill:#f4c53d;fill-opacity:1;stroke-width:3;stroke-linecap:butt;stroke-linejoin:miter;stroke:#010002;stroke-opacity:1;stroke-miterlimit:4" d="M2259.099156 1269.372094C2259.099156 1269.372094 2270.764521 1260.628604 2291.549677 1270.943708 2291.549677 1270.943708 2298.544469 1275.747094 2304.056187 1270.478865 2308.660354 1266.051781 2309.080927 1257.928083 2302.750198 1253.235375 2287.277542 1241.724958 2281.522333 1207.237979 2305.118687 1192.960635 2305.118687 1192.960635 2339.340042 1172.662458 2464.803583 1140.721052 2464.803583 1140.721052 2475.317906 1137.821312 2480.940302 1139.215844 2487.093948 1140.743187 2491.343948 1146.055687 2492.229365 1150.571312 2492.229365 1150.571312 2497.829625 1166.530948 2478.97025 1175.672875 2478.97025 1175.672875 2470.448115 1179.568708 2461.660354 1182.092146 2461.660354 1182.092146 2471.311396 1179.989281 2475.428583 1189.551781 2479.346552 1198.649437 2473.65775 1207.968448 2455.949417 1213.989281c0 0-4.78125 1.859375-11.598958999999923 3.5195310000001427.0.0 15.140625 4.338541999999961 7.858073000000331 16.55729199999996C2452.208531 1234.066104 2445.722854 1246.904646 2422.812698 1249.184594c0 0 17.11067699999967 1.859375 5.024738999999954 18.128905999999915.0.0-5.3125 8.898437000000058-22.024738999999954 12.21875C2405.812698 1279.53225 2418.496292 1279.952823 2412.099156 1291.330427 2405.702021 1302.730167 2390.672073 1309.149437 2375.863479 1310.189802 2375.863479 1310.189802 2367.850458 1310.58824 2362.250198 1309.348656c0 0 14.055988999999954 7.039063000000169 5.799478999999792 18.859375.0.0-6.109375 8.389323000000104-21.33854199999996 7.96875C2346.711135 1336.176781 2350.673375 1349.347354 2339.472854 1354.349958 2330.773635 1358.223656 2323.55749 1352.02574 2323.55749 1352.02574 2323.55749 1352.02574 2326.5015 1366.148135 2313.817906 1371.128604c0 0-6.352864000000409 3.2539059999999154-15.782552000000123.0C2298.035354 1371.128604 2290.819208 1387.287458 2265.142125 1375.93199 2239.487177 1364.598656 2259.099156 1269.372094 2259.099156 1269.372094zm0 0" transform="matrix(0.176471,0,0,0.176471,-262.621588,-175.081059)"/><path style="fill:none;stroke-width:3;stroke-linecap:butt;stroke-linejoin:miter;stroke:#010002;stroke-opacity:1;stroke-miterlimit:4" d="M2654.393427 1121.817406C2654.393427 1121.817406 2614.062698 1145.148135 2488.510615 1168.501" transform="matrix(0.176471,0,0,0.176471,-262.621588,-175.081059)"/><path style="fill-rule:nonzero;fill:#f4c53d;fill-opacity:1;stroke-width:3;stroke-linecap:butt;stroke-linejoin:miter;stroke:#010002;stroke-opacity:1;stroke-miterlimit:4" d="M1934.394729 1534.598656C1934.394729 1534.598656 1919.431188 1560.27574 1901.346552 1560.674177 1901.346552 1560.674177 1870.224156 1556.889021 1861.41426 1565.034854 1855.28275 1570.701521 1849.040563 1575.394229 1846.472854 1589.892927 1843.927281 1604.391625 1851.386917 1607.490583 1853.15775 1608.110375 1853.15775 1608.110375 1854.530146 1618.46975 1864.756708 1615.769229 1864.756708 1615.769229 1865.354365 1626.549177 1883.439 1621.36949 1901.545771 1616.189802 1909.005406 1617.849958 1912.547073 1599.831729 1916.08874 1581.8135 1919.364781 1582.10126 1922.574417 1579.954125 1926.912958 1577.054385 1935.036656 1574.309594 1941.079625 1570.834333 1946.480667 1567.71324 1967.221552 1557.154646 1974.304885 1556.335635 1981.388219 1555.516625 1979.816604 1531.698917 1979.816604 1531.698917H1961.53275L1952.678583 1518.639021zm0 0" transform="matrix(0.176471,0,0,0.176471,-262.621588,-175.081059)"/><path style="fill:none;stroke-width:3;stroke-linecap:butt;stroke-linejoin:miter;stroke:#010002;stroke-opacity:1;stroke-miterlimit:4" d="M2636.485875 1153.91376c0 0-109.10546899999963 35.59375-159.9283849999997 39.97656300000017" transform="matrix(0.176471,0,0,0.176471,-262.621588,-175.081059)"/><path style="fill:none;stroke-width:3;stroke-linecap:butt;stroke-linejoin:miter;stroke:#010002;stroke-opacity:1;stroke-miterlimit:4" d="M2593.521031 1193.890323c0 0-64.015625 20.09895799999981-138.9661460000002 32.76041699999996" transform="matrix(0.176471,0,0,0.176471,-262.621588,-175.081059)"/><path style="fill:none;stroke-width:3;stroke-linecap:butt;stroke-linejoin:miter;stroke:#010002;stroke-opacity:1;stroke-miterlimit:4" d="M2538.890823 1235.748396C2538.890823 1235.748396 2466.574417 1253.124698 2432.043167 1256.002302" transform="matrix(0.176471,0,0,0.176471,-262.621588,-175.081059)"/><path style="fill:none;stroke-width:3;stroke-linecap:butt;stroke-linejoin:miter;stroke:#010002;stroke-opacity:1;stroke-miterlimit:10" d="M2490.36999 1269.903344c0 0-61.18229199999996 12.75-76.67708399999992 14.29947900000002" transform="matrix(0.176471,0,0,0.176471,-262.621588,-175.081059)"/><path style="fill-rule:nonzero;fill:#0081c6;fill-opacity:1;stroke-width:3;stroke-linecap:butt;stroke-linejoin:miter;stroke:#010002;stroke-opacity:1;stroke-miterlimit:10" d="M2421.506708 1362.9385 2424.583531 1460.002302 2407.428583 1450.0635 2378.896031 1573.247094 2367.11999 1564.791365 2394.899937 1446.765323 2375.531448 1447.11949zm0 0" transform="matrix(0.176471,0,0,0.176471,-262.621588,-175.081059)"/><path style="fill:none;stroke-width:3;stroke-linecap:butt;stroke-linejoin:miter;stroke:#010002;stroke-opacity:1;stroke-miterlimit:10" d="M2451.433792 1301.379906c0 0-44.64713599999959 6.773438000000169-62.421875 6.419271000000208" transform="matrix(0.176471,0,0,0.176471,-262.621588,-175.081059)"/><path style="fill:none;stroke-width:3;stroke-linecap:butt;stroke-linejoin:miter;stroke:#010002;stroke-opacity:1;stroke-miterlimit:10" d="M2395.962437 1328.517927C2395.962437 1328.517927 2377.922073 1327.654646 2369.24499 1326.215844" transform="matrix(0.176471,0,0,0.176471,-262.621588,-175.081059)"/><path style="fill:none;stroke-width:3;stroke-linecap:butt;stroke-linejoin:miter;stroke:#010002;stroke-opacity:1;stroke-miterlimit:10" d="M2379.250198 1357.515323C2379.250198 1357.515323 2363.910354 1353.376 2354.879104 1347.576521" transform="matrix(0.176471,0,0,0.176471,-262.621588,-175.081059)"/><path style="fill:none;stroke-width:3;stroke-linecap:butt;stroke-linejoin:miter;stroke:#010002;stroke-opacity:1;stroke-miterlimit:10" d="M2356.649937 1387.530948C2356.649937 1387.530948 2344.829625 1382.993187 2339.140823 1370.553083" transform="matrix(0.176471,0,0,0.176471,-262.621588,-175.081059)"/><path style="fill:none;stroke-width:3;stroke-linecap:butt;stroke-linejoin:miter;stroke:#010002;stroke-opacity:1;stroke-miterlimit:10" d="M2327.829625 1398.620792C2327.829625 1398.620792 2318.687698 1390.430687 2318.090042 1381.333031" transform="matrix(0.176471,0,0,0.176471,-262.621588,-175.081059)"/><path style="fill-rule:nonzero;fill:#0081c6;fill-opacity:1;stroke-width:3;stroke-linecap:butt;stroke-linejoin:miter;stroke:#010002;stroke-opacity:1;stroke-miterlimit:10" d="M2532.360875 1406.102562 2491.808792 1493.316104 2481.09525 1476.072615 2395.453323 1577.253604 2386.178583 1566.872094 2471.510615 1466.974958 2454.24499 1457.700219zm0 0" transform="matrix(0.176471,0,0,0.176471,-262.621588,-175.081059)"/><path style="fill:none;stroke-width:3;stroke-linecap:butt;stroke-linejoin:miter;stroke:#010002;stroke-opacity:1;stroke-miterlimit:10" d="M2293.608271 1405.770531C2293.608271 1405.770531 2297.03926 1402.804385 2294.692906 1389.965844" transform="matrix(0.176471,0,0,0.176471,-262.621588,-175.081059)"/><path style="fill-rule:nonzero;fill:#0081c6;fill-opacity:1;stroke-width:3;stroke-linecap:butt;stroke-linejoin:miter;stroke:#010002;stroke-opacity:1;stroke-miterlimit:10" d="M2495.372594 1342.086937 2474.47676 1436.671573 2460.354365 1422.394229 2383.699417 1569.793969 2371.90124 1562.887719 2449.065302 1415.797875 2430.272333 1410.861677zm0 0" transform="matrix(0.176471,0,0,0.176471,-262.621588,-175.081059)"/><path style="fill:none;stroke-width:3;stroke-linecap:butt;stroke-linejoin:miter;stroke:#010002;stroke-opacity:1;stroke-miterlimit:10" d="M2298.035354 1371.128604C2298.035354 1371.128604 2299.806187 1367.454125 2299.208531 1361.654646" transform="matrix(0.176471,0,0,0.176471,-262.621588,-175.081059)"/><path style="fill-rule:nonzero;fill:#f4c53d;fill-opacity:1;stroke-width:3;stroke-linecap:butt;stroke-linejoin:miter;stroke:#010002;stroke-opacity:1;stroke-miterlimit:4" d="M1991.991083 1405.770531c0 0-18.283853999999792 14.897136000000046-33.62369799999988.0.0.0-6.1979160000000775 7.459636000000046-18.59375 5.268229000000019C1927.377802 1408.86949 1925.319208 1402.339542 1924.146031 1398.620792 1924.146031 1398.620792 1913.410354 1404.862979 1904.379104 1399.926781 1895.325719 1394.990583 1895.325719 1387.530948 1895.325719 1387.530948 1895.325719 1387.530948 1879.587438 1390.629906 1871.530146 1379.982771 1863.472854 1369.3135 1868.386917 1358.754906 1872.703323 1357.515323c0 0-17 4.449218999999857-21.626301999999896-10.160156000000143C1847.136917 1334.937198 1855.991083 1328.517927 1855.991083 1328.517927 1855.991083 1328.517927 1820.153844 1328.340844 1805.455927 1317.118187 1805.455927 1317.118187 1793.259313 1309.459333 1800.541865 1301.379906 1800.541865 1301.379906 1768.290563 1296.200219 1760.211135 1283.361677 1760.211135 1283.361677 1756.691604 1279.842146 1757.864781 1273.622094c0 0 .19921900000008463-3.5195320000000265 3.740886000000046-3.71875C1761.605667 1269.903344 1724.816604 1264.214542 1714.21374 1252.084333c0 0-5.1132820000000265-5.578125-2.5677089999999225-13.037759999999935.0.0.53125-1.9700520000001234 1.4166669999999613-3.2981770000001234.0.0-33.46875-7.061197999999877-49.98177099999998-21.980468999999857.0.0-9.540363999999954-8.5-4.626301999999896-19.87760400000002C1658.454625 1193.890323 1602.496292 1178.572615 1615.489781 1153.91376 1615.489781 1153.91376 1589.325719 1145.435896 1597.582229 1121.817406 1597.582229 1121.817406 1575.955927 1110.83824 1585.385615 1093.439802 1594.416865 1076.793969 1622.174677 1096.339542 1655.023635 1105.437198 1655.023635 1105.437198 1743.897333 1133.416365 1787.659052 1140.853865L1912.037958 1326.03876 1984.61999 1353.995792zm0 0" transform="matrix(0.176471,0,0,0.176471,-262.621588,-175.081059)"/><path style="fill:none;stroke-width:3;stroke-linecap:butt;stroke-linejoin:miter;stroke:#010002;stroke-opacity:1;stroke-miterlimit:10" d="M2362.537958 1187.271833c0 0-20.652342999999746 8.27864599999998-27.53645800000004 19.65625C2328.117385 1218.327823 2332.655146 1229.395531 2335.0015 1235.748396 2336.196812 1238.935896 2350.739781 1267.003604 2333.629104 1287.301781" transform="matrix(0.176471,0,0,0.176471,-262.621588,-175.081059)"/><path style="fill-rule:nonzero;fill:#f4c53d;fill-opacity:1;stroke-width:3;stroke-linecap:butt;stroke-linejoin:miter;stroke:#010002;stroke-opacity:1;stroke-miterlimit:4" d="M1992.8765 1269.372094C1992.8765 1269.372094 1981.211135 1260.628604 1960.425979 1270.943708 1960.425979 1270.943708 1953.431188 1275.747094 1947.919469 1270.478865 1943.315302 1266.051781 1942.872594 1257.928083 1949.203323 1253.235375 1964.698115 1241.724958 1970.453323 1207.237979 1946.856969 1192.960635 1946.856969 1192.960635 1912.635615 1172.662458 1787.149938 1140.721052 1787.149938 1140.721052 1776.635615 1137.821312 1771.035354 1139.215844 1764.859573 1140.743187 1760.609573 1146.055687 1759.746292 1150.571312 1759.746292 1150.571312 1754.123896 1166.530948 1773.005406 1175.672875 1773.005406 1175.672875 1781.527542 1179.568708 1790.315302 1182.092146 1790.315302 1182.092146 1780.66426 1179.989281 1776.547073 1189.551781 1772.606969 1198.649437 1778.317906 1207.968448 1796.004104 1213.989281c0 0 4.8033859999998185 1.859375 11.621093999999857 3.5195310000001427.0.0-15.140625 4.338541999999961-7.880208000000039 16.55729199999996C1799.74499 1234.066104 1806.252802 1246.904646 1829.162958 1249.184594c0 0-17.110676999999896 1.859375-5.024738999999954 18.128905999999915.0.0 5.3125 8.898437000000058 22.024738999999954 12.21875C1846.162958 1279.53225 1833.479365 1279.952823 1839.8765 1291.330427 1846.2515 1302.730167 1861.303583 1309.149437 1876.112177 1310.189802 1876.112177 1310.189802 1884.125198 1310.58824 1889.725458 1309.348656c0 0-14.055988999999954 7.039063000000169-5.799478999999792 18.859375.0.0 6.087239999999838 8.389323000000104 21.33854199999996 7.96875C1905.264521 1336.176781 1901.302281 1349.36949 1912.480667 1354.349958 1921.202021 1358.223656 1928.418167 1352.02574 1928.418167 1352.02574 1928.418167 1352.02574 1925.474156 1366.148135 1938.15775 1371.128604c0 0 6.330729000000019 3.2539059999999154 15.782551999999896.0C1953.940302 1371.128604 1961.156448 1387.287458 1986.833531 1375.93199 2012.488479 1364.598656 1992.8765 1269.372094 1992.8765 1269.372094zm0 0" transform="matrix(0.176471,0,0,0.176471,-262.621588,-175.081059)"/><path style="fill:none;stroke-width:3;stroke-linecap:butt;stroke-linejoin:miter;stroke:#010002;stroke-opacity:1;stroke-miterlimit:10" d="M2362.250198 1309.348656C2362.250198 1309.348656 2362.139521 1309.260115 2354.879104 1306.980167" transform="matrix(0.176471,0,0,0.176471,-262.621588,-175.081059)"/><path style="fill:none;stroke-width:3;stroke-linecap:butt;stroke-linejoin:miter;stroke:#010002;stroke-opacity:1;stroke-miterlimit:10" d="M2405.812698 1279.53225C2405.812698 1279.53225 2393.505406 1282.011417 2381.419469 1282.122094" transform="matrix(0.176471,0,0,0.176471,-262.621588,-175.081059)"/><path style="fill:none;stroke-width:3;stroke-linecap:butt;stroke-linejoin:miter;stroke:#010002;stroke-opacity:1;stroke-miterlimit:10" d="M2422.812698 1249.184594C2422.812698 1249.184594 2408.358271 1250.645531 2394.78926 1250.424177" transform="matrix(0.176471,0,0,0.176471,-262.621588,-175.081059)"/><path style="fill:none;stroke-width:3;stroke-linecap:butt;stroke-linejoin:miter;stroke:#010002;stroke-opacity:1;stroke-miterlimit:10" d="M2444.350458 1217.508812C2444.350458 1217.508812 2423.498896 1221.648135 2412.298375 1221.847354" transform="matrix(0.176471,0,0,0.176471,-262.621588,-175.081059)"/><path style="fill:none;stroke-width:3;stroke-linecap:butt;stroke-linejoin:miter;stroke:#010002;stroke-opacity:1;stroke-miterlimit:10" d="M2461.660354 1182.092146C2461.660354 1182.092146 2435.939 1189.418969 2416.814 1192.030948" transform="matrix(0.176471,0,0,0.176471,-262.621588,-175.081059)"/><path style="fill:none;stroke-width:3;stroke-linecap:butt;stroke-linejoin:miter;stroke:#010002;stroke-opacity:1;stroke-miterlimit:10" d="M2374.336135 1207.149437C2374.336135 1207.149437 2392.819208 1224.326521 2370.59525 1240.286156 2370.59525 1240.286156 2379.847854 1254.784854 2361.364781 1269.903344" transform="matrix(0.176471,0,0,0.176471,-262.621588,-175.081059)"/><path style="fill-rule:nonzero;fill:#f4c53d;fill-opacity:1;stroke-width:3;stroke-linecap:butt;stroke-linejoin:miter;stroke:#010002;stroke-opacity:1;stroke-miterlimit:4" d="M1994.403844 1416.196312C1994.403844 1416.196312 1990.618688 1436.428083 1960.75801 1461.861677 1960.75801 1461.861677 1937.737177 1482.18199 1938.312698 1505.60126 1938.910354 1529.418969 1934.19551 1532.097354 1925.142125 1540.176781 1925.142125 1540.176781 1943.824417 1541.637719 1952.877802 1529.197615c0 0-.3984370000000581 20.71875-3.165363999999954 22.578125C1949.712438 1551.77574 1955.578323 1552.152042 1964.078323 1542.877302c0 0 5.113281000000143-5.378906000000143 9.828125-7.459635000000162C1973.906448 1535.417667 1968.416865 1549.717146 1972.733271 1562.954125c0 0 1.3723959999999806-5.179687999999942 8.654947999999877-7.4375C1981.388219 1555.516625 1994.558792 1552.816104 1999.672073 1533.75751 1999.672073 1533.75751 2003.014521 1521.118187 2023.666865 1509.939802 2023.666865 1509.939802 2047.064 1501.107771 2046.488479 1489.575219 2045.890823 1478.042667 1994.403844 1416.196312 1994.403844 1416.196312zm0 0" transform="matrix(0.176471,0,0,0.176471,-262.621588,-175.081059)"/><path style="fill:none;stroke-width:3;stroke-linecap:butt;stroke-linejoin:miter;stroke:#010002;stroke-opacity:1;stroke-miterlimit:10" d="M2366.278844 1277.053083c0 0 2.7447910000000775 27.647136000000046-31.078125 27.647136000000046C2335.200719 1304.700219 2341.686396 1329.336937 2309.058792 1328.517927 2309.058792 1328.517927 2305.317906 1348.196312 2281.721552 1344.256208" transform="matrix(0.176471,0,0,0.176471,-262.621588,-175.081059)"/><path style="fill-rule:nonzero;fill:#f4c53d;fill-opacity:1;stroke-width:3;stroke-linecap:butt;stroke-linejoin:miter;stroke:#010002;stroke-opacity:1;stroke-miterlimit:4" d="M2317.625198 1534.598656C2317.625198 1534.598656 2332.566604 1560.27574 2350.65124 1560.674177 2350.65124 1560.674177 2381.773635 1556.889021 2390.583531 1565.034854 2396.715042 1570.701521 2402.979365 1575.394229 2405.524937 1589.892927 2408.092646 1604.391625 2400.610875 1607.490583 2398.840042 1608.110375c0 0-1.3723959999997533 10.359375-11.598958999999923 7.658854000000019C2387.241083 1615.769229 2386.643427 1626.549177 2368.558792 1621.36949 2350.452021 1616.189802 2342.992385 1617.849958 2339.450719 1599.831729 2335.909052 1581.8135 2332.63301 1582.10126 2329.423375 1579.954125 2325.084833 1577.054385 2316.961135 1574.309594 2310.940302 1570.834333 2305.517125 1567.71324 2284.77624 1557.154646 2277.692906 1556.335635 2270.609573 1555.516625 2272.181187 1531.698917 2272.181187 1531.698917H2290.487177L2299.319208 1518.639021zm0 0" transform="matrix(0.176471,0,0,0.176471,-262.621588,-175.081059)"/><path style="fill-rule:nonzero;fill:#f4c53d;fill-opacity:1;stroke-width:3;stroke-linecap:butt;stroke-linejoin:miter;stroke:#010002;stroke-opacity:1;stroke-miterlimit:4" d="M2257.616083 1416.196312C2257.616083 1416.196312 2261.379104 1436.428083 2291.239781 1461.861677 2291.239781 1461.861677 2314.28275 1482.18199 2313.685094 1505.60126 2313.087437 1529.418969 2317.824417 1532.097354 2326.855667 1540.176781 2326.855667 1540.176781 2308.173375 1541.637719 2299.142125 1529.197615c0 0 .37630200000012337 20.71875 3.1432290000002467 22.578125C2302.285354 1551.77574 2296.419469 1552.152042 2287.919469 1542.877302c0 0-5.113281999999799-5.378906000000143-9.828125-7.459635000000162C2278.091344 1535.417667 2283.603062 1549.717146 2279.264521 1562.954125c0 0-1.372396000000208-5.179687999999942-8.654947999999877-7.4375C2270.609573 1555.516625 2257.439 1552.816104 2252.325719 1533.75751 2252.325719 1533.75751 2248.983271 1521.118187 2228.330927 1509.939802 2228.330927 1509.939802 2204.933792 1501.107771 2205.531448 1489.575219 2206.106969 1478.042667 2257.616083 1416.196312 2257.616083 1416.196312zm0 0" transform="matrix(0.176471,0,0,0.176471,-262.621588,-175.081059)"/><path style="fill:none;stroke-width:3;stroke-linecap:butt;stroke-linejoin:miter;stroke:#010002;stroke-opacity:1;stroke-miterlimit:4" d="M2333.69551 1560.674177c0 0 5.356771000000208 1.195312999999942 16.95573000000013.0" transform="matrix(0.176471,0,0,0.176471,-262.621588,-175.081059)"/><path style="fill:none;stroke-width:3;stroke-linecap:butt;stroke-linejoin:miter;stroke:#010002;stroke-opacity:1;stroke-miterlimit:10" d="M2383.300979 1575.172875c0 0 16.335937999999715-2.4791669999999613 15.539062999999715 32.9375" transform="matrix(0.176471,0,0,0.176471,-262.621588,-175.081059)"/><path style="fill:none;stroke-width:3;stroke-linecap:butt;stroke-linejoin:miter;stroke:#010002;stroke-opacity:1;stroke-miterlimit:10" d="M2373.472854 1583.252302c0 0 14.742187999999715-1.859375 13.768228999999792 32.516926999999896" transform="matrix(0.176471,0,0,0.176471,-262.621588,-175.081059)"/><path style="fill:none;stroke-width:3;stroke-linecap:butt;stroke-linejoin:miter;stroke:#010002;stroke-opacity:1;stroke-miterlimit:4" d="M2231.097854 1500.421573C2231.097854 1500.421573 2238.159052 1501.860375 2243.09525 1507.460635 2248.009312 1513.060896 2257.439 1512.020531 2257.439 1512.020531 2257.439 1512.020531 2252.325719 1507.881208 2250.554885 1497.521833 2248.784052 1487.162458 2243.09525 1484.0635 2243.09525 1484.0635" transform="matrix(0.176471,0,0,0.176471,-262.621588,-175.081059)"/><path style="fill:none;stroke-width:3;stroke-linecap:butt;stroke-linejoin:miter;stroke:#010002;stroke-opacity:1;stroke-miterlimit:4" d="M2259.984573 1474.25751C2259.984573 1474.25751 2267.045771 1475.696312 2271.959833 1481.296573 2276.896031 1486.874698 2286.325719 1485.834333 2286.325719 1485.834333 2286.325719 1485.834333 2281.212437 1481.69501 2279.441604 1471.357771 2277.670771 1460.998396 2271.959833 1457.877302 2271.959833 1457.877302" transform="matrix(0.176471,0,0,0.176471,-262.621588,-175.081059)"/><path style="fill:none;stroke-width:3;stroke-linecap:butt;stroke-linejoin:miter;stroke:#010002;stroke-opacity:1;stroke-miterlimit:4" d="M2264.832229 1514.455427C2264.832229 1514.455427 2271.030146 1515.717146 2275.324417 1520.586937 2279.618687 1525.478865 2287.853062 1524.571312 2287.853062 1524.571312 2287.853062 1524.571312 2283.381708 1520.96324 2281.832229 1511.909854 2280.304885 1502.878604 2275.324417 1500.155948 2275.324417 1500.155948" transform="matrix(0.176471,0,0,0.176471,-262.621588,-175.081059)"/><path style="fill-rule:nonzero;fill:#f4c53d;fill-opacity:1;stroke-width:3;stroke-linecap:butt;stroke-linejoin:miter;stroke:#010002;stroke-opacity:1;stroke-miterlimit:10" d="M2149.130406 1676.885115c0 0 5.356770999999753 23.640625 23.99479199999996 21.73697900000002C2173.125198 1698.622094 2186.295771 1697.38251 2185.321812 1675.424177c0 0 19.47916699999996 10.359375 22.622395999999753-15.317708000000039C2207.944208 1660.106469 2225.630406 1664.245792 2225.431187 1640.206729 2225.431187 1640.206729 2241.966344 1643.106469 2239.996292 1621.790062 2239.996292 1621.790062 2257.881708 1626.549177 2257.881708 1606.450219c0 0 41.902344000000085-6.950520999999981-45.421875-86.57161500000007L2134.587437 1566.274437zm0 0" transform="matrix(0.176471,0,0,0.176471,-262.621588,-175.081059)"/><path style="fill-rule:nonzero;fill:#f4c53d;fill-opacity:1;stroke-width:3;stroke-linecap:butt;stroke-linejoin:miter;stroke:#010002;stroke-opacity:1;stroke-miterlimit:4" d="M2140.475458 1570.701521C2140.475458 1570.701521 2153.468948 1582.234073 2162.699417 1565.034854 2162.699417 1565.034854 2175.294469 1564.415062 2177.264521 1554.896833 2177.264521 1554.896833 2187.491083 1553.856469 2189.461135 1544.116885 2189.461135 1544.116885 2203.406448 1542.655948 2203.030146 1530.857771c0 0 25.36718699999983-1.9479169999999613.0-30.701822999999877C2177.662958 1471.424177 2134.587437 1547.835635 2134.587437 1547.835635zm0 0" transform="matrix(0.176471,0,0,0.176471,-262.621588,-175.081059)"/><path style="fill:none;stroke-width:3;stroke-linecap:butt;stroke-linejoin:miter;stroke:#010002;stroke-opacity:1;stroke-miterlimit:10" d="M2185.321812 1675.424177C2185.321812 1675.424177 2183.35176 1633.787458 2147.271031 1574.154646" transform="matrix(0.176471,0,0,0.176471,-262.621588,-175.081059)"/><path style="fill:none;stroke-width:3;stroke-linecap:butt;stroke-linejoin:miter;stroke:#010002;stroke-opacity:1;stroke-miterlimit:10" d="M2207.944208 1660.106469C2207.944208 1660.106469 2213.544469 1636.067406 2162.699417 1565.034854 2162.699417 1565.034854 2168.609573 1548.05699 2150.502802 1537.1885" transform="matrix(0.176471,0,0,0.176471,-262.621588,-175.081059)"/><path style="fill:none;stroke-width:3;stroke-linecap:butt;stroke-linejoin:miter;stroke:#010002;stroke-opacity:1;stroke-miterlimit:10" d="M2225.431187 1640.206729C2225.431187 1640.206729 2227.002802 1614.21975 2177.264521 1554.896833 2177.264521 1554.896833 2181.647333 1539.55699 2163.629104 1527.33824" transform="matrix(0.176471,0,0,0.176471,-262.621588,-175.081059)"/><path style="fill:none;stroke-width:3;stroke-linecap:butt;stroke-linejoin:miter;stroke:#010002;stroke-opacity:1;stroke-miterlimit:10" d="M2239.996292 1621.790062C2239.996292 1621.790062 2238.114781 1595.471052 2189.461135 1544.116885 2189.461135 1544.116885 2191.896031 1528.378604 2174.453323 1518.639021" transform="matrix(0.176471,0,0,0.176471,-262.621588,-175.081059)"/><path style="fill:none;stroke-width:3;stroke-linecap:butt;stroke-linejoin:miter;stroke:#010002;stroke-opacity:1;stroke-miterlimit:10" d="M2257.881708 1606.450219c0 0-3.5416660000000775-30.015625-54.85156199999983-75.5924480000001C2203.030146 1530.857771 2204.800979 1519.059594 2187.690302 1507.040062" transform="matrix(0.176471,0,0,0.176471,-262.621588,-175.081059)"/><path style="fill-rule:nonzero;fill:#f4c53d;fill-opacity:1;stroke-width:3;stroke-linecap:butt;stroke-linejoin:miter;stroke:#010002;stroke-opacity:1;stroke-miterlimit:10" d="M2102.867385 1676.885115c0 0-5.3567699999998695 23.640625-23.994791000000077 21.73697900000002C2078.872594 1698.622094 2065.702021 1697.38251 2066.675979 1675.424177c0 0-19.457031000000143 10.359375-22.622396000000208-15.317708000000039C2044.053583 1660.106469 2026.367385 1664.245792 2026.566604 1640.206729 2026.566604 1640.206729 2010.031448 1643.106469 2012.0015 1621.790062 2012.0015 1621.790062 1994.116083 1626.549177 1994.116083 1606.450219c0 0-41.90234299999997-6.950520999999981 45.421875-86.57161500000007L2117.410354 1566.274437zm0 0" transform="matrix(0.176471,0,0,0.176471,-262.621588,-175.081059)"/><path style="fill-rule:nonzero;fill:#f4c53d;fill-opacity:1;stroke-width:3;stroke-linecap:butt;stroke-linejoin:miter;stroke:#010002;stroke-opacity:1;stroke-miterlimit:4" d="M2111.522333 1570.701521C2111.522333 1570.701521 2098.550979 1582.234073 2089.298375 1565.034854 2089.298375 1565.034854 2076.703323 1564.415062 2074.733271 1554.896833 2074.733271 1554.896833 2064.506708 1553.856469 2062.558792 1544.116885 2062.558792 1544.116885 2048.591344 1542.655948 2048.989781 1530.857771 2048.989781 1530.857771 2023.600458 1528.909854 2048.967646 1500.155948 2074.356969 1471.424177 2117.410354 1547.835635 2117.410354 1547.835635zm0 0" transform="matrix(0.176471,0,0,0.176471,-262.621588,-175.081059)"/><path style="fill:none;stroke-width:3;stroke-linecap:butt;stroke-linejoin:miter;stroke:#010002;stroke-opacity:1;stroke-miterlimit:10" d="M2066.675979 1675.424177C2066.675979 1675.424177 2068.646031 1633.787458 2104.72676 1574.154646" transform="matrix(0.176471,0,0,0.176471,-262.621588,-175.081059)"/><path style="fill:none;stroke-width:3;stroke-linecap:butt;stroke-linejoin:miter;stroke:#010002;stroke-opacity:1;stroke-miterlimit:10" d="M2044.053583 1660.106469C2044.053583 1660.106469 2038.453323 1636.067406 2089.298375 1565.034854 2089.298375 1565.034854 2083.388219 1548.05699 2101.49499 1537.1885" transform="matrix(0.176471,0,0,0.176471,-262.621588,-175.081059)"/><path style="fill-rule:nonzero;fill:#f4c53d;fill-opacity:1;stroke-width:3;stroke-linecap:butt;stroke-linejoin:miter;stroke:#010002;stroke-opacity:1;stroke-miterlimit:4" d="M2125.998896 1563.596052C2138.593948 1563.596052 2152.849156 1642.176781 2149.130406 1689.546573 2147.802281 1706.745792 2138.593948 1720.779646 2125.998896 1720.779646 2113.425979 1720.779646 2104.19551 1706.745792 2102.867385 1689.546573 2099.170771 1642.176781 2113.425979 1563.596052 2125.998896 1563.596052" transform="matrix(0.176471,0,0,0.176471,-262.621588,-175.081059)"/><path style="fill:none;stroke-width:3;stroke-linecap:butt;stroke-linejoin:miter;stroke:#010002;stroke-opacity:1;stroke-miterlimit:10" d="M2026.566604 1640.206729C2026.566604 1640.206729 2024.99499 1614.21975 2074.733271 1554.896833 2074.733271 1554.896833 2070.350458 1539.55699 2088.368687 1527.33824" transform="matrix(0.176471,0,0,0.176471,-262.621588,-175.081059)"/><path style="fill:none;stroke-width:3;stroke-linecap:butt;stroke-linejoin:miter;stroke:#010002;stroke-opacity:1;stroke-miterlimit:10" d="M2012.0015 1621.790062C2012.0015 1621.790062 2013.88301 1595.471052 2062.558792 1544.116885 2062.558792 1544.116885 2060.123896 1528.378604 2077.566604 1518.639021" transform="matrix(0.176471,0,0,0.176471,-262.621588,-175.081059)"/><path style="fill-rule:nonzero;fill:#f4c53d;fill-opacity:1;stroke-width:3;stroke-linecap:butt;stroke-linejoin:miter;stroke:#010002;stroke-opacity:1;stroke-miterlimit:4" d="M2143.419469 1562.954125C2143.419469 1548.721052 2135.605667 1537.1885 2125.998896 1537.1885 2116.392125 1537.1885 2108.600458 1548.721052 2108.600458 1562.954125 2108.600458 1577.209333 2116.392125 1588.741885 2125.998896 1588.741885 2135.605667 1588.741885 2143.419469 1577.209333 2143.419469 1562.954125zm0 0" transform="matrix(0.176471,0,0,0.176471,-262.621588,-175.081059)"/><path style="fill:none;stroke-width:3;stroke-linecap:butt;stroke-linejoin:miter;stroke:#010002;stroke-opacity:1;stroke-miterlimit:10" d="M1994.116083 1606.450219c0 0 3.5416670000001886-30.015625 54.87369800000033-75.5924480000001C2048.989781 1530.857771 2047.218948 1519.059594 2064.329625 1507.040062" transform="matrix(0.176471,0,0,0.176471,-262.621588,-175.081059)"/><path style="fill-rule:nonzero;fill:#fff;fill-opacity:1;stroke-width:3;stroke-linecap:butt;stroke-linejoin:miter;stroke:#010002;stroke-opacity:1;stroke-miterlimit:4" d="M2125.998896 1557.331729C2125.998896 1557.331729 2273.66426 1491.899437 2274.040562 1340.515323H1977.979365C1978.333531 1491.899437 2125.998896 1557.331729 2125.998896 1557.331729zm0 0" transform="matrix(0.176471,0,0,0.176471,-262.621588,-175.081059)"/><path style="fill:none;stroke-width:3;stroke-linecap:butt;stroke-linejoin:miter;stroke:#010002;stroke-opacity:1;stroke-miterlimit:10" d="M2046.28926 1340.515323H2069.066604" transform="matrix(0.176471,0,0,0.176471,-262.621588,-175.081059)"/><path style="fill:none;stroke-width:3;stroke-linecap:butt;stroke-linejoin:miter;stroke:#010002;stroke-opacity:1;stroke-miterlimit:10" d="M2000.756708 1340.515323H2023.511917" transform="matrix(0.176471,0,0,0.176471,-262.621588,-175.081059)"/><path style="fill:none;stroke-width:3;stroke-linecap:butt;stroke-linejoin:miter;stroke:#010002;stroke-opacity:1;stroke-miterlimit:10" d="M2091.843948 1340.515323H2114.621292" transform="matrix(0.176471,0,0,0.176471,-262.621588,-175.081059)"/><path style="fill-rule:nonzero;fill:#a60032;fill-opacity:1;stroke-width:3;stroke-linecap:butt;stroke-linejoin:miter;stroke:#010002;stroke-opacity:1;stroke-miterlimit:4" d="M2000.756708 1340.515323V1437.247094C2000.756708 1437.247094 2012.045771 1459.670271 2023.511917 1473.748396V1340.515323zm0 0" transform="matrix(0.176471,0,0,0.176471,-262.621588,-175.081059)"/><path style="fill-rule:nonzero;fill:#a60032;fill-opacity:1;stroke-width:3;stroke-linecap:butt;stroke-linejoin:miter;stroke:#010002;stroke-opacity:1;stroke-miterlimit:4" d="M2046.28926 1340.515323V1499.956729C2046.28926 1499.956729 2060.544469 1513.924177 2069.066604 1520.653344V1340.515323zm0 0" transform="matrix(0.176471,0,0,0.176471,-262.621588,-175.081059)"/><path style="fill-rule:nonzero;fill:#a60032;fill-opacity:1;stroke-width:3;stroke-linecap:butt;stroke-linejoin:miter;stroke:#010002;stroke-opacity:1;stroke-miterlimit:4" d="M2091.843948 1340.515323v197.09375C2091.843948 1537.609073 2108.091344 1548.10126 2114.621292 1551.53225V1340.515323zm0 0" transform="matrix(0.176471,0,0,0.176471,-262.621588,-175.081059)"/><path style="fill:none;stroke-width:3;stroke-linecap:butt;stroke-linejoin:miter;stroke:#010002;stroke-opacity:1;stroke-miterlimit:4" d="M2000.756708 1340.515323H2023.511917" transform="matrix(0.176471,0,0,0.176471,-262.621588,-175.081059)"/><path style="fill:none;stroke-width:3;stroke-linecap:butt;stroke-linejoin:miter;stroke:#010002;stroke-opacity:1;stroke-miterlimit:4" d="M2046.28926 1340.515323H2069.066604" transform="matrix(0.176471,0,0,0.176471,-262.621588,-175.081059)"/><path style="fill:none;stroke-width:3;stroke-linecap:butt;stroke-linejoin:miter;stroke:#010002;stroke-opacity:1;stroke-miterlimit:4" d="M2091.843948 1340.515323H2114.621292" transform="matrix(0.176471,0,0,0.176471,-262.621588,-175.081059)"/><path style="fill-rule:nonzero;fill:#a60032;fill-opacity:1;stroke-width:3;stroke-linecap:butt;stroke-linejoin:miter;stroke:#010002;stroke-opacity:1;stroke-miterlimit:4" d="M2251.263219 1340.515323V1437.247094C2251.263219 1437.247094 2239.952021 1459.670271 2228.485875 1473.748396V1340.515323zm0 0" transform="matrix(0.176471,0,0,0.176471,-262.621588,-175.081059)"/><path style="fill-rule:nonzero;fill:#a60032;fill-opacity:1;stroke-width:3;stroke-linecap:butt;stroke-linejoin:miter;stroke:#010002;stroke-opacity:1;stroke-miterlimit:4" d="M2205.708531 1340.515323V1499.956729C2205.708531 1499.956729 2191.475458 1513.924177 2182.931187 1520.653344V1340.515323zm0 0" transform="matrix(0.176471,0,0,0.176471,-262.621588,-175.081059)"/><path style="fill-rule:nonzero;fill:#a60032;fill-opacity:1;stroke-width:3;stroke-linecap:butt;stroke-linejoin:miter;stroke:#010002;stroke-opacity:1;stroke-miterlimit:4" d="M2160.153844 1340.515323v197.09375C2160.153844 1537.609073 2143.906448 1548.10126 2137.3765 1551.53225V1340.515323zm0 0" transform="matrix(0.176471,0,0,0.176471,-262.621588,-175.081059)"/><path style="fill-rule:nonzero;fill:#0081c6;fill-opacity:1;stroke-width:3;stroke-linecap:butt;stroke-linejoin:miter;stroke:#010002;stroke-opacity:1;stroke-miterlimit:10" d="M2364.729365 1614.728865 2358.974156 1638.192406 2374.712437 1653.864281 2352.488479 1747.696312 2332.721552 1721.155948 2303.436396 1734.8135 2325.660354 1640.981469 2346.268427 1635.248396 2351.603062 1611.80699C2351.603062 1611.80699 2357.84525 1609.372094 2364.729365 1614.728865zm0 0" transform="matrix(0.176471,0,0,0.176471,-262.621588,-175.081059)"/><path style="fill-rule:nonzero;fill:#0081c6;fill-opacity:1;stroke-width:3;stroke-linecap:butt;stroke-linejoin:miter;stroke:#010002;stroke-opacity:1;stroke-miterlimit:10" d="M2369.997594 1599.256208 2358.66426 1620.35126 2369.997594 1639.764021 2325.483271 1724.343448 2312.93249 1693.331729 2281.278844 1698.555687 2325.793167 1613.954125 2347.109573 1614.020531 2358.044469 1592.859073c0 0 7.946613999999954-.022136000000045897 11.953125 6.397134999999935zm0 0" transform="matrix(0.176471,0,0,0.176471,-262.621588,-175.081059)"/><path style="fill-rule:nonzero;fill:#0081c6;fill-opacity:1;stroke-width:3;stroke-linecap:butt;stroke-linejoin:miter;stroke:#010002;stroke-opacity:1;stroke-miterlimit:10" d="M2371.90124 1605.387719 2341.797073 1643.615583 2348.703323 1665.21975 2287.255406 1737.093448 2281.63301 1703.890323 2249.691604 1701.477562 2311.139521 1629.603865 2331.880406 1634.717146 2363.821812 1594.120792c0 0 8.544270999999753 4.25 8.079428000000007 11.266927000000123zm0 0" transform="matrix(0.176471,0,0,0.176471,-262.621588,-175.081059)"/><path style="fill:none;stroke-width:3;stroke-linecap:butt;stroke-linejoin:miter;stroke:#010002;stroke-opacity:1;stroke-miterlimit:4" d="M1597.582229 1121.817406C1597.582229 1121.817406 1637.890823 1145.148135 1763.465042 1168.501" transform="matrix(0.176471,0,0,0.176471,-262.621588,-175.081059)"/><path style="fill:none;stroke-width:3;stroke-linecap:butt;stroke-linejoin:miter;stroke:#010002;stroke-opacity:1;stroke-miterlimit:4" d="M1615.489781 1153.91376C1615.489781 1153.91376 1724.59525 1189.50751 1775.418167 1193.890323" transform="matrix(0.176471,0,0,0.176471,-262.621588,-175.081059)"/><path style="fill:none;stroke-width:3;stroke-linecap:butt;stroke-linejoin:miter;stroke:#010002;stroke-opacity:1;stroke-miterlimit:4" d="M1658.454625 1193.890323c0 0 64.015625 20.09895799999981 138.96614599999998 32.76041699999996" transform="matrix(0.176471,0,0,0.176471,-262.621588,-175.081059)"/><path style="fill:none;stroke-width:3;stroke-linecap:butt;stroke-linejoin:miter;stroke:#010002;stroke-opacity:1;stroke-miterlimit:4" d="M1713.062698 1235.748396C1713.062698 1235.748396 1785.40124 1253.124698 1819.93249 1256.002302" transform="matrix(0.176471,0,0,0.176471,-262.621588,-175.081059)"/><path style="fill:none;stroke-width:3;stroke-linecap:butt;stroke-linejoin:miter;stroke:#010002;stroke-opacity:1;stroke-miterlimit:10" d="M1761.605667 1269.903344c0 0 61.160155999999915 12.75 76.65494799999988 14.29947900000002" transform="matrix(0.176471,0,0,0.176471,-262.621588,-175.081059)"/><path style="fill:none;stroke-width:3;stroke-linecap:butt;stroke-linejoin:miter;stroke:#010002;stroke-opacity:1;stroke-miterlimit:10" d="M1800.541865 1301.379906C1800.541865 1301.379906 1845.189 1308.175479 1862.941604 1307.799177" transform="matrix(0.176471,0,0,0.176471,-262.621588,-175.081059)"/><path style="fill:none;stroke-width:3;stroke-linecap:butt;stroke-linejoin:miter;stroke:#010002;stroke-opacity:1;stroke-miterlimit:10" d="M1855.991083 1328.517927c0 0 18.0625-.8632810000001427 26.73958400000015-2.3020830000000387" transform="matrix(0.176471,0,0,0.176471,-262.621588,-175.081059)"/><path style="fill:none;stroke-width:3;stroke-linecap:butt;stroke-linejoin:miter;stroke:#010002;stroke-opacity:1;stroke-miterlimit:10" d="M1872.703323 1357.515323C1872.703323 1357.515323 1888.043167 1353.376 1897.096552 1347.576521" transform="matrix(0.176471,0,0,0.176471,-262.621588,-175.081059)"/><path style="fill:none;stroke-width:3;stroke-linecap:butt;stroke-linejoin:miter;stroke:#010002;stroke-opacity:1;stroke-miterlimit:10" d="M1895.325719 1387.530948C1895.325719 1387.530948 1907.123896 1382.993187 1912.834833 1370.553083" transform="matrix(0.176471,0,0,0.176471,-262.621588,-175.081059)"/><path style="fill:none;stroke-width:3;stroke-linecap:butt;stroke-linejoin:miter;stroke:#010002;stroke-opacity:1;stroke-miterlimit:10" d="M1924.146031 1398.620792C1924.146031 1398.620792 1933.287958 1390.430687 1933.863479 1381.333031" transform="matrix(0.176471,0,0,0.176471,-262.621588,-175.081059)"/><path style="fill:none;stroke-width:3;stroke-linecap:butt;stroke-linejoin:miter;stroke:#010002;stroke-opacity:1;stroke-miterlimit:10" d="M1958.367385 1405.770531C1958.367385 1405.770531 1954.936396 1402.804385 1957.28275 1389.965844" transform="matrix(0.176471,0,0,0.176471,-262.621588,-175.081059)"/><path style="fill:none;stroke-width:3;stroke-linecap:butt;stroke-linejoin:miter;stroke:#010002;stroke-opacity:1;stroke-miterlimit:10" d="M1953.940302 1371.128604C1953.940302 1371.128604 1952.169469 1367.454125 1952.74499 1361.654646" transform="matrix(0.176471,0,0,0.176471,-262.621588,-175.081059)"/><path style="fill:none;stroke-width:3;stroke-linecap:butt;stroke-linejoin:miter;stroke:#010002;stroke-opacity:1;stroke-miterlimit:10" d="M1889.437698 1187.271833c0 0 20.63020800000004 8.27864599999998 27.514323000000104 19.65625C1923.836135 1218.327823 1919.32051 1229.395531 1916.952021 1235.748396 1915.778844 1238.935896 1901.235875 1267.003604 1918.346552 1287.301781" transform="matrix(0.176471,0,0,0.176471,-262.621588,-175.081059)"/><path style="fill:none;stroke-width:3;stroke-linecap:butt;stroke-linejoin:miter;stroke:#010002;stroke-opacity:1;stroke-miterlimit:10" d="M1889.725458 1309.348656C1889.725458 1309.348656 1889.814 1309.260115 1897.096552 1306.980167" transform="matrix(0.176471,0,0,0.176471,-262.621588,-175.081059)"/><path style="fill:none;stroke-width:3;stroke-linecap:butt;stroke-linejoin:miter;stroke:#010002;stroke-opacity:1;stroke-miterlimit:10" d="M1846.162958 1279.53225C1846.162958 1279.53225 1858.47025 1282.011417 1870.556188 1282.122094" transform="matrix(0.176471,0,0,0.176471,-262.621588,-175.081059)"/><path style="fill:none;stroke-width:3;stroke-linecap:butt;stroke-linejoin:miter;stroke:#010002;stroke-opacity:1;stroke-miterlimit:10" d="M1829.162958 1249.184594C1829.162958 1249.184594 1843.617385 1250.645531 1857.186396 1250.424177" transform="matrix(0.176471,0,0,0.176471,-262.621588,-175.081059)"/><path style="fill-rule:nonzero;fill:#369443;fill-opacity:1;stroke-width:3;stroke-linecap:butt;stroke-linejoin:miter;stroke:#010002;stroke-opacity:1;stroke-miterlimit:10" d="M1882.885615 1610.523135C1882.885615 1610.523135 1882.442906 1597.928083 1898.358271 1596.998396L1945.263219 1662.231469C1945.263219 1662.231469 1943.492385 1666.437198 1922.264521 1665.972354 1922.264521 1665.972354 1920.006708 1665.950219 1918.833531 1668.429385 1917.018427 1672.258812 1882.885615 1610.523135 1882.885615 1610.523135zm0 0" transform="matrix(0.176471,0,0,0.176471,-262.621588,-175.081059)"/><path style="fill:none;stroke-width:3;stroke-linecap:butt;stroke-linejoin:miter;stroke:#010002;stroke-opacity:1;stroke-miterlimit:10" d="M1807.625198 1217.508812C1807.625198 1217.508812 1828.454625 1221.648135 1839.677281 1221.847354" transform="matrix(0.176471,0,0,0.176471,-262.621588,-175.081059)"/><path style="fill:none;stroke-width:3;stroke-linecap:butt;stroke-linejoin:miter;stroke:#010002;stroke-opacity:1;stroke-miterlimit:10" d="M1790.315302 1182.092146C1790.315302 1182.092146 1816.014521 1189.418969 1835.161656 1192.030948" transform="matrix(0.176471,0,0,0.176471,-262.621588,-175.081059)"/><path style="fill:none;stroke-width:3;stroke-linecap:butt;stroke-linejoin:miter;stroke:#010002;stroke-opacity:1;stroke-miterlimit:10" d="M1877.639521 1207.149437c0 0-18.50520800000004 17.177083999999923 3.71875 33.13671899999986C1881.358271 1240.286156 1872.127802 1254.784854 1890.610875 1269.903344" transform="matrix(0.176471,0,0,0.176471,-262.621588,-175.081059)"/><path style="fill:none;stroke-width:3;stroke-linecap:butt;stroke-linejoin:miter;stroke:#010002;stroke-opacity:1;stroke-miterlimit:10" d="M1885.696813 1277.053083c0 0-2.766928000000007 27.647136000000046 31.078125 27.647136000000046C1916.774938 1304.700219 1910.267125 1329.336937 1942.916865 1328.517927 1942.916865 1328.517927 1946.65775 1348.196312 1970.254104 1344.256208" transform="matrix(0.176471,0,0,0.176471,-262.621588,-175.081059)"/><path style="fill:none;stroke-width:3;stroke-linecap:butt;stroke-linejoin:miter;stroke:#010002;stroke-opacity:1;stroke-miterlimit:4" d="M1918.25801 1560.674177c0 0-5.356770000000097 1.195312999999942-16.95572900000002.0" transform="matrix(0.176471,0,0,0.176471,-262.621588,-175.081059)"/><path style="fill:none;stroke-width:3;stroke-linecap:butt;stroke-linejoin:miter;stroke:#010002;stroke-opacity:1;stroke-miterlimit:10" d="M1868.652542 1575.172875c0 0-16.313802000000123-2.4791669999999613-15.539062999999942 32.9375" transform="matrix(0.176471,0,0,0.176471,-262.621588,-175.081059)"/><path style="fill:none;stroke-width:3;stroke-linecap:butt;stroke-linejoin:miter;stroke:#010002;stroke-opacity:1;stroke-miterlimit:10" d="M1878.480667 1583.252302c0 0-14.742187999999942-1.859375-13.76822900000002 32.516926999999896" transform="matrix(0.176471,0,0,0.176471,-262.621588,-175.081059)"/><path style="fill:none;stroke-width:3;stroke-linecap:butt;stroke-linejoin:miter;stroke:#010002;stroke-opacity:1;stroke-miterlimit:4" d="M2020.922073 1500.421573C2020.922073 1500.421573 2013.83874 1501.860375 2008.924677 1507.460635 2004.010615 1513.03876 1994.558792 1512.020531 1994.558792 1512.020531 1994.558792 1512.020531 1999.672073 1507.881208 2001.442906 1497.521833 2003.21374 1487.162458 2008.924677 1484.0635 2008.924677 1484.0635" transform="matrix(0.176471,0,0,0.176471,-262.621588,-175.081059)"/><path style="fill:none;stroke-width:3;stroke-linecap:butt;stroke-linejoin:miter;stroke:#010002;stroke-opacity:1;stroke-miterlimit:4" d="M1992.035354 1474.25751C1992.035354 1474.25751 1984.952021 1475.696312 1980.037958 1481.296573 1975.123896 1486.874698 1965.672073 1485.834333 1965.672073 1485.834333 1965.672073 1485.834333 1970.785354 1481.69501 1972.556188 1471.357771 1974.327021 1460.998396 1980.037958 1457.877302 1980.037958 1457.877302" transform="matrix(0.176471,0,0,0.176471,-262.621588,-175.081059)"/><path style="fill:none;stroke-width:3;stroke-linecap:butt;stroke-linejoin:miter;stroke:#010002;stroke-opacity:1;stroke-miterlimit:4" d="M1987.165563 1514.455427C1987.165563 1514.455427 1980.967646 1515.717146 1976.69551 1520.586937 1972.40124 1525.478865 1964.144729 1524.571312 1964.144729 1524.571312 1964.144729 1524.571312 1968.616083 1520.96324 1970.165563 1511.909854 1971.715042 1502.878604 1976.69551 1500.155948 1976.69551 1500.155948" transform="matrix(0.176471,0,0,0.176471,-262.621588,-175.081059)"/><path style="fill-rule:nonzero;fill:#162667;fill-opacity:1;stroke-width:3;stroke-linecap:butt;stroke-linejoin:miter;stroke:#010002;stroke-opacity:1;stroke-miterlimit:10" d="M2274.040562 1230.546573C2274.040562 1230.546573 2201.569208 1268.442406 2125.998896 1227.447615 2050.428583 1268.442406 1977.979365 1230.546573 1977.979365 1230.546573v109.96875H2274.040562zm0 0" transform="matrix(0.176471,0,0,0.176471,-262.621588,-175.081059)"/><path style="fill-rule:nonzero;fill:#0081c6;fill-opacity:1;stroke-width:3;stroke-linecap:butt;stroke-linejoin:miter;stroke:#010002;stroke-opacity:1;stroke-miterlimit:10" d="M1609.314 1515.739281C1616.485875 1512.817406 1621.643427 1509.984073 1621.621292 1502.325219 1621.621292 1500.510115 1620.603063 1496.481469 1618.566604 1490.217146L1570.399938 1342.972354C1567.544469 1334.228865 1565.375198 1329.027042 1564.379104 1327.123396 1562.209833 1322.961937 1557.959833 1321.279646 1552.248896 1318.889021H1613.475458C1606.812698 1322.03225 1600.747594 1324.533552 1600.814 1331.59475 1600.836135 1334.273135 1601.58874 1338.080427 1603.160354 1342.972354L1640.060094 1458.519229 1676.937698 1342.972354C1678.487177 1338.080427 1679.306188 1334.273135 1679.284052 1331.59475 1679.19551 1324.334333 1672.886917 1321.722354 1666.689 1318.889021H1726.034052C1720.610875 1321.080427 1716.183792 1322.784854 1713.903844 1327.123396 1712.90775 1329.027042 1710.760615 1334.228865 1707.905146 1342.972354L1659.716344 1490.217146C1657.679885 1496.481469 1656.949417 1500.576521 1656.661656 1502.480167 1656.661656 1502.480167 1654.448115 1511.799177 1668.991083 1515.739281zm0 0" transform="matrix(0.176471,0,0,0.176471,-262.621588,-175.081059)"/><path style="fill-rule:nonzero;fill:#0081c6;fill-opacity:1;stroke-width:3;stroke-linecap:butt;stroke-linejoin:miter;stroke:#010002;stroke-opacity:1;stroke-miterlimit:10" d="M2635.97676 1500.598656V1333.896833C2635.97676 1331.019229 2635.511917 1328.805687 2634.560094 1327.256208 2633.608271 1325.728865 2629.468948 1321.301781 2623.558792 1318.889021H2678.742385C2672.832229 1320.859073 2668.692906 1325.596052 2667.741083 1327.189802 2666.78926 1328.783552 2666.324417 1331.019229 2666.324417 1333.896833V1500.598656C2666.324417 1503.586937 2666.811396 1505.866885 2667.80749 1507.460635 2668.781448 1509.03225 2672.832229 1512.905948 2678.742385 1515.739281H2623.558792C2629.468948 1513.060896 2633.608271 1508.921573 2634.560094 1507.372094 2635.511917 1505.84475 2635.97676 1503.586937 2635.97676 1500.598656zm0 0" transform="matrix(0.176471,0,0,0.176471,-262.621588,-175.081059)"/></g></svg>