<svg xmlns="http://www.w3.org/2000/svg" xmlns:xlink="http://www.w3.org/1999/xlink" width="240pt" height="150pt" viewBox="0 0 240 150"><g id="surface1"><path d="M0 0h240v150H0z" style="fill:#fff;fill-opacity:1;stroke:none"/><path style="stroke:none;fill-rule:nonzero;fill:#b50027;fill-opacity:1" d="M0 0H240V50H0zM0 0"/><path style="stroke:none;fill-rule:nonzero;fill:#002577;fill-opacity:1" d="M0 0H1e2V1e2H0zM0 0"/><path style="stroke:none;fill-rule:evenodd;fill:#fff;fill-opacity:1" d="M50.152344 6.933594 48.746094 11.058594l-4.359375-.0625L47.878906 13.609375 46.476562 17.738281 50.035156 15.226562 53.527344 17.839844 52.238281 13.671875 55.800781 11.160156l-4.359375-.0625zm0 0"/><path style="stroke:none;fill-rule:evenodd;fill:#fff;fill-opacity:1" d="M30.125 11.742188 30.800781 16.046875 26.910156 18.019531 31.21875 18.710938 31.890625 23.015625 33.878906 19.136719 38.183594 19.828125 35.105469 16.738281 37.09375 12.859375l-3.890625 1.96875zm0 0"/><path style="stroke:none;fill-rule:evenodd;fill:#fff;fill-opacity:1" d="M14.578125 25.386719 17.175781 28.886719 14.648438 32.441406 18.78125 31.050781 21.378906 34.550781 21.335938 30.191406 25.46875 28.804688 21.308594 27.5 21.265625 23.140625 18.738281 26.691406zm0 0"/><path style="stroke:none;fill-rule:evenodd;fill:#fff;fill-opacity:1" d="M7.257812 44.664062 11.183594 46.558594 10.597656 50.875 13.613281 47.726562 17.539062 49.617188 15.476562 45.777344 18.492188 42.628906 14.199219 43.40625 12.136719 39.566406 11.546875 43.886719zm0 0"/><path style="stroke:none;fill-rule:evenodd;fill:#fff;fill-opacity:1" d="M9.644531 65.09375 14 64.945312 15.484375 69.042969 16.691406 64.851562 21.046875 64.703125 17.4375 62.261719l1.203125-4.1875L15.203125 60.753906l-3.609375-2.4375L13.078125 62.414062zm0 0"/><path style="stroke:none;fill-rule:evenodd;fill:#fff;fill-opacity:1" d="M21.289062 82.175781 25.074219 80.019531 28.296875 82.957031 27.414062 78.6875 31.203125 76.53125 26.871094 76.046875 25.992188 71.777344 24.195312 75.75 19.863281 75.265625 23.085938 78.203125zm0 0"/><path style="stroke:none;fill-rule:evenodd;fill:#fff;fill-opacity:1" d="M39.5625 91.792969 41.914062 88.125 46.128906 89.230469 43.367188 85.855469 45.71875 82.1875 41.660156 83.773438l-2.765625-3.375L39.152344 84.75 35.089844 86.335938 39.308594 87.441406zm0 0"/><path style="stroke:none;fill-rule:evenodd;fill:#fff;fill-opacity:1" d="M60.121094 91.867188 60.5 87.523438 64.746094 86.542969l-4.015625-1.703125L61.109375 80.5 58.25 83.789062 54.238281 82.085938 56.484375 85.824219 53.628906 89.113281 57.875 88.132812zm0 0"/><path style="stroke:none;fill-rule:evenodd;fill:#fff;fill-opacity:1" d="M78.460938 82.394531 76.777344 78.375 80.082031 75.53125 75.734375 75.890625 74.050781 71.871094 73.050781 76.113281 68.707031 76.46875 72.429688 78.734375 71.429688 82.972656 74.734375 80.132812zm0 0"/><path style="stroke:none;fill-rule:evenodd;fill:#fff;fill-opacity:1" d="M90.238281 65.402344 86.878906 62.625 88.484375 58.574219 84.800781 60.910156 81.445312 58.132812 82.527344 62.355469 78.847656 64.691406 83.195312 64.964844 84.28125 69.183594 85.886719 65.132812zm0 0"/><path style="stroke:none;fill-rule:evenodd;fill:#fff;fill-opacity:1" d="M85.59375 25.671875 81.398438 26.859375 78.976562 23.234375 78.808594 27.59375 74.617188 28.777344 78.703125 30.285156 78.535156 34.640625 81.230469 31.214844 85.320312 32.722656 82.898438 29.097656zm0 0"/><path style="stroke:none;fill-rule:evenodd;fill:#fff;fill-opacity:1" d="M70.160156 11.910156 67 14.90625 63.171875 12.824219 65.042969 16.761719 61.882812 19.757812 66.203125 19.191406l1.875 3.9375L68.875 18.84375 73.191406 18.277344 69.363281 16.195312zm0 0"/><path style="stroke:none;fill-rule:evenodd;fill:#fff;fill-opacity:1" d="M92.765625 44.988281 88.5 44.09375 88.039062 39.757812 85.867188 43.539062 81.601562 42.640625 84.523438 45.871094 82.347656 49.652344 86.328125 47.871094 89.246094 51.105469 88.785156 46.769531zm0 0"/><path style="fill-rule:evenodd;fill:#fab700;fill-opacity:1;stroke-width:1.6333;stroke-linecap:butt;stroke-linejoin:miter;stroke:#fab700;stroke-opacity:1;stroke-miterlimit:3.8637" d="M918.675 2090.025H882.3375V2085.975C883.35 2085.8625 884.8125 2085.75 886.725 2085.6375 888.6375 2085.525 890.1 2085.3 890.8875 2084.9625 892.125 2084.4 893.025 2083.8375 893.5875 2082.9375 894.15 2082.0375 894.4875 2080.9125 894.4875 2079.3375v-58.5C894.4875 2019.4875 894.2625 2018.3625 893.8125 2017.4625 893.3625 2016.5625 892.35 2015.775 890.8875 2015.2125 889.7625 2014.7625 888.3 2014.3125 886.5 2013.975 884.8125 2013.525 883.4625 2013.3 882.3375 2013.1875V2009.1375H918.675V2013.1875C917.55 2013.3 916.0875 2013.4125 914.5125 2013.6375 912.825 2013.8625 911.3625 2014.2 910.2375 2014.65 908.775 2015.1 907.7625 2015.775 907.3125 2016.7875 906.75 2017.8 906.525 2019.0375 906.525 2020.275v58.5C906.525 2080.0125 906.8625 2081.1375 907.3125 2082.15 907.875 2083.05 908.8875 2083.8375 910.2375 2084.4 911.025 2084.7375 912.2625 2085.075 914.0625 2085.4125 915.8625 2085.75 917.4375 2085.975 918.675 2085.975zm0 0" transform="matrix(0.0347222,0,0,0.0347222,0,0)"/><path style="fill-rule:evenodd;fill:#fab700;fill-opacity:1;stroke-width:1.6333;stroke-linecap:butt;stroke-linejoin:miter;stroke:#fab700;stroke-opacity:1;stroke-miterlimit:3.8637" d="M1018.2375 2013.1875C1017.225 2013.3 1015.65 2013.525 1013.4 2014.0875 1011.15 2014.7625 1009.575 2015.325 1008.675 2015.8875 1007.325 2016.9 1006.425 2018.7 1005.8625 2021.4 1005.4125 2024.1 1005.1875 2027.475 1005.1875 2031.6375V2090.8125H1000.2375L951.3 2024.6625V2066.4C951.3 2071.0125 951.6375 2074.6125 952.2 2077.2 952.7625 2079.675 953.6625 2081.475 954.9 2082.4875 955.8 2083.3875 957.6 2084.0625 960.3 2084.85 963 2085.525 964.8 2085.975 965.7 2085.975V2090.025H932.625V2085.975C933.6375 2085.8625 935.325 2085.525 937.8 2084.85 940.1625 2084.175 941.7375 2083.6125 942.3 2083.05 943.65 2082.0375 944.55 2080.35 945.1125 2078.2125 945.5625 2076.075 945.7875 2072.25 945.7875 2066.9625V2027.1375C945.7875 2025.45 945.45 2023.65 944.8875 2021.9625 944.325 2020.1625 943.425 2018.8125 942.4125 2017.9125 941.0625 2016.675 939.2625 2015.55 936.9 2014.7625 934.5375 2013.75 932.625 2013.3 931.275 2013.1875V2009.1375h23.0625L999.675 2070.7875V2032.425C999.675 2027.7 999.3375 2024.1 998.775 2021.5125 998.2125 2019.0375 997.3125 2017.35 996.1875 2016.45 995.0625 2015.775 993.375 2015.1 990.9 2014.3125 988.5375 2013.6375 986.7375 2013.3 985.5 2013.1875V2009.1375H1018.35V2013.1875zm0 0" transform="matrix(0.0347222,0,0,0.0347222,0,0)"/><path style="fill-rule:evenodd;fill:#fab700;fill-opacity:1;stroke-width:1.6333;stroke-linecap:butt;stroke-linejoin:miter;stroke:#fab700;stroke-opacity:1;stroke-miterlimit:3.8637" d="M1137.375 2057.7375C1136.475 2057.85 1135.2375 2058.075 1133.6625 2058.3 1132.2 2058.525 1130.9625 2058.8625 1129.95 2059.3125 1128.825 2059.875 1128.0375 2060.6625 1127.475 2061.7875 1127.025 2062.8 1126.8 2064.0375 1126.8 2065.3875V2071.6875C1126.8 2076.1875 1126.9125 2079.3375 1126.9125 2080.9125 1127.025 2082.4875 1127.025 2083.8375 1127.1375 2084.85 1122.075 2087.1 1117.0125 2088.9 1112.0625 2090.025 1107 2091.2625 1102.1625 2091.9375 1097.325 2091.9375 1092.15 2091.9375 1087.2 2090.925 1082.3625 2089.0125 1077.6375 2087.1 1073.475 2084.2875 1069.875 2080.6875 1066.275 2077.0875 1063.4625 2072.7 1061.325 2067.525 1059.1875 2062.4625 1058.0625 2056.6125 1058.0625 2050.2 1058.0625 2044.125 1059.075 2038.3875 1061.1 2033.2125 1063.125 2027.925 1066.05 2023.3125 1069.7625 2019.4875 1073.3625 2015.6625 1077.6375 2012.7375 1082.5875 2010.6 1087.65 2008.4625 1092.9375 2007.45 1098.675 2007.45 1103.175 2007.45 1107.225 2008.0125 1110.6 2009.025 1113.975 2010.15 1116.9 2011.5 1119.4875 2013.075L1121.85 2009.1375h4.5L1126.9125 2037.4875H1122.1875C1121.4 2034.3375 1120.5 2031.3 1119.2625 2028.2625 1118.1375 2025.225 1116.5625 2022.525 1114.7625 2020.1625 1112.85 2017.6875 1110.6 2015.775 1107.9 2014.425 1105.2 2012.9625 1102.05 2012.2875 1098.3375 2012.2875 1094.2875 2012.2875 1090.6875 2013.075 1087.425 2014.7625 1084.275 2016.45 1081.4625 2018.8125 1079.2125 2022.075 1076.85 2025.225 1075.05 2029.1625 1073.8125 2033.8875 1072.575 2038.6125 1071.9 2043.9 1071.9 2049.6375 1071.9 2054.8125 1072.575 2059.65 1073.7 2064.2625 1075.05 2068.7625 1076.85 2072.5875 1079.2125 2075.9625 1081.4625 2079.3375 1084.5 2082.0375 1087.9875 2083.95 1091.475 2085.8625 1095.525 2086.875 1100.025 2086.875 1103.2875 2086.875 1106.325 2086.3125 1109.1375 2085.3 1111.8375 2084.2875 1113.8625 2083.1625 1114.9875 2082.0375 1115.2125 2080.0125 1115.4375 2078.1 1115.4375 2076.075 1115.4375 2074.05 1115.4375 2072.3625 1115.4375 2070.9V2066.5125C1115.4375 2064.9375 1115.2125 2063.475 1114.7625 2062.2375 1114.3125 2061 1113.525 2060.1 1112.0625 2059.5375 1110.825 2058.975 1109.1375 2058.525 1107 2058.3 1104.8625 2057.9625 1103.175 2057.85 1101.9375 2057.7375V2053.575h35.4375zm0 0" transform="matrix(0.0347222,0,0,0.0347222,0,0)"/><path style="fill-rule:evenodd;fill:#fab700;fill-opacity:1;stroke-width:1.6333;stroke-linecap:butt;stroke-linejoin:miter;stroke:#fab700;stroke-opacity:1;stroke-miterlimit:3.8637" d="M1216.8 2018.7C1220.2875 2022.525 1223.1 2027.025 1225.125 2032.2 1227.15 2037.4875 1228.1625 2043.3375 1228.1625 2049.6375 1228.1625 2056.05 1227.15 2061.9 1225.0125 2067.1875 1222.9875 2072.3625 1220.175 2076.8625 1216.575 2080.575 1212.975 2084.175 1208.925 2086.9875 1204.2 2089.0125 1199.5875 2090.925 1194.6375 2091.9375 1189.35 2091.9375 1183.725 2091.9375 1178.55 2090.925 1173.7125 2088.7875 1168.9875 2086.65 1164.9375 2083.725 1161.5625 2080.0125 1158.075 2076.3 1155.375 2071.8 1153.4625 2066.625 1151.55 2061.3375 1150.5375 2055.7125 1150.5375 2049.6375 1150.5375 2043.1125 1151.55 2037.2625 1153.575 2032.0875 1155.6 2027.025 1158.525 2022.525 1162.125 2018.7 1165.6125 2014.9875 1169.775 2012.175 1174.5 2010.2625 1179.225 2008.2375 1184.175 2007.225 1189.35 2007.225 1194.6375 2007.225 1199.7 2008.2375 1204.425 2010.2625 1209.2625 2012.2875 1213.3125 2015.1 1216.8 2018.7zM1208.25 2076.075C1210.3875 2072.5875 1211.9625 2068.65 1212.8625 2064.375 1213.875 2059.9875 1214.325 2055.0375 1214.325 2049.6375 1214.325 2044.125 1213.7625 2039.0625 1212.75 2034.45 1211.625 2029.8375 1210.05 2025.7875 1208.025 2022.525 1205.8875 2019.375 1203.3 2016.7875 1200.15 2015.1 1197 2013.1875 1193.4 2012.2875 1189.35 2012.2875 1184.7375 2012.2875 1180.9125 2013.4125 1177.7625 2015.4375 1174.5 2017.575 1171.9125 2020.275 1169.8875 2023.875 1168.0875 2027.1375 1166.625 2031.075 1165.6125 2035.575 1164.7125 2040.075 1164.2625 2044.8 1164.2625 2049.6375 1164.2625 2055.15 1164.825 2060.1 1165.725 2064.4875 1166.7375 2068.875 1168.3125 2072.8125 1170.45 2076.1875 1172.475 2079.5625 1175.0625 2082.15 1178.2125 2084.0625 1181.25 2085.975 1184.9625 2086.875 1189.35 2086.875 1193.4 2086.875 1197 2085.975 1200.2625 2084.0625 1203.525 2082.15 1206.225 2079.45 1208.25 2076.075zm0 0" transform="matrix(0.0347222,0,0,0.0347222,0,0)"/><path style="fill-rule:evenodd;fill:#fab700;fill-opacity:1;stroke-width:1.6333;stroke-linecap:butt;stroke-linejoin:miter;stroke:#fab700;stroke-opacity:1;stroke-miterlimit:3.8637" d="M1317.6 2050.0875C1317.6 2056.95 1316.25 2062.9125 1313.6625 2067.975 1311.075 2073.0375 1307.8125 2077.2 1303.65 2080.35 1299.4875 2083.6125 1294.7625 2085.975 1289.5875 2087.6625 1284.4125 2089.2375 1279.0125 2090.025 1273.5 2090.025H1239.975V2085.975C1241.1 2085.975 1242.5625 2085.8625 1244.25 2085.6375 1246.05 2085.4125 1247.2875 2085.1875 1247.85 2084.9625 1248.975 2084.4 1249.7625 2083.725 1250.2125 2082.825 1250.775 2081.8125 1251.1125 2080.575 1251.1125 2079.225V2020.95C1251.1125 2019.6 1250.8875 2018.475 1250.325 2017.4625 1249.9875 2016.45 1249.0875 2015.55 1247.85 2014.9875 1246.6125 2014.425 1245.375 2013.975 1244.025 2013.75 1242.675 2013.525 1241.4375 2013.3 1240.425 2013.1875V2009.1375H1275.75C1280.5875 2009.1375 1285.425 2009.925 1290.15 2011.5 1294.7625 2012.9625 1298.925 2014.9875 1302.4125 2017.4625 1307.1375 2020.8375 1310.85 2025.3375 1313.55 2030.7375 1316.25 2036.25 1317.6 2042.6625 1317.6 2050.0875zM1303.65 2049.975C1303.65 2044.575 1302.8625 2039.7375 1301.5125 2035.35 1300.05 2030.9625 1297.9125 2027.1375 1295.2125 2023.875 1292.5125 2020.725 1289.3625 2018.25 1285.5375 2016.45 1281.7125 2014.65 1277.4375 2013.75 1272.825 2013.75 1271.25 2013.75 1269.45 2013.8625 1267.5375 2013.8625 1265.625 2013.975 1264.1625 2013.975 1263.15 2013.975V2076.1875C1263.15 2079.675 1264.1625 2082.0375 1266.1875 2083.3875 1268.2125 2084.7375 1271.25 2085.3 1275.525 2085.3 1280.25 2085.3 1284.525 2084.5125 1288.125 2082.825 1291.725 2081.025 1294.65 2078.6625 1296.9 2075.625 1299.2625 2072.475 1300.95 2068.7625 1301.9625 2064.6 1303.0875 2060.4375 1303.65 2055.4875 1303.65 2049.975zm0 0" transform="matrix(0.0347222,0,0,0.0347222,0,0)"/><path style="fill-rule:evenodd;fill:#fab700;fill-opacity:1;stroke-width:1.6333;stroke-linecap:butt;stroke-linejoin:miter;stroke:#fab700;stroke-opacity:1;stroke-miterlimit:3.8637" d="M1471.725 2013.1875C1470.825 2013.3 1469.7 2013.525 1468.4625 2013.8625 1467.225 2014.3125 1466.1 2014.7625 1464.975 2015.4375 1463.625 2016.3375 1462.6125 2017.2375 1461.7125 2018.3625 1460.925 2019.375 1460.25 2020.95 1459.6875 2022.8625 1456.9875 2031.6375 1453.8375 2041.875 1450.2375 2053.575 1446.6375 2065.275 1442.8125 2077.7625 1438.65 2091.0375H1433.475L1413.1125 2028.825 1391.85 2091.0375H1386.9C1383.075 2077.7625 1379.25 2063.925 1375.2 2049.6375 1371.15 2035.35 1368.45 2025.7875 1367.1 2020.95 1366.7625 2019.7125 1366.3125 2018.7 1365.6375 2017.8 1364.9625 2016.9 1364.0625 2016 1362.9375 2015.325 1361.925 2014.65 1360.8 2014.2 1359.5625 2013.8625 1358.325 2013.525 1357.2 2013.3 1356.1875 2013.1875V2009.1375H1389.0375V2013.1875C1386.225 2013.4125 1383.75 2013.6375 1381.725 2014.0875 1379.7 2014.5375 1378.6875 2015.2125 1378.6875 2016.225 1378.6875 2016.5625 1378.6875 2017.125 1378.8 2017.6875 1378.9125 2018.3625 1379.025 2018.8125 1379.1375 2019.2625 1380.0375 2022.525 1381.5 2028.0375 1383.75 2035.8 1386 2043.45 1389.2625 2054.925 1393.65 2070.3375L1413.7875 2010.375H1419.3L1439.6625 2071.575C1442.3625 2062.2375 1444.725 2054.025 1446.75 2046.9375 1448.6625 2039.85 1450.35 2033.8875 1451.5875 2028.825 1452.4875 2025.3375 1453.05 2022.8625 1453.275 2021.625 1453.5 2020.275 1453.6125 2019.15 1453.6125 2018.25 1453.6125 2016.9 1452.825 2015.8875 1451.025 2014.9875 1449.225 2014.0875 1446.4125 2013.525 1442.475 2013.1875V2009.1375h29.25zm0 0" transform="matrix(0.0347222,0,0,0.0347222,0,0)"/><path style="fill-rule:evenodd;fill:#fab700;fill-opacity:1;stroke-width:1.6333;stroke-linecap:butt;stroke-linejoin:miter;stroke:#fab700;stroke-opacity:1;stroke-miterlimit:3.8637" d="M1550.1375 2066.175 1548.675 2090.025H1481.625V2085.975C1482.75 2085.8625 1484.2125 2085.75 1486.125 2085.525 1488.0375 2085.3 1489.275 2084.9625 1489.8375 2084.7375 1491.075 2084.175 1491.8625 2083.3875 1492.3125 2082.4875 1492.875 2081.5875 1493.1 2080.4625 1493.1 2079V2020.95C1493.1 2019.7125 1492.875 2018.5875 1492.425 2017.575 1492.0875 2016.675 1491.1875 2015.775 1489.8375 2015.2125 1488.825 2014.7625 1487.475 2014.3125 1485.675 2013.8625 1483.9875 2013.525 1482.6375 2013.3 1481.625 2013.1875V2009.1375h62.4375V2028.7125H1539.7875C1539 2025.7875 1537.425 2022.75 1534.8375 2019.4875 1532.3625 2016.225 1530 2014.425 1527.6375 2014.0875 1526.5125 2013.975 1525.05 2013.8625 1523.475 2013.75 1521.7875 2013.75 1519.9875 2013.6375 1517.85 2013.6375H1505.25V2045.8125H1514.3625C1517.175 2045.8125 1519.3125 2045.5875 1520.6625 2045.025 1522.0125 2044.4625 1523.25 2043.5625 1524.2625 2042.2125 1525.05 2041.0875 1525.8375 2039.625 1526.4 2037.825 1526.9625 2036.025 1527.4125 2034.225 1527.525 2032.65H1531.8V2064.2625H1527.525C1527.4125 2062.35 1526.9625 2060.4375 1526.2875 2058.4125 1525.725 2056.3875 1524.9375 2054.925 1524.2625 2054.025 1523.1375 2052.5625 1521.7875 2051.55 1520.2125 2051.1 1518.75 2050.65 1516.725 2050.425 1514.3625 2050.425H1505.25V2074.725C1505.25 2077.0875 1505.3625 2079 1505.7 2080.4625 1506.0375 2081.8125 1506.7125 2082.9375 1507.725 2083.6125 1508.7375 2084.4 1510.0875 2084.85 1511.775 2085.075 1513.4625 2085.3 1515.9375 2085.3 1519.0875 2085.3 1520.325 2085.3 1521.9 2085.3 1524.0375 2085.3 1526.0625 2085.3 1527.75 2085.3 1529.2125 2085.075 1530.5625 2084.9625 1532.025 2084.7375 1533.6 2084.2875 1535.175 2083.95 1536.3 2083.3875 1536.8625 2082.7125 1538.6625 2080.8 1540.4625 2078.1 1542.375 2074.3875 1544.2875 2070.675 1545.525 2067.975 1546.0875 2066.175zm0 0" transform="matrix(0.0347222,0,0,0.0347222,0,0)"/><path style="fill-rule:evenodd;fill:#fab700;fill-opacity:1;stroke-width:1.6333;stroke-linecap:butt;stroke-linejoin:miter;stroke:#fab700;stroke-opacity:1;stroke-miterlimit:3.8637" d="M1668.9375 2031.075H1665C1664.6625 2029.725 1663.9875 2028.15 1663.0875 2026.2375 1662.1875 2024.325 1661.2875 2022.6375 1660.1625 2020.95 1659.0375 2019.15 1657.8 2017.6875 1656.3375 2016.3375 1655.1 2014.9875 1653.75 2014.3125 1652.5125 2014.0875 1651.3875 2013.975 1649.8125 2013.8625 1648.125 2013.75 1646.325 2013.6375 1644.6375 2013.6375 1643.175 2013.6375H1639.8V2078.325C1639.8 2079.5625 1640.1375 2080.6875 1640.5875 2081.8125 1641.15 2082.825 1642.05 2083.6125 1643.4 2084.175 1644.075 2084.4 1645.5375 2084.7375 1647.675 2085.1875 1649.925 2085.6375 1651.6125 2085.975 1652.85 2085.975V2090.025H1614.7125V2085.975C1615.725 2085.8625 1617.4125 2085.75 1619.55 2085.525 1621.6875 2085.3 1623.2625 2084.9625 1624.05 2084.625 1625.2875 2084.175 1626.1875 2083.5 1626.75 2082.6 1627.425 2081.5875 1627.7625 2080.35 1627.7625 2078.775V2013.6375h-3.375C1623.2625 2013.6375 1621.8 2013.6375 1620 2013.75 1618.3125 2013.75 1616.625 2013.8625 1615.05 2014.0875 1613.8125 2014.2 1612.4625 2014.9875 1611.1125 2016.3375 1609.7625 2017.6875 1608.525 2019.2625 1607.4 2020.95 1606.275 2022.6375 1605.2625 2024.4375 1604.3625 2026.35 1603.4625 2028.2625 1602.9 2029.8375 1602.5625 2031.075h-3.9375v-21.9375h70.3125zm0 0" transform="matrix(0.0347222,0,0,0.0347222,0,0)"/><path style="fill-rule:evenodd;fill:#fab700;fill-opacity:1;stroke-width:1.6333;stroke-linecap:butt;stroke-linejoin:miter;stroke:#fab700;stroke-opacity:1;stroke-miterlimit:3.8637" d="M1760.625 2090.025H1738.9125C1734.075 2082.4875 1729.8 2075.9625 1725.8625 2070.45 1722.0375 2064.9375 1717.7625 2059.2 1713.2625 2053.35H1704.9375V2079C1704.9375 2080.35 1705.1625 2081.475 1705.6125 2082.6 1706.0625 2083.5 1706.85 2084.2875 1708.3125 2084.85 1708.9875 2085.075 1710.1125 2085.3 1711.9125 2085.525 1713.6 2085.75 1714.95 2085.975 1716.1875 2085.975V2090.025H1681.9875V2085.975C1683 2085.8625 1684.2375 2085.75 1685.925 2085.525 1687.725 2085.4125 1688.9625 2085.1875 1689.6375 2084.85 1690.7625 2084.2875 1691.55 2083.6125 1692.1125 2082.7125 1692.5625 2081.7 1692.9 2080.4625 1692.9 2079V2020.6125C1692.9 2019.2625 1692.675 2018.025 1692.3375 2017.0125 1691.8875 2016 1690.9875 2015.2125 1689.6375 2014.7625 1688.625 2014.3125 1687.3875 2014.0875 1685.925 2013.75 1684.35 2013.525 1683.1125 2013.3 1682.1 2013.1875V2009.1375H1719.3375C1722.7125 2009.1375 1725.975 2009.5875 1728.9 2010.2625 1731.9375 2010.9375 1734.6375 2012.0625 1737.1125 2013.6375 1739.3625 2015.1 1741.275 2017.125 1742.7375 2019.6 1744.0875 2022.075 1744.7625 2025 1744.7625 2028.4875 1744.7625 2031.525 1744.3125 2034.3375 1743.4125 2036.7 1742.4 2039.0625 1741.05 2041.2 1739.1375 2042.8875 1737.45 2044.575 1735.425 2045.925 1733.0625 2047.1625 1730.5875 2048.4 1728 2049.4125 1725.075 2050.2 1729.125 2055.4875 1732.3875 2059.875 1734.975 2063.475 1737.675 2067.1875 1740.9375 2071.575 1744.7625 2076.6375 1746.45 2079 1747.9125 2080.6875 1749.2625 2081.7 1750.6125 2082.825 1751.9625 2083.725 1753.3125 2084.4 1754.2125 2084.85 1755.45 2085.3 1757.025 2085.525 1758.4875 2085.75 1759.725 2085.975 1760.625 2085.975zM1730.7 2029.725C1730.7 2024.8875 1729.35 2020.95 1726.5375 2018.1375 1723.725 2015.2125 1719.7875 2013.75 1714.6125 2013.75H1704.9375V2048.5125H1712.475C1717.65 2048.5125 1722.0375 2046.825 1725.525 2043.45 1729.0125 2040.075 1730.7 2035.575 1730.7 2029.725zm0 0" transform="matrix(0.0347222,0,0,0.0347222,0,0)"/><path style="fill-rule:evenodd;fill:#fab700;fill-opacity:1;stroke-width:1.6333;stroke-linecap:butt;stroke-linejoin:miter;stroke:#fab700;stroke-opacity:1;stroke-miterlimit:3.8637" d="M1845.1125 2013.1875C1844.1 2013.3 1842.525 2013.525 1840.5 2013.8625 1838.3625 2014.3125 1836.675 2014.9875 1835.4375 2015.775 1834.2 2016.675 1833.3 2018.475 1832.7375 2021.175 1832.2875 2023.9875 1832.0625 2027.25 1832.0625 2031.1875V2066.4C1832.0625 2070.9 1831.05 2074.725 1829.25 2078.1 1827.3375 2081.3625 1824.975 2084.0625 1821.9375 2086.2 1818.9 2088.225 1815.75 2089.6875 1812.375 2090.5875 1809.1125 2091.4875 1805.9625 2091.9375 1802.925 2091.9375 1798.0875 2091.9375 1793.7 2091.2625 1789.875 2090.025 1786.1625 2088.7875 1782.9 2087.1 1780.3125 2084.85 1777.8375 2082.7125 1775.925 2080.2375 1774.575 2077.5375 1773.3375 2074.725 1772.6625 2071.8 1772.6625 2068.7625V2020.95C1772.6625 2019.6 1772.4375 2018.475 1771.9875 2017.575 1771.5375 2016.675 1770.75 2015.8875 1769.4 2015.1 1768.3875 2014.5375 1767.2625 2014.2 1765.6875 2013.8625 1764.225 2013.525 1762.9875 2013.3 1762.0875 2013.1875V2009.1375H1795.725V2013.1875C1794.7125 2013.3 1793.3625 2013.4125 1791.675 2013.75 1790.1 2014.0875 1788.8625 2014.3125 1788.1875 2014.65 1786.8375 2015.1 1785.9375 2015.775 1785.4875 2016.9 1785.15 2017.9125 1784.925 2019.15 1784.925 2020.3875V2065.05C1784.925 2067.1875 1785.15 2069.4375 1785.6 2071.8 1786.05 2074.1625 1787.0625 2076.4125 1788.4125 2078.4375 1789.875 2080.575 1791.9 2082.2625 1794.4875 2083.6125 1796.9625 2084.9625 1800.45 2085.525 1804.95 2085.525 1809.1125 2085.525 1812.6 2084.9625 1815.4125 2083.6125 1818.225 2082.2625 1820.475 2080.4625 1822.1625 2078.325 1823.625 2076.3 1824.75 2074.1625 1825.425 2071.9125 1826.1 2069.6625 1826.4375 2067.4125 1826.4375 2065.1625V2031.975C1826.4375 2027.7 1826.1 2024.325 1825.425 2021.625 1824.8625 2018.925 1823.9625 2017.2375 1822.8375 2016.3375 1821.4875 2015.4375 1819.6875 2014.65 1817.325 2014.0875 1815.075 2013.6375 1813.275 2013.3 1812.15 2013.1875V2009.1375H1845.1125zm0 0" transform="matrix(0.0347222,0,0,0.0347222,0,0)"/><path style="fill-rule:evenodd;fill:#fab700;fill-opacity:1;stroke-width:1.6333;stroke-linecap:butt;stroke-linejoin:miter;stroke:#fab700;stroke-opacity:1;stroke-miterlimit:3.8637" d="M1904.9625 2052.9C1906.65 2054.8125 1908 2056.95 1908.7875 2059.2 1909.575 2061.45 1910.025 2064.0375 1910.025 2067.075 1910.025 2074.1625 1907.325 2080.125 1902.0375 2084.7375 1896.8625 2089.35 1890.225 2091.7125 1882.4625 2091.7125 1878.8625 2091.7125 1875.2625 2091.15 1871.6625 2090.025 1868.0625 2088.9 1864.9125 2087.55 1862.325 2085.8625L1859.85 2090.025h-4.5L1854.5625 2062.35H1859.175C1860.075 2065.8375 1861.2 2068.875 1862.4375 2071.6875 1863.675 2074.3875 1865.3625 2076.975 1867.5 2079.3375 1869.4125 2081.5875 1871.775 2083.3875 1874.3625 2084.7375 1877.0625 2086.0875 1880.1 2086.7625 1883.5875 2086.7625 1886.175 2086.7625 1888.5375 2086.425 1890.45 2085.6375 1892.3625 2084.9625 1893.9375 2084.0625 1895.175 2082.825 1896.4125 2081.475 1897.3125 2080.0125 1897.875 2078.4375 1898.4375 2076.6375 1898.775 2074.725 1898.775 2072.475 1898.775 2069.325 1897.875 2066.2875 1896.075 2063.475 1894.275 2060.775 1891.575 2058.6375 1887.975 2057.175 1885.5 2056.1625 1882.575 2055.0375 1879.425 2053.9125 1876.275 2052.675 1873.4625 2051.55 1871.2125 2050.5375 1866.6 2048.4 1863.1125 2045.7 1860.525 2042.4375 1858.05 2039.0625 1856.8125 2034.7875 1856.8125 2029.3875 1856.8125 2026.35 1857.375 2023.425 1858.725 2020.8375 1859.9625 2018.1375 1861.7625 2015.775 1864.0125 2013.6375 1866.2625 2011.725 1868.85 2010.15 1871.775 2009.025 1874.8125 2007.9 1877.9625 2007.3375 1881.225 2007.3375 1884.9375 2007.3375 1888.2 2007.9 1891.125 2009.025 1894.1625 2010.2625 1896.8625 2011.5 1899.225 2013.075L1901.5875 2009.1375h4.5L1906.5375 2036.025H1901.925C1901.1375 2032.9875 1900.2375 2029.95 1899.1125 2027.1375 1898.1 2024.325 1896.75 2021.85 1895.0625 2019.6 1893.4875 2017.35 1891.4625 2015.55 1889.1 2014.3125 1886.7375 2012.9625 1883.925 2012.2875 1880.4375 2012.2875 1876.8375 2012.2875 1873.8 2013.525 1871.2125 2015.775 1868.7375 2018.1375 1867.3875 2020.95 1867.3875 2024.325 1867.3875 2027.8125 1868.2875 2030.625 1869.8625 2032.9875 1871.55 2035.2375 1873.9125 2037.15 1876.95 2038.6125 1879.7625 2039.9625 1882.4625 2041.0875 1885.1625 2042.1 1887.8625 2043.1125 1890.45 2044.125 1892.925 2045.1375 1895.175 2046.15 1897.425 2047.275 1899.45 2048.5125 1901.5875 2049.75 1903.3875 2051.2125 1904.9625 2052.9zm0 0" transform="matrix(0.0347222,0,0,0.0347222,0,0)"/><path style="fill-rule:evenodd;fill:#fab700;fill-opacity:1;stroke-width:1.6333;stroke-linecap:butt;stroke-linejoin:miter;stroke:#fab700;stroke-opacity:1;stroke-miterlimit:3.8637" d="M1992.375 2031.075h-3.9375C1988.1 2029.725 1987.5375 2028.15 1986.525 2026.2375 1985.7375 2024.325 1984.725 2022.6375 1983.6 2020.95 1982.475 2019.15 1981.2375 2017.6875 1979.8875 2016.3375 1978.5375 2014.9875 1977.1875 2014.3125 1975.95 2014.0875 1974.825 2013.975 1973.3625 2013.8625 1971.5625 2013.75 1969.7625 2013.6375 1968.075 2013.6375 1966.6125 2013.6375H1963.35V2078.325C1963.35 2079.5625 1963.575 2080.6875 1964.1375 2081.8125 1964.5875 2082.825 1965.6 2083.6125 1966.8375 2084.175 1967.625 2084.4 1968.975 2084.7375 1971.1125 2085.1875 1973.3625 2085.6375 1975.05 2085.975 1976.2875 2085.975V2090.025H1938.15V2085.975C1939.1625 2085.8625 1940.85 2085.75 1942.9875 2085.525 1945.2375 2085.3 1946.7 2084.9625 1947.4875 2084.625 1948.8375 2084.175 1949.7375 2083.5 1950.3 2082.6 1950.8625 2081.5875 1951.2 2080.35 1951.2 2078.775V2013.6375H1947.9375C1946.7 2013.6375 1945.2375 2013.6375 1943.55 2013.75 1941.75 2013.75 1940.0625 2013.8625 1938.4875 2014.0875 1937.25 2014.2 1935.9 2014.9875 1934.55 2016.3375 1933.2 2017.6875 1931.9625 2019.2625 1930.8375 2020.95 1929.7125 2022.6375 1928.7 2024.4375 1927.8 2026.35 1927.0125 2028.2625 1926.3375 2029.8375 1926 2031.075h-3.9375v-21.9375h70.3125zm0 0" transform="matrix(0.0347222,0,0,0.0347222,0,0)"/><path style="stroke:none;fill-rule:nonzero;fill:#fab700;fill-opacity:1" d="M50.101562 37.019531C50.105469 37.019531 50.109375 37.015625 50.109375 37.015625 50.113281 37.015625 50.457031 37.140625 50.460938 37.683594 50.765625 37.625 50.890625 37.789062 50.832031 38.167969c0 0-.36328100000000063-.0976569999999981-.421875.109375C50.320312 38.519531 50.386719 38.714844 50.613281 38.863281 50.613281 38.863281 50.992188 39.164062 51.230469 38.597656 51.46875 38.027344 51.554688 37.835938 51.554688 37.835938 51.621094 37.625 52.015625 37.132812 52.371094 37.066406 52.507812 37.011719 52.640625 37.023438 52.785156 37.054688 52.785156 37.054688 53.097656 37.125 53.105469 37.386719 53.117188 37.648438 53.007812 37.761719 52.832031 37.835938 52.636719 37.921875 52.394531 37.742188 52.394531 37.742188 52.3125 37.726562 52.285156 37.753906 52.234375 37.789062 52.210938 37.808594 52.109375 37.917969 52.054688 38.039062 52.054688 38.039062 51.878906 38.40625 51.796875 38.6875 51.730469 38.90625 51.585938 39.578125 50.910156 39.675781H49.3125C48.632812 39.578125 48.492188 38.90625 48.425781 38.6875 48.34375 38.40625 48.167969 38.039062 48.167969 38.039062 48.109375 37.917969 48.011719 37.808594 47.988281 37.789062 47.9375 37.753906 47.910156 37.726562 47.824219 37.742188c0 0-.24218799999999874.17968700000000126-.4375.09375C47.210938 37.761719 47.105469 37.648438 47.113281 37.386719 47.121094 37.125 47.4375 37.054688 47.4375 37.054688 47.582031 37.023438 47.710938 37.011719 47.847656 37.066406 48.207031 37.132812 48.601562 37.625 48.667969 37.835938 48.667969 37.835938 48.753906 38.027344 48.992188 38.597656 49.230469 39.164062 49.609375 38.863281 49.609375 38.863281 49.832031 38.714844 49.902344 38.519531 49.8125 38.277344 49.753906 38.070312 49.386719 38.167969 49.386719 38.167969 49.328125 37.789062 49.453125 37.625 49.761719 37.683594 49.761719 37.140625 50.109375 37.015625 50.113281 37.015625 50.113281 37.015625 50.113281 37.019531 50.121094 37.019531zm0 0"/><path style="fill-rule:evenodd;fill:#fab700;fill-opacity:1;stroke-width:8.4891;stroke-linecap:butt;stroke-linejoin:miter;stroke:#002577;stroke-opacity:1;stroke-miterlimit:3.8637" d="M1401.8625 2277.7515H1487.475L1500.1875 2712.4515H1388.7zm0 0" transform="matrix(0.0347222,0,0,0.0347222,0,-38.905)"/><path style="fill-rule:evenodd;fill:#fab700;fill-opacity:1;stroke-width:8.4891;stroke-linecap:butt;stroke-linejoin:miter;stroke:#002577;stroke-opacity:1;stroke-miterlimit:3.8637" d="M1381.3875 2756.7765 1499.625 2756.664v197.4375H1381.3875zm0 0" transform="matrix(0.0347222,0,0,0.0347222,0,-38.905)"/><path style="fill-rule:nonzero;fill:#fab700;fill-opacity:1;stroke-width:8.4891;stroke-linecap:butt;stroke-linejoin:miter;stroke:#002577;stroke-opacity:1;stroke-miterlimit:3.8637" d="M1379.475 1613.8125H1499.4C1507.725 1613.8125 1514.475 1618.875 1514.475 1625.175 1514.475 1631.475 1507.725 1636.5375 1499.4 1636.5375H1379.475c-8.4375.0-15.1875-5.0625-15.1875-11.362499999999955C1364.2875 1618.875 1371.0375 1613.8125 1379.475 1613.8125zm0 0" transform="matrix(0.0347222,0,0,0.0347222,0,0)"/><path style="fill-rule:evenodd;fill:#fab700;fill-opacity:1;stroke-width:8.4891;stroke-linecap:butt;stroke-linejoin:miter;stroke:#002577;stroke-opacity:1;stroke-miterlimit:3.8637" d="M1388.3625 1592.4375h104.625c7.4249999999999545.0 13.5 4.724999999999909 13.5 10.6875C1506.4875 1608.975 1500.4125 1613.8125 1492.9875 1613.8125h-104.625C1380.9375 1613.8125 1374.8625 1608.975 1374.8625 1603.125 1374.8625 1597.1625 1380.9375 1592.4375 1388.3625 1592.4375zm0 0" transform="matrix(0.0347222,0,0,0.0347222,0,0)"/><path style="fill:none;stroke-width:8.4891;stroke-linecap:butt;stroke-linejoin:miter;stroke:#002577;stroke-opacity:1;stroke-miterlimit:3.8637" d="M1408.05 1673.2125H1471.275V1803.375H1408.05zm0 0" transform="matrix(0.0347222,0,0,0.0347222,0,0)"/><path style="fill-rule:nonzero;fill:#fab700;fill-opacity:1;stroke-width:4.8999;stroke-linecap:butt;stroke-linejoin:miter;stroke:#002577;stroke-opacity:1;stroke-miterlimit:3.8637" d="M1406.7 1142.1H1479.375C1485.3375 1142.1 1490.175 1145.5875 1490.175 1149.975 1490.175 1154.3625 1485.3375 1157.85 1479.375 1157.85H1406.7C1400.7375 1157.85 1395.9 1154.3625 1395.9 1149.975 1395.9 1145.5875 1400.7375 1142.1 1406.7 1142.1zm0 0" transform="matrix(0.0347222,0,0,0.0347222,0,0)"/><path style="fill-rule:evenodd;fill:#fab700;fill-opacity:1;stroke-width:10;stroke-linecap:butt;stroke-linejoin:miter;stroke:#002577;stroke-opacity:1;stroke-miterlimit:3.8637" d="M847.6875 1857.2625h1205.775V1897.9875H847.6875zm0 0" transform="matrix(0.0347222,0,0,0.0347222,0,0)"/><path style="fill-rule:nonzero;fill:#fab700;fill-opacity:1;stroke-width:6.0001;stroke-linecap:butt;stroke-linejoin:miter;stroke:#002577;stroke-opacity:1;stroke-miterlimit:3.8637" d="M796.275 1897.65h1309.5V1940.625H796.275zm0 0" transform="matrix(0.0347222,0,0,0.0347222,0,0)"/><path style="fill-rule:evenodd;fill:#fab700;fill-opacity:1;stroke-width:9.5504;stroke-linecap:butt;stroke-linejoin:miter;stroke:#002577;stroke-opacity:1;stroke-miterlimit:3.8637" d="M883.35 974.475H2009.1375V999.3375H883.35zm0 0" transform="matrix(0.0347222,0,0,0.0347222,0,0)"/><path style="fill-rule:evenodd;fill:#fab700;fill-opacity:1;stroke-width:4.8999;stroke-linecap:butt;stroke-linejoin:round;stroke:#002577;stroke-opacity:1;stroke-miterlimit:3.8637" d="M1797.075 973.6875C1738.8 833.9625 1603.35 736.3125 1445.7375 736.3125 1288.125 736.3125 1152.7875 834.075 1094.4 973.6875H954.5625C1019.25 758.925 1214.8875 601.425 1445.7375 601.425 1676.7 601.425 1872.45 758.5875 1937.1375 973.575zm0 0" transform="matrix(0.0347222,0,0,0.0347222,0,0)"/><path style="fill-rule:evenodd;fill:#fab700;fill-opacity:1;stroke-width:6.0001;stroke-linecap:butt;stroke-linejoin:miter;stroke:#002577;stroke-opacity:1;stroke-miterlimit:3.8637" d="M913.6125 999.675C913.6125 999.675 933.075 1011.375 949.275 1046.025L1950.8625 1045.9125C1950.8625 1045.9125 1967.2875 1007.2125 1990.0125 999.5625zm0 0" transform="matrix(0.0347222,0,0,0.0347222,0,0)"/><path style="fill-rule:evenodd;fill:#fab700;fill-opacity:1;stroke-width:4.8999;stroke-linecap:butt;stroke-linejoin:round;stroke:#002577;stroke-opacity:1;stroke-miterlimit:3.8637" d="M1162.125 1055.025C1162.125 1055.025 1254.825 1214.2125 1443.4875 1212.075 1629.9 1209.825 1724.9625 1060.425 1724.9625 1060.425L1774.6875 1134C1774.6875 1134 1793.025 1158.975 1757.3625 1190.3625 1631.475 1301.2875 1531.6875 1323.1125 1443.4875 1322.4375 1313.4375 1315.35 1208.3625 1271.3625 1128.6 1190.3625 1114.2 1178.4375 1111.275 1162.6875 1115.6625 1149.75zm0 0" transform="matrix(0.0347222,0,0,0.0347222,0,0)"/><path style="fill:none;stroke-width:6.3669;stroke-linecap:butt;stroke-linejoin:miter;stroke:#002577;stroke-opacity:1;stroke-miterlimit:3.8637" d="M1113.75 1166.2875C1113.75 1166.2875 1108.125 1134 1158.8625 1159.9875L1162.6875 1055.475" transform="matrix(0.0347222,0,0,0.0347222,0,0)"/><path style="fill:none;stroke-width:6.3669;stroke-linecap:butt;stroke-linejoin:miter;stroke:#002577;stroke-opacity:1;stroke-miterlimit:3.8637" d="M1778.175 1144.35C1761.975 1109.3625 1732.275 1152.225 1732.275 1152.225L1724.85 1060.9875" transform="matrix(0.0347222,0,0,0.0347222,0,0)"/><path style="fill-rule:nonzero;fill:#fab700;fill-opacity:1;stroke-width:5;stroke-linecap:butt;stroke-linejoin:miter;stroke:#002577;stroke-opacity:1;stroke-miterlimit:3.8637" d="M943.875 1047.825H1950.8625C1954.35 1047.825 1957.275 1050.8625 1957.275 1054.575v2.25C1957.275 1060.65 1954.35 1063.575 1950.8625 1063.575H943.875C940.275 1063.575 937.35 1060.65 937.35 1056.825v-2.25C937.35 1050.8625 940.275 1047.825 943.875 1047.825zm0 0" transform="matrix(0.0347222,0,0,0.0347222,0,0)"/><path style="stroke:none;fill-rule:nonzero;fill:#fab700;fill-opacity:1" d="M35.863281 36.976562C35.871094 36.976562 35.871094 36.972656 35.871094 36.972656 35.875 36.972656 36.222656 37.097656 36.222656 37.640625 36.53125 37.582031 36.65625 37.746094 36.59375 38.125 36.59375 38.125 36.230469 38.027344 36.171875 38.234375 36.082031 38.476562 36.152344 38.671875 36.375 38.820312 36.375 38.820312 36.753906 39.121094 36.992188 38.554688 37.230469 37.984375 37.316406 37.792969 37.316406 37.792969 37.382812 37.582031 37.777344 37.089844 38.136719 37.023438 38.273438 36.96875 38.402344 36.976562 38.546875 37.011719 38.546875 37.011719 38.863281 37.082031 38.871094 37.34375 38.878906 37.605469 38.773438 37.71875 38.597656 37.792969 38.402344 37.878906 38.160156 37.699219 38.160156 37.699219 38.074219 37.683594 38.046875 37.710938 37.996094 37.746094 37.972656 37.765625 37.875 37.871094 37.816406 37.996094 37.816406 37.996094 37.640625 38.363281 37.558594 38.644531 37.492188 38.863281 37.351562 39.535156 36.671875 39.632812H35.074219C34.398438 39.535156 34.253906 38.863281 34.1875 38.644531 34.105469 38.363281 33.929688 37.996094 33.929688 37.996094 33.875 37.871094 33.773438 37.765625 33.75 37.746094 33.699219 37.710938 33.671875 37.683594 33.589844 37.699219c0 0-.24218799999999874.17968700000000126-.4375.09375C32.976562 37.71875 32.867188 37.605469 32.878906 37.34375 32.886719 37.082031 33.199219 37.011719 33.199219 37.011719 33.34375 36.976562 33.476562 36.96875 33.613281 37.023438 33.96875 37.089844 34.363281 37.582031 34.429688 37.792969 34.429688 37.792969 34.515625 37.984375 34.753906 38.554688 34.992188 39.121094 35.371094 38.820312 35.371094 38.820312 35.597656 38.671875 35.664062 38.476562 35.574219 38.234375 35.515625 38.027344 35.152344 38.125 35.152344 38.125 35.09375 37.746094 35.21875 37.582031 35.523438 37.640625 35.527344 37.097656 35.871094 36.972656 35.875 36.972656 35.875 36.972656 35.878906 36.976562 35.882812 36.976562zm0 0"/><path style="fill-rule:evenodd;fill:#fab700;fill-opacity:1;stroke-width:8.4891;stroke-linecap:butt;stroke-linejoin:miter;stroke:#002577;stroke-opacity:1;stroke-miterlimit:3.8637" d="M992.25 2277.7515H1074.6L1088.8875 2712.4515H977.5125zm0 0" transform="matrix(0.0347222,0,0,0.0347222,0,-38.905)"/><path style="fill-rule:evenodd;fill:#fab700;fill-opacity:1;stroke-width:8.4891;stroke-linecap:butt;stroke-linejoin:miter;stroke:#002577;stroke-opacity:1;stroke-miterlimit:3.8637" d="M974.025 2756.7765 1092.375 2756.664v197.4375H974.025zm0 0" transform="matrix(0.0347222,0,0,0.0347222,0,-38.905)"/><path style="fill-rule:evenodd;fill:#fab700;fill-opacity:1;stroke-width:8.4891;stroke-linecap:butt;stroke-linejoin:miter;stroke:#002577;stroke-opacity:1;stroke-miterlimit:3.8637" d="M973.2375 1613.8125H1093.1625C1101.4875 1613.8125 1108.2375 1618.875 1108.2375 1625.175 1108.2375 1631.475 1101.4875 1636.5375 1093.1625 1636.5375H973.2375C964.8 1636.5375 958.05 1631.475 958.05 1625.175 958.05 1618.875 964.8 1613.8125 973.2375 1613.8125zm0 0" transform="matrix(0.0347222,0,0,0.0347222,0,0)"/><path style="fill-rule:evenodd;fill:#fab700;fill-opacity:1;stroke-width:8.4891;stroke-linecap:butt;stroke-linejoin:miter;stroke:#002577;stroke-opacity:1;stroke-miterlimit:3.8637" d="M980.775 1592.4375H1085.5125c7.4249999999999545.0 13.5 4.724999999999909 13.5 10.6875C1099.0125 1608.975 1092.9375 1613.8125 1085.5125 1613.8125H980.775C973.35 1613.8125 967.3875 1608.975 967.3875 1603.125 967.3875 1597.1625 973.35 1592.4375 980.775 1592.4375zm0 0" transform="matrix(0.0347222,0,0,0.0347222,0,0)"/><path style="fill:none;stroke-width:8.4891;stroke-linecap:butt;stroke-linejoin:miter;stroke:#002577;stroke-opacity:1;stroke-miterlimit:3.8637" d="M1001.5875 1673.2125H1064.8125V1803.375H1001.5875zm0 0" transform="matrix(0.0347222,0,0,0.0347222,0,0)"/><path style="fill-rule:nonzero;fill:#fab700;fill-opacity:1;stroke-width:4.8999;stroke-linecap:butt;stroke-linejoin:miter;stroke:#002577;stroke-opacity:1;stroke-miterlimit:3.8637" d="M996.8625 1143.7875h72.5625C1075.3875 1143.7875 1080.225 1147.275 1080.225 1151.6625 1080.225 1155.9375 1075.3875 1159.5375 1069.425 1159.5375H996.8625C990.9 1159.5375 986.0625 1155.9375 986.0625 1151.6625 986.0625 1147.275 990.9 1143.7875 996.8625 1143.7875zm0 0" transform="matrix(0.0347222,0,0,0.0347222,0,0)"/><path style="fill-rule:evenodd;fill:#fab700;fill-opacity:1;stroke-width:4.0833;stroke-linecap:butt;stroke-linejoin:miter;stroke:#002577;stroke-opacity:1;stroke-miterlimit:3.8637" d="M948.9375 1834.2H1117.4625V1856.925H948.9375zm0 0" transform="matrix(0.0347222,0,0,0.0347222,0,0)"/><path style="stroke:none;fill-rule:nonzero;fill:#fab700;fill-opacity:1" d="M64.546875 37.019531C64.554688 37.019531 64.558594 37.015625 64.558594 37.015625 64.558594 37.015625 64.90625 37.140625 64.910156 37.683594 65.214844 37.625 65.339844 37.789062 65.28125 38.167969 65.28125 38.167969 64.917969 38.070312 64.855469 38.277344 64.769531 38.519531 64.835938 38.714844 65.0625 38.863281 65.0625 38.863281 65.441406 39.164062 65.675781 38.597656 65.914062 38.027344 66 37.835938 66 37.835938 66.066406 37.625 66.460938 37.132812 66.820312 37.066406 66.957031 37.011719 67.085938 37.023438 67.234375 37.054688 67.234375 37.054688 67.546875 37.125 67.554688 37.386719 67.5625 37.648438 67.457031 37.761719 67.28125 37.835938 67.085938 37.921875 66.84375 37.742188 66.84375 37.742188 66.761719 37.726562 66.734375 37.753906 66.679688 37.789062 66.65625 37.808594 66.558594 37.917969 66.5 38.039062 66.5 38.039062 66.328125 38.40625 66.242188 38.6875 66.179688 38.90625 66.035156 39.578125 65.359375 39.675781H63.757812C63.082031 39.578125 62.9375 38.90625 62.871094 38.6875 62.789062 38.40625 62.617188 38.039062 62.617188 38.039062 62.558594 37.917969 62.460938 37.808594 62.4375 37.789062 62.382812 37.753906 62.355469 37.726562 62.273438 37.742188c0 0-.24218799999999874.17968700000000126-.4375.09375C61.660156 37.761719 61.554688 37.648438 61.5625 37.386719 61.570312 37.125 61.882812 37.054688 61.882812 37.054688 62.03125 37.023438 62.160156 37.011719 62.296875 37.066406 62.65625 37.132812 63.050781 37.625 63.117188 37.835938 63.117188 37.835938 63.203125 38.027344 63.4375 38.597656 63.675781 39.164062 64.054688 38.863281 64.054688 38.863281 64.28125 38.714844 64.347656 38.519531 64.261719 38.277344 64.199219 38.070312 63.835938 38.167969 63.835938 38.167969 63.777344 37.789062 63.902344 37.625 64.207031 37.683594 64.210938 37.140625 64.558594 37.015625 64.558594 37.015625 64.558594 37.015625 64.5625 37.019531 64.570312 37.019531zm0 0"/><path style="fill-rule:evenodd;fill:#fab700;fill-opacity:1;stroke-width:8.4891;stroke-linecap:butt;stroke-linejoin:miter;stroke:#002577;stroke-opacity:1;stroke-miterlimit:3.8637" d="M1820.475 2277.7515H1902.825L1917.1125 2712.4515h-111.375zm0 0" transform="matrix(0.0347222,0,0,0.0347222,0,-38.905)"/><path style="fill-rule:evenodd;fill:#fab700;fill-opacity:1;stroke-width:8.4891;stroke-linecap:butt;stroke-linejoin:miter;stroke:#002577;stroke-opacity:1;stroke-miterlimit:3.8637" d="M1803.7125 2756.7765 1923.3 2756.664v197.4375H1804.95zm0 0" transform="matrix(0.0347222,0,0,0.0347222,0,-38.905)"/><path style="fill-rule:nonzero;fill:#fab700;fill-opacity:1;stroke-width:8.4891;stroke-linecap:butt;stroke-linejoin:miter;stroke:#002577;stroke-opacity:1;stroke-miterlimit:3.8637" d="M1803.825 1613.8125H1923.75c8.4375.0 15.1875 5.0625 15.1875 11.362499999999955C1938.9375 1631.475 1932.1875 1636.5375 1923.75 1636.5375H1803.825C1795.5 1636.5375 1788.75 1631.475 1788.75 1625.175 1788.75 1618.875 1795.5 1613.8125 1803.825 1613.8125zm0 0" transform="matrix(0.0347222,0,0,0.0347222,0,0)"/><path style="fill-rule:evenodd;fill:#fab700;fill-opacity:1;stroke-width:8.4891;stroke-linecap:butt;stroke-linejoin:miter;stroke:#002577;stroke-opacity:1;stroke-miterlimit:3.8637" d="M1809.9 1592.4375H1914.6375c7.4249999999999545.0 13.5 4.724999999999909 13.5 10.6875C1928.1375 1608.975 1922.0625 1613.8125 1914.6375 1613.8125H1809.9C1802.475 1613.8125 1796.5125 1608.975 1796.5125 1603.125 1796.5125 1597.1625 1802.475 1592.4375 1809.9 1592.4375zm0 0" transform="matrix(0.0347222,0,0,0.0347222,0,0)"/><path style="fill:none;stroke-width:8.4891;stroke-linecap:butt;stroke-linejoin:miter;stroke:#002577;stroke-opacity:1;stroke-miterlimit:3.8637" d="M1831.3875 1673.2125H1894.6125V1803.375H1831.3875zm0 0" transform="matrix(0.0347222,0,0,0.0347222,0,0)"/><path style="fill-rule:nonzero;fill:#fab700;fill-opacity:1;stroke-width:4.8999;stroke-linecap:butt;stroke-linejoin:miter;stroke:#002577;stroke-opacity:1;stroke-miterlimit:3.8637" d="M1824.525 1142.1h72.5625C1903.1625 1142.1 1908 1145.5875 1908 1149.975 1908 1154.3625 1903.1625 1157.85 1897.0875 1157.85H1824.525C1818.5625 1157.85 1813.725 1154.3625 1813.725 1149.975 1813.725 1145.5875 1818.5625 1142.1 1824.525 1142.1zm0 0" transform="matrix(0.0347222,0,0,0.0347222,0,0)"/><path style="fill-rule:evenodd;fill:#fab700;fill-opacity:1;stroke-width:4.0833;stroke-linecap:butt;stroke-linejoin:miter;stroke:#002577;stroke-opacity:1;stroke-miterlimit:3.8637" d="M1353.4875 1834.2H1522.0125V1856.925H1353.4875zm0 0" transform="matrix(0.0347222,0,0,0.0347222,0,0)"/><path style="fill-rule:evenodd;fill:#fab700;fill-opacity:1;stroke-width:7.428;stroke-linecap:butt;stroke-linejoin:miter;stroke:#002577;stroke-opacity:1;stroke-miterlimit:3.8637" d="M727.7625 1525.95C699.1875 1505.3625 668.925 1510.7625 668.925 1510.7625 668.925 1510.7625 690.75 1481.7375 725.625 1496.1375 747.7875 1505.3625 766.6875 1539.5625 822.825 1503.7875 879.075 1468.0125 900.9 1450.0125 950.4 1433.3625 1001.25 1416.375 1041.075 1412.775 1053 1408.5 1064.925 1404.1125 1083.4875 1397.3625 1092.9375 1340.2125 1095.075 1327.275 1146.9375 1448.55 1146.9375 1448.55 1146.9375 1448.55 1139.4 1488.6 1089.675 1511.325 1040.0625 1534.05 953.8875 1547.6625 906.075 1586.1375 889.875 1599.075 858.7125 1621.575 839.925 1649.1375 795.6 1714.1625 749.3625 1721.475 749.3625 1721.475 749.3625 1721.475 791.325 1684.8 802.9125 1635.4125 805.05 1626.1875 801.5625 1584.7875 817.9875 1568.25 800.4375 1585.8 756.1125 1551.15 761.85 1555.7625 761.85 1555.7625 756.45 1546.5375 727.7625 1525.95zm0 0" transform="matrix(0.0347222,0,0,0.0347222,0,0)"/><path style="fill-rule:evenodd;fill:#fab700;fill-opacity:1;stroke-width:7.428;stroke-linecap:butt;stroke-linejoin:miter;stroke:#002577;stroke-opacity:1;stroke-miterlimit:3.8637" d="M1800.1125 1341.225C1800.1125 1341.225 1808.775 1390.5 1905.4125 1415.475 2002.1625 1440.3375 2017.2375 1471.8375 2032.875 1479.375 2048.625 1486.9125 2089.35 1516.1625 2132.8875 1501.5375 2149.9875 1495.8 2198.025 1482.6375 2201.85 1485.5625 2203.425 1488.0375 2188.2375 1513.4625 2186.325 1515.6 2154.2625 1553.625 2142 1559.475 2130.1875 1565.4375 2104.2 1578.4875 2102.175 1580.0625 2083.725 1581.1875 2083.725 1581.1875 2100.9375 1602.7875 2103.6375 1638 2106.3375 1673.2125 2153.3625 1708.9875 2153.3625 1708.9875 2153.3625 1708.9875 2090.7 1692.675 2063.1375 1655.325 2035.575 1617.975 1990.2375 1586.025 1973.475 1577.925 1956.7125 1569.825 1871.4375 1540.575 1853.55 1533.4875 1835.775 1526.5125 1780.0875 1497.2625 1772.55 1450.125 1765.0125 1402.9875 1800.1125 1341.225 1800.1125 1341.225zm0 0" transform="matrix(0.0347222,0,0,0.0347222,0,0)"/><path style="fill-rule:nonzero;fill:#fab700;fill-opacity:1;stroke-width:7.428;stroke-linecap:butt;stroke-linejoin:miter;stroke:#002577;stroke-opacity:1;stroke-miterlimit:3.8637" d="M883.35 1379.1375C817.65 1353.4875 837.9 1336.05 837.9 1336.05 854.1 1307.25 875.25 1270.9125 955.2375 1240.2 1062.225 1199.025 1171.35 1217.475 1142.1 1265.0625 1124.4375 1294.0875 1093.725 1344.7125 1093.725 1344.7125 1093.725 1344.7125 1081.125 1310.625 1022.7375 1332.225 964.35 1353.9375 946.35 1363.05 942.975 1374.525 937.575 1392.4125 939.7125 1403.775 981.7875 1397.25 954.225 1406.475 923.625 1396.9125 889.0875 1381.5zm0 0" transform="matrix(0.0347222,0,0,0.0347222,0,0)"/><path style="fill-rule:nonzero;fill:#fab700;fill-opacity:1;stroke-width:6.3671;stroke-linecap:butt;stroke-linejoin:round;stroke:#002577;stroke-opacity:1;stroke-miterlimit:3.8637" d="M1883.5875 1330.65C1895.7375 1333.6875 1916.4375 1343.8125 1928.5875 1352.5875 1988.1 1395.225 1977.075 1432.4625 1960.65 1433.475 1942.3125 1434.6 2077.2 1430.775 2093.4 1422.1125 2109.6 1413.45 2115 1403.6625 2105.325 1383.1875 2095.5375 1362.6 2022.075 1236.9375 1902.15 1213.0875 1782.225 1189.2375 1734.75 1239.8625 1744.9875 1256.9625 1754.775 1273.1625 1798.9875 1327.3875 1800.675 1349.55 1812.9375 1326.375 1840.6125 1319.7375 1883.5875 1330.65zm0 0" transform="matrix(0.0347222,0,0,0.0347222,0,0)"/><path style="stroke:none;fill-rule:evenodd;fill:#002577;fill-opacity:1" d="M64.039062 43.039062 64.34375 42.988281 64.710938 45.175781 64.28125 45.246094 64.074219 43.992188 63.648438 45.351562 63.40625 45.394531 62.601562 44.238281 62.8125 45.492188 62.488281 45.546875 62.125 43.363281 62.46875 43.304688 63.511719 44.765625zm0 0"/><path style="stroke:none;fill-rule:evenodd;fill:#002577;fill-opacity:1" d="M66.722656 44.554688C66.652344 44.898438 66.523438 45.144531 66.332031 45.292969 66.140625 45.441406 65.917969 45.488281 65.664062 45.4375 65.414062 45.386719 65.230469 45.253906 65.109375 45.042969 64.992188 44.832031 64.964844 44.558594 65.035156 44.21875L65.058594 44.09375C65.125 43.78125 65.25 43.539062 65.433594 43.371094 65.621094 43.199219 65.851562 43.144531 66.132812 43.203125 66.40625 43.257812 66.59375 43.402344 66.691406 43.628906 66.792969 43.859375 66.808594 44.128906 66.746094 44.441406zM66.261719 44.433594 66.273438 44.375C66.328125 44.105469 66.347656 43.902344 66.332031 43.765625 66.3125 43.625 66.222656 43.539062 66.058594 43.507812 65.90625 43.476562 65.792969 43.511719 65.71875 43.617188 65.648438 43.722656 65.582031 43.921875 65.519531 44.21875L65.511719 44.273438C65.449219 44.570312 65.429688 44.78125 65.453125 44.902344 65.472656 45.019531 65.566406 45.097656 65.726562 45.132812 65.859375 45.15625 65.96875 45.117188 66.050781 45.007812 66.136719 44.902344 66.207031 44.710938 66.261719 44.433594zm0 0"/><path style="stroke:none;fill-rule:evenodd;fill:#002577;fill-opacity:1" d="M68.5 45.515625C68.328125 45.832031 68.144531 46.03125 67.941406 46.121094 67.738281 46.210938 67.523438 46.191406 67.289062 46.066406L66.613281 45.695312 67.667969 43.75l.609375.328125C68.554688 44.230469 68.707031 44.421875 68.734375 44.652344 68.761719 44.886719 68.699219 45.148438 68.542969 45.4375zM68.089844 45.273438 68.117188 45.222656C68.234375 45.007812 68.285156 44.824219 68.277344 44.675781 68.269531 44.523438 68.203125 44.414062 68.082031 44.351562L67.925781 44.265625 67.1875 45.632812 67.378906 45.734375C67.496094 45.800781 67.609375 45.804688 67.71875 45.746094 67.828125 45.6875 67.949219 45.53125 68.089844 45.273438zm0 0"/><path style="stroke:none;fill-rule:evenodd;fill:#002577;fill-opacity:1" d="M69.230469 47.320312 69 47.558594 68.046875 46.617188 69.597656 45.039062 70.507812 45.9375 70.277344 46.171875 69.703125 45.605469 69.289062 46.03125 69.734375 46.46875 69.5 46.707031 69.054688 46.269531 68.617188 46.714844zm0 0"/><path style="stroke:none;fill-rule:evenodd;fill:#002577;fill-opacity:1" d="M69.925781 49.109375 69.6875 48.707031C69.992188 48.523438 70.195312 48.363281 70.296875 48.234375 70.398438 48.105469 70.414062 47.980469 70.347656 47.867188L70.292969 47.773438 69.4375 48.277344 69.195312 47.867188l1.90625-1.125L71.519531 47.457031C71.621094 47.632812 71.65625 47.777344 71.617188 47.898438 71.582031 48.015625 71.507812 48.109375 71.390625 48.179688L71.289062 48.238281C71.179688 48.304688 71.074219 48.324219 70.972656 48.300781 70.867188 48.273438 70.773438 48.203125 70.6875 48.082031 70.726562 48.25 70.691406 48.417969 70.578125 48.578125 70.46875 48.742188 70.25 48.917969 69.925781 49.109375zM71.011719 47.859375 71.0625 47.828125C71.148438 47.78125 71.191406 47.726562 71.203125 47.664062 71.214844 47.601562 71.195312 47.527344 71.148438 47.445312L71.070312 47.3125 70.566406 47.609375 70.632812 47.722656C70.6875 47.816406 70.746094 47.875 70.808594 47.894531 70.871094 47.914062 70.9375 47.902344 71.011719 47.859375zm0 0"/><path style="stroke:none;fill-rule:evenodd;fill:#002577;fill-opacity:1" d="M63.945312 51.847656 63.554688 51.5625 63.738281 51.039062 63.179688 50.632812 62.738281 50.96875 62.425781 50.742188 64.296875 49.363281 64.65625 49.625zM63.847656 50.722656l.265625-.8125-.671875.515625zm0 0"/><path style="stroke:none;fill-rule:evenodd;fill:#002577;fill-opacity:1" d="M65.171875 52.421875 64.746094 52.210938 65.570312 50.515625 65.148438 50.3125 65.292969 50.015625 66.550781 50.628906 66.40625 50.925781 65.996094 50.726562zm0 0"/><path style="stroke:none;fill-rule:evenodd;fill:#002577;fill-opacity:1" d="M66.121094 52.824219 66.984375 50.785156 67.421875 50.96875 66.558594 53.007812zm0 0"/><path style="stroke:none;fill-rule:evenodd;fill:#002577;fill-opacity:1" d="M69.097656 52.996094C68.953125 53.3125 68.773438 53.527344 68.554688 53.628906 68.335938 53.734375 68.109375 53.730469 67.871094 53.625 67.640625 53.519531 67.488281 53.351562 67.417969 53.121094 67.347656 52.886719 67.378906 52.613281 67.519531 52.300781L67.570312 52.183594C67.703125 51.890625 67.875 51.679688 68.09375 51.554688 68.308594 51.433594 68.550781 51.429688 68.8125 51.542969 69.066406 51.660156 69.21875 51.839844 69.265625 52.085938 69.3125 52.332031 69.273438 52.597656 69.144531 52.886719zM68.671875 52.773438 68.699219 52.71875C68.808594 52.46875 68.871094 52.273438 68.882812 52.136719 68.894531 51.996094 68.824219 51.894531 68.671875 51.824219 68.53125 51.761719 68.414062 51.773438 68.320312 51.859375 68.226562 51.945312 68.117188 52.128906 67.996094 52.40625L67.972656 52.453125C67.847656 52.734375 67.785156 52.933594 67.78125 53.054688 67.777344 53.179688 67.847656 53.273438 68 53.339844 68.125 53.394531 68.238281 53.378906 68.34375 53.292969 68.449219 53.207031 68.558594 53.03125 68.671875 52.773438zm0 0"/><path style="stroke:none;fill-rule:evenodd;fill:#002577;fill-opacity:1" d="M70.414062 54.882812 70.238281 54.777344 70.023438 53.046875 69.328125 54.253906 69.035156 54.082031 70.140625 52.164062l.21875.125L70.574219 53.929688 71.226562 52.792969 71.519531 52.960938zm0 0"/><path style="stroke:none;fill-rule:evenodd;fill:#002577;fill-opacity:1" d="M33.328125 45.328125 32.898438 43.949219 33.226562 43.75 33.867188 45.949219 33.574219 46.128906 32.453125 45.117188 32.808594 46.585938 32.515625 46.765625 30.878906 45.164062 31.289062 44.917969 32.324219 45.933594 31.957031 44.515625 32.246094 44.339844zm0 0"/><path style="stroke:none;fill-rule:evenodd;fill:#002577;fill-opacity:1" d="M34.640625 45.707031 33.992188 43.589844 34.445312 43.449219 35.089844 45.570312zm0 0"/><path style="stroke:none;fill-rule:evenodd;fill:#002577;fill-opacity:1" d="M36.988281 44.582031C37.019531 44.8125 36.972656 44.996094 36.839844 45.128906 36.707031 45.257812 36.511719 45.34375 36.25 45.378906 36.101562 45.402344 35.972656 45.410156 35.867188 45.40625 35.761719 45.402344 35.671875 45.390625 35.601562 45.371094L35.546875 44.996094C35.605469 45.019531 35.691406 45.039062 35.808594 45.054688 35.925781 45.066406 36.035156 45.066406 36.144531 45.050781 36.296875 45.027344 36.398438 44.992188 36.449219 44.941406 36.503906 44.890625 36.523438 44.816406 36.507812 44.714844 36.5 44.652344 36.46875 44.597656 36.421875 44.554688 36.375 44.511719 36.246094 44.460938 36.042969 44.410156 35.878906 44.363281 35.746094 44.296875 35.648438 44.207031 35.550781 44.117188 35.488281 43.984375 35.460938 43.804688 35.4375 43.636719 35.488281 43.484375 35.605469 43.351562 35.726562 43.214844 35.90625 43.128906 36.148438 43.09375 36.265625 43.078125 36.371094 43.074219 36.46875 43.082031 36.5625 43.089844 36.632812 43.097656 36.671875 43.105469L36.71875 43.441406C36.636719 43.433594 36.554688 43.425781 36.476562 43.421875 36.394531 43.414062 36.308594 43.421875 36.222656 43.433594 36.097656 43.449219 36.011719 43.484375 35.960938 43.53125 35.910156 43.578125 35.890625 43.632812 35.898438 43.695312 35.910156 43.773438 35.9375 43.828125 35.984375 43.863281 36.03125 43.898438 36.164062 43.9375 36.375 43.988281 36.570312 44.03125 36.71875 44.105469 36.8125 44.203125 36.90625 44.304688 36.964844 44.429688 36.988281 44.582031zm0 0"/><path style="stroke:none;fill-rule:evenodd;fill:#002577;fill-opacity:1" d="M43.832031 43.074219C43.761719 43.207031 43.664062 43.300781 43.53125 43.347656 43.402344 43.398438 43.25 43.378906 43.078125 43.289062 42.980469 43.238281 42.902344 43.191406 42.847656 43.144531 42.796875 43.101562 42.753906 43.058594 42.726562 43.015625L42.882812 42.710938C42.90625 42.742188 42.941406 42.777344 42.988281 42.816406 43.035156 42.855469 43.085938 42.890625 43.140625 42.917969 43.191406 42.945312 43.242188 42.953125 43.296875 42.941406 43.347656 42.929688 43.390625 42.890625 43.429688 42.820312L44.179688 41.339844 44.601562 41.558594zm0 0"/><path style="stroke:none;fill-rule:evenodd;fill:#002577;fill-opacity:1" d="M46.230469 43.960938C46.15625 44.15625 46.042969 44.285156 45.886719 44.351562 45.730469 44.417969 45.535156 44.40625 45.296875 44.3125 45.039062 44.214844 44.878906 44.085938 44.8125 43.925781 44.746094 43.765625 44.757812 43.566406 44.847656 43.335938L45.378906 41.945312 45.820312 42.113281 45.265625 43.5625C45.222656 43.675781 45.214844 43.769531 45.242188 43.84375 45.269531 43.917969 45.339844 43.976562 45.460938 44.023438 45.570312 44.066406 45.660156 44.070312 45.734375 44.042969 45.804688 44.011719 45.867188 43.933594 45.917969 43.800781L46.46875 42.363281l.328125.125zm0 0"/><path style="stroke:none;fill-rule:evenodd;fill:#002577;fill-opacity:1" d="M48.570312 44.4375C48.542969 44.671875 48.449219 44.835938 48.285156 44.929688 48.125 45.019531 47.914062 45.050781 47.652344 45.019531 47.5 45 47.375 44.976562 47.273438 44.945312 47.175781 44.914062 47.089844 44.878906 47.027344 44.84375L47.074219 44.464844C47.121094 44.503906 47.203125 44.546875 47.308594 44.589844 47.417969 44.628906 47.527344 44.660156 47.636719 44.671875 47.789062 44.691406 47.898438 44.683594 47.960938 44.644531 48.023438 44.609375 48.058594 44.542969 48.074219 44.445312 48.082031 44.378906 48.066406 44.320312 48.03125 44.265625 47.996094 44.210938 47.886719 44.132812 47.703125 44.027344 47.554688 43.941406 47.445312 43.84375 47.375 43.730469 47.300781 43.617188 47.277344 43.46875 47.296875 43.292969 47.316406 43.125 47.402344 42.988281 47.554688 42.890625 47.707031 42.789062 47.902344 42.753906 48.144531 42.785156 48.261719 42.800781 48.363281 42.824219 48.453125 42.855469 48.546875 42.886719 48.609375 42.910156 48.644531 42.929688L48.605469 43.265625C48.527344 43.238281 48.453125 43.207031 48.375 43.183594 48.300781 43.160156 48.214844 43.140625 48.128906 43.128906 48.003906 43.113281 47.910156 43.125 47.851562 43.15625 47.789062 43.191406 47.753906 43.238281 47.75 43.300781 47.738281 43.378906 47.753906 43.441406 47.789062 43.484375 47.824219 43.53125 47.941406 43.601562 48.132812 43.707031 48.3125 43.800781 48.433594 43.910156 48.5 44.027344 48.566406 44.148438 48.589844 44.285156 48.570312 44.4375zm0 0"/><path style="stroke:none;fill-rule:evenodd;fill:#002577;fill-opacity:1" d="M50.261719 45.214844 49.789062 45.207031 49.820312 43.320312 49.355469 43.3125 49.359375 42.980469 50.757812 43.007812 50.75 43.335938 50.292969 43.328125zm0 0"/><path style="stroke:none;fill-rule:evenodd;fill:#002577;fill-opacity:1" d="M51.839844 45.140625 51.570312 42.941406 52.042969 42.882812 52.3125 45.082031zm0 0"/><path style="stroke:none;fill-rule:evenodd;fill:#002577;fill-opacity:1" d="M54.6875 44.421875C54.664062 44.453125 54.613281 44.492188 54.539062 44.539062 54.460938 44.582031 54.371094 44.621094 54.261719 44.65625 53.992188 44.738281 53.746094 44.71875 53.519531 44.59375 53.296875 44.46875 53.132812 44.234375 53.027344 43.894531L53 43.808594C52.902344 43.492188 52.914062 43.207031 53.027344 42.960938 53.140625 42.714844 53.332031 42.554688 53.59375 42.472656 53.703125 42.4375 53.800781 42.417969 53.878906 42.40625 53.960938 42.398438 54.023438 42.398438 54.074219 42.40625L54.175781 42.742188C54.128906 42.734375 54.074219 42.730469 54.003906 42.734375 53.933594 42.738281 53.851562 42.75 53.765625 42.777344 53.601562 42.828125 53.496094 42.933594 53.441406 43.097656 53.394531 43.257812 53.402344 43.457031 53.476562 43.695312L53.484375 43.722656C53.5625 43.976562 53.660156 44.148438 53.78125 44.246094 53.90625 44.339844 54.042969 44.363281 54.191406 44.316406 54.289062 44.289062 54.371094 44.25 54.4375 44.207031 54.5 44.164062 54.550781 44.128906 54.585938 44.097656zm0 0"/><path style="stroke:none;fill-rule:evenodd;fill:#002577;fill-opacity:1" d="M56.816406 43.070312 56.964844 43.363281l-1.1875.609375L54.773438 41.996094 55.910156 41.414062 56.058594 41.710938 55.34375 42.074219 55.613281 42.605469 56.167969 42.320312 56.320312 42.621094 55.765625 42.902344 56.046875 43.460938zm0 0"/><path style="stroke:none;fill-rule:evenodd;fill:#002577;fill-opacity:1" d="M32.035156 52.628906C32.207031 52.941406 32.277344 53.210938 32.242188 53.425781 32.210938 53.644531 32.078125 53.820312 31.847656 53.945312L31.171875 54.320312 30.101562 52.382812 30.703125 52.046875C30.980469 51.894531 31.222656 51.867188 31.433594 51.96875 31.644531 52.070312 31.832031 52.261719 31.992188 52.550781zM31.609375 52.847656 31.582031 52.792969C31.464844 52.582031 31.339844 52.4375 31.207031 52.367188 31.074219 52.292969 30.949219 52.289062 30.828125 52.355469L30.675781 52.441406l.75 1.359375L31.617188 53.695312C31.734375 53.632812 31.796875 53.535156 31.808594 53.414062 31.816406 53.289062 31.75 53.101562 31.609375 52.847656zm0 0"/><path style="stroke:none;fill-rule:evenodd;fill:#002577;fill-opacity:1" d="M34.027344 51.796875C34.164062 52.117188 34.195312 52.394531 34.121094 52.625 34.050781 52.855469 33.894531 53.019531 33.65625 53.121094 33.417969 53.222656 33.191406 53.21875 32.976562 53.113281 32.757812 53.007812 32.582031 52.792969 32.445312 52.476562L32.398438 52.359375C32.273438 52.066406 32.238281 51.792969 32.292969 51.550781 32.351562 51.304688 32.511719 51.125 32.777344 51.015625 33.03125 50.90625 33.265625 50.917969 33.480469 51.050781 33.691406 51.183594 33.859375 51.394531 33.984375 51.6875zM33.578125 51.953125 33.554688 51.898438C33.449219 51.648438 33.351562 51.46875 33.257812 51.367188 33.164062 51.261719 33.039062 51.242188 32.886719 51.308594 32.742188 51.367188 32.671875 51.464844 32.671875 51.589844 32.671875 51.71875 32.730469 51.921875 32.847656 52.199219L32.867188 52.25C32.988281 52.53125 33.089844 52.714844 33.175781 52.800781 33.261719 52.886719 33.378906 52.898438 33.53125 52.835938 33.65625 52.78125 33.722656 52.6875 33.730469 52.550781 33.742188 52.414062 33.6875 52.214844 33.578125 51.953125zm0 0"/><path style="stroke:none;fill-rule:evenodd;fill:#002577;fill-opacity:1" d="M35.964844 49.925781 36.257812 49.820312 37.011719 51.902344 36.605469 52.050781 36.171875 50.855469 36 52.273438 35.769531 52.355469 34.769531 51.367188 35.203125 52.5625 34.898438 52.675781 34.140625 50.59375 34.46875 50.472656 35.761719 51.71875zm0 0"/><path style="stroke:none;fill-rule:evenodd;fill:#002577;fill-opacity:1" d="M38.6875 30.417969C38.683594 30.464844 38.664062 30.535156 38.625 30.628906 38.585938 30.726562 38.53125 30.828125 38.457031 30.933594 38.265625 31.207031 38.027344 31.371094 37.738281 31.425781 37.453125 31.476562 37.144531 31.390625 36.820312 31.164062L36.738281 31.105469C36.4375 30.894531 36.253906 30.636719 36.191406 30.335938 36.128906 30.03125 36.191406 29.75 36.375 29.488281 36.453125 29.375 36.527344 29.285156 36.59375 29.21875 36.660156 29.152344 36.71875 29.105469 36.769531 29.078125L37.089844 29.300781C37.042969 29.324219 36.988281 29.363281 36.925781 29.417969c-.0625.05468700000000126-.125.125-.1875.2148430000000019C36.625 29.796875 36.597656 29.96875 36.660156 30.152344 36.722656 30.332031 36.867188 30.5 37.09375 30.65625L37.121094 30.675781C37.359375 30.84375 37.570312 30.925781 37.742188 30.921875 37.917969 30.914062 38.058594 30.839844 38.160156 30.691406 38.234375 30.589844 38.28125 30.496094 38.3125 30.410156 38.34375 30.328125 38.363281 30.257812 38.375 30.203125zm0 0"/><path style="stroke:none;fill-rule:evenodd;fill:#002577;fill-opacity:1" d="M39.886719 27.460938C40.164062 27.730469 40.3125 28 40.332031 28.277344 40.351562 28.550781 40.253906 28.796875 40.042969 29.015625 39.835938 29.230469 39.59375 29.335938 39.316406 29.328125 39.042969 29.320312 38.765625 29.183594 38.492188 28.917969L38.390625 28.820312C38.132812 28.570312 37.984375 28.308594 37.941406 28.027344 37.902344 27.746094 37.996094 27.484375 38.230469 27.242188 38.457031 27.007812 38.710938 26.910156 38.992188 26.949219 39.273438 26.984375 39.539062 27.125 39.789062 27.367188zM39.476562 27.839844 39.425781 27.792969C39.207031 27.582031 39.027344 27.445312 38.886719 27.378906 38.746094 27.316406 38.605469 27.355469 38.46875 27.496094 38.34375 27.625 38.304688 27.757812 38.359375 27.890625 38.410156 28.023438 38.558594 28.207031 38.800781 28.441406L38.84375 28.480469C39.085938 28.71875 39.273438 28.859375 39.398438 28.910156 39.527344 28.957031 39.660156 28.914062 39.792969 28.773438 39.902344 28.660156 39.933594 28.53125 39.886719 28.382812 39.835938 28.238281 39.699219 28.054688 39.476562 27.839844zm0 0"/><path style="stroke:none;fill-rule:evenodd;fill:#002577;fill-opacity:1" d="M42.988281 26.527344 42.792969 26.667969 40.890625 26.140625 41.800781 27.390625 41.480469 27.625 40.035156 25.632812 40.273438 25.460938 42.078125 25.949219 41.222656 24.769531 41.542969 24.539062zm0 0"/><path style="stroke:none;fill-rule:evenodd;fill:#002577;fill-opacity:1" d="M45.140625 24.703125C45.253906 24.9375 45.253906 25.148438 45.148438 25.335938 45.042969 25.523438 44.851562 25.679688 44.570312 25.8125 44.410156 25.886719 44.269531 25.941406 44.152344 25.972656 44.03125 26.003906 43.929688 26.023438 43.84375 26.027344L43.667969 25.644531C43.738281 25.652344 43.839844 25.644531 43.976562 25.617188 44.109375 25.589844 44.234375 25.550781 44.351562 25.496094 44.511719 25.417969 44.617188 25.34375 44.65625 25.273438 44.699219 25.199219 44.695312 25.113281 44.648438 25.015625 44.617188 24.949219 44.570312 24.902344 44.5 24.871094 44.433594 24.84375 44.277344 24.835938 44.03125 24.847656 43.835938 24.859375 43.667969 24.835938 43.527344 24.773438 43.386719 24.710938 43.277344 24.589844 43.191406 24.410156 43.113281 24.238281 43.117188 24.0625 43.210938 23.875 43.300781 23.6875 43.476562 23.535156 43.734375 23.414062 43.859375 23.355469 43.976562 23.3125 44.085938 23.289062 44.195312 23.261719 44.273438 23.246094 44.320312 23.242188L44.480469 23.582031C44.386719 23.601562 44.292969 23.621094 44.203125 23.644531 44.109375 23.667969 44.015625 23.703125 43.921875 23.746094 43.789062 23.808594 43.703125 23.875 43.664062 23.945312 43.621094 24.011719 43.617188 24.078125 43.644531 24.140625 43.683594 24.21875 43.734375 24.269531 43.796875 24.289062 43.859375 24.308594 44.015625 24.308594 44.269531 24.285156 44.503906 24.265625 44.691406 24.289062 44.828125 24.363281 44.964844 24.433594 45.070312 24.546875 45.140625 24.703125zm0 0"/><path style="stroke:none;fill-rule:evenodd;fill:#002577;fill-opacity:1" d="M47.296875 24.824219 46.761719 24.96875 46.21875 22.945312 45.6875 23.085938 45.59375 22.734375 47.175781 22.308594 47.269531 22.664062 46.753906 22.800781zm0 0"/><path style="stroke:none;fill-rule:evenodd;fill:#002577;fill-opacity:1" d="M48.707031 22.117188 49.257812 22.078125 49.429688 24.53125 48.878906 24.570312zm0 0"/><path style="stroke:none;fill-rule:evenodd;fill:#002577;fill-opacity:1" d="M51.542969 24.597656 50.988281 24.558594 51.136719 22.472656 50.589844 22.433594 50.613281 22.066406 52.246094 22.183594 52.222656 22.546875 51.6875 22.511719zm0 0"/><path style="stroke:none;fill-rule:evenodd;fill:#002577;fill-opacity:1" d="M54.914062 24.652344C54.84375 24.875 54.722656 25.027344 54.550781 25.113281 54.375 25.195312 54.144531 25.191406 53.859375 25.105469 53.554688 25.011719 53.351562 24.878906 53.261719 24.703125 53.167969 24.527344 53.160156 24.308594 53.242188 24.042969L53.726562 22.460938 54.253906 22.625 53.753906 24.269531C53.714844 24.398438 53.710938 24.503906 53.75 24.585938 53.789062 24.664062 53.878906 24.726562 54.019531 24.773438 54.152344 24.8125 54.257812 24.8125 54.339844 24.777344 54.421875 24.738281 54.484375 24.644531 54.53125 24.496094L55.03125 22.859375 55.425781 22.980469zm0 0"/><path style="stroke:none;fill-rule:evenodd;fill:#002577;fill-opacity:1" d="M56.574219 26.121094 56.082031 25.871094 57.03125 24.003906 56.542969 23.757812 56.710938 23.429688 58.167969 24.171875 58.003906 24.5 57.527344 24.257812zm0 0"/><path style="stroke:none;fill-rule:evenodd;fill:#002577;fill-opacity:1" d="M59.363281 24.9375 59.808594 25.265625 58.363281 27.253906 57.914062 26.929688zm0 0"/><path style="stroke:none;fill-rule:evenodd;fill:#002577;fill-opacity:1" d="M61.519531 28.535156C61.246094 28.808594 60.96875 28.953125 60.695312 28.96875 60.421875 28.980469 60.175781 28.878906 59.960938 28.667969 59.75 28.453125 59.648438 28.210938 59.660156 27.9375 59.675781 27.660156 59.816406 27.386719 60.085938 27.117188L60.1875 27.015625C60.4375 26.765625 60.703125 26.621094 60.984375 26.582031 61.269531 26.546875 61.527344 26.648438 61.765625 26.882812 61.996094 27.117188 62.089844 27.371094 62.046875 27.652344 62.003906 27.929688 61.859375 28.195312 61.613281 28.441406zM61.148438 28.117188 61.195312 28.070312C61.410156 27.855469 61.550781 27.679688 61.617188 27.539062 61.683594 27.398438 61.648438 27.257812 61.507812 27.121094 61.378906 26.992188 61.25 26.953125 61.113281 27 60.980469 27.050781 60.796875 27.195312 60.558594 27.433594L60.515625 27.476562C60.277344 27.714844 60.128906 27.898438 60.078125 28.027344 60.027344 28.152344 60.070312 28.285156 60.207031 28.421875 60.320312 28.53125 60.449219 28.566406 60.59375 28.519531 60.742188 28.472656 60.925781 28.339844 61.148438 28.117188zm0 0"/><path style="stroke:none;fill-rule:evenodd;fill:#002577;fill-opacity:1" d="M62.464844 31.585938 62.324219 31.394531 62.851562 29.492188l-1.25.90625L61.371094 30.078125 63.359375 28.632812 63.535156 28.875 63.046875 30.679688 64.222656 29.824219 64.453125 30.140625zm0 0"/><path style="fill-rule:evenodd;fill:#fab700;fill-opacity:1;stroke-width:1.6333;stroke-linecap:butt;stroke-linejoin:miter;stroke:#fab700;stroke-opacity:1;stroke-miterlimit:3.8637" d="M1673.1 1398.9375c0 0 3.9375-4.275000000000091 5.175000000000182-1.125C1679.5125 1400.9625 1679.85 1403.55 1678.725 1404.7875 1677.6 1405.9125 1677.7125 1406.7 1676.25 1408.6125 1674.675 1410.6375 1675.35 1411.7625 1673.8875 1412.6625 1672.425 1413.675 1671.75 1413.225 1670.0625 1413.1125L1669.3875 1417.95 1668.375 1422l.5625 3.9375L1671.75 1432.2375 1669.6125 1427.5125 1672.65 1432.575C1674.9 1438.5375 1696.275 1444.5 1704.0375 1447.9875 1720.125 1455.1875 1717.65 1489.5 1719.3375 1492.875 1721.025 1496.25 1727.775 1541.7 1727.775 1549.35 1727.775 1557 1719.3375 1598.175 1718.4375 1606.725 1718.1 1610.8875 1716.975 1621.0125 1715.9625 1631.25 1715.7375 1633.275 1712.8125 1630.6875 1711.9125 1632.4875 1710.675 1634.85 1710.9 1641.825 1711.125 1644.1875 1710.675 1649.1375 1709.2125 1653.075 1708.9875 1655.55 1708.0875 1664.8875 1699.5375 1665.7875 1699.5375 1665.7875 1699.5375 1665.7875 1699.2 1697.7375 1697.5125 1705.3875 1695.825 1713.0375 1694.7 1714.5 1697.175 1735.7625 1699.7625 1756.9125 1693.8 1783.2375 1693.8 1783.2375 1693.8 1783.2375 1685.025 1821.9375 1683.3375 1827.9 1681.65 1833.8625 1684.4625 1839.2625 1685.3625 1843.5375 1686.15 1847.8125 1686.15 1854.5625 1686.15 1854.5625H1611.5625C1609.65 1854.5625 1612.8 1847.8125 1615.3875 1843.0875 1616.5125 1840.95 1620 1837.575 1625.0625 1836.7875 1630.2375 1835.8875 1630.575 1830.375 1633.6125 1823.625 1636.5375 1816.7625 1635.3 1802.3625 1632.7125 1793.475 1630.2375 1784.475 1626.8625 1762.875 1626.8625 1755.225 1626.8625 1747.575 1622.5875 1730.25 1618.3125 1718.325 1614.15 1706.4 1612.0125 1680.525 1612.0125 1677.9375 1612.0125 1676.925 1611.45 1675.4625 1610.55 1673.2125 1609.425 1670.2875 1609.2 1666.0125 1606.8375 1659.2625 1602.5625 1647.45 1603.0125 1632.9375 1602.5625 1620.675 1602.1125 1608.4125 1597.5 1594.8 1595.3625 1591.7625L1594.0125 1586.475 1580.9625 1590.525 1568.25 1600.425C1565.4375 1603.0125 1562.4 1603.35 1557.3375 1603.8 1547.4375 1604.7 1537.5375 1593.1125 1535.175 1576.35 1532.5875 1557.675 1536.3 1549.8 1557 1549.8H1566.1125L1574.1 1550.1375h3.9375c0 0 2.25 4.5-1.349999999999909 6.0750000000000455C1573.0875 1557.7875 1572.075 1558.125 1572.075 1558.125L1576.6875 1563.4125C1576.575 1563.4125 1579.1625 1561.6125 1586.925 1557.45l2.8125-6.75C1589.9625 1546.5375 1590.3 1545.525 1589.4 1540.9125 1588.6125 1536.1875 1586.925 1509.4125 1586.925 1503 1586.925 1496.5875 1587.15 1489.05 1587.7125 1481.7375 1588.3875 1475.1 1588.275 1460.1375 1591.5375 1453.8375 1595.5875 1445.9625 1617.3 1442.5875 1617.3 1442.5875 1617.3 1442.5875 1626.75 1441.575 1628.1 1438.9875 1628.55 1438.0875 1630.9125 1433.925 1631.925 1432.35 1625.85 1430.2125 1623.825 1422.7875 1622.925 1420.9875 1622.025 1419.075 1620.45 1410.3 1620.225 1409.5125 1619.8875 1408.275 1617.975 1400.4 1616.9625 1397.25 1615.8375 1394.1 1616.7375 1388.475 1616.7375 1388.475L1609.875 1387.6875 1601.55 1387.0125C1601.55 1387.0125 1596.825 1386.3375 1595.5875 1385.8875 1594.4625 1385.4375 1590.4125 1384.65 1590.4125 1384.65 1590.4125 1384.65 1583.775 1378.9125 1590.3 1374.3 1596.9375 1369.8 1604.5875 1365.525 1605.9375 1364.85 1607.175 1364.0625 1607.7375 1362.825 1607.7375 1362.825L1607.5125 1361.1375C1606.05 1358.8875 1604.5875 1355.7375 1602.675 1348.875 1600.7625 1342.0125 1618.7625 1339.0875 1618.7625 1339.0875 1623.9375 1338.6375 1641.375 1341 1639.575 1340.55 1643.2875 1341.45 1645.65 1341.225 1652.625 1341.225 1659.4875 1341.225 1668.6 1343.7 1673.6625 1344.825 1678.725 1345.8375 1683.9 1350.5625 1686.4875 1355.4 1689.075 1360.2375 1699.65 1366.3125 1702.8 1369.35 1707.525 1373.9625 1713.0375 1383.525 1715.175 1387.0125 1719 1393.2 1714.95 1391.7375 1713.7125 1392.525 1707.75 1396.0125 1675.0125 1388.5875 1677.825 1388.925 1680.1875 1389.2625 1679.625 1388.3625 1677.15 1387.0125L1677.0375 1389.375 1675.125 1396.575zm0 0" transform="matrix(0.0347222,0,0,0.0347222,0,0)"/><path style="fill:none;stroke-width:4.0833;stroke-linecap:butt;stroke-linejoin:miter;stroke:#002577;stroke-opacity:1;stroke-miterlimit:3.8637" d="M1638.225 1490.7375C1639.2375 1473.4125 1640.7 1459.0125 1643.2875 1447.875 1644.1875 1444.275 1643.2875 1442.5875 1643.2875 1442.5875 1638.7875 1442.475 1635.75 1442.1375 1631.1375 1436.7375" transform="matrix(0.0347222,0,0,0.0347222,0,0)"/><path style="fill:none;stroke-width:4.8999;stroke-linecap:butt;stroke-linejoin:miter;stroke:#002577;stroke-opacity:1;stroke-miterlimit:3.8637" d="M1609.65 1680.4125 1610.55 1673.2125C1610.55 1673.2125 1612.8 1669.05 1612.0125 1660.95 1611.1125 1652.9625 1612.0125 1630.4625 1614.15 1618.9875 1616.175 1608.075 1633.1625 1574.4375 1634.85 1565.4375 1636.3125 1557.7875 1636.5375 1531.9125 1636.5375 1529.8875 1636.5375 1529.1 1635.75 1526.625 1636.0875 1517.0625" transform="matrix(0.0347222,0,0,0.0347222,0,0)"/><path style="fill:none;stroke-width:5.4207;stroke-linecap:butt;stroke-linejoin:round;stroke:#002577;stroke-opacity:1;stroke-miterlimit:3.8637" d="M1631.925 1432.35 1628.1 1438.9875C1628.1 1438.9875 1595.5875 1445.9625 1591.5375 1453.8375 1588.275 1460.1375 1586.925 1496.5875 1586.925 1503 1586.925 1509.4125 1588.6125 1536.1875 1589.4 1540.9125 1590.3 1545.525 1589.9625 1546.5375 1589.7375 1550.7" transform="matrix(0.0347222,0,0,0.0347222,0,0)"/><path style="fill:none;stroke-width:4.8999;stroke-linecap:butt;stroke-linejoin:miter;stroke:#002577;stroke-opacity:1;stroke-miterlimit:3.8637" d="M1650.6 1538.775C1650.9375 1542.15 1650.15 1563.8625 1659.0375 1577.8125 1662.8625 1583.775 1679.5125 1616.0625 1683.225 1620.225 1685.475 1622.7 1691.1 1623.7125 1692.5625 1627.0875 1699.875 1644.525 1692.1125 1661.625 1702.575 1664.1L1705.3875 1674.1125" transform="matrix(0.0347222,0,0,0.0347222,0,0)"/><path style="fill:none;stroke-width:4.0833;stroke-linecap:butt;stroke-linejoin:miter;stroke:#002577;stroke-opacity:1;stroke-miterlimit:3.8637" d="M1673.775 1432.0125C1671.975 1434.4875 1660.1625 1441.6875 1653.1875 1441.6875 1650.6 1441.6875 1652.0625 1446.8625 1650.9375 1453.05 1649.8125 1459.4625 1649.7 1496.25 1650.6 1500.975 1650.9375 1502.8875 1650.2625 1503.7875 1650.15 1509.8625" transform="matrix(0.0347222,0,0,0.0347222,0,0)"/><path style="fill:none;stroke-width:4.8999;stroke-linecap:round;stroke-linejoin:round;stroke:#002577;stroke-opacity:1;stroke-miterlimit:3.8637" d="M1684.8 1477.575 1689.1875 1494.5625 1695.15 1526.0625 1697.2875 1545.075 1697.625 1562.0625 1697.2875 1576.575 1695.6 1586.7 1693.4625 1596.0375 1689.6375 1626.6375C1701.9 1623.6 1710 1626.525 1715.9625 1631.25" transform="matrix(0.0347222,0,0,0.0347222,0,0)"/><path style="fill:none;stroke-width:4.8999;stroke-linecap:butt;stroke-linejoin:miter;stroke:#002577;stroke-opacity:1;stroke-miterlimit:3.8637" d="M1603.575 1446.3 1604.475 1449.225C1603.2375 1442.8125 1623.825 1533.6 1693.8 1576.125L1697.2875 1578.2625" transform="matrix(0.0347222,0,0,0.0347222,0,0)"/><path style="fill:none;stroke-width:4.8999;stroke-linecap:butt;stroke-linejoin:miter;stroke:#002577;stroke-opacity:1;stroke-miterlimit:3.8637" d="M1617.3 1442.5875C1624.725 1465.9875 1646.775 1524.375 1697.0625 1554.8625L1697.625 1559.1375" transform="matrix(0.0347222,0,0,0.0347222,0,0)"/><path style="fill:none;stroke-width:4.8999;stroke-linecap:butt;stroke-linejoin:miter;stroke:#002577;stroke-opacity:1;stroke-miterlimit:3.8637" d="M1627.9875 1581.6375C1640.8125 1584.3375 1649.1375 1584.3375 1660.8375 1581.1875" transform="matrix(0.0347222,0,0,0.0347222,0,0)"/><path style="fill:none;stroke-width:4.8999;stroke-linecap:butt;stroke-linejoin:miter;stroke:#002577;stroke-opacity:1;stroke-miterlimit:3.8637" d="M1648.125 1647.7875C1650.7125 1665.45 1653.8625 1686.4875 1654.7625 1689.8625 1656.45 1695.825 1658.25 1725.525 1658.25 1725.525L1659.0375 1754.4375 1659.9375 1790.8875V1833.3C1652.9625 1838.25 1649.25 1845.45 1648.9125 1855.125" transform="matrix(0.0347222,0,0,0.0347222,0,0)"/><path style="fill:none;stroke-width:4.5172;stroke-linecap:butt;stroke-linejoin:round;stroke:#002577;stroke-opacity:1;stroke-miterlimit:3.8637" d="M1578.375 1557C1573.9875 1563.525 1552.6125 1551.15 1551.4875 1569.6 1550.7 1583.775 1553.4 1599.75 1567.125 1601.55L1577.25 1594.9125 1579.95 1592.2125" transform="matrix(0.0347222,0,0,0.0347222,0,0)"/><path style="stroke:none;fill-rule:evenodd;fill:#fab700;fill-opacity:1" d="M54.359375 53.796875c-.203125-3.1992189999999994-.109375-6 .421875-8.125C53.351562 47.746094 53.941406 53.800781 53.941406 53.800781zm0 0"/><path style="fill:none;stroke-width:5.4207;stroke-linecap:butt;stroke-linejoin:round;stroke:#002577;stroke-opacity:1;stroke-miterlimit:3.8637" d="M1589.85 1549.35 1586.925 1557.45C1579.1625 1561.6125 1576.8 1561.8375 1576.9125 1561.8375" transform="matrix(0.0347222,0,0,0.0347222,0,0)"/><path style="fill:none;stroke-width:4.5172;stroke-linecap:butt;stroke-linejoin:round;stroke:#002577;stroke-opacity:1;stroke-miterlimit:3.8637" d="M1575.9 1559.8125C1575.9 1559.8125 1583.4375 1579.95 1577.25 1594.9125" transform="matrix(0.0347222,0,0,0.0347222,0,0)"/><path style="fill:none;stroke-width:3.4882;stroke-linecap:butt;stroke-linejoin:round;stroke:#002577;stroke-opacity:1;stroke-miterlimit:3.8637" d="M1565.775 1549.9125 1574.1 1550.1375h3.9375c0 0 2.25 4.5-1.349999999999909 6.0750000000000455C1573.0875 1557.7875 1570.6125 1557.7875 1570.6125 1557.7875" transform="matrix(0.0347222,0,0,0.0347222,0,0)"/><path style="fill:none;stroke-width:3.4882;stroke-linecap:butt;stroke-linejoin:miter;stroke:#002577;stroke-opacity:1;stroke-miterlimit:3.8637" d="M1568.25 1600.425C1565.4375 1603.0125 1562.4 1603.35 1557.3375 1603.8 1547.4375 1604.7 1537.5375 1593.1125 1535.175 1576.35 1532.5875 1557.675 1535.0625 1550.025 1553.5125 1549.4625" transform="matrix(0.0347222,0,0,0.0347222,0,0)"/><path style="fill:none;stroke-width:3.4882;stroke-linecap:butt;stroke-linejoin:miter;stroke:#002577;stroke-opacity:1;stroke-miterlimit:3.8637" d="M1571.5125 1557.5625H1558.2375C1558.2375 1557.5625 1551.2625 1559.475 1550.925 1565.2125 1550.475 1574.325 1550.25 1587.15 1554.1875 1592.2125L1558.125 1596.2625" transform="matrix(0.0347222,0,0,0.0347222,0,0)"/><path style="fill:none;stroke-width:4.0833;stroke-linecap:butt;stroke-linejoin:miter;stroke:#002577;stroke-opacity:1;stroke-miterlimit:3.8637" d="M1616.7375 1380.15 1617.975 1387.0125 1616.2875 1390.05 1609.2 1389.4875 1600.7625 1389.2625C1600.7625 1389.2625 1596.15 1388.8125 1594.9125 1388.3625 1593.675 1388.025 1589.625 1387.35 1589.625 1387.35 1589.625 1387.35 1583.55 1379.3625 1589.85 1374.4125 1596.2625 1369.575 1602.7875 1366.2 1604.025 1365.4125 1605.2625 1364.625 1605.9375 1364.85 1605.9375 1364.85" transform="matrix(0.0347222,0,0,0.0347222,0,0)"/><path style="fill:none;stroke-width:1.6333;stroke-linecap:butt;stroke-linejoin:miter;stroke:#002577;stroke-opacity:1;stroke-miterlimit:3.8637" d="M1616.7375 1381.725V1389.4875" transform="matrix(0.0347222,0,0,0.0347222,0,0)"/><path style="fill:none;stroke-width:3.2666;stroke-linecap:butt;stroke-linejoin:miter;stroke:#002577;stroke-opacity:1;stroke-miterlimit:3.8637" d="M1617.8625 1387.4625C1617.8625 1387.4625 1615.8375 1394.1 1616.9625 1397.25 1617.975 1400.4 1619.8875 1408.275 1620.225 1409.5125 1620.45 1410.3 1622.025 1419.075 1622.925 1420.9875 1623.9375 1422.7875 1625.9625 1430.8875 1632.6 1432.575 1639.35 1434.375 1646.775 1433.1375 1650.9375 1430.325" transform="matrix(0.0347222,0,0,0.0347222,0,0)"/><path style="fill:none;stroke-width:2.45;stroke-linecap:butt;stroke-linejoin:miter;stroke:#002577;stroke-opacity:1;stroke-miterlimit:3.8637" d="M1630.6875 1417.05C1630.6875 1417.05 1633.95 1415.925 1635.075 1416.375 1636.2 1416.825 1639.35 1417.1625 1639.35 1417.1625 1639.35 1417.1625 1643.2875 1416.4875 1644.525 1416.825 1645.875 1417.275 1647.9 1417.275 1648.575 1417.1625" transform="matrix(0.0347222,0,0,0.0347222,0,0)"/><path style="fill:none;stroke-width:2.45;stroke-linecap:butt;stroke-linejoin:miter;stroke:#002577;stroke-opacity:1;stroke-miterlimit:3.8637" d="M1633.6125 1421.325C1633.6125 1421.325 1641.2625 1422.7875 1644.525 1421.4375" transform="matrix(0.0347222,0,0,0.0347222,0,0)"/><path style="fill:none;stroke-width:2.45;stroke-linecap:butt;stroke-linejoin:miter;stroke:#002577;stroke-opacity:1;stroke-miterlimit:3.8637" d="M1644.3 1388.1375C1644.3 1388.1375 1651.275 1385.2125 1657.35 1389.7125" transform="matrix(0.0347222,0,0,0.0347222,0,0)"/><path style="fill:none;stroke-width:1.9598;stroke-linecap:butt;stroke-linejoin:miter;stroke:#002577;stroke-opacity:1;stroke-miterlimit:3.8637" d="M1635.4125 1387.6875C1635.975 1389.15 1634.9625 1393.425 1634.0625 1395.1125 1633.05 1396.8 1632.825 1399.8375 1632.2625 1401.075 1631.7 1402.425 1630.9125 1404.5625 1631.025 1405.8 1631.025 1407.0375 1631.025 1406.925 1632.9375 1407.9375 1634.85 1408.95 1636.2 1408.1625 1637.55 1407.7125 1639.0125 1407.2625 1640.3625 1406.8125 1641.6 1407.2625 1642.95 1407.6 1644.8625 1406.5875 1644.8625 1405.2375 1644.75 1403.8875 1644.4125 1401.975 1643.5125 1401.1875 1642.6125 1400.4 1640.7 1399.1625 1640.7 1399.1625" transform="matrix(0.0347222,0,0,0.0347222,0,0)"/><path style="fill:none;stroke-width:2.45;stroke-linecap:butt;stroke-linejoin:miter;stroke:#002577;stroke-opacity:1;stroke-miterlimit:3.8637" d="M1622.3625 1388.475C1623.4875 1388.3625 1630.125 1384.65 1635.75 1388.475" transform="matrix(0.0347222,0,0,0.0347222,0,0)"/><path style="fill-rule:nonzero;fill:#002577;fill-opacity:1;stroke-width:1.6333;stroke-linecap:butt;stroke-linejoin:miter;stroke:#002577;stroke-opacity:1;stroke-miterlimit:3.8637" d="M1632.75301 2513.397702C1632.741197 2512.722774 1630.708536 2512.308262 1628.119342 2512.24106 1625.644606 2512.284376 1623.627697 2512.769769 1623.527022 2513.446666 1623.536867 2514.009107 1625.571496 2514.536106 1628.158721 2514.490821 1630.635427 2514.559992 1632.764824 2514.07263 1632.75301 2513.397702zm0 0" transform="matrix(-0.0347153,-0.000607639,0.000607639,-0.0347153,111.529236,136.612611)"/><path style="fill:none;stroke-width:3.2666;stroke-linecap:butt;stroke-linejoin:miter;stroke:#002577;stroke-opacity:1;stroke-miterlimit:3.8637" d="M1631.925 1432.35C1632.15 1432.4625 1632.375 1432.575 1632.6 1432.575 1639.35 1434.375 1646.775 1433.1375 1650.9375 1430.325" transform="matrix(0.0347222,0,0,0.0347222,0,0)"/><path style="fill:none;stroke-width:3.2651;stroke-linecap:butt;stroke-linejoin:miter;stroke:#002577;stroke-opacity:1;stroke-miterlimit:3.8637" d="M1615.5 1339.2C1615.5 1339.2 1598.175 1344.2625 1600.3125 1351.125 1602.45 1357.875 1604.1375 1360.9125 1605.7125 1363.1625 1607.2875 1365.4125 1610.55 1374.1875 1611.5625 1376.6625 1612.575 1379.1375 1611.9 1383.6375 1615.95 1381.6125 1639.0125 1370.25 1688.5125 1389.9375 1677.9375 1389.0375 1675.0125 1388.8125 1710 1396.0125 1715.7375 1392.3 1716.975 1391.5125 1719.45 1389.9375 1715.4 1383.975 1713.0375 1380.4875 1706.0625 1371.6 1701.1125 1367.2125 1697.9625 1364.2875 1688.5125 1358.2125 1685.7 1353.4875 1682.8875 1348.7625 1676.1375 1344.825 1671.075 1343.925 1665.9 1343.025 1656.7875 1341 1649.8125 1341.3375 1642.8375 1341.675 1640.8125 1341 1637.2125 1340.325 1639.0125 1340.6625 1620.675 1338.525 1615.5 1339.2zm0 0" transform="matrix(0.0347222,0,0,0.0347222,0,0)"/><path style="fill:none;stroke-width:4.9001;stroke-linecap:butt;stroke-linejoin:miter;stroke:#002577;stroke-opacity:1;stroke-miterlimit:3.8637" d="M1657.575 1705.8375c0 0 18.22499999999991 11.25 39.9375-.4500000000000455C1717.7625 1694.475 1701.225 1703.3625 1701.225 1703.3625" transform="matrix(0.0347222,0,0,0.0347222,0,0)"/><path style="fill:none;stroke-width:4.9001;stroke-linecap:butt;stroke-linejoin:miter;stroke:#002577;stroke-opacity:1;stroke-miterlimit:3.8637" d="M1614.15 1708.3125C1614.15 1708.3125 1634.5125 1717.875 1655.325 1707.075" transform="matrix(0.0347222,0,0,0.0347222,0,0)"/><path style="fill-rule:nonzero;fill:#002577;fill-opacity:1;stroke-width:1.6333;stroke-linecap:butt;stroke-linejoin:miter;stroke:#002577;stroke-opacity:1;stroke-miterlimit:3.8637" d="M1655.195342 2514.03315C1655.248387 2513.461959 1653.040208 2512.902357 1650.431562 2512.837364 1647.722799 2512.896023 1645.632298 2513.455266 1645.579253 2514.026456 1645.64986 2514.697762 1647.746155 2515.269132 1650.454918 2515.210473 1653.063563 2515.275466 1655.265949 2514.704456 1655.195342 2514.03315zm0 0" transform="matrix(-0.0345313,-0.00363194,0.00363194,-0.0345313,105.16576,141.199285)"/><path style="fill:none;stroke-width:4.8999;stroke-linecap:butt;stroke-linejoin:miter;stroke:#002577;stroke-opacity:1;stroke-miterlimit:3.8637" d="M1623.825 1593.3375C1636.0875 1597.8375 1654.9875 1596.6 1666.9125 1592.8875" transform="matrix(0.0347222,0,0,0.0347222,0,0)"/><path style="fill-rule:evenodd;fill:#fab700;fill-opacity:1;stroke-width:.6805;stroke-linecap:butt;stroke-linejoin:miter;stroke:#002577;stroke-opacity:1;stroke-miterlimit:3.8637" d="M1779.8625 1834.2H1948.3875V1856.925H1779.8625zm0 0" transform="matrix(0.0347222,0,0,0.0347222,0,0)"/><path style="stroke:none;fill-rule:nonzero;fill:#b50027;fill-opacity:1" d="M0 1e2H240v50H0zm0 0"/></g></svg>