<?xml version="1.0" standalone="no"?>
<!DOCTYPE svg PUBLIC "-//W3C//DTD SVG 20010904//EN"
 "http://www.w3.org/TR/2001/REC-SVG-20010904/DTD/svg10.dtd">
<svg version="1.0" xmlns="http://www.w3.org/2000/svg"
 width="700.000000pt" height="700.000000pt" viewBox="0 0 700.000000 700.000000"
 preserveAspectRatio="xMidYMid meet">
<metadata>
Created by potrace 1.11, written by Peter Selinger 2001-2013
</metadata>
<g transform="translate(0.000000,700.000000) scale(0.100000,-0.100000)"
fill="#000000" stroke="none">
<path d="M2665 6960 c-77 -22 -176 -49 -220 -60 -116 -30 -163 -57 -196 -109
-94 -147 12 -326 185 -314 l55 3 11 -42 c7 -24 25 -91 41 -150 59 -218 69
-258 69 -267 0 -5 -47 -28 -105 -51 -220 -89 -480 -240 -660 -384 -38 -31 -73
-56 -77 -56 -4 0 -84 77 -177 171 l-171 170 20 21 c70 75 68 197 -4 276 -53
59 -160 80 -233 45 -35 -16 -347 -321 -399 -388 -37 -49 -45 -144 -16 -201 64
-125 193 -150 328 -64 21 13 31 4 190 -154 162 -162 167 -169 153 -191 -8 -12
-48 -68 -91 -123 -137 -181 -253 -386 -339 -600 -37 -92 -44 -103 -63 -99 -39
10 -61 15 -141 37 -44 12 -105 28 -135 36 -30 8 -68 18 -85 23 -16 5 -42 12
-57 15 -26 6 -27 8 -26 69 5 214 -258 296 -375 116 -15 -22 -29 -66 -52 -159
-2 -8 -23 -82 -45 -165 -45 -160 -55 -242 -37 -284 50 -115 173 -164 283 -111
47 23 104 89 104 120 0 27 7 28 78 8 83 -23 363 -98 379 -102 22 -4 23 -12 9
-112 -8 -54 -18 -135 -21 -179 -7 -85 -7 -336 -1 -395 3 -19 7 -69 11 -110 3
-41 8 -82 10 -90 2 -8 7 -34 10 -57 l6 -41 -53 -16 c-29 -8 -114 -31 -188 -50
-74 -20 -156 -42 -182 -50 l-47 -14 -12 32 c-46 118 -169 168 -283 116 -73
-33 -115 -104 -112 -186 2 -40 68 -313 81 -334 2 -4 7 -20 9 -37 16 -90 48
-165 87 -203 96 -93 259 -67 319 51 24 46 31 91 19 131 -7 26 -5 30 18 39 31
12 429 119 442 119 5 0 24 -37 42 -82 48 -122 147 -320 214 -428 62 -100 211
-303 226 -308 24 -9 -4 -45 -161 -202 -169 -169 -170 -170 -190 -150 -68 68
-204 66 -278 -3 -62 -57 -80 -162 -42 -236 25 -51 360 -385 410 -411 69 -35
171 -21 228 33 41 38 62 91 62 154 0 50 -5 66 -34 108 l-33 50 168 167 c93 93
175 168 182 168 8 0 22 -10 33 -21 29 -32 207 -160 312 -224 89 -54 322 -175
337 -175 4 0 21 -6 38 -14 18 -8 52 -22 77 -32 l45 -17 -56 -206 c-30 -113
-59 -219 -63 -235 -6 -26 -10 -28 -44 -23 -107 14 -208 -52 -231 -151 -19 -78
3 -151 62 -204 32 -29 63 -41 222 -83 55 -15 139 -38 188 -51 120 -33 167 -39
213 -24 122 40 176 163 125 282 -21 49 -88 108 -123 108 -11 0 -18 7 -18 18 0
19 116 451 122 458 3 2 49 -3 104 -10 180 -27 481 -37 612 -22 26 3 67 8 92
11 25 3 72 10 104 15 33 5 61 8 63 6 3 -3 77 -268 89 -316 2 -8 10 -40 18 -70
22 -76 20 -87 -11 -95 -111 -27 -170 -186 -109 -290 14 -23 43 -54 66 -68 65
-44 106 -44 265 -2 77 20 147 38 155 40 110 27 210 60 237 76 38 24 79 88 88
140 4 20 1 56 -5 80 -26 98 -101 153 -207 152 l-63 0 -11 41 c-6 22 -33 123
-60 223 -27 100 -49 186 -49 191 0 5 37 24 83 42 236 93 529 263 690 399 12
11 33 28 46 38 l24 19 174 -174 c169 -169 174 -174 155 -190 -29 -25 -53 -90
-54 -143 -1 -145 162 -245 291 -180 38 20 360 333 401 391 31 44 39 143 15
191 -64 127 -214 160 -324 71 l-24 -19 -171 171 -172 171 51 65 c122 156 205
283 285 435 57 109 140 299 140 321 0 26 24 25 126 -2 54 -14 133 -35 174 -45
41 -11 98 -26 126 -34 l51 -15 0 -63 c-1 -51 4 -72 26 -109 63 -108 191 -138
292 -68 53 37 75 81 113 230 17 63 45 169 63 234 29 109 31 125 21 172 -28
135 -159 202 -285 146 -48 -21 -107 -90 -107 -124 0 -10 -7 -18 -15 -18 -12 0
-249 62 -400 104 -5 2 -22 6 -37 11 -32 8 -31 7 -18 72 19 95 34 284 34 428 0
76 -12 275 -18 315 -2 14 -7 48 -11 75 -3 28 -9 60 -12 71 -4 18 2 24 30 33
20 7 46 14 59 16 13 3 102 26 199 53 l177 48 24 -50 c34 -72 90 -109 171 -114
51 -3 70 1 107 20 84 45 124 140 100 241 -38 159 -124 456 -141 483 -41 67
-141 105 -219 84 -106 -29 -178 -142 -151 -237 l9 -30 -232 -62 c-128 -33
-235 -61 -238 -61 -3 0 -16 28 -29 63 -81 219 -232 483 -396 693 -34 45 -63
85 -63 89 0 3 74 80 164 171 149 149 188 180 198 156 2 -4 19 -17 38 -28 73
-44 188 -26 247 38 54 57 68 159 33 228 -26 51 -361 385 -413 411 -112 58
-259 -16 -284 -140 -12 -60 3 -125 39 -171 l25 -32 -169 -169 c-93 -93 -171
-169 -173 -169 -2 0 -60 42 -128 93 -200 150 -427 278 -645 362 -84 33 -81 18
-35 180 14 50 26 97 28 105 4 20 23 93 41 156 l15 51 62 0 c172 0 269 167 180
311 -39 63 -77 80 -333 149 -287 77 -338 77 -418 -4 -60 -60 -70 -171 -23
-244 29 -46 84 -89 115 -89 9 0 16 -8 16 -17 0 -15 -58 -237 -111 -426 -9 -35
-13 -38 -37 -33 -15 3 -45 8 -67 12 -22 3 -50 7 -63 9 -143 24 -530 21 -682
-5 -30 -5 -74 -12 -97 -15 l-42 -6 -11 43 c-6 24 -20 72 -30 108 -10 36 -28
103 -40 150 -12 47 -29 104 -36 128 -12 39 -11 43 4 48 140 42 197 195 118
315 -35 52 -83 78 -152 84 -48 3 -86 -3 -199 -35z"/>
</g>
</svg>
