<svg xmlns="http://www.w3.org/2000/svg" xmlns:xlink="http://www.w3.org/1999/xlink" width="300pt" height="150pt" viewBox="0 0 300 150"><g id="surface1"><path d="M0 0h3e2v150H0z" style="fill:#0071bc;fill-opacity:1;stroke:none"/><path style="fill-rule:nonzero;fill:#fff;fill-opacity:1;stroke-width:1.93488;stroke-linecap:butt;stroke-linejoin:miter;stroke:#000;stroke-opacity:1;stroke-miterlimit:4" d="M557.8125 395.546875C557.8125 395.546875 575.442708 376.888021 592.408854 380.455729 597.486979 360.794271 616.640625 359.257812 616.640625 359.257812 616.640625 359.257812 614.778646 337.565104 639.361979 332.8125 640.039062 318.059896 654.960938 305.859375 654.960938 305.859375 654.960938 305.859375 651.914062 282.96875 667.513021 277.721354 658.007812 259.570312 670.729167 246.354167 670.559896 246.015625 670.390625 245.677083 654.453125 217.356771 668.697917 209.21875 653.606771 196.510417 658.528646 182.096354 658.528646 182.096354 658.528646 182.096354 642.083333 177.851562 648.007812 158.190104 634.453125 155.820312 631.731771 133.945312 631.731771 133.945312 631.731771 133.945312 610.885417 138.190104 608.333333 120.052083 594.609375 122.252604 593.085938 108.684896 592.916667 108.684896 592.747396 108.684896 565.611979 115.976562 560.195312 95.46875 549.674479 100.885417 545.104167 91.223958 545.104167 91.223958 545.104167 91.223958 530.013021 98.684896 521.028646 84.270833 503.059896 95.46875 493.059896 83.763021 493.059896 83.763021 493.059896 83.763021 469.492188 99.361979 461.692708 87.330729 447.786458 101.393229 435.416667 95.299479 435.416667 95.299479 435.416667 95.299479 424.895833 113.945312 407.942708 109.192708 404.049479 126.484375 384.544271 126.822917 384.544271 126.822917 384.544271 126.822917 386.588542 142.083333 363.190104 146.158854 360.143229 164.127604 347.929688 167.174479 347.929688 167.174479 347.929688 167.174479 349.114583 184.635417 338.098958 190.234375 341.992188 200.065104 331.822917 212.109375 331.822917 212.109375 331.822917 212.109375 342.669271 225.664062 327.929688 240.924479 342.161458 244.661458 331.822917 269.244792 331.822917 269.244792 331.822917 269.244792 351.484375 278.059896 339.114583 294.335938 353.190104 298.90625 348.776042 310.091146 348.945312 316.705729 357.929688 320.78125 365.898438 318.736979 362.005208 336.888021 389.635417 339.934896 376.588542 355.195312 376.588542 355.195312 376.588542 355.195312 389.466146 355.703125 384.375 365.872396 407.942708 365.364583 411.341146 383.502604 411.341146 383.502604 411.341146 383.502604 433.203125 377.747396 436.09375 386.223958 438.971354 394.700521 426.601562 451.835938 426.601562 451.835938c0 0-18.489582999999982.0-32.21354100000002-14.752605000000017C362.174479 436.236979 369.296875 415.039062 368.789062 415.039062 368.28125 415.039062 358.098958 418.945312 352.851562 401.302083 331.315104 405.716146 331.992188 387.578125 331.822917 387.408854 331.653646 387.239583 322.161458 382.994792 325.716146 374.010417 303.515625 376.041667 305.208333 354.348958 305.208333 354.348958 300.351562 352.369792 298.541667 347.851562 299.270833 343.320312 296.393229 342.304688 276.71875 341.966146 286.901042 316.028646 268.072917 304.674479 279.778646 291.614583 279.778646 291.614583 279.778646 291.614583 253.841146 278.229167 273.841146 262.799479 258.919271 240.755208 275.026042 229.739583 275.026042 229.739583 275.026042 229.739583 254.348958 208.710938 275.364583 193.789062 271.979167 161.927083 290.963542 154.296875 290.963542 154.296875c0 0-10-25.9375 17.12239599999998-36.796875C309.778646 91.223958 328.776042 90.546875 328.776042 90.546875 328.776042 90.546875 329.283854 69.6875 359.114583 71.731771 364.882812 53.072917 385.234375 56.809896 385.234375 56.809896c0 0 6.263020999999981-22.552084 33.90625-11.692708000000003C433.203125 17.643229 454.0625 31.71875 454.0625 31.71875c0 0 13.21614599999998-8.645833 19.83072900000002-5.9375C482.291667 11.354167 500.169271 25.221354 511.71875 28.020833 515.911458 26.393229 530.859375 15.104167 542.395833 29.348958 557.643229 19.335938 570.703125 37.317708 570.703125 37.317708 570.703125 37.317708 591.71875 26.627604 601.5625 51.041667 646.145833 46.979167 639.700521 76.132812 639.700521 76.132812 639.700521 76.132812 674.791667 68.164062 667.174479 103.085938 699.036458 105.299479 695.820312 126.315104 695.820312 126.315104 695.820312 126.315104 715.989583 141.575521 707.174479 155.3125 725.15625 156.158854 718.541667 173.450521 718.541667 173.450521 718.541667 173.450521 732.265625 178.710938 720.911458 200.065104 747.1875 221.09375 726.002604 241.940104 725.833333 241.770833 725.664062 241.601562 739.895833 258.723958 727.018229 278.398438 730.911458 309.583333 715.143229 317.552083 715.143229 317.552083 715.143229 317.552083 719.21875 337.734375 701.588542 343.489583 701.25 367.226562 678.867188 370.117188 678.867188 370.117188 678.867188 370.117188 684.804688 380.416667 662.591146 391.276042 661.71875 407.161458 638.515625 408.424479 638.515625 408.424479 638.515625 408.424479 636.315104 437.591146 606.809896 429.791667 599.648438 453.190104 565.104167 446.236979 564.427083 445.898438 563.75 445.559896 557.8125 395.716146 557.8125 395.546875zm0 0" transform="matrix(0.3,0,0,0.3,0,0)"/><path style="fill:none;stroke-width:1.93488;stroke-linecap:butt;stroke-linejoin:miter;stroke:#000;stroke-opacity:1;stroke-miterlimit:4" d="M599.010417 420.065104C599.010417 420.065104 596.393229 425.104167 606.861979 429.53125" transform="matrix(0.3,0,0,0.3,0,0)"/><path style="fill:none;stroke-width:1.93488;stroke-linecap:butt;stroke-linejoin:miter;stroke:#000;stroke-opacity:1;stroke-miterlimit:4" d="M619.934896 408.190104c0 0 11.679687000000058-2.8125 19.53125.0" transform="matrix(0.3,0,0,0.3,0,0)"/><path style="fill:none;stroke-width:1.93488;stroke-linecap:butt;stroke-linejoin:miter;stroke:#000;stroke-opacity:1;stroke-miterlimit:4" d="M654.765625 378.815104C654.765625 379.010417 653.151042 384.036458 662.408854 391.289062" transform="matrix(0.3,0,0,0.3,0,0)"/><path style="fill:none;stroke-width:1.93488;stroke-linecap:butt;stroke-linejoin:miter;stroke:#000;stroke-opacity:1;stroke-miterlimit:4" d="M661.40625 365.729167C661.40625 365.729167 668.242188 370.755208 679.713542 370.559896" transform="matrix(0.3,0,0,0.3,0,0)"/><path style="fill:none;stroke-width:1.93488;stroke-linecap:butt;stroke-linejoin:miter;stroke:#000;stroke-opacity:1;stroke-miterlimit:4" d="M592.369792 380.416667c0 0 .4036460000000943 13.28125-6.445312999999942 19.53125" transform="matrix(0.3,0,0,0.3,0,0)"/><path style="fill:none;stroke-width:1.93488;stroke-linecap:butt;stroke-linejoin:miter;stroke:#000;stroke-opacity:1;stroke-miterlimit:4" d="M615.3125 359.895833C615.3125 359.895833 626.575521 362.708333 635.833333 358.072917" transform="matrix(0.3,0,0,0.3,0,0)"/><path style="fill:none;stroke-width:1.93488;stroke-linecap:butt;stroke-linejoin:miter;stroke:#000;stroke-opacity:1;stroke-miterlimit:4" d="M687.565104 340.364583C687.565104 340.364583 689.973958 343.789062 702.447917 343.190104" transform="matrix(0.3,0,0,0.3,0,0)"/><path style="fill:none;stroke-width:1.93488;stroke-linecap:butt;stroke-linejoin:miter;stroke:#000;stroke-opacity:1;stroke-miterlimit:4" d="M638.854167 332.526042C639.257812 332.721354 653.554688 337.34375 662.604167 333.125" transform="matrix(0.3,0,0,0.3,0,0)"/><path style="fill:none;stroke-width:1.93488;stroke-linecap:butt;stroke-linejoin:miter;stroke:#000;stroke-opacity:1;stroke-miterlimit:4" d="M667.434896 277.773438C667.434896 277.773438 668.033854 276.966146 672.460938 292.460938" transform="matrix(0.3,0,0,0.3,0,0)"/><path style="fill:none;stroke-width:1.93488;stroke-linecap:butt;stroke-linejoin:miter;stroke:#000;stroke-opacity:1;stroke-miterlimit:4" d="M678.502604 234.101562C678.502604 234.101562 677.890625 242.356771 671.25 245.976562" transform="matrix(0.3,0,0,0.3,0,0)"/><path style="fill:none;stroke-width:1.93488;stroke-linecap:butt;stroke-linejoin:miter;stroke:#000;stroke-opacity:1;stroke-miterlimit:4" d="M720.963542 200.286458C720.963542 200.286458 711.315104 208.138021 713.125 211.354167" transform="matrix(0.3,0,0,0.3,0,0)"/><path style="fill:none;stroke-width:1.93488;stroke-linecap:butt;stroke-linejoin:miter;stroke:#000;stroke-opacity:1;stroke-miterlimit:4" d="M672.864583 194.648438C672.864583 194.648438 677.903646 203.098958 669.648438 208.945312" transform="matrix(0.3,0,0,0.3,0,0)"/><path style="fill:none;stroke-width:1.93488;stroke-linecap:butt;stroke-linejoin:miter;stroke:#000;stroke-opacity:1;stroke-miterlimit:4" d="M648.515625 158.424479C648.515625 158.424479 657.174479 158.020833 661.002604 165.46875" transform="matrix(0.3,0,0,0.3,0,0)"/><path style="fill:none;stroke-width:1.93488;stroke-linecap:butt;stroke-linejoin:miter;stroke:#000;stroke-opacity:1;stroke-miterlimit:4" d="M666.627604 103.684896C666.627604 103.893229 668.4375 105.494792 665.026042 108.919271" transform="matrix(0.3,0,0,0.3,0,0)"/><path style="fill:none;stroke-width:1.93488;stroke-linecap:butt;stroke-linejoin:miter;stroke:#000;stroke-opacity:1;stroke-miterlimit:4" d="M604.84375 104.492188C604.84375 104.492188 609.466146 111.731771 608.658854 120.585938" transform="matrix(0.3,0,0,0.3,0,0)"/><path style="fill:none;stroke-width:1.93488;stroke-linecap:butt;stroke-linejoin:miter;stroke:#000;stroke-opacity:1;stroke-miterlimit:4" d="M631.614583 79.934896C633.619792 79.739583 640.46875 76.71875 640.46875 76.71875" transform="matrix(0.3,0,0,0.3,0,0)"/><path style="fill:none;stroke-width:1.93488;stroke-linecap:butt;stroke-linejoin:miter;stroke:#000;stroke-opacity:1;stroke-miterlimit:4" d="M601.822917 51.158854C601.614583 51.158854 599.205729 60.208333 603.632812 63.4375" transform="matrix(0.3,0,0,0.3,0,0)"/><path style="fill:none;stroke-width:1.93488;stroke-linecap:butt;stroke-linejoin:miter;stroke:#000;stroke-opacity:1;stroke-miterlimit:4" d="M590.755208 92.408854C590.755208 102.070312 598.398438 99.661458 593.164062 108.919271" transform="matrix(0.3,0,0,0.3,0,0)"/><path style="fill:none;stroke-width:1.93488;stroke-linecap:butt;stroke-linejoin:miter;stroke:#000;stroke-opacity:1;stroke-miterlimit:4" d="M572.044271 84.361979C571.835938 84.361979 559.960938 93.619792 559.960938 95.234375" transform="matrix(0.3,0,0,0.3,0,0)"/><path style="fill:none;stroke-width:1.93488;stroke-linecap:butt;stroke-linejoin:miter;stroke:#000;stroke-opacity:1;stroke-miterlimit:4" d="M541.041667 79.335938c0 0 5.0260410000000775 5.026041000000006 3.828125 11.875" transform="matrix(0.3,0,0,0.3,0,0)"/><path style="fill:none;stroke-width:1.93488;stroke-linecap:butt;stroke-linejoin:miter;stroke:#000;stroke-opacity:1;stroke-miterlimit:4" d="M499.583333 73.294271C499.375 73.697917 495.351562 82.356771 492.539062 83.958333" transform="matrix(0.3,0,0,0.3,0,0)"/><path style="fill:none;stroke-width:1.93488;stroke-linecap:butt;stroke-linejoin:miter;stroke:#000;stroke-opacity:1;stroke-miterlimit:4" d="M462.955729 73.502604C463.164062 73.502604 466.979167 81.549479 461.953125 87.382812" transform="matrix(0.3,0,0,0.3,0,0)"/><path style="fill:none;stroke-width:1.93488;stroke-linecap:butt;stroke-linejoin:miter;stroke:#000;stroke-opacity:1;stroke-miterlimit:4" d="M397.747396 106.914062C397.955729 107.317708 408.007812 108.919271 408.007812 108.919271" transform="matrix(0.3,0,0,0.3,0,0)"/><path style="fill:none;stroke-width:1.93488;stroke-linecap:butt;stroke-linejoin:miter;stroke:#000;stroke-opacity:1;stroke-miterlimit:4" d="M372.591146 130.247396C372.786458 130.052083 384.869792 126.432292 384.869792 126.432292" transform="matrix(0.3,0,0,0.3,0,0)"/><path style="fill:none;stroke-width:1.93488;stroke-linecap:butt;stroke-linejoin:miter;stroke:#000;stroke-opacity:1;stroke-miterlimit:4" d="M353.072917 145.351562C353.476562 145.351562 361.523438 146.757812 363.528646 145.755208" transform="matrix(0.3,0,0,0.3,0,0)"/><path style="fill:none;stroke-width:1.93488;stroke-linecap:butt;stroke-linejoin:miter;stroke:#000;stroke-opacity:1;stroke-miterlimit:4" d="M347.434896 152.786458C347.434896 152.786458 350.052083 154.192708 347.838542 167.682292" transform="matrix(0.3,0,0,0.3,0,0)"/><path style="fill:none;stroke-width:1.93488;stroke-linecap:butt;stroke-linejoin:miter;stroke:#000;stroke-opacity:1;stroke-miterlimit:4" d="M308.190104 117.369792 313.020833 124.609375" transform="matrix(0.3,0,0,0.3,0,0)"/><path style="fill:none;stroke-width:1.93488;stroke-linecap:butt;stroke-linejoin:miter;stroke:#000;stroke-opacity:1;stroke-miterlimit:4" d="M291.679688 154.596354C291.679688 154.401042 296.510417 161.848958 302.955729 163.255208" transform="matrix(0.3,0,0,0.3,0,0)"/><path style="fill:none;stroke-width:1.93488;stroke-linecap:butt;stroke-linejoin:miter;stroke:#000;stroke-opacity:1;stroke-miterlimit:4" d="M329.713542 192.434896C329.921875 192.434896 337.565104 190.833333 338.776042 190.026042" transform="matrix(0.3,0,0,0.3,0,0)"/><path style="fill:none;stroke-width:1.93488;stroke-linecap:butt;stroke-linejoin:miter;stroke:#000;stroke-opacity:1;stroke-miterlimit:4" d="M326.302083 219.804688C326.497396 219.804688 326.09375 214.778646 332.34375 211.354167" transform="matrix(0.3,0,0,0.3,0,0)"/><path style="fill:none;stroke-width:1.93488;stroke-linecap:butt;stroke-linejoin:miter;stroke:#000;stroke-opacity:1;stroke-miterlimit:4" d="M318.046875 232.291667C318.046875 232.486979 323.880208 239.739583 327.916667 240.742188" transform="matrix(0.3,0,0,0.3,0,0)"/><path style="fill:none;stroke-width:1.93488;stroke-linecap:butt;stroke-linejoin:miter;stroke:#000;stroke-opacity:1;stroke-miterlimit:4" d="M314.635417 246.184896C315.234375 245.976562 321.471354 240.546875 328.723958 240.950521" transform="matrix(0.3,0,0,0.3,0,0)"/><path style="fill:none;stroke-width:1.93488;stroke-linecap:butt;stroke-linejoin:miter;stroke:#000;stroke-opacity:1;stroke-miterlimit:4" d="M312.604167 264.895833C312.604167 264.895833 312.8125 271.132812 331.328125 269.518229" transform="matrix(0.3,0,0,0.3,0,0)"/><path style="fill:none;stroke-width:1.93488;stroke-linecap:butt;stroke-linejoin:miter;stroke:#000;stroke-opacity:1;stroke-miterlimit:4" d="M314.427083 286.835938C314.427083 286.627604 319.869792 274.348958 330.9375 269.726562" transform="matrix(0.3,0,0,0.3,0,0)"/><path style="fill:none;stroke-width:1.93488;stroke-linecap:butt;stroke-linejoin:miter;stroke:#000;stroke-opacity:1;stroke-miterlimit:4" d="M329.322917 302.526042c0 0 1.6015620000000013-5.234375 10.859375-8.854167000000018" transform="matrix(0.3,0,0,0.3,0,0)"/><path style="fill:none;stroke-width:1.93488;stroke-linecap:butt;stroke-linejoin:miter;stroke:#000;stroke-opacity:1;stroke-miterlimit:4" d="M339.583333 323.255208C339.583333 323.255208 346.223958 317.825521 348.632812 317.018229" transform="matrix(0.3,0,0,0.3,0,0)"/><path style="fill:none;stroke-width:1.93488;stroke-linecap:butt;stroke-linejoin:miter;stroke:#000;stroke-opacity:1;stroke-miterlimit:4" d="M347.838542 339.361979C347.838542 339.361979 351.861979 343.580729 361.927083 336.341146" transform="matrix(0.3,0,0,0.3,0,0)"/><path style="fill:none;stroke-width:1.93488;stroke-linecap:butt;stroke-linejoin:miter;stroke:#000;stroke-opacity:1;stroke-miterlimit:4" d="M299.335938 342.786458C300.533854 342.578125 315.234375 339.153646 320.260417 346.809896" transform="matrix(0.3,0,0,0.3,0,0)"/><path style="fill:none;stroke-width:1.93488;stroke-linecap:butt;stroke-linejoin:miter;stroke:#000;stroke-opacity:1;stroke-miterlimit:4" d="M305.169271 354.856771C305.169271 354.856771 320.664062 352.851562 322.682292 354.453125" transform="matrix(0.3,0,0,0.3,0,0)"/><path style="fill:none;stroke-width:1.93488;stroke-linecap:butt;stroke-linejoin:miter;stroke:#000;stroke-opacity:1;stroke-miterlimit:4" d="M360.507812 358.085938C360.507812 358.085938 358.502604 362.304688 377.617188 355.260417" transform="matrix(0.3,0,0,0.3,0,0)"/><path style="fill:none;stroke-width:1.93488;stroke-linecap:butt;stroke-linejoin:miter;stroke:#000;stroke-opacity:1;stroke-miterlimit:4" d="M384.257812 365.729167C380.833333 371.5625 385.065104 376.197917 380.638021 378.815104" transform="matrix(0.3,0,0,0.3,0,0)"/><path style="fill:none;stroke-width:1.93488;stroke-linecap:butt;stroke-linejoin:miter;stroke:#000;stroke-opacity:1;stroke-miterlimit:4" d="M326.09375 373.776042C326.705729 373.372396 333.138021 371.158854 332.135417 361.901042" transform="matrix(0.3,0,0,0.3,0,0)"/><path style="fill:none;stroke-width:1.93488;stroke-linecap:butt;stroke-linejoin:miter;stroke:#000;stroke-opacity:1;stroke-miterlimit:4" d="M331.940104 387.65625C332.747396 387.460938 343.411458 382.825521 345.625 385.247396" transform="matrix(0.3,0,0,0.3,0,0)"/><path style="fill:none;stroke-width:1.93488;stroke-linecap:butt;stroke-linejoin:miter;stroke:#000;stroke-opacity:1;stroke-miterlimit:4" d="M352.864583 401.145833C352.864583 401.145833 354.283854 391.692708 357.291667 390.690104" transform="matrix(0.3,0,0,0.3,0,0)"/><path style="fill:none;stroke-width:1.93488;stroke-linecap:butt;stroke-linejoin:miter;stroke:#000;stroke-opacity:1;stroke-miterlimit:4" d="M368.971354 415.442708C368.971354 415.442708 377.825521 415.234375 381.653646 412.421875" transform="matrix(0.3,0,0,0.3,0,0)"/><path style="fill:none;stroke-width:1.93488;stroke-linecap:butt;stroke-linejoin:miter;stroke:#000;stroke-opacity:1;stroke-miterlimit:4" d="M386.067708 383.4375C386.276042 383.645833 394.322917 387.864583 411.432292 383.645833" transform="matrix(0.3,0,0,0.3,0,0)"/><path style="fill:none;stroke-width:1.93488;stroke-linecap:butt;stroke-linejoin:miter;stroke:#000;stroke-opacity:1;stroke-miterlimit:4" d="M392.513021 421.875C392.513021 421.875 394.921875 434.153646 394.726562 436.979167" transform="matrix(0.3,0,0,0.3,0,0)"/><path style="fill:none;stroke-width:1.93488;stroke-linecap:butt;stroke-linejoin:miter;stroke:#000;stroke-opacity:1;stroke-miterlimit:4" d="M632.213542 133.867188h6.640625" transform="matrix(0.3,0,0,0.3,0,0)"/><path style="fill:none;stroke-width:1.93488;stroke-linecap:butt;stroke-linejoin:miter;stroke:#000;stroke-opacity:1;stroke-miterlimit:4" d="M526.354167 75.3125C526.354167 75.3125 523.736979 82.955729 520.3125 84.973958" transform="matrix(0.3,0,0,0.3,0,0)"/><path style="fill:none;stroke-width:1.93488;stroke-linecap:butt;stroke-linejoin:miter;stroke:#000;stroke-opacity:1;stroke-miterlimit:4" d="M454.505208 31.835938C454.700521 32.03125 455.299479 38.072917 451.484375 43.307292" transform="matrix(0.3,0,0,0.3,0,0)"/><path style="fill:none;stroke-width:1.93488;stroke-linecap:butt;stroke-linejoin:miter;stroke:#000;stroke-opacity:1;stroke-miterlimit:4" d="M418.28125 45.520833C418.28125 45.729167 419.895833 52.369792 409.21875 54.583333" transform="matrix(0.3,0,0,0.3,0,0)"/><path style="fill-rule:evenodd;fill:#f7df73;fill-opacity:1;stroke-width:2.4186;stroke-linecap:butt;stroke-linejoin:round;stroke:#000;stroke-opacity:1;stroke-miterlimit:4" d="M561.71875 423.684896C561.71875 423.684896 662.252604 395.286458 692.604167 271.901042 674.986979 398.554688 564.973958 438.684896 564.973958 438.684896L561.71875 423.671875zm0 0" transform="matrix(0.3,0,0,0.3,0,0)"/><path style="fill-rule:evenodd;fill:#f7df73;fill-opacity:1;stroke-width:2.429;stroke-linecap:butt;stroke-linejoin:round;stroke:#000;stroke-opacity:1;stroke-miterlimit:4" d="M429.947917 421.015625c0 0-99.609375-28.91927099999998-129.6875-154.51822900000002C317.721354 395.416667 426.71875 436.289062 426.71875 436.289062L429.947917 421.002604zm0 0" transform="matrix(0.3,0,0,0.3,0,0)"/><path style="stroke:none;fill-rule:nonzero;fill:#8c1800;fill-opacity:1" d="M171.609375 129.410156C172.542969 129.410156 174.847656 126.859375 176.171875 126.566406 177.496094 126.269531 177.644531 124.945312 176.121094 124.898438 174.601562 124.847656 173.277344 126.613281 173.277344 126.613281 173.277344 126.613281 171.953125 127.742188 170.578125 127.890625 169.203125 128.039062 170.089844 129.753906 171.609375 129.410156zm0 0"/><path style="stroke:none;fill-rule:nonzero;fill:#8c1800;fill-opacity:1" d="M178.035156 124.699219C178.035156 124.699219 177.101562 124.359375 179.507812 123.425781 181.910156 122.492188 181.765625 121.414062 182.550781 120.972656 183.332031 120.53125 185.003906 119.351562 185.34375 120.039062 185.6875 120.726562 183.578125 122.101562 183.089844 122.246094 182.597656 122.394531 180.195312 124.601562 179.507812 124.800781 178.820312 124.996094 178.328125 124.898438 178.035156 124.699219zm0 0"/><path style="stroke:none;fill-rule:nonzero;fill:#8c1800;fill-opacity:1" d="M125.921875 128.652344C125 128.652344 122.714844 126.054688 121.402344 125.753906 120.089844 125.457031 119.941406 124.105469 121.449219 124.058594 122.957031 124.007812 124.269531 125.804688 124.269531 125.804688c0 0 1.3125 1.1484370000000013 2.671875 1.3007810000000006C128.304688 127.253906 127.429688 129 125.921875 128.652344zm0 0"/><path style="stroke:none;fill-rule:nonzero;fill:#8c1800;fill-opacity:1" d="M119.554688 123.859375C119.554688 123.859375 120.476562 123.507812 118.09375 122.558594 115.710938 121.609375 115.859375 120.511719 115.082031 120.0625 114.300781 119.613281 112.648438 118.414062 112.308594 119.113281 111.96875 119.8125 114.058594 121.210938 114.546875 121.359375 115.03125 121.511719 117.414062 123.757812 118.09375 123.957031 118.773438 124.15625 119.261719 124.058594 119.554688 123.859375zm0 0"/><path style="fill-rule:nonzero;fill:#8c1800;fill-opacity:1;stroke-width:2.4186;stroke-linecap:butt;stroke-linejoin:miter;stroke:#8c1800;stroke-opacity:1;stroke-miterlimit:4" d="M629.921875 388.190104C629.921875 388.190104 619.453125 394.244792 620.924479 395.716146 622.395833 397.1875 631.71875 389.986979 631.888021 389.830729 632.044271 389.661458 635.807292 385.078125 629.921875 388.190104zm0 0" transform="matrix(0.3,0,0,0.3,0,0)"/><path style="fill-rule:nonzero;fill:#8c1800;fill-opacity:1;stroke-width:2.429;stroke-linecap:butt;stroke-linejoin:miter;stroke:#8c1800;stroke-opacity:1;stroke-miterlimit:4" d="M362.369792 384.895833C362.369792 384.895833 372.747396 391.054688 371.289062 392.552083 369.817708 394.049479 360.585938 386.71875 360.429688 386.549479 360.260417 386.393229 356.536458 381.731771 362.369792 384.895833zm0 0" transform="matrix(0.3,0,0,0.3,0,0)"/><path style="fill:none;stroke-width:3.14418;stroke-linecap:round;stroke-linejoin:miter;stroke:#8c1800;stroke-opacity:1;stroke-miterlimit:4" d="M645.455729 372.825521C638.59375 380.507812 638.59375 380.338542 638.59375 380.338542" transform="matrix(0.3,0,0,0.3,0,0)"/><path style="fill:none;stroke-width:2.90232;stroke-linecap:round;stroke-linejoin:miter;stroke:#8c1800;stroke-opacity:1;stroke-miterlimit:4" d="M655.755208 360.234375 649.21875 368.242188" transform="matrix(0.3,0,0,0.3,0,0)"/><path style="fill:none;stroke-width:2.66046;stroke-linecap:round;stroke-linejoin:miter;stroke:#8c1800;stroke-opacity:1;stroke-miterlimit:4" d="M666.067708 343.867188 658.710938 355.651042" transform="matrix(0.3,0,0,0.3,0,0)"/><path style="fill:none;stroke-width:2.4186;stroke-linecap:round;stroke-linejoin:miter;stroke:#8c1800;stroke-opacity:1;stroke-miterlimit:4" d="M674.739583 327.1875 668.684896 339.296875" transform="matrix(0.3,0,0,0.3,0,0)"/><path style="fill:none;stroke-width:2.4186;stroke-linecap:round;stroke-linejoin:miter;stroke:#8c1800;stroke-opacity:1;stroke-miterlimit:4" d="M678.658854 318.359375 676.692708 322.617188" transform="matrix(0.3,0,0,0.3,0,0)"/><path style="fill:none;stroke-width:1.45116;stroke-linecap:round;stroke-linejoin:miter;stroke:#8c1800;stroke-opacity:1;stroke-miterlimit:4" d="M683.085938 306.744792 681.445312 311.822917" transform="matrix(0.3,0,0,0.3,0,0)"/><path style="fill:none;stroke-width:3.15775;stroke-linecap:round;stroke-linejoin:miter;stroke:#8c1800;stroke-opacity:1;stroke-miterlimit:4" d="M346.979167 369.244792C353.789062 377.070312 353.789062 376.901042 353.789062 376.901042" transform="matrix(0.3,0,0,0.3,0,0)"/><path style="fill:none;stroke-width:2.914845;stroke-linecap:round;stroke-linejoin:miter;stroke:#8c1800;stroke-opacity:1;stroke-miterlimit:4" d="M336.770833 356.419271 343.255208 364.583333" transform="matrix(0.3,0,0,0.3,0,0)"/><path style="fill:none;stroke-width:2.67194;stroke-linecap:round;stroke-linejoin:miter;stroke:#8c1800;stroke-opacity:1;stroke-miterlimit:4" d="M326.5625 339.765625 333.854167 351.757812" transform="matrix(0.3,0,0,0.3,0,0)"/><path style="fill:none;stroke-width:2.429;stroke-linecap:round;stroke-linejoin:miter;stroke:#8c1800;stroke-opacity:1;stroke-miterlimit:4" d="M317.96875 322.786458 323.971354 335.104167" transform="matrix(0.3,0,0,0.3,0,0)"/><path style="fill:none;stroke-width:2.429;stroke-linecap:round;stroke-linejoin:miter;stroke:#8c1800;stroke-opacity:1;stroke-miterlimit:4" d="M314.075521 313.802083 316.028646 318.125" transform="matrix(0.3,0,0,0.3,0,0)"/><path style="fill:none;stroke-width:1.4574;stroke-linecap:round;stroke-linejoin:miter;stroke:#8c1800;stroke-opacity:1;stroke-miterlimit:4" d="M309.713542 301.979167 311.328125 307.135417" transform="matrix(0.3,0,0,0.3,0,0)"/><path style="fill-rule:nonzero;fill:#217900;fill-opacity:1;stroke-width:1.934881;stroke-linecap:butt;stroke-linejoin:round;stroke:#000;stroke-opacity:1;stroke-miterlimit:4" d="M343.554688 115.742188C343.645833 115.742188 351.041667 122.148438 349.661458 131.809896 348.28125 141.471354 342.695312 154.895833 343.815104 164.908854 344.505208 168.919271 344.244792 176.106771 344.244792 176.106771 344.244792 176.106771 337.539062 166.588542 337.460938 156.40625 337.369792 146.223958 344.713542 136.5625 344.713542 129.0625 344.713542 121.549479 343.385417 115.572917 343.554688 115.742188zm0 0" transform="matrix(0.3,0,0,0.3,0,0)"/><path style="fill-rule:nonzero;fill:#217900;fill-opacity:1;stroke-width:1.934881;stroke-linecap:butt;stroke-linejoin:round;stroke:#000;stroke-opacity:1;stroke-miterlimit:4" d="M339.895833 118.619792c0 0-9.6875 9.257812000000001-10.9375 18.255207999999996C328.033854 141.510417 327.669271 163.125 327.565104 172.708333 327.34375 175.651042 326.119792 187.265625 325.872396 191.497396 325.611979 195.729167 332.994792 184.283854 333.424479 174.973958 333.190104 165.325521 333.190104 145.013021 334.166667 141.966146 335.039062 138.033854 334.856771 133.710938 336.197917 129.765625 337.981771 124.309896 339.986979 118.710938 339.895833 118.619792zm0 0" transform="matrix(0.3,0,0,0.3,0,0)"/><path style="fill:none;stroke-width:1.9349;stroke-linecap:butt;stroke-linejoin:round;stroke:#6b18b5;stroke-opacity:1;stroke-miterlimit:4" d="M276.40625 180.3125C276.40625 180.3125 282.981771 189.414062 284.166667 194.635417 285.338542 199.869792 287.539062 210.143229 290.403646 214.361979 293.268229 218.567708 309.622396 242.005208 310.455729 251.783854 310.625 258.190104 303.710938 269.140625 293.4375 269.309896 287.03125 269.140625 270.507812 264.934896 269.830729 250.768229 269.166667 236.614583 274.895833 236.276042 275.572917 227.682292 276.236979 219.075521 276.40625 180.481771 276.40625 180.3125zm0 0" transform="matrix(0.3,0,0,0.3,0,0)"/><path style="fill:none;stroke-width:1;stroke-linecap:butt;stroke-linejoin:round;stroke:#6b18b5;stroke-opacity:1;stroke-miterlimit:4" d="M389.348958 56.367188C389.348958 56.367188 382.539062 56.848958 377.304688 59.6875 373.242188 62.1875 366.367188 65.794271 361.5625 72.460938 349.335938 81.979167 330.950521 86.432292 325.143229 94.348958 321.679688 99.726562 321.888021 112.682292 330.585938 118.164062 336.145833 121.354167 352.447917 126.341146 360.390625 114.583333 368.320312 102.838542 363.59375 99.570312 367.486979 91.875 373.90625 74.231771 389.257812 56.510417 389.348958 56.354167zm0 0" transform="matrix(0.3,0,0,0.3,0,0)"/><path style="fill:none;stroke-width:1;stroke-linecap:butt;stroke-linejoin:round;stroke:#6b18b5;stroke-opacity:1;stroke-miterlimit:4" d="M554.440104 39.166667C554.440104 39.166667 549.361979 34.609375 543.671875 32.825521 539.049479 31.653646 531.354167 32.161458 523.385417 31.380208 508.033854 29.231771 492.213542 18.125 482.486979 19.466146 476.210938 20.716146 467.044271 29.882812 469.153646 39.947917 470.742188 46.158854 477.682292 58.710938 491.640625 56.236979 505.598958 53.763021 505.481771 50.729167 513.710938 48.164062 533.802083 36.901042 554.270833 39.205729 554.440104 39.166667zm0 0" transform="matrix(0.3,0,0,0.3,0,0)"/><path style="fill:none;stroke-width:1;stroke-linecap:butt;stroke-linejoin:round;stroke:#6b18b5;stroke-opacity:1;stroke-miterlimit:4" d="M718.177083 198.294271C719.322917 195.677083 717.213542 190.755208 715.716146 184.986979 714.257812 180.442708 712.083333 173.398438 706.770833 167.135417 700.455729 152.981771 701.536458 133.567708 695.247396 126.041667 690.859375 121.380208 678.229167 118.476562 670.820312 125.598958 666.393229 130.234375 657.643229 144.856771 667.135417 155.377604 676.640625 165.898438 680.78125 161.940104 687.317708 167.565104 702.903646 178.033854 710.533854 196.380208 718.177083 198.294271zm0 0" transform="matrix(0.3,0,0,0.3,0,0)"/><path style="fill:none;stroke-width:1;stroke-linecap:butt;stroke-linejoin:round;stroke:#6b18b5;stroke-opacity:1;stroke-miterlimit:4" d="M712.591146 321.940104C714.713542 318.997396 718.528646 313.320312 718.072917 308.580729 717.721354 304.84375 719.791667 293.489583 720.013021 288.528646 721.432292 273.098958 731.09375 260.572917 728.463542 247.161458 726.901042 240.9375 717.799479 232.070312 707.851562 234.674479 701.71875 236.549479 688.085938 244.049479 691.236979 257.877604 694.375 271.692708 698.841146 271.471354 701.796875 279.570312 710.273438 296.315104 704.856771 316.210938 712.591146 321.940104zm0 0" transform="matrix(0.3,0,0,0.3,0,0)"/><path style="stroke:none;fill-rule:nonzero;fill:#6b18b5;fill-opacity:1" d="M147.539062 8.089844C147.539062 7.433594 146.804688 6.90625 145.898438 6.90625 144.992188 6.90625 144.257812 7.433594 144.257812 8.089844 144.257812 8.742188 144.992188 9.269531 145.898438 9.269531 146.804688 9.269531 147.539062 8.742188 147.539062 8.089844zm0 0"/><path style="stroke:none;fill-rule:nonzero;fill:#6b18b5;fill-opacity:1" d="M148.242188 10.839844C148.242188 10.214844 147.484375 9.707031 146.550781 9.707031 145.621094 9.707031 144.863281 10.214844 144.863281 10.839844 144.863281 11.464844 145.621094 11.972656 146.550781 11.972656 147.484375 11.972656 148.242188 11.464844 148.242188 10.839844zm0 0"/><path style="stroke:none;fill-rule:nonzero;fill:#6b18b5;fill-opacity:1" d="M150.34375 7.582031C150.34375 7.582031 148.410156 9.03125 149.207031 9.609375 150.003906 10.1875 152.199219 8.355469 152.199219 8.355469zm0 0"/><path style="stroke:none;fill-rule:nonzero;fill:#6b18b5;fill-opacity:1" d="M207.09375 40.738281C207.09375 40.328125 206.902344 39.949219 206.585938 39.742188 206.273438 39.535156 205.886719 39.535156 205.574219 39.742188 205.257812 39.949219 205.066406 40.328125 205.066406 40.738281 205.066406 41.152344 205.257812 41.53125 205.574219 41.738281 205.886719 41.945312 206.273438 41.945312 206.585938 41.738281 206.902344 41.53125 207.09375 41.152344 207.09375 40.738281zm0 0"/><path style="stroke:none;fill-rule:nonzero;fill:#6b18b5;fill-opacity:1" d="M206.359375 37.976562C206.359375 37.289062 205.882812 36.734375 205.300781 36.734375 204.714844 36.734375 204.238281 37.289062 204.238281 37.976562 204.238281 38.664062 204.714844 39.21875 205.300781 39.21875 205.882812 39.21875 206.359375 38.664062 206.359375 37.976562zm0 0"/><path style="stroke:none;fill-rule:nonzero;fill:#6b18b5;fill-opacity:1" d="M206.863281 43.597656C206.863281 43.238281 206.679688 42.953125 206.449219 42.953125 206.222656 42.953125 206.035156 43.238281 206.035156 43.597656 206.035156 43.953125 206.222656 44.242188 206.449219 44.242188 206.679688 44.242188 206.863281 43.953125 206.863281 43.597656zm0 0"/><path style="stroke:none;fill-rule:nonzero;fill:#6b18b5;fill-opacity:1" d="M208.570312 38.578125C208.570312 38.171875 208.382812 37.839844 208.15625 37.839844 207.925781 37.839844 207.738281 38.171875 207.738281 38.578125c0 .40625.1875.734375.41796899999999937.734375C208.382812 39.3125 208.570312 38.984375 208.570312 38.578125zm0 0"/><path style="stroke:none;fill-rule:nonzero;fill:#6b18b5;fill-opacity:1" d="M203.914062 39.085938C203.914062 38.753906 203.730469 38.484375 203.5 38.484375 203.273438 38.484375 203.085938 38.753906 203.085938 39.085938 203.085938 39.414062 203.273438 39.683594 203.5 39.683594 203.730469 39.683594 203.914062 39.414062 203.914062 39.085938zm0 0"/><path style="stroke:none;fill-rule:nonzero;fill:#6b18b5;fill-opacity:1" d="M204.652344 43.042969c0-.53125-.390625-.9648439999999994-.875-.9648439999999994C203.296875 42.078125 202.902344 42.511719 202.902344 43.042969c0 .5351560000000006.39453100000000063.96875.875.96875.484375.0.875-.43359399999999937.875-.96875zm0 0"/><path style="stroke:none;fill-rule:nonzero;fill:#6b18b5;fill-opacity:1" d="M202.351562 41.292969C202.351562 40.835938 202.019531 40.464844 201.613281 40.464844 201.207031 40.464844 200.875 40.835938 200.875 41.292969 200.875 41.75 201.207031 42.121094 201.613281 42.121094 202.019531 42.121094 202.351562 41.75 202.351562 41.292969zm0 0"/><path style="stroke:none;fill-rule:nonzero;fill:#6b18b5;fill-opacity:1" d="M201.984375 38.945312C201.984375 38.699219 201.863281 38.46875 201.660156 38.347656 201.460938 38.222656 201.214844 38.222656 201.015625 38.347656 200.816406 38.46875 200.695312 38.699219 200.695312 38.945312 200.695312 39.191406 200.816406 39.421875 201.015625 39.546875 201.214844 39.667969 201.460938 39.667969 201.660156 39.546875 201.863281 39.421875 201.984375 39.191406 201.984375 38.945312zm0 0"/><path style="stroke:none;fill-rule:nonzero;fill:#6b18b5;fill-opacity:1" d="M212.480469 50.886719C211.53125 49.628906 210.007812 49.101562 209.078125 49.703125 208.152344 50.308594 208.171875 51.8125 209.125 53.070312 210.074219 54.324219 211.597656 54.851562 212.523438 54.25 213.453125 53.648438 213.433594 52.140625 212.480469 50.886719zm0 0"/><path style="stroke:none;fill-rule:nonzero;fill:#6b18b5;fill-opacity:1" d="M215.183594 74.042969C215.367188 72.503906 214.617188 71.144531 213.507812 71.011719 212.394531 70.878906 211.34375 72.019531 211.160156 73.5625 210.976562 75.101562 211.726562 76.457031 212.839844 76.589844 213.949219 76.722656 215 75.582031 215.183594 74.042969zm0 0"/><path style="stroke:none;fill-rule:nonzero;fill:#6b18b5;fill-opacity:1" d="M215.753906 87.523438C216.070312 86.007812 215.4375 84.589844 214.34375 84.363281 213.25 84.132812 212.105469 85.179688 211.785156 86.699219 211.46875 88.214844 212.101562 89.632812 213.195312 89.859375 214.292969 90.089844 215.4375 89.042969 215.753906 87.523438zm0 0"/><path style="stroke:none;fill-rule:nonzero;fill:#6b18b5;fill-opacity:1" d="M218.351562 74.90625C218.351562 74.296875 217.941406 73.800781 217.429688 73.800781 216.921875 73.800781 216.511719 74.296875 216.511719 74.90625 216.511719 75.515625 216.921875 76.011719 217.429688 76.011719 217.941406 76.011719 218.351562 75.515625 218.351562 74.90625zm0 0"/><path style="stroke:none;fill-rule:nonzero;fill:#6b18b5;fill-opacity:1" d="M216.097656 77.4375 214.207031 79.582031C214.207031 79.582031 212.433594 79.625 212.527344 80.203125 212.621094 80.777344 214.96875 82.503906 214.945312 83.195312 214.921875 83.886719 216.511719 83.035156 216.511719 83.035156c0 0 1.265625-3.8476560000000006 1.265625-3.8710939999999994C217.777344 79.144531 217.707031 76.496094 217.015625 76.542969 216.328125 76.585938 216.140625 77.390625 216.097656 77.4375zm0 0"/><path style="stroke:none;fill-rule:nonzero;fill:#6b18b5;fill-opacity:1" d="M91.914062 76.59375C91.914062 76.097656 91.511719 75.695312 91.015625 75.695312 90.519531 75.695312 90.117188 76.097656 90.117188 76.59375 90.117188 77.089844 90.519531 77.492188 91.015625 77.492188 91.511719 77.492188 91.914062 77.089844 91.914062 76.59375zm0 0"/><path style="stroke:none;fill-rule:nonzero;fill:#6b18b5;fill-opacity:1" d="M92.761719 73.847656C92.761719 73.324219 92.359375 72.898438 91.863281 72.898438 91.367188 72.898438 90.964844 73.324219 90.964844 73.847656 90.964844 74.371094 91.367188 74.796875 91.863281 74.796875 92.359375 74.796875 92.761719 74.371094 92.761719 73.847656zm0 0"/><path style="stroke:none;fill-rule:nonzero;fill:#6b18b5;fill-opacity:1" d="M85.382812 60.789062C85.046875 60.035156 84.34375 59.613281 83.816406 59.847656 83.285156 60.085938 83.132812 60.886719 83.46875 61.644531 83.804688 62.398438 84.507812 62.820312 85.035156 62.582031 85.566406 62.347656 85.71875 61.542969 85.382812 60.789062zm0 0"/><path style="stroke:none;fill-rule:nonzero;fill:#6b18b5;fill-opacity:1" d="M87.613281 68.925781C87.148438 67.945312 86.183594 67.398438 85.457031 67.707031 84.730469 68.011719 84.519531 69.054688 84.980469 70.03125 85.445312 71.011719 86.410156 71.558594 87.136719 71.25 87.863281 70.945312 88.074219 69.902344 87.613281 68.925781zm0 0"/><path style="stroke:none;fill-rule:nonzero;fill:#6b18b5;fill-opacity:1" d="M89.996094 74.890625C90.148438 73.667969 89.640625 72.542969 88.867188 72.378906 88.089844 72.21875 87.339844 73.078125 87.191406 74.300781 87.039062 75.523438 87.546875 76.644531 88.320312 76.808594 89.097656 76.972656 89.847656 76.113281 89.996094 74.890625zm0 0"/><path style="stroke:none;fill-rule:nonzero;fill:#6b18b5;fill-opacity:1" d="M86.167969 75.761719C86.648438 74.628906 86.46875 73.40625 85.769531 73.039062 85.066406 72.671875 84.109375 73.289062 83.632812 74.425781 83.152344 75.5625 83.332031 76.78125 84.03125 77.148438 84.734375 77.519531 85.691406 76.898438 86.167969 75.761719zm0 0"/><path style="stroke:none;fill-rule:nonzero;fill:#6b18b5;fill-opacity:1" d="M84.425781 73.195312C84.425781 72.617188 83.980469 72.148438 83.425781 72.148438 82.875 72.148438 82.429688 72.617188 82.429688 73.195312 82.429688 73.777344 82.875 74.246094 83.425781 74.246094c.5546879999999987.0 1-.46875 1-1.050781999999998zm0 0"/><path style="stroke:none;fill-rule:nonzero;fill:#6b18b5;fill-opacity:1" d="M83.628906 70.601562C83.628906 70.078125 83.226562 69.652344 82.730469 69.652344 82.234375 69.652344 81.832031 70.078125 81.832031 70.601562 81.832031 71.125 82.234375 71.550781 82.730469 71.550781 83.226562 71.550781 83.628906 71.125 83.628906 70.601562zm0 0"/><path style="stroke:none;fill-rule:nonzero;fill:#6b18b5;fill-opacity:1" d="M84.472656 65.609375C84.472656 64.726562 84.082031 64.011719 83.601562 64.011719 83.117188 64.011719 82.726562 64.726562 82.726562 65.609375 82.726562 66.492188 83.117188 67.207031 83.601562 67.207031 84.082031 67.207031 84.472656 66.492188 84.472656 65.609375zm0 0"/><path style="stroke:none;fill-rule:nonzero;fill:#6b18b5;fill-opacity:1" d="M87.160156 65.226562C87.277344 64.351562 86.984375 63.589844 86.507812 63.527344 86.027344 63.464844 85.546875 64.121094 85.429688 64.996094 85.3125 65.871094 85.605469 66.628906 86.085938 66.695312 86.5625 66.757812 87.046875 66.101562 87.160156 65.226562zm0 0"/><path style="stroke:none;fill-rule:nonzero;fill:#6b18b5;fill-opacity:1" d="M106.316406 27.011719C106.671875 25.773438 106.304688 24.53125 105.496094 24.230469 104.6875 23.933594 103.742188 24.699219 103.386719 25.9375 103.03125 27.175781 103.398438 28.421875 104.207031 28.71875 105.015625 29.015625 105.960938 28.25 106.316406 27.011719zm0 0"/><path style="stroke:none;fill-rule:nonzero;fill:#6b18b5;fill-opacity:1" d="M102.679688 32.527344C103.746094 31.617188 104.203125 30.363281 103.699219 29.722656 103.195312 29.082031 101.921875 29.296875 100.851562 30.207031 99.785156 31.113281 99.332031 32.367188 99.835938 33.011719 100.339844 33.652344 101.613281 33.433594 102.679688 32.527344zm0 0"/><path style="stroke:none;fill-rule:nonzero;fill:#6b18b5;fill-opacity:1" d="M100.558594 29.464844C101.613281 28.6875 102.0625 27.609375 101.5625 27.058594 101.066406 26.507812 99.804688 26.691406 98.75 27.472656 97.695312 28.253906 97.242188 29.332031 97.742188 29.878906 98.242188 30.429688 99.5 30.246094 100.558594 29.464844zm0 0"/><path style="stroke:none;fill-rule:nonzero;fill:#6b18b5;fill-opacity:1" d="M108.738281 24.085938C109.449219 23.539062 109.753906 22.789062 109.417969 22.40625 109.082031 22.019531 108.230469 22.148438 107.519531 22.695312 106.808594 23.238281 106.503906 23.992188 106.839844 24.375 107.175781 24.757812 108.027344 24.628906 108.738281 24.085938zm0 0"/><path style="stroke:none;fill-rule:nonzero;fill:#6b18b5;fill-opacity:1" d="M104.476562 29.296875C104.960938 28.546875 104.996094 27.734375 104.546875 27.488281 104.101562 27.238281 103.34375 27.648438 102.859375 28.398438 102.371094 29.152344 102.339844 29.960938 102.785156 30.210938 103.230469 30.457031 103.988281 30.050781 104.476562 29.296875zm0 0"/><path style="stroke:none;fill-rule:nonzero;fill:#6b18b5;fill-opacity:1" d="M110.628906 26.074219C111.394531 25.429688 111.691406 24.578125 111.292969 24.167969 110.898438 23.757812 109.953125 23.949219 109.1875 24.59375 108.421875 25.238281 108.125 26.09375 108.523438 26.503906 108.921875 26.914062 109.863281 26.722656 110.628906 26.074219zm0 0"/><path style="stroke:none;fill-rule:nonzero;fill:#6b18b5;fill-opacity:1" d="M99.507812 33.589844C100.222656 33.554688 100.761719 33.199219 100.714844 32.796875 100.664062 32.390625 100.042969 32.09375 99.328125 32.128906 98.613281 32.164062 98.074219 32.519531 98.121094 32.925781 98.171875 33.328125 98.792969 33.625 99.507812 33.589844zm0 0"/><path style="stroke:none;fill-rule:nonzero;fill:#6b18b5;fill-opacity:1" d="M112.972656 22.082031C113.457031 21.328125 113.492188 20.519531 113.042969 20.269531 112.597656 20.023438 111.839844 20.433594 111.355469 21.183594 110.867188 21.9375 110.835938 22.746094 111.28125 22.996094 111.726562 23.242188 112.484375 22.832031 112.972656 22.082031zm0 0"/><path style="fill-rule:nonzero;fill:#ffd200;fill-opacity:1;stroke-width:1.934881;stroke-linecap:butt;stroke-linejoin:miter;stroke:#ef8a10;stroke-opacity:1;stroke-miterlimit:4" d="M553.242188 88.372396C553.242188 88.372396 565.820312 82.578125 569.414062 71.770833 573.007812 60.963542 558.528646 60.872396 556.614583 64.296875 554.700521 67.734375 558.242188 76.276042 557.330729 78.541667 556.419271 80.807292 551.302083 86.263021 553.242188 88.372396zm0 0" transform="matrix(0.3,0,0,0.3,0,0)"/><path style="fill-rule:nonzero;fill:#ffd200;fill-opacity:1;stroke-width:2.4186;stroke-linecap:butt;stroke-linejoin:miter;stroke:#ef8a10;stroke-opacity:1;stroke-miterlimit:4" d="M441.796875 92.317708C441.796875 92.317708 449.960938 81.132812 447.851562 69.947917 445.729167 58.763021 433.033854 65.716146 433.033854 69.635417 433.033854 73.567708 440.286458 79.309896 440.585938 81.731771 440.898438 84.153646 439.075521 91.40625 441.796875 92.317708zm0 0" transform="matrix(0.3,0,0,0.3,0,0)"/><path style="fill-rule:nonzero;fill:#ffd200;fill-opacity:1;stroke-width:2.4186;stroke-linecap:butt;stroke-linejoin:miter;stroke:#ef8a10;stroke-opacity:1;stroke-miterlimit:4" d="M419.726562 98.971354C419.726562 98.971354 427.890625 87.786458 425.78125 76.588542 423.658854 65.403646 410.963542 72.356771 410.963542 76.289062 410.963542 80.221354 418.216146 85.963542 418.515625 88.385417 418.828125 90.807292 417.005208 98.059896 419.726562 98.971354zm0 0" transform="matrix(0.3,0,0,0.3,0,0)"/><path style="fill-rule:nonzero;fill:#ffd200;fill-opacity:1;stroke-width:2.4186;stroke-linecap:butt;stroke-linejoin:miter;stroke:#ef8a10;stroke-opacity:1;stroke-miterlimit:4" d="M395.234375 106.536458C395.234375 106.536458 403.398438 95.338542 401.289062 84.153646 399.166667 72.96875 386.471354 79.921875 386.471354 83.854167 386.471354 87.786458 393.723958 93.528646 394.036458 95.950521 394.335938 98.372396 392.513021 105.625 395.234375 106.523438zm0 0" transform="matrix(0.3,0,0,0.3,0,0)"/><path style="fill-rule:nonzero;fill:#ffd200;fill-opacity:1;stroke-width:2.4186;stroke-linecap:butt;stroke-linejoin:miter;stroke:#ef8a10;stroke-opacity:1;stroke-miterlimit:4" d="M378.007812 123.763021C378.007812 123.763021 386.171875 112.578125 384.0625 101.393229 381.940104 90.208333 369.244792 97.161458 369.244792 101.080729 369.244792 105.013021 376.497396 110.755208 376.796875 113.177083 377.109375 115.598958 375.286458 122.851562 378.007812 123.763021zm0 0" transform="matrix(0.3,0,0,0.3,0,0)"/><path style="fill-rule:nonzero;fill:#ffd200;fill-opacity:1;stroke-width:2.4186;stroke-linecap:butt;stroke-linejoin:miter;stroke:#ef8a10;stroke-opacity:1;stroke-miterlimit:4" d="M359.869792 140.390625C359.869792 140.390625 368.033854 129.205729 365.911458 118.020833 363.802083 106.835938 351.106771 113.789062 351.106771 117.721354 351.106771 121.640625 358.359375 127.395833 358.658854 129.804688 358.958333 132.226562 357.148438 139.479167 359.869792 140.390625zm0 0" transform="matrix(0.3,0,0,0.3,0,0)"/><path style="fill-rule:nonzero;fill:#ffd200;fill-opacity:1;stroke-width:1.934881;stroke-linecap:butt;stroke-linejoin:miter;stroke:#ef8a10;stroke-opacity:1;stroke-miterlimit:4" d="M401.575521 43.515625C401.575521 43.515625 390.703125 52.096354 389.726562 63.4375 388.763021 74.778646 402.864583 71.497396 403.919271 67.721354 404.973958 63.932292 399.53125 56.445312 399.895833 54.036458 400.247396 51.627604 403.945312 45.130208 401.575521 43.515625zm0 0" transform="matrix(0.3,0,0,0.3,0,0)"/><path style="fill-rule:nonzero;fill:#ffd200;fill-opacity:1;stroke-width:1.934881;stroke-linecap:butt;stroke-linejoin:miter;stroke:#ef8a10;stroke-opacity:1;stroke-miterlimit:4" d="M437.851562 32.330729C437.851562 32.330729 426.979167 40.911458 426.015625 52.252604 425.039062 63.59375 439.140625 60.3125 440.195312 56.536458 441.25 52.747396 435.807292 45.260417 436.171875 42.851562 436.523438 40.442708 440.221354 33.932292 437.851562 32.330729zm0 0" transform="matrix(0.3,0,0,0.3,0,0)"/><path style="fill-rule:nonzero;fill:#ffd200;fill-opacity:1;stroke-width:1.934881;stroke-linecap:butt;stroke-linejoin:miter;stroke:#ef8a10;stroke-opacity:1;stroke-miterlimit:4" d="M302.65625 130.273438C302.65625 130.273438 304.960938 143.932292 314.440104 150.234375 323.919271 156.536458 327.8125 142.591146 325 139.84375 322.1875 137.096354 313.007812 138.268229 311.067708 136.796875 309.127604 135.325521 305.208333 128.958333 302.65625 130.273438zm0 0" transform="matrix(0.3,0,0,0.3,0,0)"/><path style="fill-rule:nonzero;fill:#ffd200;fill-opacity:1;stroke-width:1.934881;stroke-linecap:butt;stroke-linejoin:miter;stroke:#ef8a10;stroke-opacity:1;stroke-miterlimit:4" d="M284.544271 176.640625C284.544271 176.640625 284.648438 190.481771 293.020833 198.203125 301.380208 205.924479 307.434896 192.773438 305.091146 189.622396 302.747396 186.471354 293.502604 186.171875 291.822917 184.414062 290.130208 182.65625 287.265625 175.742188 284.544271 176.640625zm0 0" transform="matrix(0.3,0,0,0.3,0,0)"/><path style="fill-rule:nonzero;fill:#ffd200;fill-opacity:1;stroke-width:1.934881;stroke-linecap:butt;stroke-linejoin:miter;stroke:#ef8a10;stroke-opacity:1;stroke-miterlimit:4" d="M326.341146 228.4375C326.341146 228.4375 321.393229 215.507812 310.859375 211.197917 300.325521 206.875 299.244792 221.315104 302.539062 223.450521 305.846354 225.598958 314.609375 222.630208 316.809896 223.697917 318.997396 224.752604 324.101562 230.234375 326.341146 228.4375zm0 0" transform="matrix(0.3,0,0,0.3,0,0)"/><path style="fill-rule:nonzero;fill:#ffd200;fill-opacity:1;stroke-width:1.934881;stroke-linecap:butt;stroke-linejoin:miter;stroke:#ef8a10;stroke-opacity:1;stroke-miterlimit:4" d="M317.65625 206.054688C317.65625 206.054688 326.041667 195.026042 324.140625 183.802083 322.239583 172.578125 309.414062 179.283854 309.335938 183.203125 309.257812 187.135417 316.40625 193.020833 316.653646 195.442708 316.914062 197.877604 314.960938 205.091146 317.65625 206.054688zm0 0" transform="matrix(0.3,0,0,0.3,0,0)"/><path style="fill-rule:nonzero;fill:#ffd200;fill-opacity:1;stroke-width:1.934881;stroke-linecap:butt;stroke-linejoin:miter;stroke:#ef8a10;stroke-opacity:1;stroke-miterlimit:4" d="M578.945312 99.557292C578.945312 99.557292 591.510417 93.763021 595.104167 82.955729 598.697917 72.161458 584.231771 72.057292 582.317708 75.481771 580.403646 78.919271 583.945312 87.473958 583.033854 89.726562 582.122396 91.992188 577.005208 97.447917 578.945312 99.557292zm0 0" transform="matrix(0.3,0,0,0.3,0,0)"/><path style="fill-rule:nonzero;fill:#ffd200;fill-opacity:1;stroke-width:1.934881;stroke-linecap:butt;stroke-linejoin:miter;stroke:#ef8a10;stroke-opacity:1;stroke-miterlimit:4" d="M616.966146 118.528646C616.966146 118.528646 624.361979 106.822917 621.510417 95.807292 618.645833 84.778646 606.445312 92.565104 606.705729 96.497396 606.966146 100.416667 614.596354 105.664062 615.052083 108.059896 615.520833 110.442708 614.192708 117.8125 616.966146 118.528646zm0 0" transform="matrix(0.3,0,0,0.3,0,0)"/><path style="fill-rule:nonzero;fill:#ffd200;fill-opacity:1;stroke-width:1.934881;stroke-linecap:butt;stroke-linejoin:miter;stroke:#ef8a10;stroke-opacity:1;stroke-miterlimit:4" d="M720.742188 226.276042C720.742188 226.276042 715.78125 213.346354 705.234375 209.049479 694.700521 204.752604 693.632812 219.179688 696.940104 221.315104 700.234375 223.450521 708.997396 220.481771 711.197917 221.536458 713.398438 222.604167 718.502604 228.059896 720.742188 226.276042zm0 0" transform="matrix(0.3,0,0,0.3,0,0)"/><path style="fill-rule:nonzero;fill:#ffd200;fill-opacity:1;stroke-width:1.934881;stroke-linecap:butt;stroke-linejoin:miter;stroke:#ef8a10;stroke-opacity:1;stroke-miterlimit:4" d="M670 234.296875C670 234.296875 670.286458 220.455729 678.75 212.838542 687.213542 205.221354 693.098958 218.450521 690.716146 221.575521 688.333333 224.700521 679.088542 224.869792 677.369792 226.614583 675.664062 228.359375 672.708333 235.234375 670 234.296875zm0 0" transform="matrix(0.3,0,0,0.3,0,0)"/><path style="fill-rule:nonzero;fill:#ffd200;fill-opacity:1;stroke-width:1.934881;stroke-linecap:butt;stroke-linejoin:miter;stroke:#ef8a10;stroke-opacity:1;stroke-miterlimit:4" d="M661.835938 87.486979c0 0-12.955730000000017-4.921875-23.177084000000036.078125C628.424479 92.565104 638.489583 102.96875 642.278646 101.927083 646.067708 100.885417 649.6875 92.382812 651.940104 91.445312 654.192708 90.520833 661.679688 90.351562 661.835938 87.486979zm0 0" transform="matrix(0.3,0,0,0.3,0,0)"/><path style="fill-rule:nonzero;fill:#ffd200;fill-opacity:1;stroke-width:1.934881;stroke-linecap:butt;stroke-linejoin:miter;stroke:#ef8a10;stroke-opacity:1;stroke-miterlimit:4" d="M632.213542 62.695312C632.213542 62.695312 619.270833 57.773438 609.036458 62.773438 598.802083 67.773438 608.867188 78.177083 612.65625 77.135417 616.445312 76.106771 620.065104 67.591146 622.317708 66.653646 624.570312 65.729167 632.057292 65.559896 632.213542 62.695312zm0 0" transform="matrix(0.3,0,0,0.3,0,0)"/><path style="fill-rule:nonzero;fill:#ffd200;fill-opacity:1;stroke-width:1.934881;stroke-linecap:butt;stroke-linejoin:miter;stroke:#ef8a10;stroke-opacity:1;stroke-miterlimit:4" d="M588.020833 39.049479C588.020833 39.049479 577.044271 47.5 575.9375 58.828125 574.830729 70.15625 588.971354 67.044271 590.065104 63.28125 591.171875 59.505208 585.820312 51.953125 586.210938 49.544271 586.601562 47.135417 590.377604 40.690104 588.020833 39.049479zm0 0" transform="matrix(0.3,0,0,0.3,0,0)"/><path style="fill-rule:nonzero;fill:#ffd200;fill-opacity:1;stroke-width:1.934881;stroke-linecap:butt;stroke-linejoin:miter;stroke:#ef8a10;stroke-opacity:1;stroke-miterlimit:4" d="M559.270833 32.135417c0 0-5 12.903645000000004-.078125 23.177083000000003C564.114583 65.572917 574.596354 55.572917 573.580729 51.783854 572.565104 47.981771 564.075521 44.296875 563.164062 42.044271 562.252604 39.778646 562.135417 32.304688 559.270833 32.135417zm0 0" transform="matrix(0.3,0,0,0.3,0,0)"/><path style="fill-rule:nonzero;fill:#ffd200;fill-opacity:1;stroke-width:1.934881;stroke-linecap:butt;stroke-linejoin:miter;stroke:#ef8a10;stroke-opacity:1;stroke-miterlimit:4" d="M477.65625 81.888021C477.65625 81.888021 486.614583 71.328125 485.3125 60.013021 484.010417 48.697917 470.846354 54.713542 470.559896 58.632812 470.273438 62.552083 477.096354 68.815104 477.226562 71.25 477.34375 73.684896 475.013021 80.78125 477.65625 81.888021zm0 0" transform="matrix(0.3,0,0,0.3,0,0)"/><path style="fill-rule:nonzero;fill:#de2010;fill-opacity:1;stroke-width:2.38277;stroke-linecap:butt;stroke-linejoin:miter;stroke:#000;stroke-opacity:1;stroke-miterlimit:4" d="M701.614583 233.111979C701.119792 229.0625 699.166667 225.507812 696.497396 223.776042 693.841146 222.057292 690.872396 222.421875 688.710938 224.752604 686.549479 227.083333 685.546875 231.002604 686.054688 235.052083 686.549479 239.101562 688.502604 242.669271 691.171875 244.388021 693.828125 246.106771 696.796875 245.742188 698.958333 243.411458 701.119792 241.080729 702.135417 237.161458 701.614583 233.111979zm0 0" transform="matrix(0.3,0,0,0.3,0,0)"/><path style="fill-rule:nonzero;fill:#de2010;fill-opacity:1;stroke-width:2.38277;stroke-linecap:butt;stroke-linejoin:miter;stroke:#000;stroke-opacity:1;stroke-miterlimit:4" d="M699.947917 212.65625C699.453125 208.606771 697.5 205.052083 694.830729 203.333333 692.174479 201.601562 689.205729 201.979167 687.044271 204.296875 684.882812 206.627604 683.867188 210.559896 684.375 214.609375 684.882812 218.658854 686.835938 222.213542 689.492188 223.932292 692.161458 225.664062 695.130208 225.286458 697.291667 222.96875 699.440104 220.638021 700.455729 216.705729 699.947917 212.65625zm0 0" transform="matrix(0.3,0,0,0.3,0,0)"/><path style="fill-rule:nonzero;fill:#de2010;fill-opacity:1;stroke-width:2.38277;stroke-linecap:butt;stroke-linejoin:miter;stroke:#000;stroke-opacity:1;stroke-miterlimit:4" d="M695.794271 190.820312C694.947917 186.835938 692.682292 183.463542 689.882812 181.979167 687.083333 180.494792 684.153646 181.119792 682.213542 183.632812 680.260417 186.132812 679.596354 190.143229 680.455729 194.127604 681.315104 198.111979 683.567708 201.484375 686.380208 202.96875 689.179688 204.453125 692.109375 203.828125 694.049479 201.315104 696.002604 198.815104 696.666667 194.804688 695.794271 190.820312zm0 0" transform="matrix(0.3,0,0,0.3,0,0)"/><path style="fill-rule:nonzero;fill:#de2010;fill-opacity:1;stroke-width:2.38277;stroke-linecap:butt;stroke-linejoin:miter;stroke:#000;stroke-opacity:1;stroke-miterlimit:4" d="M688.229167 167.994792C686.380208 164.361979 683.346354 161.679688 680.247396 160.950521 677.161458 160.234375 674.492188 161.588542 673.255208 164.505208 672.018229 167.434896 672.395833 171.471354 674.244792 175.104167 676.080729 178.75 679.127604 181.432292 682.213542 182.148438 685.3125 182.877604 687.981771 181.523438 689.21875 178.59375 690.455729 175.677083 690.078125 171.640625 688.229167 167.994792zm0 0" transform="matrix(0.3,0,0,0.3,0,0)"/><path style="fill-rule:nonzero;fill:#de2010;fill-opacity:1;stroke-width:2.38277;stroke-linecap:butt;stroke-linejoin:miter;stroke:#000;stroke-opacity:1;stroke-miterlimit:4" d="M680.143229 149.6875C678.294271 146.054688 675.247396 143.359375 672.161458 142.643229 669.075521 141.927083 666.40625 143.28125 665.169271 146.197917 663.919271 149.127604 664.296875 153.164062 666.145833 156.796875 667.994792 160.442708 671.041667 163.125 674.127604 163.841146 677.213542 164.557292 679.882812 163.203125 681.132812 160.286458 682.369792 157.369792 681.992188 153.320312 680.143229 149.6875zm0 0" transform="matrix(0.3,0,0,0.3,0,0)"/><path style="fill-rule:nonzero;fill:#de2010;fill-opacity:1;stroke-width:2.38277;stroke-linecap:butt;stroke-linejoin:miter;stroke:#000;stroke-opacity:1;stroke-miterlimit:4" d="M668.645833 131.276042C666.497396 127.8125 663.229167 125.390625 660.091146 124.934896 656.953125 124.479167 654.414062 126.054688 653.424479 129.075521 652.434896 132.083333 653.151042 136.080729 655.299479 139.544271 657.447917 143.020833 660.703125 145.429688 663.854167 145.885417 666.992188 146.341146 669.53125 144.765625 670.520833 141.757812 671.510417 138.736979 670.794271 134.752604 668.645833 131.276042zm0 0" transform="matrix(0.3,0,0,0.3,0,0)"/><path style="fill-rule:nonzero;fill:#de2010;fill-opacity:1;stroke-width:2.38277;stroke-linecap:butt;stroke-linejoin:miter;stroke:#000;stroke-opacity:1;stroke-miterlimit:4" d="M655.846354 113.541667C653.372396 110.299479 649.895833 108.203125 646.731771 108.046875 643.567708 107.903646 641.184896 109.713542 640.494792 112.8125 639.791667 115.911458 640.898438 119.817708 643.372396 123.059896 645.846354 126.302083 649.322917 128.398438 652.486979 128.541667 655.664062 128.697917 658.046875 126.875 658.736979 123.789062 659.427083 120.690104 658.333333 116.783854 655.846354 113.541667zm0 0" transform="matrix(0.3,0,0,0.3,0,0)"/><path style="fill-rule:nonzero;fill:#de2010;fill-opacity:1;stroke-width:2.38277;stroke-linecap:butt;stroke-linejoin:miter;stroke:#000;stroke-opacity:1;stroke-miterlimit:4" d="M640.585938 96.992188C637.669271 94.140625 633.932292 92.578125 630.768229 92.890625 627.617188 93.203125 625.520833 95.338542 625.286458 98.502604 625.052083 101.666667 626.705729 105.377604 629.622396 108.216146 632.539062 111.080729 636.289062 112.643229 639.440104 112.330729 642.604167 112.018229 644.6875 109.882812 644.934896 106.71875 645.169271 103.554688 643.515625 99.84375 640.585938 96.992188zm0 0" transform="matrix(0.3,0,0,0.3,0,0)"/><path style="fill-rule:nonzero;fill:#de2010;fill-opacity:1;stroke-width:2.38277;stroke-linecap:butt;stroke-linejoin:miter;stroke:#000;stroke-opacity:1;stroke-miterlimit:4" d="M623.411458 81.770833C620.247396 79.205729 616.367188 77.981771 613.255208 78.59375 610.143229 79.192708 608.255208 81.510417 608.307292 84.6875 608.359375 87.851562 610.351562 91.393229 613.528646 93.958333 616.692708 96.536458 620.559896 97.747396 623.684896 97.148438 626.796875 96.549479 628.684896 94.231771 628.619792 91.054688 628.567708 87.877604 626.575521 84.348958 623.411458 81.770833zm0 0" transform="matrix(0.3,0,0,0.3,0,0)"/><path style="fill-rule:nonzero;fill:#de2010;fill-opacity:1;stroke-width:2.38277;stroke-linecap:butt;stroke-linejoin:miter;stroke:#000;stroke-opacity:1;stroke-miterlimit:4" d="M605.208333 69.622396C601.666667 67.617188 597.643229 67.057292 594.674479 68.164062 591.692708 69.283854 590.221354 71.888021 590.807292 75 591.380208 78.125 593.932292 81.276042 597.486979 83.28125 601.041667 85.299479 605.052083 85.859375 608.033854 84.739583 611.002604 83.632812 612.473958 81.028646 611.888021 77.916667 611.315104 74.791667 608.763021 71.627604 605.208333 69.622396zm0 0" transform="matrix(0.3,0,0,0.3,0,0)"/><path style="fill-rule:nonzero;fill:#de2010;fill-opacity:1;stroke-width:2.38277;stroke-linecap:butt;stroke-linejoin:miter;stroke:#000;stroke-opacity:1;stroke-miterlimit:4" d="M584.84375 58.841146C581.119792 57.161458 577.070312 56.979167 574.205729 58.346354 571.354167 59.726562 570.117188 62.460938 570.976562 65.507812 571.848958 68.567708 574.674479 71.471354 578.385417 73.151042 582.109375 74.830729 586.158854 75.013021 589.023438 73.645833 591.875 72.265625 593.111979 69.53125 592.252604 66.484375 591.380208 63.4375 588.554688 60.520833 584.84375 58.841146zm0 0" transform="matrix(0.3,0,0,0.3,0,0)"/><path style="fill-rule:nonzero;fill:#de2010;fill-opacity:1;stroke-width:2.38277;stroke-linecap:butt;stroke-linejoin:miter;stroke:#000;stroke-opacity:1;stroke-miterlimit:4" d="M564.856771 50.794271C561.041667 49.375 556.979167 49.453125 554.21875 51.015625 551.458333 52.578125 550.416667 55.390625 551.484375 58.372396 552.552083 61.367188 555.559896 64.088542 559.388021 65.507812 563.203125 66.927083 567.265625 66.848958 570.026042 65.286458 572.786458 63.723958 573.828125 60.911458 572.760417 57.929688 571.692708 54.934896 568.684896 52.213542 564.856771 50.794271zm0 0" transform="matrix(0.3,0,0,0.3,0,0)"/><path style="fill-rule:nonzero;fill:#de2010;fill-opacity:1;stroke-width:2.38277;stroke-linecap:butt;stroke-linejoin:miter;stroke:#000;stroke-opacity:1;stroke-miterlimit:4" d="M544.557292 44.427083C540.638021 43.294271 536.601562 43.697917 533.971354 45.455729 531.328125 47.226562 530.507812 50.104167 531.796875 53.007812 533.085938 55.911458 536.302083 58.385417 540.221354 59.505208 544.140625 60.638021 548.177083 60.247396 550.820312 58.476562 553.450521 56.705729 554.270833 53.828125 552.981771 50.9375 551.692708 48.033854 548.476562 45.559896 544.557292 44.427083zm0 0" transform="matrix(0.3,0,0,0.3,0,0)"/><path style="fill-rule:nonzero;fill:#de2010;fill-opacity:1;stroke-width:2.38277;stroke-linecap:butt;stroke-linejoin:miter;stroke:#000;stroke-opacity:1;stroke-miterlimit:4" d="M522.213542 40.625C518.164062 40.104167 514.231771 41.119792 511.901042 43.268229 509.570312 45.429688 509.192708 48.398438 510.924479 51.054688 512.643229 53.723958 516.197917 55.677083 520.247396 56.184896 524.296875 56.705729 528.229167 55.690104 530.559896 53.541667 532.877604 51.380208 533.255208 48.411458 531.536458 45.742188 529.817708 43.085938 526.263021 41.132812 522.213542 40.625zm0 0" transform="matrix(0.3,0,0,0.3,0,0)"/><path style="fill-rule:nonzero;fill:#de2010;fill-opacity:1;stroke-width:2.38277;stroke-linecap:butt;stroke-linejoin:miter;stroke:#000;stroke-opacity:1;stroke-miterlimit:4" d="M500.15625 39.375C496.067708 39.205729 492.239583 40.546875 490.104167 42.890625 487.96875 45.234375 487.851562 48.229167 489.791667 50.742188 491.731771 53.242188 495.442708 54.895833 499.518229 55.052083 503.59375 55.221354 507.421875 53.880208 509.570312 51.536458 511.705729 49.192708 511.822917 46.197917 509.882812 43.684896 507.942708 41.184896 504.231771 39.53125 500.15625 39.375zm0 0" transform="matrix(0.3,0,0,0.3,0,0)"/><path style="fill-rule:nonzero;fill:#de2010;fill-opacity:1;stroke-width:2.38277;stroke-linecap:butt;stroke-linejoin:miter;stroke:#000;stroke-opacity:1;stroke-miterlimit:4" d="M479.934896 40.091146C475.859375 39.921875 472.03125 41.263021 469.895833 43.606771 467.760417 45.950521 467.643229 48.945312 469.583333 51.458333 471.523438 53.958333 475.234375 55.611979 479.309896 55.768229 483.385417 55.9375 487.213542 54.596354 489.348958 52.252604 491.497396 49.908854 491.614583 46.914062 489.674479 44.401042 487.721354 41.888021 484.023438 40.247396 479.934896 40.091146zm0 0" transform="matrix(0.3,0,0,0.3,0,0)"/><path style="fill-rule:nonzero;fill:#de2010;fill-opacity:1;stroke-width:2.38277;stroke-linecap:butt;stroke-linejoin:miter;stroke:#000;stroke-opacity:1;stroke-miterlimit:4" d="M456.25 42.890625C452.265625 43.802083 448.932292 46.09375 447.473958 48.919271 446.028646 51.744792 446.692708 54.661458 449.231771 56.575521 451.757812 58.489583 455.768229 59.101562 459.752604 58.190104 463.723958 57.291667 467.070312 54.986979 468.515625 52.161458 469.973958 49.348958 469.296875 46.419271 466.770833 44.505208 464.231771 42.604167 460.221354 41.979167 456.25 42.890625zm0 0" transform="matrix(0.3,0,0,0.3,0,0)"/><path style="fill-rule:nonzero;fill:#de2010;fill-opacity:1;stroke-width:2.38277;stroke-linecap:butt;stroke-linejoin:miter;stroke:#000;stroke-opacity:1;stroke-miterlimit:4" d="M434.700521 48.294271C430.807292 49.53125 427.669271 52.096354 426.458333 55.026042 425.247396 57.955729 426.145833 60.807292 428.828125 62.513021 431.510417 64.205729 435.559896 64.492188 439.440104 63.255208 443.333333 62.018229 446.484375 59.453125 447.695312 56.523438 448.90625 53.59375 447.994792 50.742188 445.3125 49.036458 442.630208 47.34375 438.59375 47.057292 434.700521 48.294271zm0 0" transform="matrix(0.3,0,0,0.3,0,0)"/><path style="fill-rule:nonzero;fill:#de2010;fill-opacity:1;stroke-width:2.38277;stroke-linecap:butt;stroke-linejoin:miter;stroke:#000;stroke-opacity:1;stroke-miterlimit:4" d="M415.039062 56.71875C411.328125 58.398438 408.502604 61.328125 407.65625 64.375 406.796875 67.434896 408.046875 70.15625 410.898438 71.523438 413.763021 72.890625 417.825521 72.695312 421.536458 71.002604 425.247396 69.309896 428.059896 66.393229 428.919271 63.333333 429.765625 60.273438 428.528646 57.552083 425.664062 56.184896 422.799479 54.817708 418.75 55.026042 415.039062 56.71875zm0 0" transform="matrix(0.3,0,0,0.3,0,0)"/><path style="fill-rule:nonzero;fill:#de2010;fill-opacity:1;stroke-width:2.38277;stroke-linecap:butt;stroke-linejoin:miter;stroke:#000;stroke-opacity:1;stroke-miterlimit:4" d="M395.429688 66.770833C391.875 68.763021 389.309896 71.914062 388.723958 75.026042 388.138021 78.151042 389.609375 80.755208 392.578125 81.875 395.546875 82.994792 399.557292 82.447917 403.125 80.442708 406.679688 78.450521 409.231771 75.299479 409.817708 72.174479 410.416667 69.0625 408.945312 66.445312 405.976562 65.338542 403.007812 64.21875 398.984375 64.765625 395.429688 66.770833zm0 0" transform="matrix(0.3,0,0,0.3,0,0)"/><path style="fill-rule:nonzero;fill:#de2010;fill-opacity:1;stroke-width:2.38277;stroke-linecap:butt;stroke-linejoin:miter;stroke:#000;stroke-opacity:1;stroke-miterlimit:4" d="M376.875 79.348958C373.554688 81.71875 371.367188 85.130208 371.119792 88.294271 370.872396 91.458333 372.604167 93.893229 375.677083 94.674479 378.75 95.46875 382.695312 94.492188 386.015625 92.109375 389.335938 89.739583 391.523438 86.328125 391.770833 83.164062 392.018229 80 390.286458 77.565104 387.213542 76.783854 384.140625 75.989583 380.195312 76.966146 376.875 79.348958zm0 0" transform="matrix(0.3,0,0,0.3,0,0)"/><path style="fill-rule:nonzero;fill:#de2010;fill-opacity:1;stroke-width:2.38277;stroke-linecap:butt;stroke-linejoin:miter;stroke:#000;stroke-opacity:1;stroke-miterlimit:4" d="M359.713542 92.356771C356.601562 95 354.700521 98.580729 354.726562 101.757812 354.739583 104.934896 356.679688 107.213542 359.817708 107.734375 362.942708 108.255208 366.783854 106.953125 369.882812 104.296875 372.994792 101.653646 374.895833 98.072917 374.869792 94.895833 374.856771 91.731771 372.916667 89.453125 369.778646 88.919271 366.653646 88.398438 362.8125 89.713542 359.713542 92.356771zm0 0" transform="matrix(0.3,0,0,0.3,0,0)"/><path style="fill-rule:nonzero;fill:#de2010;fill-opacity:1;stroke-width:2.38277;stroke-linecap:butt;stroke-linejoin:miter;stroke:#000;stroke-opacity:1;stroke-miterlimit:4" d="M344.557292 108.190104C341.653646 111.054688 340.013021 114.765625 340.260417 117.929688 340.507812 121.09375 342.604167 123.216146 345.768229 123.515625 348.919271 123.815104 352.65625 122.239583 355.572917 119.375 358.476562 116.510417 360.117188 112.799479 359.869792 109.635417 359.622396 106.471354 357.526042 104.335938 354.361979 104.049479 351.197917 103.75 347.460938 105.325521 344.557292 108.190104zm0 0" transform="matrix(0.3,0,0,0.3,0,0)"/><path style="fill-rule:nonzero;fill:#de2010;fill-opacity:1;stroke-width:2.38277;stroke-linecap:butt;stroke-linejoin:miter;stroke:#000;stroke-opacity:1;stroke-miterlimit:4" d="M331.510417 125.794271C328.854167 128.880208 327.526042 132.721354 328.033854 135.846354 328.554688 138.984375 330.820312 140.9375 333.997396 140.963542 337.161458 141.002604 340.755208 139.114583 343.411458 136.015625 346.080729 132.916667 347.395833 129.088542 346.888021 125.950521 346.367188 122.825521 344.101562 120.872396 340.924479 120.833333 337.760417 120.807292 334.166667 122.695312 331.510417 125.794271zm0 0" transform="matrix(0.3,0,0,0.3,0,0)"/><path style="fill-rule:nonzero;fill:#de2010;fill-opacity:1;stroke-width:2.38277;stroke-linecap:butt;stroke-linejoin:miter;stroke:#000;stroke-opacity:1;stroke-miterlimit:4" d="M319.583333 143.815104C317.265625 147.174479 316.354167 151.119792 317.200521 154.179688 318.046875 157.239583 320.507812 158.932292 323.671875 158.632812 326.822917 158.333333 330.195312 156.067708 332.5 152.708333 334.817708 149.348958 335.729167 145.390625 334.882812 142.330729 334.036458 139.270833 331.575521 137.578125 328.411458 137.877604 325.260417 138.190104 321.888021 140.442708 319.583333 143.815104zm0 0" transform="matrix(0.3,0,0,0.3,0,0)"/><path style="fill-rule:nonzero;fill:#de2010;fill-opacity:1;stroke-width:2.38277;stroke-linecap:butt;stroke-linejoin:miter;stroke:#000;stroke-opacity:1;stroke-miterlimit:4" d="M309.635417 164.244792C307.929688 167.942708 307.721354 172.005208 309.075521 174.869792 310.429688 177.734375 313.151042 178.984375 316.210938 178.138021 319.270833 177.291667 322.200521 174.492188 323.90625 170.78125 325.611979 167.070312 325.820312 163.020833 324.466146 160.15625 323.111979 157.291667 320.390625 156.041667 317.330729 156.875 314.270833 157.721354 311.341146 160.533854 309.635417 164.244792zm0 0" transform="matrix(0.3,0,0,0.3,0,0)"/><path style="fill-rule:nonzero;fill:#de2010;fill-opacity:1;stroke-width:2.38277;stroke-linecap:butt;stroke-linejoin:miter;stroke:#000;stroke-opacity:1;stroke-miterlimit:4" d="M301.770833 185.585938C300.403646 189.440104 300.559896 193.489583 302.174479 196.223958 303.789062 198.958333 306.601562 199.960938 309.583333 198.841146 312.552083 197.721354 315.208333 194.661458 316.5625 190.807292 317.929688 186.966146 317.773438 182.916667 316.158854 180.182292 314.557292 177.447917 311.731771 176.445312 308.763021 177.565104 305.794271 178.684896 303.125 181.744792 301.770833 185.585938zm0 0" transform="matrix(0.3,0,0,0.3,0,0)"/><path style="fill-rule:nonzero;fill:#de2010;fill-opacity:1;stroke-width:2.1334;stroke-linecap:butt;stroke-linejoin:miter;stroke:#000;stroke-opacity:1;stroke-miterlimit:4" d="M294.934896 226.015625C294.557292 229.270833 295.703125 232.382812 297.929688 234.192708 300.15625 236.002604 303.138021 236.223958 305.742188 234.778646 308.359375 233.333333 310.195312 230.429688 310.559896 227.174479 310.950521 223.919271 309.804688 220.794271 307.578125 218.984375 305.338542 217.174479 302.369792 216.953125 299.752604 218.398438 297.148438 219.856771 295.3125 222.747396 294.934896 226.015625zm0 0" transform="matrix(0.3,0,0,0.3,0,0)"/><path style="fill-rule:nonzero;fill:#de2010;fill-opacity:1;stroke-width:2.38277;stroke-linecap:butt;stroke-linejoin:miter;stroke:#000;stroke-opacity:1;stroke-miterlimit:4" d="M296.757812 207.135417C295.846354 211.119792 296.471354 215.130208 298.385417 217.65625 300.299479 220.182292 303.216146 220.859375 306.041667 219.401042 308.854167 217.955729 311.158854 214.609375 312.057292 210.625 312.96875 206.653646 312.34375 202.643229 310.429688 200.104167 308.515625 197.578125 305.598958 196.914062 302.786458 198.359375 299.960938 199.817708 297.669271 203.164062 296.757812 207.135417zm0 0" transform="matrix(0.3,0,0,0.3,0,0)"/><path style="stroke:none;fill-rule:nonzero;fill:#ffe300;fill-opacity:1" d="M205.597656 59.242188C206.34375 58.441406 207.039062 58.21875 207.917969 58.507812 207.605469 56.402344 206.941406 55.6875 206.128906 55.941406 205.316406 56.195312 204.949219 57.277344 205.597656 59.242188zm0 0"/><path style="stroke:none;fill-rule:nonzero;fill:#ffe300;fill-opacity:1" d="M206.738281 65.597656C207.542969 64.859375 208.25 64.683594 209.105469 65.042969 208.953125 62.917969 208.34375 62.15625 207.515625 62.347656 206.6875 62.539062 206.238281 63.589844 206.738281 65.597656zm0 0"/><path style="stroke:none;fill-rule:nonzero;fill:#ffe300;fill-opacity:1" d="M204.042969 53.441406C204.558594 52.480469 205.175781 52.085938 206.097656 52.144531 205.261719 50.1875 204.4375 49.664062 203.714844 50.117188 202.996094 50.566406 202.914062 51.707031 204.042969 53.441406zm0 0"/><path style="stroke:none;fill-rule:nonzero;fill:#ffe300;fill-opacity:1" d="M201.214844 47.65625C201.730469 46.695312 202.34375 46.300781 203.269531 46.359375 202.433594 44.402344 201.609375 43.878906 200.886719 44.332031 200.167969 44.785156 200.085938 45.925781 201.214844 47.65625zm0 0"/><path style="stroke:none;fill-rule:nonzero;fill:#ffe300;fill-opacity:1" d="M194.429688 37.0625C194.789062 36.03125 195.328125 35.542969 196.25 35.453125 195.113281 33.652344 194.210938 33.269531 193.574219 33.832031 192.933594 34.394531 193.039062 35.53125 194.429688 37.0625zm0 0"/><path style="stroke:none;fill-rule:nonzero;fill:#ffe300;fill-opacity:1" d="M189.996094 32.445312C190.3125 31.398438 190.835938 30.890625 191.753906 30.765625 190.546875 29.011719 189.636719 28.664062 189.019531 29.25 188.402344 29.835938 188.546875 30.96875 189.996094 32.445312zm0 0"/><path style="stroke:none;fill-rule:nonzero;fill:#ffe300;fill-opacity:1" d="M180.679688 24.582031C180.660156 23.488281 181 22.84375 181.832031 22.441406 180.144531 21.144531 179.171875 21.09375 178.765625 21.839844 178.355469 22.589844 178.847656 23.621094 180.679688 24.582031zm0 0"/><path style="stroke:none;fill-rule:nonzero;fill:#ffe300;fill-opacity:1" d="M185.527344 28.21875C185.695312 27.136719 186.144531 26.5625 187.035156 26.3125 185.597656 24.742188 184.644531 24.523438 184.113281 25.1875 183.585938 25.851562 183.886719 26.957031 185.527344 28.21875zm0 0"/><path style="stroke:none;fill-rule:nonzero;fill:#ffe300;fill-opacity:1" d="M175.144531 21.527344C175.011719 20.441406 175.285156 19.765625 176.070312 19.28125 174.257812 18.164062 173.285156 18.214844 172.957031 19 172.628906 19.785156 173.222656 20.761719 175.144531 21.527344zm0 0"/><path style="stroke:none;fill-rule:nonzero;fill:#ffe300;fill-opacity:1" d="M169.488281 19.058594C169.203125 18.003906 169.375 17.296875 170.085938 16.703125 168.132812 15.855469 167.175781 16.046875 166.960938 16.871094 166.75 17.695312 167.476562 18.578125 169.488281 19.058594zm0 0"/><path style="stroke:none;fill-rule:nonzero;fill:#ffe300;fill-opacity:1" d="M163.394531 17.171875C163.019531 16.144531 163.132812 15.421875 163.789062 14.773438 161.773438 14.09375 160.835938 14.367188 160.691406 15.203125 160.550781 16.042969 161.351562 16.859375 163.394531 17.171875zm0 0"/><path style="stroke:none;fill-rule:nonzero;fill:#ffe300;fill-opacity:1" d="M157.410156 16.011719C156.960938 15.015625 157.023438 14.289062 157.632812 13.589844 155.570312 13.0625 154.652344 13.398438 154.574219 14.246094 154.492188 15.09375 155.347656 15.851562 157.410156 16.011719zm0 0"/><path style="stroke:none;fill-rule:nonzero;fill:#ffe300;fill-opacity:1" d="M151.070312 15.527344C150.523438 14.582031 150.507812 13.851562 151.039062 13.097656 148.933594 12.78125 148.058594 13.214844 148.066406 14.0625 148.074219 14.914062 149.003906 15.578125 151.070312 15.527344zm0 0"/><path style="stroke:none;fill-rule:nonzero;fill:#ffe300;fill-opacity:1" d="M138.664062 16.460938C137.902344 15.675781 137.710938 14.972656 138.046875 14.109375 135.929688 14.3125 135.183594 14.941406 135.394531 15.765625 135.605469 16.589844 136.667969 17.011719 138.664062 16.460938zm0 0"/><path style="stroke:none;fill-rule:nonzero;fill:#ffe300;fill-opacity:1" d="M144.769531 15.65625C144.125 14.777344 144.03125 14.054688 144.480469 13.242188 142.351562 13.160156 141.527344 13.679688 141.625 14.527344 141.726562 15.371094 142.722656 15.933594 144.769531 15.65625zm0 0"/><path style="stroke:none;fill-rule:nonzero;fill:#ffe300;fill-opacity:1" d="M132.667969 17.753906C131.804688 17.085938 131.515625 16.417969 131.722656 15.515625 129.65625 16.023438 129.007812 16.753906 129.335938 17.535156 129.664062 18.320312 130.773438 18.585938 132.667969 17.753906zm0 0"/><path style="stroke:none;fill-rule:nonzero;fill:#ffe300;fill-opacity:1" d="M121.195312 23.03125C120.21875 22.539062 119.808594 21.9375 119.839844 21.015625 117.90625 21.902344 117.40625 22.742188 117.878906 23.449219 118.351562 24.160156 119.492188 24.207031 121.195312 23.03125zm0 0"/><path style="stroke:none;fill-rule:nonzero;fill:#ffe300;fill-opacity:1" d="M126.726562 20.203125C125.816406 19.597656 125.480469 18.949219 125.625 18.039062 123.597656 18.683594 123.003906 19.460938 123.382812 20.21875 123.765625 20.976562 124.894531 21.164062 126.726562 20.203125zm0 0"/><path style="stroke:none;fill-rule:nonzero;fill:#ffe300;fill-opacity:1" d="M110.902344 30.199219C109.84375 29.921875 109.316406 29.417969 109.15625 28.507812 107.449219 29.78125 107.136719 30.707031 107.746094 31.300781 108.355469 31.894531 109.480469 31.703125 110.902344 30.199219zm0 0"/><path style="stroke:none;fill-rule:nonzero;fill:#ffe300;fill-opacity:1" d="M115.8125 26.179688C114.78125 25.820312 114.292969 25.277344 114.203125 24.355469 112.402344 25.492188 112.019531 26.390625 112.582031 27.03125 113.140625 27.667969 114.28125 27.566406 115.8125 26.179688zm0 0"/><path style="stroke:none;fill-rule:nonzero;fill:#ffe300;fill-opacity:1" d="M106.539062 34.496094C105.460938 34.316406 104.890625 33.863281 104.648438 32.972656 103.0625 34.394531 102.835938 35.34375 103.496094 35.878906 104.15625 36.417969 105.261719 36.125 106.539062 34.496094zm0 0"/><path style="stroke:none;fill-rule:nonzero;fill:#ffe300;fill-opacity:1" d="M102.628906 39.570312C101.539062 39.488281 100.925781 39.089844 100.605469 38.222656 99.15625 39.78125 99.015625 40.75 99.722656 41.222656 100.429688 41.699219 101.503906 41.304688 102.628906 39.570312zm0 0"/><path style="stroke:none;fill-rule:nonzero;fill:#ffe300;fill-opacity:1" d="M99.355469 44.761719C98.269531 44.847656 97.605469 44.546875 97.152344 43.738281 95.960938 45.5 95.96875 46.480469 96.742188 46.839844 97.511719 47.199219 98.511719 46.648438 99.355469 44.761719zm0 0"/><path style="stroke:none;fill-rule:nonzero;fill:#ffe300;fill-opacity:1" d="M96.484375 50.300781C95.414062 50.527344 94.714844 50.316406 94.164062 49.574219 93.210938 51.476562 93.347656 52.445312 94.160156 52.703125 94.96875 52.957031 95.890625 52.28125 96.484375 50.300781zm0 0"/><path style="stroke:none;fill-rule:nonzero;fill:#ffe300;fill-opacity:1" d="M94.183594 55.984375C93.167969 56.378906 92.441406 56.28125 91.78125 55.636719 91.140625 57.664062 91.429688 58.597656 92.269531 58.726562 93.113281 58.851562 93.914062 58.035156 94.183594 55.984375zm0 0"/><path style="stroke:none;fill-rule:nonzero;fill:#ffe300;fill-opacity:1" d="M92.644531 62.324219C91.65625 62.785156 90.929688 62.734375 90.222656 62.136719 89.722656 64.203125 90.070312 65.117188 90.917969 65.1875 91.765625 65.253906 92.511719 64.386719 92.644531 62.324219zm0 0"/><path style="stroke:none;fill-rule:nonzero;fill:#ffe300;fill-opacity:1" d="M92.019531 67.597656C91.085938 68.09375 90.359375 68.152344 89.597656 67.777344 89.320312 69.464844 89.765625 70.128906 90.613281 70.070312 91.460938 70.007812 92.105469 69.230469 92.019531 67.597656zm0 0"/><path style="stroke:none;fill-rule:nonzero;fill:#ffe300;fill-opacity:1" d="M198.691406 42.503906C199.0625 41.476562 199.613281 40.996094 200.535156 40.921875 199.421875 39.105469 198.53125 38.710938 197.882812 39.261719 197.234375 39.8125 197.324219 40.953125 198.691406 42.503906zm0 0"/><path style="stroke:none;fill-rule:nonzero;fill:#ffe300;fill-opacity:1" d="M207.433594 72.035156C208.238281 71.296875 208.949219 71.125 209.800781 71.480469 209.652344 69.355469 209.039062 68.59375 208.210938 68.785156 207.382812 68.976562 206.933594 70.027344 207.433594 72.035156zm0 0"/><path style="fill-rule:nonzero;fill:#ffd200;fill-opacity:1;stroke-width:1.008;stroke-linecap:butt;stroke-linejoin:miter;stroke:#ef8a10;stroke-opacity:1;stroke-miterlimit:4" d="M646.901042 149.661458C646.901042 149.661458 654.296875 137.955729 651.432292 126.940104 648.580729 115.911458 636.367188 123.697917 636.640625 127.617188 636.901042 131.549479 644.518229 136.796875 644.986979 139.179688 645.442708 141.575521 644.127604 148.932292 646.901042 149.661458zm0 0" transform="matrix(0.3,0,0,0.3,0,0)"/><path style="fill-rule:nonzero;fill:#217900;fill-opacity:1;stroke-width:1.9349;stroke-linecap:butt;stroke-linejoin:round;stroke:#000;stroke-opacity:1;stroke-miterlimit:4" d="M663.671875 124.921875C663.580729 124.921875 655.651042 132.851562 657.03125 142.513021 658.411458 152.174479 664.53125 164.075521 663.411458 174.088542 662.291667 184.088542 660.481771 190.729167 660.481771 190.729167 660.481771 190.729167 669.791667 180.117188 669.882812 169.947917 669.960938 159.765625 663.502604 146.393229 663.502604 138.893229 663.502604 131.393229 663.841146 124.752604 663.671875 124.921875zm0 0" transform="matrix(0.3,0,0,0.3,0,0)"/><path style="fill-rule:nonzero;fill:#217900;fill-opacity:1;stroke-width:1.9349;stroke-linecap:butt;stroke-linejoin:round;stroke:#000;stroke-opacity:1;stroke-miterlimit:4" d="M678.424479 157.34375C678.424479 157.34375 672.213542 161.927083 672.8125 172.447917 673.411458 182.96875 684.283854 202.291667 684.283854 202.291667 684.283854 202.291667 692.226562 218.59375 691.966146 222.8125 691.705729 227.044271 693.424479 218.763021 692.65625 209.453125 691.875 200.130208 679.882812 179.609375 679.882812 179.609375 679.882812 179.609375 677.304688 175.377604 677.552083 168.398438 677.8125 161.40625 678.502604 157.434896 678.424479 157.356771zm0 0" transform="matrix(0.3,0,0,0.3,0,0)"/><path style="fill-rule:nonzero;fill:#217900;fill-opacity:1;stroke-width:2.4186;stroke-linecap:butt;stroke-linejoin:round;stroke:#000;stroke-opacity:1;stroke-miterlimit:4" d="M505.651042 52.291667C505.651042 52.291667 532.304688 53.333333 532.473958 70.572917 532.382812 73.255208 532.473958 76.445312 531.523438 84.114583 536.783854 81.276042 540.325521 73.333333 539.635417 68.255208 539.726562 50.742188 515.833333 38.75 505.651042 52.291667zm0 0" transform="matrix(0.3,0,0,0.3,0,0)"/><path style="fill-rule:nonzero;fill:#217900;fill-opacity:1;stroke-width:2.4186;stroke-linecap:butt;stroke-linejoin:round;stroke:#000;stroke-opacity:1;stroke-miterlimit:4" d="M488.75 51.523438C488.75 51.523438 510.221354 47.03125 510.403646 64.283854 510.572917 81.536458 503.580729 84.296875 503.580729 84.296875c0 0 16.484375-3.541667000000004 16.5625-21.054687C520.234375 45.742188 498.932292 37.981771 488.75 51.523438zm0 0" transform="matrix(0.3,0,0,0.3,0,0)"/><path style="fill-rule:nonzero;fill:#217900;fill-opacity:1;stroke-width:2.4186;stroke-linecap:butt;stroke-linejoin:round;stroke:#000;stroke-opacity:1;stroke-miterlimit:4" d="M697.382812 249.192708C697.877604 256.927083 705.442708 264.335938 702.486979 277.838542 698.697917 293.151042 685.364583 329.544271 687.669271 335.963542 683.710938 330.533854 684.375 325.429688 684.036458 317.851562 683.710938 310.286458 695.078125 282.122396 696.067708 272.578125 696.067708 264.010417 696.888021 252.317708 697.382812 249.192708zm0 0" transform="matrix(0.3,0,0,0.3,0,0)"/><path style="fill-rule:nonzero;fill:#217900;fill-opacity:1;stroke-width:2.4186;stroke-linecap:butt;stroke-linejoin:round;stroke:#000;stroke-opacity:1;stroke-miterlimit:4" d="M697.382812 249.361979C697.382812 249.361979 709.726562 265 709.075521 277.356771 708.411458 289.700521 701.497396 304.192708 703.802083 310.611979 699.84375 305.182292 698.867188 301.71875 698.528646 294.153646 698.203125 286.575521 704.622396 278.177083 703.307292 269.947917 701.992188 261.705729 697.213542 249.361979 697.382812 249.361979zm0 0" transform="matrix(0.3,0,0,0.3,0,0)"/><path style="fill-rule:nonzero;fill:#217900;fill-opacity:1;stroke-width:2.4186;stroke-linecap:butt;stroke-linejoin:round;stroke:#000;stroke-opacity:1;stroke-miterlimit:4" d="M292.825521 252.8125C292.330729 260.546875 286.5625 267.460938 289.53125 280.963542 293.307292 296.276042 306.809896 315.716146 304.674479 337.942708 308.632812 332.513021 309.778646 326.419271 310.104167 318.841146 310.442708 311.263021 295.130208 285.742188 294.140625 276.197917 294.140625 267.630208 293.307292 255.9375 292.825521 252.8125zm0 0" transform="matrix(0.3,0,0,0.3,0,0)"/><path style="fill-rule:nonzero;fill:#217900;fill-opacity:1;stroke-width:2.4186;stroke-linecap:butt;stroke-linejoin:round;stroke:#000;stroke-opacity:1;stroke-miterlimit:4" d="M292.825521 252.981771C292.825521 252.981771 280.794271 268.125 281.458333 280.481771 281.627604 288.710938 296.770833 323.125 294.466146 329.544271 298.424479 324.114583 299.570312 324.778646 299.401042 316.536458 294.960938 295.46875 287.057292 281.966146 288.372396 273.723958 289.6875 265.494792 292.981771 252.981771 292.825521 252.981771zm0 0" transform="matrix(0.3,0,0,0.3,0,0)"/><path style="fill-rule:nonzero;fill:#8c8a8c;fill-opacity:1;stroke-width:1.9349;stroke-linecap:butt;stroke-linejoin:miter;stroke:#000;stroke-opacity:1;stroke-miterlimit:4" d="M526.380208 104.557292C526.380208 104.557292 547.838542 105.911458 548.893229 118.216146 549.934896 130.520833 543.789062 138.020833 543.789062 138.020833 543.789062 138.020833 546.484375 164.583333 525.481771 172.382812 502.96875 175.078125 467.708333 172.981771 467.708333 172.981771 467.708333 172.981771 457.356771 175.533854 453.151042 154.075521 448.958333 132.617188 447.760417 117.460938 447.760417 117.460938 447.760417 117.460938 449.856771 105.455729 465.013021 104.713542 480.169271 103.958333 526.236979 104.856771 526.380208 104.557292zm0 0" transform="matrix(0.3,0,0,0.3,0,0)"/><path style="fill:none;stroke-width:1.9349;stroke-linecap:round;stroke-linejoin:miter;stroke:#000;stroke-opacity:1;stroke-miterlimit:4" d="M543.632812 137.864583C543.632812 137.864583 532.070312 152.278646 533.28125 158.125" transform="matrix(0.3,0,0,0.3,0,0)"/><path style="fill-rule:nonzero;fill:#8c8a8c;fill-opacity:1;stroke-width:1.9349;stroke-linecap:butt;stroke-linejoin:miter;stroke:#000;stroke-opacity:1;stroke-miterlimit:4" d="M528.177083 171.627604C531.028646 174.036458 533.736979 176.731771 534.335938 185.585938 534.934896 194.440104 535.533854 203.294271 535.533854 203.294271l15 135.052083L563.736979 436.028646 564.635417 451.184896C564.635417 451.184896 561.484375 462.278646 552.643229 463.177083 546.184896 476.692708 511.223958 480.585938 507.773438 480.442708 504.622396 480.286458 493.515625 475.638021 486.770833 476.236979 480.013021 476.835938 468.307292 481.341146 463.059896 480.585938 457.8125 479.84375 445.950521 475.78125 443.854167 467.239583 429.140625 462.578125 426.744792 451.328125 426.744792 451.328125L442.65625 338.346354 458.111979 195.494792c0 0 1.796875-19.0625 9.453125-21.914063C475.507812 172.838542 516.627604 174.335938 528.177083 171.627604zm0 0" transform="matrix(0.3,0,0,0.3,0,0)"/><path style="fill:none;stroke-width:1.9349;stroke-linecap:butt;stroke-linejoin:miter;stroke:#000;stroke-opacity:1;stroke-miterlimit:4" d="M447.148438 367.148438 443.997396 467.083333" transform="matrix(0.3,0,0,0.3,0,0)"/><path style="fill:none;stroke-width:1.9349;stroke-linecap:butt;stroke-linejoin:miter;stroke:#000;stroke-opacity:1;stroke-miterlimit:4" d="M544.231771 380.351562 553.085938 462.734375" transform="matrix(0.3,0,0,0.3,0,0)"/><path style="fill-rule:nonzero;fill:#fff;fill-opacity:1;stroke-width:2.0159;stroke-linecap:butt;stroke-linejoin:round;stroke:#000;stroke-opacity:1;stroke-miterlimit:4" d="M498.190104 114.453125 528.111979 206.549479H624.934896L546.601562 263.463542 576.523438 355.559896 498.190104 298.645833 419.856771 355.559896 449.778646 263.463542 371.445312 206.549479 468.268229 206.536458zm0 0" transform="matrix(0.3,0,0,0.3,0,0)"/></g></svg>