<svg xmlns="http://www.w3.org/2000/svg" xmlns:xlink="http://www.w3.org/1999/xlink" width="160pt" height="150pt" viewBox="0 0 160 150"><g id="surface1"><path d="M0 0h160v150H0z" style="fill:#fec500;fill-opacity:1;stroke:none"/><path style="stroke:none;fill-rule:evenodd;fill:#fff;fill-opacity:1" d="M0 5.359375H154.8125V144.660156H0zm0 0"/><path style="fill-rule:evenodd;fill:#003271;fill-opacity:1;stroke-width:.340919;stroke-linecap:butt;stroke-linejoin:miter;stroke:#fff;stroke-opacity:1;stroke-miterlimit:4" d="M224.615147 292.17462C224.615147 292.17462 231.546604 300.100994 234.52249 301.590858 237.49101 303.073384 251.854815 310.999757 251.854815 310.999757L251.36129 322.39025C251.36129 322.39025 242.94189 320.408657 233.528072 314.962944 224.121621 309.517232 215.694855 300.600062 215.694855 300.600062L225.602198 301.09179zm0 0" transform="matrix(0.530304,0,0,0.532242,-64.739372,-62.171704)"/><path style="fill-rule:evenodd;fill:#003271;fill-opacity:1;stroke-width:.340919;stroke-linecap:butt;stroke-linejoin:miter;stroke:#fff;stroke-opacity:1;stroke-miterlimit:4" d="M282.07037 321.898521C282.07037 321.898521 293.465655 319.41786 301.39153 313.47308 309.317404 307.535639 317.243278 300.600062 317.243278 300.600062L307.829461 301.590858 308.816512 292.17462C308.816512 292.17462 301.39153 299.609265 296.434175 303.073384 291.484187 306.544842 281.083318 309.517232 281.083318 309.517232zm0 0" transform="matrix(0.530304,0,0,0.532242,-64.739372,-62.171704)"/><path style="fill-rule:evenodd;fill:#003271;fill-opacity:1;stroke-width:.340919;stroke-linecap:butt;stroke-linejoin:miter;stroke:#fff;stroke-opacity:1;stroke-miterlimit:4" d="M241.947472 298.1194C241.947472 298.1194 254.830701 305.054977 265.725095 304.563248 276.626856 304.06418 290.489769 298.1194 290.489769 298.1194L290.990661 313.972148C290.990661 313.972148 275.632438 319.41786 266.218621 319.41786 256.81217 319.41786 241.947472 313.972148 241.947472 313.972148zm0 0" transform="matrix(0.530304,0,0,0.532242,-64.739372,-62.171704)"/><path style="fill:none;stroke-width:.340919;stroke-linecap:butt;stroke-linejoin:miter;stroke:#fff;stroke-opacity:1;stroke-miterlimit:4" d="M241.962204 313.876737 251.265531 322.228787" transform="matrix(0.530304,0,0,0.532242,-64.739372,-62.171704)"/><path style="fill:none;stroke-width:.340919;stroke-linecap:butt;stroke-linejoin:miter;stroke:#fff;stroke-opacity:1;stroke-miterlimit:4" d="M290.799144 313.972148 282.166128 321.641648" transform="matrix(0.530304,0,0,0.532242,-64.739372,-62.171704)"/><path style="stroke:none;fill-rule:evenodd;fill:#fec500;fill-opacity:1" d="M65.292969 99.375 65.207031 104.078125 66.570312 104.59375V102.710938L68.617188 102.796875 68.53125 105.019531 69.894531 105.277344 69.980469 100.316406 68.785156 100.230469 68.617188 101.769531 66.65625 101.597656V99.714844zm0 0"/><path style="stroke:none;fill-rule:evenodd;fill:#fec500;fill-opacity:1" d="M84.640625 105.277344 84.554688 99.886719 88.222656 98.773438V99.972656L85.835938 100.742188V101.855469L88.136719 101 88.050781 102.28125 85.835938 102.796875 85.75 104.078125 88.222656 103.136719 88.304688 103.992188zm0 0"/><path style="stroke:none;fill-rule:evenodd;fill:#fec500;fill-opacity:1" d="M73.132812 103.480469c0 0-.08593700000000126-1.796875 1.1093759999999975-1.796875C75.433594 101.683594 75.605469 103.050781 75.519531 103.652344 75.433594 104.25 75.265625 105.277344 74.414062 105.363281 73.558594 105.449219 73.21875 104.761719 73.132812 103.480469zM74.328125 106.390625C75.859375 106.347656 76.628906 105.363281 76.628906 103.394531 76.628906 101.511719 75.265625 100.65625 74.242188 100.65625 73.21875 100.65625 71.941406 101.941406 71.941406 103.480469 71.941406 105.019531 72.621094 106.433594 74.328125 106.390625zm0 0"/><path style="stroke:none;fill-rule:evenodd;fill:#fec500;fill-opacity:1" d="M80.039062 101.769531v1.28125C80.039062 103.050781 81.828125 103.136719 81.828125 102.28125 81.828125 101.425781 80.292969 101.855469 80.039062 101.769531zM78.84375 106.390625 78.675781 101.085938 80.71875 100.914062C81.65625 100.835938 83.019531 101.257812 82.9375 102.113281 82.851562 102.96875 82.753906 103.726562 81.402344 103.90625L80.125 104.078125 80.039062 106.304688zm0 0"/><path style="fill-rule:evenodd;fill:#fec500;fill-opacity:1;stroke-width:.710249;stroke-linecap:butt;stroke-linejoin:miter;stroke:#fec500;stroke-opacity:1;stroke-miterlimit:10" d="M264.237152 211.435697C264.237152 211.435697 263.743627 265.922177 263.743627 269.885363 263.743627 273.84855 263.743627 279.301602 259.287164 278.310805 254.830701 277.320008 249.379821 277.320008 241.453947 271.866957 233.528072 266.421245 233.528072 265.430448 233.528072 265.430448L240.960421 262.949786C240.960421 262.949786 233.528072 261.467261 228.578084 257.995803 223.62073 254.531684 219.657792 251.559294 219.657792 251.559294 219.657792 251.559294 219.164267 258.9866 221.639261 264.439651 224.121621 269.885363 229.07161 274.839347 229.07161 274.839347V268.402838C229.07161 268.402838 236.003067 274.839347 238.485427 276.329212 240.960421 277.811737 250.867764 281.774924 254.830701 284.248246 258.793638 286.728908 266.719513 293.664485 266.719513 293.664485 266.719513 293.664485 273.65097 285.738111 278.600958 283.756517 283.558313 281.774924 289.996244 278.802534 292.97213 276.82094 295.94065 274.839347 303.866524 267.412041 303.866524 267.412041V275.830144C303.866524 275.830144 309.317404 269.393635 310.797981 264.93138 312.285924 260.476464 312.779449 252.550091 312.779449 252.550091 312.779449 252.550091 308.816512 255.522481 305.354467 257.005006 301.885055 258.494871 291.977712 262.458058 291.977712 262.458058L299.903587 264.439651C299.903587 264.439651 287.027724 274.347618 282.563895 276.329212 278.107432 278.310805 268.700981 279.301602 268.700981 274.347618 268.700981 269.393635 269.194507 211.435697 269.194507 211.435697zm0 0" transform="matrix(0.530304,0,0,0.532242,-64.739372,-62.171704)"/><path style="fill-rule:evenodd;fill:#fec500;fill-opacity:1;stroke-width:.568199;stroke-linecap:square;stroke-linejoin:miter;stroke:#fec500;stroke-opacity:1;stroke-miterlimit:10" d="M264.738044 193.109627H268.20009V207.971578H264.738044zm0 0" transform="matrix(0.530304,0,0,0.532242,-64.739372,-62.171704)"/><path style="fill-rule:evenodd;fill:#fec500;fill-opacity:1;stroke-width:.710249;stroke-linecap:butt;stroke-linejoin:miter;stroke:#fff;stroke-opacity:1;stroke-miterlimit:10" d="M239.966004 207.971578C239.966004 207.971578 253.836284 204.999188 266.719513 204.999188 279.595375 204.999188 292.97213 207.971578 292.97213 207.971578V213.41729C292.97213 213.41729 275.138913 215.897951 264.738044 215.897951 254.329809 215.897951 239.472478 212.925561 239.472478 212.925561zm0 0" transform="matrix(0.530304,0,0,0.532242,-64.739372,-62.171704)"/><path style="fill-rule:evenodd;fill:#fec500;fill-opacity:1;stroke-width:.710249;stroke-linecap:square;stroke-linejoin:miter;stroke:#fff;stroke-opacity:1;stroke-miterlimit:10" d="M271.669501 205.490916C271.669501 208.778894 269.341828 211.435697 266.469067 211.435697 263.596306 211.435697 261.268633 208.778894 261.268633 205.490916 261.268633 202.210278 263.596306 199.553475 266.469067 199.553475 269.341828 199.553475 271.669501 202.210278 271.669501 205.490916zM274.144495 205.248722C274.144495 209.762351 270.601423 213.41729 266.218621 213.41729 261.843185 213.41729 258.292747 209.762351 258.292747 205.248722 258.292747 200.735092 261.843185 197.072814 266.218621 197.072814 270.601423 197.072814 274.144495 200.735092 274.144495 205.248722zm0 0" transform="matrix(0.530304,0,0,0.532242,-64.739372,-62.171704)"/><path style="stroke:none;fill-rule:evenodd;fill:#fec500;fill-opacity:1" d="M76.824219 17.917969 79.109375 23.527344 85.226562 24.089844 80.507812 27.960938 81.855469 33.859375 76.65625 30.640625 71.371094 33.722656 72.875 27.863281 68.261719 23.871094 74.390625 23.46875zm0 0"/><path style="stroke:none;fill-rule:evenodd;fill:#fec500;fill-opacity:1" d="M103.886719 24.554688 103.082031 30.5625 108.105469 34.109375 102.09375 35.105469 100.332031 40.890625 97.421875 35.5 91.3125 35.527344 95.523438 31.199219 93.507812 25.433594 99.023438 28.148438zm0 0"/><path style="stroke:none;fill-rule:evenodd;fill:#fec500;fill-opacity:1" d="M123.8125 42.734375 120.492188 47.796875 123.488281 53.179688 117.640625 51.460938 113.558594 55.910156l-.296875-6.125L107.742188 47.15625 113.40625 45.085938 114.078125 39.011719l3.796875 4.84375zm0 0"/><path style="stroke:none;fill-rule:evenodd;fill:#fec500;fill-opacity:1" d="M133.289062 69.285156 128.039062 72.277344 128.269531 78.4375 123.835938 74.238281 118.183594 76.339844 120.695312 70.75 116.972656 65.886719 122.953125 66.628906 126.304688 61.523438 127.492188 67.574219zm0 0"/><path style="stroke:none;fill-rule:evenodd;fill:#fec500;fill-opacity:1" d="M130.503906 96.890625 124.472656 97.117188 121.847656 102.691406 119.84375 96.914062 113.863281 96.160156 118.65625 92.363281 117.585938 86.324219 122.554688 89.753906 127.871094 86.773438 126.148438 92.691406zm0 0"/><path style="stroke:none;fill-rule:evenodd;fill:#fec500;fill-opacity:1" d="M49.6875 24.496094 54.195312 28.527344 59.933594 26.332031 57.394531 31.890625 61.183594 36.59375 55.105469 35.996094 51.707031 41.09375 50.492188 35.167969 44.601562 33.617188 49.929688 30.550781zm0 0"/><path style="stroke:none;fill-rule:evenodd;fill:#fec500;fill-opacity:1" d="M91.015625 115.78125 91.101562 121.839844 96.589844 124.605469 90.789062 126.480469 89.898438 132.460938 86.230469 127.5625 80.1875 128.496094l3.53125-4.90625-2.84375-5.40625L86.730469 120.054688zm0 0"/><path style="stroke:none;fill-rule:evenodd;fill:#fec500;fill-opacity:1" d="M38.757812 39.667969 39.253906 45.707031 44.921875 48.089844 39.261719 50.355469l-.484375 6.03125L34.785156 51.75 28.820312 53.09375 32.011719 47.957031 28.808594 42.757812 34.773438 44.222656zm0 0"/><path style="stroke:none;fill-rule:evenodd;fill:#fec500;fill-opacity:1" d="M26.441406 61.539062 29.75 66.609375 35.859375 65.992188 31.964844 70.695312 34.40625 76.222656 28.691406 74.0625 24.089844 78.097656 24.453125 72.058594 19.164062 69.023438 25.105469 67.453125zm0 0"/><path style="stroke:none;fill-rule:evenodd;fill:#fec500;fill-opacity:1" d="M25.472656 86.429688 30.816406 89.253906 35.863281 85.742188 34.726562 91.75 39.53125 95.398438 33.488281 96.285156 31.414062 102.054688 28.8125 96.597656 22.722656 96.511719 27.160156 92.25zm0 0"/><path style="stroke:none;fill-rule:evenodd;fill:#fec500;fill-opacity:1" d="M45.152344 103.925781 46.789062 109.757812 52.804688 111.011719 47.679688 114.320312 48.351562 120.332031 43.550781 116.546875 37.953125 119.007812 40.105469 113.355469 35.972656 108.867188 42.109375 109.160156zm0 0"/><path style="stroke:none;fill-rule:evenodd;fill:#fec500;fill-opacity:1" d="M71.292969 118.335938 68.511719 123.714844 72.042969 128.757812 66.050781 127.65625 62.441406 132.503906l-.921875-6.0625L55.757812 124.394531 61.183594 121.753906 61.226562 115.640625 65.503906 120.066406zm0 0"/><path style="stroke:none;fill-rule:evenodd;fill:#fec500;fill-opacity:1" d="M108.011719 104.195312 111.0625 109.425781 117.199219 109.117188 113.070312 113.617188 115.234375 119.261719 109.632812 116.8125 104.835938 120.613281 105.5 114.601562 100.371094 111.304688 106.382812 110.035156zm0 0"/></g></svg>