<svg xmlns="http://www.w3.org/2000/svg" xmlns:xlink="http://www.w3.org/1999/xlink" width="225pt" height="150pt" viewBox="0 0 225 150"><g id="surface1"><path d="M0 0h225v150H0z" style="fill:red;fill-opacity:1;stroke:none"/><path style="stroke:none;fill-rule:evenodd;fill:#009c31;fill-opacity:1" d="M0 0H75V150H0zM0 0"/><path style="stroke:none;fill-rule:evenodd;fill:#009cce;fill-opacity:1" d="M150 0h75V150H150zm0 0"/><path style="stroke:none;fill-rule:evenodd;fill:#b5cece;fill-opacity:1" d="M112.175781 79.367188H113.558594v33.371093H112.175781zm0 0"/><path style="fill-rule:evenodd;fill:#bdbdbd;fill-opacity:1;stroke-width:2;stroke-linecap:butt;stroke-linejoin:miter;stroke:#6b6b6b;stroke-opacity:1;stroke-miterlimit:4" d="M106.344332 123.467027C106.265093 124.661268 106.185855 125.849849 106.185855 127.06107 106.185855 157.641568 131.010223 182.465937 161.596381 182.465937 191.367511 182.465937 215.671168 158.932028 216.938988 129.466532L202.002484 128.657165C202.019463 129.126938 202.030783 129.61369 202.030783 130.094782 202.030783 148.048019 187.450853 162.59399 169.497616 162.59399 151.550039 162.59399 136.998409 148.048019 136.998409 130.094782 136.998409 128.419449 137.128587 126.761095 137.377623 125.15368zm0 0" transform="matrix(0.690161,0,0,0.690161,0.995908,0.115991)"/><path style="stroke:none;fill-rule:evenodd;fill:#fff;fill-opacity:1" d="M75.183594 83.140625h75.28125V38.253906c0-9.25-13.359375-14.300781-37.246094-14.300781C85.855469 23.953125 75.183594 31.070312 75.183594 38.253906zm0 0"/><path style="stroke:none;fill-rule:evenodd;fill:red;fill-opacity:1" d="M75.1875 53.257812V57.3125h75.269531V53.257812zm0 0"/><path style="stroke:none;fill-rule:evenodd;fill:#bdbdbd;fill-opacity:1" d="M100.3125 44.480469C100.1875 44.683594 95.714844 43.882812 95.503906 44.003906 95.300781 44.121094 93.890625 48.328125 93.65625 48.320312 93.414062 48.316406 91.871094 44.042969 91.664062 43.921875 91.460938 43.804688 87.113281 44.683594 87 44.480469 86.882812 44.265625 89.8125 40.796875 89.8125 40.554688 89.8125 40.320312 86.878906 36.992188 87 36.792969 87.125 36.585938 91.597656 37.386719 91.804688 37.265625 92.007812 37.148438 93.421875 32.945312 93.65625 32.949219 93.898438 32.957031 95.4375 37.230469 95.648438 37.351562 95.851562 37.46875 100.199219 36.585938 100.3125 36.792969 100.429688 37.003906 97.496094 40.476562 97.496094 40.71875 97.496094 40.953125 100.433594 44.277344 100.3125 44.480469zm0 0"/><path style="stroke:none;fill-rule:evenodd;fill:#bdbdbd;fill-opacity:1" d="M138.746094 44.480469C138.621094 44.683594 134.148438 43.882812 133.941406 44.003906 133.734375 44.121094 132.324219 48.328125 132.089844 48.320312 131.847656 48.316406 130.304688 44.042969 130.097656 43.921875 129.894531 43.804688 125.546875 44.683594 125.433594 44.480469 125.316406 44.265625 128.246094 40.796875 128.246094 40.554688 128.246094 40.320312 125.3125 36.992188 125.433594 36.792969 125.558594 36.585938 130.03125 37.386719 130.242188 37.265625 130.445312 37.148438 131.855469 32.945312 132.089844 32.949219 132.332031 32.957031 133.875 37.230469 134.082031 37.351562 134.285156 37.46875 138.632812 36.585938 138.746094 36.792969 138.863281 37.003906 135.933594 40.476562 135.933594 40.71875 135.933594 40.953125 138.867188 44.277344 138.746094 44.480469zm0 0"/><path style="stroke:none;fill-rule:evenodd;fill:#bdbdbd;fill-opacity:1" d="M138.746094 74.171875C138.621094 74.378906 134.148438 73.578125 133.941406 73.699219 133.734375 73.816406 132.324219 78.023438 132.089844 78.015625 131.847656 78.011719 130.304688 73.738281 130.097656 73.617188 129.894531 73.5 125.546875 74.378906 125.433594 74.171875 125.316406 73.960938 128.246094 70.488281 128.246094 70.25 128.246094 70.011719 125.3125 66.6875 125.433594 66.488281 125.558594 66.28125 130.03125 67.082031 130.242188 66.960938 130.445312 66.84375 131.855469 62.640625 132.089844 62.644531 132.332031 62.648438 133.875 66.925781 134.082031 67.042969 134.285156 67.164062 138.632812 66.28125 138.746094 66.488281 138.863281 66.699219 135.933594 70.171875 135.933594 70.414062 135.933594 70.648438 138.867188 73.972656 138.746094 74.171875zm0 0"/><path style="stroke:none;fill-rule:evenodd;fill:#bdbdbd;fill-opacity:1" d="M100.3125 74.171875C100.1875 74.378906 95.714844 73.578125 95.503906 73.699219 95.300781 73.816406 93.890625 78.023438 93.65625 78.015625 93.414062 78.011719 91.871094 73.738281 91.664062 73.617188 91.460938 73.5 87.113281 74.378906 87 74.171875 86.882812 73.960938 89.8125 70.488281 89.8125 70.25 89.8125 70.011719 86.878906 66.6875 87 66.488281 87.125 66.28125 91.597656 67.082031 91.804688 66.960938 92.007812 66.84375 93.421875 62.640625 93.65625 62.644531 93.898438 62.648438 95.4375 66.925781 95.648438 67.042969 95.851562 67.164062 100.199219 66.28125 100.3125 66.488281 100.429688 66.699219 97.496094 70.171875 97.496094 70.414062 97.496094 70.648438 100.433594 73.972656 100.3125 74.171875zm0 0"/><path style="stroke:none;fill-rule:evenodd;fill:red;fill-opacity:1" d="M113.210938 23.949219C112.402344 23.949219 111.621094 23.957031 110.839844 23.96875V83.152344H114.914062V23.96875C114.34375 23.964844 113.796875 23.949219 113.210938 23.949219zm0 0"/><path style="fill:none;stroke-width:2;stroke-linecap:butt;stroke-linejoin:miter;stroke:#b5cece;stroke-opacity:1;stroke-miterlimit:4" d="M107.493294 120.297477H216.571094V55.259443C216.571094 41.856774 197.214199 34.538509 162.603845 34.538509 122.95617 34.538509 107.493294 44.850867 107.493294 55.259443zm0 0" transform="matrix(0.690161,0,0,0.690161,0.995908,0.115991)"/></g></svg>