<svg xmlns="http://www.w3.org/2000/svg" xmlns:xlink="http://www.w3.org/1999/xlink" width="225pt" height="150pt" viewBox="0 0 225 150"><g id="surface1"><path d="M0 0h225v150H0z" style="fill:#000f5d;fill-opacity:1;stroke:none"/><path style="stroke:none;fill-rule:nonzero;fill:#d59f0f;fill-opacity:1" d="M134.984375 20.828125 139.769531 20.824219 141.347656 16.148438 142.808594 20.839844H147.628906L143.894531 23.875 145.246094 28.316406 141.300781 25.644531 137.386719 28.335938 138.71875 23.835938zm0 0"/><path style="stroke:none;fill-rule:nonzero;fill:#d59f0f;fill-opacity:1" d="M156.015625 39.613281 160.800781 39.609375 162.378906 34.933594 163.839844 39.625 168.660156 39.621094 164.925781 42.660156 166.277344 47.101562 162.332031 44.429688 158.417969 47.121094 159.75 42.621094zm0 0"/><path style="stroke:none;fill-rule:nonzero;fill:#d59f0f;fill-opacity:1" d="M167.179688 66.652344H171.964844L173.542969 61.976562 175.003906 66.664062H179.824219L176.089844 69.699219 177.441406 74.140625 173.496094 71.472656 169.582031 74.160156 170.914062 69.660156zm0 0"/><path style="stroke:none;fill-rule:nonzero;fill:#d59f0f;fill-opacity:1" d="M144.417969 73.667969 149.203125 73.664062 150.78125 68.988281 152.242188 73.675781H157.0625L153.328125 76.710938 154.679688 81.152344 150.730469 78.484375 146.820312 81.175781 148.152344 76.671875zm0 0"/><path style="stroke:none;fill-rule:nonzero;fill:#d59f0f;fill-opacity:1" d="M162.84375 96.574219 167.628906 96.570312 169.207031 91.894531 170.667969 96.585938H175.488281L171.753906 99.621094 173.105469 104.0625 169.160156 101.390625 165.246094 104.082031 166.578125 99.582031zm0 0"/><path style="stroke:none;fill-rule:nonzero;fill:#d59f0f;fill-opacity:1" d="M145.984375 119.707031H150.769531L152.347656 115.03125 153.808594 119.71875H158.628906L154.890625 122.753906 156.246094 127.195312 152.296875 124.527344 148.382812 127.214844 149.71875 122.714844zm0 0"/><path style="stroke:none;fill-rule:nonzero;fill:#d59f0f;fill-opacity:1" d="M133.101562 100.464844H137.890625L139.464844 95.789062 140.929688 100.476562H145.75L142.011719 103.511719 143.367188 107.953125 139.417969 105.285156 135.503906 107.972656 136.835938 103.472656zm0 0"/><path style="stroke:none;fill-rule:nonzero;fill:#d59f0f;fill-opacity:1" d="M120.878906 134.074219 125.664062 134.070312 127.242188 129.394531 128.703125 134.085938 133.523438 134.082031 129.789062 137.121094 131.140625 141.558594 127.195312 138.890625 123.28125 141.582031 124.613281 137.082031zm0 0"/><path style="stroke:none;fill-rule:nonzero;fill:#d59f0f;fill-opacity:1" d="M90.601562 134.074219 95.390625 134.070312 96.964844 129.394531 98.429688 134.085938 103.25 134.082031 99.511719 137.121094 100.867188 141.558594 96.917969 138.890625 93.003906 141.582031 94.335938 137.082031zm0 0"/><path style="stroke:none;fill-rule:nonzero;fill:#d59f0f;fill-opacity:1" d="M79.804688 100.464844H84.589844L86.167969 95.789062 87.628906 100.476562H92.449219L88.714844 103.511719 90.066406 107.953125 86.117188 105.285156 82.207031 107.972656 83.539062 103.472656zm0 0"/><path style="stroke:none;fill-rule:nonzero;fill:#d59f0f;fill-opacity:1" d="M65.449219 119.707031H70.234375L71.8125 115.03125 73.273438 119.71875H78.09375L74.355469 122.753906 75.710938 127.195312 71.761719 124.527344 67.851562 127.214844 69.183594 122.714844zm0 0"/><path style="stroke:none;fill-rule:nonzero;fill:#d59f0f;fill-opacity:1" d="M48.902344 96.574219 53.691406 96.570312 55.265625 91.894531 56.730469 96.585938H61.550781L57.8125 99.621094 59.167969 104.0625 55.21875 101.390625 51.304688 104.082031 52.636719 99.582031zm0 0"/><path style="stroke:none;fill-rule:nonzero;fill:#d59f0f;fill-opacity:1" d="M45.175781 66.652344H49.960938L51.539062 61.976562 53 66.664062H57.820312L54.082031 69.699219 55.4375 74.140625 51.488281 71.472656 47.578125 74.160156 48.910156 69.660156zm0 0"/><path style="stroke:none;fill-rule:nonzero;fill:#d59f0f;fill-opacity:1" d="M68.371094 73.667969 73.15625 73.664062 74.734375 68.988281 76.195312 73.675781H81.015625L77.277344 76.710938 78.632812 81.152344 74.683594 78.484375 70.769531 81.175781 72.105469 76.671875zm0 0"/><path style="stroke:none;fill-rule:nonzero;fill:#d59f0f;fill-opacity:1" d="M56.585938 39.613281 61.371094 39.609375 62.949219 34.933594 64.410156 39.625 69.230469 39.621094 65.492188 42.660156 66.847656 47.101562 62.898438 44.429688 58.984375 47.121094 60.320312 42.621094zm0 0"/><path style="stroke:none;fill-rule:nonzero;fill:#d59f0f;fill-opacity:1" d="M77.742188 20.828125 82.53125 20.824219 84.105469 16.148438 85.570312 20.839844H90.390625L86.652344 23.875 88.007812 28.316406 84.058594 25.644531 80.144531 28.335938 81.476562 23.835938zm0 0"/><path style="stroke:none;fill-rule:nonzero;fill:#d59f0f;fill-opacity:1" d="M106.414062 12.980469 111.203125 12.976562 112.777344 8.300781 114.242188 12.992188 119.0625 12.988281 115.324219 16.027344 116.679688 20.464844 112.730469 17.796875 108.816406 20.488281 110.148438 15.988281zm0 0"/><path style="stroke:none;fill-rule:nonzero;fill:#d59f0f;fill-opacity:1" d="M137.539062 29.597656 123.394531 49.746094 122.515625 49.125l14.152344-20.144531zm0 0"/><path style="stroke:none;fill-rule:nonzero;fill:#d59f0f;fill-opacity:1" d="M157.78125 43.707031 124.910156 56.347656 124.523438 55.34375l32.867187-12.640625zm0 0"/><path style="stroke:none;fill-rule:nonzero;fill:#d59f0f;fill-opacity:1" d="M165.324219 67.960938 125.351562 63.171875 125.476562 62.097656l39.980469 4.796875zm0 0"/><path style="stroke:none;fill-rule:nonzero;fill:#d59f0f;fill-opacity:1" d="M106.484375 111.601562 111.269531 111.597656 112.847656 106.921875 114.308594 111.613281 119.128906 111.609375 115.394531 114.648438 116.75 119.085938 112.800781 116.417969 108.886719 119.109375 110.21875 114.609375zm0 0"/><path style="stroke:none;fill-rule:nonzero;fill:#d59f0f;fill-opacity:1" d="M103.90625 34.394531l6.75.015625L112.878906 27.8125 114.9375 34.414062 121.726562 34.417969 116.460938 38.691406 118.367188 44.949219 112.8125 41.195312 107.292969 44.984375 109.171875 38.632812zm0 0"/><path style="stroke:none;fill-rule:nonzero;fill:#d59f0f;fill-opacity:1" d="M104.257812 66.8125C104.246094 66.796875 104.234375 66.78125 104.222656 66.765625 98.785156 59.578125 104.316406 56.9375 104.429688 51.851562 108.03125 58.539062 102.753906 60.617188 109.027344 66.816406zm0 0"/><path style="stroke:none;fill-rule:nonzero;fill:#d59f0f;fill-opacity:1" d="M110.269531 66.816406C108.351562 64.121094 107.007812 59.820312 107.582031 57.007812 108.152344 54.199219 110.097656 51.433594 109.828125 49.308594 110.84375 51.703125 111.796875 52.625 111.5 54.386719 113.023438 49.84375 116.527344 47.496094 121.273438 47.261719 112.734375 53.75 123.878906 58.734375 116.511719 66.824219zm0 0"/><path style="stroke:none;fill-rule:nonzero;fill:#d59f0f;fill-opacity:1" d="M118.09375 66.824219C124.871094 58.648438 116.246094 54.457031 124.105469 50.789062 124.394531 53.207031 122.46875 53.207031 123.320312 56.167969 123.464844 57.449219 123.285156 58.492188 122.871094 59.386719 123.671875 58.40625 125.226562 56.554688 126.214844 55.835938 123.878906 59.359375 126.386719 62.441406 120.75 66.824219L117.976562 66.828125"/><path style="stroke:none;fill-rule:nonzero;fill:#d59f0f;fill-opacity:1" d="M116.945312 84.476562C117.25 76.804688 118.890625 74.472656 122 71.265625 115.964844 71.25 109.21875 71.25 103.730469 71.246094 106.828125 74.457031 108.464844 76.792969 108.75 84.460938 111.484375 84.464844 114.214844 84.46875 116.945312 84.476562zm0 0"/><path style="stroke:none;fill-rule:nonzero;fill:#d59f0f;fill-opacity:1" d="M112.820312 103.195312 115.210938 110.6875 116.527344 88.460938C114.070312 88.453125 111.609375 88.449219 109.152344 88.445312L110.417969 110.683594zm0 0"/><path style="stroke:none;fill-rule:nonzero;fill:#d59f0f;fill-opacity:1" d="M112.785156 136.785156C113.839844 135.808594 114.140625 132.625 114.140625 132.625L114.792969 119.636719 112.804688 118.238281 110.808594 119.632812 111.445312 132.625c0 0 .28125 3.171875 1.3359379999999987 4.160156000000001zm0 0"/><path style="stroke:none;fill-rule:nonzero;fill:#d59f0f;fill-opacity:1" d="M123.464844 69.886719 102.238281 69.863281 102.242188 67.851562 123.46875 67.871094zm0 0"/><path style="stroke:none;fill-rule:nonzero;fill:#d59f0f;fill-opacity:1" d="M118.296875 87.792969 107.101562 87.78125V85.277344l11.199219.015625zm0 0"/><path style="stroke:none;fill-rule:nonzero;fill:#d59f0f;fill-opacity:1" d="M60.175781 67.960938 100.144531 63.171875 100.019531 62.097656 60.042969 66.894531zm0 0"/><path style="stroke:none;fill-rule:nonzero;fill:#d59f0f;fill-opacity:1" d="M67.769531 43.707031l32.871094 12.640625L101.023438 55.34375 68.160156 42.703125zm0 0"/><path style="stroke:none;fill-rule:nonzero;fill:#d59f0f;fill-opacity:1" d="M88.121094 29.597656l14.144531 20.148438L103.144531 49.125 88.996094 28.980469zm0 0"/><path style="stroke:none;fill-rule:nonzero;fill:#d59f0f;fill-opacity:1" d="M112.167969 42.816406 112.15625 50.148438H113.230469L113.234375 42.8125zm0 0"/><path style="stroke:none;fill-rule:nonzero;fill:#d59f0f;fill-opacity:1" d="M101.058594 34.5 96.414062 32.117188 96.738281 31.484375 101.382812 33.867188 101.058594 34.5M101.851562 32.78125 98.097656 29.15625 98.636719 28.597656 103.058594 29.480469C103.15625 29.496094 103.246094 29.519531 103.324219 29.539062 103.40625 29.5625 103.476562 29.585938 103.539062 29.613281L100.496094 26.671875 100.96875 26.1875 104.71875 29.816406 104.1875 30.367188 99.691406 29.488281C99.621094 29.472656 99.554688 29.457031 99.484375 29.433594 99.417969 29.414062 99.347656 29.386719 99.277344 29.359375L102.320312 32.296875l-.46875.484375M105.8125 24.175781 104.675781 24.621094 106.125 28.328125 107.257812 27.882812C107.746094 27.695312 108.050781 27.394531 108.175781 26.980469 108.300781 26.566406 108.246094 26.050781 108.003906 25.433594 107.773438 24.839844 107.46875 24.4375 107.09375 24.222656c-.375-.21875-.8046879999999987-.234375-1.28125-.046875M105.695312 29.179688 103.796875 24.316406 105.652344 23.59375C106.328125 23.328125 106.925781 23.328125 107.441406 23.59375 107.960938 23.859375 108.371094 24.371094 108.667969 25.136719 108.976562 25.925781 109.027344 26.613281 108.824219 27.199219 108.625 27.785156 108.1875 28.207031 107.519531 28.464844L105.695312 29.179688M110.601562 27.699219 110.191406 22.496094 110.898438 22.441406 111.308594 27.644531 110.601562 27.699219M113.796875 25.5625 115.394531 25.871094 115.035156 23.453125 113.796875 25.5625m-1.890625 1.84375L114.792969 22.648438 115.5625 22.792969 116.488281 28.289062 115.734375 28.144531 115.484375 26.507812 113.464844 26.121094 112.625 27.546875l-.71875-.140625M117.007812 28.566406 119.957031 24.261719l.640625.4375L120.464844 29.203125C120.464844 29.304688 120.457031 29.394531 120.449219 29.476562 120.441406 29.558594 120.429688 29.636719 120.414062 29.699219L122.804688 26.210938 123.363281 26.59375 120.414062 30.898438 119.777344 30.464844 119.894531 25.886719C119.898438 25.816406 119.902344 25.742188 119.914062 25.671875 119.921875 25.601562 119.9375 25.53125 119.953125 25.457031L117.5625 28.945312 117.007812 28.566406M123.496094 31.40625 124.363281 32.78125 125.882812 30.871094 123.496094 31.40625M120.855469 31.285156l5.453125-1.140625L126.722656 30.804688 123.34375 35.234375 122.933594 34.582031 123.957031 33.285156 122.863281 31.542969 121.246094 31.90625 120.855469 31.285156"/></g></svg>