<svg xmlns="http://www.w3.org/2000/svg" xmlns:xlink="http://www.w3.org/1999/xlink" width="225pt" height="150pt" viewBox="0 0 225 150"><g id="surface1"><path d="M0 0h225v150H0z" style="fill:#fff;fill-opacity:1;stroke:none"/><path style="stroke:none;fill-rule:nonzero;fill:#bf0a30;fill-opacity:1" d="M0 75H225v75H0zm0 0"/><path style="stroke:none;fill-rule:nonzero;fill:#002868;fill-opacity:1" d="M0 0H75V150H0zM0 0"/><path style="stroke:none;fill-rule:nonzero;fill:#fff;fill-opacity:1" d="M37.5 46.875l-8.691406 26.75 13.375 4.34375"/><path style="stroke:none;fill-rule:nonzero;fill:#fff;fill-opacity:1" d="M37.5 46.875l8.691406 26.75-13.375 4.34375"/><path style="stroke:none;fill-rule:nonzero;fill:#fff;fill-opacity:1" d="M64.25 66.308594H36.125v14.0625"/><path style="stroke:none;fill-rule:nonzero;fill:#fff;fill-opacity:1" d="M64.25 66.308594 41.496094 82.839844l-8.265625-11.375"/><path style="stroke:none;fill-rule:nonzero;fill:#fff;fill-opacity:1" d="M54.03125 97.753906l-8.691406-26.75L31.964844 75.351562"/><path style="stroke:none;fill-rule:nonzero;fill:#fff;fill-opacity:1" d="M54.03125 97.753906 31.277344 81.222656 39.542969 69.84375"/><path style="stroke:none;fill-rule:nonzero;fill:#fff;fill-opacity:1" d="M20.96875 97.753906l22.753906-16.53125L35.457031 69.84375"/><path style="stroke:none;fill-rule:nonzero;fill:#fff;fill-opacity:1" d="M20.96875 97.753906l8.691406-26.75L43.035156 75.351562"/><path style="stroke:none;fill-rule:nonzero;fill:#fff;fill-opacity:1" d="M10.75 66.308594l22.753906 16.53125 8.265625-11.375"/><path style="stroke:none;fill-rule:nonzero;fill:#fff;fill-opacity:1" d="M10.75 66.308594H38.875v14.0625"/></g></svg>