<svg xmlns="http://www.w3.org/2000/svg" xmlns:xlink="http://www.w3.org/1999/xlink" width="243pt" height="150pt" viewBox="0 0 243 150"><defs><clipPath id="clip1"><path d="M0 150V0L243 28.125 186.921875 75 243 121.875zm0 0"/></clipPath><clipPath id="clip2"><path d="M0 65H243V85H0zm0 0"/></clipPath><clipPath id="clip3"><path d="M0 150V0L243 28.125 186.921875 75 243 121.875zm0 0"/></clipPath></defs><g id="surface1"><g clip-path="url(#clip1)" clip-rule="nonzero"><path style="fill-rule:nonzero;fill:#fff;fill-opacity:1;stroke-width:4;stroke-linecap:butt;stroke-linejoin:miter;stroke:#c1133d;stroke-opacity:1;stroke-miterlimit:4" d="M26 3 0 0V16l26-3" transform="matrix(9.346154,0,0,9.375,0,0)"/></g><g clip-path="url(#clip2)" clip-rule="nonzero"><g clip-path="url(#clip3)" clip-rule="nonzero"><path style="fill:none;stroke-width:2;stroke-linecap:butt;stroke-linejoin:miter;stroke:#c1133d;stroke-opacity:1;stroke-miterlimit:4" d="M0 8H26" transform="matrix(9.346154,0,0,9.375,0,0)"/></g></g><path style="stroke:none;fill-rule:nonzero;fill:#001c5a;fill-opacity:1" d="M0 0V150L149.539062 75zM0 0"/><path style="stroke:none;fill-rule:nonzero;fill:#fff;fill-opacity:1" d="M74.25 75C74.25 90.53125 61.695312 103.125 46.210938 103.125 30.726562 103.125 18.171875 90.53125 18.171875 75 18.171875 59.46875 30.726562 46.875 46.210938 46.875 61.695312 46.875 74.25 59.46875 74.25 75zm0 0"/><path style="stroke:none;fill-rule:nonzero;fill:#c1133d;fill-opacity:1" d="M64.902344 75C64.902344 85.355469 56.535156 93.75 46.210938 93.75 35.886719 93.75 27.519531 85.355469 27.519531 75 27.519531 64.644531 35.886719 56.25 46.210938 56.25 56.535156 56.25 64.902344 64.644531 64.902344 75zm0 0"/><path style="stroke:none;fill-rule:nonzero;fill:#fff;fill-opacity:1" d="M46.210938 31.640625 44.40625 37.214844 47.070312 38.082031zm0 0"/><path style="stroke:none;fill-rule:nonzero;fill:#fff;fill-opacity:1" d="M46.210938 31.640625 48.015625 37.214844 45.347656 38.082031zm0 0"/><path style="stroke:none;fill-rule:nonzero;fill:#fff;fill-opacity:1" d="M51.765625 35.6875H45.925781V38.5zm0 0"/><path style="stroke:none;fill-rule:nonzero;fill:#fff;fill-opacity:1" d="M51.765625 35.6875 47.039062 39.132812 45.390625 36.859375zm0 0"/><path style="stroke:none;fill-rule:nonzero;fill:#fff;fill-opacity:1" d="M40.65625 35.6875 45.378906 39.132812 47.027344 36.859375zm0 0"/><path style="stroke:none;fill-rule:nonzero;fill:#fff;fill-opacity:1" d="M40.65625 35.6875H46.496094V38.5zm0 0"/><path style="stroke:none;fill-rule:nonzero;fill:#fff;fill-opacity:1" d="M49.644531 42.242188 47.839844 36.667969 45.171875 37.535156zm0 0"/><path style="stroke:none;fill-rule:nonzero;fill:#fff;fill-opacity:1" d="M49.644531 42.242188 44.917969 38.796875 46.566406 36.519531zm0 0"/><path style="stroke:none;fill-rule:nonzero;fill:#fff;fill-opacity:1" d="M42.777344 42.242188 47.503906 38.796875 45.855469 36.519531zm0 0"/><path style="stroke:none;fill-rule:nonzero;fill:#fff;fill-opacity:1" d="M42.777344 42.242188 44.582031 36.667969 47.25 37.535156zm0 0"/><path style="stroke:none;fill-rule:nonzero;fill:#fff;fill-opacity:1" d="M67.824219 37.449219l-4.34375 3.921875L65.359375 43.460938zm0 0"/><path style="stroke:none;fill-rule:nonzero;fill:#fff;fill-opacity:1" d="M67.824219 37.449219 66.609375 43.179688 63.867188 42.597656zm0 0"/><path style="stroke:none;fill-rule:nonzero;fill:#fff;fill-opacity:1" d="M70.617188 43.742188 65.558594 40.8125 64.15625 43.25zm0 0"/><path style="stroke:none;fill-rule:nonzero;fill:#fff;fill-opacity:1" d="M70.617188 43.742188 64.804688 44.355469 64.511719 41.558594zm0 0"/><path style="stroke:none;fill-rule:nonzero;fill:#fff;fill-opacity:1" d="M60.992188 38.167969 63.371094 43.523438 65.929688 42.378906zm0 0"/><path style="stroke:none;fill-rule:nonzero;fill:#fff;fill-opacity:1" d="M60.992188 38.167969 66.050781 41.097656 64.652344 43.535156zm0 0"/><path style="stroke:none;fill-rule:nonzero;fill:#fff;fill-opacity:1" d="M65.511719 48.351562 66.726562 42.621094 63.984375 42.035156zm0 0"/><path style="stroke:none;fill-rule:nonzero;fill:#fff;fill-opacity:1" d="M65.511719 48.351562 63.136719 43 65.699219 41.855469zm0 0"/><path style="stroke:none;fill-rule:nonzero;fill:#fff;fill-opacity:1" d="M59.566406 44.90625 65.375 44.292969 65.082031 41.496094zm0 0"/><path style="stroke:none;fill-rule:nonzero;fill:#fff;fill-opacity:1" d="M59.566406 44.90625 63.90625 40.988281 65.78125 43.078125zm0 0"/><path style="stroke:none;fill-rule:nonzero;fill:#fff;fill-opacity:1" d="M8.773438 53.320312 12.683594 57.675781 14.765625 55.792969zm0 0"/><path style="stroke:none;fill-rule:nonzero;fill:#fff;fill-opacity:1" d="M8.773438 53.320312l5.714843 1.21875L13.90625 57.289062zm0 0"/><path style="stroke:none;fill-rule:nonzero;fill:#fff;fill-opacity:1" d="M15.046875 50.519531 12.128906 55.59375 14.554688 57zm0 0"/><path style="stroke:none;fill-rule:nonzero;fill:#fff;fill-opacity:1" d="M15.046875 50.519531 15.660156 56.347656 12.871094 56.640625zm0 0"/><path style="stroke:none;fill-rule:nonzero;fill:#fff;fill-opacity:1" d="M9.492188 60.171875 14.828125 57.789062 13.6875 55.21875zm0 0"/><path style="stroke:none;fill-rule:nonzero;fill:#fff;fill-opacity:1" d="M9.492188 60.171875 12.414062 55.097656 14.84375 56.503906zm0 0"/><path style="stroke:none;fill-rule:nonzero;fill:#fff;fill-opacity:1" d="M19.644531 55.636719l-5.714843-1.21875L13.347656 57.171875zm0 0"/><path style="stroke:none;fill-rule:nonzero;fill:#fff;fill-opacity:1" d="M19.644531 55.636719 14.308594 58.019531 13.167969 55.453125zm0 0"/><path style="stroke:none;fill-rule:nonzero;fill:#fff;fill-opacity:1" d="M16.210938 61.601562 15.597656 55.777344 12.8125 56.070312zm0 0"/><path style="stroke:none;fill-rule:nonzero;fill:#fff;fill-opacity:1" d="M16.210938 61.601562 12.300781 57.25 14.386719 55.367188zm0 0"/><path style="stroke:none;fill-rule:nonzero;fill:#fff;fill-opacity:1" d="M24.597656 37.449219 25.8125 43.179688 28.554688 42.597656zm0 0"/><path style="stroke:none;fill-rule:nonzero;fill:#fff;fill-opacity:1" d="M24.597656 37.449219 28.9375 41.371094 27.0625 43.460938zm0 0"/><path style="stroke:none;fill-rule:nonzero;fill:#fff;fill-opacity:1" d="M31.425781 38.167969 26.367188 41.097656 27.769531 43.535156zm0 0"/><path style="stroke:none;fill-rule:nonzero;fill:#fff;fill-opacity:1" d="M31.425781 38.167969 29.050781 43.523438 26.488281 42.378906zm0 0"/><path style="stroke:none;fill-rule:nonzero;fill:#fff;fill-opacity:1" d="M21.804688 43.742188 27.613281 44.355469 27.90625 41.558594zm0 0"/><path style="stroke:none;fill-rule:nonzero;fill:#fff;fill-opacity:1" d="M21.804688 43.742188 26.863281 40.8125 28.265625 43.25zm0 0"/><path style="stroke:none;fill-rule:nonzero;fill:#fff;fill-opacity:1" d="M32.855469 44.90625 28.511719 40.988281 26.636719 43.078125zm0 0"/><path style="stroke:none;fill-rule:nonzero;fill:#fff;fill-opacity:1" d="M32.855469 44.90625 27.042969 44.292969 27.335938 41.496094zm0 0"/><path style="stroke:none;fill-rule:nonzero;fill:#fff;fill-opacity:1" d="M26.90625 48.351562 29.28125 43 26.722656 41.855469zm0 0"/><path style="stroke:none;fill-rule:nonzero;fill:#fff;fill-opacity:1" d="M26.90625 48.351562 25.691406 42.621094 28.433594 42.035156zm0 0"/><path style="stroke:none;fill-rule:nonzero;fill:#fff;fill-opacity:1" d="M6.773438 27.117188 8.921875 32.566406 11.527344 31.53125zm0 0"/><path style="stroke:none;fill-rule:nonzero;fill:#fff;fill-opacity:1" d="M6.773438 27.117188 11.703125 30.257812 10.199219 32.632812zm0 0"/><path style="stroke:none;fill-rule:nonzero;fill:#fff;fill-opacity:1" d="M13.628906 26.6875 9.125 30.421875 10.910156 32.589844zm0 0"/><path style="stroke:none;fill-rule:nonzero;fill:#fff;fill-opacity:1" d="M13.628906 26.6875 12.171875 32.363281 9.457031 31.660156zm0 0"/><path style="stroke:none;fill-rule:nonzero;fill:#fff;fill-opacity:1" d="M5.0625 33.785156 10.890625 33.421875 10.71875 30.617188zm0 0"/><path style="stroke:none;fill-rule:nonzero;fill:#fff;fill-opacity:1" d="M5.0625 33.785156 9.566406 30.054688 11.351562 32.222656zm0 0"/><path style="stroke:none;fill-rule:nonzero;fill:#fff;fill-opacity:1" d="M16.152344 33.09375 11.222656 29.953125 9.71875 32.324219zm0 0"/><path style="stroke:none;fill-rule:nonzero;fill:#fff;fill-opacity:1" d="M16.152344 33.09375 10.320312 33.457031 10.148438 30.652344zm0 0"/><path style="stroke:none;fill-rule:nonzero;fill:#fff;fill-opacity:1" d="M10.859375 37.480469 12.3125 31.808594 9.597656 31.105469zm0 0"/><path style="stroke:none;fill-rule:nonzero;fill:#fff;fill-opacity:1" d="M10.859375 37.480469 8.710938 32.03125 11.320312 31zm0 0"/><path style="stroke:none;fill-rule:nonzero;fill:#fff;fill-opacity:1" d="M24.585938 16.800781 24.835938 22.65625 27.636719 22.535156zm0 0"/><path style="stroke:none;fill-rule:nonzero;fill:#fff;fill-opacity:1" d="M24.585938 16.800781 28.21875 21.390625 26.023438 23.140625zm0 0"/><path style="stroke:none;fill-rule:nonzero;fill:#fff;fill-opacity:1" d="M31.203125 18.648438 25.726562 20.695312 26.707031 23.332031zm0 0"/><path style="stroke:none;fill-rule:nonzero;fill:#fff;fill-opacity:1" d="M31.203125 18.648438 27.972656 23.53125 25.636719 21.976562zm0 0"/><path style="stroke:none;fill-rule:nonzero;fill:#fff;fill-opacity:1" d="M20.789062 22.539062 26.417969 24.113281 27.171875 21.402344zm0 0"/><path style="stroke:none;fill-rule:nonzero;fill:#fff;fill-opacity:1" d="M20.789062 22.539062 26.265625 20.496094 27.242188 23.128906zm0 0"/><path style="stroke:none;fill-rule:nonzero;fill:#fff;fill-opacity:1" d="M31.496094 25.53125 27.863281 20.941406 25.667969 22.691406zm0 0"/><path style="stroke:none;fill-rule:nonzero;fill:#fff;fill-opacity:1" d="M31.496094 25.53125 25.867188 23.957031 26.621094 21.25zm0 0"/><path style="stroke:none;fill-rule:nonzero;fill:#fff;fill-opacity:1" d="M25.058594 27.9375 28.289062 23.054688 25.953125 21.5zm0 0"/><path style="stroke:none;fill-rule:nonzero;fill:#fff;fill-opacity:1" d="M25.058594 27.9375 24.8125 22.082031 27.613281 21.960938zm0 0"/><path style="stroke:none;fill-rule:nonzero;fill:#fff;fill-opacity:1" d="M8.773438 96.679688l5.714843-1.21875L13.90625 92.710938zm0 0"/><path style="stroke:none;fill-rule:nonzero;fill:#fff;fill-opacity:1" d="M8.773438 96.679688 12.683594 92.324219 14.765625 94.207031zm0 0"/><path style="stroke:none;fill-rule:nonzero;fill:#fff;fill-opacity:1" d="M9.492188 89.828125 12.414062 94.902344 14.84375 93.496094zm0 0"/><path style="stroke:none;fill-rule:nonzero;fill:#fff;fill-opacity:1" d="M9.492188 89.828125 14.828125 92.210938 13.6875 94.78125zm0 0"/><path style="stroke:none;fill-rule:nonzero;fill:#fff;fill-opacity:1" d="M15.046875 99.480469 15.660156 93.652344 12.871094 93.359375zm0 0"/><path style="stroke:none;fill-rule:nonzero;fill:#fff;fill-opacity:1" d="M15.046875 99.480469 12.128906 94.40625 14.554688 93zm0 0"/><path style="stroke:none;fill-rule:nonzero;fill:#fff;fill-opacity:1" d="M16.210938 88.398438 12.300781 92.75 14.386719 94.632812zm0 0"/><path style="stroke:none;fill-rule:nonzero;fill:#fff;fill-opacity:1" d="M16.210938 88.398438 15.597656 94.222656 12.8125 93.929688zm0 0"/><path style="stroke:none;fill-rule:nonzero;fill:#fff;fill-opacity:1" d="M19.644531 94.363281 14.308594 91.980469 13.167969 94.546875zm0 0"/><path style="stroke:none;fill-rule:nonzero;fill:#fff;fill-opacity:1" d="M19.644531 94.363281l-5.714843 1.21875L13.347656 92.828125zm0 0"/><path style="stroke:none;fill-rule:nonzero;fill:#fff;fill-opacity:1" d="M2.984375 75 8.539062 76.8125 9.40625 74.136719zm0 0"/><path style="stroke:none;fill-rule:nonzero;fill:#fff;fill-opacity:1" d="M2.984375 75 8.539062 73.1875 9.40625 75.863281zm0 0"/><path style="stroke:none;fill-rule:nonzero;fill:#fff;fill-opacity:1" d="M7.019531 69.425781v5.859375H9.824219zm0 0"/><path style="stroke:none;fill-rule:nonzero;fill:#fff;fill-opacity:1" d="M7.019531 69.425781 10.453125 74.167969 8.183594 75.820312zm0 0"/><path style="stroke:none;fill-rule:nonzero;fill:#fff;fill-opacity:1" d="M7.019531 80.574219 10.453125 75.832031 8.183594 74.179688zm0 0"/><path style="stroke:none;fill-rule:nonzero;fill:#fff;fill-opacity:1" d="M7.019531 80.574219V74.714844H9.824219zm0 0"/><path style="stroke:none;fill-rule:nonzero;fill:#fff;fill-opacity:1" d="M13.550781 71.554688l-5.554687 1.8125L8.863281 76.042969zm0 0"/><path style="stroke:none;fill-rule:nonzero;fill:#fff;fill-opacity:1" d="M13.550781 71.554688 10.117188 76.296875 7.847656 74.644531zm0 0"/><path style="stroke:none;fill-rule:nonzero;fill:#fff;fill-opacity:1" d="M13.550781 78.445312 10.117188 73.703125 7.847656 75.355469zm0 0"/><path style="stroke:none;fill-rule:nonzero;fill:#fff;fill-opacity:1" d="M13.550781 78.445312l-5.554687-1.8125L8.863281 73.957031zm0 0"/><path style="stroke:none;fill-rule:nonzero;fill:#fff;fill-opacity:1" d="M46.210938 118.359375 48.015625 112.785156 45.347656 111.917969zm0 0"/><path style="stroke:none;fill-rule:nonzero;fill:#fff;fill-opacity:1" d="M46.210938 118.359375 44.40625 112.785156 47.070312 111.917969zm0 0"/><path style="stroke:none;fill-rule:nonzero;fill:#fff;fill-opacity:1" d="M40.65625 114.3125H46.496094V111.5zm0 0"/><path style="stroke:none;fill-rule:nonzero;fill:#fff;fill-opacity:1" d="M40.65625 114.3125 45.378906 110.867188 47.027344 113.140625zm0 0"/><path style="stroke:none;fill-rule:nonzero;fill:#fff;fill-opacity:1" d="M51.765625 114.3125 47.039062 110.867188 45.390625 113.140625zm0 0"/><path style="stroke:none;fill-rule:nonzero;fill:#fff;fill-opacity:1" d="M51.765625 114.3125H45.925781V111.5zm0 0"/><path style="stroke:none;fill-rule:nonzero;fill:#fff;fill-opacity:1" d="M42.777344 107.757812 44.582031 113.332031 47.25 112.464844zm0 0"/><path style="stroke:none;fill-rule:nonzero;fill:#fff;fill-opacity:1" d="M42.777344 107.757812 47.503906 111.203125 45.855469 113.480469zm0 0"/><path style="stroke:none;fill-rule:nonzero;fill:#fff;fill-opacity:1" d="M49.644531 107.757812 44.917969 111.203125 46.566406 113.480469zm0 0"/><path style="stroke:none;fill-rule:nonzero;fill:#fff;fill-opacity:1" d="M49.644531 107.757812 47.839844 113.332031 45.171875 112.464844zm0 0"/><path style="stroke:none;fill-rule:nonzero;fill:#fff;fill-opacity:1" d="M24.597656 112.550781 28.9375 108.628906 27.0625 106.539062zm0 0"/><path style="stroke:none;fill-rule:nonzero;fill:#fff;fill-opacity:1" d="M24.597656 112.550781 25.8125 106.820312 28.554688 107.402344zm0 0"/><path style="stroke:none;fill-rule:nonzero;fill:#fff;fill-opacity:1" d="M21.804688 106.257812 26.863281 109.1875 28.265625 106.75zm0 0"/><path style="stroke:none;fill-rule:nonzero;fill:#fff;fill-opacity:1" d="M21.804688 106.257812 27.613281 105.644531 27.90625 108.441406zm0 0"/><path style="stroke:none;fill-rule:nonzero;fill:#fff;fill-opacity:1" d="M31.425781 111.832031 29.050781 106.476562 26.488281 107.621094zm0 0"/><path style="stroke:none;fill-rule:nonzero;fill:#fff;fill-opacity:1" d="M31.425781 111.832031 26.367188 108.902344 27.769531 106.464844zm0 0"/><path style="stroke:none;fill-rule:nonzero;fill:#fff;fill-opacity:1" d="M26.90625 101.648438 25.691406 107.378906 28.433594 107.964844zm0 0"/><path style="stroke:none;fill-rule:nonzero;fill:#fff;fill-opacity:1" d="M26.90625 101.648438 29.28125 107 26.722656 108.144531zm0 0"/><path style="stroke:none;fill-rule:nonzero;fill:#fff;fill-opacity:1" d="M32.855469 105.09375 27.042969 105.707031 27.335938 108.503906zm0 0"/><path style="stroke:none;fill-rule:nonzero;fill:#fff;fill-opacity:1" d="M32.855469 105.09375 28.511719 109.011719 26.636719 106.921875zm0 0"/><path style="stroke:none;fill-rule:nonzero;fill:#fff;fill-opacity:1" d="M24.585938 133.199219 28.21875 128.609375 26.023438 126.859375zm0 0"/><path style="stroke:none;fill-rule:nonzero;fill:#fff;fill-opacity:1" d="M24.585938 133.199219 24.835938 127.34375 27.636719 127.464844zm0 0"/><path style="stroke:none;fill-rule:nonzero;fill:#fff;fill-opacity:1" d="M20.789062 127.460938 26.265625 129.503906 27.242188 126.871094zm0 0"/><path style="stroke:none;fill-rule:nonzero;fill:#fff;fill-opacity:1" d="M20.789062 127.460938 26.417969 125.886719 27.171875 128.597656zm0 0"/><path style="stroke:none;fill-rule:nonzero;fill:#fff;fill-opacity:1" d="M31.203125 131.351562 27.972656 126.46875 25.636719 128.023438zm0 0"/><path style="stroke:none;fill-rule:nonzero;fill:#fff;fill-opacity:1" d="M31.203125 131.351562 25.726562 129.304688 26.707031 126.667969zm0 0"/><path style="stroke:none;fill-rule:nonzero;fill:#fff;fill-opacity:1" d="M25.058594 122.0625 24.8125 127.917969 27.613281 128.039062zm0 0"/><path style="stroke:none;fill-rule:nonzero;fill:#fff;fill-opacity:1" d="M25.058594 122.0625 28.289062 126.945312 25.953125 128.5zm0 0"/><path style="stroke:none;fill-rule:nonzero;fill:#fff;fill-opacity:1" d="M31.496094 124.46875 25.867188 126.042969 26.621094 128.75zm0 0"/><path style="stroke:none;fill-rule:nonzero;fill:#fff;fill-opacity:1" d="M31.496094 124.46875 27.863281 129.058594 25.667969 127.308594zm0 0"/><path style="stroke:none;fill-rule:nonzero;fill:#fff;fill-opacity:1" d="M6.773438 122.882812 11.703125 119.742188 10.199219 117.367188zm0 0"/><path style="stroke:none;fill-rule:nonzero;fill:#fff;fill-opacity:1" d="M6.773438 122.882812 8.921875 117.433594 11.527344 118.46875zm0 0"/><path style="stroke:none;fill-rule:nonzero;fill:#fff;fill-opacity:1" d="M5.0625 116.214844 9.566406 119.945312 11.351562 117.777344zm0 0"/><path style="stroke:none;fill-rule:nonzero;fill:#fff;fill-opacity:1" d="M5.0625 116.214844 10.890625 116.578125 10.71875 119.382812zm0 0"/><path style="stroke:none;fill-rule:nonzero;fill:#fff;fill-opacity:1" d="M13.628906 123.3125 12.171875 117.636719 9.457031 118.339844zm0 0"/><path style="stroke:none;fill-rule:nonzero;fill:#fff;fill-opacity:1" d="M13.628906 123.3125 9.125 119.578125 10.910156 117.410156zm0 0"/><path style="stroke:none;fill-rule:nonzero;fill:#fff;fill-opacity:1" d="M10.859375 112.519531 8.710938 117.96875 11.320312 119zm0 0"/><path style="stroke:none;fill-rule:nonzero;fill:#fff;fill-opacity:1" d="M10.859375 112.519531l1.453125 5.671875L9.597656 118.894531zm0 0"/><path style="stroke:none;fill-rule:nonzero;fill:#fff;fill-opacity:1" d="M16.152344 116.90625 10.320312 116.542969 10.148438 119.347656zm0 0"/><path style="stroke:none;fill-rule:nonzero;fill:#fff;fill-opacity:1" d="M16.152344 116.90625 11.222656 120.046875 9.71875 117.675781zm0 0"/><path style="stroke:none;fill-rule:nonzero;fill:#fff;fill-opacity:1" d="M89.4375 75 83.878906 73.1875 83.015625 75.863281zm0 0"/><path style="stroke:none;fill-rule:nonzero;fill:#fff;fill-opacity:1" d="M89.4375 75 83.878906 76.8125 83.015625 74.136719zm0 0"/><path style="stroke:none;fill-rule:nonzero;fill:#fff;fill-opacity:1" d="M85.398438 80.574219V74.714844H82.597656zm0 0"/><path style="stroke:none;fill-rule:nonzero;fill:#fff;fill-opacity:1" d="M85.398438 80.574219 81.964844 75.832031 84.234375 74.179688zm0 0"/><path style="stroke:none;fill-rule:nonzero;fill:#fff;fill-opacity:1" d="M85.398438 69.425781 81.964844 74.167969 84.234375 75.820312zm0 0"/><path style="stroke:none;fill-rule:nonzero;fill:#fff;fill-opacity:1" d="M85.398438 69.425781v5.859375H82.597656zm0 0"/><path style="stroke:none;fill-rule:nonzero;fill:#fff;fill-opacity:1" d="M78.867188 78.445312 84.425781 76.632812 83.558594 73.957031zm0 0"/><path style="stroke:none;fill-rule:nonzero;fill:#fff;fill-opacity:1" d="M78.867188 78.445312 82.300781 73.703125 84.570312 75.355469zm0 0"/><path style="stroke:none;fill-rule:nonzero;fill:#fff;fill-opacity:1" d="M78.867188 71.554688 82.300781 76.296875 84.570312 74.644531zm0 0"/><path style="stroke:none;fill-rule:nonzero;fill:#fff;fill-opacity:1" d="M78.867188 71.554688 84.425781 73.367188 83.558594 76.042969zm0 0"/><path style="stroke:none;fill-rule:nonzero;fill:#fff;fill-opacity:1" d="M107.269531 64.683594l-5.78125-.859375L101.078125 66.605469zm0 0"/><path style="stroke:none;fill-rule:nonzero;fill:#fff;fill-opacity:1" d="M107.269531 64.683594 102.089844 67.394531 100.792969 64.902344zm0 0"/><path style="stroke:none;fill-rule:nonzero;fill:#fff;fill-opacity:1" d="M104.210938 70.851562 103.242188 65.074219 100.476562 65.542969zm0 0"/><path style="stroke:none;fill-rule:nonzero;fill:#fff;fill-opacity:1" d="M104.210938 70.851562 100.039062 66.75 102.003906 64.742188zm0 0"/><path style="stroke:none;fill-rule:nonzero;fill:#fff;fill-opacity:1" d="M102.367188 59.863281 99.765625 65.109375 102.273438 66.359375zm0 0"/><path style="stroke:none;fill-rule:nonzero;fill:#fff;fill-opacity:1" d="M102.367188 59.863281 103.335938 65.640625 100.570312 66.105469zm0 0"/><path style="stroke:none;fill-rule:nonzero;fill:#fff;fill-opacity:1" d="M97.417969 69.839844 102.597656 67.128906 101.300781 64.636719zm0 0"/><path style="stroke:none;fill-rule:nonzero;fill:#fff;fill-opacity:1" d="M97.417969 69.839844 100.019531 64.59375 102.53125 65.847656zm0 0"/><path style="stroke:none;fill-rule:nonzero;fill:#fff;fill-opacity:1" d="M96.277344 63.046875 100.449219 67.152344 102.410156 65.144531zm0 0"/><path style="stroke:none;fill-rule:nonzero;fill:#fff;fill-opacity:1" d="M96.277344 63.046875 102.054688 63.910156 101.644531 66.691406zm0 0"/><path style="stroke:none;fill-rule:nonzero;fill:#fff;fill-opacity:1" d="M107.269531 85.316406 102.089844 82.605469 100.792969 85.097656zm0 0"/><path style="stroke:none;fill-rule:nonzero;fill:#fff;fill-opacity:1" d="M107.269531 85.316406l-5.78125.859375L101.078125 83.394531zm0 0"/><path style="stroke:none;fill-rule:nonzero;fill:#fff;fill-opacity:1" d="M102.367188 90.136719 103.335938 84.359375 100.570312 83.894531zm0 0"/><path style="stroke:none;fill-rule:nonzero;fill:#fff;fill-opacity:1" d="M102.367188 90.136719 99.765625 84.890625 102.273438 83.640625zm0 0"/><path style="stroke:none;fill-rule:nonzero;fill:#fff;fill-opacity:1" d="M104.210938 79.148438 100.039062 83.25 102.003906 85.257812zm0 0"/><path style="stroke:none;fill-rule:nonzero;fill:#fff;fill-opacity:1" d="M104.210938 79.148438 103.242188 84.925781 100.476562 84.457031zm0 0"/><path style="stroke:none;fill-rule:nonzero;fill:#fff;fill-opacity:1" d="M96.277344 86.953125 102.054688 86.089844 101.644531 83.308594zm0 0"/><path style="stroke:none;fill-rule:nonzero;fill:#fff;fill-opacity:1" d="M96.277344 86.953125 100.449219 82.847656 102.410156 84.855469zm0 0"/><path style="stroke:none;fill-rule:nonzero;fill:#fff;fill-opacity:1" d="M97.417969 80.160156 100.019531 85.40625 102.53125 84.152344zm0 0"/><path style="stroke:none;fill-rule:nonzero;fill:#fff;fill-opacity:1" d="M97.417969 80.160156 102.597656 82.871094 101.300781 85.363281zm0 0"/><path style="stroke:none;fill-rule:nonzero;fill:#fff;fill-opacity:1" d="M67.824219 112.550781 66.609375 106.820312 63.867188 107.402344zm0 0"/><path style="stroke:none;fill-rule:nonzero;fill:#fff;fill-opacity:1" d="M67.824219 112.550781l-4.34375-3.921875L65.359375 106.539062zm0 0"/><path style="stroke:none;fill-rule:nonzero;fill:#fff;fill-opacity:1" d="M60.992188 111.832031 66.050781 108.902344 64.652344 106.464844zm0 0"/><path style="stroke:none;fill-rule:nonzero;fill:#fff;fill-opacity:1" d="M60.992188 111.832031 63.371094 106.476562 65.929688 107.621094zm0 0"/><path style="stroke:none;fill-rule:nonzero;fill:#fff;fill-opacity:1" d="M70.617188 106.257812 64.804688 105.644531 64.511719 108.441406zm0 0"/><path style="stroke:none;fill-rule:nonzero;fill:#fff;fill-opacity:1" d="M70.617188 106.257812 65.558594 109.1875 64.15625 106.75zm0 0"/><path style="stroke:none;fill-rule:nonzero;fill:#fff;fill-opacity:1" d="M59.566406 105.09375 63.90625 109.011719 65.78125 106.921875zm0 0"/><path style="stroke:none;fill-rule:nonzero;fill:#fff;fill-opacity:1" d="M59.566406 105.09375 65.375 105.707031 65.082031 108.503906zm0 0"/><path style="stroke:none;fill-rule:nonzero;fill:#fff;fill-opacity:1" d="M65.511719 101.648438 63.136719 107 65.699219 108.144531zm0 0"/><path style="stroke:none;fill-rule:nonzero;fill:#fff;fill-opacity:1" d="M65.511719 101.648438 66.726562 107.378906 63.984375 107.964844zm0 0"/><path style="stroke:none;fill-rule:nonzero;fill:#fff;fill-opacity:1" d="M126.820312 75 121.265625 73.1875 120.398438 75.863281zm0 0"/><path style="stroke:none;fill-rule:nonzero;fill:#fff;fill-opacity:1" d="M126.820312 75 121.265625 76.8125 120.398438 74.136719zm0 0"/><path style="stroke:none;fill-rule:nonzero;fill:#fff;fill-opacity:1" d="M122.785156 80.574219V74.714844H119.980469zm0 0"/><path style="stroke:none;fill-rule:nonzero;fill:#fff;fill-opacity:1" d="M122.785156 80.574219 119.351562 75.832031 121.617188 74.179688zm0 0"/><path style="stroke:none;fill-rule:nonzero;fill:#fff;fill-opacity:1" d="M122.785156 69.425781 119.351562 74.167969 121.617188 75.820312zm0 0"/><path style="stroke:none;fill-rule:nonzero;fill:#fff;fill-opacity:1" d="M122.785156 69.425781v5.859375H119.980469zm0 0"/><path style="stroke:none;fill-rule:nonzero;fill:#fff;fill-opacity:1" d="M116.253906 78.445312 121.808594 76.632812 120.941406 73.957031zm0 0"/><path style="stroke:none;fill-rule:nonzero;fill:#fff;fill-opacity:1" d="M116.253906 78.445312 119.6875 73.703125 121.957031 75.355469zm0 0"/><path style="stroke:none;fill-rule:nonzero;fill:#fff;fill-opacity:1" d="M116.253906 71.554688 119.6875 76.296875 121.957031 74.644531zm0 0"/><path style="stroke:none;fill-rule:nonzero;fill:#fff;fill-opacity:1" d="M116.253906 71.554688 121.808594 73.367188 120.941406 76.042969zm0 0"/></g></svg>