<svg xmlns="http://www.w3.org/2000/svg" xmlns:xlink="http://www.w3.org/1999/xlink" width="250pt" height="150pt" viewBox="0 0 250 150"><g id="surface1"><path d="M0 0h250v150H0z" style="fill:#e2382a;fill-opacity:1;stroke:none"/><path style="stroke:none;fill-rule:nonzero;fill:#fff;fill-opacity:1" d="M0 30H250v90H0zm0 0"/><path style="stroke:none;fill-rule:nonzero;fill:#e2382a;fill-opacity:1" d="M113.582031 43.3125C112.429688 42.757812 110.351562 43.085938 108.4375 42.777344 104.589844 42.160156 104.113281 41.070312 104.113281 40.265625 104.09375 39.425781 103.332031 39.382812 103.332031 40.289062 103.355469 45.636719 111.398438 42.902344 113.683594 44.28125M87.40625 41.480469C87.429688 40.042969 86.441406 39.113281 85.574219 39.03125 86.089844 39.628906 86.195312 40.492188 86.277344 41.335938 86.109375 40.144531 85.226562 39.363281 84.464844 39.320312 84.875 39.753906 85.101562 40.636719 85.144531 41.503906 85.019531 40.84375 84.402344 39.855469 83.375 39.753906 83.847656 40.246094 83.992188 41.171875 84.09375 42.015625 83.949219 41.296875 83.210938 40.472656 82.386719 40.410156 82.738281 40.699219 83.023438 41.75 83.085938 42.550781 82.984375 42.222656 82.40625 41.417969 81.503906 41.316406 81.976562 41.75 82.179688 42.796875 82.261719 43.621094M85.863281 63.25C85.617188 62.121094 84.628906 60.925781 83.519531 61.070312 84.03125 61.417969 84.425781 62.738281 84.566406 63.582031 84.21875 62.632812 83.355469 61.625 82.324219 61.75 82.878906 62.242188 83.210938 63.457031 83.414062 64.363281 82.859375 63.3125 82.179688 62.53125 81.171875 62.65625 81.851562 63.3125 82.097656 64.464844 82.261719 65.351562 81.933594 64.609375 81.171875 63.703125 80.144531 63.804688 80.78125 64.382812 81.050781 65.636719 81.277344 66.5625 80.863281 66.007812 80.246094 65.226562 79.28125 65.308594 79.917969 65.925781 80.207031 67.140625 80.472656 68.066406m8.683594 35.453125C88.066406 102.859375 86.5625 103.085938 85.863281 103.992188 86.644531 103.847656 87.796875 104.28125 88.25 104.648438 87.511719 104.175781 85.96875 104.464844 85.371094 105.289062 86.070312 105.101562 87.203125 105.574219 87.796875 105.925781 87.015625 105.660156 85.800781 105.71875 85.042969 106.644531 85.679688 106.503906 86.726562 106.851562 87.40625 107.242188 86.441406 107.015625 85.492188 107.386719 84.9375 108.046875 85.78125 107.859375 86.726562 108.355469 87.304688 108.621094 86.214844 108.601562 85.554688 109.03125 85.164062 109.484375 85.863281 109.339844 86.933594 109.710938 87.714844 110.125M117.777344 110.289062C116.359375 110.101562 115.183594 110.96875 114.835938 111.976562 115.226562 111.667969 116.460938 111.480469 117.261719 111.726562 116.152344 111.667969 115.042969 112.570312 114.816406 113.394531 115.265625 113.023438 116.707031 112.921875 117.242188 113.148438 116.234375 113.1875 115.265625 113.949219 114.980469 114.792969 115.453125 114.484375 116.769531 114.363281 117.511719 114.546875 116.417969 114.710938 115.636719 115.492188 115.390625 116.214844 116.050781 115.78125 116.914062 115.824219 117.984375 115.886719 116.871094 116.296875 116.503906 116.769531 116.132812 117.511719 116.75 117.121094 117.839844 117.097656 118.910156 117.179688"/><path style="stroke:none;fill-rule:nonzero;fill:#000;fill-opacity:1" d="M110.410156 34.753906 105.390625 34.9375C105.144531 34.957031 104.957031 35.082031 104.957031 35.371094 104.980469 37.179688 105.328125 38.355469 106.625 39.300781 106.460938 40.308594 106.5625 40.824219 107.613281 41.667969 107.714844 40.84375 108.046875 40.472656 108.558594 40.125 108.601562 40.144531 108.640625 40.144531 108.664062 40.164062 108.601562 40.535156 108.601562 40.925781 108.683594 41.152344 108.890625 41.726562 109.898438 41.75 110.164062 41.335938 110.410156 41.933594 110.925781 41.953125 111.335938 41.953125 111.769531 41.953125 111.976562 41.644531 112.121094 41.359375 112.367188 41.5625 112.613281 41.789062 112.839844 42.078125 113.558594 43.066406 113.683594 44.339844 113.683594 45.554688L113.003906 45.617188V45.125C112.984375 44.425781 111.359375 44.300781 110.988281 44.898438 110.574219 44.445312 109.300781 44.527344 109.300781 45.246094V45.472656C109.011719 45.101562 108.785156 44.710938 108.601562 44.320312 108.085938 44.648438 107.777344 44.898438 107.859375 46.070312 107.632812 46.089844 107.40625 46.109375 107.203125 46.132812 107.222656 47.488281 107.820312 47.859375 112.675781 47.757812 112.796875 49.113281 111.441406 49.875 110.433594 50.515625 107.796875 52.015625 105.019531 53.664062 103.519531 56.417969 102.261719 58.601562 101.953125 61.195312 102.097656 63.703125L103.539062 63.066406 103.703125 63.847656C101.109375 65.082031 96.378906 67.59375 93.273438 69.03125 92.511719 69.382812 90.535156 69.875 90.125 69.175781 88.703125 66.726562 87.570312 64.875 85.925781 63.003906 85.082031 62.035156 79.484375 66.667969 80.515625 68.230469 82.859375 71.789062 86.6875 76.894531 93.066406 76.933594 99.671875 76.976562 105.410156 74.546875 106.667969 74.175781l.265625.84375C106.089844 75.390625 105.351562 75.660156 104.464844 75.945312 105.617188 80.472656 106.953125 82.242188 110.0625 85L109.425781 85.472656C108.867188 85.144531 107.921875 84.09375 107.40625 83.601562 100.800781 86.726562 98.332031 89.855469 96.75 93.085938 95 96.976562 95.328125 101.398438 96.070312 105.492188 96.214844 106.171875 95.472656 106.503906 94.917969 106.296875 93.394531 105.945312 92.550781 104.425781 91.089844 103.867188 90.433594 103.582031 89.566406 103.25 88.847656 103.375 87.675781 103.582031 86.417969 109.507812 87.613281 110.082031 89.835938 111.171875 92.261719 111.398438 94.734375 112.675781 96.359375 113.332031 97.921875 114.402344 99.773438 114.113281 100.824219 114.011719 101.871094 113.292969 101.976562 112.179688 102.902344 108.1875 104.199219 103.949219 107.242188 101.070312 108.703125 99.628906 110.597656 98.476562 112.46875 97.59375 111.726562 94.753906 111.171875 91.914062 111.234375 88.949219L112.140625 88.910156C112.796875 100.183594 115.800781 102.550781 121.089844 107.796875 121.625 108.332031 121.585938 109.339844 120.800781 109.648438 119.773438 110.164062 118.558594 110.183594 117.386719 110.246094 116.132812 110.308594 117.078125 117.261719 118.929688 117.203125c3.25-.10546899999999937 6.625-2.6367189999999994 8.582031-5.125C128.332031 111.050781 129.320312 110.019531 130.101562 109.011719 131.070312 107.757812 130.019531 106.296875 129.734375 105.144531 128.929688 101.851562 128.558594 92.386719 128.519531 91.070312L129.671875 91.089844 129.835938 88.703125C126.398438 84.445312 126.953125 77.777344 125.535156 73.476562 124.980469 71.726562 124.363281 69.917969 124.363281 68.066406 124.363281 65.554688 127.203125 60.84375 127.140625 56.644531 127.121094 54.875 126.132812 52.570312 126.152344 51.523438 126.171875 48.476562 127.921875 49.136719 127.878906 42.796875 127.859375 41.050781 127.65625 39.753906 127.203125 37.964844 130.265625 34.734375 126.050781 31.503906 123.621094 33.519531c-1.953125-.515625-2.203125-1.03125-6.027343999999999-1.03125C114.320312 32.488281 112.449219 33.375 110.410156 34.734375M104.484375 53.621094C102.324219 56.277344 101.109375 57.613281 101.195312 64.054688 80.800781 52.40625 86.769531 50.742188 82.304688 43.785156 81.605469 42.695312 86.152344 40.164062 87.59375 41.234375 90.492188 43.375 89.425781 47.40625 91.832031 49.238281 94.21875 51.050781 98.476562 51.851562 104.484375 53.621094M116.933594 38.664062C116.625 38.664062 116.070312 38.496094 115.90625 38.273438 114.113281 35.535156 113.664062 36.523438 113.394531 37.46875 113.167969 38.3125 112.179688 38.332031 112.46875 37.203125 113.1875 34.425781 115.144531 34.816406 117.570312 38.664062M122.820312 35.886719C123.3125 35.226562 124.074219 34.589844 124.898438 34.320312 126.109375 33.910156 126.605469 34.898438 125.636719 35.226562 124.835938 35.574219 124.15625 36.070312 123.582031 36.644531M106.851562 39.445312C107.160156 39.628906 107.59375 39.855469 108.230469 40.042969 107.878906 40.328125 107.550781 40.742188 107.449219 41.195312 106.894531 40.800781 106.667969 40.082031 106.851562 39.445312M110.144531 40.535156C110.144531 40.800781 110.082031 41.070312 110 41.195312 109.792969 41.523438 109.03125 41.503906 108.867188 41.050781 108.804688 40.863281 108.804688 40.535156 108.890625 40.226562 109.300781 40.328125 109.734375 40.410156 110.144531 40.535156M110.390625 40.597656C110.945312 40.761719 111.480469 40.945312 111.953125 41.253906 111.851562 41.503906 111.667969 41.75 111.296875 41.75 110.96875 41.75 110.597656 41.726562 110.390625 41.335938 110.289062 41.132812 110.328125 40.84375 110.390625 40.597656M108.066406 46.050781c-.0625-.578125.0-1.0703120000000013.453125-1.402343000000002C108.746094 45.0625 108.992188 45.453125 109.28125 45.800781V45.945312M109.484375 45.9375V45.289062C109.484375 44.609375 110.925781 44.648438 110.945312 45.289062V45.800781M111.132812 45.78125V45.207031C111.132812 44.527344 112.796875 44.566406 112.796875 45.183594v.453125"/></g></svg>