<svg xmlns="http://www.w3.org/2000/svg" xmlns:xlink="http://www.w3.org/1999/xlink" width="224pt" height="150pt" viewBox="0 0 224 150"><g id="surface1"><path style="stroke:none;fill-rule:evenodd;fill:#0a4fa2;fill-opacity:1" d="M0 .00390625H224.085938V149.917969H0zm0 0"/><path style="fill-rule:nonzero;fill:#deb308;fill-opacity:1;stroke-width:.505195;stroke-linecap:butt;stroke-linejoin:miter;stroke:#deb308;stroke-opacity:1;stroke-miterlimit:4" d="M581.390568-507.569381C583.510089-507.824294 584.716023-508.006374 584.990099-508.115623 585.181952-508.188455 585.355533-508.416056 585.510843-508.789321V-509.044234C585.510843-509.417499 585.574794-510.792208 585.69356-513.150152 585.720968-513.814747 585.730104-514.461133 585.730104-515.098415L585.666153-517.793209 585.711832-520.852163 585.684424-526.542183 585.711832-530.620789C585.720968-532.341451 585.602202-533.397519 585.328126-533.770784 585.063186-534.153154 584.36886-534.41717 583.245149-534.581043 582.121437-534.735812 581.509334-534.854164 581.390568-534.926996 581.271802-535.008933 581.216987-535.127285 581.216987-535.291158 581.216987-535.400406 581.235258-535.536966 581.280938-535.700839 581.427111-535.837399 581.765138-535.910232 582.285883-535.92844 582.35897-535.92844 582.559959-535.946648 582.88885-535.983064 583.208605-536.01948 583.519224-536.037688 583.811572-536.037688H585.602202L591.339525-536.11052C594.582757-536.11052 596.857587-535.855607 598.15488-535.36399 599.461309-534.863268 600.493661-534.016593 601.27021-532.833069 602.037622-531.649545 602.421329-530.320356 602.421329-528.854607 602.421329-526.077877 601.023541-523.947534 598.209695-522.481785 597.73463-522.226872 597.350924-521.999271 597.076848-521.808087 597.570185-520.715603 598.26451-519.413726 599.150689-517.884249L601.918856-512.94076C603.024296-511.129057 603.791709-509.991053 604.211958-509.526748 604.632208-509.071546 605.143817-508.689177 605.746784-508.388744 606.349751-508.079207 607.372968-507.796982 608.798162-507.523861 608.807298-507.369092 608.816434-507.25074 608.816434-507.1597 608.816434-507.068659 608.807298-506.959411 608.798162-506.82285 606.797408-506.786434 604.467763-506.77733 601.790954-506.77733 601.599101-506.77733 601.343297-506.795538 601.00527-506.82285 599.972917-508.880361 598.757847-511.138161 597.36006-513.59625L594.135099-519.723263C593.696578-520.351441 593.340279-520.752019 593.057067-520.906787 592.76472-521.07066 592.390149-521.143492 591.933356-521.143492L590.078775-521.125284 589.466672-521.143492C589.420993-520.660979 589.393586-519.677743 589.393586-518.175578V-510.428047C589.38445-510.136718 589.439265-509.73614 589.576303-509.226315 589.685933-508.934986 589.886922-508.707385 590.170134-508.534408 590.453346-508.361432 591.275574-508.097415 592.627682-507.751462L593.522996-507.523861C593.641763-507.369092 593.696578-507.168804 593.696578-506.913891 593.303736-506.831954 593.02966-506.795538 592.865214-506.795538 591.558786-506.795538 590.636063-506.813746 590.097047-506.841058 589.822971-506.859266 589.594575-506.86837 589.420993-506.86837L586.451837-506.82285 583.546632-506.841058C583.41873-506.841058 582.760948-506.82285 581.564149-506.77733L581.125628-506.86837 581.089084-507.095971C581.089084-507.232532 581.189579-507.3873 581.390568-507.569381zM589.503216-522.390745C589.896058-522.381641 590.188406-522.372537 590.380259-522.372537 591.430883-522.372537 592.636818-522.499993 593.998061-522.754906 594.957327-522.955195 595.743012-523.273836 596.336843-523.719933 596.930674-524.166031 597.433147-524.830625 597.835125-525.704612 598.227967-526.578599 598.428956-527.489002 598.428956-528.426718 598.428956-529.455473 598.118336-530.538853 597.497098-531.685961 597.012897-532.569052 596.199805-533.297375 595.057822-533.889137 593.915839-534.480899 592.545459-534.772228 590.946683-534.772228 590.55384-534.772228 590.042232-534.744916 589.420993-534.699395 589.366178-533.916449 589.329635-533.315583 589.329635-532.887693L589.439265-528.654318 589.420993-526.906344C589.420993-525.72282 589.448401-524.220655 589.503216-522.390745zm0 0" transform="matrix(0.427573,0,0,0.429068,-178.426809,251.652946)"/><path style="fill-rule:nonzero;fill:#deb308;fill-opacity:1;stroke-width:.505195;stroke-linecap:butt;stroke-linejoin:miter;stroke:#deb308;stroke-opacity:1;stroke-miterlimit:4" d="M609.328043-507.460133C609.455945-507.596693 609.556439-507.678629 609.647798-507.705941 609.857923-507.787878 610.214221-507.842502 610.716694-507.888022 611.904356-507.979062 612.644362-508.115623 612.927573-508.297703 613.101155-508.607241 613.183378-509.03513 613.183378-509.581372L613.165106-511.174577 613.183378-516.955638 613.146834-519.686847 613.165106-525.404179 613.073747-531.904458C613.064611-533.452143 612.982389-534.32613 612.836215-534.517315 612.616954-534.808644 611.959172-534.972516 610.862868-535.018037 610.396939-535.036245 609.985825-535.081765 609.629526-535.154597 609.465081-535.263845 609.382858-535.400406 609.382858-535.564278 609.382858-535.691735 609.419401-535.837399 609.474216-536.001272 609.592983-536.074104 609.684341-536.11052 609.7757-536.11052 609.949281-536.11052 610.15027-536.11052 610.396939-536.092312 611.127808-536.01948 611.876949-535.97396 612.653497-535.97396L614.014741-536.01948 617.267109-535.92844C618.884157-535.92844 620.154042-535.955752 621.067629-536.001272 621.972079-536.046792 622.593318-536.065 622.913074-536.065 623.196285-536.065 623.890611-536.037688 625.014322-535.97396L627.636316-536.001272 627.946935-535.92844 629.472625-536.001272 629.664478-535.88292C629.719293-535.764567 629.764972-535.637111 629.79238-535.50055 629.79238-535.282053 629.764972-534.963412 629.710157-534.517315 629.655342-534.080321 629.627934-533.8072 629.627934-533.697952 629.627934-532.122954 629.664478-530.784662 629.755836-529.692178 629.737565-529.601138 629.701021-529.537409 629.646206-529.510097 629.509168-529.510097 629.381266-529.528305 629.271635-529.573826 629.134598-529.865155 628.961016-530.37498 628.732619-531.103303 628.504223-531.831625 628.15706-532.6783 627.709403-533.634224 627.398783-534.271506 627.161251-534.644771 626.987669-534.772228 626.814088-534.89058 626.457789-534.954308 625.918773-534.954308 625.809143-534.954308 625.242719-534.963412 624.237774-534.999828 623.963698-535.008933 623.698758-535.018037 623.442954-535.018037L618.189831-534.881476H617.723902C617.047848-534.881476 616.64587-534.781332 616.508832-534.562835 616.298707-534.198674 616.189077-533.133502 616.189077-531.349112 616.189077-531.167031 616.225621-529.346225 616.289572-525.886693V-522.71849C616.417474-522.67297 616.572783-522.654761 616.728093-522.654761H617.038712C617.248837-522.654761 617.559457-522.645657 617.961435-522.627449 618.600945-522.600137 619.030331-522.581929 619.258728-522.581929 619.404901-522.581929 619.532804-522.591033 619.642434-522.609241 620.97627-522.663866 622.684677-522.700282 624.77679-522.700282 625.425436-522.836842 625.809143-522.991611 625.918773-523.173691 626.10149-523.446812 626.238528-524.166031 626.329887-525.313139 626.421246-526.469351 626.631371-527.124841 626.951126-527.27961 627.106436-527.27961 627.252609-527.234089 627.389647-527.161257 627.417055-527.042905 627.426191-526.924552 627.426191-526.824408 627.426191-526.71516 627.417055-526.542183 627.389647-526.296374 627.334832-525.731924 627.298289-523.974846 627.298289-521.016036 627.298289-520.223985 627.334832-519.340894 627.398783-518.366763 627.47187-517.401735 627.499278-516.873701 627.499278-516.800869 627.499278-516.664309 627.481006-516.482228 627.444463-516.254627 627.353104-516.190899 627.270881-516.163587 627.20693-516.163587H627.079028C626.878039-516.582372 626.695322-517.246967 626.503468-518.139162 626.183713-519.677743 625.854822-520.633666 625.498523-521.02514 625.15136-521.407509 624.584937-521.607798 623.790117-521.607798 623.625671-521.607798 623.305916-521.58959 622.858258-521.571382 622.401465-521.54407 621.725411-521.534966 620.820961-521.534966H619.624162C617.915756-521.534966 616.792044-521.489445 616.2713-521.398405L616.253028-520.651875 616.2713-516.454916 616.253028-513.814747 616.2713-511.238306C616.280436-509.69062 616.362658-508.798425 616.508832-508.552616 616.718957-508.215767 617.17575-508.051895 617.870076-508.051895L618.993788-508.070103C619.094282-508.070103 619.477988-508.060999 620.154042-508.042791 620.820961-508.015478 621.652324-508.006374 622.629862-508.006374 625.005187-508.006374 626.585691-508.133831 627.371376-508.37964 628.15706-508.634553 628.805706-509.08065 629.317315-509.717932 629.828923-510.355215 630.47757-511.729923 631.244982-513.832955 631.482515-514.461133 631.710911-514.77067 631.948444-514.77067 632.058074-514.77067 632.185976-514.706942 632.313878-514.588589 631.95758-513.086424 631.756591-512.094085 631.710911-511.629779 631.573873-510.564607 631.491651-509.481228 631.473379-508.370536 631.473379-507.869814 631.372884-507.451029 631.171895-507.114179H630.769917L625.580746-507.050451 623.260236-507.068659 617.723902-506.977619H615.47648C615.193268-506.977619 614.928328-506.968515 614.681659-506.959411 612.47078-506.841058 610.83546-506.77733 609.793972-506.77733 609.611254-506.77733 609.483352-506.813746 609.410265-506.886579 609.346314-506.968515 609.309771-507.077763 609.309771-507.232532zm0 0" transform="matrix(0.427573,0,0,0.429068,-178.426809,251.652946)"/><path style="fill-rule:nonzero;fill:#deb308;fill-opacity:1;stroke-width:.505195;stroke-linecap:butt;stroke-linejoin:miter;stroke:#deb308;stroke-opacity:1;stroke-miterlimit:4" d="M662.836803-534.171362 663.074335-530.811974C663.165694-529.792322 663.211373-529.100416 663.211373-528.736255L662.590134-528.617902C661.594325-530.866598 660.370119-532.54174 658.899245-533.661536 657.428371-534.781332 655.628605-535.345782 653.499949-535.345782 650.896228-535.345782 648.868066-535.027141 647.424599-534.389858 645.32335-533.497663 643.523585-531.93177 642.034439-529.701282 640.545293-527.479898 639.796152-524.794209 639.796152-521.653318 639.796152-519.841616 640.070228-518.211994 640.61838-516.773557 641.166531-515.326016 641.933944-513.978619 642.929753-512.731367 643.934699-511.493219 645.113225-510.409839 646.465333-509.499436 647.360648-508.889466 648.411272-508.434264 649.644614-508.124727 650.33894-507.960854 651.371292-507.878918 652.741672-507.878918 653.627851-507.878918 654.614524-508.006374 655.692557-508.261287 656.770589-508.507096 657.583681-508.843945 658.131832-509.262731 658.679984-509.681516 659.054555-510.154926 659.255544-510.692064 659.447397-511.220098 659.547891-512.248853 659.547891-513.787435 659.547891-516.336563 659.383446-517.820521 659.045419-518.239306 658.698256-518.658092 657.62936-518.940317 655.829595-519.067773L654.943416-519.131501 654.340449-519.113293C654.24909-519.131501 654.130324-519.149709 653.98415-519.177021L653.655259-519.732367C653.655259-519.8052 653.700938-519.905344 653.810568-520.023696 654.577981-520.142049 656.249844-520.196673 658.817022-520.196673 659.392582-520.196673 660.333576-520.178465 661.640005-520.151153L663.914835-520.069216 665.97954-520.087425C666.381518-520.087425 666.856583-520.069216 667.423007-520.041904 667.523501-520.023696 667.596588-520.005488 667.623996-519.969072 667.651404-519.932656 667.669675-519.868928 667.669675-519.777887 667.669675-519.614015 667.633132-519.404622 667.560045-519.158813 666.938806-519.022253 666.454605-518.958525 666.116578-518.958525L664.673112-518.976733C664.188911-518.976733 663.796069-518.81286 663.494585-518.476011 663.348411-518.312138 663.275324-517.756792 663.275324-516.809973L663.302732-513.914891C663.302732-511.930212 663.220509-510.655648 663.056064-510.11851 662.964705-509.790765 662.781988-509.499436 662.498776-509.244523 662.215564-508.980506 661.630869-508.680073 660.726418-508.325016 659.438261-507.806086 658.26887-507.460133 657.227382-507.287156 655.272307-506.941203 653.390319-506.77733 651.572282-506.77733 648.639669-506.77733 646.246072-507.150595 644.37322-507.888022 642.500368-508.634553 640.892456-509.672412 639.540348-511.001601 638.18824-512.321685 637.219838-513.669082 636.644278-515.025583 635.776371-517.010262 635.33785-519.040461 635.33785-521.107076 635.33785-523.683517 636.02304-526.205334 637.393419-528.68163 638.754663-531.148823 640.965542-533.15171 644.007785-534.699395 646.154714-535.791879 649.059919-536.338121 652.741672-536.338121 655.290578-536.338121 657.36442-536.119624 658.981468-535.673527 660.607652-535.236533 661.886673-534.735812 662.836803-534.171362zm0 0" transform="matrix(0.427573,0,0,0.429068,-178.426809,251.652946)"/><path style="fill-rule:nonzero;fill:#deb308;fill-opacity:1;stroke-width:.505195;stroke-linecap:butt;stroke-linejoin:miter;stroke:#deb308;stroke-opacity:1;stroke-miterlimit:4" d="M669.350674-507.505653C669.643022-507.642213 669.93537-507.724149 670.227717-507.751462 672.228472-507.90623 673.370455-508.179351 673.653667-508.579928 673.936879-508.980506 674.083052-510.928769 674.083052-514.415613L674.064781-516.800869V-519.295374L673.982558-522.053895 674.028237-523.665309 674.009965-525.440595V-527.525418L673.964286-528.463134 674.009965-529.637554C674.019101-529.910675 674.028237-530.229316 674.028237-530.593477 674.028237-531.5494 673.982558-532.559948 673.909471-533.616016 673.854656-533.834512 673.781569-534.034801 673.69021-534.23509 673.215145-534.517315 672.429461-534.717604 671.360565-534.808644 670.282533-534.908788 669.67043-535.018037 669.524256-535.145493 669.423761-535.236533 669.368946-535.464134 669.350674-535.846503H670.99513L676.175165-535.709943C677.509002-535.709943 679.281359-535.755463 681.492239-535.846503 681.492239-535.600695 681.483103-535.373094 681.455695-535.163701 681.199891-535.090869 680.76137-535.008933 680.149267-534.917892 678.906789-534.744916 678.148512-534.590147 677.874436-534.435379 677.709991-534.362546 677.582089-534.23509 677.509002-534.053009 677.371964-533.779888 677.298877-533.270062 677.271469-532.532636L677.170975-529.592034 677.253198-519.477454V-515.480784C677.22579-514.224428 677.216654-513.368649 677.216654-512.913448 677.216654-511.220098 677.244062-510.136718 677.317149-509.663308 677.390235-509.189899 677.518138-508.853049 677.691719-508.652761 677.8653-508.443368 678.157648-508.279495 678.559626-508.161143 679.162593-507.99727 679.628522-507.90623 679.966549-507.888022 680.697419-507.86071 681.163348-507.742358 681.355201-507.523861 681.40088-507.332676 681.419152-507.1597 681.419152-507.023139V-506.841058C680.231489-506.795538 679.354446-506.77733 678.797159-506.77733 678.468268-506.77733 677.892708-506.795538 677.052208-506.841058L674.357128-506.795538 669.761788-506.82285H669.387218zm0 0" transform="matrix(0.427573,0,0,0.429068,-178.426809,251.652946)"/><path style="fill-rule:nonzero;fill:#deb308;fill-opacity:1;stroke-width:.505195;stroke-linecap:butt;stroke-linejoin:miter;stroke:#deb308;stroke-opacity:1;stroke-miterlimit:4" d="M685.09177-521.753462C685.09177-523.292044 685.283623-524.666752 685.658193-525.877589 686.032764-527.079321 686.663138-528.381197 687.549317-529.792322 688.435496-531.203447 689.504392-532.377867 690.756006-533.324687 692.007619-534.271506 693.743433-535.109077 695.954313-535.837399 697.516546-536.338121 699.480757-536.58393 701.865217-536.58393 703.47313-536.58393 705.044498-536.374537 706.579324-535.946648 708.114149-535.527862 709.5028-534.9361 710.76355-534.180466 712.015163-533.424831 713.266777-532.250411 714.51839-530.675413 715.386297-529.592034 716.04408-528.417614 716.491737-527.161257 717.067296-525.504323 717.359644-523.801869 717.359644-522.044791 717.359644-520.041904 717.167791-518.384971 716.774949-517.064886 716.382107-515.753905 715.73346-514.452029 714.819874-513.159256 714.09814-512.157813 712.864799-511.010705 711.128984-509.708828 709.968729-508.825737 708.525263-508.115623 706.798584-507.578485 705.071906-507.041347 703.208189-506.77733 701.207435-506.77733 699.170137-506.77733 697.361236-507.014035 695.771595-507.478341 694.181955-507.95175 692.857255-508.525304 691.797494-509.199003 690.737734-509.872701 689.64143-510.86504 688.517719-512.185125 687.394007-513.50521 686.544372-514.952751 685.959677-516.545956 685.384117-518.139162 685.09177-519.868928 685.09177-521.753462zM700.99731-507.614901C702.276331-507.614901 703.610168-507.796982 704.998819-508.152039 706.378335-508.507096 707.60254-509.098858 708.671437-509.918221 709.740333-510.746688 710.580832-511.684403 711.183799-512.740471 711.786767-513.796539 712.270967-515.143935 712.636402-516.791765 713.001837-518.448699 713.184554-520.096529 713.184554-521.753462 713.184554-523.810974 712.88307-525.850277 712.270967-527.862268 711.795902-529.391745 711.02849-530.75735 709.959594-531.959082 708.890697-533.169918 707.593405-534.098529 706.085987-534.75402 704.569433-535.418614 702.961521-535.746359 701.253114-535.746359 699.855327-535.746359 698.503219-535.518758 697.169383-535.063557 695.844682-534.608355 694.748379-534.034801 693.889607-533.324687 693.039972-532.623676 692.245152-531.622233 691.505147-530.32946 690.774277-529.027584 690.21699-527.607355 689.833283-526.041461 689.458713-524.484672 689.26686-523.100859 689.26686-521.908231 689.26686-520.651875 689.458713-519.231646 689.833283-517.63844 690.21699-516.045234 690.737734-514.670526 691.404652-513.50521 692.07157-512.33079 692.884662-511.302034 693.8622-510.400735 694.830601-509.499436 695.917769-508.807529 697.123703-508.33412 698.329638-507.851606 699.617795-507.614901 700.99731-507.614901zm0 0" transform="matrix(0.427573,0,0,0.429068,-178.426809,251.652946)"/><path style="fill-rule:nonzero;fill:#deb308;fill-opacity:1;stroke-width:.505195;stroke-linecap:butt;stroke-linejoin:miter;stroke:#deb308;stroke-opacity:1;stroke-miterlimit:4" d="M720.337936-535.154597 720.310528-536.237977C722.448321-536.237977 724.001418-536.301705 724.997227-536.420057 725.380933-536.465578 725.645873-536.49289 725.801183-536.49289 725.919949-536.49289 726.102667-536.483786 726.358471-536.465578 726.93403-535.937544 727.463911-535.336678 727.966383-534.653875 728.076013-534.517315 728.19478-534.362546 728.331818-534.198674L732.680489-528.900127 733.301728-528.080764C734.178771-526.94276 734.982727-525.968629 735.704461-525.167474 736.426194-524.366319 737.833117-522.691178 739.916094-520.142049L744.849461-514.11518C745.324526-513.523418 745.945765-512.795095 746.704042-511.912004L746.722314-512.276165C746.640091-514.388301 746.594411-515.498993 746.594411-515.617345L746.676634-516.98295 746.640091-519.122397V-520.096529C746.640091-520.715603 746.594411-522.636553 746.493917-525.850277 746.484781-526.28727 746.429966-527.124841 746.329471-528.344781 746.238113-529.564722 746.183298-530.629893 746.183298-531.558505 746.183298-533.224542 746.091939-534.198674 745.918357-534.471795 745.790455-534.662979 745.20576-534.872372 744.164271-535.081765 743.917603-535.099973 743.533897-535.145493 743.013152-535.218325 742.391914-535.245637 742.026479-535.291158 741.916849-535.336678 741.807218-535.382198 741.697588-535.509654 741.587958-535.719047 741.615365-535.964856 741.679316-536.192457 741.770675-536.401849 742.145245-536.520202 742.51068-536.58393 742.866979-536.58393 743.250685-536.58393 743.72575-536.529306 744.301309-536.420057 744.867733-536.319913 745.379341-536.265289 745.836135-536.265289 746.466509-536.265289 747.453183-536.310809 748.787019-536.401849 749.53616-536.465578 750.056904-536.49289 750.349252-536.49289H750.696415L750.659871-535.782775C750.440611-535.682631 750.139127-535.618903 749.755421-535.591591 749.371714-535.573382 749.00628-535.509654 748.677389-535.400406 748.184052-535.236533 747.891704-535.090869 747.79121-534.972516 747.462319-534.571939 747.297873-534.171362 747.297873-533.76168L747.52627-526.578599 747.690715-523.28294 747.672444-522.327016 747.79121-517.756792C747.873433-514.63411 747.919112-511.921108 747.919112-509.617788 747.919112-509.117066 747.891704-508.033687 747.836889-506.367649L746.868487-506.276608C746.384287-506.877475 744.730695-508.789321 741.898577-512.003044 741.240795-512.749575 740.793137-513.268505 740.555605-513.568938L738.783247-515.826738C738.098057-516.655205 737.6504-517.192342 737.449411-517.419943 737.239286-517.647544 737.083976-517.811417 736.992618-517.911561 735.494336-519.796096 733.548397-522.144936 731.1548-524.967186 730.515289-525.72282 729.565159-526.906344 728.313546-528.508654 727.527862-529.528305 727.034525-530.14738 726.8244-530.37498 726.623411-530.602581 726.340199-530.857494 725.9839-531.148823L725.919949-530.37498C725.919949-527.41617 725.993036-523.346668 726.130074-518.139162L726.276248-510.619232C726.285384-509.981949 726.321927-509.362875 726.376743-508.780217L727.098476-508.598137C728.404905-508.461576 729.683926-508.252183 730.953811-507.979062 731.04517-507.888022 731.127392-507.824294 731.200479-507.778774L731.182208-506.913891C730.953811-506.831954 730.780229-506.795538 730.643191-506.795538 730.487882-506.795538 730.305164-506.813746 730.085904-506.841058 728.72466-506.968515 727.071068-507.023139 725.115993-507.023139 723.745614-507.023139 722.530544-506.986723 721.489055-506.913891L721.196707-506.886579C721.077941-506.886579 720.895224-506.904787 720.666827-506.932099L720.63942-507.614901 721.178436-507.888022 722.146837-508.051895C723.014744-508.188455 723.645119-508.33412 724.047097-508.507096 724.302901-508.607241 724.522162-508.771113 724.686608-508.980506 724.832781-510.027469 724.915004-511.556947 724.915004-513.568938 724.915004-514.515757 724.887597-516.236419 724.851053-518.730924v-3.095371L724.805374-528.281053C724.777966-531.167031 724.695744-532.860381 724.540434-533.379311 724.458211-533.652432 724.28463-533.889137 724.028825-534.107633 723.498945-534.517315 722.822891-534.772228 721.973256-534.881476 721.132756-534.98162 720.584604-535.072661 720.337936-535.154597zm0 0" transform="matrix(0.427573,0,0,0.429068,-178.426809,251.652946)"/><path style="fill-rule:nonzero;fill:#deb308;fill-opacity:1;stroke-width:.505195;stroke-linecap:butt;stroke-linejoin:miter;stroke:#deb308;stroke-opacity:1;stroke-miterlimit:4" d="M753.33668-507.460133C753.464582-507.596693 753.574212-507.678629 753.665571-507.715045 753.884832-507.787878 754.268538-507.851606 754.798418-507.897126 756.059167-507.988166 756.835716-508.124727 757.137199-508.306807 757.319917-508.607241 757.411275-509.03513 757.411275-509.590476L757.393004-511.183682 757.411275-516.992054 757.365596-519.732367 757.393004-525.467907 757.292509-531.97729C757.274237-533.534079 757.192015-534.408066 757.036705-534.608355 756.808308-534.899684 756.113983-535.063557 754.953728-535.109077 754.460391-535.127285 754.02187-535.172805 753.647299-535.245637 753.482854-535.354886 753.391495-535.491446 753.391495-535.655319 753.391495-535.782775 753.428038-535.92844 753.491989-536.092312 753.610756-536.165145 753.71125-536.210665 753.802609-536.210665 753.985326-536.210665 754.204587-536.201561 754.469527-536.183353 755.23694-536.11052 756.022624-536.074104 756.844852-536.074104L758.288318-536.119624 761.714268-536.028584C763.422674-536.028584 764.765647-536.046792 765.724912-536.092312 766.684178-536.137832 767.332825-536.165145 767.670852-536.165145 767.972335-536.165145 768.71234-536.128728 769.890867-536.074104L772.659034-536.092312 772.987925-536.028584 774.604973-536.092312 774.805962-535.983064C774.869913-535.855607 774.915592-535.728151 774.933864-535.591591 774.933864-535.373094 774.906457-535.045349 774.851641-534.608355 774.78769-534.162258 774.760283-533.889137 774.760283-533.788992 774.760283-532.204891 774.805962-530.857494 774.897321-529.76501 774.888185-529.67397 774.842505-529.610242 774.778554-529.58293 774.641516-529.58293 774.504478-529.601138 774.394848-529.646658 774.248674-529.937987 774.056821-530.447813 773.819289-531.176135 773.57262-531.913562 773.216322-532.760237 772.732121-533.71616 772.412365-534.353442 772.156561-534.735812 771.973844-534.863268 771.791127-534.98162 771.416556-535.045349 770.850133-535.045349 770.731366-535.045349 770.137535-535.054453 769.077775-535.090869 768.785427-535.099973 768.511351-535.109077 768.237275-535.109077L762.682669-534.972516H762.198469C761.485871-534.972516 761.056485-534.863268 760.910312-534.653875 760.691051-534.289714 760.581421-533.215438 760.581421-531.431048 760.581421-531.248967 760.617964-529.419057 760.681915-525.950421V-522.773114C760.818953-522.727594 760.974263-522.700282 761.147844-522.700282H761.476735C761.695996-522.700282 762.024887-522.691178 762.454273-522.682074 763.130327-522.645657 763.577984-522.636553 763.815517-522.636553 763.970826-522.636553 764.107864-522.645657 764.226631-522.654761 765.624418-522.71849 767.433319-522.745802 769.635063-522.745802 770.329388-522.882362 770.731366-523.046235 770.850133-523.228315 771.041986-523.501436 771.18816-524.220655 771.288654-525.376867 771.380013-526.533079 771.599273-527.188569 771.9373-527.343338 772.110882-527.343338 772.266192-527.306922 772.40323-527.224985 772.430637-527.106633 772.439773-526.988281 772.439773-526.888136 772.439773-526.778888 772.430637-526.605911 772.40323-526.360102 772.339279-525.795652 772.311871-524.02947 772.311871-521.061556 772.311871-520.269505 772.339279-519.37731 772.412365-518.403179 772.485452-517.429047 772.521996-516.910117 772.521996-516.828181 772.521996-516.691621 772.503724-516.50954 772.467181-516.281939 772.35755-516.218211 772.275327-516.190899 772.211376-516.190899H772.074338C771.864214-516.618788 771.663225-517.283383 771.471371-518.175578 771.133344-519.714159 770.777046-520.679187 770.411611-521.07066 770.037041-521.453029 769.434074-521.653318 768.60271-521.653318 768.429128-521.653318 768.091101-521.644214 767.616036-521.616902 767.131836-521.598694 766.419238-521.580486 765.469108-521.580486H764.208359C762.399458-521.580486 761.220931-521.534966 760.663643-521.443925L760.636236-520.688291 760.663643-516.491332 760.636236-513.832955 760.663643-511.256514C760.672779-509.699724 760.755002-508.798425 760.910312-508.56172 761.129572-508.224871 761.613773-508.051895 762.353778-508.051895L763.541441-508.079207C763.651071-508.079207 764.053049-508.070103 764.756511-508.042791 765.469108-508.024583 766.337015-508.006374 767.378504-508.006374 769.881731-508.006374 771.553594-508.133831 772.384958-508.388744 773.216322-508.634553 773.901511-509.08065 774.440527-509.727036 774.979543-510.364319 775.655597-511.739027 776.477825-513.860267 776.724494-514.488445 776.971162-514.797982 777.21783-514.797982 777.336597-514.797982 777.464499-514.734254 777.601537-514.615901 777.226966-513.104632 777.016841-512.112293 776.962026-511.638883 776.815852-510.573711 776.733629-509.490332 776.706222-508.37964 776.706222-507.869814 776.605727-507.451029 776.395603-507.114179H775.966217L770.493834-507.050451 768.045422-507.068659 762.198469-506.977619H759.823144C759.52166-506.977619 759.247584-506.977619 758.982644-506.959411 756.643863-506.841058 754.92632-506.77733 753.820881-506.77733 753.629027-506.77733 753.491989-506.813746 753.428038-506.886579 753.354951-506.968515 753.318408-507.077763 753.318408-507.232532zm0 0" transform="matrix(0.427573,0,0,0.429068,-178.426809,251.652946)"/><path style="fill-rule:nonzero;fill:#deb308;fill-opacity:1;stroke-width:.505195;stroke-linecap:butt;stroke-linejoin:miter;stroke:#deb308;stroke-opacity:1;stroke-miterlimit:4" d="M598.456363-315.173879C598.629945-314.035875 598.712168-312.870559 598.712168-311.67793 598.712168-311.441226 598.712168-311.122585 598.693896-310.722007 598.492907-310.676487 598.337597-310.658279 598.227967-310.658279 598.145744-310.658279 598.017842-310.676487 597.853396-310.703799 597.241293-312.424461 596.227212-313.75365 594.829425-314.682261 593.431638-315.610872 591.704959-316.075178 589.64939-316.075178 588.562222-316.075178 587.6395-315.956825 586.890359-315.701912 585.565658-315.246711 584.405403-314.618533 583.400458-313.808274 582.404649-313.007119 581.555014-312.051196 580.860688-310.9314 580.175498-309.820708 579.627346-308.473311 579.216232-306.88921 578.814254-305.296004 578.613265-303.684591 578.613265-302.027657 578.613265-298.868558 579.08833-296.264805 580.047596-294.207294 581.006862-292.149782 582.31329-290.684033 583.976018-289.800942 585.638745-288.926955 587.310608-288.489962 589.009879-288.489962L590.042232-288.50817C591.220759-288.653834 592.024715-288.799499 592.444964-288.926955 593.522996-289.236492 594.409175-289.609758 595.112637-290.028543 595.806963-290.447329 596.492153-291.039091 597.159071-291.803829 597.825989-292.577672 598.401548-293.469867 598.867477-294.480415L599.132417-294.571455C599.205504-294.571455 599.324271-294.525935 599.470444-294.443998 599.452173-294.088941 599.433901-293.86134 599.424765-293.752092 598.803526-291.257587 598.355869-289.555133 598.072657-288.64473 597.844261-288.581002 597.542777-288.499066 597.195614-288.380713 595.468936-287.788951 593.166698-287.488518 590.2889-287.488518 587.959255-287.488518 586.22344-287.652391 585.063186-287.971032 583.912067-288.289673 582.651317-288.781291 581.290073-289.454989 579.92883-290.119583 578.741167-291.011778 577.708814-292.113366 576.676462-293.224058 575.845098-294.616975 575.214723-296.310325 574.584349-297.994571 574.264593-299.842689 574.264593-301.827368 574.264593-303.721007 574.511262-305.368836 575.013734-306.779961 575.516207-308.181982 576.292755-309.611315 577.334244-311.058856 578.375733-312.506397 579.609074-313.70813 581.025133-314.664053 582.450328-315.619976 584.030833-316.302779 585.766647-316.703356 586.981717-316.967373 588.708396-317.094829 590.946683-317.094829 592.582002-317.094829 594.116828-316.876333 595.560294-316.448443 597.003761-316.01145 597.963027-315.58356 598.456363-315.173879zm0 0" transform="matrix(0.427573,0,0,0.429068,-178.426809,251.652946)"/><path style="fill-rule:nonzero;fill:#deb308;fill-opacity:1;stroke-width:.505195;stroke-linecap:butt;stroke-linejoin:miter;stroke:#deb308;stroke-opacity:1;stroke-miterlimit:4" d="M600.219585-288.03476C600.420574-288.144008 600.612428-288.207737 600.767737-288.207737H601.279346C601.37984-288.207737 601.553422-288.207737 601.809226-288.225945 602.932937-288.326089 603.608991-288.426233 603.80998-288.526378 604.321589-288.799499 604.769246-289.282012 605.134681-289.955711 605.892957-291.430564 606.751729-293.515387 607.710995-296.219285 608.167788-297.502953 608.451-298.2859 608.569766-298.559021 608.9352-299.423904 609.291499-300.334307 609.629526-301.29023L611.694232-306.989354C612.023123-307.881549 612.799671-309.93906 614.033013-313.14368 614.343632-313.953938 614.718203-315.037318 615.156724-316.393819L615.796235-316.439339 616.563648-316.412027C617.194022-315.182983 617.760446-313.862898 618.244647-312.451773 618.500451-311.696139 618.938972-310.576343 619.541939-309.092385L622.885666-300.188642 624.676295-295.354402C625.61729-292.604984 626.229393-290.920738 626.52174-290.29256 626.814088-289.664382 627.088164-289.2547 627.343968-289.045308 627.417055-288.990683 627.691131-288.908747 628.166196-288.790395 628.641261-288.672042 628.979288-288.590106 629.171141-288.526378 629.847195-288.344297 630.313124-288.180425 630.578064-288.052968 630.632879-287.889096 630.669423-287.770743 630.669423-287.679703 630.669423-287.615975 630.642015-287.506726 630.596336-287.361062 630.130407-287.342854 629.801516-287.33375 629.609662-287.33375 628.860522-287.33375 627.535821-287.361062 625.644697-287.406582L623.442954-287.47031 620.775281-287.42479C620.6017-287.42479 620.418982-287.433894 620.236265-287.452102 620.053548-287.479414 619.889102-287.488518 619.7612-287.488518H619.276999C619.112554-287.506726 618.96638-287.543142 618.838478-287.615975 618.838478-287.825367 618.875021-288.016552 618.948108-288.207737 619.12169-288.289673 619.286135-288.344297 619.432309-288.353401L621.743683-288.50817C622.34665-288.535482 622.803443-288.617418 623.104927-288.744875 623.196285-289.008892 623.241965-289.200076 623.241965-289.327533 623.241965-289.59155 623.050112-290.265248 622.666405-291.348628 622.401465-292.067846 622.173069-292.750649 621.972079-293.406139 621.780226-294.052525 620.994542-296.191973 619.624162-299.815377 619.030331-299.915521 618.500451-299.970146 618.043658-299.970146L613.329551-299.924626 611.9409-299.942834C611.438427-299.942834 610.890275-299.915521 610.287308-299.842689 610.095455-299.405696 609.967553-299.096159 609.912738-298.904974L607.975935-292.950937C607.153707-290.684033 606.742593-289.427677 606.742593-289.200076 606.742593-289.07262 606.806544-288.854123 606.934446-288.55369 607.245065-288.46265 607.656179-288.380713 608.167788-288.307881L611.164351-288.052968C611.328797-287.925512 611.41102-287.807159 611.41102-287.707015 611.41102-287.634183 611.392748-287.524934 611.347069-287.37927 610.680151-287.370166 610.177678-287.361062 609.821379-287.361062 608.651989-287.361062 607.281609-287.397478 605.728512-287.47031 605.006779-287.497622 604.49517-287.506726 604.184551-287.506726 603.873931-287.506726 603.344051-287.497622 602.576638-287.47031 602.074166-287.433894 601.717867-287.42479 601.498606-287.42479 601.142308-287.42479 600.685514-287.442998 600.128227-287.488518V-287.615975C600.128227-287.716119 600.16477-287.861784 600.219585-288.03476zM610.72583-301.026213C612.297199-300.944277 614.087828-300.898757 616.106854-300.898757 617.248837-300.898757 618.253783-300.935173 619.12169-301.008005 618.975516-301.572455 618.801934-302.100489 618.619217-302.592107 617.659951-305.10482 617.130071-306.488632 617.029577-306.752649L615.019686-311.759867 614.800426-312.142236C614.718203-311.969259 614.389312-311.231833 613.832024-309.911748 612.89103-307.663052 612.214976-305.905974 611.803862-304.649618 611.612009-304.085168 611.420156-303.529822 611.210031-302.965372 611.009042-302.410026 610.88114-302.027657 610.826324-301.800056 610.771509-301.572455 610.698422-301.344854 610.597928-301.117254zm0 0" transform="matrix(0.427573,0,0,0.429068,-178.426809,251.652946)"/><path style="fill-rule:nonzero;fill:#deb308;fill-opacity:1;stroke-width:.505195;stroke-linecap:butt;stroke-linejoin:miter;stroke:#deb308;stroke-opacity:1;stroke-miterlimit:4" d="M632.094618-287.461206C632.103754-287.688807 632.158569-287.8982 632.240792-288.08028 633.200057-288.408025 634.141051-288.626522 635.045502-288.726667 635.648469-288.790395 636.041311-288.963371 636.214893-289.236492 636.333659-289.436781 636.406746-290.174208 636.434154-291.457876L636.562056-297.548473 636.543784-301.681704 636.562056-307.080394V-308.518831C636.571191-311.759867 636.562056-313.790066 636.525512-314.591221 636.516376-314.736885 636.461561-314.955382 636.379338-315.237607 636.059583-315.419688 635.785507-315.53804 635.575382-315.601768 635.356121-315.665496 634.396856-315.883993 632.688449-316.275466 632.670177-316.439339 632.661041-316.566796 632.661041-316.639628 632.661041-316.730668 632.670177-316.858125 632.688449-317.012893 632.916846-317.012893 633.300552-316.994685 633.830432-316.967373L636.635143-316.84902 638.261326-316.8035 638.745527-316.830812C638.800342-316.830812 638.98306-316.812604 639.275407-316.776188 640.006277-316.776188 640.426526-316.785292 640.536157-316.8035L642.007031-316.940061C643.011976-316.940061 643.706302-316.921853 644.117416-316.876333 644.10828-316.594108 644.062601-316.293675 643.989514-315.975033 643.852476-315.938617 643.212965-315.902201 642.061846-315.847577 640.919863-315.792953 640.262081-315.701912 640.088499-315.58356 639.805288-315.383271 639.66825-314.764197 639.66825-313.735442 639.66825-313.489633 639.649978-312.988911 639.631706-312.233276V-310.849464L639.649978-306.579673V-305.123028L639.686521-297.484745 639.631706-290.966258 639.649978-289.536925C639.649978-289.081724 639.704793-288.790395 639.832695-288.681146 640.143315-288.672042 641.047765-288.653834 642.546047-288.635626H643.806796L646.995213-288.781291C647.835713-288.808603 648.429544-288.908747 648.785843-289.090828 649.142141-289.263804 649.745109-289.782734 650.576472-290.647617 651.088081-291.202963 651.480923-291.767413 651.764135-292.359175 651.828086-292.477528 651.92858-292.659608 652.074754-292.914521 652.312287-293.305994 652.622906-294.107149 653.015748-295.308881H653.627851C653.554764-294.753536 653.472541-294.234606 653.390319-293.742988 653.03402-291.567124 652.787352-289.764526 652.650314-288.316985 652.622906-288.007448 652.595498-287.725223 652.577227-287.461206L645.670513-287.716119C639.732201-287.716119 636.214893-287.643287 635.100317-287.506726 634.76229-287.479414 634.396856-287.461206 634.013149-287.461206zm0 0" transform="matrix(0.427573,0,0,0.429068,-178.426809,251.652946)"/><path style="fill-rule:nonzero;fill:#deb308;fill-opacity:1;stroke-width:.505195;stroke-linecap:butt;stroke-linejoin:miter;stroke:#deb308;stroke-opacity:1;stroke-miterlimit:4" d="M653.353775-287.94372C653.554764-288.062072 653.728346-288.116696 653.883655-288.116696H654.367856C654.468351-288.116696 654.641932-288.1258 654.879465-288.134904 655.966632-288.244153 656.606143-288.344297 656.797996-288.444442 657.291333-288.717562 657.720719-289.200076 658.067881-289.873775 658.798751-291.357732 659.620978-293.451659 660.543701-296.155556 660.973086-297.448329 661.256298-298.231276 661.365929-298.504397 661.713091-299.378384 662.051118-300.288787 662.38001-301.24471L664.362492-306.962042C664.673112-307.854237 665.422253-309.911748 666.600779-313.134576 666.902263-313.944834 667.258561-315.028214 667.678811-316.393819L668.290914-316.439339 669.030919-316.412027C669.643022-315.182983 670.172902-313.853794 670.638831-312.433565 670.894636-311.687035 671.30575-310.558135 671.890445-309.065073L675.097133-300.134018 676.80554-295.290673C677.709991-292.532152 678.303822-290.847906 678.587034-290.210624 678.870246-289.582446 679.12605-289.16366 679.363582-288.963371 679.436669-288.908747 679.701609-288.817707 680.158403-288.699354 680.615196-288.590106 680.934951-288.499066 681.117668-288.444442 681.766315-288.253257 682.213972-288.098488 682.469776-287.961928 682.524592-287.807159 682.551999-287.679703 682.551999-287.597767 682.551999-287.524934 682.533727-287.415686 682.497184-287.270021 682.040391-287.251813 681.729771-287.251813 681.537918-287.251813 680.825321-287.251813 679.555435-287.270021 677.737398-287.315542L675.627014-287.37927 673.068971-287.33375C672.904526-287.33375 672.730944-287.342854 672.548227-287.370166 672.374646-287.388374 672.228472-287.397478 672.10057-287.397478H671.634641C671.479331-287.415686 671.333157-287.461206 671.214391-287.534038 671.214391-287.734327 671.241798-287.925512 671.314885-288.116696 671.488467-288.207737 671.643777-288.253257 671.780814-288.271465L674.00083-288.417129C674.576389-288.453546 675.014911-288.526378 675.307258-288.662938 675.398617-288.917851 675.43516-289.11814 675.43516-289.245596 675.43516-289.509613 675.252443-290.183312 674.887009-291.266691 674.631204-291.995014 674.411944-292.677816 674.22009-293.333307 674.028237-293.988797 673.279096-296.128244 671.972668-299.769857 671.397108-299.870001 670.8855-299.915521 670.446978-299.915521L665.924725-299.879105 664.600025-299.897313C664.115824-299.897313 663.585944-299.860897 663.010384-299.788065 662.827667-299.351072 662.708901-299.041534 662.654086-298.85035L660.790369-292.878105C660.004685-290.602097 659.611843-289.345741 659.611843-289.11814 659.611843-288.990683 659.675794-288.772187 659.803696-288.46265 660.096043-288.380713 660.488886-288.298777 660.982222-288.225945L663.86002-287.961928C664.015329-287.834471 664.088416-287.716119 664.088416-287.615975 664.088416-287.543142 664.070145-287.433894 664.024465-287.28823 663.394091-287.279125 662.90989-287.270021 662.571863-287.270021 661.439016-287.270021 660.132587-287.306438 658.643441-287.37927 657.949115-287.406582 657.455778-287.42479 657.163431-287.42479 656.861947-287.42479 656.350339-287.406582 655.61947-287.37927 655.135269-287.351958 654.797242-287.33375 654.587117-287.33375 654.24909-287.33375 653.810568-287.351958 653.271552-287.397478V-287.534038C653.271552-287.634183 653.29896-287.770743 653.353775-287.94372zM663.43977-300.980693C664.938052-300.898757 666.66473-300.853237 668.592398-300.853237 669.688701-300.853237 670.657103-300.889653 671.488467-300.962485 671.342293-301.526935 671.177847-302.054969 670.99513-302.546587 670.081544-305.068403 669.579071-306.46132 669.478577-306.725337L667.550909-311.741659 667.340784-312.133132C667.258561-311.960155 666.947942-311.213625 666.418062-309.89354 665.513611-307.63574 664.864965-305.869558 664.472123-304.613202 664.289405-304.048752 664.097552-303.484302 663.896563-302.928956 663.70471-302.37361 663.576808-301.982137 663.531129-301.754536 663.485449-301.526935 663.403226-301.299334 663.311868-301.071734zm0 0" transform="matrix(0.427573,0,0,0.429068,-178.426809,251.652946)"/><path style="fill-rule:nonzero;fill:#deb308;fill-opacity:1;stroke-width:.505195;stroke-linecap:butt;stroke-linejoin:miter;stroke:#deb308;stroke-opacity:1;stroke-miterlimit:4" d="M684.342629-315.856681V-316.585004C684.607569-316.639628 684.826829-316.685148 684.991275-316.694252L687.247834-316.812604C689.120686-316.967373 691.221935-317.094829 693.542444-317.18587 694.474303-317.213182 695.936041-317.23139 697.936795-317.23139 700.668419-317.23139 702.660038-317.040205 703.920787-316.648732 705.766232-316.075178 707.145747-315.210295 708.050198-314.063187 708.954648-312.906975 709.402306-311.623306 709.402306-310.212181 709.402306-307.917965 707.712171-305.987911 704.331901-304.431121L704.213135-304.239937C705.939813-303.793839 707.365008-303.165661 708.470448-302.355402 709.575887-301.554247 710.425523-300.571012 711.019354-299.405696 711.44874-298.559021 711.668-297.439225 711.668-296.064516 711.668-293.752092 710.580832-291.694581 708.406497-289.891983 706.232161-288.089384 703.244733-287.178981 699.435077-287.178981H695.853818L692.217744-287.069733C689.020191-287.033317 687.138203-287.024213 686.599187-287.024213 686.032764-287.024213 685.484612-287.042421 684.93646-287.087941V-287.342854C684.93646-287.534038 684.982139-287.661495 685.055226-287.743431 685.155721-287.834471 685.338438-287.907304 685.612514-287.971032 687.613268-288.371609 688.746115-288.653834 689.011056-288.799499 689.275996-288.945163 689.458713-289.181868 689.550072-289.509613 689.741925-290.128687 689.842419-291.721893 689.842419-294.298334 689.842419-294.525935 689.833283-294.817264 689.815012-295.181425 689.787604-296.219285 689.769332-296.811047 689.769332-296.965815V-299.387488C689.769332-303.475198 689.723653-307.043978 689.623158-310.093829L689.604887-314.764197 689.577479-315.346855C688.216235-315.53804 687.010301-315.647288 685.968813-315.701912 685.301894-315.711017 684.753743-315.765641 684.342629-315.856681zM693.880471-304.103376C694.684428-303.948608 695.524927-303.866671 696.40197-303.866671 699.864463-303.866671 702.21238-304.604098 703.445722-306.078951 704.679064-307.5447 705.291167-309.010449 705.291167-310.467094 705.291167-311.122585 705.190672-311.778075 704.971411-312.451773 704.752151-313.125472 704.368444-313.735442 703.820292-314.281684 703.263005-314.818821 702.577815-315.228503 701.764723-315.49252 700.366935-315.938617 698.941741-316.166218 697.480002-316.166218 696.118758-316.166218 694.858009-316.01145 693.688618-315.720121 693.670347-315.392375 693.661211-315.155671 693.661211-315.000902 693.661211-314.846134 693.679482-314.400036 693.70689-313.671713 693.725162-313.207408 693.734298-312.743102 693.734298-312.278797L693.661211-309.465651 693.688618-307.799613 693.853064-304.522162zM699.526436-288.298777C701.116076-288.408025 702.440777-288.735771 703.518809-289.272908 704.012146-289.518717 704.605977-289.964815 705.282031-290.611201 705.967221-291.257587 706.497101-292.022326 706.871671-292.923625 707.246242-293.824924 707.438095-294.689807 707.438095-295.527378 707.438095-296.16466 707.301057-296.947607 707.036117-297.876218 706.771177-298.80483 706.323519-299.624192 705.693145-300.325203 705.06277-301.026213 704.121776-301.608871 702.870162-302.064073 701.618549-302.528379 700.239033-302.755979 698.731616-302.755979 695.817275-302.755979 694.181955-302.701355 693.834792-302.592107 693.81652-302.23705 693.807385-301.973033 693.807385-301.800056L693.834792-300.944277 693.807385-299.196303V-297.220728C693.853064-293.579115 693.944423-291.430564 694.072325-290.76597 694.200227-290.092271 694.638748-289.518717 695.378753-289.045308 696.127894-288.562794 697.50741-288.316985 699.526436-288.298777zm0 0" transform="matrix(0.427573,0,0,0.429068,-178.426809,251.652946)"/><path style="fill-rule:nonzero;fill:#deb308;fill-opacity:1;stroke-width:.505195;stroke-linecap:butt;stroke-linejoin:miter;stroke:#deb308;stroke-opacity:1;stroke-miterlimit:4" d="M714.509254-288.016552C716.665318-288.280569 717.889524-288.46265 718.172736-288.571898 718.364589-288.64473 718.547306-288.881435 718.702616-289.263804V-289.509613C718.702616-289.891983 718.766567-291.275795 718.885333-293.670156 718.912741-294.343854 718.931013-294.999344 718.931013-295.645731L718.857926-298.37694 718.903605-301.472311 718.885333-307.235163 718.903605-311.368393C718.921877-313.116367 718.793975-314.181539 718.519899-314.563909 718.245823-314.946278 717.533225-315.210295 716.391242-315.374167 715.258395-315.53804 714.62802-315.656392 714.509254-315.729225 714.390488-315.811161 714.326537-315.929513 714.326537-316.10249 714.326537-316.202634 714.353945-316.339195 714.390488-316.512171 714.545798-316.648732 714.883825-316.721564 715.413705-316.739772 715.486792-316.739772 715.696917-316.75798 716.025808-316.794396 716.363835-316.839916 716.674454-316.858125 716.975938-316.858125H718.793975L724.640928-316.921853C727.948111-316.921853 730.259485-316.676044 731.584186-316.166218 732.908886-315.665496 733.968646-314.809717 734.754331-313.607985 735.540015-312.406253 735.932857-311.058856 735.932857-309.574899 735.932857-306.761753 734.498526-304.613202 731.639001-303.129245 731.1548-302.865228 730.771094-302.637627 730.487882-302.437338 730.990354-301.33575 731.693816-300.015666 732.598267-298.46798L735.421249-293.460763C736.54496-291.621749 737.321509-290.474641 737.750894-290.010335 738.18028-289.536925 738.701024-289.154556 739.322263-288.845019 739.934366-288.544586 740.966719-288.253257 742.419321-287.971032 742.437593-287.825367 742.437593-287.697911 742.437593-287.606871 742.437593-287.51583 742.437593-287.397478 742.419321-287.260917 740.391159-287.233605 738.015834-287.215397 735.284211-287.215397 735.092358-287.215397 734.827418-287.233605 734.489391-287.260917 733.42963-289.345741 732.196289-291.630853 730.771094-294.125357L727.482182-300.325203C727.043661-300.971589 726.66909-301.372167 726.385878-301.536039 726.093531-301.690808 725.709824-301.772744 725.243895-301.772744L723.352771-301.745432 722.731533-301.772744C722.685853-301.281126 722.658446-300.279683 722.658446-298.768414V-290.911634C722.64931-290.620305 722.704125-290.219728 722.841163-289.700798 722.959929-289.409469 723.160918-289.172764 723.453266-288.999787 723.736478-288.817707 724.576977-288.55369 725.947357-288.207737L726.860943-287.971032C726.97971-287.825367 727.043661-287.615975 727.043661-287.351958 726.641683-287.279125 726.358471-287.242709 726.194025-287.242709 724.860189-287.242709 723.919195-287.251813 723.371043-287.28823 723.087831-287.297334 722.859435-287.306438 722.685853-287.306438L719.661882-287.260917 716.701862-287.28823C716.57396-287.28823 715.897906-287.260917 714.682836-287.215397L714.235178-287.306438 714.198635-287.534038C714.198635-287.679703 714.299129-287.834471 714.509254-288.016552zM722.777212-303.038204C723.170054-303.019996 723.471538-303.010892 723.663391-303.010892 724.732287-303.010892 725.956493-303.138349 727.35428-303.402366 728.331818-303.602654 729.117502-303.930399 729.729605-304.376497 730.332572-304.831699 730.844181-305.496293 731.255294-306.388488 731.657272-307.271579 731.867397-308.191086 731.867397-309.137906 731.867397-310.184869 731.547642-311.286457 730.908132-312.451773 730.414795-313.334864 729.592567-314.081395 728.432312-314.673157 727.262922-315.274023 725.87427-315.574456 724.23895-315.574456 723.836972-315.574456 723.325364-315.547144 722.685853-315.501624 722.621902-314.709573 722.594495-314.090499 722.594495-313.662609L722.704125-309.37461 722.685853-307.599324C722.685853-306.406696 722.713261-304.886323 722.777212-303.038204zm0 0" transform="matrix(0.427573,0,0,0.429068,-178.426809,251.652946)"/><path style="fill-rule:nonzero;fill:#deb308;fill-opacity:1;stroke-width:.505195;stroke-linecap:butt;stroke-linejoin:miter;stroke:#deb308;stroke-opacity:1;stroke-miterlimit:4" d="M741.323017-287.8982C741.615365-288.043864 741.916849-288.1258 742.227468-288.153113 744.273902-288.307881 745.443292-288.590106 745.73564-289.008892 746.027988-289.418573 746.183298-291.403252 746.183298-294.962928L746.15589-297.402809V-299.951938L746.082803-302.765083 746.119346-304.412913 746.101075-306.224615V-308.364063L746.055395-309.310882 746.101075-310.521718C746.110211-310.803943 746.119346-311.122585 746.119346-311.49585 746.119346-312.469981 746.082803-313.498737 746.00058-314.591221 745.945765-314.800613 745.872678-315.010006 745.781319-315.210295 745.278847-315.510728 744.484027-315.701912 743.378587-315.802057 742.273147-315.902201 741.651909-316.020554 741.505735-316.138906 741.396104-316.23905 741.341289-316.475755 741.323017-316.867229H743.013152L748.330226-316.721564C749.69147-316.721564 751.509507-316.767084 753.784337-316.867229 753.784337-316.612316 753.775201-316.384715 753.747794-316.166218 753.473718-316.084282 753.02606-316.002346 752.395686-315.911305 751.1258-315.738329 750.349252-315.574456 750.075176-315.419688 749.901595-315.346855 749.773692-315.210295 749.69147-315.028214 749.554432-314.745989 749.481345-314.227059 749.453937-313.471425L749.353443-310.476198 749.42653-300.143122V-296.055412C749.408258-294.771744 749.389986-293.897757 749.389986-293.424347 749.389986-291.694581 749.42653-290.583889 749.499616-290.110479 749.572703-289.627966 749.700606-289.282012 749.883323-289.07262 750.06604-288.863227 750.358388-288.699354 750.778638-288.571898 751.39074-288.408025 751.874941-288.307881 752.222104-288.298777 752.971245-288.262361 753.44631-288.144008 753.647299-287.925512 753.683843-287.725223 753.702114-287.552246 753.702114-287.415686V-287.224501C752.487044-287.178981 751.59173-287.160773 751.01617-287.160773 750.678143-287.160773 750.084312-287.178981 749.225541-287.224501L746.457373-287.178981 741.743267-287.206293H741.359561zm0 0" transform="matrix(0.427573,0,0,0.429068,-178.426809,251.652946)"/><path style="fill-rule:nonzero;fill:#deb308;fill-opacity:1;stroke-width:.505195;stroke-linecap:butt;stroke-linejoin:miter;stroke:#deb308;stroke-opacity:1;stroke-miterlimit:4" d="M755.757684-288.052968C755.958673-288.171321 756.132254-288.235049 756.278428-288.235049H756.753493C756.853988-288.235049 757.018433-288.235049 757.255966-288.253257 758.315726-288.353401 758.946101-288.46265 759.137954-288.562794 759.622155-288.845019 760.042404-289.336637 760.389567-290.037647 761.102165-291.55802 761.915257-293.706572 762.810572-296.492406 763.239957-297.821594 763.514033-298.622749 763.623663-298.904974 763.970826-299.797169 764.299717-300.734884 764.619473-301.71812L766.565412-307.59022C766.876031-308.518831 767.606901-310.630967 768.767155-313.93573 769.059503-314.773301 769.406666-315.883993 769.826916-317.286014L770.429883-317.331534 771.151616-317.313326C771.745447-316.047866 772.275327-314.682261 772.732121-313.225616 772.978789-312.451773 773.380767-311.295561 773.956327-309.75698L777.1082-300.580116 778.780063-295.60021C779.666242-292.768857 780.250937-291.029987 780.525013-290.3836 780.799089-289.737214 781.054894-289.309325 781.292426-289.099932 781.365513-289.045308 781.621317-288.954267 782.068975-288.835915 782.525768-288.717562 782.836387-288.626522 783.019104-288.562794 783.649479-288.371609 784.097137-288.207737 784.343805-288.071176 784.39862-287.907304 784.426028-287.779847 784.426028-287.697911 784.426028-287.615975 784.407756-287.506726 784.362077-287.361062 783.923555-287.342854 783.612936-287.33375 783.430218-287.33375 782.726757-287.33375 781.484279-287.361062 779.69365-287.406582L777.619808-287.47031 775.116581-287.42479C774.952136-287.42479 774.778554-287.433894 774.604973-287.461206 774.431392-287.479414 774.285218-287.497622 774.157316-287.497622H773.700522C773.554349-287.506726 773.417311-287.552246 773.289408-287.625079 773.289408-287.834471 773.325952-288.03476 773.389903-288.235049 773.554349-288.316985 773.709658-288.371609 773.846696-288.389817L776.030168-288.544586C776.596592-288.571898 777.025977-288.653834 777.309189-288.790395 777.391412-289.054412 777.437091-289.2547 777.437091-289.391261 777.437091-289.664382 777.254374-290.356288 776.898075-291.46698 776.651407-292.213511 776.432146-292.923625 776.240293-293.588219 776.057576-294.261918 775.31757-296.465093 774.038549-300.197746 773.472126-300.306995 772.969653-300.361619 772.540268-300.361619L768.100237-300.316099 766.793809-300.334307C766.327879-300.334307 765.807135-300.297891 765.240712-300.225059 765.057994-299.778961 764.939228-299.46032 764.884413-299.260031L763.066376-293.123914C762.289827-290.784178 761.896985-289.500509 761.896985-289.2547 761.896985-289.127244 761.960936-288.899643 762.088838-288.590106 762.381186-288.499066 762.764892-288.417129 763.249093-288.344297L766.072075-288.071176C766.218249-287.94372 766.300472-287.825367 766.300472-287.716119 766.300472-287.643287 766.2822-287.534038 766.236521-287.37927 765.615282-287.370166 765.140217-287.361062 764.80219-287.361062 763.69675-287.361062 762.408593-287.397478 760.946855-287.47031 760.270801-287.497622 759.7866-287.51583 759.494253-287.51583 759.201905-287.51583 758.699432-287.497622 757.977699-287.47031 757.51177-287.442998 757.173743-287.42479 756.963618-287.42479 756.634727-287.42479 756.205341-287.452102 755.675461-287.497622V-287.625079C755.675461-287.734327 755.702869-287.870888 755.757684-288.052968zM765.651825-301.454103C767.131836-301.363063 768.821971-301.317542 770.713095-301.317542 771.791127-301.317542 772.741257-301.353959 773.554349-301.426791 773.417311-302.009449 773.262001-302.555691 773.079284-303.056412 772.183969-305.651061 771.681496-307.080394 771.590138-307.344411L769.699014-312.506397 769.488889-312.906975C769.406666-312.733998 769.105182-311.960155 768.575302-310.612759 767.698259-308.282127 767.058749-306.479528 766.675042-305.186756 766.492325-304.604098 766.309608-304.02144 766.108619-303.447886 765.916766-302.874332 765.797999-302.473754 765.75232-302.246154 765.697505-302.018553 765.624418-301.781848 765.533059-301.545143zm0 0" transform="matrix(0.427573,0,0,0.429068,-178.426809,251.652946)"/><path style="stroke:none;fill-rule:nonzero;fill:#d5d6d8;fill-opacity:1" d="M144.226562 74.640625c0 19.570313-14.40625 35.4375-32.183593 35.4375-17.773438.0-32.183594-15.867187000000001-32.183594-35.4375.0-19.574219 14.410156-35.4375 32.183594-35.4375 17.777343000000002.0 32.183593 15.863281 32.183593 35.4375zm0 0"/><path style="stroke:none;fill-rule:nonzero;fill:#0a4fa2;fill-opacity:1" d="M110.4375 41.808594 111.378906 39.210938C111.8125 39.183594 112.261719 39.203125 112.707031 39.210938L113.652344 41.808594zm0 0"/><path style="stroke:none;fill-rule:nonzero;fill:#deb308;fill-opacity:1" d="M112.046875 107.851562c8.828125.0 16.769531-4.1875 22.28125-10.855468000000002L89.757812 52.28125C95.269531 45.617188 103.214844 41.425781 112.046875 41.425781c8.828125.0 16.773437 4.1875 22.28125 10.859375L89.761719 96.996094C95.273438 103.664062 103.214844 107.851562 112.046875 107.851562zm0 0"/><path style="stroke:none;fill-rule:nonzero;fill:#32b457;fill-opacity:1" d="M116.613281 68.03125V68.863281h-9.167969V68.03125h3.96875V56.191406L107.875 55.261719 109.847656 49.804688 108.023438 50.03125 112.03125 39.199219 116.039062 50.03125 114.210938 49.804688 116.183594 55.261719 112.648438 56.191406V68.03125zm0 0"/><path style="fill:none;stroke-width:3.056727;stroke-linecap:butt;stroke-linejoin:miter;stroke:#32b457;stroke-opacity:1;stroke-miterlimit:4" d="M740.856523-491.812824 723.317366-485.807831 705.759785-491.812824" transform="matrix(0.212026,0,0,0.212714,-41.330537,162.341837)"/><path style="fill:none;stroke-width:3.056727;stroke-linecap:butt;stroke-linejoin:miter;stroke:#32b457;stroke-opacity:1;stroke-miterlimit:4" d="M740.856523-496.477254 723.317366-490.453896 705.759785-496.477254" transform="matrix(0.212026,0,0,0.212714,-41.330537,162.341837)"/><path style="stroke:none;fill-rule:nonzero;fill:#000;fill-opacity:1" d="M96.683594 66.632812 94.828125 75.539062 96.683594 84.667969H92.253906L94.121094 75.539062 92.253906 66.632812zm0 0"/><path style="stroke:none;fill-rule:nonzero;fill:#000;fill-opacity:1" d="M92.714844 65.960938C92.714844 66.359375 92.390625 66.683594 91.992188 66.683594 91.59375 66.683594 91.273438 66.359375 91.273438 65.960938 91.273438 65.558594 91.59375 65.238281 91.992188 65.238281 92.390625 65.238281 92.714844 65.558594 92.714844 65.960938zm0 0"/><path style="stroke:none;fill-rule:nonzero;fill:#000;fill-opacity:1" d="M97.734375 65.960938C97.734375 66.359375 97.410156 66.683594 97.011719 66.683594 96.613281 66.683594 96.292969 66.359375 96.292969 65.960938 96.292969 65.558594 96.613281 65.238281 97.011719 65.238281 97.410156 65.238281 97.734375 65.558594 97.734375 65.960938zm0 0"/><path style="stroke:none;fill-rule:nonzero;fill:#000;fill-opacity:1" d="M92.714844 85.351562C92.714844 85.75 92.390625 86.074219 91.992188 86.074219 91.59375 86.074219 91.273438 85.75 91.273438 85.351562 91.273438 84.953125 91.59375 84.628906 91.992188 84.628906 92.390625 84.628906 92.714844 84.953125 92.714844 85.351562zm0 0"/><path style="stroke:none;fill-rule:nonzero;fill:#000;fill-opacity:1" d="M97.734375 85.351562C97.734375 85.75 97.410156 86.074219 97.011719 86.074219 96.613281 86.074219 96.292969 85.75 96.292969 85.351562 96.292969 84.953125 96.613281 84.628906 97.011719 84.628906 97.410156 84.628906 97.734375 84.953125 97.734375 85.351562zm0 0"/><path style="stroke:none;fill-rule:nonzero;fill:#000;fill-opacity:1" d="M85.476562 73.464844 94.355469 75.328125 103.453125 73.464844V77.90625L94.355469 76.035156 85.476562 77.90625zm0 0"/><path style="stroke:none;fill-rule:nonzero;fill:#000;fill-opacity:1" d="M85.527344 78.167969C85.527344 78.570312 85.203125 78.894531 84.804688 78.894531 84.40625 78.894531 84.082031 78.570312 84.082031 78.167969 84.082031 77.769531 84.40625 77.445312 84.804688 77.445312 85.203125 77.445312 85.527344 77.769531 85.527344 78.167969zm0 0"/><path style="stroke:none;fill-rule:nonzero;fill:#000;fill-opacity:1" d="M85.527344 73.132812C85.527344 73.53125 85.203125 73.855469 84.804688 73.855469 84.40625 73.855469 84.082031 73.53125 84.082031 73.132812 84.082031 72.734375 84.40625 72.410156 84.804688 72.410156 85.203125 72.410156 85.527344 72.734375 85.527344 73.132812zm0 0"/><path style="stroke:none;fill-rule:nonzero;fill:#000;fill-opacity:1" d="M104.855469 78.167969C104.855469 78.570312 104.53125 78.894531 104.132812 78.894531 103.734375 78.894531 103.414062 78.570312 103.414062 78.167969 103.414062 77.769531 103.734375 77.445312 104.132812 77.445312 104.53125 77.445312 104.855469 77.769531 104.855469 78.167969zm0 0"/><path style="stroke:none;fill-rule:nonzero;fill:#000;fill-opacity:1" d="M104.855469 73.132812C104.855469 73.53125 104.53125 73.855469 104.132812 73.855469 103.734375 73.855469 103.414062 73.53125 103.414062 73.132812 103.414062 72.734375 103.734375 72.410156 104.132812 72.410156 104.53125 72.410156 104.855469 72.734375 104.855469 73.132812zm0 0"/><path style="stroke:none;fill-rule:nonzero;fill:#000;fill-opacity:1" d="M128.449219 65.492188H131.472656V85.574219H128.449219zm0 0"/><path style="stroke:none;fill-rule:nonzero;fill:#000;fill-opacity:1" d="M119.953125 74.015625H139.96875V77.050781H119.953125zm0 0"/><path style="stroke:none;fill-rule:nonzero;fill:#000;fill-opacity:1" d="M127.367188 66.804688h5.1875v2.375h-5.1875zm0 0"/><path style="stroke:none;fill-rule:nonzero;fill:#000;fill-opacity:1" d="M127.367188 81.882812h5.1875V84.261719h-5.1875zm0 0"/><path style="stroke:none;fill-rule:nonzero;fill:#000;fill-opacity:1" d="M121.261719 72.929688H123.628906V78.136719H121.261719zm0 0"/><path style="stroke:none;fill-rule:nonzero;fill:#000;fill-opacity:1" d="M136.292969 72.929688H138.660156V78.136719H136.292969zm0 0"/><path style="stroke:none;fill-rule:nonzero;fill:#00aeef;fill-opacity:1" d="M106.625 96.246094h10.925781v9.65625c0 0-.05468700000000126.59375-.8085930000000019.59375H114.515625C114.515625 106.496094 112.347656 105.933594 111.019531 104.164062 109.691406 102.394531 106.863281 102.332031 106.625 102.332031zm0 0"/><path style="fill:none;stroke-width:3.056727;stroke-linecap:butt;stroke-linejoin:miter;stroke:#deb308;stroke-opacity:1;stroke-miterlimit:4" d="M707.786368-303.087083V-275.871791" transform="matrix(0.212026,0,0,0.212714,-41.330537,162.341837)"/><path style="fill:none;stroke-width:3.056727;stroke-linecap:butt;stroke-linejoin:miter;stroke:#deb308;stroke-opacity:1;stroke-miterlimit:4" d="M718.306178-303.087083V-269.315881" transform="matrix(0.212026,0,0,0.212714,-41.330537,162.341837)"/><path style="fill:none;stroke-width:3.056727;stroke-linecap:butt;stroke-linejoin:miter;stroke:#deb308;stroke-opacity:1;stroke-miterlimit:4" d="M728.825987-303.031991V-263.200704" transform="matrix(0.212026,0,0,0.212714,-41.330537,162.341837)"/><path style="fill:none;stroke-width:3.056727;stroke-linecap:butt;stroke-linejoin:miter;stroke:#deb308;stroke-opacity:1;stroke-miterlimit:4" d="M739.327373-303.087083V-261.254131" transform="matrix(0.212026,0,0,0.212714,-41.330537,162.341837)"/><path style="stroke:none;fill-rule:nonzero;fill:#00aeef;fill-opacity:1" d="M107.109375 95.289062c0 0-1.9414060000000006.0-3.1132810000000006-1.167968000000002C102.828125 92.953125 102.847656 90.9375 102.847656 90.9375h18.410156C121.257812 90.9375 121.277344 92.953125 120.105469 94.121094 118.933594 95.289062 116.996094 95.289062 116.996094 95.289062zm0 0"/><path style="stroke:none;fill-rule:nonzero;fill:#00aeef;fill-opacity:1" d="M101.445312 87.894531H122.761719V90.15625H101.445312zm0 0"/></g></svg>