<svg xmlns="http://www.w3.org/2000/svg" xmlns:xlink="http://www.w3.org/1999/xlink" width="225pt" height="150pt" viewBox="0 0 225 150"><g id="surface1"><path d="M0 0h225v150H0z" style="fill:gold;fill-opacity:1;stroke:none"/><path style="fill-rule:nonzero;fill:#000;fill-opacity:1;stroke-width:17;stroke-linecap:round;stroke-linejoin:miter;stroke:#bf0a30;stroke-opacity:1;stroke-miterlimit:4" d="M157.354167 38.270833H-157.354167M191.375 12.75h-382.75m382.75-25.5h-382.75M157.354167-38.270833H-157.354167" transform="matrix(0.1875,0,0,0.1875,112.5,75)"/><path style="fill-rule:nonzero;fill:#000;fill-opacity:1;stroke-width:17;stroke-linecap:round;stroke-linejoin:miter;stroke:#bf0a30;stroke-opacity:1;stroke-miterlimit:4" d="M157.354167 38.270833H-157.354167M191.375 12.75h-382.75m382.75-25.5h-382.75M157.354167-38.270833H-157.354167" transform="matrix(0.000000000000000011,0.1875,-0.1875,0.000000000000000011,112.5,75)"/><path style="fill-rule:nonzero;fill:gold;fill-opacity:1;stroke-width:10.625;stroke-linecap:butt;stroke-linejoin:miter;stroke:#bf0a30;stroke-opacity:1;stroke-miterlimit:4" d="M64.3125.0C64.3125 35.520833 35.520833 64.3125.0 64.3125-35.520833 64.3125-64.3125 35.520833-64.3125.0-64.3125-35.520833-35.520833-64.3125.0-64.3125 35.520833-64.3125 64.3125-35.520833 64.3125.0zm0 0" transform="matrix(0.1875,0,0,0.1875,112.5,75)"/></g></svg>