<svg xmlns="http://www.w3.org/2000/svg" xmlns:xlink="http://www.w3.org/1999/xlink" width="243pt" height="150pt" viewBox="0 0 243 150"><g id="surface1"><path style="stroke:none;fill-rule:nonzero;fill:#fff;fill-opacity:1" d="M.0820312.0H242.8125V150.007812H.0820312zm0 0"/><path style="fill:none;stroke-width:5.781884;stroke-linecap:butt;stroke-linejoin:miter;stroke:#009a49;stroke-opacity:1;stroke-miterlimit:4" d="M177.224214 7.842865H567.912565V401.576743H177.224214zm0 0" transform="matrix(0.250149,0,0,0.250774,27.819807,13.072275)"/><path style="stroke:none;fill-rule:evenodd;fill:#009a49;fill-opacity:1" d="M72.546875 60.445312 169.25 111.976562 169.285156 35.535156c0 0-11.621094 4.488281999999998-25.398437 3.8984379999999987C128.398438 38.769531 110.136719 33.0625 101.59375 33.902344 85.445312 35.480469 72.671875 40.347656 72.671875 40.347656zm0 0"/><path style="fill-rule:evenodd;fill:#f32837;fill-opacity:1;stroke-width:3.066334;stroke-linecap:butt;stroke-linejoin:miter;stroke:#f32837;stroke-opacity:1;stroke-miterlimit:4" d="M176.860568 422.465184H573.701491V430.066646H176.860568zm0 0" transform="matrix(0.250149,0,0,0.250774,27.613898,13.072275)"/><path style="stroke:none;fill-rule:nonzero;fill:#009a49;fill-opacity:1" d="M71.914062 131.644531v-6.453125c0-.1992180000000019-.01953100000000063-.328125-.0625-.390625C71.8125 124.738281 71.730469 124.710938 71.605469 124.71875h-.21875V123.617188H74.15625C74.851562 123.617188 75.363281 123.824219 75.695312 124.230469 76.03125 124.636719 76.195312 125.265625 76.195312 126.117188 76.195312 127.03125 76.027344 127.679688 75.683594 128.070312 75.460938 128.328125 75.132812 128.5 74.695312 128.59375 74.886719 128.652344 75.042969 128.734375 75.164062 128.84375 75.542969 129.148438 75.769531 129.671875 75.839844 130.421875L75.921875 131.363281C75.957031 131.734375 75.992188 131.976562 76.019531 132.085938 76.054688 132.195312 76.109375 132.246094 76.1875 132.246094 76.296875 132.246094 76.367188 132.175781 76.402344 132.03125 76.4375 131.886719 76.453125 131.566406 76.453125 131.074219H77.019531C77.019531 131.839844 76.917969 132.40625 76.714844 132.773438 76.507812 133.140625 76.195312 133.320312 75.769531 133.320312 75.292969 133.320312 74.953125 133.179688 74.757812 132.890625 74.558594 132.605469 74.449219 132.09375 74.421875 131.363281L74.390625 130.421875C74.371094 129.886719 74.3125 129.527344 74.21875 129.332031 74.125 129.140625 73.960938 129.042969 73.722656 129.042969H73.386719V131.644531c0 .15625.015625.265625.046875.33593799999999874.03125.0625.08203100000000063.09375.15625.09375H73.914062V133.175781H71.386719V132.074219H71.597656C71.714844 132.074219 71.796875 132.039062 71.84375 131.972656 71.890625 131.910156 71.914062 131.800781 71.914062 131.644531zM73.386719 127.945312H73.785156C74.117188 127.945312 74.359375 127.816406 74.5 127.566406 74.648438 127.316406 74.722656 126.898438 74.722656 126.320312 74.722656 125.746094 74.648438 125.335938 74.5 125.089844 74.359375 124.84375 74.117188 124.71875 73.785156 124.71875H73.386719zm0 0"/><path style="stroke:none;fill-rule:nonzero;fill:#009a49;fill-opacity:1" d="M79.472656 133.363281C78.808594 133.363281 78.3125 133.042969 77.984375 132.402344 77.652344 131.761719 77.484375 130.800781 77.480469 129.515625 77.480469 128.300781 77.652344 127.367188 77.996094 126.714844 78.34375 126.054688 78.835938 125.726562 79.472656 125.726562 80.050781 125.726562 80.492188 126.015625 80.792969 126.585938 81.09375 127.160156 81.242188 127.996094 81.242188 129.097656V129.757812H78.820312C78.832031 130.695312 78.890625 131.347656 78.996094 131.710938 79.109375 132.09375 79.328125 132.289062 79.648438 132.289062 79.929688 132.289062 80.132812 132.132812 80.253906 131.824219 80.382812 131.511719 80.429688 131.042969 80.398438 130.414062h.84375C81.265625 131.402344 81.128906 132.144531 80.835938 132.628906 80.546875 133.117188 80.089844 133.363281 79.472656 133.363281zM79.921875 128.761719C79.917969 128.03125 79.882812 127.539062 79.816406 127.277344 79.746094 126.980469 79.597656 126.828125 79.371094 126.828125 79.152344 126.828125 79.003906 127.011719 78.929688 127.371094 78.878906 127.636719 78.84375 128.101562 78.824219 128.761719zm0 0"/><path style="stroke:none;fill-rule:nonzero;fill:#009a49;fill-opacity:1" d="M82.828125 131.214844C82.828125 131.414062 82.886719 131.554688 83.007812 131.628906 83.128906 131.703125 83.355469 131.738281 83.691406 131.738281H84.699219C85.289062 131.738281 85.726562 131.890625 86.019531 132.195312 86.3125 132.5 86.460938 132.957031 86.460938 133.570312 86.460938 134.234375 86.265625 134.730469 85.882812 135.0625 85.496094 135.394531 84.917969 135.558594 84.148438 135.558594 83.375 135.558594 82.792969 135.445312 82.40625 135.214844 82.023438 134.992188 81.828125 134.652344 81.828125 134.195312 81.828125 133.921875 81.898438 133.695312 82.039062 133.511719 82.183594 133.332031 82.386719 133.214844 82.652344 133.160156 82.570312 133.105469 82.488281 133.046875 82.417969 132.980469 82.09375 132.679688 81.929688 132.285156 81.929688 131.796875 81.929688 131.519531 81.996094 131.253906 82.125 131 82.257812 130.738281 82.417969 130.5625 82.605469 130.46875L82.507812 130.355469C82.222656 129.96875 82.082031 129.359375 82.082031 128.519531 82.082031 127.625 82.234375 126.9375 82.542969 126.453125 82.851562 125.96875 83.292969 125.726562 83.867188 125.726562 84.335938 125.726562 84.71875 125.878906 85.007812 126.175781 85.039062 126.050781 85.085938 125.929688 85.148438 125.808594 85.34375 125.441406 85.625 125.257812 85.992188 125.257812 86.265625 125.257812 86.476562 125.375 86.628906 125.605469 86.785156 125.835938 86.859375 126.152344 86.859375 126.558594 86.859375 126.875 86.808594 127.113281 86.710938 127.277344 86.609375 127.441406 86.460938 127.519531 86.269531 127.519531 86.105469 127.519531 85.980469 127.460938 85.890625 127.339844 85.808594 127.214844 85.765625 127.035156 85.765625 126.800781 85.765625 126.566406 85.804688 126.394531 85.882812 126.292969 85.960938 126.183594 86.089844 126.128906 86.269531 126.128906H86.273438C86.195312 126.015625 86.101562 125.957031 85.992188 125.957031 85.804688 125.957031 85.664062 126.066406 85.570312 126.292969 85.507812 126.445312 85.476562 126.621094 85.480469 126.828125 85.480469 126.867188 85.488281 126.9375 85.5 127.035156 85.519531 127.132812 85.539062 127.226562 85.5625 127.320312 85.628906 127.613281 85.660156 127.945312 85.65625 128.3125 85.65625 129.222656 85.511719 129.886719 85.226562 130.308594 84.941406 130.722656 84.488281 130.933594 83.867188 130.933594 83.585938 130.9375 83.335938 130.898438 83.125 130.816406 83.039062 130.839844 82.96875 130.890625 82.914062 130.964844 82.855469 131.042969 82.828125 131.125 82.828125 131.214844zM83.867188 126.628906C83.664062 126.628906 83.523438 126.757812 83.433594 127.015625 83.351562 127.277344 83.308594 127.710938 83.308594 128.328125 83.308594 128.980469 83.347656 129.429688 83.429688 129.675781 83.511719 129.921875 83.65625 130.046875 83.867188 130.046875 84.0625 130.046875 84.207031 129.910156 84.292969 129.640625 84.382812 129.375 84.429688 128.933594 84.429688 128.328125 84.429688 127.734375 84.382812 127.304688 84.292969 127.03125 84.203125 126.761719 84.058594 126.628906 83.867188 126.628906zM82.726562 133.945312C82.726562 134.191406 82.847656 134.375 83.082031 134.496094 83.320312 134.617188 83.675781 134.679688 84.152344 134.679688 84.625 134.679688 84.980469 134.613281 85.214844 134.476562 85.453125 134.34375 85.570312 134.140625 85.570312 133.867188 85.570312 133.695312 85.507812 133.578125 85.386719 133.515625 85.265625 133.457031 85.039062 133.429688 84.703125 133.429688H83.695312C83.539062 133.429688 83.390625 133.417969 83.25 133.390625 83.101562 133.394531 82.976562 133.449219 82.878906 133.558594 82.777344 133.664062 82.726562 133.792969 82.726562 133.945312zm0 0"/><path style="stroke:none;fill-rule:nonzero;fill:#009a49;fill-opacity:1" d="M87.546875 131.75V127.339844C87.546875 127.171875 87.527344 127.0625 87.488281 127.003906 87.449219 126.941406 87.371094 126.910156 87.261719 126.910156H87.070312V125.914062H88.875V131.75C88.875 131.90625 88.898438 132.019531 88.941406 132.085938 88.984375 132.148438 89.0625 132.179688 89.167969 132.179688H89.363281V133.175781H87.070312V132.179688H87.261719C87.367188 132.179688 87.4375 132.148438 87.484375 132.078125c.04296899999999937-.0625.0625-.171875.0625-.328125zM88.140625 123.429688C88.363281 123.429688 88.550781 123.535156 88.707031 123.738281 88.859375 123.945312 88.9375 124.195312 88.9375 124.492188 88.9375 124.789062 88.859375 125.039062 88.707031 125.242188 88.550781 125.445312 88.363281 125.546875 88.140625 125.546875 87.914062 125.546875 87.726562 125.445312 87.574219 125.242188 87.417969 125.039062 87.34375 124.789062 87.34375 124.492188 87.34375 124.195312 87.417969 123.945312 87.574219 123.738281 87.726562 123.535156 87.914062 123.429688 88.140625 123.429688zm0 0"/><path style="stroke:none;fill-rule:nonzero;fill:#009a49;fill-opacity:1" d="M91.917969 133.363281C91.238281 133.363281 90.742188 133.054688 90.425781 132.441406 90.117188 131.824219 89.957031 130.847656 89.957031 129.515625c0-1.3125.1601569999999981-2.2695310000000006.46875-2.875C90.742188 126.03125 91.238281 125.726562 91.917969 125.726562 92.597656 125.726562 93.097656 126.03125 93.417969 126.640625 93.726562 127.242188 93.882812 128.183594 93.882812 129.472656V129.515625C93.886719 130.847656 93.730469 131.824219 93.410156 132.441406 93.097656 133.054688 92.597656 133.363281 91.917969 133.363281zM91.917969 132.261719C92.152344 132.261719 92.3125 132.078125 92.394531 131.71875 92.472656 131.351562 92.511719 130.617188 92.511719 129.519531 92.511719 128.441406 92.472656 127.722656 92.394531 127.367188 92.3125 127.007812 92.152344 126.828125 91.917969 126.828125 91.679688 126.828125 91.519531 127.007812 91.441406 127.367188 91.363281 127.722656 91.324219 128.441406 91.324219 129.519531 91.324219 130.617188 91.363281 131.351562 91.441406 131.71875 91.519531 132.078125 91.679688 132.261719 91.917969 132.261719zm0 0"/><path style="stroke:none;fill-rule:nonzero;fill:#009a49;fill-opacity:1" d="M94.929688 131.75V127.339844C94.929688 127.171875 94.910156 127.0625 94.871094 127.003906 94.832031 126.941406 94.753906 126.910156 94.644531 126.910156H94.453125V125.914062H96.261719V126.808594L96.367188 126.632812C96.726562 126.03125 97.160156 125.726562 97.664062 125.726562 98.003906 125.726562 98.265625 125.867188 98.457031 126.152344 98.648438 126.433594 98.742188 126.820312 98.742188 127.320312V131.75C98.742188 131.90625 98.765625 132.019531 98.808594 132.085938 98.851562 132.148438 98.925781 132.179688 99.035156 132.179688H99.230469V133.175781H96.988281V132.179688H97.15625C97.25 132.179688 97.316406 132.148438 97.355469 132.085938 97.394531 132.019531 97.414062 131.90625 97.414062 131.75V127.761719C97.414062 127.574219 97.375 127.421875 97.292969 127.304688 97.214844 127.1875 97.113281 127.132812 96.988281 127.132812c-.25.0-.4375.1601569999999981-.5625.4882819999999981C96.304688 127.945312 96.25 128.429688 96.261719 129.085938V131.75C96.261719 131.90625 96.277344 132.019531 96.316406 132.085938 96.351562 132.148438 96.414062 132.179688 96.507812 132.179688H96.671875V133.175781h-2.21875V132.179688H94.644531C94.75 132.179688 94.824219 132.148438 94.867188 132.078125c.042968000000001894-.0625.0625-.171875.0625-.328125zm0 0"/><path style="stroke:none;fill-rule:nonzero;fill:#009a49;fill-opacity:1" d="M101.824219 133.363281C101.160156 133.363281 100.664062 133.042969 100.332031 132.402344 100.003906 131.761719 99.835938 130.800781 99.832031 129.515625 99.832031 128.300781 100.003906 127.367188 100.347656 126.714844 100.695312 126.054688 101.1875 125.726562 101.824219 125.726562 102.402344 125.726562 102.839844 126.015625 103.140625 126.585938 103.441406 127.160156 103.59375 127.996094 103.59375 129.097656V129.757812h-2.421875C101.179688 130.695312 101.238281 131.347656 101.347656 131.710938 101.460938 132.09375 101.675781 132.289062 102 132.289062 102.28125 132.289062 102.480469 132.132812 102.605469 131.824219 102.734375 131.511719 102.78125 131.042969 102.75 130.414062h.84375C103.617188 131.402344 103.480469 132.144531 103.1875 132.628906 102.894531 133.117188 102.441406 133.363281 101.824219 133.363281zM102.273438 128.761719C102.269531 128.03125 102.234375 127.539062 102.167969 127.277344 102.09375 126.980469 101.945312 126.828125 101.722656 126.828125 101.5 126.828125 101.355469 127.011719 101.28125 127.371094 101.226562 127.636719 101.191406 128.101562 101.175781 128.761719zm0 0"/><path style="stroke:none;fill-rule:nonzero;fill:#009a49;fill-opacity:1" d="M104.226562 133.175781V132.074219H104.4375C104.554688 132.074219 104.636719 132.042969 104.683594 131.980469 104.730469 131.910156 104.753906 131.800781 104.753906 131.644531v-6.453125c0-.1992180000000019-.023437000000001262-.328125-.0625-.390625C104.652344 124.738281 104.570312 124.710938 104.445312 124.71875h-.21875V123.617188H108.894531V126.855469H108.199219v-.421875C108.199219 125.808594 108.113281 125.371094 107.941406 125.117188 107.773438 124.859375 107.484375 124.734375 107.074219 124.734375H106.226562v2.90625H106.648438C106.789062 127.640625 106.886719 127.59375 106.945312 127.492188 107.003906 127.390625 107.035156 127.214844 107.035156 126.96875v-.671875H107.730469V130.050781H107.035156V129.402344C107.035156 129.160156 107.003906 128.988281 106.945312 128.890625 106.886719 128.792969 106.789062 128.742188 106.648438 128.742188H106.226562V132.074219H107.042969C107.46875 132.074219 107.765625 131.925781 107.9375 131.628906 108.109375 131.335938 108.199219 130.828125 108.199219 130.105469V129.617188H108.894531V133.175781zm0 0"/><path style="stroke:none;fill-rule:nonzero;fill:#009a49;fill-opacity:1" d="M109.910156 131.75V127.339844C109.910156 127.171875 109.886719 127.0625 109.847656 127.003906 109.808594 126.941406 109.734375 126.910156 109.621094 126.910156h-.1875V125.914062H111.238281V126.902344L111.382812 126.632812C111.738281 126.03125 112.164062 125.726562 112.664062 125.726562 112.996094 125.726562 113.257812 125.867188 113.449219 126.144531 113.578125 126.332031 113.660156 126.570312 113.707031 126.863281L113.835938 126.632812C114.195312 126.03125 114.628906 125.726562 115.136719 125.726562 115.472656 125.726562 115.738281 125.867188 115.925781 126.152344 116.117188 126.433594 116.214844 126.820312 116.214844 127.320312V131.75C116.214844 131.90625 116.234375 132.019531 116.277344 132.085938 116.320312 132.148438 116.398438 132.179688 116.503906 132.179688H116.699219V133.175781H114.484375V132.179688H114.644531C114.730469 132.179688 114.792969 132.148438 114.828125 132.085938 114.867188 132.019531 114.882812 131.90625 114.882812 131.75V127.761719C114.882812 127.574219 114.84375 127.421875 114.765625 127.304688 114.6875 127.1875 114.585938 127.132812 114.457031 127.132812c-.25.0-.4375.1601569999999981-.5625.4882819999999981C113.777344 127.945312 113.71875 128.429688 113.730469 129.085938V131.75C113.730469 131.90625 113.75 132.019531 113.785156 132.085938c.03906299999999874.0625.109375.09375.203125.09375H114.15625V133.175781H112V132.179688H112.160156c.08593799999999874.0.14843799999999874-.03125.1875-.09375C112.382812 132.019531 112.402344 131.90625 112.402344 131.75V127.769531C112.402344 127.578125 112.359375 127.421875 112.28125 127.304688 112.203125 127.1875 112.101562 127.132812 111.96875 127.132812 111.714844 127.132812 111.527344 127.292969 111.402344 127.621094 111.28125 127.945312 111.226562 128.429688 111.238281 129.085938V131.75C111.238281 131.90625 111.257812 132.019531 111.292969 132.085938 111.332031 132.148438 111.402344 132.179688 111.5 132.179688H111.675781V133.175781H109.433594V132.179688h.1875C109.726562 132.179688 109.800781 132.148438 109.84375 132.078125 109.886719 132.015625 109.910156 131.90625 109.910156 131.75zm0 0"/><path style="stroke:none;fill-rule:nonzero;fill:#009a49;fill-opacity:1" d="M117.484375 131.75V127.339844C117.484375 127.171875 117.460938 127.0625 117.421875 127.003906 117.382812 126.941406 117.308594 126.910156 117.195312 126.910156h-.1875V125.914062H118.8125V131.75C118.8125 131.90625 118.832031 132.019531 118.875 132.085938c.046875.0625.12109399999999937.09375.22656200000000126.09375H119.296875V133.175781H117.007812V132.179688h.1875C117.300781 132.179688 117.375 132.148438 117.417969 132.078125 117.460938 132.015625 117.484375 131.90625 117.484375 131.75zM118.074219 123.429688C118.296875 123.429688 118.488281 123.535156 118.640625 123.738281 118.796875 123.945312 118.871094 124.195312 118.871094 124.492188 118.871094 124.789062 118.796875 125.039062 118.640625 125.242188 118.488281 125.445312 118.296875 125.546875 118.074219 125.546875 117.851562 125.546875 117.660156 125.445312 117.507812 125.242188 117.355469 125.039062 117.277344 124.789062 117.277344 124.492188 117.277344 124.195312 117.355469 123.945312 117.507812 123.738281 117.660156 123.535156 117.851562 123.429688 118.074219 123.429688zm0 0"/><path style="stroke:none;fill-rule:nonzero;fill:#009a49;fill-opacity:1" d="M120.207031 131.75V125.042969C120.207031 124.875 120.191406 124.765625 120.160156 124.707031c-.03125-.0625-.08593700000000126-.09375-.1679680000000019-.09375H119.730469V123.617188H121.535156V131.75C121.535156 131.90625 121.558594 132.019531 121.601562 132.085938 121.644531 132.148438 121.71875 132.179688 121.828125 132.179688H122.023438V133.175781H119.730469V132.179688H119.921875C120.023438 132.179688 120.097656 132.148438 120.140625 132.078125 120.183594 132.015625 120.207031 131.90625 120.207031 131.75zm0 0"/><path style="stroke:none;fill-rule:nonzero;fill:#009a49;fill-opacity:1" d="M122.777344 131.75V127.339844C122.777344 127.171875 122.757812 127.0625 122.71875 127.003906 122.679688 126.941406 122.605469 126.910156 122.492188 126.910156H122.300781V125.914062H124.109375V131.75C124.109375 131.90625 124.128906 132.019531 124.171875 132.085938c.046875.0625.12109399999999937.09375.22656299999999874.09375H124.59375V133.175781H122.300781V132.179688H122.492188C122.597656 132.179688 122.671875 132.148438 122.714844 132.078125c.042968000000001894-.0625.0625-.171875.0625-.328125zM123.371094 123.429688C123.59375 123.429688 123.785156 123.535156 123.9375 123.738281 124.089844 123.945312 124.167969 124.195312 124.167969 124.492188 124.167969 124.789062 124.089844 125.039062 123.9375 125.242188 123.785156 125.445312 123.59375 125.546875 123.371094 125.546875 123.148438 125.546875 122.957031 125.445312 122.804688 125.242188 122.652344 125.039062 122.574219 124.789062 122.574219 124.492188 122.574219 124.195312 122.652344 123.945312 122.804688 123.738281 122.957031 123.535156 123.148438 123.429688 123.371094 123.429688zm0 0"/><path style="stroke:none;fill-rule:nonzero;fill:#009a49;fill-opacity:1" d="M126.585938 133.363281C126.144531 133.363281 125.789062 133.195312 125.519531 132.867188 125.25 132.53125 125.117188 132.089844 125.117188 131.542969 125.117188 131.066406 125.230469 130.667969 125.453125 130.339844 125.675781 130.007812 126.074219 129.664062 126.640625 129.304688L127.242188 128.929688C127.332031 128.871094 127.414062 128.800781 127.488281 128.714844 127.601562 128.585938 127.683594 128.4375 127.734375 128.273438 127.789062 128.101562 127.8125 127.910156 127.804688 127.695312 127.796875 127.480469 127.753906 127.308594 127.675781 127.183594 127.53125 126.929688 127.269531 126.800781 126.886719 126.800781 126.566406 126.800781 126.320312 126.871094 126.15625 127.011719L126.164062 127.003906 126.296875 126.988281c.19140600000000063.0.34375.08593799999999874.453125.25C126.867188 127.398438 126.921875 127.621094 126.921875 127.902344c0 .24218700000000126-.078125.45703100000000063-.234375.640625C126.53125 128.726562 126.34375 128.816406 126.136719 128.816406 125.871094 128.816406 125.660156 128.707031 125.503906 128.492188 125.347656 128.273438 125.273438 127.980469 125.273438 127.613281 125.273438 127.050781 125.457031 126.597656 125.824219 126.25 126.195312 125.902344 126.683594 125.726562 127.289062 125.726562 127.859375 125.726562 128.300781 125.902344 128.613281 126.25 128.921875 126.597656 129.078125 127.089844 129.078125 127.734375v3.34375C129.078125 131.585938 129.085938 131.914062 129.105469 132.066406 129.125 132.21875 129.164062 132.292969 129.226562 132.292969 129.3125 132.292969 129.367188 132.253906 129.390625 132.175781 129.417969 132.09375 129.429688 131.917969 129.429688 131.648438V131.140625H129.980469V131.648438C129.980469 132.1875 129.886719 132.601562 129.699219 132.890625 129.515625 133.179688 129.253906 133.320312 128.910156 133.320312 128.5 133.320312 128.203125 133.105469 128.019531 132.671875 127.976562 132.558594 127.9375 132.433594 127.902344 132.292969 127.84375 132.421875 127.78125 132.535156 127.714844 132.636719 127.40625 133.121094 127.03125 133.363281 126.585938 133.363281zM127.75 130.527344V129.421875L127.730469 129.449219C127.15625 130.105469 126.800781 130.542969 126.671875 130.757812 126.542969 130.972656 126.480469 131.230469 126.480469 131.527344c0 .25.04296899999999937.4375.13281200000000126.5664060000000006C126.699219 132.222656 126.824219 132.289062 126.992188 132.289062 127.21875 132.289062 127.394531 132.148438 127.519531 131.863281 127.566406 131.757812 127.609375 131.621094 127.65625 131.457031 127.679688 131.351562 127.703125 131.210938 127.71875 131.03125 127.738281 130.851562 127.75 130.683594 127.75 130.527344zm0 0"/><path style="stroke:none;fill-rule:nonzero;fill:#009a49;fill-opacity:1" d="M130.386719 128.882812H131.984375V130.066406H130.386719zm0 0"/><path style="stroke:none;fill-rule:nonzero;fill:#009a49;fill-opacity:1" d="M133.085938 131.644531v-6.453125C133.085938 124.992188 133.066406 124.863281 133.027344 124.800781 132.988281 124.738281 132.90625 124.710938 132.78125 124.71875H132.558594V123.617188H135.328125C136.023438 123.617188 136.539062 123.824219 136.867188 124.230469 137.203125 124.636719 137.371094 125.265625 137.371094 126.117188 137.371094 127.03125 137.199219 127.679688 136.859375 128.070312 136.632812 128.328125 136.304688 128.5 135.871094 128.59375 136.0625 128.652344 136.214844 128.734375 136.335938 128.84375 136.71875 129.148438 136.945312 129.671875 137.015625 130.421875L137.09375 131.363281C137.132812 131.734375 137.164062 131.976562 137.195312 132.085938 137.226562 132.195312 137.285156 132.246094 137.359375 132.246094 137.472656 132.246094 137.542969 132.175781 137.574219 132.03125 137.609375 131.886719 137.625 131.566406 137.625 131.074219H138.191406C138.191406 131.839844 138.089844 132.40625 137.886719 132.773438 137.683594 133.140625 137.367188 133.320312 136.945312 133.320312 136.464844 133.320312 136.128906 133.179688 135.929688 132.890625 135.734375 132.605469 135.621094 132.09375 135.59375 131.363281L135.566406 130.421875C135.542969 129.886719 135.488281 129.527344 135.394531 129.332031 135.300781 129.140625 135.136719 129.042969 134.898438 129.042969H134.5625V131.644531c0 .15625.015625.265625.04296899999999937.33593799999999874.03125.0625.08203100000000063.09375.15625.09375h.328125V133.175781h-2.53125V132.074219H132.769531C132.886719 132.074219 132.96875 132.039062 133.015625 131.972656 133.0625 131.910156 133.085938 131.800781 133.085938 131.644531zM134.5625 127.945312H134.957031C135.292969 127.945312 135.53125 127.816406 135.675781 127.566406 135.820312 127.316406 135.894531 126.898438 135.894531 126.320312 135.894531 125.746094 135.820312 125.335938 135.675781 125.089844 135.53125 124.84375 135.292969 124.71875 134.957031 124.71875H134.5625zm0 0"/><path style="stroke:none;fill-rule:nonzero;fill:#009a49;fill-opacity:1" d="M140.589844 133.363281C139.910156 133.363281 139.414062 133.054688 139.101562 132.441406 138.789062 131.824219 138.632812 130.847656 138.628906 129.515625 138.632812 128.203125 138.789062 127.246094 139.101562 126.640625 139.414062 126.03125 139.910156 125.726562 140.589844 125.726562 141.273438 125.726562 141.773438 126.03125 142.089844 126.640625 142.402344 127.242188 142.558594 128.183594 142.558594 129.472656V129.515625C142.558594 130.847656 142.402344 131.824219 142.085938 132.441406 141.769531 133.054688 141.273438 133.363281 140.589844 133.363281zm0-1.1015620000000013C140.828125 132.261719 140.988281 132.078125 141.066406 131.71875 141.148438 131.351562 141.1875 130.617188 141.1875 129.519531 141.1875 128.441406 141.148438 127.722656 141.066406 127.367188 140.988281 127.007812 140.828125 126.828125 140.589844 126.828125 140.351562 126.828125 140.195312 127.007812 140.113281 127.367188 140.039062 127.722656 140 128.441406 140 129.519531 140 130.617188 140.039062 131.351562 140.113281 131.71875 140.195312 132.078125 140.351562 132.261719 140.589844 132.261719zm0 0"/><path style="stroke:none;fill-rule:nonzero;fill:#009a49;fill-opacity:1" d="M143.613281 131.75V127.339844C143.613281 127.171875 143.59375 127.0625 143.554688 127.003906 143.515625 126.941406 143.441406 126.910156 143.328125 126.910156H143.136719V125.914062H144.945312V126.902344L145.089844 126.632812C145.445312 126.03125 145.871094 125.726562 146.367188 125.726562 146.703125 125.726562 146.964844 125.867188 147.15625 126.144531 147.285156 126.332031 147.367188 126.570312 147.414062 126.863281L147.542969 126.632812C147.902344 126.03125 148.335938 125.726562 148.839844 125.726562 149.179688 125.726562 149.445312 125.867188 149.632812 126.152344 149.824219 126.433594 149.921875 126.820312 149.921875 127.320312V131.75C149.921875 131.90625 149.941406 132.019531 149.984375 132.085938 150.027344 132.148438 150.105469 132.179688 150.210938 132.179688H150.40625V133.175781H148.191406V132.179688H148.351562C148.4375 132.179688 148.5 132.148438 148.535156 132.085938 148.574219 132.019531 148.589844 131.90625 148.589844 131.75V127.761719C148.589844 127.574219 148.550781 127.421875 148.46875 127.304688 148.394531 127.1875 148.292969 127.132812 148.164062 127.132812c-.25.0-.4375.1601569999999981-.5625.4882819999999981C147.480469 127.945312 147.425781 128.429688 147.4375 129.085938V131.75C147.4375 131.90625 147.457031 132.019531 147.492188 132.085938 147.53125 132.148438 147.597656 132.179688 147.691406 132.179688h.171875V133.175781h-2.15625V132.179688H145.867188c.08593700000000126.0.14843700000000126-.03125.1875-.09375C146.089844 132.019531 146.109375 131.90625 146.109375 131.75V127.769531C146.109375 127.578125 146.066406 127.421875 145.988281 127.304688 145.910156 127.1875 145.808594 127.132812 145.675781 127.132812 145.421875 127.132812 145.234375 127.292969 145.109375 127.621094 144.988281 127.945312 144.933594 128.429688 144.945312 129.085938V131.75C144.945312 131.90625 144.960938 132.019531 145 132.085938c.03906200000000126.0625.109375.09375.20703100000000063.09375h.171875V133.175781H143.136719V132.179688H143.328125C143.433594 132.179688 143.507812 132.148438 143.550781 132.078125c.04296899999999937-.0625.0625-.171875.0625-.328125zm0 0"/><path style="stroke:none;fill-rule:nonzero;fill:#009a49;fill-opacity:1" d="M152.347656 133.363281C151.90625 133.363281 151.550781 133.195312 151.28125 132.867188 151.011719 132.53125 150.878906 132.089844 150.878906 131.542969c0-.47656299999999874.109375-.875.33593799999999874-1.203125C151.4375 130.007812 151.835938 129.664062 152.402344 129.304688L153.003906 128.929688C153.09375 128.871094 153.175781 128.800781 153.25 128.714844 153.363281 128.585938 153.445312 128.4375 153.496094 128.273438 153.550781 128.101562 153.574219 127.910156 153.566406 127.695312 153.558594 127.480469 153.515625 127.308594 153.4375 127.183594 153.292969 126.929688 153.03125 126.800781 152.648438 126.800781 152.328125 126.800781 152.082031 126.871094 151.917969 127.011719L151.925781 127.003906 152.058594 126.988281c.19140600000000063.0.34375.08593799999999874.453125.25C152.628906 127.398438 152.683594 127.621094 152.683594 127.902344c0 .24218700000000126-.078125.45703100000000063-.234375.640625C152.289062 128.726562 152.105469 128.816406 151.894531 128.816406 151.632812 128.816406 151.421875 128.707031 151.265625 128.492188 151.109375 128.273438 151.035156 127.980469 151.035156 127.613281 151.035156 127.050781 151.21875 126.597656 151.585938 126.25 151.957031 125.902344 152.445312 125.726562 153.050781 125.726562 153.621094 125.726562 154.0625 125.902344 154.375 126.25 154.683594 126.597656 154.839844 127.089844 154.839844 127.734375v3.34375C154.839844 131.585938 154.847656 131.914062 154.867188 132.066406 154.886719 132.21875 154.925781 132.292969 154.984375 132.292969 155.074219 132.292969 155.128906 132.253906 155.152344 132.175781 155.179688 132.09375 155.191406 131.917969 155.191406 131.648438V131.140625H155.742188V131.648438C155.742188 132.1875 155.648438 132.601562 155.460938 132.890625 155.277344 133.179688 155.015625 133.320312 154.671875 133.320312 154.261719 133.320312 153.964844 133.105469 153.78125 132.671875 153.738281 132.558594 153.699219 132.433594 153.660156 132.292969 153.605469 132.421875 153.542969 132.535156 153.476562 132.636719 153.167969 133.121094 152.792969 133.363281 152.347656 133.363281zM153.511719 130.527344V129.421875L153.492188 129.449219C152.917969 130.105469 152.5625 130.542969 152.433594 130.757812 152.304688 130.972656 152.242188 131.230469 152.242188 131.527344 152.242188 131.777344 152.285156 131.964844 152.371094 132.09375 152.460938 132.222656 152.585938 132.289062 152.753906 132.289062 152.980469 132.289062 153.15625 132.148438 153.28125 131.863281 153.328125 131.757812 153.371094 131.621094 153.417969 131.457031 153.441406 131.351562 153.464844 131.210938 153.480469 131.03125 153.5 130.851562 153.511719 130.683594 153.511719 130.527344zm0 0"/><path style="stroke:none;fill-rule:nonzero;fill:#009a49;fill-opacity:1" d="M157.0625 131.214844C157.0625 131.414062 157.121094 131.554688 157.242188 131.628906 157.363281 131.703125 157.589844 131.738281 157.925781 131.738281H158.933594C159.523438 131.738281 159.960938 131.890625 160.253906 132.195312 160.546875 132.5 160.695312 132.957031 160.695312 133.570312 160.695312 134.234375 160.5 134.730469 160.117188 135.0625 159.734375 135.394531 159.15625 135.558594 158.382812 135.558594 157.609375 135.558594 157.027344 135.445312 156.640625 135.214844 156.257812 134.992188 156.066406 134.652344 156.066406 134.195312 156.066406 133.921875 156.136719 133.695312 156.273438 133.511719 156.417969 133.332031 156.621094 133.214844 156.886719 133.160156 156.804688 133.105469 156.726562 133.046875 156.652344 132.980469 156.328125 132.679688 156.164062 132.285156 156.164062 131.796875 156.164062 131.519531 156.230469 131.253906 156.359375 131 156.492188 130.738281 156.652344 130.5625 156.84375 130.46875L156.742188 130.355469C156.457031 129.96875 156.316406 129.359375 156.316406 128.519531 156.316406 127.625 156.46875 126.9375 156.777344 126.453125 157.085938 125.96875 157.527344 125.726562 158.101562 125.726562 158.574219 125.726562 158.953125 125.878906 159.246094 126.175781 159.273438 126.050781 159.320312 125.929688 159.386719 125.808594 159.578125 125.441406 159.859375 125.257812 160.226562 125.257812 160.5 125.257812 160.710938 125.375 160.863281 125.605469 161.019531 125.835938 161.09375 126.152344 161.09375 126.558594 161.09375 126.875 161.046875 127.113281 160.945312 127.277344 160.84375 127.441406 160.699219 127.519531 160.503906 127.519531 160.339844 127.519531 160.214844 127.460938 160.128906 127.339844 160.042969 127.214844 160.003906 127.035156 160.003906 126.800781 160.003906 126.566406 160.039062 126.394531 160.117188 126.292969 160.199219 126.183594 160.328125 126.128906 160.503906 126.128906H160.507812C160.433594 126.015625 160.339844 125.957031 160.226562 125.957031 160.039062 125.957031 159.898438 126.066406 159.804688 126.292969 159.742188 126.445312 159.710938 126.621094 159.714844 126.828125 159.714844 126.867188 159.722656 126.9375 159.734375 127.035156 159.753906 127.132812 159.773438 127.226562 159.796875 127.320312 159.863281 127.613281 159.894531 127.945312 159.890625 128.3125 159.890625 129.222656 159.746094 129.886719 159.460938 130.308594 159.175781 130.722656 158.722656 130.933594 158.101562 130.933594 157.820312 130.9375 157.574219 130.898438 157.359375 130.816406 157.273438 130.839844 157.203125 130.890625 157.148438 130.964844 157.089844 131.042969 157.0625 131.125 157.0625 131.214844zM158.101562 126.628906C157.898438 126.628906 157.757812 126.757812 157.667969 127.015625 157.585938 127.277344 157.542969 127.710938 157.542969 128.328125 157.542969 128.980469 157.585938 129.429688 157.664062 129.675781 157.746094 129.921875 157.890625 130.046875 158.101562 130.046875 158.296875 130.046875 158.441406 129.910156 158.527344 129.640625 158.617188 129.375 158.664062 128.933594 158.664062 128.328125 158.664062 127.734375 158.617188 127.304688 158.527344 127.03125 158.4375 126.761719 158.296875 126.628906 158.101562 126.628906zM156.960938 133.945312C156.960938 134.191406 157.082031 134.375 157.320312 134.496094 157.554688 134.617188 157.910156 134.679688 158.386719 134.679688 158.863281 134.679688 159.214844 134.613281 159.449219 134.476562 159.6875 134.34375 159.804688 134.140625 159.804688 133.867188 159.804688 133.695312 159.746094 133.578125 159.621094 133.515625 159.5 133.457031 159.273438 133.429688 158.9375 133.429688H157.929688C157.773438 133.429688 157.625 133.417969 157.484375 133.390625 157.335938 133.394531 157.214844 133.449219 157.113281 133.558594 157.011719 133.664062 156.960938 133.792969 156.960938 133.945312zm0 0"/><path style="stroke:none;fill-rule:nonzero;fill:#009a49;fill-opacity:1" d="M161.78125 131.75V127.339844C161.78125 127.171875 161.761719 127.0625 161.722656 127.003906 161.683594 126.941406 161.605469 126.910156 161.496094 126.910156H161.304688V125.914062H163.113281V126.808594L163.21875 126.632812C163.578125 126.03125 164.011719 125.726562 164.515625 125.726562 164.855469 125.726562 165.117188 125.867188 165.308594 126.152344 165.5 126.433594 165.59375 126.820312 165.59375 127.320312V131.75C165.59375 131.90625 165.617188 132.019531 165.660156 132.085938 165.703125 132.148438 165.777344 132.179688 165.886719 132.179688H166.082031V133.175781H163.839844V132.179688H164.007812c.09375.0.1601569999999981-.03125.19921899999999937-.09375C164.246094 132.019531 164.265625 131.90625 164.265625 131.75V127.761719C164.265625 127.574219 164.226562 127.421875 164.144531 127.304688 164.066406 127.1875 163.964844 127.132812 163.839844 127.132812c-.25.0-.4375.1601569999999981-.5625.4882819999999981C163.15625 127.945312 163.101562 128.429688 163.113281 129.085938V131.75C163.113281 131.90625 163.128906 132.019531 163.167969 132.085938 163.203125 132.148438 163.265625 132.179688 163.359375 132.179688H163.523438V133.175781h-2.21875V132.179688H161.496094C161.601562 132.179688 161.675781 132.148438 161.71875 132.078125c.04296899999999937-.0625.0625-.171875.0625-.328125zm0 0"/><path style="stroke:none;fill-rule:nonzero;fill:#009a49;fill-opacity:1" d="M168.058594 133.363281C167.617188 133.363281 167.261719 133.195312 166.988281 132.867188 166.722656 132.53125 166.585938 132.089844 166.585938 131.542969 166.585938 131.066406 166.699219 130.667969 166.925781 130.339844 167.148438 130.007812 167.542969 129.664062 168.113281 129.304688L168.714844 128.929688C168.804688 128.871094 168.886719 128.800781 168.960938 128.714844 169.074219 128.585938 169.15625 128.4375 169.207031 128.273438 169.257812 128.101562 169.28125 127.910156 169.277344 127.695312 169.269531 127.480469 169.226562 127.308594 169.144531 127.183594 169.003906 126.929688 168.738281 126.800781 168.359375 126.800781 168.039062 126.800781 167.792969 126.871094 167.625 127.011719L167.636719 127.003906 167.765625 126.988281C167.960938 126.988281 168.113281 127.074219 168.222656 127.238281 168.335938 127.398438 168.394531 127.621094 168.394531 127.902344 168.394531 128.144531 168.316406 128.359375 168.15625 128.542969 168 128.726562 167.816406 128.816406 167.605469 128.816406 167.34375 128.816406 167.132812 128.707031 166.972656 128.492188 166.820312 128.273438 166.742188 127.980469 166.742188 127.613281 166.742188 127.050781 166.925781 126.597656 167.296875 126.25 167.667969 125.902344 168.15625 125.726562 168.757812 125.726562 169.332031 125.726562 169.773438 125.902344 170.082031 126.25c.3125.34765600000000063.46875.8398439999999994.46875 1.484375v3.34375C170.550781 131.585938 170.558594 131.914062 170.574219 132.066406 170.59375 132.21875 170.636719 132.292969 170.695312 132.292969 170.78125 132.292969 170.839844 132.253906 170.863281 132.175781 170.886719 132.09375 170.902344 131.917969 170.902344 131.648438V131.140625H171.453125V131.648438C171.453125 132.1875 171.359375 132.601562 171.171875 132.890625 170.988281 133.179688 170.722656 133.320312 170.378906 133.320312 169.972656 133.320312 169.675781 133.105469 169.492188 132.671875 169.449219 132.558594 169.410156 132.433594 169.371094 132.292969 169.316406 132.421875 169.253906 132.535156 169.1875 132.636719 168.878906 133.121094 168.503906 133.363281 168.058594 133.363281zM169.222656 130.527344V129.421875L169.199219 129.449219C168.625 130.105469 168.273438 130.542969 168.144531 130.757812 168.015625 130.972656 167.953125 131.230469 167.953125 131.527344c0 .25.04296899999999937.4375.12890600000000063.5664060000000006C168.167969 132.222656 168.296875 132.289062 168.464844 132.289062 168.691406 132.289062 168.867188 132.148438 168.992188 131.863281 169.039062 131.757812 169.082031 131.621094 169.125 131.457031 169.152344 131.351562 169.175781 131.210938 169.191406 131.03125 169.210938 130.851562 169.222656 130.683594 169.222656 130.527344zm0 0"/></g></svg>