<svg xmlns="http://www.w3.org/2000/svg" xmlns:xlink="http://www.w3.org/1999/xlink" width="225pt" height="150pt" viewBox="0 0 225 150"><g id="surface1"><path d="M0 0h225v150H0z" style="fill:#da272f;fill-opacity:1;stroke:none"/><path style="stroke:none;fill-rule:evenodd;fill:#f5ca00;fill-opacity:1" d="M0 0V150H225zM0 0"/><path style="fill-rule:evenodd;fill:#000;fill-opacity:1;stroke-width:.09375;stroke-linecap:butt;stroke-linejoin:miter;stroke:#000;stroke-opacity:1;stroke-miterlimit:4" d="M389.405169 99.199185C394.398631 97.797308 399.704908 97.90158 404.895327 98.295496 407.699081 98.50404 409.297915 101.203521 410.89675 103.196272 412.599856 105.397566 414.905422 107.29763 415.496296 110.101383 419.400696 124.699438 428.1016 137.80293 429.294933 153.096131 429.897393 160.904932 431.403541 168.597875 433.396292 176.198132 434.195709 183.103244 433.894479 190.101041 433.998751 197.098839 434.103023 200.70201 432.701146 204.096637 432.399917 207.699808 433.998751 212.195082 437.79888 215.404337 440.405675 219.297151 442.201468 218.602006 444.194218 218.103818 445.700367 216.701941 446.905285 214.998835 447.403473 212.901813 448.20289 210.897477 448.596806 211.499936 449.094994 212.102396 449.500495 212.704855 449.697453 210.700519 449.894411 208.696183 450.49687 206.703432 451.898747 205.799743 453.497582 205.197284 455.00373 204.594825 454.505543 199.300133 455.30496 193.495668 452.199977 188.803437 449.697453 184.794764 446.604056 180.797678 446.198554 176.001174 445.596095 167.902729 446.997971 159.804285 448.20289 151.902798 450.902372 150.500921 454.505543 148.600857 453.995769 144.997686 453.798811 140.39814 453.694539 135.798594 454.401271 131.30332 454.7025 131.30332 455.397646 131.396006 455.698876 131.500278 455.30496 135.404678 454.899458 139.297493 454.598229 143.201894 455.397646 143.201894 456.799523 143.29458 457.494668 143.398851 456.99648 140.896328 458.097127 138.695034 459.695962 136.899241 461.005153 137.501701 462.198486 138.10416 463.403405 138.799306 463.496091 138.10416 463.704634 136.794969 463.79732 136.099824 465.002239 136.401054 466.102886 136.702283 467.203533 137.003513 466.798032 134.304031 466.496802 131.500278 466.404116 128.696525 468.30418 132.299695 469.103597 136.296782 469.694471 140.305454 467.898679 140.39814 466.195572 140.502412 464.39978 140.595098 464.39978 141.104871 464.295508 141.996975 464.295508 142.495162 463.994278 145.901375 463.79732 149.296002 464.897967 152.597943 465.998614 150.802151 467.296219 149.099044 467.794407 147.002022 467.400491 145.298916 466.601074 143.700081 465.998614 142.101247L466.705346 141.904289C469.300555 143.503123 471.698807 145.194644 474.305603 146.700792 474.80379 143.097622 474.502561 139.494451 474.502561 135.902866 477.09777 142.298204 476.101395 149.400274 478.00146 156.096842 477.09777 156.201114 475.301978 156.305386 474.398289 156.398072 475.394664 158.796324 476.495311 161.101889 477.595958 163.303183 478.198417 160.904932 478.603919 158.402408 479.194793 155.899884 479.403336 155.204739 479.797252 153.594318 479.99421 152.794901 480.399711 156.096842 480.596669 159.294511 480.805213 162.596452 479.496022 163.09464 478.198417 163.697099 477.005084 164.299559 477.70023 168.794833 478.696605 173.301692 479.299064 177.796967 478.800877 180.90195 477.399 183.902661 474.896476 185.802725 471.304891 188.803437 467.794407 192.105378 464.805281 195.696962 463.102175 199.705635 463.496091 204.594825 465.801656 208.394953 465.697385 207.294306 465.604699 206.297931 465.500427 205.197284 470.204244 200.09955 476.101395 195.998192 479.600294 189.799812 481.199129 196.704923 480.596669 204.594825 476.495311 210.503561 474.502561 213.4 474.502561 217.003171 473.100684 220.096569 471.304891 222.599092 469.300555 224.904658 466.99499 226.897408 462.395444 230.095078 456.301335 232.099414 454.100041 237.799607 460.205735 240.696046 464.897967 246.396239 466.102886 253.000121 467.597449 262.002255 472.498225 269.996428 473.598872 278.998562 474.004373 281.304127 474.004373 284.397525 476.495311 285.602444 479.600294 287.00432 482.705277 288.394611 484.999257 291.001407 490.201263 296.203412 496.596601 300.096227 501.196147 305.900691 503.594399 308.901403 506.502424 311.600884 509.595821 314.103408 510.001323 313.500949 510.696468 312.400302 511.10197 311.902114 508.298216 309.295318 505.297505 306.897067 503.501713 303.595126 501.601648 300.096227 499.701584 296.504642 497.697248 293.098429 498.102749 292.299012 498.600937 291.603866 498.994853 290.804449 497.80152 289.402572 496.005727 288.000695 496.399643 285.996359 497.697248 274.399016 500.605273 262.894358 499.400354 251.297014 498.600937 244.496175 498.299707 237.301419 494.696537 231.404268 492.298285 227.198638 491.197638 222.402134 488.602428 218.405048 486.099904 214.894563 487.999969 210.596247 487.304823 206.599161 490.201263 204.594825 493.897119 204.305181 497.19906 202.99599 502.702295 199.902593 508.495174 196.994567 512.805076 192.198064 512.202617 190.796187 511.600157 189.498582 510.997698 188.096705 512.005659 189.000394 513.002034 189.799812 513.998409 190.703501 518.400997 185.698453 524.70365 181.597095 531.597175 183.103244 531.504489 182.605056 531.400218 181.504409 531.400218 180.994636 535.003388 180.994636 538.502287 181.098908 542.105458 181.098908 541.398727 182.002597 540.599309 182.8947 539.904164 183.798389 542.302416 182.500784 544.700668 181.295865 547.203191 179.998261 548.697754 182.500784 549.995359 185.095994 550.794776 187.899747 546.299502 191.097417 542.105458 194.700587 537.297368 197.400069 531.898405 200.40078 529.905655 206.599161 526.105526 211.094435 523.104815 214.697605 521.297437 219.204465 521.297437 223.896697 524.495106 231.195725 525.294523 239.201483 527.101901 246.894427 527.403131 246.80174 528.098277 246.697469 528.399506 246.604783 529.094652 250.995785 530.705072 255.201415 531.701447 259.499731 533.705783 266.196299 535.200346 272.997139 538.502287 279.195519 538.0041 280.296166 537.40164 281.396813 536.799181 282.601732 539.197433 286.100631 537.70287 290.503219 539.602934 294.199076 541.699956 299.204123 542.800603 304.498815 544.295166 309.70082 545.697043 314.601596 545.604357 320.104831 548.605068 324.495833 551.802737 329.002693 552.405197 335.096801 551.200278 340.403078 547.701379 347.296604 542.395102 355.198091 533.705783 355.302363 528.596464 352.996797 523.394459 350.598545 517.694266 350.100358 505.899964 348.698481 494.302621 345.69777 482.601005 343.797705 470.099973 342.697058 459.197774 336.00049 447.994347 330.995443 445.005221 329.396608 440.498361 328.597191 440.301403 324.495833 439.698944 324.797062 439.003799 325.098292 438.401339 325.399522 436.200045 323.198228 433.002376 322.896998 430.302894 321.599393 426.699724 319.803601 423.594741 316.999847 420.605615 314.300366 418.902509 315.296741 416.504257 315.794929 415.994483 317.903537 415.195066 320.498746 413.897461 323.105542 414.094419 325.805023 415.10238 330.404569 418.705551 333.694925 422.100178 336.695636 420.397071 336.498678 418.798237 336.30172 417.09513 336.104762 418.497007 338.89693 420.304385 341.804955 423.594741 342.5001 428.599788 343.705019 433.801793 344.504437 438.401339 347.099646 433.801793 349.60217 428.599788 350.702817 424.301472 353.599257 427.603413 355.302363 430.499852 357.700615 434.195709 358.604304 439.003799 359.901909 444.101532 360.203139 449.002308 359.994595 451.09933 360.098867 453.404896 359.797637 455.30496 360.701326 461.80457 363.597766 467.701721 367.397894 473.297642 371.69621 471.895765 371.603524 470.401202 371.394981 468.999326 371.302295 471.096348 374.094462 473.900101 376.20307 476.101395 378.902552 477.503272 381.694719 478.105731 385.205204 480.596669 387.302226 482.797963 388.402873 485.103529 389.294977 487.200551 390.499895 485.300487 390.001708 483.296151 389.399248 481.396087 389.005333 482.705277 393.002419 487.096279 394.103066 489.494531 397.300735 487.501781 396.698276 485.497445 395.794587 483.504695 394.902483 482.705277 397.601965 484.19984 399.803259 485.798675 401.796009 483.400423 400.602676 481.199129 398.89957 478.997835 397.497693 475.197706 397.798923 471.895765 399.502029 468.802368 401.402094 466.102886 401.49478 464.701009 398.795298 463.299133 396.999506 461.80457 397.601965 460.298421 398.204424 458.896545 398.89957 459.603276 400.000217 460.402693 401.205136 461.202111 402.398469 457.795898 401.402094 454.505543 400.104489 450.902372 400.104489 449.199265 400.301447 448.80535 398.29711 448.098618 397.103777 447.102243 397.196463 446.094282 397.405007 445.202179 397.497693 440.104446 392.295688 432.295645 387.499184 432.596874 379.296468 429.700435 377.303717 427.197911 374.801193 426.398494 371.302295 426.097264 369.297958 424.405744 368.197311 422.702637 367.502166 421.995906 371.904754 421.995906 376.596986 419.898884 380.698344 419.597654 380.698344 418.902509 380.605658 418.601279 380.605658 415.797525 371.001065 410.004647 362.798348 404.003224 355.001133 403.099535 353.101069 401.199471 352.799839 399.299406 353.298027 397.89753 353.599257 396.599925 353.402299 395.499278 352.799839 395.30232 352.19738 394.896818 351.201005 394.804132 350.598545 396.901154 349.799128 399.102448 348.999711 401.199471 348.003335 397.804844 347.296604 394.294359 347.099646 390.899732 346.300229 390.598502 345.09531 390.297272 343.901977 390.100315 342.604372 389.300897 343.901977 388.605752 345.199582 387.794749 346.404501 386.195914 340.194535 386.798374 333.694925 387.296561 327.403858 387.794749 325.098292 385.697727 323.603729 384.898309 321.796351 384.203164 318.598682 385.095267 315.099783 383.99462 311.902114 381.005495 309.805092 378.004783 307.499526 375.896175 304.394543 371.296629 306.503151 366.905627 308.797131 362.896955 311.902114 358.494367 315.296741 353.095404 316.594346 348.403172 319.398099 346.00492 320.904248 343.201167 321.402435 340.594371 322.503082 337.802203 324.101917 335.195408 326.001981 332.102011 326.998356 327.803694 328.701463 323.099877 328.203275 318.697289 329.50088 313.298326 330.995443 306.902987 330.196026 302.396127 334.204698 311.004346 333.301009 319.902208 332.09609 328.394568 334.702885 331.603823 335.803532 335.496638 336.695636 337.095472 339.997577 340.397413 340.298806 343.201167 342.198871 345.205503 344.701394 348.60013 348.304565 353.199676 350.100358 357.104076 352.799839 365.005563 357.897573 374.494299 358.604304 383.102517 361.801973 388.304522 363.898995 394.097401 362.90262 399.496364 363.597766 404.39714 366.204561 405.602059 372.796857 404.999599 377.801905 402.705619 383.096596 401.894616 388.796789 401.894616 394.404296c.9036890000000426.0 1.7031059999999911.0 2.502523999999994.0C405.903288 401.900281 407.803353 410.195684 404.003224 417.402025 402.798305 417.402025 401.604972 417.297753 400.400053 417.297753 401.095199 418.201442 401.697658 419.00086 402.404389 419.904549 397.503614 423.797364 398.998177 432.197038 392.602838 434.699562 389.996043 435.695937 386.798374 433.900144 386.705687 431.003705 386.497144 425.604742 386.497144 420.205779 385.002581 415.003773 383.99462 410.902415 380.704265 407.797432 379.10543 403.997303 377.298052 399.502029 374.100383 395.701901 370.9954 392.09873 371.296629 390.905397 371.597859 389.700478 371.899089 388.495559 370.798442 389.294977 369.802067 390.198666 368.805692 390.998083 361.796308 386.699767 353.605177 385.59912 345.900648 382.899638 341.996248 381.497762 337.802203 381.196532 333.700845 380.501386 328.19761 379.597697 322.995605 377.303717 317.596642 376.098798 310.703116 373.295045 301.89794 373.804818 297.298394 367.096664 297.101436 368.104625 296.800206 369.101001 296.498977 370.097376 291.296971 366.297247 284.797361 366.297247 278.90021 364.304497 270.998724 363.099578 262.599049 361.894659 256.099439 356.901198 252.90177 352.602881 250.596204 347.505148 249.704101 342.094599 250.897434 337.900555 252.797498 333.903468 255.49698 330.497255 258.903192 326.198939 263.398466 323.00127 266.700407 318.702954 272.099371 313.802178 276.003771 307.302568 282.294837 303.502439 282.897297 300.30477 285.295549 298.103476 287.601115 295.994868c0 1.204919000000018.0 2.4098379999999793.0 3.6031710000000317C288.898719 297.304059 289.501179 294.500306 291.505515 292.49597 299.60396 284.096295 309.196967 277.295455 319.10279 271.305618 321.894958 268.594551 325.695086 267.296946 329.402529 266.300571 329.402529 264.701736 329.402529 262.99863 329.298257 261.295524 330.004988 261.202837 331.395279 260.901608 331.997739 260.797336 331.302593 259.604003 330.503176 258.399084 329.796445 257.205751 331.302593 254.494684 332.600198 251.795202 333.295344 248.794491 325.6024 249.095721 320.203437 255.305687 313.20564 257.796625 314.398973 253.000121 317.005768 248.794491 318.199101 243.997987 315.49962 245.504136 312.498908 246.500511 309.996385 248.203617 307.795091 251.899474 306.10357 256.000832 302.998587 259.09423 300.704607 261.596753 297.205708 262.396171 294.703184 264.701736 291.795159 267.20426 289.095677 269.903742 286.00228 272.197722 286.697425 270.703159 287.404157 269.301282 288.099302 267.795134 286.00228 268.096363 283.696714 268.003677 281.703964 268.698823 280.499045 269.602512 279.50267 270.795845 278.494709 271.896492 276.096457 270.900117 273.802477 269.49824 271.195681 269.104324 270.002348 269.903742 268.994387 270.900117 267.905326 271.896492 266.294906 270.703159 264.603385 269.405554 263.004551 268.200635 259.795296 269.104324 256.50494 269.903742 253.399957 270.900117 251.696851 269.405554 249.901058 268.003677 248.105266 266.601801 251.604165 264.597465 253.805459 261.098566 255.49698 257.495395 256.597627 255.89656 254.89452 254.401998 254.199375 253.000121 256.296397 251.899474 258.601963 250.995785 260.594713 249.69818 261.602674 248.203617 261.99659 246.500511 262.599049 244.797404 261.000215 244.600446 259.40138 244.403489 257.698274 244.194945 261.602674 242.097923 266.005262 242.005237 270.303578 242.59611 271.299953 240.997276 272.4006 239.595399 273.396975 238.100836 270.303578 236.003814 266.20222 237.695335 262.703321 237.301419 265.90099 235.79527 269.399889 235.204397 272.898788 235.401355 278.205065 235.79527 283.395484 234.601937 288.701762 234.497666 285.504092 233.200061 282.005194 232.794559 278.703253 231.902456 289.095677 230.894495 298.804542 236.200772 309.104281 237.000189 309.104281 236.305044 309.196967 234.995853 309.196967 234.300708 305.304153 232.701873 303.601046 228.797473 302.500399 225.101616 314.202015 228.299285 326.494504 226.897408 338.497349 226.202263 344.301814 226.294949 350.094693 227.998055 355.899157 228.299285 361.29812 223.502781 364.901291 217.095857 369.894753 211.801166 371.203943 212.600583 372.594234 213.4 373.996111 214.095146 377.599282 206.796119 373.799153 198.697674 376.104719 191.097417 377.900511 184.794764 378.595657 178.202468 380.901223 172.004088 383.704976 164.902018 387.597791 157.996906 388.304522 150.303963 386.404458 151.601568 384.504393 153.200403 383.704976 155.494383 381.202452 162.202536 377.49501 168.400917 372.397276 173.394379 365.005563 179.395801 355.597928 181.597095 346.897023 185.003308 336.203369 190.703501 327.502465 199.705635 320.203437 209.298642 319.195476 208.696183 318.199101 208.105309 317.202726 207.50285 318.002143 209.19437 318.801561 211.001749 319.797936 212.704855 316.194765 215.195793 313.495283 218.694692 309.799427 221.000258 306.995673 221.405759 303.994962 221.602717 301.29548 220.8033 296.498977 217.605631 292.397618 213.295729 290.404868 207.804079 290.497554 208.904726 290.694512 210.005373 290.798784 211.094435 287.299885 210.098059 283.800986 209.101684 280.197815 208.302267 280.105129 207.294306 279.896586 206.297931 279.8039 205.301556 278.297751 205.904015 276.698916 206.796119 274.99581 207.004662 272.296328 206.402203 270.002348 204.896054 267.905326 203.204534 263.201509 199.103175 257.999503 194.295086 258.405005 187.598518 257.095814 186.7991 255.705523 186.103955 254.396333 185.397224 254.500604 183.300202 254.095103 180.994636 254.998792 179.001885 256.296397 176.800591 258.300733 175.097485 260.003839 173.197421 260.895943 173.79988 261.799632 174.402339 262.703321 175.004799 263.595424 177.70428 265.402803 179.905574 267.696783 181.400137 269.504161 181.805639 271.299953 181.805639 273.00306 182.002597 281.101504 184.203891 289.999366 182.605056 297.599624 186.694829 297.900853 186.497871 298.595999 186.103955 298.897229 185.895411 298.005125 185.605767 296.302019 184.899036 295.502601 184.50512 299.0015 183.103244 302.894315 182.697742 306.497486 181.504409 309.000009 180.102532 310.900074 177.70428 312.997096 175.804216 314.89716 174.10111 317.399684 173.104735 319.40402 171.401628 321.501042 168.400917 322.300459 164.600788 324.895669 161.901307 326.900005 159.896971 329.402529 158.495094 331.499551 156.502344 334.395991 153.99982 336.296055 150.697879 338.90285 147.905711 341.695018 144.997686 344.904273 142.495162 347.99767 140.004224 350.697152 137.698659 352.295987 134.396718 355.204012 132.195424 359.30537 129.102026 363.997602 126.298273 366.905627 121.895685 369.605109 117.70164 375.699217 117.400411 377.599282 112.603907 380.704265 107.494588 384.805623 102.999314 389.405169 99.199185zm0 0" transform="matrix(0.33716,0,0,0.33716,-22.342489,-14.856118)"/><path style="fill-rule:evenodd;fill:#ffcb99;fill-opacity:1;stroke-width:.09375;stroke-linecap:butt;stroke-linejoin:miter;stroke:#ffcb99;stroke-opacity:1;stroke-miterlimit:4" d="M372.003361 122.996332C379.499346 116.299764 386.497144 109.105008 392.996754 101.504751 396.599925 101.794395 400.504325 101.400479 404.003224 102.895042 406.598434 103.995689 406.899663 107.100672 407.803353 109.498924 408.695456 109.695882 409.494873 109.800154 410.398562 109.997111 410.502834 114.700929 411.394937 119.99562 415.195066 123.204875 414.094419 123.598791 413.005358 124.096979 411.904711 124.50248 413.098044 125.000668 414.198691 125.498855 415.40361 126.101315 414.905422 127.005004 414.499921 127.897107 414.094419 128.800796 415.10238 129.194712 415.994483 129.704486 417.002444 130.098401 416.399985 130.897819 415.797525 131.697236 415.10238 132.403967 415.901797 132.994841 417.303674 134.002802 418.103091 134.605261 415.994483 134.697947 413.897461 134.605261 411.800439 134.500989 414.198691 135.694322 416.805486 136.505325 418.995195 137.999888 420.397071 139.702995 421.196489 141.904289 422.20445 143.804353 421.405032 143.897039 419.701926 144.198269 418.902509 144.395227 419.898884 145.403188 420.999531 146.399563 421.995906 147.395938 420.999531 148.195355 420.003156 148.902086 418.995195 149.701504 420.200113 149.898462 421.497718 150.095419 422.795323 150.303963 423.397783 152.702215 423.89597 155.100467 424.49843 157.498719 422.401407 157.104803 420.200113 156.699301 417.998819 156.305386 421.60199 158.101178 424.996617 160.49943 427.105225 164.102601 426.803995 164.994704 426.398494 166.002665 426.004578 166.99904 427.105225 168.400917 428.194286 169.802794 429.202247 171.20467 427.800371 171.100398 426.294222 170.903441 424.799659 170.694897 427.499141 173.49865 429.005289 177.101821 429.399205 180.90195 428.495516 180.90195 426.699724 180.994636 425.703348 180.994636 427.302183 182.396512 428.796746 183.705703 429.804707 185.605767 427.499141 185.200266 425.205161 184.50512 422.899595 183.995347 424.996617 185.698453 427.394869 186.903372 429.503477 188.397935 429.202247 190.703501 429.503477 193.101753 430.39558 195.303047 429.399205 196.704923 428.70406 198.199486 427.696099 199.601363 429.005289 201.999615 429.202247 204.594825 429.202247 207.20162 423.699012 208.001037 416.701215 208.603497 412.796814 203.702721 409.494873 204.397867 406.297204 205.498514 402.902577 206.297931 398.801219 207.004662 395.00109 204.803368 391.09669 204.096637 387.505105 205.000326 384.29585 206.90039 381.005495 208.603497 381.503682 198.894632 381.70064 189.000394 384.400122 179.604345 385.095267 177.495737 384.898309 175.294443 384.504393 173.197421 386.995331 169.59425 388.003292 165.203248 390.598502 161.704349 391.699149 157.695677 393.297984 153.895548 394.398631 150.002733 395.198048 147.002022 392.498566 144.905 390.899732 142.796392 388.605752 143.595809 386.404458 144.395227 384.098892 145.194644 382.00187 151.694254 379.10543 157.799948 375.50226 163.604413 373.602195 165.295934 371.702131 166.99904 371.702131 169.802794 368.597148 171.100398 365.596437 172.896191 363.198185 175.201757 360.904205 177.495737 357.405306 176.69632 354.601552 177.600009 351.19534 179.604345 347.696441 182.396512 343.398125 181.701367 340.200455 185.200266 335.902139 187.297288 332.495926 190.494957 329.298257 193.402982 324.096252 194.897545 323.702336 199.902593 322.694375 200.09955 321.605314 200.296508 320.504667 200.505052 317.202726 205.498514 314.202015 210.804791 310.900074 215.902524 306.995673 215.601294 302.998587 215.497023 299.105772 214.697605 300.102147 212.994499 300.994251 211.198706 301.29548 209.19437 300.194833 209.901102 299.105772 210.503561 298.005125 211.094435 297.495352 209.704144 297.101436 208.394953 296.695935 207.004662 295.803831 207.294306 294.900142 207.595536 294.100725 207.896765 294.900142 206.90039 295.803831 205.996701 296.603248 205.000326 293.000078 204.896054 289.095677 205.000326 286.199238 202.405116 285.504092 203.29722 284.704675 204.200909 283.905258 205.197284 279.305712 201.397155 273.095746 199.601363 267.198595 200.40078 268.19497 199.705635 269.202931 198.998903 270.199306 198.303758 267.998012 196.49638 266.294906 194.098128 264.394842 192.001106 264.904615 190.900459 265.59976 189.99677 266.20222 189.000394 263.699696 186.497871 261.000215 184.203891 258.103775 182.303826 258.798921 179.905574 259.899568 177.600009 260.803257 175.201757 261.104486 175.398715 261.69536 175.804216 261.99659 176.001174 261.903904 177.600009 261.69536 179.094571 261.602674 180.704992 267.905326 183.300202 273.895163 187.40156 280.904547 187.70279 288.504804 187.899747 296.394705 189.602854 303.705318 186.694829 308.09632 185.200266 311.201303 181.400137 315.19839 179.094571 318.604603 177.298779 320.597353 173.79988 322.601689 170.602211 324.397482 167.404542 328.394568 166.500853 330.201946 163.303183 332.298968 159.804285 335.902139 157.498719 338.196119 154.196778 339.794954 152.099756 341.602332 150.095419 344.104856 148.994772 344.603043 147.697168 344.603043 145.901375 346.201878 145.194644 349.503819 143.29458 351.600841 140.004224 354.497281 137.501701 356.304659 136.794969 358.100451 136.505325 359.896244 135.798594 360.695661 134.500989 360.996891 132.902155 361.495078 131.500278 365.700708 129.704486 370.798442 127.897107 372.003361 122.996332zm0 0" transform="matrix(0.33716,0,0,0.33716,-22.342489,-14.856118)"/><path style="fill-rule:evenodd;fill:#f1c63c;fill-opacity:1;stroke-width:.09375;stroke-linecap:butt;stroke-linejoin:miter;stroke:#f1c63c;stroke-opacity:1;stroke-miterlimit:4" d="M464.295508 142.495162C464.701009 142.402476 465.604699 142.205518 465.998614 142.101247 466.601074 143.700081 467.400491 145.298916 467.794407 147.002022 467.296219 149.099044 465.998614 150.802151 464.897967 152.597943 463.79732 149.296002 463.994278 145.901375 464.295508 142.495162zm0 0" transform="matrix(0.33716,0,0,0.33716,-22.342489,-14.856118)"/><path style="fill-rule:evenodd;fill:#dcac34;fill-opacity:1;stroke-width:.09375;stroke-linecap:butt;stroke-linejoin:miter;stroke:#dcac34;stroke-opacity:1;stroke-miterlimit:4" d="M458.097127 145.194644C460.495379 144.198269 459.603276 148.299627 457.703212 147.998397 456.104377 147.801439 456.799523 145.495874 458.097127 145.194644zm0 0" transform="matrix(0.33716,0,0,0.33716,-22.342489,-14.856118)"/><path style="fill-rule:evenodd;fill:#f1c63c;fill-opacity:1;stroke-width:.09375;stroke-linecap:butt;stroke-linejoin:miter;stroke:#f1c63c;stroke-opacity:1;stroke-miterlimit:4" d="M452.605478 151.601568C453.300624 150.605193 454.401271 149.597232 455.803147 150.095419 458.305671 151.196066 460.101464 153.304674 462.001528 155.204739 463.704634 154.602279 465.396155 153.99982 467.203533 153.39736 470.099973 156.201114 472.996412 159.201825 473.598872 163.500141 474.398289 163.500141 475.197706 163.604413 475.997123 163.604413 475.904437 166.894768 475.498936 170.196709 474.097059 173.197421 472.695182 172.305317 471.397578 171.297356 469.995701 170.405253 468.501138 173.79988 467.597449 177.70428 469.196284 181.203179 470.099973 179.500073 470.296931 177.298779 471.803079 175.804216 473.100684 175.398715 474.502561 175.294443 475.800166 175.004799 475.498936 177.600009 475.197706 180.102532 474.80379 182.605056 470.204244 184.597806 467.794407 189.000394 464.701009 192.603565 461.097839 196.600652 461.50334 202.300844 460.101464 207.20162 459.105088 212.600583 455.895833 217.200129 451.898747 221.000258 449.894411 224.105241 446.696742 227.499868 447.994347 231.404268 452.501206 226.399221 456.99648 221.405759 462.499715 217.501359 464.504052 215.99521 465.894343 214.00246 467.400491 212.102396 467.099261 211.604208 466.496802 210.700519 466.195572 210.202331 467.296219 210.295017 468.501138 210.295017 469.601785 210.399289 471.003662 207.398578 472.903726 204.502138 476.205667 203.401491 475.197706 205.695472 474.097059 207.896765 473.100684 210.098059 471.594535 214.30369 468.199908 217.397087 466.496802 221.498445 462.905217 223.896697 459.695962 226.700451 456.301335 229.29566 452.895122 231.995142 448.898036 233.397019 444.900949 235.100125 444.59972 229.89812 445.897324 224.904658 448.295576 220.397798 446.997971 220.305112 445.700367 220.20084 444.495448 220.096569 446.302826 219.297151 448.295576 218.995922 449.998683 217.895275 451.400559 216.400712 451.701789 214.30369 452.304249 212.403625 453.694539 211.395664 455.30496 210.596247 455.895833 208.997412 458.502629 203.204534 458.595315 196.704923 459.997192 190.599229 456.301335 189.498582 454.401271 185.698453 451.898747 182.998972 452.396935 182.002597 452.999394 180.994636 453.497582 179.998261 449.801725 178.700656 448.50412 174.703569 448.898036 170.996127 448.701078 168.899104 450.902372 167.798457 451.504831 166.002665 451.203602 164.195287 450.601142 162.399494 450.404184 160.49943 452.003019 158.402408 454.100041 156.803573 456.498293 155.899884 456.498293 154.30105 456.602565 152.702215 456.602565 151.10338 455.200688 151.300338 453.903083 151.40461 452.605478 151.601568zm0 0" transform="matrix(0.33716,0,0,0.33716,-22.342489,-14.856118)"/><path style="fill-rule:evenodd;fill:#020200;fill-opacity:1;stroke-width:.09375;stroke-linecap:butt;stroke-linejoin:miter;stroke:#020200;stroke-opacity:1;stroke-miterlimit:4" d="M465.998614 159.700013C466.299844 158.101178 466.102886 156.201114 468.00295 155.494383 467.898679 156.896259 467.898679 158.298136 467.794407 159.700013c-.39391599999999016.0-1.297604999999976.0-1.7957930000000033.0zm0 0" transform="matrix(0.33716,0,0,0.33716,-22.342489,-14.856118)"/><path style="fill-rule:evenodd;fill:#b20000;fill-opacity:1;stroke-width:.09375;stroke-linecap:butt;stroke-linejoin:miter;stroke:#b20000;stroke-opacity:1;stroke-miterlimit:4" d="M474.398289 156.398072C475.301978 156.305386 477.09777 156.201114 478.00146 156.096842L479.194793 155.899884C478.603919 158.402408 478.198417 160.904932 477.595958 163.303183 476.495311 161.101889 475.394664 158.796324 474.398289 156.398072zm0 0" transform="matrix(0.33716,0,0,0.33716,-22.342489,-14.856118)"/><path style="fill-rule:evenodd;fill:#020200;fill-opacity:1;stroke-width:.09375;stroke-linecap:butt;stroke-linejoin:miter;stroke:#020200;stroke-opacity:1;stroke-miterlimit:4" d="M413.897461 160.395158C417.09513 160.49943 420.895259 160.105514 423.200825 162.700724 420.003156 162.295223 416.898172 161.495805 413.897461 160.395158zm0 0" transform="matrix(0.33716,0,0,0.33716,-22.342489,-14.856118)"/><path style="fill-rule:evenodd;fill:#020100;fill-opacity:1;stroke-width:.09375;stroke-linecap:butt;stroke-linejoin:miter;stroke:#020100;stroke-opacity:1;stroke-miterlimit:4" d="M453.103666 168.794833C453.903083 165.898393 455.00373 163.001954 457.100752 160.80066 456.602565 163.500141 455.397646 166.095351 455.30496 168.899104 454.7025 168.899104 453.601853 168.794833 453.103666 168.794833zm0 0" transform="matrix(0.33716,0,0,0.33716,-22.342489,-14.856118)"/><path style="fill-rule:evenodd;fill:#131005;fill-opacity:1;stroke-width:.09375;stroke-linecap:butt;stroke-linejoin:miter;stroke:#131005;stroke-opacity:1;stroke-miterlimit:4" d="M458.803859 166.199623C458.305671 163.39587 460.101464 160.904932 463.102175 160.80066 463.600362 163.697099 461.596026 165.701435 458.803859 166.199623zm0 0" transform="matrix(0.33716,0,0,0.33716,-22.342489,-14.856118)"/><path style="fill-rule:evenodd;fill:#020100;fill-opacity:1;stroke-width:.09375;stroke-linecap:butt;stroke-linejoin:miter;stroke:#020100;stroke-opacity:1;stroke-miterlimit:4" d="M465.199197 161.797035C467.296219 163.801371 469.300555 166.002665 470.401202 168.794833 469.300555 168.099687 468.199908 167.404542 467.099261 166.605124 466.404116 168.203959 465.697385 169.802794 465.002239 171.297356 464.504052 168.203959 464.805281 164.994704 465.199197 161.797035zm0 0" transform="matrix(0.33716,0,0,0.33716,-22.342489,-14.856118)"/><path style="fill-rule:evenodd;fill:#020100;fill-opacity:1;stroke-width:.09375;stroke-linecap:butt;stroke-linejoin:miter;stroke:#020100;stroke-opacity:1;stroke-miterlimit:4" d="M481.894274 173.904152C480.897899 171.401628 481.199129 168.702147 482.902235 166.605124 483.504695 169.096062 483.400423 171.702858 481.894274 173.904152zm0 0" transform="matrix(0.33716,0,0,0.33716,-22.342489,-14.856118)"/><path style="fill-rule:evenodd;fill:#010100;fill-opacity:1;stroke-width:.09375;stroke-linecap:butt;stroke-linejoin:miter;stroke:#010100;stroke-opacity:1;stroke-miterlimit:4" d="M453.798811 175.595673C455.698876 174.298068 457.90017 173.49865 460.101464 173.104735 461.897256 173.197421 463.403405 174.495026 465.002239 175.294443 463.704634 175.398715 462.395444 175.595673 461.202111 175.804216 459.302046 177.403051 459.695962 179.998261 459.394732 182.095283 457.795898 179.697031 456.197063 177.298779 453.798811 175.595673zm0 0" transform="matrix(0.33716,0,0,0.33716,-22.342489,-14.856118)"/><path style="fill-rule:evenodd;fill:#020200;fill-opacity:1;stroke-width:.09375;stroke-linecap:butt;stroke-linejoin:miter;stroke:#020200;stroke-opacity:1;stroke-miterlimit:4" d="M418.902509 173.904152C421.694676 174.10111 424.104514 175.398715 426.201536 176.997549 423.502054 176.800591 420.501343 176.39509 418.902509 173.904152zm0 0" transform="matrix(0.33716,0,0,0.33716,-22.342489,-14.856118)"/><path style="fill-rule:evenodd;fill:#f5ca00;fill-opacity:1;stroke-width:.09375;stroke-linecap:butt;stroke-linejoin:miter;stroke:#f5ca00;stroke-opacity:1;stroke-miterlimit:4" d="M262.703321 175.004799C266.20222 177.298779 269.596847 179.604345 273.00306 182.002597 271.299953 181.805639 269.504161 181.805639 267.696783 181.400137 265.402803 179.905574 263.595424 177.70428 262.703321 175.004799zm0 0" transform="matrix(0.33716,0,0,0.33716,-22.342489,-14.856118)"/><path style="fill-rule:evenodd;fill:#020100;fill-opacity:1;stroke-width:.09375;stroke-linecap:butt;stroke-linejoin:miter;stroke:#020100;stroke-opacity:1;stroke-miterlimit:4" d="M463.102175 188.502207C463.102175 184.702078 462.800945 180.496448 465.199197 177.298779 465.801656 180.704992 464.596738 183.902661 463.994278 187.204602 466.299844 186.103955 468.30418 184.400849 470.296931 182.8947 469.404827 186.196641 466.496802 188.397935 463.102175 188.502207zm0 0" transform="matrix(0.33716,0,0,0.33716,-22.342489,-14.856118)"/><path style="fill-rule:evenodd;fill:#ffcb99;fill-opacity:1;stroke-width:.09375;stroke-linecap:butt;stroke-linejoin:miter;stroke:#ffcb99;stroke-opacity:1;stroke-miterlimit:4" d="M519.397372 189.904084C522.305398 189.39431 524.599378 187.297288 527.101901 185.802725 527.704361 186.497871 528.295234 187.204602 528.897694 187.899747 531.898405 184.597806 536.300993 187.297288 539.99685 187.10033 542.696331 186.602143 545.303127 185.698453 548.002609 185.304538 542.800603 192.997481 530.496528 193.796898 528.202548 203.795407 527.704361 203.29722 526.6964 202.405116 526.105526 201.895343 526.198212 203.702721 526.800672 205.498514 526.198212 207.294306 524.40242 208.197995 522.595042 206.494889 520.903521 205.996701 521.702938 207.20162 522.595042 208.394953 523.394459 209.704144 522.398084 210.897477 521.204751 211.998124 520.405333 213.4 519.89556 215.497023 520.301062 217.999546 518.702227 219.702653 517.694266 221.405759 515.504558 221.104529 513.905723 221.498445 515.597244 223.294238 517.497308 224.997344 519.802874 226.202263 519.003457 229.504204 519.096143 232.898831 519.200415 236.305044 517.694266 235.79527 516.199703 235.401355 514.70514 235.100125 516.396661 236.39773 518.204039 237.602649 520.104104 238.703296 520.996207 243.302842 523.498731 247.4042 525.595753 251.505558c-.7994169999999485.0-2.2939799999999195.0-3.00071099999991.0C524.10119 253.301351 525.700025 255.097143 527.101901 257.101479 525.294523 256.800249 523.498731 256.394748 521.795624 256.105104 524.10119 258.097854 526.800672 259.905233 528.596464 262.500442 529.604425 264.898694 529.604425 267.50549 530.403842 269.996428 529.801383 269.996428 528.503778 269.903742 527.901319 269.903742 531.098988 273.101411 531.701447 277.700957 534.099699 281.501085 531.898405 280.296166 529.801383 279.102833 527.495817 278.094872 529.500153 281.999273 533.404554 284.397525 535.501576 288.197653 533.49724 287.699466 531.597175 286.900048 529.604425 286.204903 531.898405 288.997071 534.296657 291.800824 536.196721 294.894221 534.400929 294.094804 532.605136 293.202701 530.705072 292.403283 532.697822 294.604577 534.899116 296.7016 536.694909 298.99558 535.999763 300.096227 535.304618 301.196874 534.702159 302.297521 535.594262 302.59875 537.40164 303.004252 538.305329 303.20121 537.899828 304.394543 537.40164 305.49519 536.996139 306.700109 537.899828 307.696484 539.301704 308.495901 539.197433 310.00205 539.197433 313.396677 540.796267 316.304702 541.595684 319.502371 540.29808 318.79564 539.000475 318.100494 537.795556 317.405349 540.402351 320.000559 542.997561 322.595768 545.303127 325.503794 544.596396 325.805023 543.298791 326.500169 542.603645 326.801399 544.20248 329.19965 545.697043 331.597902 547.203191 334.100426 545.198855 332.802821 543.298791 331.203987 540.900539 330.798485 543.495749 333.602238 546.901962 336.197448 547.400149 340.298806 545.905586 339.302431 544.50371 338.201784 543.101833 337.101137 543.796978 338.804244 544.50371 340.495764 545.198855 342.303143 544.098208 341.897641 542.997561 341.503725 541.804228 341.098224 542.603645 342.303143 543.298791 343.496476 544.005522 344.701394 541.201769 346.705731 538.398015 349.103982 535.003388 349.996086 526.800672 348.200293 518.505269 347.203918 510.49951 344.701394 503.69867 342.604372 496.295371 343.901977 489.494531 341.399453 485.196215 339.997577 480.399711 340.796994 476.495311 338.503014 475.000748 337.703597 473.401914 337.101137 471.895765 336.394406 472.498225 335.305345 473.100684 334.100426 473.795829 332.895507 471.698807 334.204698 469.497513 335.502303 467.296219 336.695636 466.102886 334.899843 465.199197 332.39732 462.800945 332.200362 459.603276 331.79486 456.405607 331.296673 453.196352 330.798485 453.497582 329.303922 453.798811 327.902046 454.100041 326.500169 451.701789 327.496544 449.697453 329.999068 446.905285 329.303922 448.701078 327.195314 450.601142 325.098292 452.199977 322.896998 449.396223 323.997645 447.102243 325.897709 444.796677 327.600816 444.29849 326.198939 443.904574 324.704376 443.499073 323.3025 446.094282 322.398811 449.002308 321.599393 450.49687 319.004184 446.302826 320.000559 442.097196 322.70004 437.79888 321.298164 437.19642 320.301788 436.895191 319.201141 436.802505 318.100494 435.5049 318.49441 434.195709 319.004184 432.898104 319.398099 432.898104 314.798553 437.995838 314.103408 440.000174 310.801467 435.794544 311.705156 432.701146 314.995511 428.40283 315.8992 428.70406 314.995511 429.294933 313.199719 429.596163 312.400302 428.599788 312.400302 426.502766 312.504573 425.494805 312.597259 427.000953 309.897778 429.700435 308.101985 431.496227 305.703733 428.1016 307.198296 425.297847 310.998425 421.196489 309.596548 422.20445 308.298943 423.305097 307.10561 424.405744 305.900691 422.297136 306.201921 420.304385 306.80438 418.195777 307.001338 420.501343 304.997002 424.104514 304.603086 425.703348 301.799333 428.599788 297.396745 432.805418 294.199076 436.802505 291.001407 435.701858 290.897135 433.500564 290.700177 432.399917 290.595905 433.500564 289.2983 434.705482 288.000695 436.003087 286.703091 435.400628 286.297589 434.798168 285.799401 434.195709 285.405486 438.297067 285.104256 438.702569 280.400438 441.70328 278.396102 444.29849 280.898626 447.496159 282.300503 450.902372 283.09992 450.705414 283.598107 450.195641 284.594483 449.998683 285.104256 454.598229 285.498172 458.502629 288.197653 463.102175 288.997071 466.102886 291.997782 470.702432 294.500306 474.699519 291.696552 475.000748 292.901471 475.197706 294.002118 475.394664 295.102765 476.205667 294.396034 477.005084 293.596617 477.804502 292.901471 477.897188 293.399659 478.198417 294.303348 478.302689 294.801535 478.696605 294.199076 479.102107 293.596617 479.600294 293.098429 483.89861 295.403995 486.702364 299.598039 490.803722 302.204835 496.503915 305.900691 501.902878 310.905739 503.397441 317.903537 504.196858 317.301077 504.996275 316.80289 505.795693 316.304702 507.104883 317.498035 508.402488 318.702954 509.700093 319.896287 511.403199 318.204766 513.09472 316.397388 514.797827 314.694282 513.998409 311.902114 513.303264 308.901403 511.298928 306.595837 508.796404 303.699397 507.000611 300.003541 503.69867 297.802247 503.9999 295.299723 503.096211 293.005743 502.099836 290.700177 498.902167 277.202769 504.405402 263.601089 503.096211 249.99941 502.505337 240.197858 498.705209 231.103039 494.603851 222.402134 492.900744 218.196504 490.502492 213.898188 491.00068 209.19437 493.59589 205.904015 498.403979 207.699808 501.798606 205.904015 507.394527 203.702721 514.195367 199.902593 514.195367 193.101753 515.203328 193.704212 516.095431 194.295086 516.999121 194.804859 517.90281 193.194439 518.597955 191.595604 519.397372 189.904084zm0 0" transform="matrix(0.33716,0,0,0.33716,-22.342489,-14.856118)"/><path style="fill-rule:evenodd;fill:#020200;fill-opacity:1;stroke-width:.09375;stroke-linecap:butt;stroke-linejoin:miter;stroke:#020200;stroke-opacity:1;stroke-miterlimit:4" d="M311.595219 201.397155C312.498908 198.095214 314.700202 195.303047 317.596642 193.704212 317.596642 194.399358 317.503956 195.696962 317.503956 196.403694 316.901496 196.600652 315.800849 197.098839 315.19839 197.295797 315.105704 199.497091 314.202015 201.304469 311.595219 201.397155zm0 0" transform="matrix(0.33716,0,0,0.33716,-22.342489,-14.856118)"/><path style="fill-rule:evenodd;fill:#010101;fill-opacity:1;stroke-width:.09375;stroke-linecap:butt;stroke-linejoin:miter;stroke:#010101;stroke-opacity:1;stroke-miterlimit:4" d="M309.405511 201.605699C311.305575 200.70201 312.104993 203.29722 313.402597 204.305181 310.401886 204.502138 307.505447 204.305181 304.597421 203.598449 305.80234 202.196573 307.702405 201.999615 309.405511 201.605699zm0 0" transform="matrix(0.33716,0,0,0.33716,-22.342489,-14.856118)"/><path style="fill-rule:evenodd;fill:#f1c63c;fill-opacity:1;stroke-width:.09375;stroke-linecap:butt;stroke-linejoin:miter;stroke:#f1c63c;stroke-opacity:1;stroke-miterlimit:4" d="M385.303811 211.198706C387.099603 210.503561 388.895396 209.599872 390.899732 209.402914 394.69986 209.901102 398.499989 212.299353 399.600636 216.099482 401.095199 214.604919 402.10316 212.704855 402.195846 210.503561 406.401476 211.696894 410.804064 209.298642 414.998108 211.094435 415.600568 213.4 412.599856 213.805502 411.302251 214.998835 413.005358 216.203754 414.905422 216.898899 417.002444 217.200129 416.203027 216.504984 415.40361 215.705566 414.499921 214.998835 420.698301 208.904726 431.704771 215.601294 430.801082 223.699739 430.39558 225.101616 430.39558 227.696826 428.298558 226.700451 427.394869 224.000969 427.603413 221.104529 426.896682 218.300776 424.996617 217.095857 423.096553 215.902524 420.999531 215.300065 418.705551 216.099482 417.500632 218.694692 415.600568 220.096569 416.504257 221.602717 417.39636 223.201552 418.300049 224.696114 420.802573 223.595467 423.096553 221.695403 426.004578 222.100905 425.900306 224.302199 424.301472 225.704075 422.795323 227.094366 424.903931 228.496243 425.900306 230.801809 427.000953 233.003103 418.995195 234.903167 410.59552 235.100125 402.497075 233.895206 405.602059 230.095078 410.804064 231.705498 414.696878 233.095789 414.604192 232.597601 414.302963 231.496954 414.198691 230.894495 415.40361 230.894495 416.596943 230.894495 417.801862 230.801809c0-.40550199999998426.0-1.2049189999999896.0-1.7031069999999886C414.905422 229.098702 412.101669 229.202974 409.205229 229.29566 408.197268 226.202263 405.497787 224.302199 403.505036 221.903947 406.702706 222.703364 409.494873 224.394885 412.599856 225.599804 411.603481 224.105241 410.502834 222.703364 409.402187 221.405759 409.900375 221.104529 410.89675 220.50207 411.394937 220.096569 410.004647 218.300776 408.60277 216.59767 407.096621 214.894563 404.09591 219.297151 401.5007 223.896697 398.094487 228.102327 397.098112 229.59689 395.30232 230.002392 393.703485 230.500579 394.595589 227.30291 395.198048 224.000969 397.503614 221.498445 398.499989 220.50207 398.604261 219.100193 398.905491 217.895275 396.194423 219.899611 393.703485 221.903947 390.899732 223.699739 391.594877 223.896697 393.205298 224.105241 394.004715 224.197927 390.401544 225.495532 387.597791 228.195013 385.697727 231.601226 387.794749 231.705498 389.903357 231.705498 392.000379 231.995142 394.69986 232.296372 397.202384 233.895206 399.994552 233.397019 402.404389 236.003814 404.501412 238.900254 406.204518 242.005237 409.900375 239.502713 414.395649 238.494752 418.902509 238.703296 418.995195 239.305755 419.296424 240.60336 419.504968 241.194234 420.200113 240.197858 420.999531 239.201483 421.798948 238.205108 421.694676 237.498377 421.405032 236.0965 421.196489 235.505627 422.100178 236.594688 423.003867 237.903878 423.89597 239.097211 426.595452 236.803231 428.495516 233.895206 429.503477 230.396307 432.098687 227.094366 432.504188 222.79605 434.705482 219.204465 435.701858 220.20084 436.698233 221.301487 437.694608 222.402134 435.898815 226.596179 435.701858 231.705498 438.297067 235.702584 440.000174 233.397019 439.397714 230.697537 438.297067 228.403557 440.197132 229.202974 441.205093 231.103039 441.900238 233.003103 441.40205 233.895206 440.799591 234.798895 440.301403 235.702584 441.795966 237.903878 443.69603 239.595399 445.399137 241.704007 443.99726 242.59611 442.595383 243.395528 441.205093 244.194945 441.40205 243.19857 441.494736 242.202195 441.70328 241.194234 438.899527 238.297794 435.898815 235.702584 433.002376 232.898831 430.905354 235.401355 428.901018 237.996564 427.105225 240.60336 429.596163 243.001612 431.102312 246.998698 434.995126 247.299928 433.002376 244.102259 430.094351 240.997276 430.905354 236.895917 432.504188 238.703296 433.500564 241.194234 435.898815 242.005237 439.594672 243.499799 442.595383 246.500511 446.801014 246.303553 446.094282 248.099345 445.399137 249.99941 444.900949 251.899474 443.69603 251.899474 442.502697 251.899474 441.297779 252.003746 440.602633 255.097143 439.803216 258.294812 438.297067 261.295524 436.397003 262.604714 433.801793 262.002255 431.901729 260.994294 429.700435 260.10219 429.700435 257.205751 428.901018 255.305687 431.797457 256.302062 434.496939 257.796625 437.49765 258.700314 434.995126 256.49902 432.295645 253.405622 428.599788 254.100768 428.194286 254.900185 427.603413 256.394748 427.197911 257.205751 426.004578 253.000121 424.903931 248.504847 421.694676 245.295592 418.705551 244.994362 415.195066 244.797404 414.302963 241.298505 412.495584 241.599735 410.804064 241.900965 408.996686 242.097923 412.194355 243.997987 415.704839 245.701093 417.604904 248.898763 410.89675 246.998698 404.09591 244.102259 399.797594 238.205108 398.604261 236.0965 395.997465 235.598313 393.900443 234.601937 394.201673 235.702584 394.595589 236.895917 394.896818 238.100836 393.599213 237.996564 392.301609 237.996564 391.004004 237.996564 391.397919 236.69896 391.803421 235.297083 392.104651 233.999478 386.705687 235.79527 380.901223 235.598313 375.397988 236.895917 376.000447 235.79527 376.498635 234.694623 377.101094 233.605562 379.997534 234.10375 382.604329 232.597601 384.203164 230.199349 382.198828 230.894495 380.194492 231.902456 378.294427 232.701873 379.904848 230.303621 382.500057 228.102327 381.804912 224.800386 379.10543 225.599804 378.097469 228.403557 376.301677 230.303621 373.497923 231.798184 370.497212 233.095789 367.299543 231.995142 368.898378 230.396307 370.300254 228.496243 371.794817 226.897408 374.494299 225.796761 377.49501 224.904658 378.595657 221.799675 374.8998 220.305112 370.902714 222.205176 369.500837 225.796761 368.40019 225.495532 367.299543 225.101616 366.198896 224.800386 366.801355 226.097991 367.403815 227.30291 367.994688 228.496243 366.500126 227.60414 362.896955 225.901033 364.901291 223.896697 367.600773 221.405759 370.9954 219.702653 374.100383 217.802588 376.000447 217.698317 377.79624 217.895275 379.696304 217.999546 381.202452 215.497023 382.395786 212.403625 385.303811 211.198706zm0 0" transform="matrix(0.33716,0,0,0.33716,-22.342489,-14.856118)"/><path style="fill-rule:evenodd;fill:#010000;fill-opacity:1;stroke-width:.09375;stroke-linecap:butt;stroke-linejoin:miter;stroke:#010000;stroke-opacity:1;stroke-miterlimit:4" d="M382.801287 218.995922C384.701351 216.099482 387.296561 213.098771 391.09669 213.098771 394.004715 212.797541 396.194423 215.103107 397.89753 217.095857 395.997465 217.698317 394.201673 218.196504 392.394295 218.694692 392.799796 217.999546 393.494942 216.59767 393.796171 215.902524 390.702774 218.405048 386.497144 218.405048 382.801287 218.995922zm0 0" transform="matrix(0.33716,0,0,0.33716,-22.342489,-14.856118)"/><path style="fill-rule:evenodd;fill:#010101;fill-opacity:1;stroke-width:.09375;stroke-linecap:butt;stroke-linejoin:miter;stroke:#010101;stroke-opacity:1;stroke-miterlimit:4" d="M499.504626 221.996633C499.79427 219.297151 500.894917 216.504984 503.096211 214.801877 502.899253 217.605631 500.894917 220.096569 501.40469 223.004594 502.099836 224.499157 503.096211 225.901033 503.895628 227.395596 501.902878 226.294949 499.504626 224.603428 499.504626 221.996633zm0 0" transform="matrix(0.33716,0,0,0.33716,-22.342489,-14.856118)"/><path style="fill-rule:evenodd;fill:#020100;fill-opacity:1;stroke-width:.09375;stroke-linecap:butt;stroke-linejoin:miter;stroke:#020100;stroke-opacity:1;stroke-miterlimit:4" d="M381.005495 223.294238C381.503682 222.100905 382.094556 221.000258 382.697015 219.795339 384.701351 221.104529 386.995331 221.996633 389.103939 223.201552 389.602127 225.402846 388.003292 226.897408 386.300186 227.998055 384.898309 226.005305 382.998245 224.499157 381.005495 223.294238zm0 0" transform="matrix(0.33716,0,0,0.33716,-22.342489,-14.856118)"/><path style="fill-rule:evenodd;fill:#f1c63c;fill-opacity:1;stroke-width:.09375;stroke-linecap:butt;stroke-linejoin:miter;stroke:#f1c63c;stroke-opacity:1;stroke-miterlimit:4" d="M360.904205 228.102327C361.703622 228.102327 363.395143 228.195013 364.19456 228.195013 363.696372 231.195725 362.804269 234.300708 363.696372 237.301419 367.403815 238.494752 371.296629 239.595399 374.401613 242.005237 375.896175 237.498377 381.503682 238.297794 385.303811 238.402066 385.396497 239.201483 385.396497 240.000901 385.500769 240.800318 386.902645 241.495463 388.20025 242.294881 389.405169 243.302842 385.60504 244.600446 381.202452 244.600446 377.49501 246.396239 377.298052 246.80174 376.904136 247.601158 376.602907 247.995074 379.904848 247.299928 383.195203 246.199281 386.601416 245.805365 386.404458 246.303553 385.894684 247.195656 385.697727 247.601158 381.804912 248.203617 377.49501 249.605494 373.996111 247.195656 373.996111 247.798116 373.996111 249.199992 373.903425 249.895138 373.104008 250.404911 372.200319 250.903099 371.400901 251.505558 371.400901 253.996496 371.296629 256.49902 371.099672 259.001543 367.797731 257.298437 364.797019 255.201415 361.402392 253.60258 362.503039 255.305687 362.896955 257.402709 364.403104 258.700314 366.604398 259.604003 369.095335 259.905233 371.400901 260.496106 369.199607 261.701025 366.801355 262.604714 364.49579 263.601089 361.796308 257.796625 357.903493 252.698891 353.802135 247.902387 354.404595 246.80174 355.09974 245.805365 355.794885 244.797404 355.09974 244.403489 353.802135 243.604071 353.095404 243.19857 353.605177 239.595399 355.40097 236.502002 358.100451 234.10375 359.00414 235.100125 360.000516 236.0965 360.904205 237.104461 360.799933 234.10375 360.799933 231.103039 360.904205 228.102327zm0 0" transform="matrix(0.33716,0,0,0.33716,-22.342489,-14.856118)"/><path style="fill-rule:evenodd;fill:#f1c63c;fill-opacity:1;stroke-width:.09375;stroke-linecap:butt;stroke-linejoin:miter;stroke:#f1c63c;stroke-opacity:1;stroke-miterlimit:4" d="M305.501111 228.299285C309.498197 228.600515 312.800138 231.995142 317.005768 231.496954 325.90363 231.299996 334.905764 230.801809 343.803626 231.496954 346.595794 231.798184 349.700777 231.902456 351.797799 233.999478 350.094693 236.200772 347.001295 236.305044 344.498772 235.401355 340.096184 233.80252 335.403952 233.999478 330.700134 234.10375 331.800781 234.995853 332.901428 235.79527 333.897803 236.594688 329.402529 239.502713 323.702336 237.197147 319.195476 240.197858 315.105704 242.503424 309.000009 241.796693 306.601758 246.500511 305.002923 248.504847 304.898651 250.995785 304.400464 253.405622 303.102859 249.605494 302.19917 245.596822 300.704607 241.900965 296.800206 242.503424 292.895806 242.804654 289.199949 244.102259 287.195613 244.704718 286.697425 246.894427 285.805322 248.504847 282.804611 248.504847 279.8039 248.504847 276.803188 248.296303 278.205065 246.500511 279.595356 244.797404 280.997233 242.89734 276.803188 242.700382 275.204354 246.604783 273.304289 249.501222 273.698205 249.802452 274.69458 250.497597 275.204354 250.903099 274.99581 253.197079 274.903124 255.595331 274.69458 257.900896 277.197104 256.105104 279.8039 257.495395 282.09788 258.897272 284.403445 256.800249 287.102927 254.795913 290.497554 254.795913 290.404868 258.202126 286.998655 259.499731 284.901633 261.399795 288.099302 260.901608 290.995742 259.001543 294.401954 259.001543 292.397618 262.199213 289.199949 264.203549 285.898008 265.698112 285.596778 265.002966 284.994319 263.601089 284.704675 262.894358 281.79665 264.400507 279.004482 265.999341 276.096457 267.702448 275.204354 266.601801 274.196393 265.605425 273.304289 264.504778 276.305001 263.102902 280.197815 262.6974 282.399109 259.800961 279.699628 259.905233 277.602606 261.701025 275.100082 262.303484 272.898788 261.399795 270.500536 260.994294 267.998012 261.295524 269.202931 262.199213 270.500536 263.102902 271.705455 263.995005 270.697494 265.396882 269.596847 266.798759 268.4962 268.096363 266.20222 266.694487 264.499113 264.203549 265.194259 261.399795 266.897365 259.395459 268.79743 257.599667 270.095034 255.305687 265.796718 254.20504 263.595424 259.001543 259.40138 258.399084 259.70261 255.398373 261.498402 253.000121 263.097237 250.601869 264.904615 251.598244 266.700407 252.698891 268.4962 253.799538 267.604097 252.003746 266.50345 250.300639 265.402803 248.701805 267.604097 246.604783 270.199306 245.098634 273.200018 244.299217 276.200729 243.696757 276.698916 240.000901 279.097168 238.599024 281.205776 238.494752 283.302798 238.795982 285.504092 239.097211 284.797361 241.194234 283.395484 242.89734 282.005194 244.496175 287.102927 244.901676 288.701762 239.595399 292.20066 237.104461 294.100725 237.405691 295.39833 239.305755 296.904478 240.30213 298.294769 239.699671 299.60396 239.004525 300.994251 238.402066 302.500399 239.502713 303.798004 241.704007 305.999298 241.194234 310.598844 240.394816 315.001432 238.795982 319.40402 237.405691 315.696577 233.003103 308.200592 233.999478 305.501111 228.299285zm0 0" transform="matrix(0.33716,0,0,0.33716,-22.342489,-14.856118)"/><path style="fill-rule:evenodd;fill:#010000;fill-opacity:1;stroke-width:.09375;stroke-linecap:butt;stroke-linejoin:miter;stroke:#010000;stroke-opacity:1;stroke-miterlimit:4" d="M318.199101 234.10375C321.605314 234.196436 325.196899 233.999478 328.603112 235.100125 326.20486 236.895917 323.204149 237.197147 320.296123 237.903878 319.600978 236.594688 318.894247 235.401355 318.199101 234.10375zm0 0" transform="matrix(0.33716,0,0,0.33716,-22.342489,-14.856118)"/><path style="fill-rule:evenodd;fill:#f1c63c;fill-opacity:1;stroke-width:.09375;stroke-linecap:butt;stroke-linejoin:miter;stroke:#f1c63c;stroke-opacity:1;stroke-miterlimit:4" d="M335.994825 237.104461C338.497349 235.505627 341.602332 235.79527 344.3945 235.79527 341.996248 238.900254 339.20408 241.900965 335.600909 243.604071 329.599487 245.295592 324.594439 249.095721 318.697289 250.903099 323.598064 245.295592 329.900717 241.194234 335.994825 237.104461zm0 0" transform="matrix(0.33716,0,0,0.33716,-22.342489,-14.856118)"/><path style="fill-rule:evenodd;fill:#d3a231;fill-opacity:1;stroke-width:.09375;stroke-linecap:butt;stroke-linejoin:miter;stroke:#d3a231;stroke-opacity:1;stroke-miterlimit:4" d="M406.401476 236.39773C407.200893 235.505627 409.599145 234.903167 409.900375 236.594688 409.599145 238.402066 404.999599 238.795982 406.401476 236.39773zm0 0" transform="matrix(0.33716,0,0,0.33716,-22.342489,-14.856118)"/><path style="fill-rule:evenodd;fill:#f1c53c;fill-opacity:1;stroke-width:.09375;stroke-linecap:butt;stroke-linejoin:miter;stroke:#f1c53c;stroke-opacity:1;stroke-miterlimit:4" d="M388.698438 247.195656C390.79546 243.499799 393.297984 240.105172 396.704197 237.602649 397.29507 238.703296 397.89753 239.896629 398.499989 240.997276 394.502903 241.796693 391.896107 244.901676 388.698438 247.195656zm0 0" transform="matrix(0.33716,0,0,0.33716,-22.342489,-14.856118)"/><path style="fill-rule:evenodd;fill:#f1c63c;fill-opacity:1;stroke-width:.09375;stroke-linecap:butt;stroke-linejoin:miter;stroke:#f1c63c;stroke-opacity:1;stroke-miterlimit:4" d="M338.196119 249.199992C340.802915 244.901676 344.904273 241.194234 350.002007 240.60336 350.801424 244.797404 350.998382 249.501222 353.999093 252.895849 348.403172 254.598955 343.305438 257.402709 338.196119 260.10219 335.994825 261.098566 338.995537 263.29986 338.404663 265.002966 335.902139 271.803806 332.194697 278.002186 330.004988 284.895712 329.495215 286.703091 328.301882 288.000695 327.201235 289.402572 325.90363 288.904385 324.594439 288.394611 323.296835 288.000695 324.200524 289.703802 325.301171 291.395323 326.900005 292.704513 326.494504 292.797199 325.695086 292.901471 325.405443 293.005743 324.304796 291.499594 323.204149 290.201989 321.99923 288.800113 324.594439 285.405486 327.004277 281.698043 328.904341 277.805229 329.900717 273.495327 331.696509 269.405554 333.295344 265.304196 334.303305 259.696689 335.797867 254.20504 338.196119 249.199992zm0 0" transform="matrix(0.33716,0,0,0.33716,-22.342489,-14.856118)"/><path style="fill-rule:evenodd;fill:#000;fill-opacity:1;stroke-width:.09375;stroke-linecap:butt;stroke-linejoin:miter;stroke:#000;stroke-opacity:1;stroke-miterlimit:4" d="M358.297409 241.194234c.6024600000000078.0 1.8073779999999715.0 2.3982519999999568.0C362.503039 244.299217 364.704333 247.195656 365.202521 250.903099 362.699997 248.701805 359.803558 247.10297 356.397345 247.902387 356.999804 245.701093 357.69495 243.395528 358.297409 241.194234zm0 0" transform="matrix(0.33716,0,0,0.33716,-22.342489,-14.856118)"/><path style="fill-rule:evenodd;fill:#f1c63c;fill-opacity:1;stroke-width:.09375;stroke-linecap:butt;stroke-linejoin:miter;stroke:#f1c63c;stroke-opacity:1;stroke-miterlimit:4" d="M447.600431 242.294881C451.794475 239.201483 456.695251 242.202195 459.603276 245.504136 461.097839 248.203617 463.194861 250.798827 463.194861 253.996496 463.79732 259.997919 467.099261 265.802383 466.195572 271.896492 466.496802 271.699534 467.296219 271.398304 467.701721 271.305618 467.504763 272.695909 466.902303 274.202058 467.203533 275.696621 468.199908 277.805229 470.204244 279.601021 470.401202 281.999273 470.795118 284.501797 470.401202 286.900048 469.995701 289.402572 464.805281 287.896424 463.901592 281.895001 463.299133 277.399727 461.80457 272.39468 460.205735 267.50549 457.90017 262.801672 457.205024 260.600378 457.90017 258.097854 456.695251 256.105104 454.296999 256.000832 451.794475 256.302062 449.396223 256.695978 448.80535 256.000832 448.098618 255.201415 447.403473 254.494684 449.500495 250.798827 450.49687 245.898051 447.600431 242.294881zm0 0" transform="matrix(0.33716,0,0,0.33716,-22.342489,-14.856118)"/><path style="fill-rule:evenodd;fill:#020200;fill-opacity:1;stroke-width:.09375;stroke-linecap:butt;stroke-linejoin:miter;stroke:#020200;stroke-opacity:1;stroke-miterlimit:4" d="M363.997602 241.900965C366.604398 243.19857 369.303879 244.194945 372.30459 244.403489 371.099672 247.299928 369.199607 249.895138 366.998313 252.200704 367.195271 250.497597 367.496501 248.794491 367.797731 247.10297 366.395854 245.399864 365.098249 243.696757 363.997602 241.900965zm0 0" transform="matrix(0.33716,0,0,0.33716,-22.342489,-14.856118)"/><path style="fill-rule:evenodd;fill:#020200;fill-opacity:1;stroke-width:.09375;stroke-linecap:butt;stroke-linejoin:miter;stroke:#020200;stroke-opacity:1;stroke-miterlimit:4" d="M374.702842 244.194945C376.695593 242.89734 379.001158 242.202195 381.39941 242.097923 379.499346 243.801029 377.101094 244.194945 374.702842 244.194945zm0 0" transform="matrix(0.33716,0,0,0.33716,-22.342489,-14.856118)"/><path style="fill-rule:evenodd;fill:#020200;fill-opacity:1;stroke-width:.09375;stroke-linecap:butt;stroke-linejoin:miter;stroke:#020200;stroke-opacity:1;stroke-miterlimit:4" d="M423.096553 241.796693C426.803995 244.102259 429.700435 247.798116 430.905354 252.200704 428.901018 252.003746 428.599788 249.802452 427.696099 248.400575 426.398494 246.002323 424.49843 244.102259 423.096553 241.796693zm0 0" transform="matrix(0.33716,0,0,0.33716,-22.342489,-14.856118)"/><path style="fill-rule:evenodd;fill:#f1c63c;fill-opacity:1;stroke-width:.09375;stroke-linecap:butt;stroke-linejoin:miter;stroke:#f1c63c;stroke-opacity:1;stroke-miterlimit:4" d="M288.59749 250.995785C290.300596 246.894427 294.297683 243.696757 299.0015 244.600446 299.105772 246.396239 299.30273 248.203617 299.499688 249.99941 295.896517 250.601869 292.304932 251.899474 288.59749 250.995785zm0 0" transform="matrix(0.33716,0,0,0.33716,-22.342489,-14.856118)"/><path style="fill-rule:evenodd;fill:#ffcb99;fill-opacity:1;stroke-width:.09375;stroke-linecap:butt;stroke-linejoin:miter;stroke:#ffcb99;stroke-opacity:1;stroke-miterlimit:4" d="M378.699929 252.698891C385.500769 249.199992 393.900443 249.605494 400.098824 244.704718 402.497075 246.604783 404.999599 248.504847 408.104582 248.701805 415.704839 249.39695 422.100178 254.795913 425.796035 261.295524 426.502766 267.598176 425.796035 274.202058 424.301472 280.400438 420.200113 289.101342 413.804775 296.40037 408.394226 304.394543 405.694745 305.79642 403.203807 308.101985 399.901866 307.997714 396.298695 308.101985 392.904068 306.503151 389.602127 305.101274 388.397208 307.800756 384.805623 307.905027 383.496433 305.205546 385.095267 305.101274 386.798374 305.101274 388.397208 305.101274 385.801998 300.501728 382.198828 296.794286 379.001158 292.704513 378.201741 292.797199 376.602907 292.901471 375.803489 293.005743 376.695593 291.905096 377.49501 290.897135 378.398699 289.796488 376.996822 288.394611 375.50226 287.097006 373.996111 285.799401 373.497923 279.994937 373.497923 274.202058 373.602195 268.501865 374.702842 268.003677 375.803489 267.598176 376.996822 267.401218 376.904136 270.494615 378.502971 273.101411 380.704265 275.105747 380.194492 273.599598 379.696304 272.105036 379.302388 270.598887 382.303099 269.79947 383.195203 272.695909 384.59708 274.595974 386.705687 275.800892 389.103939 276.403352 391.09669 277.700957 392.394295 276.901539 393.599213 275.99785 394.804132 275.001475 393.599213 275.105747 391.305233 275.302705 390.100315 275.302705 390.899732 273.495327 393.402256 271.502576 392.000379 269.301282 390.204586 266.798759 386.798374 266.497529 383.99462 266.90303 381.897598 266.995716 378.502971 268.200635 378.201741 265.002966 379.302388 265.199924 380.403035 265.304196 381.503682 265.501154 382.905559 263.995005 384.701351 262.396171 386.902645 262.801672 389.405169 264.099277 391.803421 265.802383 394.595589 266.196299 393.205298 260.600378 386.601416 260.70465 382.00187 261.701025 378.201741 261.897983 376.000447 265.304196 373.602195 267.795134 373.497923 264.504778 373.497923 261.202837 373.497923 257.900896 375.305302 256.19779 376.996822 254.401998 378.699929 252.698891zm0 0" transform="matrix(0.33716,0,0,0.33716,-22.342489,-14.856118)"/><path style="fill-rule:evenodd;fill:#020200;fill-opacity:1;stroke-width:.09375;stroke-linecap:butt;stroke-linejoin:miter;stroke:#020200;stroke-opacity:1;stroke-miterlimit:4" d="M434.103023 252.096432C434.90244 249.501222 435.794544 246.894427 436.895191 244.496175 437.694608 246.095009 439.003799 247.798116 438.899527 249.69818 437.79888 251.297014 435.794544 251.505558 434.103023 252.096432zm0 0" transform="matrix(0.33716,0,0,0.33716,-22.342489,-14.856118)"/><path style="fill-rule:evenodd;fill:#f1c63c;fill-opacity:1;stroke-width:.09375;stroke-linecap:butt;stroke-linejoin:miter;stroke:#f1c63c;stroke-opacity:1;stroke-miterlimit:4" d="M277.799563 254.598955C278.494709 250.601869 283.395484 250.404911 286.30351 248.701805 285.805322 250.903099 286.396196 253.90381 284.403445 255.502645 282.202151 256.000832 279.896586 255.004457 277.799563 254.598955zm0 0" transform="matrix(0.33716,0,0,0.33716,-22.342489,-14.856118)"/><path style="fill-rule:evenodd;fill:#f0c63c;fill-opacity:1;stroke-width:.09375;stroke-linecap:butt;stroke-linejoin:miter;stroke:#f0c63c;stroke-opacity:1;stroke-miterlimit:4" d="M293.903767 256.800249C293.602537 253.799538 295.699559 251.899474 298.005125 250.497597 299.905189 252.304975 299.499688 254.703227 298.804542 256.904521 297.101436 256.904521 295.502601 256.800249 293.903767 256.800249zm0 0" transform="matrix(0.33716,0,0,0.33716,-22.342489,-14.856118)"/><path style="fill-rule:evenodd;fill:#f1c63c;fill-opacity:1;stroke-width:.09375;stroke-linecap:butt;stroke-linejoin:miter;stroke:#f1c63c;stroke-opacity:1;stroke-miterlimit:4" d="M349.596505 259.198501C350.801424 257.205751 352.701488 255.699602 354.79851 254.703227 355.899157 256.695978 356.999804 258.700314 358.204723 260.797336 355.597928 259.09423 352.50453 259.001543 349.596505 259.198501zm0 0" transform="matrix(0.33716,0,0,0.33716,-22.342489,-14.856118)"/><path style="fill-rule:evenodd;fill:#f1c53c;fill-opacity:1;stroke-width:.09375;stroke-linecap:butt;stroke-linejoin:miter;stroke:#f1c53c;stroke-opacity:1;stroke-miterlimit:4" d="M450.705414 258.897272C452.396935 258.596042 454.204313 258.503356 455.895833 258.897272 455.30496 259.09423 453.995769 259.604003 453.404896 259.800961 455.698876 263.798047 456.000105 268.594551 458.305671 272.695909 459.603276 275.302705 460.599651 278.199144 461.897256 280.794354 461.202111 281.396813 460.402693 281.999273 459.695962 282.694418 455.397646 275.302705 453.300624 266.995716 450.705414 258.897272zm0 0" transform="matrix(0.33716,0,0,0.33716,-22.342489,-14.856118)"/><path style="fill-rule:evenodd;fill:#f1c63c;fill-opacity:1;stroke-width:.09375;stroke-linecap:butt;stroke-linejoin:miter;stroke:#f1c63c;stroke-opacity:1;stroke-miterlimit:4" d="M254.801834 261.399795C257.999503 260.797336 261.104486 259.905233 264.197884 259.09423 263.502738 262.801672 260.502027 265.304196 256.898856 266.196299 256.203711 264.597465 255.49698 262.99863 254.801834 261.399795zm0 0" transform="matrix(0.33716,0,0,0.33716,-22.342489,-14.856118)"/><path style="fill-rule:evenodd;fill:#f1c63c;fill-opacity:1;stroke-width:.09375;stroke-linecap:butt;stroke-linejoin:miter;stroke:#f1c63c;stroke-opacity:1;stroke-miterlimit:4" d="M342.494435 261.399795C343.096895 261.202837 344.498772 260.70465 345.205503 260.496106 344.996959 263.601089 345.402461 266.995716 343.699354 269.79947 341.903562 273.205683 340.594371 276.901539 339.702268 280.701668 337.999161 281.095584 336.203369 281.501085 334.500262 282.103545 336.296055 279.902251 336.099097 277.098497 336.400327 274.503288 339.401038 270.598887 341.49806 266.196299 342.494435 261.399795zm0 0" transform="matrix(0.33716,0,0,0.33716,-22.342489,-14.856118)"/><path style="fill-rule:evenodd;fill:#f1c63c;fill-opacity:1;stroke-width:.09375;stroke-linecap:butt;stroke-linejoin:miter;stroke:#f1c63c;stroke-opacity:1;stroke-miterlimit:4" d="M346.700066 266.798759C347.198253 264.597465 347.001295 261.202837 350.002007 260.797336 351.600841 263.102902 349.700777 265.802383 349.202589 268.200635 347.302525 272.603223 346.595794 278.396102 342.204791 281.199856 343.699354 276.403352 346.201878 271.896492 346.700066 266.798759zm0 0" transform="matrix(0.33716,0,0,0.33716,-22.342489,-14.856118)"/><path style="fill-rule:evenodd;fill:#000;fill-opacity:1;stroke-width:.09375;stroke-linecap:butt;stroke-linejoin:miter;stroke:#000;stroke-opacity:1;stroke-miterlimit:4" d="M401.002513 266.995716C404.200182 264.898694 407.200893 261.805297 411.19798 261.504067 413.596231 261.399795 415.994483 261.098566 418.300049 261.701025 420.895259 264.701736 422.20445 268.895781 420.605615 272.695909 419.296424 276.403352 414.395649 277.805229 410.89675 276.102122 410.097333 274.700245 409.703417 273.205683 409.100957 271.699534 408.00031 271.896492 404.003224 271.896492 405.799016 273.796556 407.003935 275.198433 408.30154 276.60031 409.297915 278.199144 407.003935 277.596685 404.895327 276.403352 402.705619 275.603935 404.999599 279.102833 405.497787 283.296878 404.895327 287.398236 402.497075 284.003609 401.894616 279.994937 401.604972 275.99785 401.80193 274.399016 400.597011 272.197722 401.998888 271.004389 407.699081 268.200635 414.302963 268.895781 420.501343 268.397593 418.798237 265.895069 415.600568 265.698112 412.901086 265.501154 410.699792 265.501154 408.197268 264.701736 406.598434 266.601801 405.103871 267.598176 404.09591 269.695198 402.195846 269.903742 401.894616 269.19701 401.303742 267.702448 401.002513 266.995716zm0 0" transform="matrix(0.33716,0,0,0.33716,-22.342489,-14.856118)"/><path style="fill-rule:evenodd;fill:#f1c63c;fill-opacity:1;stroke-width:.09375;stroke-linecap:butt;stroke-linejoin:miter;stroke:#f1c63c;stroke-opacity:1;stroke-miterlimit:4" d="M349.897735 277.503999C350.500194 272.105036 351.496569 266.300571 354.902782 261.701025 354.79851 267.296946 353.303948 272.997139 349.897735 277.503999zm0 0" transform="matrix(0.33716,0,0,0.33716,-22.342489,-14.856118)"/><path style="fill-rule:evenodd;fill:#f1c53c;fill-opacity:1;stroke-width:.09375;stroke-linecap:butt;stroke-linejoin:miter;stroke:#f1c53c;stroke-opacity:1;stroke-miterlimit:4" d="M440.996549 261.399795C444.495448 264.898694 445.804638 269.903742 446.302826 274.595974 442.595383 271.305618 442.201468 265.999341 440.996549 261.399795zm0 0" transform="matrix(0.33716,0,0,0.33716,-22.342489,-14.856118)"/><path style="fill-rule:evenodd;fill:#f1c63c;fill-opacity:1;stroke-width:.09375;stroke-linecap:butt;stroke-linejoin:miter;stroke:#f1c63c;stroke-opacity:1;stroke-miterlimit:4" d="M446.997971 261.805297C450.195641 267.099988 451.296288 273.495327 454.795186 278.500374 454.505543 279.299791 454.204313 279.994937 453.995769 280.794354 452.698164 280.400438 451.400559 279.994937 450.102955 279.705293 450.102955 273.495327 446.696742 267.899406 446.997971 261.805297zm0 0" transform="matrix(0.33716,0,0,0.33716,-22.342489,-14.856118)"/><path style="fill-rule:evenodd;fill:#f1c63c;fill-opacity:1;stroke-width:.09375;stroke-linecap:butt;stroke-linejoin:miter;stroke:#f1c63c;stroke-opacity:1;stroke-miterlimit:4" d="M355.899157 276.102122C356.501617 271.502576 356.802846 265.605425 360.904205 262.604714 361.101163 264.597465 362.20181 266.798759 360.695661 268.501865 358.899869 270.900117 357.301034 273.495327 355.899157 276.102122zm0 0" transform="matrix(0.33716,0,0,0.33716,-22.342489,-14.856118)"/><path style="fill-rule:evenodd;fill:#f1c63c;fill-opacity:1;stroke-width:.09375;stroke-linecap:butt;stroke-linejoin:miter;stroke:#f1c63c;stroke-opacity:1;stroke-miterlimit:4" d="M360.799933 273.599598C361.402392 269.996428 363.302457 264.296235 367.994688 265.698112 365.80498 269.49824 363.001227 272.800181 360.197473 275.99785 359.699286 275.198433 359.30537 274.399016 358.899869 273.599598c.40550099999995837.0 1.4018759999999588.0 1.9000639999999862.0zm0 0" transform="matrix(0.33716,0,0,0.33716,-22.342489,-14.856118)"/><path style="fill-rule:evenodd;fill:#f1c53c;fill-opacity:1;stroke-width:.09375;stroke-linecap:butt;stroke-linejoin:miter;stroke:#f1c53c;stroke-opacity:1;stroke-miterlimit:4" d="M437.300692 264.701736C438.297067 265.999341 439.200756 267.296946 440.104446 268.594551 438.702569 269.602512 437.404964 270.598887 436.003087 271.502576 436.501275 272.301994 437.103734 273.205683 437.694608 274.0051 438.795255 273.495327 439.895902 273.205683 440.996549 272.800181 441.100821 273.402641 441.297779 274.503288 441.40205 275.105747 439.501986 274.804517 437.601922 274.700245 435.701858 274.202058 434.496939 272.695909 433.697521 271.004389 432.805418 269.405554 431.496227 270.1007 430.302894 270.795845 429.005289 271.398304 430.302894 269.104324 432.098687 267.099988 433.998751 265.304196 434.798168 266.798759 435.5049 268.501865 436.999462 269.602512 437.103734 268.003677 437.19642 266.300571 437.300692 264.701736zm0 0" transform="matrix(0.33716,0,0,0.33716,-22.342489,-14.856118)"/><path style="fill-rule:evenodd;fill:#f1c63c;fill-opacity:1;stroke-width:.09375;stroke-linecap:butt;stroke-linejoin:miter;stroke:#f1c63c;stroke-opacity:1;stroke-miterlimit:4" d="M366.198896 270.795845C368.597148 272.695909 370.497212 275.198433 371.296629 278.199144 368.203232 276.994225 366.998313 273.796556 366.198896 270.795845zm0 0" transform="matrix(0.33716,0,0,0.33716,-22.342489,-14.856118)"/><path style="fill-rule:evenodd;fill:#f4c392;fill-opacity:1;stroke-width:.09375;stroke-linecap:butt;stroke-linejoin:miter;stroke:#f4c392;stroke-opacity:1;stroke-miterlimit:4" d="M416.399985 272.498951C417.604904 270.795845 419.898884 272.800181 417.998819 274.097786 416.805486 275.905164 414.604192 273.70387 416.399985 272.498951zm0 0" transform="matrix(0.33716,0,0,0.33716,-22.342489,-14.856118)"/><path style="fill-rule:evenodd;fill:#ffcb99;fill-opacity:1;stroke-width:.09375;stroke-linecap:butt;stroke-linejoin:miter;stroke:#ffcb99;stroke-opacity:1;stroke-miterlimit:4" d="M317.503956 276.60031C320.701625 275.302705 323.598064 273.402641 326.900005 272.603223 324.200524 277.295455 323.401106 282.902962 320.203437 287.30555 317.897871 290.700177 322.103502 294.002118 325.405443 293.005743 325.695086 292.901471 326.494504 292.797199 326.900005 292.704513 331.001364 289.402572 335.994825 287.595194 340.895601 286.100631 343.305438 285.799401 344.603043 283.598107 346.700066 282.79869 349.295275 281.802315 351.994757 281.501085 354.694238 281.396813 357.405306 281.501085 359.30537 279.299791 361.703622 278.500374 362.004852 281.802315 361.59935 285.301214 362.699997 288.394611 366.094624 292.797199 368.295918 297.999204 369.894753 303.305482 366.905627 303.004252 365.399479 300.397456 364.101874 297.999204 364.298832 300.30477 364.403104 302.59875 364.19456 304.904316 363.198185 304.695773 362.294496 304.498815 361.29812 304.301857 361.59935 305.599462 361.90058 306.80438 362.20181 307.997714 359.201098 307.198296 356.304659 307.10561 353.999093 309.39959 353.199676 306.700109 353.697863 303.20121 350.905696 301.498103 350.998382 305.205546 352.295987 308.797131 352.099029 312.504573 349.897735 309.503862 350.303236 304.997002 346.897023 302.703022 347.001295 305.900691 348.101942 308.901403 349.202589 311.902114 347.499483 313.303991 345.900648 314.694282 344.104856 316.003472 342.795665 313.697906 341.695018 311.299655 340.501685 309.005674 340.501685 312.400302 341.301102 316.20043 338.995537 319.09687 338.300391 316.594346 337.697932 314.103408 336.701556 311.797842 336.504599 314.404638 336.400327 317.104119 336.099097 319.803601 335.496638 319.004184 334.905764 318.100494 334.303305 317.196805 334.199033 319.699329 332.70447 321.298164 330.097674 320.301788 330.804406 321.495121 331.499551 322.70004 332.194697 323.904959 329.402529 323.105542 326.401818 322.896998 323.505378 322.896998 323.702336 319.305413 323.204149 315.702243 321.199812 312.794217 321.304084 316.698618 322.300459 320.603018 321.39677 324.495833 319.40402 324.403147 317.399684 324.194603 315.49962 323.997645 314.89716 321.495121 314.398973 319.09687 313.495283 316.80289 313.101368 320.104831 314.398973 324.101917 311.502533 326.500169 311.398261 324.797062 311.201303 323.00127 311.004346 321.298164 309.498197 322.097581 309.104281 323.800687 308.501822 325.29525 307.795091 323.800687 307.099945 322.294539 306.300528 320.799976 306.497486 323.800687 305.80234 326.801399 303.798004 329.095379 302.604671 327.705088 301.504024 326.303211 300.496063 324.901334 300.102147 329.002693 296.302019 331.296673 294.900142 334.899843 295.803831 336.498678 296.904478 338.004826 297.796582 339.603661 304.504735 339.105473 311.699491 339.395117 317.805185 336.197448 322.196188 341.503725 330.004988 339.997577 335.600909 343.40379 340.096184 347.505148 344.996959 351.096733 350.697152 353.298027 353.002718 355.395049 354.995468 357.596343 357.301034 359.704951 358.204723 359.195178 359.201098 358.69699 360.104787 358.198802 362.804269 361.095242 366.905627 361.396472 370.404526 362.497119 372.802778 364.501455 376.301677 363.50508 378.699929 365.405144 381.804912 367.502166 385.697727 366.702749 389.103939 366.204561 391.699149 366.598477 394.201673 367.305208 396.704197 368.000354 398.198759 368.996729 398.998177 370.699835 400.098824 372.101712 399.102448 374.499964 398.303031 377.002487 396.704197 378.995238 397.503614 380.501386 398.198759 382.204493 397.804844 383.896013 396.402967 383.397826 395.105362 382.795366 393.796171 382.204493 394.097401 383.803327 394.502903 385.29789 395.00109 386.804039 395.395006 386.294265 396.402967 385.494848 396.901154 385.100932 398.001801 386.896725 396.796883 389.005333 396.901154 390.998083 397.202384 392.39996 398.696947 393.199377 399.600636 394.195752 399.496364 397.497693 399.496364 400.903906 398.303031 403.997303c.6951460000000225.0 2.2012940000000185.0 3.000711000000024.0.0 2.9080260000000067.0 5.804464999999993.0 8.700904000000037C400.805555 412.698207 399.901866 412.50125 399.403678 412.396978 398.395717 417.494711 395.60355 422.001571 393.796171 426.902347 393.205298 428.605453 391.699149 429.798786 390.401544 431.096391 390.598502 425.396198 391.200962 419.696005 390.100315 414.100084 388.999668 410.798143 386.995331 407.901704 385.199539 404.900992 382.998245 400.996592 382.198828 395.701901 377.703554 393.697565 377.703554 393.095105 377.900511 391.901772 377.900511 391.299313 377.101094 391.496271 376.197405 391.600542 375.397988 391.704814 374.702842 390.395624 374.100383 389.005333 373.497923 387.696142 368.70142 386.896725 364.901291 383.699055 360.197473 382.70268 357.405306 382.204493 355.597928 378.601322 352.400258 379.597697 351.705113 378.79828 351.102654 377.500675 349.700777 377.604947 344.197542 376.898216 338.300391 377.095174 333.098386 374.905465 331.800781 374.395692 331.105635 373.098087 330.097674 372.101712 329.205571 373.295045 328.394568 374.499964 327.595151 375.704883 325.799358 374.198734 323.899294 372.901129 322.300459 371.198023 321.802272 371.800482 321.39677 372.402942 321.002855 373.005401 319.600978 371.99744 318.303373 370.896793 316.797224 370.201648 315.105704 369.796146 313.495283 370.804107 311.896449 371.198023 309.602469 368.904043 306.902987 367.003978 303.902276 365.79906 302.303441 365.79906 301.202794 367.200936 299.905189 367.896082 300.299105 366.795435 300.704607 365.694788 301.098523 364.605727 294.79587 365.694788 289.605451 361.095242 283.604028 360.701326 280.302087 360.400096 277.104418 360.295825 273.999435 359.195178 269.596847 357.503657 264.394842 358.39576 260.397755 355.603593 255.902481 350.297316 254.002417 342.395829 256.597627 335.803532 256.898856 331.899132 261.99659 330.902757 262.402091 327.102628 266.097948 325.503794 269.295617 322.804312 271.705455 319.595057 272.898788 318.204766 272.70183 316.20043 273.698205 314.694282 275.899499 313.095447 279.398398 313.303991 280.603317 310.500237 282.202151 306.097649 286.894383 304.197585 289.501179 300.501728 292.698848 294.801535 299.905189 292.797199 302.500399 286.598819 305.895026 286.100631 308.200592 283.598107 308.39755 280.20348 312.104993 282.196231 315.105704 278.998562 317.503956 276.60031zm0 0" transform="matrix(0.33716,0,0,0.33716,-22.342489,-14.856118)"/><path style="fill-rule:evenodd;fill:#e8bb39;fill-opacity:1;stroke-width:.09375;stroke-linecap:butt;stroke-linejoin:miter;stroke:#e8bb39;stroke-opacity:1;stroke-miterlimit:4" d="M427.302183 278.094872C428.70406 276.102122 430.801082 274.897203 433.303606 274.804517 433.500564 278.396102 430.001665 278.396102 427.302183 278.094872zm0 0" transform="matrix(0.33716,0,0,0.33716,-22.342489,-14.856118)"/><path style="fill-rule:evenodd;fill:#f0c63c;fill-opacity:1;stroke-width:.09375;stroke-linecap:butt;stroke-linejoin:miter;stroke:#f0c63c;stroke-opacity:1;stroke-miterlimit:4" d="M364.901291 275.603935C367.299543 277.805229 370.103296 279.601021 372.096047 282.103545 372.30459 284.594483 369.697795 285.301214 368.09896 286.494547 370.601484 288.301925 374.401613 288.904385 375.594946 291.997782 374.8998 293.005743 374.204655 293.80516 373.497923 294.697264 378.097469 295.79791 381.295139 299.598039 384.59708 302.795708 382.094556 303.096938 379.499346 303.305482 376.904136 303.004252 378.004783 302.100563 379.10543 301.196874 380.194492 300.200498 377.205366 298.798622 373.300966 298.601664 370.9954 295.902182 371.203943 294.894221 371.505173 293.897846 371.702131 293.005743 369.802067 290.897135 367.705045 288.904385 365.503751 287.00432 366.001938 285.602444 366.500126 284.200567 366.905627 282.79869 365.596437 280.597396 364.797019 278.199144 364.901291 275.603935zm0 0" transform="matrix(0.33716,0,0,0.33716,-22.342489,-14.856118)"/><path style="fill-rule:evenodd;fill:#f1c53c;fill-opacity:1;stroke-width:.09375;stroke-linecap:butt;stroke-linejoin:miter;stroke:#f1c53c;stroke-opacity:1;stroke-miterlimit:4" d="M424.903931 284.895712C427.394869 281.999273 430.905354 280.20348 434.496939 278.998562 433.002376 281.304127 431.403541 283.598107 430.094351 285.996359 428.40283 285.602444 426.595452 285.196942 424.903931 284.895712zm0 0" transform="matrix(0.33716,0,0,0.33716,-22.342489,-14.856118)"/><path style="fill-rule:evenodd;fill:#010101;fill-opacity:1;stroke-width:.09375;stroke-linecap:butt;stroke-linejoin:miter;stroke:#010101;stroke-opacity:1;stroke-miterlimit:4" d="M390.899732 282.79869C392.394295 284.397525 393.599213 286.401861 395.395006 287.803738 397.5963 289.205614 399.994552 287.699466 402.300118 287.30555 400.203095 289.205614 397.399342 290.700177 394.69986 289.2983 391.803421 288.498883 390.899732 285.405486 390.899732 282.79869zm0 0" transform="matrix(0.33716,0,0,0.33716,-22.342489,-14.856118)"/><path style="fill-rule:evenodd;fill:#010101;fill-opacity:1;stroke-width:.09375;stroke-linecap:butt;stroke-linejoin:miter;stroke:#010101;stroke-opacity:1;stroke-miterlimit:4" d="M443.904574 283.795065C446.094282 284.003609 447.797389 285.405486 449.002308 287.201278 446.801014 287.00432 444.796677 285.903673 443.904574 283.795065zm0 0" transform="matrix(0.33716,0,0,0.33716,-22.342489,-14.856118)"/><path style="fill-rule:evenodd;fill:#f1c63c;fill-opacity:1;stroke-width:.09375;stroke-linecap:butt;stroke-linejoin:miter;stroke:#f1c63c;stroke-opacity:1;stroke-miterlimit:4" d="M422.505679 288.997071C425.100889 287.896424 427.997329 287.502508 430.801082 287.097006 429.503477 289.205614 427.904642 291.105679 426.097264 292.797199 424.695388 291.696552 422.100178 291.302636 422.505679 288.997071zm0 0" transform="matrix(0.33716,0,0,0.33716,-22.342489,-14.856118)"/><path style="fill-rule:evenodd;fill:#f1c63c;fill-opacity:1;stroke-width:.09375;stroke-linecap:butt;stroke-linejoin:miter;stroke:#f1c63c;stroke-opacity:1;stroke-miterlimit:4" d="M420.304385 293.202701C422.20445 292.704513 426.201536 293.098429 425.796035 295.79791 423.502054 296.7016 419.296424 298.103476 418.195777 294.998493 418.705551 294.500306 419.701926 293.596617 420.304385 293.202701zm0 0" transform="matrix(0.33716,0,0,0.33716,-22.342489,-14.856118)"/><path style="fill-rule:evenodd;fill:#000;fill-opacity:1;stroke-width:.09375;stroke-linecap:butt;stroke-linejoin:miter;stroke:#000;stroke-opacity:1;stroke-miterlimit:4" d="M390.702774 295.299723C394.595589 295.102765 398.604261 295.102765 402.404389 295.496681 399.704908 299.899269 394.201673 297.199787 390.702774 295.299723zm0 0" transform="matrix(0.33716,0,0,0.33716,-22.342489,-14.856118)"/><path style="fill-rule:evenodd;fill:#010101;fill-opacity:1;stroke-width:.09375;stroke-linecap:butt;stroke-linejoin:miter;stroke:#010101;stroke-opacity:1;stroke-miterlimit:4" d="M391.004004 298.902894C393.402256 299.598039 395.696236 300.698686 397.89753 301.799333 399.994552 300.802958 402.195846 299.899269 404.39714 299.099851 402.995263 303.096938 398.094487 303.004252 394.69986 302.297521 392.799796 301.996291 392.000379 300.30477 391.004004 298.902894zm0 0" transform="matrix(0.33716,0,0,0.33716,-22.342489,-14.856118)"/><path style="fill-rule:evenodd;fill:#f1c63c;fill-opacity:1;stroke-width:.09375;stroke-linecap:butt;stroke-linejoin:miter;stroke:#f1c63c;stroke-opacity:1;stroke-miterlimit:4" d="M417.199402 304.197585C415.994483 302.703022 412.402898 300.594414 414.998108 298.69435 417.39636 298.798622 419.794612 299.296809 422.20445 299.702311 420.605615 301.301145 418.902509 302.795708 417.199402 304.197585zm0 0" transform="matrix(0.33716,0,0,0.33716,-22.342489,-14.856118)"/><path style="fill-rule:evenodd;fill:#a58463;fill-opacity:1;stroke-width:.09375;stroke-linecap:butt;stroke-linejoin:miter;stroke:#a58463;stroke-opacity:1;stroke-miterlimit:4" d="M484.095568 300.096227C484.605342 300.096227 485.601717 300.003541 486.099904 300.003541 485.995632 301.301145 485.995632 302.59875 485.995632 303.896355 485.497445 303.896355 484.605342 303.896355 484.095568 303.803669c0-1.204919000000018.0-2.3982520000000136.0-3.7074420000000146zm0 0" transform="matrix(0.33716,0,0,0.33716,-22.342489,-14.856118)"/><path style="fill-rule:evenodd;fill:#010101;fill-opacity:1;stroke-width:.09375;stroke-linecap:butt;stroke-linejoin:miter;stroke:#010101;stroke-opacity:1;stroke-miterlimit:4" d="M426.502766 305.298232C427.696099 303.305482 429.804707 302.100563 432.202959 301.799333 430.69681 303.595126 428.796746 304.800044 426.502766 305.298232zm0 0" transform="matrix(0.33716,0,0,0.33716,-22.342489,-14.856118)"/><path style="fill-rule:evenodd;fill:#f1c63c;fill-opacity:1;stroke-width:.09375;stroke-linecap:butt;stroke-linejoin:miter;stroke:#f1c63c;stroke-opacity:1;stroke-miterlimit:4" d="M410.699792 304.498815C412.194355 304.394543 413.804775 304.394543 415.299338 304.498815 414.604192 305.49519 413.897461 307.198296 412.298627 306.700109 411.696167 306.004963 411.19798 305.298232 410.699792 304.498815zm0 0" transform="matrix(0.33716,0,0,0.33716,-22.342489,-14.856118)"/><path style="fill-rule:evenodd;fill:#020200;fill-opacity:1;stroke-width:.09375;stroke-linecap:butt;stroke-linejoin:miter;stroke:#020200;stroke-opacity:1;stroke-miterlimit:4" d="M346.097606 314.300366C343.398125 313.303991 344.603043 310.199008 345.900648 308.600173 346.097606 310.500237 346.201878 312.400302 346.097606 314.300366zm0 0" transform="matrix(0.33716,0,0,0.33716,-22.342489,-14.856118)"/><path style="fill-rule:evenodd;fill:#f1c63c;fill-opacity:1;stroke-width:.09375;stroke-linecap:butt;stroke-linejoin:miter;stroke:#f1c63c;stroke-opacity:1;stroke-miterlimit:4" d="M388.003292 310.801467C390.297272 309.805092 392.799796 308.704445 395.198048 309.596548 394.097401 311.195383 392.996754 312.597259 391.896107 314.196094 393.402256 313.60522 394.804132 312.794217 396.194423 311.9948 398.998177 314.694282 401.894616 317.301077 404.304454 320.394474 402.300118 320.695704 400.098824 320.996934 398.499989 319.502371 395.198048 316.304702 390.79546 314.497324 388.003292 310.801467zm0 0" transform="matrix(0.33716,0,0,0.33716,-22.342489,-14.856118)"/><path style="fill-rule:evenodd;fill:#f1c63c;fill-opacity:1;stroke-width:.09375;stroke-linecap:butt;stroke-linejoin:miter;stroke:#f1c63c;stroke-opacity:1;stroke-miterlimit:4" d="M397.700572 310.199008C400.805555 309.805092 404.003224 309.503862 407.096621 309.503862 409.494873 312.504573 410.59552 316.50166 410.201604 320.301788 408.799728 320.000559 406.505748 320.799976 405.995974 319.09687 405.405101 317.903537 405.103871 316.594346 404.698369 315.296741 402.195846 313.894864 399.797594 312.203344 397.700572 310.199008zm0 0" transform="matrix(0.33716,0,0,0.33716,-22.342489,-14.856118)"/><path style="fill-rule:evenodd;fill:#010101;fill-opacity:1;stroke-width:.09375;stroke-linecap:butt;stroke-linejoin:miter;stroke:#010101;stroke-opacity:1;stroke-miterlimit:4" d="M438.795255 316.20043C440.405675 314.404638 442.30574 312.898489 444.402762 311.902114 443.105157 313.894864 441.205093 315.505285 438.795255 316.20043zm0 0" transform="matrix(0.33716,0,0,0.33716,-22.342489,-14.856118)"/><path style="fill-rule:evenodd;fill:#f1c63c;fill-opacity:1;stroke-width:.09375;stroke-linecap:butt;stroke-linejoin:miter;stroke:#f1c63c;stroke-opacity:1;stroke-miterlimit:4" d="M385.500769 319.398099C386.902645 318.204766 388.397208 316.999847 389.996043 315.8992 392.197337 318.100494 392.602838 322.70004 389.196625 323.997645 387.505105 322.804312 388.304522 320.695704 388.20025 318.899912 387.505105 319.09687 386.195914 319.305413 385.500769 319.398099zm0 0" transform="matrix(0.33716,0,0,0.33716,-22.342489,-14.856118)"/><path style="fill-rule:evenodd;fill:#f0c63c;fill-opacity:1;stroke-width:.09375;stroke-linecap:butt;stroke-linejoin:miter;stroke:#f0c63c;stroke-opacity:1;stroke-miterlimit:4" d="M401.199471 324.495833C402.601347 323.3025 403.701994 321.402435 405.694745 321.101206 408.60277 324.194603 411.001022 327.705088 411.001022 332.003404 409.205229 332.200362 407.397851 332.304634 405.602059 332.501591 405.799016 330.995443 405.903288 329.605152 405.903288 328.203275 404.802641 326.500169 402.798305 325.700752 401.199471 324.495833zm0 0" transform="matrix(0.33716,0,0,0.33716,-22.342489,-14.856118)"/><path style="fill-rule:evenodd;fill:#f1c63c;fill-opacity:1;stroke-width:.09375;stroke-linecap:butt;stroke-linejoin:miter;stroke:#f1c63c;stroke-opacity:1;stroke-miterlimit:4" d="M395.60355 322.70004C396.704197 322.503082 397.804844 322.398811 398.905491 322.201853 398.696947 326.094667 398.198759 329.999068 397.89753 333.903468 399.797594 335.398031 402.300118 336.498678 403.099535 338.89693 404.09591 341.503725 406.795392 342.697058 407.699081 345.303854 411.105294 352.104694 417.500632 358.001845 417.894548 365.903331 417.39636 365.996017 416.596943 366.100289 416.203027 366.204561 412.796814 359.797637 408.60277 353.796214 403.79468 348.397251 400.295781 342.80133 396.704197 336.904179 395.997465 330.196026 395.00109 327.705088 394.004715 325.202564 395.60355 322.70004zm0 0" transform="matrix(0.33716,0,0,0.33716,-22.342489,-14.856118)"/><path style="fill-rule:evenodd;fill:#f1c63c;fill-opacity:1;stroke-width:.09375;stroke-linecap:butt;stroke-linejoin:miter;stroke:#f1c63c;stroke-opacity:1;stroke-miterlimit:4" d="M389.903357 327.902046C391.502191 329.002693 393.402256 330.10334 393.900443 332.09609 393.703485 333.301009 393.402256 334.494342 392.904068 335.699261 391.09669 333.497967 389.903357 330.798485 389.903357 327.902046zm0 0" transform="matrix(0.33716,0,0,0.33716,-22.342489,-14.856118)"/><path style="fill-rule:evenodd;fill:#f1c63c;fill-opacity:1;stroke-width:.09375;stroke-linecap:butt;stroke-linejoin:miter;stroke:#f1c63c;stroke-opacity:1;stroke-miterlimit:4" d="M401.199471 330.798485C403.597722 332.200362 405.300829 334.401656 406.204518 337.101137 402.902577 336.799908 401.604972 333.694925 401.199471 330.798485zm0 0" transform="matrix(0.33716,0,0,0.33716,-22.342489,-14.856118)"/><path style="fill-rule:evenodd;fill:#f1c63c;fill-opacity:1;stroke-width:.09375;stroke-linecap:butt;stroke-linejoin:miter;stroke:#f1c63c;stroke-opacity:1;stroke-miterlimit:4" d="M408.104582 332.594278C411.302251 333.405281 411.603481 337.205409 413.596231 339.302431 416.399985 341.700683 419.504968 343.797705 422.795323 345.199582 424.000242 345.605084 424.695388 346.705731 425.297847 347.702106 421.405032 348.200293 417.500632 346.902688 413.700503 346.195957 411.302251 341.897641 408.695456 337.599325 408.104582 332.594278zm0 0" transform="matrix(0.33716,0,0,0.33716,-22.342489,-14.856118)"/><path style="fill-rule:evenodd;fill:#f1c63c;fill-opacity:1;stroke-width:.09375;stroke-linecap:butt;stroke-linejoin:miter;stroke:#f1c63c;stroke-opacity:1;stroke-miterlimit:4" d="M390.79546 340.403078C393.703485 340.704308 396.901154 340.704308 398.905491 342.998288 396.298695 345.199582 392.602838 342.80133 390.79546 340.403078zm0 0" transform="matrix(0.33716,0,0,0.33716,-22.342489,-14.856118)"/><path style="fill-rule:evenodd;fill:#f5ca00;fill-opacity:1;stroke-width:.09375;stroke-linecap:butt;stroke-linejoin:miter;stroke:#f5ca00;stroke-opacity:1;stroke-miterlimit:4" d="M390.899732 346.300229C394.294359 347.099646 397.804844 347.296604 401.199471 348.003335 399.102448 348.999711 396.901154 349.799128 394.804132 350.598545 394.896818 351.201005 395.30232 352.19738 395.499278 352.799839 396.599925 353.402299 397.89753 353.599257 399.299406 353.298027 396.796883 354.398674 393.494942 354.294402 392.904068 351.004047 392.301609 349.694856 391.699149 348.397251 391.200962 346.995375zm0 0" transform="matrix(0.33716,0,0,0.33716,-22.342489,-14.856118)"/><path style="fill-rule:evenodd;fill:#020200;fill-opacity:1;stroke-width:.09375;stroke-linecap:butt;stroke-linejoin:miter;stroke:#020200;stroke-opacity:1;stroke-miterlimit:4" d="M388.095978 347.505148C388.895396 347.400876 390.401544 347.099646 391.200962 346.995375 391.699149 348.397251 392.301609 349.694856 392.904068 351.004047 391.594877 350.401587 390.204586 349.799128 388.80271 349.196669 388.605752 348.802753 388.304522 347.899064 388.095978 347.505148zm0 0" transform="matrix(0.33716,0,0,0.33716,-22.342489,-14.856118)"/><path style="fill-rule:evenodd;fill:#f1c63c;fill-opacity:1;stroke-width:.09375;stroke-linecap:butt;stroke-linejoin:miter;stroke:#f1c63c;stroke-opacity:1;stroke-miterlimit:4" d="M413.897461 350.401587C417.894548 352.602881 420.698301 356.298738 424.695388 358.39576 427.997329 359.901909 430.499852 362.995306 434.195709 363.898995 436.304317 364.802684 438.505611 363.794723 440.602633 363.400808 443.904574 365.79906 448.20289 365.405144 451.898747 366.598477 451.701789 368.000354 451.400559 369.40223 451.203602 370.896793 452.396935 370.804107 453.601853 370.804107 454.795186 370.804107 456.000105 371.99744 457.100752 373.202359 458.398357 374.395692 458.699587 373.596275 459.499004 372.101712 459.904506 371.394981 462.800945 372.796857 465.604699 374.604236 468.095637 376.701258 466.299844 376.80553 464.504052 376.898216 462.696673 377.002487 465.604699 380.501386 467.504763 384.99666 466.404116 389.596206 464.202822 388.901061 462.094214 388.101643 459.997192 387.394912 460.599651 388.901061 461.399068 390.395624 461.897256 391.994458 461.399068 393.002419 460.402693 393.604878 459.603276 394.300024 459.302046 393.604878 458.595315 392.203002 458.305671 391.496271 456.405607 392.295688 454.401271 393.894522 452.199977 393.095105 451.400559 392.203002 450.7981 391.195041 450.102955 390.198666 451.898747 390.395624 453.694539 390.696853 455.501918 390.998083 455.397646 389.897436 455.200688 388.901061 455.096416 387.800414 458.398357 386.502809 460.796609 383.397826 464.504052 383.200868 462.997903 382.598409 461.50334 381.995949 459.997192 381.405075 459.800234 380.095885 459.499004 378.705594 459.302046 377.303717 455.397646 376.80553 451.597517 374.905465 447.600431 375.600611 447.600431 374.094462 447.704703 372.599899 447.797389 371.105337 444.796677 370.097376 442.00451 368.498541 440.695319 365.49783 436.698233 367.397894 435.701858 372.495628 431.797457 374.303006 430.499852 368.695499 426.595452 364.397183 423.096553 360.203139 422.20445 360.805598 421.30076 361.396472 420.397071 361.998931 419.898884 357.399385 416.098755 354.294402 413.897461 350.401587zm0 0" transform="matrix(0.33716,0,0,0.33716,-22.342489,-14.856118)"/><path style="fill-rule:evenodd;fill:#f1c63c;fill-opacity:1;stroke-width:.09375;stroke-linecap:butt;stroke-linejoin:miter;stroke:#f1c63c;stroke-opacity:1;stroke-miterlimit:4" d="M452.802436 365.694788C456.104377 365.103914 458.502629 367.594852 459.499004 370.398605 456.405607 370.502877 453.995769 368.498541 452.802436 365.694788zm0 0" transform="matrix(0.33716,0,0,0.33716,-22.342489,-14.856118)"/><path style="fill-rule:evenodd;fill:#f1c63c;fill-opacity:1;stroke-width:.09375;stroke-linecap:butt;stroke-linejoin:miter;stroke:#f1c63c;stroke-opacity:1;stroke-miterlimit:4" d="M437.694608 368.996729C441.494736 369.900418 445.097907 371.904754 447.299201 375.195109 448.701078 376.701258 446.499784 378.103134 445.097907 377.998863 441.40205 376.400028 438.204381 373.202359 437.694608 368.996729zm0 0" transform="matrix(0.33716,0,0,0.33716,-22.342489,-14.856118)"/><path style="fill-rule:evenodd;fill:#010101;fill-opacity:1;stroke-width:.09375;stroke-linecap:butt;stroke-linejoin:miter;stroke:#010101;stroke-opacity:1;stroke-miterlimit:4" d="M374.401613 370.896793C378.004783 370.502877 381.503682 370.502877 385.095267 370.502877 386.497144 372.402942 387.899021 374.395692 388.20025 376.701258 387.505105 376.701258 385.998956 376.701258 385.303811 376.596986 384.504393 375.299381 383.704976 374.001776 382.905559 372.704171 379.997534 372.599899 376.799864 373.005401 374.401613 370.896793zm0 0" transform="matrix(0.33716,0,0,0.33716,-22.342489,-14.856118)"/><path style="fill-rule:evenodd;fill:#f1c63c;fill-opacity:1;stroke-width:.09375;stroke-linecap:butt;stroke-linejoin:miter;stroke:#f1c63c;stroke-opacity:1;stroke-miterlimit:4" d="M434.496939 374.604236C438.401339 374.395692 441.205093 377.396403 442.201468 380.802616 443.394801 384.602745 446.499784 387.197954 448.295576 390.604167 446.997971 390.801125 445.596095 390.905397 444.29849 390.998083 443.302115 388.495559 441.205093 386.896725 439.003799 385.494848 439.895902 384.903974 440.799591 384.301515 441.795966 383.699055 437.404964 382.899638 434.705482 378.705594 434.496939 374.604236zm0 0" transform="matrix(0.33716,0,0,0.33716,-22.342489,-14.856118)"/><path style="fill-rule:evenodd;fill:#f1c63c;fill-opacity:1;stroke-width:.09375;stroke-linecap:butt;stroke-linejoin:miter;stroke:#f1c63c;stroke-opacity:1;stroke-miterlimit:4" d="M443.904574 381.995949C446.395512 380.895302 448.80535 379.597697 451.203602 378.300092 454.7025 378.705594 457.401982 381.602033 458.305671 384.903974 455.096416 385.59912 452.396935 383.699055 449.697453 382.100221 450.995058 384.197243 452.501206 386.201579 453.497582 388.402873 449.199265 388.901061 445.700367 385.59912 443.904574 381.995949zm0 0" transform="matrix(0.33716,0,0,0.33716,-22.342489,-14.856118)"/><path style="fill-rule:evenodd;fill:#f1c63c;fill-opacity:1;stroke-width:.09375;stroke-linecap:butt;stroke-linejoin:miter;stroke:#f1c63c;stroke-opacity:1;stroke-miterlimit:4" d="M470.099973 382.297179C474.502561 384.000285 473.795829 389.596206 476.298353 393.095105 473.100684 394.995169 468.895054 394.902483 465.500427 393.604878 463.994278 393.199377 463.403405 392.09873 463.704634 390.499895 465.894343 390.198666 468.00295 391.299313 469.995701 391.994458 469.300555 390.696853 468.698096 389.50352 468.095637 388.19433 469.601785 386.595495 469.694471 384.301515 470.099973 382.297179zm0 0" transform="matrix(0.33716,0,0,0.33716,-22.342489,-14.856118)"/><path style="fill-rule:evenodd;fill:#020100;fill-opacity:1;stroke-width:.09375;stroke-linecap:butt;stroke-linejoin:miter;stroke:#020100;stroke-opacity:1;stroke-miterlimit:4" d="M472.000037 401.297822C474.398289 401.297822 476.900813 401.599051 478.105731 404.101575 475.800166 403.800345 473.703143 402.80397 472.000037 401.297822zm0 0" transform="matrix(0.33716,0,0,0.33716,-22.342489,-14.856118)"/></g></svg>