<svg xmlns="http://www.w3.org/2000/svg" xmlns:xlink="http://www.w3.org/1999/xlink" width="225pt" height="150pt" viewBox="0 0 225 150"><g id="surface1"><path d="M0 0h225v150H0z" style="fill:#00a040;fill-opacity:1;stroke:none"/><path style="stroke:none;fill-rule:evenodd;fill:#fff;fill-opacity:1" d="M135.171875 21.394531C125.816406 17.4375 115.011719 21.820312 111.054688 31.175781 108.792969 36.519531 109.265625 42.332031 111.820312 47.074219c1.25 2.5 1.4375 5.515625.2656259999999975 8.289062000000001C109.960938 60.394531 104.148438 62.75 99.117188 60.621094 96.363281 59.457031 94.414062 57.1875 93.558594 54.546875 93.550781 54.527344 93.539062 54.511719 93.535156 54.492188 92.0625 49.308594 88.355469 44.808594 83.011719 42.546875 73.65625 38.589844 62.851562 42.972656 58.894531 52.328125 54.9375 61.683594 59.320312 72.488281 68.675781 76.445312 74.019531 78.707031 79.832031 78.230469 84.574219 75.679688 84.59375 75.667969 84.613281 75.664062 84.632812 75.65625 87.121094 74.429688 90.109375 74.25 92.863281 75.414062 97.894531 77.539062 100.25 83.351562 98.121094 88.382812 96.949219 91.15625 94.65625 93.121094 91.992188 93.964844 86.808594 95.4375 82.308594 99.144531 80.046875 104.488281 76.089844 113.84375 80.472656 124.648438 89.828125 128.605469 99.1875 132.5625 109.992188 128.179688 113.945312 118.824219 116.207031 113.480469 115.734375 107.667969 113.179688 102.925781c-1.25-2.5-1.4375-5.515625-.2656259999999975-8.289062000000001C115.042969 89.605469 120.851562 87.25 125.882812 89.378906 128.636719 90.542969 130.589844 92.8125 131.441406 95.453125 131.449219 95.472656 131.460938 95.488281 131.464844 95.507812 132.9375 100.691406 136.644531 105.191406 141.988281 107.453125 151.34375 111.410156 162.148438 107.027344 166.105469 97.671875 170.0625 88.3125 165.679688 77.507812 156.324219 73.554688 150.980469 71.292969 145.167969 71.769531 140.425781 74.320312 140.40625 74.332031 140.386719 74.335938 140.367188 74.34375 137.878906 75.570312 134.890625 75.75 132.136719 74.585938 127.105469 72.457031 124.75 66.648438 126.878906 61.617188 128.050781 58.84375 130.34375 56.878906 133.007812 56.035156 138.191406 54.5625 142.691406 50.855469 144.953125 45.511719 148.910156 36.15625 144.527344 25.351562 135.171875 21.394531zm0 0"/></g></svg>