<svg xmlns="http://www.w3.org/2000/svg" xmlns:xlink="http://www.w3.org/1999/xlink" width="225pt" height="150pt" viewBox="0 0 225 150"><g id="surface1"><path d="M0 0h225v150H0z" style="fill:#002868;fill-opacity:1;stroke:none"/><path style="stroke:none;fill-rule:nonzero;fill:#bf0a30;fill-opacity:1" d="M0 0H225V75H0zM0 0"/><path style="stroke:none;fill-rule:nonzero;fill:#fed700;fill-opacity:1" d="M112.5 75-9.25 11.101562-25 41.109375zm0 0"/><path style="stroke:none;fill-rule:nonzero;fill:#fed700;fill-opacity:1" d="M112.5 75 34.390625-38.160156 6.5-18.90625zm0 0"/><path style="stroke:none;fill-rule:nonzero;fill:#fed700;fill-opacity:1" d="M112.5 75 95.925781-61.496094 62.28125-57.414062zm0 0"/><path style="stroke:none;fill-rule:nonzero;fill:#fed700;fill-opacity:1" d="M112.5 75 234.25 11.101562 250 41.109375zm0 0"/><path style="stroke:none;fill-rule:nonzero;fill:#fed700;fill-opacity:1" d="M112.5 75 190.609375-38.160156 218.5-18.90625zm0 0"/><path style="stroke:none;fill-rule:nonzero;fill:#fed700;fill-opacity:1" d="M112.5 75 129.074219-61.496094 162.71875-57.414062zm0 0"/><path style="stroke:none;fill-rule:nonzero;fill:#ce5c17;fill-opacity:1" d="M112.5 37.5l24.367188 75L73.070312 66.148438h78.859376L88.132812 112.5zm0 0"/></g></svg>