<svg xmlns="http://www.w3.org/2000/svg" xmlns:xlink="http://www.w3.org/1999/xlink" width="250pt" height="150pt" viewBox="0 0 250 150"><g id="surface1"><path style="stroke:none;fill-rule:nonzero;fill:#fff;fill-opacity:1" d="M0 75H250v75H0zm0 0"/><path style="stroke:none;fill-rule:nonzero;fill:#e60000;fill-opacity:1" d="M0 0H250V75H0zM0 0"/><path style="stroke:none;fill-rule:nonzero;fill:#fff;fill-opacity:1" d="M87.621094 30.421875V62.074219C87.621094 72.617188 86.863281 83.746094 89.140625 92.277344 91.296875 100.347656 95.976562 106.753906 101.71875 111.421875 104.609375 113.769531 107.800781 115.75 111.742188 117.226562 115.621094 118.683594 120.046875 119.828125 125.082031 119.785156 135.144531 119.699219 142.78125 115.984375 148.441406 111.421875 154.1875 106.792969 158.8125 100.222656 160.882812 92.140625 163.074219 83.574219 162.402344 72.523438 162.402344 61.9375V30.214844H87.691406C87.609375 30.226562 87.613281 30.324219 87.621094 30.421875zm0 0"/><path style="stroke:none;fill-rule:nonzero;fill:#000;fill-opacity:1" d="M87.691406 30.214844h74.710938C162.402344 40.800781 162.398438 51.324219 162.402344 61.9375 162.402344 72.523438 163.074219 83.574219 160.882812 92.140625 158.8125 100.222656 154.1875 106.792969 148.441406 111.421875c-5.660156000000001 4.5625-13.296875 8.277344-23.363281 8.363281C120.046875 119.828125 115.621094 118.683594 111.742188 117.226562 107.800781 115.75 104.609375 113.769531 101.71875 111.421875 95.976562 106.753906 91.296875 100.347656 89.140625 92.277344 86.863281 83.746094 87.621094 72.617188 87.621094 62.074219V30.421875C87.613281 30.324219 87.609375 30.226562 87.691406 30.214844zM88.382812 31.320312V62.421875c0 7.765625-.2617180000000019 15.921875.34375 22.945313C88.925781 87.664062 89.460938 89.761719 90.039062 91.863281 91.183594 96.003906 92.792969 99.476562 94.738281 102.714844 95.710938 104.332031 96.960938 105.539062 98.265625 106.929688 99.546875 108.292969 100.804688 109.636719 102.203125 110.800781 104.941406 113.078125 108.332031 115.023438 112.085938 116.46875 115.867188 117.921875 120.261719 119.023438 125.078125 119.023438c4.867187000000001.0 9.183594-1.1523439999999994 12.925781-2.625C143.871094 114.085938 147.988281 110.964844 151.828125 106.929688 153.144531 105.546875 154.367188 104.257812 155.351562 102.644531 157.296875 99.457031 158.933594 95.851562 160.050781 91.796875 162.332031 83.511719 161.640625 72.636719 161.640625 62.28125V31.113281h-73.1875C88.371094 31.125 88.375 31.222656 88.382812 31.320312zm0 0"/><path style="stroke:none;fill-rule:nonzero;fill:#e60000;fill-opacity:1" d="M141.390625 44.933594C141.769531 45.375 141.859375 46.148438 141.808594 46.800781 141.589844 49.523438 139.890625 51.816406 137.039062 51.984375 136.789062 51.710938 136.578125 51.261719 136.828125 50.949219 137.078125 50.636719 137.800781 50.734375 138.074219 50.671875 140.3125 50.179688 141.675781 47.910156 141.390625 44.933594zM108.492188 50.601562C109.5 51.226562 110.496094 52.535156 112.15625 52.050781 112.78125 50.632812 111.238281 51.03125 110.289062 50.808594 109.453125 50.613281 108.46875 49.558594 108.011719 48.597656 107.53125 47.59375 107.390625 46.628906 107.316406 45.351562 106.691406 47.332031 107.664062 49.398438 108.492188 50.601562zm20.804687-15.066406C129.601562 36.246094 130.574219 36.289062 131.234375 36.640625 131.535156 36.933594 132.261719 37.773438 132.476562 37.675781 132.230469 36.199219 130.800781 34.476562 129.296875 35.535156zM127.707031 34.429688C126.199219 34.855469 124.277344 34.871094 123.765625 36.296875 123.132812 36.277344 122.894531 35.753906 123.007812 35.191406 123.296875 33.730469 126.308594 33.984375 127.707031 34.429688zM156.804688 64.496094C155.113281 62.820312 153.640625 60.636719 152.242188 58.066406 151.355469 56.433594 150.140625 54.625 149.203125 52.882812 148.710938 51.976562 148.261719 50.59375 147.335938 51.570312 148.699219 52.171875 148.894531 54.304688 146.921875 54.195312 147.1875 54.78125 147.824219 55.28125 147.613281 56.128906 149.691406 58.789062 152.046875 62.136719 154.453125 64.699219 155.953125 66.300781 157.296875 68.183594 160.191406 67.949219 159.859375 67.117188 159.246094 66.398438 158.738281 65.671875 155.003906 60.289062 151.878906 54.222656 148.648438 48.390625 148.5 48.703125 148.175781 48.84375 147.820312 48.941406 148.332031 49.292969 149.066406 49.96875 148.578125 50.878906 151.25 55.628906 154.136719 60.527344 157.078125 64.769531 157.078125 64.699219 157.023438 64.6875 157.011719 64.632812 156.929688 64.597656 156.855469 64.558594 156.804688 64.496094zM130.058594 34.566406C129.113281 35.988281 125.929688 34.78125 124.941406 36.085938 125.335938 36.351562 125.523438 36.824219 126.046875 36.917969 126.796875 37.054688 127.59375 36.488281 128.261719 36.363281 128.230469 36.027344 127.601562 36.289062 127.570312 35.949219 128.886719 35.179688 129.695312 37.015625 131.09375 37.054688 132.824219 38.089844 132.933594 40.746094 134.066406 42.378906 133.199219 42.34375 133.160156 41.484375 132.613281 41.136719 133.652344 43.796875 131.53125 46.640625 132.40625 48.941406 130.601562 48.769531 131.539062 46.316406 131.921875 45.28125 131.460938 45.304688 131.296875 46.21875 131.023438 46.664062 131.203125 48.84375 129.628906 50.175781 129.988281 52.539062 129.316406 53.039062 128.828125 53.828125 129.15625 54.957031 128.878906 54.910156 128.761719 55.023438 128.535156 55.023438 128.925781 53.800781 129.398438 51.851562 128.675781 50.671875 128.789062 52.652344 128.328125 54.53125 127.570312 55.855469 129.453125 54.90625 131.246094 55.769531 131.785156 57.375 132.074219 58.238281 132.085938 59.695312 132.128906 60.691406 132.3125 64.714844 131.488281 68.996094 131.09375 72.71875 130.984375 73.773438 130.898438 74.738281 130.953125 75.621094 131.144531 78.753906 133.292969 80.105469 133.996094 82.808594 133.542969 82.882812 133.328125 82.546875 132.960938 82.738281 132.523438 83.898438 132.382812 85.34375 131.992188 86.542969 131.710938 86.753906 131.671875 86.25 131.300781 86.335938 130.996094 86.449219 131.082031 86.949219 130.816406 87.09375 129.914062 86.523438 130.011719 85.050781 129.851562 83.777344 129.761719 83.074219 129.558594 82.390625 129.503906 81.773438 127.796875 80.664062 127.546875 83.402344 127.5 85.160156 127.414062 88.570312 128.691406 90.460938 131.644531 90.757812 132.921875 90.886719 134.015625 90.578125 134.550781 91.308594 134.699219 91.519531 134.667969 91.847656 134.753906 92.070312 134.976562 92.617188 135.445312 93.015625 135.449219 93.523438 134.683594 93.496094 134.03125 93.253906 133.234375 93.246094 132.578125 93.238281 132.027344 93.515625 131.4375 93.589844 129.582031 93.832031 127.832031 92.519531 127.570312 90.894531 128.726562 91.773438 131.003906 92.871094 132.820312 92.003906 133.292969 92.058594 133.371094 92.511719 133.925781 92.484375 133.703125 91.917969 132.453125 90.84375 131.785156 91.863281 128.835938 91.929688 127.472656 90.417969 126.738281 88.269531 126.65625 92.039062 128.164062 94.816406 129.640625 97.253906 132.457031 100.515625 140.746094 98.761719 143.257812 102.507812 143.890625 103.453125 144.363281 105.183594 144.085938 106.859375 143.699219 109.1875 142.191406 110.539062 139.523438 110.730469 141.1875 109.652344 143.078125 108.796875 142.914062 105.890625 142.753906 103.140625 140.210938 101.765625 137.660156 101.191406 137.609375 103.011719 140.347656 103.988281 140.90625 105.546875 141.128906 106.15625 141.109375 106.910156 140.421875 107.070312 139.734375 106.664062 139.25 105.992188 138.628906 105.476562 136.746094 103.925781 134.308594 102.8125 131.992188 101.609375 128.8125 99.953125 126.851562 97.554688 126.253906 93.316406 126.074219 96.691406 126.769531 100.199219 128.328125 102.230469 129.539062 103.808594 131.953125 103.683594 133.648438 104.925781 133.960938 105.152344 134.289062 105.488281 134.203125 106.03125 134.039062 106.261719 133.53125 106.140625 133.167969 106.171875 133.695312 107.347656 135.050781 107.691406 135.863281 108.589844 130.546875 107.734375 127.894531 104.207031 125.773438 100.15625 125.757812 103.566406 125.550781 107.078125 126.738281 109.351562 127.101562 110.039062 127.628906 110.546875 128.050781 111.355469 128.308594 111.847656 128.328125 112.921875 127.984375 113.359375 127.53125 113.59375 126.894531 113.707031 126.253906 113.566406 126.109375 114.566406 125.597656 115.578125 125.078125 115.984375 124.804688 115.871094 124.558594 115.496094 124.390625 115.226562 124.09375 114.753906 123.859375 114.34375 123.835938 113.566406 122.378906 113.941406 121.40625 113.089844 121.898438 111.699219 122.097656 111.144531 122.640625 110.730469 122.9375 110.175781 124.292969 107.65625 124.441406 103.714844 124.253906 99.742188 122.265625 103.792969 119.398438 106.960938 114.503906 108.105469 115.296875 107.398438 116.308594 106.914062 116.925781 106.03125 116.441406 105.78125 115.785156 105.878906 115.820312 105.132812 115.886719 103.691406 119.457031 103.902344 120.585938 103.265625 122.273438 102.316406 123.191406 98.996094 123.421875 96.703125 123.523438 95.65625 123.46875 94.800781 123.488281 93.589844 123.050781 94.660156 122.96875 95.71875 122.59375 96.632812 120.375 102.003906 112.863281 102.261719 109.53125 106.65625 108.917969 106.273438 109.199219 105.023438 109.390625 104.648438 110.046875 103.359375 112.398438 102.390625 112.707031 100.640625 110.585938 100.875 108.648438 101.949219 107.871094 103.613281 107.148438 105.152344 107.5625 107.128906 108.5625 108.242188 109.234375 108.988281 110.164062 109.332031 110.84375 109.96875 107.734375 110.011719 105.667969 108.011719 106.003906 104.71875 106.164062 103.183594 107.148438 101.40625 108.355469 100.640625 109.496094 99.917969 111.171875 99.640625 112.570312 99.394531 114.257812 99.097656 116.117188 99.289062 117.824219 98.703125 120.605469 97.753906 121.878906 94.734375 122.664062 91.796875 122.949219 90.710938 123.242188 89.707031 123.214844 88.269531 122.222656 90.261719 120.398438 92.011719 117.339844 91.308594 116.976562 91.613281 116.738281 92.046875 116.511719 92.484375 116.921875 92.453125 116.976562 92.074219 117.269531 91.933594 119.523438 92.863281 121.390625 91.164062 122.453125 90.273438 122.097656 92.550781 120.59375 93.933594 118.171875 93.589844 117.941406 93.558594 117.683594 93.386719 117.410156 93.382812 116.460938 93.371094 115.859375 94.1875 114.988281 94.074219 114.980469 93.570312 115.363281 93.441406 115.542969 93.039062 115.898438 92.234375 115.796875 91.125 116.789062 90.824219 117.429688 90.632812 118.113281 90.796875 118.652344 90.757812 120.027344 90.652344 121.488281 90.226562 122.109375 89.167969 123.210938 87.289062 122.882812 84.070312 122.246094 81.566406 122.128906 81.566406 122.066406 81.511719 122.039062 81.425781 119.34375 81.128906 120.859375 86.46875 118.929688 87.023438 118.6875 86.945312 118.878906 86.429688 118.652344 86.332031 118.230469 86.300781 118.484375 86.949219 118.101562 86.953125 117.480469 86.351562 118.328125 85.050781 117.339844 84.953125 116.707031 84.886719 116.558594 85.765625 115.683594 85.363281 115.386719 83.371094 116.886719 82.203125 117.753906 80.804688 118.378906 79.800781 118.960938 78.765625 119.066406 77.210938 119.449219 71.640625 116.738281 66.582031 117.132812 60.207031 117.21875 58.789062 117.570312 57.792969 117.960938 56.476562 118.644531 56.050781 119.363281 55.664062 120.585938 55.785156 120.816406 55.023438 120.859375 54.074219 121.140625 53.367188 121.65625 53.097656 122.671875 53.328125 123.144531 53.019531c-.578125-.296875-1.71875-.03125-2.4179689999999994-.203125C121.457031 52.324219 122.539062 52.183594 123.558594 51.984375 123.261719 51.589844 122.308594 51.855469 121.695312 51.777344 122.695312 50.246094 123.542969 48.554688 125.496094 47.976562 124.476562 47.65625 122.871094 47.925781 121.625 47.835938 122.632812 46.171875 126.058594 46.925781 126.601562 44.796875 126.703125 44.4375 126.460938 43.734375 126.949219 43.761719 127.050781 44.191406 126.578125 45.230469 126.460938 45.902344 127.421875 45.664062 127.261719 43.703125 128.261719 43.273438 128.425781 43.664062 128.324219 44.316406 128.46875 44.726562 128.792969 43.691406 128.996094 42.171875 129.78125 41.824219 130 42.40625 129.628906 42.890625 129.640625 43.484375 130.839844 42.441406 130.058594 39.65625 129.363281 38.921875 129.734375 38.808594 130.261719 38.851562 130.609375 38.714844 128.824219 38.574219 127.460938 37.3125 125.773438 37.054688 125.074219 36.949219 124.730469 36.894531 124.253906 36.503906 124.5625 35.203125 126.257812 35.335938 127.5 34.984375 127.78125 34.902344 128.050781 34.625 128.328125 34.566406 128.914062 34.449219 129.53125 34.660156 130.058594 34.566406zM92.667969 35.46875C95.320312 36.050781 98.363281 36.234375 101.71875 36.085938 104.265625 35.976562 106.765625 36.039062 108.632812 36.917969 109.65625 37.882812 110.566406 40.09375 109.808594 41.960938 109.699219 41.15625 109.882812 39.582031 108.976562 39.199219 109.351562 40.46875 109.351562 42.21875 108.699219 43.277344 107.980469 44.449219 106.257812 44.785156 105.175781 45.488281 105.136719 45.761719 105.554688 45.570312 105.453125 45.902344 105.871094 53.0625 109.679688 56.832031 116.925781 57.167969 116.976562 57.539062 116.871094 57.757812 116.789062 57.996094 112.707031 58.035156 109.726562 56.773438 107.664062 54.40625c-2.0625-2.375-3.277343000000002-6.3125-2.625-10.230469C107.46875 44.898438 107.796875 41.417969 105.589844 41.617188 106.582031 39.675781 103.503906 38.800781 103.035156 40.441406 103.121094 40.839844 103.207031 41.234375 103.308594 41.617188 101.121094 41.144531 101.546875 44.75 103.515625 44.175781 103.425781 54.058594 107.929688 59.34375 116.578125 60.484375 117.105469 63.457031 117.226562 67.128906 116.925781 70.714844 116.765625 72.601562 116.6875 74.503906 116.511719 75.96875c-.15625 1.2851560000000006-.703125 3.4375-2.28125 2.765625C113.171875 77.195312 113.066406 74.796875 112.847656 72.511719 112.625 70.183594 112.34375 67.878906 111.671875 66.085938 111.871094 74.023438 110.726562 82.796875 106.765625 86.816406 106.078125 87.515625 105.039062 88.03125 103.796875 88.0625c1.359375-7.828125 2.3242189999999994-16.351562 2-25.640625C106.863281 63.160156 107.925781 62.324219 108.425781 61.523438 108.8125 64.023438 108.171875 66.367188 107.941406 68.78125 107.476562 73.617188 107.410156 78.683594 106.421875 83.085938 106.988281 82.621094 106.96875 81.789062 107.113281 81.082031 108.101562 76.128906 108.128906 69.558594 108.90625 64.289062 109.453125 64.632812 110.078125 64.644531 110.636719 64.425781 111.183594 64.207031 111.398438 63.664062 111.742188 63.59375 111.871094 64.859375 112.363281 66.015625 113.953125 65.601562 114.78125 68.253906 113.929688 73.03125 114.230469 76.3125 114.789062 73.242188 115.148438 68.566406 114.300781 65.53125 115.070312 64.542969 116.316406 63.316406 115.886719 61.589844 115.109375 62.925781 115.039062 65.648438 112.710938 64.976562 112.503906 64.519531 112.28125 64.121094 112.226562 63.527344 112.128906 62.46875 112.925781 61.199219 112.15625 60.761719 111.742188 61.554688 111.671875 63.058594 110.984375 63.664062 109.601562 64.882812 108.851562 63.300781 108.976562 61.660156 109.042969 60.796875 109.578125 59.746094 108.976562 59.449219 108.21875 60.253906 108.09375 62.324219 106.558594 62.144531 105.984375 62.078125 105.695312 61.511719 105.796875 60.691406 105.9375 59.601562 107 58.5 106.835938 57.859375 106.273438 57.933594 106.035156 58.699219 105.523438 59.101562 105.082031 59.453125 104.507812 59.71875 103.726562 59.515625 103.234375 58.757812 103.765625 58.109375 104.140625 57.582031 104.527344 57.03125 105.136719 56.539062 105.175781 55.992188 104.371094 55.753906 103.089844 57.566406 102.066406 56.476562 102.082031 54.996094 103.421875 54.835938 104.003906 53.921875 103.671875 53.414062 101.53125 54.984375 101.167969 53.78125 100.839844 52.695312 102.636719 52.320312 103.171875 51.707031 102.246094 51.488281 100.773438 51.636719 100.683594 50.808594 100.578125 49.808594 102.125 50.101562 102.757812 49.566406 102.613281 49.050781 101.871094 49.355469 101.445312 49.21875 101.035156 49.089844 100.640625 48.734375 100.683594 48.390625 100.765625 47.6875 101.929688 48.003906 102.480469 47.628906 102.121094 47.058594 101.128906 47.378906 100.753906 47.628906 100.421875 47.851562 100.4375 48.109375 100.199219 48.460938 99.515625 49.46875 98.386719 50.6875 97.230469 51.777344 95.464844 53.4375 93.351562 55.347656 90.386719 53.921875 93.179688 50.699219 96.703125 48.210938 99.300781 44.796875 96.503906 45.84375 90.523438 47.316406 90.039062 43.207031 93.9375 42.359375 97.75 41.425781 101.167969 40.097656 97.050781 39.835938 92.867188 39.644531 92.667969 35.46875zM100.753906 37.054688C101.070312 37.289062 101.550781 37.363281 101.71875 37.746094 99.003906 37.9375 96.148438 37.40625 94.117188 36.917969 96.308594 37.867188 99.894531 38.34375 102.894531 37.816406 102.519531 37.664062 102.132812 37.515625 101.925781 37.195312 102.417969 36.898438 103.296875 36.996094 103.863281 36.78125 102.957031 36.738281 101.671875 36.886719 100.753906 37.054688zM100.40625 42.171875C100.398438 42.085938 100.386719 42.007812 100.269531 42.03125 97.476562 43.015625 94.589844 43.90625 91.007812 44.105469 94.878906 44.464844 97.601562 43.101562 100.40625 42.171875zM97.921875 48.183594C96.816406 49.488281 95.457031 50.765625 94.1875 51.847656 93.746094 52.222656 93.242188 52.511719 92.941406 52.953125 95.433594 51.273438 97.578125 49.25 99.371094 46.871094 98.746094 47.164062 98.613281 47.957031 97.921875 48.183594zM89.902344 68.917969C92.433594 68.738281 93.886719 66.738281 95.226562 65.183594 96.953125 63.175781 98.746094 61.09375 99.992188 58.757812 100.828125 58.253906 101.199219 57.171875 101.582031 56.199219 101.816406 55.605469 102.199219 55.058594 102.136719 54.679688 100.175781 54.816406 100.453125 52.703125 101.71875 52.050781 101.4375 51.96875 101.238281 51.796875 100.890625 51.777344 97.992188 56.367188 95.996094 62.226562 92.320312 65.808594 95.34375 61.296875 97.996094 56.414062 100.40625 51.292969 100.335938 51.066406 100.199219 50.902344 100.199219 50.601562 100.410156 50.144531 100.75 49.816406 101.167969 49.566406 100.765625 49.460938 100.53125 49.1875 100.199219 49.011719 97.066406 55.949219 93.460938 62.40625 89.902344 68.917969zM146.714844 60.691406C148.0625 65.375 149.539062 70.136719 151.203125 74.515625 151.878906 76.289062 152.894531 77.953125 153.140625 79.90625 151.507812 76.898438 150.328125 73.550781 149.132812 70.164062 147.925781 66.738281 146.902344 63.140625 146.09375 59.378906 145.484375 59.726562 144.457031 59.574219 143.878906 59.308594 143.878906 61.886719 144.648438 64.164062 145.46875 66.292969 147.457031 71.4375 149.03125 77.136719 151.550781 81.703125 152.84375 84.042969 154.351562 86.3125 157.425781 86.402344 155.621094 81.90625 153.15625 77.03125 152.105469 71.542969 151.746094 69.667969 151.523438 67.703125 151.066406 65.808594 150.808594 64.746094 150.34375 63.601562 149.960938 62.488281 149.171875 60.195312 148.277344 58.273438 146.988281 56.683594 146.601562 57.03125 145.820312 56.621094 145.46875 56.753906 146.34375 57.660156 146.308594 59.28125 146.714844 60.691406zM102.203125 57.308594C102.199219 57.265625 102.195312 57.226562 102.136719 57.238281 100.742188 59.386719 99.753906 61.488281 99.09375 64.21875 98.199219 67.921875 97.90625 72.832031 96.816406 76.519531 95.738281 80.148438 94.011719 83.878906 92.941406 87.371094 93.484375 87.3125 93.894531 87.125 94.464844 87.09375 96.53125 86.148438 97.613281 84.21875 98.542969 82.1875 101.351562 76.023438 103.550781 68.824219 105.523438 62.003906 105.183594 61.457031 105.316406 60.390625 105.453125 59.726562 104.835938 60.078125 104.113281 60.214844 103.308594 59.933594 102.011719 66.425781 100.15625 72.691406 97.988281 78.316406 97.679688 79.113281 97.535156 80.046875 96.882812 80.667969 98.53125 75.425781 100.359375 69.996094 101.789062 64.632812 102.042969 63.6875 102.226562 62.734375 102.480469 61.796875 102.753906 60.796875 102.835938 59.871094 103.035156 58.828125 103.15625 58.183594 103.621094 57.539062 103.585938 57.238281 103.128906 57.316406 102.683594 57.433594 102.203125 57.308594zm53.773437-22.671875C155.824219 38.632812 151.761719 39.316406 147.472656 39.40625 150.894531 40.84375 154.960938 41.640625 159.292969 42.171875 158.914062 46.050781 152.636719 45.457031 149.546875 44.175781 152.242188 47.328125 155.835938 50.191406 159.222656 52.882812 158.375 53.738281 156.574219 53.765625 155.558594 53.503906 154.414062 53.207031 153.304688 52.234375 152.308594 51.363281 150.964844 50.183594 149.847656 49.3125 148.925781 47.976562 148.46875 47.316406 147.621094 46.386719 146.503906 47.007812 146.746094 47.554688 148.140625 47.054688 148.300781 47.769531 148.558594 48.910156 146.703125 48.332031 146.300781 49.148438 147.011719 49.546875 148.523438 49.136719 148.300781 50.464844 147.851562 51.003906 146.835938 50.976562 146.023438 51.15625 146.261719 52.023438 148.128906 51.855469 147.957031 53.367188 147.292969 54.222656 145.800781 53.21875 145.191406 53.433594 145.738281 54.320312 147.757812 54.886719 146.921875 56.269531 145.820312 56.503906 144.925781 55.605469 144.15625 55.511719 143.898438 56.140625 145.078125 56.71875 145.539062 57.511719 145.816406 57.992188 146.066406 58.851562 145.539062 59.171875 143.859375 59.351562 143.484375 57.863281 142.496094 57.582031 142.34375 57.9375 142.738281 58.394531 142.980469 58.828125 143.386719 59.550781 143.949219 60.523438 143.394531 61.660156 141.519531 62.226562 141.246094 60.109375 140.421875 59.171875 139.816406 59.363281 140.3125 60.046875 140.421875 60.625 140.628906 61.703125 140.578125 63.058594 140.078125 63.734375 137.96875 64.109375 137.890625 61.929688 137.3125 60.554688 136.648438 61.019531 137.300781 62.164062 137.3125 63.113281 137.324219 63.886719 137.152344 64.425781 136.761719 64.910156 134.464844 65.28125 134.457031 62.796875 133.582031 61.523438 133.265625 63.425781 134.433594 64.449219 135.308594 65.390625 134.550781 68.757812 135.085938 73.011719 135.726562 76.175781 135.824219 72.851562 135.109375 69.078125 135.585938 65.601562 137.121094 65.65625 137.8125 64.878906 137.726562 63.320312 138.242188 64.042969 139.789062 64.640625 140.628906 64.011719 141.519531 68.398438 141.628906 73.5625 142.496094 77.902344 142.832031 79.585938 142.890625 81.351562 143.742188 82.671875 142.488281 76.183594 141.671875 68.664062 140.976562 61.386719 141.359375 61.308594 141.796875 62.289062 142.566406 62.351562 142.984375 62.386719 143.3125 62.171875 143.601562 62.074219 143.820312 71.375 144.863281 79.84375 146.644531 87.578125 144.925781 87.796875 143.976562 86.648438 142.980469 85.921875 139.492188 81.066406 137.726562 74.496094 138.140625 65.738281 137.824219 66.164062 137.796875 66.78125 137.660156 67.328125 137.070312 69.660156 136.757812 72.269531 136.621094 75.34375c-.046875 1.09375-.109375 2.203125-.484375 3.109375C135.847656 78.679688 135.238281 78.847656 134.757812 78.664062 133.261719 76.917969 133.308594 74.257812 133.027344 71.40625 132.90625 70.171875 132.605469 68.863281 132.546875 67.535156 132.433594 65.136719 132.53125 62.625 132.824219 60.554688 140.867188 59.015625 145.613281 54.183594 145.261719 44.246094 147.253906 44.601562 147.621094 41.050781 145.261719 41.546875 146.804688 38.960938 141.453125 38.90625 142.914062 41.546875 140.59375 41.472656 141.539062 45.101562 143.742188 44.175781 144 45.136719 144.179688 46.050781 144.085938 47.214844 143.566406 53.71875 139.296875 57.886719 132.476562 57.996094 132.398438 57.753906 132.398438 57.425781 132.335938 57.167969 139.410156 56.683594 143.164062 52.878906 143.394531 45.558594 143.367188 45.320312 143.417969 45.164062 143.671875 45.210938 141.535156 44.125 139.117188 43.3125 139.457031 39.890625 139.488281 39.550781 139.5625 39.253906 139.734375 38.921875 138.996094 38.992188 138.628906 40.816406 139.113281 41.6875 139.09375 41.863281 138.992188 41.59375 138.835938 41.6875 137.933594 38.203125 139.523438 35.894531 142.773438 35.671875 144.691406 35.542969 147 35.632812 149.203125 35.535156 151.792969 35.421875 154.179688 34.921875 155.976562 34.636719zM153.832031 36.363281C154.035156 36.269531 154.601562 35.96875 154.175781 36.085938 152.246094 36.851562 149.363281 37.398438 146.851562 37.125 146.996094 36.71875 147.558594 36.730469 147.75 36.363281 146.890625 36.210938 145.75 36.335938 144.777344 36.296875 144.6875 36.289062 144.277344 36.285156 144.5 36.363281H145.054688C145.5625 36.457031 146.144531 36.472656 146.644531 36.574219 146.394531 36.945312 145.949219 37.121094 145.675781 37.46875 148.796875 37.542969 151.855469 37.296875 153.832031 36.363281zM148.578125 41.480469C148.460938 41.460938 148.40625 41.558594 148.578125 41.546875 151.128906 42.480469 154.378906 43.734375 157.839844 43.070312 154.34375 43.199219 151.40625 42.246094 148.578125 41.480469zM156.183594 51.984375C153.710938 50.355469 151.535156 48.0625 149.476562 46.246094 151.347656 48.480469 153.601562 50.699219 156.183594 51.984375zm0 0"/><path style="stroke:none;fill-rule:nonzero;fill:#fde44a;fill-opacity:1" d="M133.996094 83.914062C136.023438 87.324219 138.230469 90.554688 140.21875 94.003906 141.421875 94.128906 142.234375 94.023438 142.773438 93.246094 143.128906 92.734375 143.070312 91.933594 143.398438 91.449219 143.953125 90.621094 145.695312 90.789062 146.644531 91.242188 146.648438 91.902344 145.273438 91.980469 144.984375 91.515625 144.636719 91.578125 144.414062 91.773438 144.085938 91.863281 144.152344 92.203125 144.441406 92.324219 144.296875 92.691406 144.105469 92.800781 143.878906 92.875 143.601562 92.898438 143.535156 93.546875 143.183594 93.910156 142.84375 94.28125 144.425781 95.414062 145.910156 93.734375 147.335938 93.730469 148.515625 93.726562 149.097656 94.953125 150.582031 94.558594 150.5625 94.789062 150.511719 94.996094 150.378906 95.113281 150.601562 95.742188 151.371094 95.824219 151.550781 96.492188 150.867188 97.269531 150.136719 96.136719 149.960938 95.527344 149.195312 95.628906 148.953125 95.199219 148.441406 95.042969 148.414062 95.886719 147.226562 95.90625 147.265625 94.976562 145.464844 95.082031 143.300781 96.347656 141.875 95.25 141.898438 95.777344 142.539062 95.957031 142.984375 96.21875 143.410156 96.46875 143.988281 96.753906 144.363281 97.046875 144.597656 97.234375 144.726562 97.523438 144.984375 97.671875 145.371094 97.886719 145.910156 97.835938 146.09375 98.289062 145.789062 98.875 146.375 99.542969 146.09375 99.882812 145.089844 100.046875 145.289062 98.429688 144.15625 98.496094 143.902344 97.253906 142.285156 97.375 141.667969 96.496094 141.058594 96.4375 140.324219 96.5 140.148438 96.011719 139.617188 96.101562 139.234375 96.289062 138.699219 96.355469 138.171875 96.421875 137.578125 96.203125 137.105469 96.289062 136.382812 96.414062 135.644531 97.691406 134.894531 96.769531 135.253906 96.203125 136.136719 96.167969 136.347656 95.457031 137.273438 95.417969 138.128906 95.308594 138.972656 95.179688 139.4375 94.808594 138.859375 94.121094 138.488281 93.523438 136.816406 90.824219 134.46875 88.148438 132.824219 85.640625 132.878906 84.730469 133.046875 83.933594 133.996094 83.914062zM145.539062 90.414062C145.65625 90.523438 145.789062 90.621094 146.023438 90.621094 146.128906 90.378906 146.679688 90.003906 146.367188 89.789062 146.125 90.03125 145.5625 89.953125 145.539062 90.414062zM150.859375 95.179688C150.9375 95.195312 150.96875 95.257812 150.996094 95.320312 151.480469 95.179688 151.960938 95.039062 152.171875 94.628906 151.730469 94.128906 150.84375 94.449219 150.859375 95.179688zM135.792969 95.59375C135.890625 95.484375 136.039062 95.425781 136 95.179688 135.949219 95.164062 135.921875 95.121094 135.933594 95.042969 135.003906 94.652344 134.976562 95.566406 135.792969 95.59375zM146.503906 98.984375C146.808594 99.074219 147.148438 99.121094 147.542969 99.121094 147.636719 98.472656 146.421875 98.054688 146.503906 98.984375zm0 0"/><path style="stroke:none;fill-rule:nonzero;fill:#fde44a;fill-opacity:1" d="M117.273438 86.539062C115.734375 88.945312 113.238281 91.484375 111.257812 93.9375 111.089844 94.144531 110.488281 94.824219 110.566406 95.113281 110.78125 95.914062 112.59375 95.167969 113.261719 95.386719 113.457031 95.699219 113.597656 96.066406 113.816406 96.355469 114.027344 96.464844 114.441406 96.371094 114.4375 96.703125 114.023438 97.378906 113.015625 96.71875 112.710938 96.425781 112.367188 96.476562 112.023438 96.519531 111.605469 96.492188 111.0625 95.832031 109.710938 96.316406 108.839844 96.355469 108.59375 97.003906 108.058594 97.371094 107.25 97.460938 106.726562 98.390625 106.078125 99.191406 104.828125 99.398438 104.457031 100.164062 104.601562 101.78125 103.515625 101.609375 103.558594 100.960938 104.222656 99.976562 103.378906 99.464844 104.648438 98.15625 106.46875 97.394531 107.386719 95.734375 106.414062 95.464844 105.039062 95.59375 104.210938 95.179688 103.945312 95.640625 103.183594 96.03125 102.964844 95.25 102.289062 95.355469 101.921875 95.773438 101.238281 95.871094 100.871094 96.246094 100.835938 96.949219 100.40625 97.253906 98.773438 97.488281 99.425781 96.113281 100.132812 95.800781 100.238281 95.425781 99.890625 95.265625 100.0625 95.042969 100.386719 94.796875 100.617188 94.96875 100.890625 94.90625 101.738281 94.710938 102.320312 93.835938 103.101562 93.796875 103.683594 93.769531 104.578125 94.167969 105.246094 94.351562 105.914062 94.535156 106.570312 94.875 107.386719 94.699219 106.664062 94.269531 107.019531 92.761719 105.9375 92.691406 105.816406 92.492188 105.914062 92.074219 105.730469 91.933594 105.234375 91.859375 104.308594 92.195312 103.933594 91.726562 103.550781 91.804688 103.011719 92.351562 102.6875 91.863281 102.789062 91.179688 103.578125 91.191406 103.933594 90.757812 104.898438 91.171875 106.234375 91.21875 107.042969 91.796875 107.476562 92.910156 108.300781 95.636719 109.601562 94.074219 110.121094 93.453125 110.554688 92.664062 111.121094 91.933594 112.566406 90.066406 114.542969 87.511719 115.890625 85.851562 115.878906 85.789062 115.914062 85.785156 115.957031 85.78125 116.222656 85.679688 116.617188 85.976562 116.996094 85.988281 117.046875 86.210938 117.140625 86.398438 117.273438 86.539062zM103.238281 90.828125C103.359375 90.71875 103.492188 90.617188 103.449219 90.34375 103.105469 90.203125 102.746094 90.078125 102.273438 90.066406 102.398438 90.515625 102.738281 90.753906 103.238281 90.828125zM114.644531 95.113281C114.578125 95.433594 114.335938 95.585938 113.953125 95.59375 113.625 95.15625 114.300781 94.878906 114.644531 95.113281zM99.648438 95.25C99.96875 95.867188 99.175781 96.058594 98.679688 95.871094 98.742188 95.363281 99.132812 95.113281 99.648438 95.25zM103.308594 99.878906c-.007812999999998738.22265600000000063.1875.234375.140625.484375C103.070312 100.539062 102.726562 100.746094 102.34375 100.917969 102.273438 100.183594 102.664062 99.902344 103.308594 99.878906zm0 0"/><path style="stroke:none;fill-rule:nonzero;fill:#fde44a;fill-opacity:1" d="M145.054688 40.167969C145.359375 40.765625 145.054688 41.351562 144.847656 41.824219 147.265625 41.15625 147.105469 44.613281 144.847656 43.96875 145.519531 53.378906 141.109375 58.886719 132.753906 59.726562 132.679688 59.359375 132.578125 59.023438 132.546875 58.621094 135.90625 58.160156 138.863281 57.234375 140.976562 55.234375 143.449219 52.890625 145.171875 48.238281 143.878906 43.828125 142.949219 44.246094 141.289062 43.683594 141.875 42.171875 142.171875 41.914062 142.558594 41.746094 143.191406 41.824219 142.292969 40.652344 143.703125 39.183594 145.054688 40.167969zm0 0"/><path style="stroke:none;fill-rule:nonzero;fill:#fde44a;fill-opacity:1" d="M104.691406 43.761719C103.664062 52.398438 108.226562 58.269531 116.578125 58.484375 116.671875 58.804688 116.648438 59.238281 116.648438 59.65625 112.625 59.796875 109.253906 57.90625 107.25 55.648438 105.277344 53.425781 104.28125 50.253906 103.933594 46.871094 103.832031 45.90625 103.878906 44.894531 103.933594 43.898438 102.121094 44.691406 101.355469 41.625 103.585938 41.824219 103.546875 41.558594 103.222656 40.863281 103.449219 40.304688 104.53125 39.128906 106.355469 40.789062 105.109375 41.894531 107.585938 41.351562 106.921875 44.984375 104.691406 43.761719zm0 0"/><path style="stroke:none;fill-rule:nonzero;fill:#e60000;fill-opacity:1" d="M128.191406 41.339844C128.164062 41.867188 127.71875 41.976562 127.292969 42.101562 127.390625 41.644531 127.496094 41.199219 128.191406 41.339844zM127.570312 40.371094C127.816406 40.472656 128.140625 40.492188 128.398438 40.578125 128.308594 39.542969 127.832031 38.886719 126.949219 38.644531 127.195312 39.179688 127.519531 39.640625 127.570312 40.371094zm0 0"/><path style="stroke:none;fill-rule:nonzero;fill:#fde44a;fill-opacity:1" d="M122.523438 42.585938C124.296875 41.734375 127.695312 43.539062 128.605469 41.6875 128.902344 41.082031 128.769531 40.113281 128.605469 39.683594 128.015625 38.136719 125.085938 37.21875 123.488281 38.371094 122.328125 37.277344 119.375 37.335938 119.066406 39.128906 118.375 37.515625 119.773438 36.320312 121.210938 36.15625 121.53125 35.839844 121.761719 34.753906 122.523438 35.328125 122.851562 37.308594 125.265625 37.097656 127.085938 37.816406 128.121094 38.226562 129.457031 39.222656 129.640625 40.167969 129.847656 41.203125 129.175781 42.277344 128.605469 42.726562 127.074219 43.921875 124.078125 43.164062 122.523438 42.585938zm0 0"/><path style="stroke:none;fill-rule:nonzero;fill:#e60000;fill-opacity:1" d="M127.914062 40.859375C125.292969 40.601562 121.824219 40.699219 119.484375 41.339844 121.421875 40.042969 125.410156 40.105469 127.914062 40.859375zm0 0"/><path style="stroke:none;fill-rule:nonzero;fill:#000;fill-opacity:1" d="M130.746094 34.773438C133.601562 35.816406 132.464844 41.214844 134.824219 42.515625 134.480469 42.699219 133.832031 42.582031 133.441406 42.722656 133.46875 44.308594 132.261719 46.050781 132.476562 47.628906 132.558594 48.226562 133.039062 48.515625 133.097656 49.011719 132.585938 49.496094 131.789062 49.109375 131.234375 48.875 130.53125 49.828125 129.835938 52.0625 130.886719 53.160156 130.140625 53.082031 129.691406 53.296875 129.433594 53.710938 129.15625 55.003906 130.207031 54.878906 130.886719 55.371094 131.453125 55.785156 131.578125 56.234375 131.992188 56.613281 138.746094 56.75 143.078125 52.460938 142.84375 45.558594 142.695312 45.292969 142.320312 45.253906 142.015625 45.140625 142.101562 47.003906 141.882812 48.785156 140.976562 50.117188 140.449219 50.898438 139.203125 51.796875 138.558594 52.050781 137.558594 52.449219 135.984375 52.359375 136.484375 50.808594 137.734375 50.378906 139.199219 50.164062 140.011719 49.289062 140.207031 48.636719 140.691406 48.140625 140.90625 47.355469 141.078125 46.734375 141.335938 45.523438 141.113281 44.796875 141.023438 44.492188 139.820312 43.589844 139.527344 43.273438 138.746094 42.441406 137.9375 41.429688 138.074219 39.613281 138.164062 38.421875 138.578125 37.230469 139.316406 36.503906 140.785156 35.066406 143.800781 35.308594 146.507812 35.191406 150.105469 35.03125 153.421875 34.925781 156.320312 34.085938 156.347656 38.191406 153.175781 39.09375 149.683594 39.683594 150.226562 40.140625 151.039062 40.304688 151.761719 40.511719 154.171875 41.203125 157.003906 41.542969 159.914062 41.894531 159.308594 45.414062 154.976562 46.191406 151.066406 45.074219 153.441406 47.976562 156.664062 50.628906 159.914062 52.882812 159.21875 53.609375 158.257812 54.046875 157.011719 54.058594 154.058594 54.078125 152.273438 51.625 150.378906 50.464844 153.425781 56.652344 156.84375 62.472656 160.605469 67.949219 157.878906 68.878906 156.011719 66.78125 154.59375 65.253906 153.738281 64.335938 152.871094 63.421875 152.105469 62.488281 150.421875 60.445312 148.972656 58.246094 147.476562 56.613281 148.695312 58.667969 150.058594 60.75 150.792969 63.386719 151.519531 66.015625 151.957031 68.921875 152.519531 71.820312 153.601562 77.410156 156.25 81.992188 157.910156 86.816406 156.460938 86.671875 154.828125 86.496094 153.902344 85.710938 153.339844 85.238281 152.691406 84.246094 152.171875 83.5 148.523438 78.253906 146.648438 70.300781 144.15625 64.011719 143.984375 65.011719 144.175781 66.109375 144.226562 67.191406 144.300781 68.871094 144.246094 70.617188 144.433594 72.234375 145.082031 77.839844 146.011719 83.351562 147.058594 88.199219 142.808594 87.878906 141.035156 84.246094 139.734375 80.667969 138.382812 76.953125 137.515625 73.070312 137.796875 68.296875 136.648438 71.136719 137.335938 75.804688 136.277344 78.734375 135.878906 78.953125 135.359375 79.054688 134.6875 79.007812 132.433594 76.789062 132.980469 71.773438 132.199219 68.085938 131.171875 72.328125 131.113281 77.421875 133.167969 80.183594 133.453125 80.574219 133.867188 80.976562 134.066406 81.425781 134.601562 82.640625 134.441406 84.066406 135.101562 85.160156 136.914062 88.164062 138.699219 90.675781 140.355469 93.523438 141.613281 93.992188 142.449219 93.367188 142.773438 92.484375 142.902344 92.132812 142.800781 91.640625 142.984375 91.308594 143.234375 90.847656 144.128906 90.800781 144.777344 90.414062 145.046875 90.25 145.363281 89.777344 145.675781 89.652344 146.421875 89.351562 147.429688 89.671875 148.09375 89.925781 147.519531 90.066406 146.730469 89.988281 146.503906 90.480469 146.585938 90.980469 147.089844 90.824219 147.128906 91.242188 147.210938 92.164062 145.5 92.277344 144.847656 91.933594c-.3125.1367180000000019-.015625.5859370000000013.0.828125C144.460938 93.183594 143.738281 93.265625 143.742188 94.074219 144.5625 94.449219 145.449219 94.058594 146.300781 93.660156 146.632812 93.503906 147.039062 93.144531 147.40625 93.175781 147.792969 93.210938 148.234375 93.859375 148.648438 94.003906 150.203125 94.566406 152.605469 93.550781 152.863281 95.25 152.414062 95.023438 151.636719 95.070312 151.484375 95.527344 151.503906 96.027344 151.96875 96.035156 151.898438 96.492188 151.824219 96.972656 151.183594 97.1875 150.582031 96.976562 150.101562 96.808594 149.632812 95.730469 148.855469 95.734375 148.238281 96.257812 147.253906 96.101562 146.988281 95.386719 145.976562 95.59375 145.0625 95.902344 144.15625 96.21875 144.566406 97.398438 146.355469 97.796875 147.472656 98.496094 147.691406 98.859375 147.769531 99.355469 147.820312 99.878906 147.339844 99.875 147.4375 99.296875 146.921875 99.328125 146.414062 99.566406 146.613281 100.191406 146.160156 100.363281 145.242188 100.71875 144.796875 98.640625 143.808594 98.566406 143.757812 98.296875 143.550781 98.179688 143.464844 97.945312 142.796875 97.574219 142.039062 97.296875 141.460938 96.839844 139.894531 96.511719 138.703125 96.511719 137.039062 96.769531 136.664062 97.304688 134.792969 97.855469 134.550781 96.90625 134.402344 96.335938 134.835938 96.261719 135.03125 95.800781 134.945312 95.058594 134.167969 95.742188 134.066406 95.59375 134.792969 93.773438 137.140625 95.78125 138.835938 94.90625 137.015625 91.765625 134.875 88.957031 132.546875 86.332031 132.359375 86.71875 132.09375 87.035156 131.441406 86.953125 131.261719 87.121094 131.320312 87.523438 131.023438 87.578125 129.386719 87.390625 129.796875 84.800781 129.433594 83.292969 129.371094 83.035156 129.1875 82.167969 128.8125 82.117188 128.074219 82.023438 127.84375 84.460938 127.84375 84.953125 127.84375 86.632812 128.296875 89.289062 130.058594 89.996094 131.808594 90.699219 134.019531 89.796875 134.894531 91.101562 135.128906 91.449219 135.273438 92.265625 135.515625 92.691406 135.828125 93.242188 136.769531 94.066406 135.449219 94.210938 134.941406 94.269531 134.699219 93.890625 134.203125 93.796875 132.78125 93.53125 130.59375 94.1875 129.226562 93.660156 128.726562 93.464844 128.542969 93.121094 128.121094 92.832031 128.234375 94.019531 128.789062 95.191406 129.363281 96.078125 129.929688 96.953125 130.730469 97.84375 131.785156 98.289062 133.449219 98.996094 135.503906 99.101562 137.382812 99.464844 141.125 100.195312 144.441406 101.324219 144.570312 105.683594 144.683594 109.421875 141.324219 112.273438 137.589844 110.453125 140.175781 110.402344 142.453125 109.011719 142.566406 106.445312 142.675781 103.96875 140.644531 102.328125 138.488281 101.953125 138.839844 103.34375 141.113281 104.113281 141.390625 105.824219 141.492188 106.441406 141.210938 107.597656 140.425781 107.484375 139.863281 107.398438 139.339844 106.488281 138.835938 106.03125 137.261719 104.605469 135.097656 103.578125 133.167969 102.644531 131.734375 101.949219 130.339844 101.265625 129.363281 100.433594 128.257812 99.484375 127.597656 98.046875 126.808594 96.976562 127.234375 99.398438 127.601562 101.625 129.574219 102.921875 130.59375 103.589844 132.640625 103.847656 133.648438 104.511719 134.378906 104.988281 135.066406 105.90625 134.203125 106.722656 135.140625 107.71875 136.351562 108.445312 137.730469 109.003906 131.609375 109.15625 128.757812 105.441406 126.1875 101.816406 125.761719 104.855469 126.222656 107.839844 127.363281 109.761719 127.746094 110.414062 128.421875 111.003906 128.609375 111.558594 128.980469 112.691406 128.261719 114.34375 126.808594 113.980469 126.203125 114.960938 125.59375 115.941406 125.082031 117.019531 124.328125 116.09375 123.828125 114.910156 123.078125 113.980469 121.964844 114.09375 121.238281 113.300781 121.417969 112.046875 121.601562 110.765625 122.992188 109.867188 123.421875 108.3125 124.066406 105.984375 123.878906 103.777344 124.046875 101.261719 123.550781 101.601562 123.332031 102.191406 123.007812 102.644531 120.78125 105.757812 117.621094 108.386719 112.433594 108.65625 113.703125 107.96875 115.082031 107.386719 115.957031 106.308594 115.550781 105.777344 115.195312 104.984375 115.75 104.371094 117.6875 103.230469 120.644531 103.542969 121.695312 101.609375 122.34375 100.414062 122.734375 98.730469 123.007812 96.976562 122.339844 97.980469 121.453125 99.226562 120.382812 100.15625 118.328125 101.9375 115.183594 102.742188 112.78125 104.441406 112.300781 104.777344 111.730469 105.230469 111.121094 105.753906 110.523438 106.265625 109.183594 108.113281 108.839844 106.308594 108.34375 103.703125 111.289062 102.921875 111.949219 101.191406 109.683594 101.28125 107.328125 103.71875 107.941406 106.378906 108.398438 108.355469 110.164062 109.679688 112.574219 109.832031 110.058594 111.113281 107.183594 109.664062 106.144531 107.828125 104.882812 105.09375 106.09375 101.925781 107.734375 100.640625 110.769531 98.261719 117.097656 99.710938 119.898438 96.90625 120.828125 95.976562 121.203125 94.824219 121.695312 93.316406 120.859375 93.617188 119.460938 94.140625 118.03125 94.074219 117.554688 94.050781 117.039062 93.808594 116.578125 93.867188 115.773438 93.96875 115.128906 94.863281 114.4375 94.28125 114.828125 93.746094 114.992188 93.289062 115.199219 92.761719 115.507812 91.96875 115.585938 90.992188 116.371094 90.621094 117.859375 89.914062 120.65625 90.636719 121.625 89.097656 122.148438 88.265625 122.382812 86.242188 122.316406 84.742188 122.273438 83.75 122.25 82.03125 121.625 81.980469 121.355469 81.953125 121.039062 82.3125 120.933594 82.53125 120.515625 83.414062 120.609375 84.738281 120.242188 85.78125 119.984375 86.519531 119.554688 87.078125 119.066406 87.507812 118.558594 87.371094 117.949219 87.335938 117.6875 86.953125 115.402344 89.648438 113.082031 92.304688 110.84375 95.042969 112.253906 95.699219 114.347656 94.273438 115.40625 95.320312 115.152344 95.664062 114.628906 95.738281 114.300781 96.011719 114.367188 96.523438 114.839844 96.394531 114.714844 96.90625 114.542969 97.609375 112.929688 97.367188 112.640625 96.835938 111.367188 97.011719 110.40625 96.300781 109.253906 96.699219 108.546875 96.949219 108.125 97.839844 107.320312 97.945312 107.023438 99.144531 105.363281 99.117188 104.828125 100.085938 104.539062 100.613281 104.757812 101.304688 104.277344 101.816406 103.921875 101.890625 103.625 102.09375 103.242188 101.953125 102.964844 101.839844 103.09375 101.316406 102.964844 101.054688 102.398438 101.085938 102.253906 101.542969 102.136719 102.023438 101.773438 101.414062 101.976562 100.414062 102.273438 99.878906 102.464844 99.769531 102.679688 99.6875 102.894531 99.601562 103.699219 98.054688 105.914062 97.921875 106.421875 96.078125 105.753906 95.960938 104.941406 95.453125 104.210938 95.59375 103.886719 95.65625 103.8125 95.984375 103.515625 96.011719 103.140625 96.046875 102.953125 95.683594 102.621094 95.664062 102.289062 95.640625 101.59375 95.964844 101.375 96.148438 101.015625 96.449219 101.03125 97.066406 100.613281 97.390625 100.183594 97.59375 99.476562 97.542969 99.09375 97.324219 98.816406 97.011719 99.175781 96.484375 98.886719 96.214844 98.535156 95.917969 98.25 96.570312 98.058594 96.421875 98.019531 94.761719 100.023438 95.058594 101.511719 94.351562 101.917969 94.15625 102.390625 93.605469 102.828125 93.519531 104.058594 93.28125 105.285156 94.378906 106.421875 94.488281 106.933594 93.441406 105.691406 93.023438 105.382812 92.34375 104.21875 92.085938 103.488281 92.394531 102.414062 92.277344 102.09375 91.824219 102.40625 91.289062 102.621094 90.964844 102.390625 90.566406 101.761719 90.285156 101.167969 90.480469 101.523438 90.082031 102.046875 89.695312 102.550781 89.71875 102.898438 89.738281 103.171875 90.109375 103.515625 90.273438 104.554688 90.765625 106.054688 91.042969 107.113281 91.308594 107.636719 91.679688 107.769531 94.214844 108.699219 94.210938 109.171875 94.210938 110.289062 92.5625 110.566406 92.207031 112.210938 90.109375 113.964844 87.535156 115.40625 85.640625 114.65625 84.101562 115.871094 83.121094 116.511719 82.253906 117.578125 80.8125 118.484375 78.945312 118.652344 76.449219 118.746094 75.109375 118.414062 73.777344 118.171875 72.511719 117.800781 70.601562 117.839844 69.078125 117.410156 67.050781 116.660156 70.816406 117.4375 76.109375 115.683594 78.871094 113.265625 80.277344 112.898438 76.5 112.710938 74.375 112.503906 72.085938 112.429688 69.980469 111.878906 68.570312 112.179688 73.898438 111.300781 78.25 109.738281 82.394531 108.566406 85.503906 107.117188 88.378906 103.238281 88.683594 104.488281 81.175781 105.535156 73.097656 105.382812 64.425781 104.757812 65.75 104.328125 67.242188 103.863281 68.710938 102.59375 72.695312 101.457031 76.804688 99.785156 80.53125 99.679688 80.761719 99.640625 81.234375 99.300781 81.289062 98.554688 83.3125 97.148438 86.066406 95.15625 87.164062 94.476562 87.535156 93.53125 87.800781 92.320312 87.71875 93.789062 82.941406 96.40625 78.441406 97.226562 72.859375 97.667969 69.878906 97.96875 67.015625 98.609375 64.355469 99.246094 61.726562 100.195312 59.523438 101.511719 57.445312 99.085938 60.335938 96.949219 64.351562 93.980469 67.121094 92.90625 68.125 91.234375 69.558594 89.421875 69.125 92.382812 63.058594 95.816406 57.460938 98.542969 51.15625 96.496094 52.808594 92.902344 56.644531 89.695312 53.988281 92.246094 51.101562 95.453125 48.871094 97.710938 45.695312 94.308594 46.898438 89.816406 46.710938 89.488281 42.792969 92.894531 42.308594 96.039062 41.558594 98.816406 40.441406 98.476562 40.101562 97.921875 40.164062 97.503906 40.097656 94.613281 39.652344 92.164062 38.433594 92.183594 34.984375 96.097656 36.140625 101.398438 35.3125 105.9375 35.671875 109.039062 35.921875 110.621094 37.949219 110.429688 40.789062 110.28125 43.023438 108.851562 43.710938 107.59375 45.074219 107.480469 47.296875 108.351562 49.402344 109.671875 50.1875 110.421875 50.636719 111.546875 50.429688 112.433594 50.949219 112.777344 51.578125 112.425781 52.253906 112.019531 52.539062 108.417969 52.136719 106.410156 49.460938 106.835938 45.488281 106.355469 45.445312 106.109375 45.636719 105.867188 45.832031 105.523438 52.28125 110.617188 57.046875 116.71875 56.753906 117.847656 56.699219 118.425781 54.898438 120.175781 55.441406 120.53125 54.96875 120.300781 53.90625 120.65625 53.433594 120.304688 53.050781 119.488281 53.128906 118.929688 52.953125 120.9375 52.84375 121.21875 51.539062 122.246094 50.1875 122.753906 49.519531 123.40625 49.039062 123.90625 48.324219 122.628906 47.523438 120.746094 48.460938 120.242188 49.082031 120.699219 47.566406 121.953125 47.132812 123.628906 46.453125 124.683594 46.03125 126.648438 45.40625 125.839844 44.039062 124.675781 43.359375 122.96875 43.222656 121.695312 42.65625 122.394531 41.015625 126.953125 43.273438 127.15625 41.339844 126.148438 40.976562 124.585938 41.011719 123.421875 41.066406 122.03125 41.125 120.710938 41.304688 119.550781 41.617188 117.792969 42.09375 116.484375 43.261719 114.78125 43.550781 118.027344 41.667969 121.933594 39.046875 127.222656 40.304688 127.429688 38.324219 124.769531 37.578125 123.628906 38.785156 122.191406 37.617188 119.667969 37.605469 119.136719 39.546875 119.027344 39.886719 119.402344 40.101562 119.273438 40.234375 118.164062 39.488281 118.40625 37.34375 119.34375 36.574219 119.746094 36.238281 120.359375 36.210938 120.863281 35.878906 121.453125 35.5 121.613281 34.546875 122.664062 35.050781 123.101562 34.828125 123.105469 34.449219 123.421875 34.222656 125.621094 32.644531 129.863281 35.460938 132.128906 33.671875 132.265625 33.816406 131.761719 33.980469 131.507812 34.152344 131.226562 34.34375 130.910156 34.59375 130.746094 34.773438zM123.007812 35.191406C122.894531 35.753906 123.132812 36.277344 123.765625 36.296875 124.277344 34.871094 126.199219 34.855469 127.707031 34.429688 126.308594 33.984375 123.296875 33.730469 123.007812 35.191406zM128.328125 34.566406C128.050781 34.625 127.78125 34.902344 127.5 34.984375 126.257812 35.335938 124.5625 35.203125 124.253906 36.503906 124.734375 36.894531 125.074219 36.949219 125.773438 37.054688 127.460938 37.3125 128.824219 38.574219 130.609375 38.714844 130.261719 38.851562 129.734375 38.808594 129.363281 38.921875 130.058594 39.65625 130.84375 42.441406 129.640625 43.484375 129.628906 42.890625 130.003906 42.40625 129.78125 41.824219 128.996094 42.171875 128.792969 43.691406 128.46875 44.726562 128.324219 44.316406 128.425781 43.664062 128.261719 43.273438 127.261719 43.703125 127.421875 45.664062 126.460938 45.902344 126.578125 45.230469 127.050781 44.191406 126.949219 43.761719 126.460938 43.734375 126.703125 44.4375 126.601562 44.796875 126.058594 46.925781 122.632812 46.171875 121.625 47.835938 122.871094 47.925781 124.476562 47.65625 125.496094 47.976562 123.542969 48.554688 122.699219 50.246094 121.695312 51.777344 122.308594 51.855469 123.261719 51.589844 123.558594 51.984375 122.539062 52.183594 121.457031 52.324219 120.726562 52.816406 121.429688 52.988281 122.566406 52.722656 123.144531 53.023438 122.671875 53.328125 121.65625 53.097656 121.140625 53.367188 120.859375 54.074219 120.816406 55.023438 120.589844 55.785156 119.363281 55.664062 118.644531 56.050781 117.960938 56.476562 117.570312 57.792969 117.222656 58.789062 117.132812 60.207031 116.738281 66.582031 119.449219 71.640625 119.066406 77.210938 118.960938 78.765625 118.378906 79.800781 117.753906 80.804688 116.886719 82.203125 115.390625 83.371094 115.683594 85.367188 116.558594 85.765625 116.707031 84.886719 117.339844 84.953125 118.328125 85.054688 117.480469 86.351562 118.101562 86.953125 118.484375 86.949219 118.230469 86.300781 118.652344 86.335938 118.878906 86.429688 118.6875 86.945312 118.929688 87.023438 120.859375 86.46875 119.34375 81.128906 122.039062 81.425781 122.066406 81.511719 122.128906 81.566406 122.246094 81.566406 122.886719 84.070312 123.210938 87.289062 122.109375 89.167969 121.488281 90.226562 120.027344 90.652344 118.652344 90.757812 118.113281 90.796875 117.429688 90.632812 116.789062 90.828125 115.796875 91.125 115.898438 92.234375 115.542969 93.039062 115.363281 93.441406 114.980469 93.574219 114.988281 94.074219 115.859375 94.1875 116.460938 93.371094 117.410156 93.382812 117.683594 93.386719 117.941406 93.558594 118.171875 93.589844 120.59375 93.933594 122.097656 92.550781 122.453125 90.273438 121.390625 91.164062 119.523438 92.863281 117.273438 91.933594 116.976562 92.074219 116.921875 92.457031 116.511719 92.484375 116.742188 92.046875 116.976562 91.613281 117.339844 91.308594 120.398438 92.011719 122.226562 90.261719 123.214844 88.269531 123.242188 89.707031 122.949219 90.710938 122.664062 91.796875 121.878906 94.734375 120.609375 97.753906 117.824219 98.703125 116.121094 99.289062 114.257812 99.097656 112.574219 99.398438 111.171875 99.640625 109.496094 99.917969 108.355469 100.640625 107.148438 101.40625 106.164062 103.183594 106.003906 104.71875 105.667969 108.011719 107.734375 110.011719 110.84375 109.96875 110.164062 109.332031 109.234375 108.988281 108.5625 108.242188 107.5625 107.128906 107.148438 105.152344 107.871094 103.613281 108.648438 101.949219 110.585938 100.875 112.710938 100.640625 112.398438 102.390625 110.050781 103.359375 109.390625 104.648438 109.199219 105.027344 108.917969 106.273438 109.53125 106.65625 112.863281 102.261719 120.375 102.003906 122.59375 96.632812 122.96875 95.71875 123.054688 94.660156 123.492188 93.589844 123.46875 94.800781 123.527344 95.65625 123.421875 96.703125 123.191406 98.996094 122.277344 102.316406 120.585938 103.265625 119.460938 103.902344 115.886719 103.691406 115.820312 105.132812 115.785156 105.878906 116.441406 105.78125 116.925781 106.03125 116.308594 106.914062 115.296875 107.398438 114.507812 108.105469 119.398438 106.960938 122.265625 103.792969 124.253906 99.742188 124.441406 103.714844 124.292969 107.65625 122.9375 110.175781 122.640625 110.730469 122.097656 111.144531 121.902344 111.699219 121.40625 113.089844 122.378906 113.941406 123.835938 113.566406 123.859375 114.34375 124.097656 114.753906 124.390625 115.226562 124.558594 115.496094 124.804688 115.871094 125.078125 115.984375 125.597656 115.578125 126.109375 114.570312 126.253906 113.566406 126.894531 113.707031 127.53125 113.59375 127.984375 113.359375 128.332031 112.921875 128.308594 111.847656 128.050781 111.355469 127.628906 110.546875 127.101562 110.039062 126.738281 109.351562 125.550781 107.078125 125.757812 103.566406 125.773438 100.15625 127.898438 104.207031 130.546875 107.734375 135.863281 108.589844 135.054688 107.695312 133.699219 107.347656 133.167969 106.171875 133.53125 106.140625 134.039062 106.261719 134.203125 106.03125 134.289062 105.488281 133.960938 105.152344 133.648438 104.925781 131.953125 103.683594 129.539062 103.808594 128.328125 102.230469 126.769531 100.199219 126.074219 96.691406 126.253906 93.316406 126.851562 97.554688 128.8125 99.953125 131.992188 101.609375 134.308594 102.8125 136.746094 103.925781 138.628906 105.476562 139.25 105.992188 139.734375 106.664062 140.425781 107.070312 141.109375 106.910156 141.128906 106.15625 140.90625 105.546875 140.347656 103.992188 137.609375 103.011719 137.660156 101.191406 140.210938 101.765625 142.753906 103.140625 142.914062 105.890625 143.082031 108.796875 141.1875 109.652344 139.523438 110.734375 142.191406 110.539062 143.699219 109.1875 144.085938 106.863281 144.363281 105.183594 143.890625 103.453125 143.257812 102.507812 140.746094 98.761719 132.460938 100.515625 129.640625 97.253906 128.167969 94.816406 126.65625 92.039062 126.738281 88.269531 127.472656 90.417969 128.835938 91.929688 131.785156 91.863281 132.453125 90.84375 133.703125 91.917969 133.925781 92.484375 133.371094 92.511719 133.292969 92.058594 132.824219 92.003906 131.003906 92.871094 128.730469 91.773438 127.570312 90.894531 127.835938 92.519531 129.585938 93.832031 131.441406 93.59375 132.027344 93.515625 132.578125 93.238281 133.234375 93.246094 134.03125 93.253906 134.6875 93.496094 135.449219 93.523438 135.445312 93.015625 134.976562 92.617188 134.757812 92.070312 134.667969 91.847656 134.703125 91.519531 134.550781 91.308594 134.015625 90.578125 132.921875 90.886719 131.644531 90.757812 128.691406 90.460938 127.414062 88.570312 127.5 85.160156 127.546875 83.402344 127.796875 80.664062 129.503906 81.773438 129.558594 82.390625 129.761719 83.074219 129.851562 83.777344 130.011719 85.050781 129.917969 86.523438 130.816406 87.09375 131.085938 86.949219 130.996094 86.449219 131.300781 86.335938 131.671875 86.25 131.714844 86.753906 131.992188 86.542969 132.386719 85.34375 132.527344 83.898438 132.960938 82.738281 133.328125 82.546875 133.542969 82.882812 133.996094 82.808594 133.292969 80.105469 131.148438 78.753906 130.953125 75.621094 130.902344 74.738281 130.984375 73.773438 131.09375 72.71875 131.488281 68.996094 132.3125 64.714844 132.128906 60.691406 132.085938 59.695312 132.074219 58.238281 131.785156 57.375 131.246094 55.769531 129.453125 54.90625 127.570312 55.855469 128.328125 54.53125 128.789062 52.652344 128.675781 50.671875 129.398438 51.851562 128.925781 53.800781 128.539062 55.023438 128.765625 55.023438 128.878906 54.910156 129.160156 54.957031 128.832031 53.828125 129.320312 53.039062 129.988281 52.539062 129.628906 50.175781 131.207031 48.84375 131.023438 46.664062 131.296875 46.222656 131.460938 45.304688 131.925781 45.28125 131.539062 46.316406 130.605469 48.769531 132.40625 48.945312 131.535156 46.640625 133.652344 43.796875 132.613281 41.136719 133.164062 41.484375 133.199219 42.34375 134.066406 42.378906 132.933594 40.746094 132.824219 38.089844 131.09375 37.058594 129.695312 37.015625 128.886719 35.179688 127.570312 35.949219 127.601562 36.289062 128.230469 36.027344 128.261719 36.363281 127.59375 36.488281 126.796875 37.054688 126.050781 36.917969 125.523438 36.824219 125.335938 36.351562 124.941406 36.085938 125.933594 34.78125 129.113281 35.988281 130.058594 34.566406 129.53125 34.660156 128.914062 34.449219 128.328125 34.566406zm20.875.96875C147 35.632812 144.691406 35.542969 142.773438 35.671875 139.523438 35.894531 137.933594 38.203125 138.835938 41.6875 138.992188 41.59375 139.09375 41.863281 139.113281 41.6875 138.628906 40.816406 138.996094 38.992188 139.734375 38.921875 139.5625 39.253906 139.488281 39.550781 139.457031 39.890625 139.117188 43.3125 141.535156 44.125 143.671875 45.210938 143.417969 45.164062 143.367188 45.320312 143.394531 45.558594 143.164062 52.878906 139.410156 56.683594 132.335938 57.167969 132.398438 57.425781 132.398438 57.753906 132.476562 57.996094 139.296875 57.886719 143.566406 53.71875 144.085938 47.214844 144.179688 46.050781 144 45.136719 143.742188 44.175781 141.539062 45.101562 140.59375 41.472656 142.914062 41.546875 141.453125 38.90625 146.804688 38.960938 145.261719 41.546875 147.621094 41.050781 147.253906 44.601562 145.261719 44.246094 145.613281 54.183594 140.867188 59.015625 132.824219 60.554688 132.53125 62.625 132.4375 65.136719 132.546875 67.535156 132.605469 68.863281 132.90625 70.171875 133.027344 71.40625 133.308594 74.257812 133.261719 76.917969 134.757812 78.664062 135.238281 78.847656 135.847656 78.679688 136.136719 78.453125c.375-.90625.4375-2.015625.484375-3.109375C136.757812 72.269531 137.070312 69.660156 137.660156 67.328125 137.796875 66.78125 137.824219 66.164062 138.140625 65.738281 137.726562 74.496094 139.492188 81.066406 142.980469 85.921875 143.976562 86.648438 144.925781 87.796875 146.644531 87.578125 144.863281 79.84375 143.820312 71.375 143.601562 62.074219 143.3125 62.171875 142.984375 62.386719 142.566406 62.351562 141.796875 62.289062 141.359375 61.308594 140.976562 61.386719 141.671875 68.664062 142.488281 76.183594 143.742188 82.671875 142.890625 81.351562 142.832031 79.585938 142.496094 77.902344 141.628906 73.5625 141.519531 68.398438 140.628906 64.011719 139.789062 64.640625 138.242188 64.042969 137.726562 63.320312 137.8125 64.878906 137.121094 65.65625 135.585938 65.601562 135.109375 69.078125 135.824219 72.851562 135.726562 76.175781 135.085938 73.011719 134.550781 68.753906 135.308594 65.390625 134.433594 64.449219 133.265625 63.425781 133.582031 61.523438 134.457031 62.796875 134.464844 65.28125 136.761719 64.910156 137.152344 64.425781 137.324219 63.886719 137.3125 63.113281 137.300781 62.164062 136.648438 61.019531 137.3125 60.554688 137.890625 61.929688 137.96875 64.109375 140.078125 63.734375 140.578125 63.058594 140.628906 61.703125 140.421875 60.625 140.3125 60.046875 139.816406 59.363281 140.421875 59.171875 141.246094 60.109375 141.519531 62.226562 143.394531 61.660156 143.949219 60.523438 143.386719 59.550781 142.980469 58.828125 142.738281 58.394531 142.34375 57.9375 142.496094 57.582031 143.484375 57.863281 143.859375 59.351562 145.539062 59.171875 146.066406 58.851562 145.816406 57.992188 145.539062 57.511719 145.078125 56.71875 143.898438 56.140625 144.15625 55.511719 144.925781 55.605469 145.820312 56.503906 146.921875 56.269531 147.757812 54.886719 145.738281 54.320312 145.191406 53.433594 145.800781 53.21875 147.292969 54.222656 147.957031 53.367188 148.128906 51.855469 146.261719 52.023438 146.023438 51.15625 146.835938 50.976562 147.851562 51.003906 148.300781 50.464844 148.523438 49.136719 147.011719 49.546875 146.300781 49.148438 146.703125 48.332031 148.558594 48.910156 148.300781 47.769531 148.140625 47.054688 146.746094 47.554688 146.503906 47.007812 147.621094 46.386719 148.46875 47.316406 148.925781 47.976562 149.847656 49.3125 150.96875 50.183594 152.308594 51.363281 153.304688 52.234375 154.414062 53.207031 155.558594 53.503906 156.574219 53.769531 158.375 53.738281 159.222656 52.882812 155.835938 50.191406 152.242188 47.328125 149.546875 44.175781 152.636719 45.457031 158.914062 46.050781 159.292969 42.171875 154.960938 41.640625 150.894531 40.84375 147.472656 39.40625 151.761719 39.316406 155.824219 38.632812 155.976562 34.636719 154.179688 34.921875 151.792969 35.421875 149.203125 35.535156zm-19.90625.0C129.601562 36.246094 130.574219 36.289062 131.234375 36.640625 131.535156 36.933594 132.261719 37.773438 132.476562 37.675781 132.230469 36.199219 130.800781 34.476562 129.296875 35.535156zM128.605469 42.722656C129.175781 42.277344 129.847656 41.203125 129.640625 40.167969 129.457031 39.222656 128.121094 38.226562 127.085938 37.816406 125.269531 37.097656 122.851562 37.308594 122.523438 35.328125 121.761719 34.753906 121.535156 35.839844 121.210938 36.15625 119.773438 36.320312 118.375 37.515625 119.066406 39.128906 119.375 37.335938 122.328125 37.277344 123.492188 38.371094 125.085938 37.21875 128.015625 38.136719 128.609375 39.683594 128.769531 40.113281 128.902344 41.082031 128.609375 41.6875 127.695312 43.539062 124.300781 41.734375 122.523438 42.585938 124.078125 43.164062 127.074219 43.921875 128.605469 42.722656zm-27.4375-2.625C97.746094 41.421875 93.933594 42.359375 90.039062 43.207031 90.523438 47.316406 96.5 45.84375 99.300781 44.796875 96.703125 48.210938 93.179688 50.699219 90.386719 53.921875 93.351562 55.34375 95.464844 53.433594 97.226562 51.777344 98.386719 50.6875 99.515625 49.46875 100.199219 48.460938 100.4375 48.109375 100.421875 47.851562 100.753906 47.628906 101.128906 47.378906 102.121094 47.058594 102.480469 47.628906 101.929688 48.003906 100.765625 47.6875 100.683594 48.390625 100.640625 48.734375 101.035156 49.089844 101.445312 49.21875 101.871094 49.355469 102.609375 49.050781 102.757812 49.566406 102.125 50.101562 100.574219 49.808594 100.683594 50.808594 100.773438 51.636719 102.246094 51.488281 103.171875 51.707031 102.636719 52.320312 100.839844 52.695312 101.167969 53.78125 101.53125 54.984375 103.671875 53.414062 104.003906 53.921875 103.421875 54.835938 102.082031 54.996094 102.066406 56.476562 103.085938 57.566406 104.371094 55.753906 105.175781 55.992188 105.136719 56.535156 104.527344 57.03125 104.140625 57.582031 103.765625 58.109375 103.234375 58.757812 103.726562 59.515625 104.507812 59.71875 105.082031 59.449219 105.523438 59.101562 106.035156 58.695312 106.273438 57.933594 106.835938 57.859375 107 58.5 105.9375 59.601562 105.796875 60.691406 105.695312 61.511719 105.984375 62.078125 106.558594 62.144531 108.09375 62.324219 108.21875 60.253906 108.976562 59.449219 109.578125 59.742188 109.042969 60.796875 108.976562 61.660156 108.851562 63.296875 109.601562 64.882812 110.984375 63.664062 111.667969 63.058594 111.742188 61.554688 112.15625 60.761719 112.925781 61.199219 112.128906 62.46875 112.226562 63.523438 112.277344 64.121094 112.503906 64.519531 112.707031 64.976562 115.039062 65.648438 115.109375 62.925781 115.886719 61.589844 116.3125 63.316406 115.070312 64.542969 114.296875 65.53125 115.148438 68.566406 114.789062 73.242188 114.230469 76.3125 113.929688 73.03125 114.78125 68.253906 113.953125 65.601562 112.363281 66.011719 111.871094 64.859375 111.742188 63.59375 111.398438 63.664062 111.183594 64.207031 110.636719 64.425781 110.078125 64.644531 109.453125 64.632812 108.90625 64.289062 108.128906 69.558594 108.101562 76.128906 107.109375 81.078125 106.96875 81.789062 106.984375 82.621094 106.421875 83.085938 107.410156 78.683594 107.476562 73.617188 107.941406 68.777344 108.171875 66.367188 108.8125 64.023438 108.425781 61.523438 107.925781 62.324219 106.859375 63.15625 105.796875 62.421875 106.121094 71.710938 105.15625 80.234375 103.796875 88.0625 105.039062 88.03125 106.078125 87.515625 106.765625 86.816406 110.726562 82.796875 111.871094 74.023438 111.671875 66.082031 112.34375 67.878906 112.625 70.179688 112.847656 72.511719 113.066406 74.796875 113.171875 77.195312 114.230469 78.734375c1.578125.671875 2.125-1.4804689999999994 2.28125-2.765625C116.6875 74.503906 116.765625 72.601562 116.925781 70.714844 117.226562 67.128906 117.105469 63.457031 116.578125 60.484375 107.929688 59.34375 103.425781 54.058594 103.515625 44.175781 101.546875 44.75 101.121094 41.144531 103.308594 41.617188 103.207031 41.234375 103.121094 40.839844 103.03125 40.441406 103.503906 38.800781 106.582031 39.675781 105.589844 41.617188 107.796875 41.417969 107.46875 44.898438 105.039062 44.175781 104.386719 48.09375 105.601562 52.03125 107.664062 54.402344 109.726562 56.773438 112.707031 58.035156 116.789062 57.996094 116.871094 57.757812 116.976562 57.539062 116.925781 57.167969 109.679688 56.832031 105.871094 53.0625 105.453125 45.902344 105.554688 45.570312 105.136719 45.761719 105.175781 45.488281 106.257812 44.785156 107.980469 44.449219 108.699219 43.273438 109.351562 42.21875 109.351562 40.46875 108.976562 39.199219 109.882812 39.578125 109.699219 41.152344 109.808594 41.960938 110.566406 40.09375 109.65625 37.882812 108.632812 36.917969 106.765625 36.035156 104.265625 35.976562 101.71875 36.085938 98.363281 36.234375 95.320312 36.050781 92.667969 35.464844 92.867188 39.644531 97.050781 39.835938 101.167969 40.097656zM127.015625 35.949219C126.632812 35.957031 126.503906 36.21875 126.1875 36.296875 125.921875 36.289062 125.914062 36.015625 125.703125 35.949219 125.539062 36.820312 127.335938 36.589844 127.015625 35.949219zM127.570312 40.371094C127.816406 40.472656 128.140625 40.492188 128.398438 40.578125 128.308594 39.542969 127.832031 38.886719 126.949219 38.644531 127.195312 39.179688 127.519531 39.640625 127.570312 40.371094zm15.621094 1.453125C142.558594 41.746094 142.175781 41.914062 141.875 42.171875 141.289062 43.683594 142.949219 44.246094 143.878906 43.828125 145.171875 48.238281 143.449219 52.890625 140.976562 55.234375 138.863281 57.234375 135.90625 58.160156 132.546875 58.621094 132.578125 59.023438 132.679688 59.359375 132.753906 59.726562 141.109375 58.886719 145.519531 53.378906 144.847656 43.96875 147.105469 44.613281 147.265625 41.15625 144.847656 41.824219 145.054688 41.351562 145.359375 40.765625 145.054688 40.164062 143.703125 39.183594 142.292969 40.652344 143.191406 41.824219zM105.109375 41.894531C106.355469 40.789062 104.53125 39.128906 103.449219 40.304688 103.222656 40.863281 103.546875 41.558594 103.585938 41.824219 101.355469 41.625 102.121094 44.691406 103.933594 43.898438 103.878906 44.894531 103.832031 45.90625 103.933594 46.871094 104.28125 50.253906 105.277344 53.425781 107.25 55.648438 109.253906 57.90625 112.625 59.796875 116.648438 59.65625 116.648438 59.238281 116.671875 58.804688 116.578125 58.484375 108.226562 58.269531 103.664062 52.398438 104.691406 43.761719 106.921875 44.984375 107.585938 41.351562 105.109375 41.894531zM119.484375 41.339844C121.824219 40.699219 125.292969 40.601562 127.914062 40.859375 125.410156 40.105469 121.421875 40.042969 119.484375 41.339844zM127.292969 42.101562C127.71875 41.976562 128.164062 41.867188 128.191406 41.339844 127.496094 41.199219 127.390625 41.644531 127.292969 42.101562zM138.074219 50.671875C137.800781 50.734375 137.078125 50.636719 136.828125 50.949219 136.578125 51.261719 136.789062 51.710938 137.039062 51.984375 139.890625 51.816406 141.589844 49.523438 141.808594 46.800781 141.859375 46.152344 141.769531 45.375 141.390625 44.933594 141.675781 47.910156 140.3125 50.179688 138.074219 50.671875zM108.492188 50.601562C109.5 51.226562 110.496094 52.535156 112.15625 52.050781 112.78125 50.632812 111.238281 51.03125 110.289062 50.808594 109.453125 50.613281 108.46875 49.558594 108.011719 48.597656 107.53125 47.59375 107.390625 46.628906 107.316406 45.351562 106.691406 47.332031 107.664062 49.398438 108.492188 50.601562zM156.804688 64.496094C155.113281 62.820312 153.640625 60.636719 152.242188 58.066406 151.355469 56.433594 150.140625 54.625 149.203125 52.882812 148.710938 51.976562 148.261719 50.59375 147.335938 51.570312 148.699219 52.171875 148.894531 54.304688 146.921875 54.195312 147.1875 54.78125 147.824219 55.28125 147.613281 56.128906 149.691406 58.789062 152.046875 62.136719 154.453125 64.699219 155.953125 66.300781 157.296875 68.183594 160.191406 67.949219 159.859375 67.117188 159.246094 66.398438 158.738281 65.671875 155.003906 60.289062 151.878906 54.222656 148.648438 48.390625 148.5 48.703125 148.175781 48.84375 147.820312 48.941406 148.332031 49.292969 149.066406 49.96875 148.578125 50.878906 151.25 55.628906 154.136719 60.527344 157.078125 64.769531 157.078125 64.699219 157.023438 64.6875 157.011719 64.632812 156.929688 64.597656 156.855469 64.558594 156.804688 64.496094zM89.902344 68.917969C92.433594 68.738281 93.886719 66.738281 95.226562 65.183594 96.953125 63.175781 98.746094 61.09375 99.992188 58.757812 100.828125 58.253906 101.199219 57.171875 101.582031 56.199219 101.816406 55.605469 102.199219 55.058594 102.136719 54.679688 100.175781 54.816406 100.453125 52.703125 101.71875 52.050781 101.4375 51.96875 101.238281 51.796875 100.890625 51.777344 97.992188 56.367188 95.996094 62.226562 92.320312 65.808594 95.34375 61.296875 97.996094 56.414062 100.40625 51.292969 100.335938 51.066406 100.199219 50.902344 100.199219 50.601562 100.410156 50.144531 100.75 49.816406 101.167969 49.566406 100.765625 49.460938 100.53125 49.1875 100.199219 49.011719 97.066406 55.949219 93.460938 62.40625 89.902344 68.917969zM146.714844 60.691406C148.0625 65.375 149.539062 70.136719 151.203125 74.515625 151.878906 76.289062 152.894531 77.953125 153.140625 79.90625 151.507812 76.898438 150.328125 73.550781 149.132812 70.164062 147.925781 66.738281 146.902344 63.140625 146.09375 59.378906 145.484375 59.726562 144.457031 59.574219 143.878906 59.308594 143.878906 61.886719 144.648438 64.164062 145.46875 66.292969 147.457031 71.4375 149.03125 77.136719 151.550781 81.703125 152.84375 84.042969 154.351562 86.3125 157.425781 86.402344 155.621094 81.90625 153.15625 77.03125 152.105469 71.542969 151.746094 69.667969 151.523438 67.703125 151.066406 65.808594 150.808594 64.746094 150.34375 63.601562 149.960938 62.488281 149.171875 60.195312 148.277344 58.273438 146.988281 56.683594 146.601562 57.03125 145.820312 56.621094 145.46875 56.753906 146.34375 57.660156 146.308594 59.28125 146.714844 60.691406zM102.203125 57.308594C102.199219 57.265625 102.195312 57.226562 102.136719 57.238281 100.742188 59.386719 99.753906 61.488281 99.09375 64.21875 98.199219 67.921875 97.90625 72.832031 96.816406 76.519531 95.738281 80.148438 94.011719 83.878906 92.941406 87.371094 93.484375 87.3125 93.894531 87.125 94.464844 87.09375 96.53125 86.148438 97.613281 84.21875 98.542969 82.1875 101.351562 76.023438 103.550781 68.824219 105.523438 62.003906 105.183594 61.457031 105.316406 60.390625 105.453125 59.726562 104.835938 60.078125 104.113281 60.214844 103.308594 59.933594 102.011719 66.425781 100.15625 72.691406 97.988281 78.316406 97.679688 79.113281 97.535156 80.046875 96.882812 80.667969 98.53125 75.425781 100.359375 69.996094 101.789062 64.632812 102.042969 63.6875 102.226562 62.734375 102.480469 61.796875 102.753906 60.796875 102.835938 59.871094 103.035156 58.828125 103.15625 58.183594 103.621094 57.539062 103.585938 57.238281 103.128906 57.316406 102.683594 57.433594 102.203125 57.308594zm30.621094 28.332031C134.46875 88.144531 136.816406 90.824219 138.488281 93.523438 138.859375 94.117188 139.4375 94.808594 138.972656 95.179688 138.128906 95.308594 137.273438 95.417969 136.347656 95.457031 136.136719 96.167969 135.253906 96.203125 134.894531 96.769531 135.644531 97.691406 136.382812 96.414062 137.109375 96.289062 137.578125 96.203125 138.171875 96.421875 138.699219 96.355469 139.234375 96.289062 139.617188 96.101562 140.148438 96.011719 140.324219 96.5 141.058594 96.4375 141.667969 96.492188 142.285156 97.371094 143.90625 97.253906 144.15625 98.496094 145.289062 98.425781 145.09375 100.046875 146.09375 99.878906 146.375 99.542969 145.789062 98.871094 146.09375 98.289062 145.910156 97.835938 145.371094 97.886719 144.984375 97.667969 144.726562 97.523438 144.601562 97.234375 144.363281 97.046875 143.988281 96.75 143.410156 96.46875 142.984375 96.21875 142.539062 95.957031 141.898438 95.777344 141.875 95.25 143.300781 96.34375 145.464844 95.078125 147.265625 94.972656 147.226562 95.90625 148.414062 95.886719 148.441406 95.042969 148.953125 95.199219 149.195312 95.625 149.960938 95.523438 150.136719 96.132812 150.871094 97.265625 151.550781 96.492188 151.371094 95.820312 150.601562 95.738281 150.378906 95.109375 150.511719 94.996094 150.5625 94.789062 150.582031 94.558594 149.097656 94.953125 148.515625 93.726562 147.335938 93.730469 145.910156 93.734375 144.425781 95.414062 142.84375 94.28125 143.183594 93.90625 143.535156 93.546875 143.601562 92.898438 143.878906 92.871094 144.105469 92.800781 144.296875 92.691406 144.441406 92.320312 144.152344 92.203125 144.085938 91.863281 144.414062 91.773438 144.636719 91.578125 144.984375 91.515625 145.273438 91.980469 146.648438 91.902344 146.644531 91.238281 145.695312 90.789062 143.953125 90.621094 143.398438 91.449219 143.074219 91.929688 143.128906 92.734375 142.773438 93.246094 142.234375 94.023438 141.421875 94.128906 140.21875 94.003906 138.230469 90.554688 136.023438 87.324219 133.996094 83.914062 133.046875 83.933594 132.878906 84.730469 132.824219 85.640625zM116.996094 85.988281C116.617188 85.976562 116.222656 85.679688 115.957031 85.78125 115.914062 85.785156 115.878906 85.792969 115.890625 85.851562 114.542969 87.511719 112.566406 90.066406 111.121094 91.933594 110.554688 92.664062 110.117188 93.453125 109.601562 94.074219 108.300781 95.636719 107.476562 92.914062 107.042969 91.796875 106.234375 91.21875 104.898438 91.171875 103.933594 90.757812 103.578125 91.191406 102.789062 91.179688 102.6875 91.863281 103.011719 92.351562 103.550781 91.804688 103.933594 91.726562 104.308594 92.195312 105.234375 91.859375 105.730469 91.933594 105.910156 92.074219 105.8125 92.496094 105.9375 92.691406 107.015625 92.761719 106.664062 94.269531 107.386719 94.699219 106.570312 94.878906 105.914062 94.539062 105.246094 94.351562 104.578125 94.167969 103.683594 93.769531 103.101562 93.800781 102.320312 93.835938 101.738281 94.710938 100.890625 94.90625 100.617188 94.96875 100.386719 94.796875 100.0625 95.042969 99.890625 95.265625 100.238281 95.425781 100.128906 95.800781 99.425781 96.113281 98.773438 97.488281 100.40625 97.253906 100.835938 96.949219 100.871094 96.246094 101.238281 95.871094 101.921875 95.773438 102.289062 95.355469 102.964844 95.25 103.183594 96.03125 103.941406 95.640625 104.210938 95.179688 105.039062 95.59375 106.414062 95.464844 107.386719 95.734375 106.46875 97.394531 104.648438 98.15625 103.378906 99.46875 104.222656 99.976562 103.558594 100.960938 103.515625 101.609375 104.601562 101.78125 104.457031 100.164062 104.828125 99.398438 106.078125 99.191406 106.726562 98.390625 107.25 97.460938 108.058594 97.371094 108.59375 97.007812 108.839844 96.355469 109.710938 96.316406 111.0625 95.832031 111.605469 96.492188 112.023438 96.519531 112.367188 96.476562 112.710938 96.425781 113.015625 96.722656 114.023438 97.382812 114.4375 96.703125 114.441406 96.371094 114.027344 96.464844 113.816406 96.355469 113.597656 96.066406 113.457031 95.699219 113.261719 95.386719 112.59375 95.167969 110.78125 95.914062 110.566406 95.113281 110.488281 94.824219 111.085938 94.144531 111.257812 93.9375 113.238281 91.484375 115.734375 88.945312 117.269531 86.542969 117.140625 86.398438 117.046875 86.210938 116.996094 85.988281zM145.539062 90.414062C145.65625 90.523438 145.789062 90.621094 146.023438 90.621094 146.128906 90.378906 146.679688 90.003906 146.367188 89.789062 146.125 90.03125 145.5625 89.953125 145.539062 90.414062zM103.238281 90.828125C103.359375 90.71875 103.492188 90.617188 103.449219 90.34375 103.105469 90.203125 102.746094 90.078125 102.273438 90.066406 102.398438 90.515625 102.738281 90.753906 103.238281 90.828125zM150.859375 95.179688C150.9375 95.195312 150.96875 95.257812 150.996094 95.320312 151.480469 95.179688 151.960938 95.039062 152.171875 94.628906 151.730469 94.128906 150.84375 94.449219 150.859375 95.179688zM135.792969 95.59375C135.890625 95.484375 136.039062 95.425781 136 95.179688 135.949219 95.164062 135.921875 95.121094 135.933594 95.042969 135.003906 94.652344 134.976562 95.566406 135.792969 95.59375zm-21.839844.0C114.335938 95.585938 114.578125 95.433594 114.644531 95.113281 114.300781 94.878906 113.625 95.15625 113.953125 95.59375zM98.679688 95.871094C99.175781 96.058594 99.96875 95.867188 99.648438 95.25 99.132812 95.113281 98.742188 95.363281 98.679688 95.871094zM146.503906 98.984375C146.808594 99.074219 147.148438 99.121094 147.542969 99.121094 147.636719 98.472656 146.421875 98.054688 146.503906 98.984375zM102.34375 100.917969C102.726562 100.746094 103.070312 100.539062 103.449219 100.363281 103.496094 100.113281 103.300781 100.101562 103.308594 99.878906 102.664062 99.902344 102.273438 100.183594 102.34375 100.917969zM145.675781 37.46875C145.949219 37.121094 146.394531 36.945312 146.644531 36.574219 146.144531 36.472656 145.5625 36.457031 145.054688 36.363281H144.5C144.277344 36.285156 144.6875 36.289062 144.777344 36.296875 145.753906 36.335938 146.890625 36.210938 147.75 36.363281 147.558594 36.730469 146.996094 36.71875 146.851562 37.125 149.363281 37.398438 152.246094 36.851562 154.175781 36.085938 154.601562 35.96875 154.035156 36.269531 153.832031 36.363281 151.855469 37.296875 148.796875 37.542969 145.675781 37.46875zM148.578125 41.480469C148.460938 41.460938 148.40625 41.558594 148.578125 41.546875 151.128906 42.480469 154.378906 43.734375 157.839844 43.070312 154.34375 43.199219 151.40625 42.246094 148.578125 41.480469zM156.183594 51.984375C153.710938 50.355469 151.535156 48.0625 149.476562 46.246094 151.347656 48.480469 153.601562 50.699219 156.183594 51.984375zM103.863281 36.78125C103.296875 36.996094 102.417969 36.898438 101.925781 37.195312 102.132812 37.515625 102.519531 37.664062 102.894531 37.816406 99.894531 38.34375 96.308594 37.867188 94.117188 36.917969 96.148438 37.40625 99.003906 37.9375 101.71875 37.746094 101.550781 37.363281 101.074219 37.292969 100.753906 37.058594 101.671875 36.886719 102.957031 36.738281 103.863281 36.78125zM100.40625 42.171875C100.398438 42.085938 100.386719 42.007812 100.269531 42.03125 97.476562 43.015625 94.589844 43.90625 91.007812 44.105469 94.878906 44.464844 97.601562 43.101562 100.40625 42.171875zM99.371094 46.871094C97.578125 49.25 95.433594 51.273438 92.941406 52.953125 93.242188 52.511719 93.746094 52.222656 94.1875 51.847656 95.457031 50.765625 96.816406 49.488281 97.921875 48.183594 98.613281 47.957031 98.746094 47.164062 99.371094 46.871094zm0 0"/><path style="stroke:none;fill-rule:nonzero;fill:#000;fill-opacity:1" d="M147.613281 47.835938C147.515625 48.132812 146.78125 48.085938 146.503906 47.976562 146.558594 47.527344 147.347656 47.714844 147.613281 47.835938zM146.160156 50.1875C146.601562 50.140625 147.21875 50.277344 147.542969 50.117188 147.148438 50.066406 146.34375 49.621094 146.160156 50.1875zM145.746094 52.609375C146.261719 52.691406 146.691406 53.148438 147.265625 52.953125 146.910156 52.574219 146.226562 52.519531 145.746094 52.261719zM144.777344 54.886719C145.445312 55.027344 145.832031 55.445312 146.503906 55.578125 146.078125 55.082031 145.386719 54.855469 144.777344 54.542969zM143.398438 57.101562C144.011719 57.335938 144.386719 58.179688 145.054688 58.136719 144.566406 57.542969 144.089844 56.933594 143.398438 56.546875 143.234375 56.707031 143.40625 56.886719 143.398438 57.101562zM142.703125 60.761719C142.359375 59.914062 142.117188 58.953125 141.390625 58.484375 141.703125 59.367188 142.011719 60.253906 142.703125 60.761719zM139.457031 62.765625C139.398438 61.949219 139.109375 60.765625 138.628906 60.140625c0 .8828129999999987.4375 1.9023439999999994.828125 2.625zM136 63.800781C135.941406 62.851562 135.640625 62.136719 135.515625 61.246094h-.34375C135.339844 62.203125 135.429688 63.246094 136 63.800781zM102.414062 48.53125C102.164062 48.316406 101.335938 48.683594 101.304688 48.253906 101.648438 48.195312 102.398438 48.054688 102.414062 48.53125zM101.445312 50.808594C101.949219 50.761719 102.5625 50.820312 102.828125 50.53125 102.417969 50.164062 101.683594 50.558594 101.445312 50.808594zM101.789062 53.503906C102.441406 53.351562 103.324219 53.425781 103.449219 52.746094 102.917969 53.019531 102.097656 53.003906 101.789062 53.503906zM102.6875 55.992188C103.371094 56.046875 104.214844 55.683594 104.414062 55.023438 103.746094 55.253906 103.21875 55.625 102.6875 55.992188zM104.277344 58.621094C104.945312 58.496094 105.863281 57.679688 105.867188 56.890625 105.199219 57.328125 104.765625 58.003906 104.277344 58.621094zM106.699219 61.109375C107.152344 61.03125 107.226562 60.417969 107.386719 60.070312 107.578125 59.65625 107.800781 59.230469 107.941406 58.828125 107.851562 58.824219 107.84375 58.738281 107.734375 58.757812 107.34375 59.496094 106.945312 60.226562 106.699219 61.109375zM110.082031 63.042969C110.296875 62.195312 110.78125 61.257812 110.773438 60.417969H110.566406C110.378906 61.175781 109.957031 62.425781 110.082031 63.042969zM113.609375 63.941406C113.96875 63.242188 114.175781 62.390625 114.160156 61.316406H113.953125C113.78125 62.085938 113.503906 63.121094 113.609375 63.941406zm11.261719 15.824219C125.046875 80.824219 125.171875 82.191406 125.011719 83.363281 124.667969 82.429688 124.664062 80.859375 124.871094 79.765625zM124.804688 91.449219C124.390625 87.96875 124.042969 84.421875 123.558594 81.011719 123.441406 83.621094 123.792969 85.914062 124.183594 88.476562 124.484375 90.460938 124.679688 92.566406 124.804688 94.628906 125.039062 98.511719 124.808594 102.523438 125.011719 106.445312 125.035156 106.886719 125.066406 107.359375 125.289062 107.828125 124.511719 98.484375 126.039062 89.460938 126.53125 80.941406 126.203125 84.691406 126.113281 88.679688 124.804688 91.449219zM129.15625 47.976562C129.34375 47.980469 129.09375 49.007812 129.363281 49.148438 129.488281 49.171875 129.578125 48.824219 129.640625 49.011719 129.578125 49.363281 129.398438 49.601562 129.363281 49.980469 128.792969 49.640625 129.136719 48.660156 129.15625 47.976562zM127.570312 53.640625C127.605469 53.078125 128.035156 52.546875 127.984375 52.121094 127.789062 52.230469 127.796875 52.53125 127.570312 52.609375 127.378906 52.382812 127.625 51.71875 127.429688 51.5 127.191406 52.03125 126.886719 53.359375 127.570312 53.640625zM124.113281 59.035156C124.183594 58.621094 124.414062 58.367188 124.320312 57.789062 123.96875 57.714844 124.398438 58.421875 124.046875 58.34375 123.257812 57.683594 123.878906 55.542969 123.628906 54.679688 123.542969 56.097656 123.03125 58.316406 124.113281 59.035156zM123.007812 57.167969C122.96875 56.703125 122.492188 56.835938 122.246094 56.613281 121.800781 56.210938 121.902344 55.636719 121.761719 54.886719 121.542969 56.039062 121.773438 57.246094 123.007812 57.167969zM125.980469 58.414062C125.996094 58.359375 126.039062 58.332031 126.117188 58.34375 126.171875 58.082031 126.238281 57.757812 126.117188 57.511719 125.828125 57.40625 126.109375 57.871094 125.910156 57.859375 125.296875 57.53125 125.316406 56.566406 125.078125 55.855469 125.15625 56.929688 125.023438 58.214844 125.980469 58.414062zM124.527344 65.253906C125.644531 65.125 125.769531 62.789062 125.773438 61.523438 125.445312 62.359375 125.488281 64.96875 124.390625 64.90625 123.351562 64.851562 123.34375 62.441406 123.078125 61.523438 123.160156 62.980469 123.21875 65.40625 124.527344 65.253906zM126.878906 67.121094C127.050781 68.484375 126.488281 70.488281 127.085938 71.683594 128.136719 71.871094 128.617188 70.550781 128.949219 69.816406 129.34375 68.949219 129.640625 68.109375 129.78125 67.398438 129.839844 69.273438 128.929688 70.785156 128.050781 71.957031 127.269531 72.40625 126.738281 71.808594 126.460938 71.335938 125.878906 72.019531 125.699219 73.238281 124.667969 73.269531 123.496094 73.308594 123.238281 71.796875 122.800781 70.78125 122.308594 71.289062 122.550781 72.210938 121.625 72.234375 120.183594 72.269531 119.648438 68.964844 119.273438 67.8125 119.648438 68.488281 119.855469 69.230469 120.242188 70.09375 120.496094 70.65625 120.996094 71.902344 121.625 71.890625 122.816406 71.863281 122.40625 68.503906 122.386719 67.328125 122.773438 69.476562 123.148438 71.636719 124.460938 72.859375 126.449219 72.128906 126.378906 69.34375 126.878906 67.121094zM126.460938 73.546875C126.859375 74.476562 125.824219 76.433594 126.949219 76.933594 128.265625 76.550781 128.289062 74.867188 128.8125 73.683594 128.828125 75.386719 128.058594 77.921875 126.117188 77.210938 125.871094 77.628906 125.640625 78.070312 125.289062 78.386719 124.847656 78.464844 124.660156 78.398438 124.183594 78.386719 123.84375 78.011719 123.570312 77.570312 123.351562 77.074219 122.03125 78.628906 120.890625 75.691406 120.726562 74.238281 121.214844 75.140625 121.367188 77.214844 122.523438 77.074219 123.6875 76.929688 122.769531 74.878906 122.9375 73.683594 123.273438 74.953125 123.390625 78.066406 124.941406 77.902344 126.210938 77.765625 126.039062 74.609375 126.460938 73.546875zM126.324219 53.921875C126.265625 55.15625 126.363281 56.765625 127.222656 57.304688 127.613281 57.449219 127.566406 56.921875 127.777344 57.101562 127.949219 57.324219 127.707031 57.59375 127.570312 57.71875 126.234375 57.414062 126.164062 55.496094 126.324219 53.921875zM119.414062 60.621094C119.78125 61.707031 120.03125 63.429688 120.519531 64.355469 120.628906 64.558594 120.972656 65.082031 121.28125 65.046875 121.988281 64.960938 122.203125 62.554688 122.246094 61.660156 122.261719 61.390625 122.238281 61.050781 122.246094 60.761719 122.738281 62.28125 122.660156 64.769531 123.628906 65.808594 124.003906 66.207031 124.445312 66.296875 124.941406 65.945312 126.117188 65.109375 126.402344 62.734375 126.601562 60.828125 126.820312 61.757812 126.441406 64.246094 127.292969 64.976562 128.710938 64.527344 128.78125 62.734375 129.019531 61.109375 129.328125 61.949219 129.046875 63.386719 129.640625 63.941406 130.773438 63.390625 130.929688 61.863281 131.234375 60.484375 131.378906 61.21875 130.835938 64.617188 129.710938 64.425781 129.238281 64.34375 129.371094 63.59375 128.949219 63.316406 128.761719 64.746094 127.164062 66.664062 126.460938 64.425781 125.703125 65.207031 125.703125 66.75 124.046875 66.636719 123.140625 65.996094 122.855469 64.738281 122.316406 63.734375 122.03125 64.253906 121.851562 64.878906 121.625 65.460938 120.425781 65.730469 120.234375 64.480469 119.898438 63.664062 119.503906 63.773438 119.441406 64.222656 119.136719 64.425781 117.84375 63.898438 117.941406 61.980469 117.824219 60.277344 118.140625 61.710938 118.101562 63.503906 119.207031 64.148438 119.886719 63.460938 119.421875 61.683594 119.414062 60.621094zM123.214844 69.125C123.761719 69.894531 123.804688 71.164062 124.527344 71.75 125.460938 71.390625 125.503906 70.148438 125.839844 69.191406 125.839844 70.355469 125.621094 72.230469 124.253906 72.027344 123.75 71.214844 123.449219 70.203125 123.214844 69.125zM125.980469 74.101562C125.9375 73.761719 126.183594 74.171875 125.980469 74.171875 125.875 75.28125 125.667969 76.898438 124.804688 77.003906 123.835938 77.121094 123.738281 75.332031 123.492188 74.378906 123.917969 75.101562 123.976562 76.199219 124.734375 76.585938 125.414062 76.023438 125.605469 74.96875 125.980469 74.101562zm0 0"/><path style="stroke:none;fill-rule:nonzero;fill:#fff;fill-opacity:1" d="M125.703125 35.949219C125.914062 36.015625 125.921875 36.289062 126.1875 36.296875 126.503906 36.21875 126.632812 35.957031 127.015625 35.949219 127.335938 36.589844 125.539062 36.820312 125.703125 35.949219zm0 0"/></g></svg>