<svg height="512pt" viewBox="0 0 512 512" width="512pt" xmlns="http://www.w3.org/2000/svg"><path d="m512 256c0 68.378906-26.628906 132.671875-74.980469 181.019531-48.347656 48.351563-112.640625 74.980469-181.019531 74.980469s-132.671875-26.628906-181.019531-74.980469c-48.351563-48.347656-74.980469-112.640625-74.980469-181.019531s26.628906-132.671875 74.980469-181.019531c48.347656-48.351563 112.640625-74.980469 181.019531-74.980469s132.671875 26.628906 181.019531 74.980469c48.351563 48.347656 74.980469 112.640625 74.980469 181.019531zm0 0" fill="#ffe171"/><path d="m512 256c0 68.378906-26.628906 132.671875-74.980469 181.019531-48.347656 48.351563-112.640625 74.980469-181.019531 74.980469v-512c68.378906 0 132.671875 26.628906 181.019531 74.980469 48.351563 48.347656 74.980469 112.640625 74.980469 181.019531zm0 0" fill="#ffd300"/><path d="m363.238281 390.121094-26.207031 14.589844c-16.371094-29.410157-47.421875-47.671876-81.03125-47.671876s-64.660156 18.261719-81.03125 47.671876l-26.207031-14.589844c21.660156-38.910156 62.75-63.082032 107.238281-63.082032s85.578125 24.171876 107.238281 63.082032zm0 0" fill="#b26d3c"/><path d="m419.195312 198.097656c0 40.921875-33.175781 74.097656-74.097656 74.097656s-74.097656-33.175781-74.097656-74.097656 33.175781-74.097656 74.097656-74.097656 74.097656 33.175781 74.097656 74.097656zm0 0" fill="#169eff"/><path d="m345.097656 109c-49.128906 0-89.097656 39.96875-89.097656 89.097656s39.96875 89.097656 89.097656 89.097656c22.65625 0 43.359375-8.503906 59.097656-22.480468v247.285156h30v-313.902344c0-49.128906-39.96875-89.097656-89.097656-89.097656zm0 148.195312c-32.585937 0-59.097656-26.511718-59.097656-59.097656 0-32.585937 26.511719-59.097656 59.097656-59.097656 32.585938 0 59.097656 26.511719 59.097656 59.097656 0 32.585938-26.511718 59.097656-59.097656 59.097656zm0 0" fill="#7a3d06"/><path d="m120 183.097656h78v30h-78zm0 0" fill="#b26d3c"/><path d="m363.238281 390.121094-26.207031 14.589844c-16.371094-29.410157-47.421875-47.671876-81.03125-47.671876v-30c44.488281 0 85.578125 24.171876 107.238281 63.082032zm0 0" fill="#7a3d06"/></svg>