<svg height="512pt" viewBox="0 0 512 512" width="512pt" xmlns="http://www.w3.org/2000/svg"><path d="m512 256c0 62.460938-22.21875 121.511719-62.921875 168.109375-3.847656 4.421875-25.371094 3.039063-25.371094 3.039063s6.792969 16.222656 3.433594 19.25c-47.0625 42.402343-107.320313 65.601562-171.140625 65.601562-63.710938 0-123.871094-23.121094-170.890625-65.378906-3.449219-3.101563-3.652344-15.097656-3.652344-15.097656s-14.535156-2.84375-18.316406-7.171876c-40.839844-46.640624-63.140625-105.78125-63.140625-168.351562 0-9.859375.550781-19.640625 1.648438-29.289062.59375-5.242188 7.691406-10.175782 7.691406-10.175782s-3.496094-15.585937-2.300782-20.59375c10.871094-45.421875 34.082032-87.101562 67.941407-120.960937 48.347656-48.351563 112.640625-74.980469 181.019531-74.980469s132.671875 26.628906 181.019531 74.980469c33.929688 33.929687 57.171875 75.71875 68.011719 121.257812 1.308594 5.507813-5.78125 16.671875-5.78125 16.671875s10.601562 9.375 11.128906 14.109375c1.082032 9.550781 1.621094 19.21875 1.621094 28.980469zm0 0" fill="#ffe171"/><path d="m512 256c0 62.460938-22.21875 121.507812-62.914062 168.113281-3.859376 4.417969-18.789063 6.386719-18.789063 6.386719s.207031 12.871094-3.15625 15.898438c-47.0625 42.40625-107.320313 65.601562-171.140625 65.601562v-512c68.378906 0 132.671875 26.628906 181.019531 74.980469 33.933594 33.933593 57.167969 75.71875 68.007813 121.261719 1.289062 5.417968-4.09375 19.96875-4.09375 19.96875s8.914062 5.988281 9.453125 10.808593c1.070312 9.554688 1.613281 19.226563 1.613281 28.980469zm0 0" fill="#ffd300"/><path d="m340.136719 212.378906c-30.695313 0-55.667969-24.972656-55.667969-55.667968h30c0 14.152343 11.515625 25.667968 25.667969 25.667968 14.152343 0 25.667969-11.515625 25.667969-25.667968h30c0 30.695312-24.972657 55.667968-55.667969 55.667968zm0 0" fill="#7a3d06"/><path d="m171.863281 212.378906c-30.695312 0-55.667969-24.972656-55.667969-55.667968h30c0 14.152343 11.515626 25.667968 25.667969 25.667968 14.152344 0 25.667969-11.515625 25.667969-25.667968h30c0 30.695312-24.972656 55.667968-55.667969 55.667968zm0 0" fill="#b26d3c"/><path d="m386.570312 390.679688 62.507813 33.429687c-3.847656 4.421875-7.867187 8.71875-12.058594 12.910156-3.21875 3.21875-6.519531 6.351563-9.878906 9.378907l-57.96875-31c-29.871094 19.570312-70.222656 30.601562-113.171875 30.601562-42.808594 0-83.039062-10.949219-112.871094-30.398438l-58.019531 31.019532c-3.449219-3.101563-6.828125-6.300782-10.128906-9.601563-4.109375-4.109375-8.058594-8.339843-11.839844-12.667969l62.289063-33.3125v-103.800781l-123.78125-60.527343c1.179687-10.410157 2.980468-20.679688 5.390624-30.769532l135.5625 66.289063c29.886719-19.671875 70.339844-30.75 113.398438-30.75 43.199219 0 83.769531 11.160156 113.691406 30.941406l135.339844-66.183594c2.398438 10.089844 4.1875 20.363281 5.347656 30.78125l-123.808594 60.539063zm0 0" fill="#dcf3ff"/><path d="m386.570312 390.679688 62.507813 33.429687c-3.847656 4.421875-7.867187 8.71875-12.058594 12.910156-3.21875 3.21875-6.519531 6.351563-9.878906 9.378907l-57.96875-31c-29.871094 19.570312-70.222656 30.601562-113.171875 30.601562v-214.519531c43.199219 0 83.769531 11.160156 113.691406 30.941406l135.339844-66.183594c2.398438 10.089844 4.1875 20.363281 5.347656 30.78125l-123.808594 60.539063zm0 0" fill="#b0e2fa"/></svg>