<svg xmlns="http://www.w3.org/2000/svg" xmlns:xlink="http://www.w3.org/1999/xlink" width="300pt" height="150pt" viewBox="0 0 300 150"><defs><clipPath id="clip1"><path d="M0 0H132V75H0zM0 0"/></clipPath><clipPath id="clip2"><path d="M0 0V37.5H137.5V75h-6.25zM131.25.0H65.625V81.25H0V75zm0 0"/></clipPath><clipPath id="clip3"><path d="M0 0H138V82H0zM0 0"/></clipPath><clipPath id="clip4"><path d="M0 0V37.5H137.5V75h-6.25zM131.25.0H65.625V81.25H0V75zm0 0"/></clipPath></defs><g id="surface1"><path d="M0 0h3e2v150H0z" style="fill:#00247d;fill-opacity:1;stroke:none"/><path style="fill-rule:nonzero;fill:#000;fill-opacity:1;stroke-width:2.4;stroke-linecap:butt;stroke-linejoin:miter;stroke:#fff;stroke-opacity:1;stroke-miterlimit:4" d="M0 0 21 12M21 0 0 12" transform="matrix(6.25,0,0,6.25,0,0)"/><g clip-path="url(#clip1)" clip-rule="nonzero"><g clip-path="url(#clip2)" clip-rule="nonzero"><path style="stroke:none;fill-rule:nonzero;fill:#000;fill-opacity:1" d="M0 0 131.25 75m0-75L0 75"/></g></g><g clip-path="url(#clip3)" clip-rule="nonzero"><g clip-path="url(#clip4)" clip-rule="nonzero"><path style="fill:none;stroke-width:1.6;stroke-linecap:butt;stroke-linejoin:miter;stroke:#cf142b;stroke-opacity:1;stroke-miterlimit:4" d="M0 0 21 12M21 0 0 12" transform="matrix(6.25,0,0,6.25,0,0)"/></g></g><path style="fill-rule:nonzero;fill:#000;fill-opacity:1;stroke-width:4;stroke-linecap:butt;stroke-linejoin:miter;stroke:#fff;stroke-opacity:1;stroke-miterlimit:4" d="M10.5.0V15M0 6H24" transform="matrix(6.25,0,0,6.25,0,0)"/><path style="fill-rule:nonzero;fill:#000;fill-opacity:1;stroke-width:2.4;stroke-linecap:butt;stroke-linejoin:miter;stroke:#cf142b;stroke-opacity:1;stroke-miterlimit:4" d="M10.5.0V15M0 6H24" transform="matrix(6.25,0,0,6.25,0,0)"/><path style="stroke:none;fill-rule:nonzero;fill:#fff;fill-opacity:1" d="M131.25 75V56.25L150 37.5 131.25 18.75V0H3e2V150H0V112.5zm0 0"/><path style="stroke:none;fill-rule:nonzero;fill:#00247d;fill-opacity:1" d="M131.25 37.5V56.25H3e2V18.75zM0 93.75V112.5H3e2V75zm0 0"/><path style="fill-rule:nonzero;fill:#000;fill-opacity:1;stroke-width:3;stroke-linecap:butt;stroke-linejoin:miter;stroke:#cf142b;stroke-opacity:1;stroke-miterlimit:4" d="M21 4.5H48m-48 9H48m-48 9H48" transform="matrix(6.25,0,0,6.25,0,0)"/></g></svg>