<svg xmlns="http://www.w3.org/2000/svg" xmlns:xlink="http://www.w3.org/1999/xlink" width="212pt" height="150pt" viewBox="0 0 212 150"><g id="surface1"><path d="M0 0h212v150H0z" style="fill:#0f204b;fill-opacity:1;stroke:none"/><path style="stroke:none;fill-rule:nonzero;fill:#ffb612;fill-opacity:1" d="M173.371094 19.5 170.96875 26.917969 174.667969 28.125zm0 0"/><path style="stroke:none;fill-rule:nonzero;fill:#ffb612;fill-opacity:1" d="M173.371094 19.5 175.777344 26.917969 172.078125 28.125zm0 0"/><path style="stroke:none;fill-rule:nonzero;fill:#ffb612;fill-opacity:1" d="M180.777344 24.890625H172.992188V28.789062zm0 0"/><path style="stroke:none;fill-rule:nonzero;fill:#ffb612;fill-opacity:1" d="M180.777344 24.890625 174.480469 29.472656 172.191406 26.320312zm0 0"/><path style="stroke:none;fill-rule:nonzero;fill:#ffb612;fill-opacity:1" d="M165.96875 24.890625 172.265625 29.472656 174.554688 26.320312zm0 0"/><path style="stroke:none;fill-rule:nonzero;fill:#ffb612;fill-opacity:1" d="M165.96875 24.890625H173.753906V28.789062zm0 0"/><path style="stroke:none;fill-rule:nonzero;fill:#ffb612;fill-opacity:1" d="M177.949219 33.609375 175.542969 26.191406 171.839844 27.398438zm0 0"/><path style="stroke:none;fill-rule:nonzero;fill:#ffb612;fill-opacity:1" d="M177.949219 33.609375 171.652344 29.027344 173.9375 25.871094zm0 0"/><path style="stroke:none;fill-rule:nonzero;fill:#ffb612;fill-opacity:1" d="M168.796875 33.609375 175.09375 29.027344 172.808594 25.871094zm0 0"/><path style="stroke:none;fill-rule:nonzero;fill:#ffb612;fill-opacity:1" d="M168.796875 33.609375 171.203125 26.191406 174.90625 27.398438zm0 0"/><path style="stroke:none;fill-rule:nonzero;fill:#ffb612;fill-opacity:1" d="M34.285156 54.75 32.851562 59.171875 35.058594 59.890625zm0 0"/><path style="stroke:none;fill-rule:nonzero;fill:#ffb612;fill-opacity:1" d="M34.285156 54.75 35.71875 59.171875 33.511719 59.890625zm0 0"/><path style="stroke:none;fill-rule:nonzero;fill:#ffb612;fill-opacity:1" d="M38.699219 57.964844H34.058594V60.289062zm0 0"/><path style="stroke:none;fill-rule:nonzero;fill:#ffb612;fill-opacity:1" d="M38.699219 57.964844 34.945312 60.695312 33.582031 58.816406zm0 0"/><path style="stroke:none;fill-rule:nonzero;fill:#ffb612;fill-opacity:1" d="M29.871094 57.964844 33.625 60.695312 34.988281 58.816406zm0 0"/><path style="stroke:none;fill-rule:nonzero;fill:#ffb612;fill-opacity:1" d="M29.871094 57.964844h4.640625V60.289062zm0 0"/><path style="stroke:none;fill-rule:nonzero;fill:#ffb612;fill-opacity:1" d="M37.011719 63.160156 35.578125 58.738281 33.371094 59.457031zm0 0"/><path style="stroke:none;fill-rule:nonzero;fill:#ffb612;fill-opacity:1" d="M37.011719 63.160156 33.257812 60.429688 34.621094 58.546875zm0 0"/><path style="stroke:none;fill-rule:nonzero;fill:#ffb612;fill-opacity:1" d="M31.558594 63.160156 35.3125 60.429688 33.949219 58.546875zm0 0"/><path style="stroke:none;fill-rule:nonzero;fill:#ffb612;fill-opacity:1" d="M31.558594 63.160156 32.992188 58.738281 35.199219 59.457031zm0 0"/><path style="stroke:none;fill-rule:nonzero;fill:#ffb612;fill-opacity:1" d="M59.289062 64.050781 57.855469 68.472656 60.0625 69.191406zm0 0"/><path style="stroke:none;fill-rule:nonzero;fill:#ffb612;fill-opacity:1" d="M59.289062 64.050781 60.722656 68.472656 58.515625 69.191406zm0 0"/><path style="stroke:none;fill-rule:nonzero;fill:#ffb612;fill-opacity:1" d="M63.703125 67.261719H59.0625v2.328125zm0 0"/><path style="stroke:none;fill-rule:nonzero;fill:#ffb612;fill-opacity:1" d="M63.703125 67.261719 59.949219 69.996094 58.582031 68.117188zm0 0"/><path style="stroke:none;fill-rule:nonzero;fill:#ffb612;fill-opacity:1" d="M54.875 67.261719 58.628906 69.996094 59.992188 68.117188zm0 0"/><path style="stroke:none;fill-rule:nonzero;fill:#ffb612;fill-opacity:1" d="M54.875 67.261719h4.640625v2.328125zm0 0"/><path style="stroke:none;fill-rule:nonzero;fill:#ffb612;fill-opacity:1" d="M62.015625 72.460938 60.582031 68.039062 58.375 68.757812zm0 0"/><path style="stroke:none;fill-rule:nonzero;fill:#ffb612;fill-opacity:1" d="M62.015625 72.460938 58.261719 69.730469 59.625 67.847656zm0 0"/><path style="stroke:none;fill-rule:nonzero;fill:#ffb612;fill-opacity:1" d="M56.558594 72.460938 60.316406 69.730469 58.949219 67.847656zm0 0"/><path style="stroke:none;fill-rule:nonzero;fill:#ffb612;fill-opacity:1" d="M56.558594 72.460938 57.996094 68.039062 60.203125 68.757812zm0 0"/><path style="stroke:none;fill-rule:nonzero;fill:#ffb612;fill-opacity:1" d="M71.714844 77.398438 70.28125 81.824219 72.488281 82.539062zm0 0"/><path style="stroke:none;fill-rule:nonzero;fill:#ffb612;fill-opacity:1" d="M71.714844 77.398438 73.148438 81.824219 70.941406 82.539062zm0 0"/><path style="stroke:none;fill-rule:nonzero;fill:#ffb612;fill-opacity:1" d="M76.128906 80.613281H71.488281V82.9375zm0 0"/><path style="stroke:none;fill-rule:nonzero;fill:#ffb612;fill-opacity:1" d="M76.128906 80.613281 72.375 83.347656 71.011719 81.464844zm0 0"/><path style="stroke:none;fill-rule:nonzero;fill:#ffb612;fill-opacity:1" d="M67.300781 80.613281 71.054688 83.347656 72.417969 81.464844zm0 0"/><path style="stroke:none;fill-rule:nonzero;fill:#ffb612;fill-opacity:1" d="M67.300781 80.613281h4.640625V82.9375zm0 0"/><path style="stroke:none;fill-rule:nonzero;fill:#ffb612;fill-opacity:1" d="M74.441406 85.8125 73.007812 81.390625 70.800781 82.109375zm0 0"/><path style="stroke:none;fill-rule:nonzero;fill:#ffb612;fill-opacity:1" d="M74.441406 85.8125 70.6875 83.078125 72.050781 81.199219zm0 0"/><path style="stroke:none;fill-rule:nonzero;fill:#ffb612;fill-opacity:1" d="M68.988281 85.8125 72.742188 83.078125 71.378906 81.199219zm0 0"/><path style="stroke:none;fill-rule:nonzero;fill:#ffb612;fill-opacity:1" d="M68.988281 85.8125 70.421875 81.390625 72.628906 82.109375zm0 0"/><path style="stroke:none;fill-rule:nonzero;fill:#ffb612;fill-opacity:1" d="M84.289062 91.351562 82.855469 95.773438 85.0625 96.492188zm0 0"/><path style="stroke:none;fill-rule:nonzero;fill:#ffb612;fill-opacity:1" d="M84.289062 91.351562 85.726562 95.773438 83.519531 96.492188zm0 0"/><path style="stroke:none;fill-rule:nonzero;fill:#ffb612;fill-opacity:1" d="M88.703125 94.5625H84.0625V96.886719zm0 0"/><path style="stroke:none;fill-rule:nonzero;fill:#ffb612;fill-opacity:1" d="M88.703125 94.5625 84.949219 97.296875 83.585938 95.414062zm0 0"/><path style="stroke:none;fill-rule:nonzero;fill:#ffb612;fill-opacity:1" d="M79.875 94.5625 83.632812 97.296875 84.996094 95.414062zm0 0"/><path style="stroke:none;fill-rule:nonzero;fill:#ffb612;fill-opacity:1" d="M79.875 94.5625H84.519531V96.886719zm0 0"/><path style="stroke:none;fill-rule:nonzero;fill:#ffb612;fill-opacity:1" d="M87.019531 99.761719 85.585938 95.339844 83.378906 96.058594zm0 0"/><path style="stroke:none;fill-rule:nonzero;fill:#ffb612;fill-opacity:1" d="M87.019531 99.761719 83.265625 97.027344 84.628906 95.148438zm0 0"/><path style="stroke:none;fill-rule:nonzero;fill:#ffb612;fill-opacity:1" d="M81.5625 99.761719 85.316406 97.027344 83.953125 95.148438zm0 0"/><path style="stroke:none;fill-rule:nonzero;fill:#ffb612;fill-opacity:1" d="M81.5625 99.761719 82.996094 95.339844 85.203125 96.058594zm0 0"/><path style="stroke:none;fill-rule:nonzero;fill:#ffb612;fill-opacity:1" d="M121.71875 104.699219 120.285156 109.121094 122.492188 109.839844zm0 0"/><path style="stroke:none;fill-rule:nonzero;fill:#ffb612;fill-opacity:1" d="M121.71875 104.699219l1.4375 4.421875L120.949219 109.839844zm0 0"/><path style="stroke:none;fill-rule:nonzero;fill:#ffb612;fill-opacity:1" d="M126.132812 107.914062H121.492188V110.238281zm0 0"/><path style="stroke:none;fill-rule:nonzero;fill:#ffb612;fill-opacity:1" d="M126.132812 107.914062 122.378906 110.644531 121.015625 108.765625zm0 0"/><path style="stroke:none;fill-rule:nonzero;fill:#ffb612;fill-opacity:1" d="M117.304688 107.914062 121.0625 110.644531 122.425781 108.765625zm0 0"/><path style="stroke:none;fill-rule:nonzero;fill:#ffb612;fill-opacity:1" d="M117.304688 107.914062H121.949219V110.238281zm0 0"/><path style="stroke:none;fill-rule:nonzero;fill:#ffb612;fill-opacity:1" d="M124.449219 113.113281 123.015625 108.691406 120.808594 109.40625zm0 0"/><path style="stroke:none;fill-rule:nonzero;fill:#ffb612;fill-opacity:1" d="M124.449219 113.113281 120.695312 110.378906 122.058594 108.496094zm0 0"/><path style="stroke:none;fill-rule:nonzero;fill:#ffb612;fill-opacity:1" d="M118.992188 113.113281 122.746094 110.378906 121.382812 108.496094zm0 0"/><path style="stroke:none;fill-rule:nonzero;fill:#ffb612;fill-opacity:1" d="M118.992188 113.113281 120.425781 108.691406 122.632812 109.40625zm0 0"/><path style="stroke:none;fill-rule:nonzero;fill:#ffb612;fill-opacity:1" d="M82.644531 111 81.210938 115.421875 83.417969 116.140625zm0 0"/><path style="stroke:none;fill-rule:nonzero;fill:#ffb612;fill-opacity:1" d="M82.644531 111 84.078125 115.421875 81.871094 116.140625zm0 0"/><path style="stroke:none;fill-rule:nonzero;fill:#ffb612;fill-opacity:1" d="M87.058594 114.214844H82.417969V116.539062zm0 0"/><path style="stroke:none;fill-rule:nonzero;fill:#ffb612;fill-opacity:1" d="M87.058594 114.214844 83.304688 116.945312 81.9375 115.066406zm0 0"/><path style="stroke:none;fill-rule:nonzero;fill:#ffb612;fill-opacity:1" d="M78.230469 114.214844 81.984375 116.945312 83.347656 115.066406zm0 0"/><path style="stroke:none;fill-rule:nonzero;fill:#ffb612;fill-opacity:1" d="M78.230469 114.214844h4.640625V116.539062zm0 0"/><path style="stroke:none;fill-rule:nonzero;fill:#ffb612;fill-opacity:1" d="M85.371094 119.410156 83.9375 114.988281 81.730469 115.707031zm0 0"/><path style="stroke:none;fill-rule:nonzero;fill:#ffb612;fill-opacity:1" d="M85.371094 119.410156 81.617188 116.679688 82.980469 114.796875zm0 0"/><path style="stroke:none;fill-rule:nonzero;fill:#ffb612;fill-opacity:1" d="M79.914062 119.410156 83.671875 116.679688 82.308594 114.796875zm0 0"/><path style="stroke:none;fill-rule:nonzero;fill:#ffb612;fill-opacity:1" d="M79.914062 119.410156l1.4375-4.421875L83.558594 115.707031zm0 0"/><path style="stroke:none;fill-rule:nonzero;fill:#ffb612;fill-opacity:1" d="M110.789062 120.300781 109.355469 124.722656 111.5625 125.441406zm0 0"/><path style="stroke:none;fill-rule:nonzero;fill:#ffb612;fill-opacity:1" d="M110.789062 120.300781l1.4375 4.421875L110.019531 125.441406zm0 0"/><path style="stroke:none;fill-rule:nonzero;fill:#ffb612;fill-opacity:1" d="M115.203125 123.511719H110.5625v2.328125zm0 0"/><path style="stroke:none;fill-rule:nonzero;fill:#ffb612;fill-opacity:1" d="M115.203125 123.511719 111.449219 126.246094 110.085938 124.367188zm0 0"/><path style="stroke:none;fill-rule:nonzero;fill:#ffb612;fill-opacity:1" d="M106.375 123.511719 110.132812 126.246094 111.496094 124.367188zm0 0"/><path style="stroke:none;fill-rule:nonzero;fill:#ffb612;fill-opacity:1" d="M106.375 123.511719H111.019531v2.328125zm0 0"/><path style="stroke:none;fill-rule:nonzero;fill:#ffb612;fill-opacity:1" d="M113.519531 128.710938 112.085938 124.289062 109.878906 125.007812zm0 0"/><path style="stroke:none;fill-rule:nonzero;fill:#ffb612;fill-opacity:1" d="M113.519531 128.710938 109.765625 125.980469 111.128906 124.097656zm0 0"/><path style="stroke:none;fill-rule:nonzero;fill:#ffb612;fill-opacity:1" d="M108.0625 128.710938 111.816406 125.980469 110.453125 124.097656zm0 0"/><path style="stroke:none;fill-rule:nonzero;fill:#ffb612;fill-opacity:1" d="M108.0625 128.710938 109.496094 124.289062 111.703125 125.007812zm0 0"/></g></svg>