<svg xmlns="http://www.w3.org/2000/svg" xmlns:xlink="http://www.w3.org/1999/xlink" width="225pt" height="150pt" viewBox="0 0 225 150"><defs><clipPath id="clip1"><path d="M0 0H98.375V98.375H0zM0 0"/></clipPath><clipPath id="clip2"><path d="M0 0H98.375V98.375H0zM0 0"/></clipPath></defs><g id="surface1"><path d="M0 0h225v150H0z" style="fill:#bf0a30;fill-opacity:1;stroke:none"/><path style="stroke:none;fill-rule:nonzero;fill:#000;fill-opacity:1" d="M0 0 97.5625 97.5625M0 97.5625 97.5625.0"/><g clip-path="url(#clip1)" clip-rule="nonzero"><path style="fill:none;stroke-width:12;stroke-linecap:butt;stroke-linejoin:miter;stroke:#fff;stroke-opacity:1;stroke-miterlimit:4" d="M0 0 60.000937 60.000937M0 60.000937 60.000937.0" transform="matrix(1.626016,0,0,1.626016,0,0)"/></g><path style="stroke:none;fill-rule:nonzero;fill:#000;fill-opacity:1" d="M0 0 97.5625 97.5625M0 97.5625 97.5625.0"/><g clip-path="url(#clip2)" clip-rule="nonzero"><path style="fill:none;stroke-width:9;stroke-linecap:butt;stroke-linejoin:miter;stroke:#002868;stroke-opacity:1;stroke-miterlimit:4" d="M0 0 60.000937 60.000937M0 60.000937 60.000937.0" transform="matrix(1.626016,0,0,1.626016,0,0)"/></g><path style="stroke:none;fill-rule:nonzero;fill:#fff;fill-opacity:1" d="M9.757812 4.878906 12.625 13.703125 5.117188 8.25H14.394531L6.890625 13.703125zm0 0"/><path style="stroke:none;fill-rule:nonzero;fill:#fff;fill-opacity:1" d="M22.765625 17.886719 25.632812 26.710938 18.125 21.257812h9.277344L19.898438 26.710938zm0 0"/><path style="stroke:none;fill-rule:nonzero;fill:#fff;fill-opacity:1" d="M35.773438 30.894531 38.640625 39.71875 31.132812 34.265625h9.277344L32.90625 39.71875zm0 0"/><path style="stroke:none;fill-rule:nonzero;fill:#fff;fill-opacity:1" d="M61.789062 56.910156 64.65625 65.734375 57.148438 60.28125h9.28125L58.921875 65.734375zm0 0"/><path style="stroke:none;fill-rule:nonzero;fill:#fff;fill-opacity:1" d="M74.796875 69.917969 77.664062 78.742188 70.15625 73.289062H79.4375L71.929688 78.742188zm0 0"/><path style="stroke:none;fill-rule:nonzero;fill:#fff;fill-opacity:1" d="M87.804688 82.925781 90.671875 91.75 83.164062 86.296875h9.28125L84.9375 91.75zm0 0"/><path style="stroke:none;fill-rule:nonzero;fill:#fff;fill-opacity:1" d="M87.804688 4.878906 84.9375 13.703125 92.445312 8.25h-9.28125L90.671875 13.703125zm0 0"/><path style="stroke:none;fill-rule:nonzero;fill:#fff;fill-opacity:1" d="M74.796875 17.886719 71.929688 26.710938 79.4375 21.257812H70.15625L77.664062 26.710938zm0 0"/><path style="stroke:none;fill-rule:nonzero;fill:#fff;fill-opacity:1" d="M61.789062 30.894531 58.921875 39.71875 66.429688 34.265625h-9.28125L64.65625 39.71875zm0 0"/><path style="stroke:none;fill-rule:nonzero;fill:#fff;fill-opacity:1" d="M35.773438 56.910156 32.90625 65.734375 40.410156 60.28125H31.132812L38.640625 65.734375zm0 0"/><path style="stroke:none;fill-rule:nonzero;fill:#fff;fill-opacity:1" d="M22.765625 69.917969 19.898438 78.742188 27.402344 73.289062H18.125L25.632812 78.742188zm0 0"/><path style="stroke:none;fill-rule:nonzero;fill:#fff;fill-opacity:1" d="M9.757812 82.925781 6.890625 91.75 14.394531 86.296875H5.117188L12.625 91.75zm0 0"/><path style="stroke:none;fill-rule:nonzero;fill:#fff;fill-opacity:1" d="M48.78125 43.902344 51.648438 52.726562 44.140625 47.273438h9.277344L45.914062 52.726562zm0 0"/><path style="stroke:none;fill-rule:nonzero;fill:#fff;fill-opacity:1" d="M97.5625.0H225V1e2H0V97.5625H97.5625zm0 0"/><path style="stroke:none;fill-rule:nonzero;fill:#002868;fill-opacity:1" d="M1e2.0H225V50H1e2zm0 0"/></g></svg>