<svg xmlns="http://www.w3.org/2000/svg" xmlns:xlink="http://www.w3.org/1999/xlink" width="250pt" height="150pt" viewBox="0 0 250 150"><g id="surface1"><path style="stroke:none;fill-rule:nonzero;fill:#c00;fill-opacity:1" d="M0 0H231.25V150H0zM0 0"/><path style="stroke:none;fill-rule:nonzero;fill:#fff;fill-opacity:1" d="M231.25.0h3.125V150H231.25zm0 0"/><path style="stroke:none;fill-rule:nonzero;fill:#002d65;fill-opacity:1" d="M234.375.0H250V150H234.375zm0 0"/><path style="stroke:none;fill-rule:nonzero;fill:#fff;fill-opacity:1" d="M156.25 75c0 22.4375-18.1875 40.625-40.625 40.625C93.1875 115.625 75 97.4375 75 75c0-22.4375 18.1875-40.625 40.625-40.625 22.4375.0 40.625 18.1875 40.625 40.625zm0 0"/><path style="stroke:none;fill-rule:nonzero;fill:#002d65;fill-opacity:1" d="M153.125 75c0 20.710938-16.789062 37.5-37.5 37.5-20.710938.0-37.5-16.789062-37.5-37.5.0-20.710938 16.789062-37.5 37.5-37.5 20.710938.0 37.5 16.789062 37.5 37.5zm0 0"/><path style="stroke:none;fill-rule:nonzero;fill:#fff;fill-opacity:1" d="M115.140625 76.484375 104.734375 90.8125 111.898438 96.015625"/><path style="stroke:none;fill-rule:nonzero;fill:#fff;fill-opacity:1" d="M115.140625 76.484375V94.195312H106.289062"/><path style="stroke:none;fill-rule:nonzero;fill:#fff;fill-opacity:1" d="M127.378906 93.328125 110.535156 87.855469l-2.734375 8.421875"/><path style="stroke:none;fill-rule:nonzero;fill:#fff;fill-opacity:1" d="M127.378906 93.328125 110.535156 98.800781l-2.734375-8.421875"/><path style="stroke:none;fill-rule:nonzero;fill:#fff;fill-opacity:1" d="M115.140625 110.167969V92.460938H106.289062"/><path style="stroke:none;fill-rule:nonzero;fill:#fff;fill-opacity:1" d="M115.140625 110.167969 104.734375 95.84375 111.898438 90.636719"/><path style="stroke:none;fill-rule:nonzero;fill:#fff;fill-opacity:1" d="M95.34375 103.738281 112.183594 98.265625l-2.734375-8.421875"/><path style="stroke:none;fill-rule:nonzero;fill:#fff;fill-opacity:1" d="M95.34375 103.738281l10.410156-14.328125L112.914062 94.613281"/><path style="stroke:none;fill-rule:nonzero;fill:#fff;fill-opacity:1" d="M95.34375 82.917969l10.410156 14.328125L112.914062 92.039062"/><path style="stroke:none;fill-rule:nonzero;fill:#fff;fill-opacity:1" d="M95.34375 82.917969 112.183594 88.390625 109.449219 96.8125"/><path style="stroke:none;fill-rule:nonzero;fill:#fff;fill-opacity:1" d="M114.578125 73.839844 107.375 57.660156 99.289062 61.261719"/><path style="stroke:none;fill-rule:nonzero;fill:#fff;fill-opacity:1" d="M114.578125 73.839844 99.242188 64.984375 103.671875 57.316406"/><path style="stroke:none;fill-rule:nonzero;fill:#fff;fill-opacity:1" d="M93.875 76.015625 107.035156 64.164062 101.113281 57.585938"/><path style="stroke:none;fill-rule:nonzero;fill:#fff;fill-opacity:1" d="M93.875 76.015625 97.558594 58.695312 106.21875 60.535156"/><path style="stroke:none;fill-rule:nonzero;fill:#fff;fill-opacity:1" d="M85.410156 56.996094 100.746094 65.851562 105.171875 58.183594"/><path style="stroke:none;fill-rule:nonzero;fill:#fff;fill-opacity:1" d="M85.410156 56.996094 103.019531 55.144531 103.945312 63.953125"/><path style="stroke:none;fill-rule:nonzero;fill:#fff;fill-opacity:1" d="M100.878906 43.066406 97.199219 60.390625 105.859375 62.230469"/><path style="stroke:none;fill-rule:nonzero;fill:#fff;fill-opacity:1" d="M100.878906 43.066406l7.203125 16.179688L99.992188 62.847656"/><path style="stroke:none;fill-rule:nonzero;fill:#fff;fill-opacity:1" d="M118.90625 53.476562 101.296875 55.328125 102.222656 64.132812"/><path style="stroke:none;fill-rule:nonzero;fill:#fff;fill-opacity:1" d="M118.90625 53.476562 105.746094 65.324219l-5.921875-6.578125"/><path style="stroke:none;fill-rule:nonzero;fill:#fff;fill-opacity:1" d="M117.152344 74.675781 134.765625 76.527344 135.691406 67.71875"/><path style="stroke:none;fill-rule:nonzero;fill:#fff;fill-opacity:1" d="M117.152344 74.675781 132.488281 65.820312 136.917969 73.488281"/><path style="stroke:none;fill-rule:nonzero;fill:#fff;fill-opacity:1" d="M125.621094 55.65625 129.300781 72.980469 137.964844 71.136719"/><path style="stroke:none;fill-rule:nonzero;fill:#fff;fill-opacity:1" d="M125.621094 55.65625 138.78125 67.507812 132.855469 74.085938"/><path style="stroke:none;fill-rule:nonzero;fill:#fff;fill-opacity:1" d="M146.324219 57.832031 130.988281 66.6875 135.414062 74.355469"/><path style="stroke:none;fill-rule:nonzero;fill:#fff;fill-opacity:1" d="M146.324219 57.832031l-7.203125 16.179688L131.03125 70.410156"/><path style="stroke:none;fill-rule:nonzero;fill:#fff;fill-opacity:1" d="M150.652344 78.195312 137.492188 66.347656 131.566406 72.925781"/><path style="stroke:none;fill-rule:nonzero;fill:#fff;fill-opacity:1" d="M150.652344 78.195312 133.039062 76.34375 133.964844 67.539062"/><path style="stroke:none;fill-rule:nonzero;fill:#fff;fill-opacity:1" d="M132.625 88.605469l7.203125-16.179688L131.738281 68.824219"/><path style="stroke:none;fill-rule:nonzero;fill:#fff;fill-opacity:1" d="M132.625 88.605469 128.941406 71.285156l8.660156-1.84375"/></g></svg>