<svg xmlns="http://www.w3.org/2000/svg" xmlns:xlink="http://www.w3.org/1999/xlink" width="225pt" height="150pt" viewBox="0 0 225 150"><g id="surface1"><path d="M0 0h225v150H0z" style="fill:#bf0a30;fill-opacity:1;stroke:none"/><path style="stroke:none;fill-rule:nonzero;fill:#002868;fill-opacity:1" d="M18.75 74.421875 112.113281 137.5 206.25 74.296875 112.113281 12.5zm0 0"/><path style="stroke:none;fill-rule:nonzero;fill:#fff;fill-opacity:1" d="M42 74.5625 112.207031 122 183 74.472656 112.207031 28zm0 0"/><path style="stroke:none;fill-rule:nonzero;fill:#002868;fill-opacity:1" d="M74.085938 72.507812H78.003906L78.683594 74.695312H81.09375L77.355469 64.082031H74.796875L71.011719 74.695312H73.347656zM76.039062 66.476562h.03125L77.382812 70.675781H74.679688zM82.523438 74.695312H84.695312v-4.15625H86.988281C87.777344 70.535156 88.269531 70.6875 88.46875 71.003906 88.664062 71.316406 88.746094 71.832031 88.71875 72.550781 88.71875 73.085938 88.738281 73.519531 88.78125 73.84375 88.820312 74.171875 88.878906 74.453125 88.953125 74.695312H91.40625v-.28125C91.179688 74.34375 91.042969 74.164062 90.992188 73.871094 90.945312 73.582031 90.925781 73.054688 90.933594 72.300781 90.933594 71.34375 90.816406 70.699219 90.589844 70.355469 90.359375 70.015625 90.027344 69.765625 89.589844 69.609375 90.117188 69.421875 90.523438 69.101562 90.804688 68.652344 91.085938 68.199219 91.226562 67.675781 91.230469 67.082031 91.242188 66.757812 91.160156 66.359375 90.992188 65.894531 90.820312 65.433594 90.496094 65.019531 90.011719 64.65625 89.527344 64.292969 88.820312 64.101562 87.890625 64.082031H82.523438zM84.695312 68.753906V65.914062H87.460938C88.09375 65.9375 88.515625 66.097656 88.726562 66.398438 88.933594 66.699219 89.03125 67 89.011719 67.304688 89.015625 67.824219 88.871094 68.195312 88.589844 68.421875 88.304688 68.648438 87.875 68.757812 87.296875 68.753906zM95.585938 71.101562 96.621094 70.039062l3.28125 4.65625H102.757812L98.171875 68.425781 102.503906 64.082031H99.636719L95.585938 68.398438V64.082031h-2.21875V74.695312h2.21875zm10.550781 1.40625H110.054688L110.734375 74.695312H113.144531L109.402344 64.082031H106.847656L103.0625 74.695312H105.398438zM108.085938 66.476562h.03125L109.433594 70.675781H106.726562zM121.046875 71.472656h-.03125L116.804688 64.082031H114.46875V74.695312H116.539062V67.125H116.566406L120.898438 74.695312h2.21875V64.082031H121.046875zM124.707031 71.429688C124.691406 71.886719 124.796875 72.386719 125.023438 72.933594 125.25 73.476562 125.691406 73.949219 126.347656 74.347656 127.003906 74.746094 127.972656 74.957031 129.246094 74.976562 129.589844 74.992188 130.089844 74.929688 130.746094 74.785156 131.398438 74.640625 132 74.320312 132.550781 73.820312 133.101562 73.324219 133.394531 72.550781 133.429688 71.5 133.40625 70.570312 133.121094 69.902344 132.582031 69.492188 132.042969 69.085938 131.398438 68.804688 130.652344 68.648438L128.0625 68.011719C127.824219 67.972656 127.582031 67.878906 127.335938 67.730469 127.089844 67.582031 126.960938 67.304688 126.941406 66.90625 126.964844 66.429688 127.167969 66.097656 127.546875 65.910156 127.929688 65.71875 128.34375 65.625 128.789062 65.632812 129.722656 65.671875 130.320312 65.878906 130.578125 66.253906 130.839844 66.632812 130.964844 66.957031 130.960938 67.230469H133.089844C133.09375 66.777344 132.976562 66.289062 132.734375 65.761719 132.492188 65.234375 132.066406 64.78125 131.464844 64.398438 130.863281 64.019531 130.023438 63.816406 128.949219 63.800781 127.816406 63.820312 126.953125 64.011719 126.363281 64.382812 125.769531 64.753906 125.371094 65.191406 125.164062 65.695312 124.953125 66.195312 124.855469 66.65625 124.871094 67.066406 124.902344 68.195312 125.25 68.957031 125.914062 69.351562 126.574219 69.75 127.351562 70.027344 128.242188 70.1875L129.378906 70.453125C129.949219 70.570312 130.410156 70.722656 130.761719 70.898438 131.113281 71.078125 131.292969 71.367188 131.300781 71.769531 131.273438 72.316406 131.035156 72.6875 130.585938 72.875 130.136719 73.066406 129.636719 73.15625 129.082031 73.144531 128.144531 73.109375 127.527344 72.894531 127.238281 72.507812 126.949219 72.117188 126.816406 71.757812 126.835938 71.429688zM137.375 72.507812H141.292969L141.972656 74.695312H144.382812L140.644531 64.082031H138.085938L134.300781 74.695312H136.636719zm1.953125-6.03125H139.355469L140.671875 70.675781H137.96875zM145.265625 71.429688C145.25 71.886719 145.355469 72.386719 145.582031 72.933594 145.808594 73.476562 146.25 73.949219 146.90625 74.347656 147.5625 74.746094 148.527344 74.957031 149.804688 74.976562 150.148438 74.992188 150.648438 74.929688 151.300781 74.785156 151.957031 74.640625 152.558594 74.320312 153.109375 73.820312 153.660156 73.324219 153.953125 72.550781 153.988281 71.5 153.960938 70.570312 153.679688 69.902344 153.140625 69.492188 152.601562 69.085938 151.957031 68.804688 151.207031 68.648438L148.621094 68.011719C148.378906 67.972656 148.136719 67.878906 147.894531 67.730469 147.648438 67.582031 147.515625 67.304688 147.496094 66.90625 147.523438 66.429688 147.722656 66.097656 148.105469 65.910156 148.488281 65.71875 148.898438 65.625 149.34375 65.632812 150.28125 65.671875 150.875 65.878906 151.136719 66.253906 151.394531 66.632812 151.523438 66.957031 151.519531 67.230469H153.648438C153.652344 66.777344 153.53125 66.289062 153.289062 65.761719 153.046875 65.234375 152.625 64.78125 152.023438 64.398438 151.421875 64.019531 150.582031 63.816406 149.507812 63.800781 148.375 63.820312 147.511719 64.011719 146.917969 64.382812 146.328125 64.753906 145.929688 65.191406 145.71875 65.695312 145.511719 66.195312 145.414062 66.65625 145.429688 67.066406 145.460938 68.195312 145.808594 68.957031 146.46875 69.351562 147.132812 69.75 147.90625 70.027344 148.796875 70.1875l1.140625.265625C150.507812 70.570312 150.96875 70.722656 151.320312 70.898438 151.667969 71.078125 151.847656 71.367188 151.859375 71.769531 151.832031 72.316406 151.59375 72.6875 151.144531 72.875 150.695312 73.066406 150.191406 73.15625 149.640625 73.144531 148.699219 73.109375 148.085938 72.894531 147.796875 72.507812 147.507812 72.117188 147.375 71.757812 147.394531 71.429688zm0 0"/><path style="stroke:none;fill-rule:nonzero;fill:#fff;fill-opacity:1" d="M114.742188 24.992188 111.980469 22.992188 109.226562 25 110.273438 21.753906 107.511719 19.753906 110.921875 19.746094 111.96875 16.5 113.027344 19.742188 116.4375 19.738281 113.683594 21.746094zm0 0"/><path style="stroke:none;fill-rule:nonzero;fill:#002868;fill-opacity:1" d="M117.480469 95 112.5 98.539062 107.511719 95.003906 109.417969 100.730469 104.433594 104.273438H110.59375L112.5 110 114.402344 104.273438 120.566406 104.269531 115.582031 100.730469zm0 0"/><path style="stroke:none;fill-rule:nonzero;fill:#002868;fill-opacity:1" d="M101.351562 95 96.367188 91.460938 91.378906 94.996094 93.285156 89.269531 88.300781 85.726562H94.460938L96.371094 80 98.273438 85.726562 104.433594 85.730469 99.449219 89.269531zm0 0"/><path style="stroke:none;fill-rule:nonzero;fill:#fff;fill-opacity:1" d="M107.992188 121.769531 105.992188 124.53125 108 127.285156 104.753906 126.238281 102.753906 129 102.746094 125.59375 99.5 124.542969 102.742188 123.484375 102.738281 120.074219 104.746094 122.828125zm0 0"/><path style="stroke:none;fill-rule:nonzero;fill:#fff;fill-opacity:1" d="M116.507812 121.769531 118.507812 124.53125 116.5 127.285156 119.746094 126.238281 121.746094 129 121.753906 125.59375 125 124.542969 121.757812 123.484375 121.761719 120.074219 119.753906 122.828125zm0 0"/><path style="stroke:none;fill-rule:nonzero;fill:#002868;fill-opacity:1" d="M133.613281 95 128.632812 91.460938 123.644531 94.996094 125.546875 89.269531 120.566406 85.726562H126.726562L128.632812 80 130.535156 85.726562 136.699219 85.730469 131.714844 89.269531zm0 0"/><path style="stroke:none;fill-rule:nonzero;fill:#002868;fill-opacity:1" d="M117.480469 52.5 112.5 48.960938 107.511719 52.496094 109.417969 46.769531 104.433594 43.226562H110.59375L112.5 37.5 114.402344 43.226562 120.566406 43.230469 115.582031 46.769531zm0 0"/><path style="stroke:none;fill-rule:nonzero;fill:#fff;fill-opacity:1" d="M183.730469 62.269531 181.730469 65.03125 183.738281 67.785156 180.492188 66.738281 178.492188 69.5 178.484375 66.09375 175.238281 65.042969 178.480469 63.984375 178.476562 60.574219 180.484375 63.328125zm0 0"/><path style="stroke:none;fill-rule:nonzero;fill:#fff;fill-opacity:1" d="M170.230469 53.269531 168.230469 56.03125 170.238281 58.785156 166.992188 57.738281 164.992188 60.5 164.984375 57.09375 161.738281 56.042969 164.980469 54.984375 164.976562 51.574219 166.984375 54.328125zm0 0"/><path style="stroke:none;fill-rule:nonzero;fill:#fff;fill-opacity:1" d="M156.730469 44.269531 154.730469 47.03125 156.738281 49.785156 153.492188 48.738281 151.492188 51.5 151.484375 48.09375 148.238281 47.042969 151.480469 45.984375 151.476562 42.574219 153.484375 45.328125zm0 0"/><path style="stroke:none;fill-rule:nonzero;fill:#fff;fill-opacity:1" d="M143.230469 35.769531 141.230469 38.53125 143.238281 41.285156 139.992188 40.238281 137.992188 43 137.984375 39.59375 134.738281 38.542969 137.980469 37.484375 137.976562 34.074219 139.984375 36.828125zm0 0"/><path style="stroke:none;fill-rule:nonzero;fill:#fff;fill-opacity:1" d="M129.730469 26.769531 127.730469 29.53125 129.738281 32.285156 126.492188 31.238281 124.492188 34 124.484375 30.59375 121.238281 29.542969 124.480469 28.484375 124.476562 25.074219 126.484375 27.828125zm0 0"/><path style="stroke:none;fill-rule:nonzero;fill:#fff;fill-opacity:1" d="M47.992188 80.769531 45.992188 83.53125 48 86.285156 44.753906 85.238281 42.753906 88 42.746094 84.59375 39.5 83.542969 42.742188 82.484375 42.738281 79.074219 44.746094 81.828125zm0 0"/><path style="stroke:none;fill-rule:nonzero;fill:#fff;fill-opacity:1" d="M59.992188 88.769531 57.992188 91.53125 60 94.285156 56.753906 93.238281 54.753906 96 54.746094 92.59375 51.5 91.542969 54.742188 90.484375 54.738281 87.074219 56.746094 89.828125zm0 0"/><path style="stroke:none;fill-rule:nonzero;fill:#fff;fill-opacity:1" d="M71.992188 96.769531 69.992188 99.53125 72 102.285156 68.753906 101.238281 66.753906 104 66.746094 100.59375 63.5 99.542969 66.742188 98.484375 66.738281 95.074219 68.746094 97.828125zm0 0"/><path style="stroke:none;fill-rule:nonzero;fill:#fff;fill-opacity:1" d="M83.992188 105.269531 81.992188 108.03125 84 110.785156 80.753906 109.738281 78.753906 112.5 78.746094 109.09375 75.5 108.042969 78.742188 106.984375 78.738281 103.574219 80.746094 106.328125zm0 0"/><path style="stroke:none;fill-rule:nonzero;fill:#fff;fill-opacity:1" d="M95.992188 113.269531 93.992188 116.03125 96 118.785156 92.753906 117.738281 90.753906 120.5 90.746094 117.09375 87.5 116.042969 90.742188 114.984375 90.738281 111.574219 92.746094 114.328125zm0 0"/><path style="stroke:none;fill-rule:nonzero;fill:#fff;fill-opacity:1" d="M35.992188 72.234375 33.992188 74.992188 36 77.75 32.753906 76.703125 30.753906 79.460938 30.746094 76.054688 27.5 75.003906 30.742188 73.945312 30.738281 70.539062 32.746094 73.289062zm0 0"/><path style="stroke:none;fill-rule:nonzero;fill:#fff;fill-opacity:1" d="M41.007812 62.269531 43.007812 65.03125 41 67.785156 44.246094 66.738281 46.246094 69.5 46.253906 66.09375 49.5 65.042969 46.257812 63.984375 46.261719 60.574219 44.253906 63.328125zm0 0"/><path style="stroke:none;fill-rule:nonzero;fill:#fff;fill-opacity:1" d="M54.507812 53.269531 56.507812 56.03125 54.5 58.785156 57.746094 57.738281 59.746094 60.5 59.753906 57.09375 63 56.042969 59.757812 54.984375 59.761719 51.574219 57.753906 54.328125zm0 0"/><path style="stroke:none;fill-rule:nonzero;fill:#fff;fill-opacity:1" d="M68.007812 44.269531 70.007812 47.03125 68 49.785156 71.246094 48.738281 73.246094 51.5 73.253906 48.09375 76.5 47.042969 73.257812 45.984375 73.261719 42.574219 71.253906 45.328125zm0 0"/><path style="stroke:none;fill-rule:nonzero;fill:#fff;fill-opacity:1" d="M81.507812 35.769531 83.507812 38.53125 81.5 41.285156 84.746094 40.238281 86.746094 43 86.753906 39.59375 90 38.542969 86.757812 37.484375 86.761719 34.074219 84.753906 36.828125zm0 0"/><path style="stroke:none;fill-rule:nonzero;fill:#fff;fill-opacity:1" d="M95.007812 26.769531 97.007812 29.53125 95 32.285156 98.246094 31.238281 100.246094 34 100.253906 30.59375 103.5 29.542969 100.257812 28.484375 100.261719 25.074219 98.253906 27.828125zm0 0"/><path style="stroke:none;fill-rule:nonzero;fill:#fff;fill-opacity:1" d="M188.507812 72.234375 190.507812 74.992188 188.5 77.75 191.746094 76.703125 193.746094 79.460938 193.753906 76.054688 197 75.003906 193.757812 73.945312 193.761719 70.539062 191.753906 73.289062zm0 0"/><path style="stroke:none;fill-rule:nonzero;fill:#fff;fill-opacity:1" d="M176.507812 80.769531 178.507812 83.53125 176.5 86.285156 179.746094 85.238281 181.746094 88 181.753906 84.59375 185 83.542969 181.757812 82.484375 181.761719 79.074219 179.753906 81.828125zm0 0"/><path style="stroke:none;fill-rule:nonzero;fill:#fff;fill-opacity:1" d="M164.507812 88.769531 166.507812 91.53125 164.5 94.285156 167.746094 93.238281 169.746094 96 169.753906 92.59375 173 91.542969 169.757812 90.484375 169.761719 87.074219 167.753906 89.828125zm0 0"/><path style="stroke:none;fill-rule:nonzero;fill:#fff;fill-opacity:1" d="M152.507812 96.769531 154.507812 99.53125 152.5 102.285156 155.746094 101.238281 157.746094 104 157.753906 100.59375 161 99.542969 157.757812 98.484375 157.761719 95.074219 155.753906 97.828125zm0 0"/><path style="stroke:none;fill-rule:nonzero;fill:#fff;fill-opacity:1" d="M140.507812 105.269531 142.507812 108.03125 140.5 110.785156 143.746094 109.738281 145.746094 112.5 145.753906 109.09375 149 108.042969 145.757812 106.984375 145.761719 103.574219 143.753906 106.328125zm0 0"/><path style="stroke:none;fill-rule:nonzero;fill:#fff;fill-opacity:1" d="M128.507812 113.269531 130.507812 116.03125 128.5 118.785156 131.746094 117.738281 133.746094 120.5 133.753906 117.09375 137 116.042969 133.757812 114.984375 133.761719 111.574219 131.753906 114.328125zm0 0"/></g></svg>