<svg xmlns="http://www.w3.org/2000/svg" xmlns:xlink="http://www.w3.org/1999/xlink" width="225pt" height="150pt" viewBox="0 0 225 150"><g id="surface1"><path style="stroke:none;fill-rule:nonzero;fill:#000;fill-opacity:1" d="M0 0H112.5V75H0zM0 0"/><path style="stroke:none;fill-rule:nonzero;fill:#eaab00;fill-opacity:1" d="M0 75V12.5L18.75 25V75H37.5V0H56.25V75H75V0H93.75V75H112.5V62.5L18.75.0V25l75 50zm0 0"/><path style="stroke:none;fill-rule:nonzero;fill:#fff;fill-opacity:1" d="M112.5.0H225V75H112.5zm0 0"/><path style="stroke:none;fill-rule:nonzero;fill:#981e32;fill-opacity:1" d="M168.75.0H225V37.5H112.5V75h56.25zm0 0"/><path style="stroke:none;fill-rule:nonzero;fill:#981e32;fill-opacity:1" d="M168.75 69.75C171.402344 69.75 173.550781 67.601562 173.550781 64.949219V62.550781H178.199219C180.851562 62.550781 183 60.402344 183 57.75 183 55.097656 180.851562 52.949219 178.199219 52.949219H173.550781V42.300781H203.398438V46.949219C203.398438 49.601562 205.550781 51.75 208.199219 51.75 210.851562 51.75 213 49.601562 213 46.949219V42.300781H217.199219C219.851562 42.300781 222 40.152344 222 37.5H168.75zm0 0"/><path style="stroke:none;fill-rule:nonzero;fill:#fff;fill-opacity:1" d="M168.75 69.75C166.097656 69.75 163.949219 67.601562 163.949219 64.949219V62.550781H159.300781C156.648438 62.550781 154.5 60.402344 154.5 57.75 154.5 55.097656 156.648438 52.949219 159.300781 52.949219H163.949219V42.300781H134.101562V46.949219C134.101562 49.601562 131.949219 51.75 129.300781 51.75 126.648438 51.75 124.5 49.601562 124.5 46.949219V42.300781H120.300781C117.648438 42.300781 115.5 40.152344 115.5 37.5h53.25zm0 0"/><path style="stroke:none;fill-rule:nonzero;fill:#fff;fill-opacity:1" d="M168.75 5.25C171.402344 5.25 173.550781 7.398438 173.550781 10.050781V12.449219H178.199219C180.851562 12.449219 183 14.597656 183 17.25 183 19.902344 180.851562 22.050781 178.199219 22.050781H173.550781V32.699219H203.398438V28.050781C203.398438 25.398438 205.550781 23.25 208.199219 23.25 210.851562 23.25 213 25.398438 213 28.050781V32.699219H217.199219C219.851562 32.699219 222 34.847656 222 37.5H168.75zm0 0"/><path style="stroke:none;fill-rule:nonzero;fill:#981e32;fill-opacity:1" d="M168.75 5.25C166.097656 5.25 163.949219 7.398438 163.949219 10.050781V12.449219H159.300781C156.648438 12.449219 154.5 14.597656 154.5 17.25 154.5 19.902344 156.648438 22.050781 159.300781 22.050781H163.949219V32.699219H134.101562V28.050781C134.101562 25.398438 131.949219 23.25 129.300781 23.25 126.648438 23.25 124.5 25.398438 124.5 28.050781V32.699219H120.300781C117.648438 32.699219 115.5 34.847656 115.5 37.5h53.25zm0 0"/><path style="stroke:none;fill-rule:nonzero;fill:#fff;fill-opacity:1" d="M0 75H112.5v75H0zm0 0"/><path style="stroke:none;fill-rule:nonzero;fill:#981e32;fill-opacity:1" d="M56.25 75H112.5v37.5H0V150H56.25zm0 0"/><path style="stroke:none;fill-rule:nonzero;fill:#981e32;fill-opacity:1" d="M56.25 144.75C58.902344 144.75 61.050781 142.601562 61.050781 139.949219V137.550781H65.699219C68.351562 137.550781 70.5 135.402344 70.5 132.75 70.5 130.097656 68.351562 127.949219 65.699219 127.949219H61.050781V117.300781H90.898438V121.949219C90.898438 124.601562 93.050781 126.75 95.699219 126.75 98.351562 126.75 100.5 124.601562 100.5 121.949219V117.300781H104.699219C107.351562 117.300781 109.5 115.152344 109.5 112.5H56.25zm0 0"/><path style="stroke:none;fill-rule:nonzero;fill:#fff;fill-opacity:1" d="M56.25 144.75C53.597656 144.75 51.449219 142.601562 51.449219 139.949219V137.550781H46.800781C44.148438 137.550781 42 135.402344 42 132.75 42 130.097656 44.148438 127.949219 46.800781 127.949219H51.449219V117.300781H21.601562V121.949219C21.601562 124.601562 19.449219 126.75 16.800781 126.75 14.148438 126.75 12 124.601562 12 121.949219V117.300781H7.800781C5.148438 117.300781 3 115.152344 3 112.5H56.25zm0 0"/><path style="stroke:none;fill-rule:nonzero;fill:#fff;fill-opacity:1" d="M56.25 80.25C58.902344 80.25 61.050781 82.398438 61.050781 85.050781V87.449219H65.699219C68.351562 87.449219 70.5 89.597656 70.5 92.25 70.5 94.902344 68.351562 97.050781 65.699219 97.050781H61.050781V107.699219H90.898438V103.050781C90.898438 100.398438 93.050781 98.25 95.699219 98.25 98.351562 98.25 100.5 100.398438 100.5 103.050781V107.699219H104.699219C107.351562 107.699219 109.5 109.847656 109.5 112.5H56.25zm0 0"/><path style="stroke:none;fill-rule:nonzero;fill:#981e32;fill-opacity:1" d="M56.25 80.25C53.597656 80.25 51.449219 82.398438 51.449219 85.050781V87.449219H46.800781C44.148438 87.449219 42 89.597656 42 92.25 42 94.902344 44.148438 97.050781 46.800781 97.050781H51.449219V107.699219H21.601562V103.050781C21.601562 100.398438 19.449219 98.25 16.800781 98.25 14.148438 98.25 12 100.398438 12 103.050781V107.699219H7.800781C5.148438 107.699219 3 109.847656 3 112.5H56.25zm0 0"/><path style="stroke:none;fill-rule:nonzero;fill:#000;fill-opacity:1" d="M112.5 75H225v75H112.5zm0 0"/><path style="stroke:none;fill-rule:nonzero;fill:#eaab00;fill-opacity:1" d="M112.5 150V87.5L131.25 1e2v50H150V75h18.75v75H187.5V75h18.75v75H225V137.5L131.25 75v25l75 50zm0 0"/></g></svg>