<svg xmlns="http://www.w3.org/2000/svg" xmlns:xlink="http://www.w3.org/1999/xlink" width="225pt" height="150pt" viewBox="0 0 225 150"><g id="surface1"><path style="fill-rule:nonzero;fill:#00943a;fill-opacity:1;stroke-width:.6;stroke-linecap:round;stroke-linejoin:miter;stroke:#395475;stroke-opacity:1;stroke-miterlimit:4" d="M.302083.302083H599.697917V399.697917H.302083zm0 0" transform="matrix(0.375,0,0,0.375,0,0)"/><path style="fill-rule:nonzero;fill:#b2b2b2;fill-opacity:1;stroke-width:4.304843;stroke-linecap:round;stroke-linejoin:miter;stroke:#fff;stroke-opacity:1;stroke-miterlimit:4" d="M-357.98541-125.620051h192.487976V170.876004H-357.98541zm0 0" transform="matrix(0.304889,0,0,0.304889,192.302126,68.100975)"/><path style="fill-rule:evenodd;fill:red;fill-opacity:1;stroke-width:4.427839;stroke-linecap:butt;stroke-linejoin:miter;stroke:#fff;stroke-opacity:1;stroke-miterlimit:4" d="M-320.010546-125.568803C-322.188591-124.492592-324.353825-121.404892-324.353825-119.188411-324.353825-116.971929-322.188591-113.884229-320.010546-112.808019L-327.531209-84.045006V-11.32391L-320.010546 17.439103C-322.188591 18.515314-324.353825 21.615826-324.353825 23.819495-324.353825 26.035977-322.188591 29.123677-320.010546 30.199887L-327.531209 58.975712v70.325246L-320.010546 158.063971c0 0 0 12.760784000000001.0 12.760784000000001H-303.739264c0 0 0-12.760784000000001.0-12.760784000000001L-296.180165 129.300958V58.975712L-303.739264 30.199887C-301.548407 29.123677-299.357549 26.035977-299.357549 23.819495-299.357549 21.615826-301.548407 18.515314-303.739264 17.439103L-296.180165-11.32391V-84.045006L-303.739264-112.808019C-301.548407-113.884229-299.357549-116.971929-299.357549-119.188411-299.357549-121.404892-301.548407-124.492592-303.739264-125.568803zm0 0" transform="matrix(0.304889,0,0,0.304889,192.302126,68.100975)"/><path style="fill-rule:evenodd;fill:red;fill-opacity:1;stroke-width:4.427839;stroke-linecap:butt;stroke-linejoin:miter;stroke:#fff;stroke-opacity:1;stroke-miterlimit:4" d="M-271.171078-125.568803C-273.349123-124.492592-275.514357-121.404892-275.514357-119.188411-275.514357-116.971929-273.349123-113.884229-271.171078-112.808019L-278.704553-84.045006V-11.32391L-271.171078 17.439103C-273.349123 18.515314-275.514357 21.615826-275.514357 23.819495-275.514357 26.035977-273.349123 29.123677-271.171078 30.199887L-278.704553 58.975712v70.325246L-271.171078 158.063971c0 0 0 12.760784000000001.0 12.760784000000001H-254.899797c0 0 0-12.760784000000001.0-12.760784000000001L-247.340698 129.300958V58.975712L-254.899797 30.199887C-252.721751 29.123677-250.530894 26.035977-250.530894 23.819495-250.530894 21.615826-252.721751 18.515314-254.899797 17.439103L-247.340698-11.32391V-84.045006L-254.899797-112.808019C-252.721751-113.884229-250.530894-116.971929-250.530894-119.188411-250.530894-121.404892-252.721751-124.492592-254.899797-125.568803zm0 0" transform="matrix(0.304889,0,0,0.304889,192.302126,68.100975)"/><path style="fill-rule:evenodd;fill:red;fill-opacity:1;stroke-width:4.427839;stroke-linecap:butt;stroke-linejoin:miter;stroke:#fff;stroke-opacity:1;stroke-miterlimit:4" d="M-222.344422-125.568803C-224.522468-124.492592-226.674889-121.404892-226.674889-119.188411-226.674889-116.971929-224.522468-113.884229-222.344422-112.808019L-229.865085-84.045006V-11.32391L-222.344422 17.439103C-224.522468 18.515314-226.674889 21.615826-226.674889 23.819495-226.674889 26.035977-224.522468 29.123677-222.344422 30.199887L-229.865085 58.975712v70.325246L-222.344422 158.063971c0 0 0 12.760784000000001.0 12.760784000000001H-206.060329c0 0 0-12.760784000000001.0-12.760784000000001L-198.50123 129.300958V58.975712L-206.060329 30.199887C-203.882284 29.123677-201.691426 26.035977-201.691426 23.819495-201.691426 21.615826-203.882284 18.515314-206.060329 17.439103L-198.50123-11.32391V-84.045006L-206.060329-112.808019C-203.882284-113.884229-201.691426-116.971929-201.691426-119.188411-201.691426-121.404892-203.882284-124.492592-206.060329-125.568803zm0 0" transform="matrix(0.304889,0,0,0.304889,192.302126,68.100975)"/><path style="fill:none;stroke-width:4.427839;stroke-linecap:butt;stroke-linejoin:miter;stroke:#fff;stroke-opacity:1;stroke-miterlimit:4" d="M-357.793229-83.916886h192.103614" transform="matrix(0.304889,0,0,0.304889,192.302126,68.100975)"/><path style="fill:none;stroke-width:4.427839;stroke-linecap:butt;stroke-linejoin:miter;stroke:#fff;stroke-opacity:1;stroke-miterlimit:4" d="M-165.894607-11.247038H-357.588237" transform="matrix(0.304889,0,0,0.304889,192.302126,68.100975)"/><path style="fill:none;stroke-width:4.427839;stroke-linecap:butt;stroke-linejoin:miter;stroke:#fff;stroke-opacity:1;stroke-miterlimit:4" d="M-165.894607 59.436945H-357.588237" transform="matrix(0.304889,0,0,0.304889,192.302126,68.100975)"/><path style="fill:none;stroke-width:4.427839;stroke-linecap:butt;stroke-linejoin:miter;stroke:#fff;stroke-opacity:1;stroke-miterlimit:4" d="M-165.894607 128.929409H-357.588237" transform="matrix(0.304889,0,0,0.304889,192.302126,68.100975)"/></g></svg>