<svg xmlns="http://www.w3.org/2000/svg" xmlns:xlink="http://www.w3.org/1999/xlink" width="279pt" height="150pt" viewBox="0 0 279 150"><g id="surface1"><path d="M0 0h279v150H0z" style="fill:#c62139;fill-opacity:1;stroke:none"/><path style="stroke:none;fill-rule:evenodd;fill:#00297b;fill-opacity:1" d="M6.804688 6.816406H272.195312V143.183594H6.804688zm0 0"/><path style="stroke:none;fill-rule:evenodd;fill:#92dbfc;fill-opacity:1" d="M139.574219 36.871094c0 0-23.304688 18.582031-23.304688 37.882812.0 19.300781999999998 23.304688 38.375 23.304688 38.375.0.0 23.15625-17.683594 23.15625-38.375.0-20.691406-23.15625-37.882812-23.15625-37.882812zm0 0"/><path style="stroke:none;fill-rule:evenodd;fill:#008ce7;fill-opacity:1" d="M118.847656 86.535156c6.066406000000001 14.59375 20.726563 26.59375 20.726563 26.59375.0.0 14.921875-11.398437000000001 20.808593000000002-26.597656"/><path style="stroke:none;fill-rule:evenodd;fill:#9c8431;fill-opacity:1" d="M160.464844 82.320312C156.871094 84.898438 136.65625 83.660156 136.65625 83.660156L135.523438 86.542969 159.597656 86.617188C159.695312 86.222656 159.9375 85.753906 160.019531 85.351562zm0 0"/><path style="stroke:none;fill-rule:evenodd;fill:#ffde52;fill-opacity:1" d="M124.289062 94.257812C125.3125 94.289062 126.332031 94.507812 127.25 95 128.886719 95.859375 129.835938 95.851562 131.601562 95.878906 133.445312 95.90625 134.894531 97.269531 136.890625 97.328125 140.566406 97.429688 142.113281 99.257812 139.253906 99.257812 137.90625 99.257812 135.011719 98.347656 133.609375 98.539062 131.484375 98.753906 130.253906 98.917969 128.679688 100.171875 127.179688 98.367188 125.683594 96.382812 124.289062 94.257812zM131.5625 103.441406C132.476562 102.816406 133.101562 102.328125 133.988281 102.300781 135.707031 102.246094 136.292969 101.183594 138.28125 101.183594 140.539062 101.597656 143.597656 100.910156 145.390625 100.511719 148.570312 99.777344 147.0625 97.550781 145.136719 96.742188 143.582031 96.074219 140.664062 96.707031 138.855469 96.042969 137.484375 95.507812 138.613281 94.65625 139.351562 94.472656 140.09375 94.335938 140.890625 94.582031 141.816406 94.734375 143.46875 94.878906 145.542969 94.722656 146.992188 94.5 149.988281 94.039062 149.867188 93.15625 151.3125 93.136719 152.371094 93.085938 153.171875 92.773438 153.894531 92.257812 154.738281 91.691406 155.621094 90.53125 156.644531 90.578125L157.246094 90.601562C150.925781 102.855469 139.570312 110.902344 139.570312 110.902344 139.570312 110.902344 135.902344 108.085938 131.5625 103.441406zm0 0"/><path style="stroke:none;fill-rule:evenodd;fill:#8c4200;fill-opacity:1" d="M146.097656 94.464844C146.488281 95.984375 146.902344 96.503906 148.5 96.890625 150.074219 97.28125 152.476562 95.75 150.988281 94.261719 149.570312 92.878906 148.074219 92.523438 146.804688 91.277344 144.832031 89.320312 142.128906 85.269531 140.84375 81.441406 139.4375 77.257812 139.683594 65.476562 139.746094 59.507812 139.746094 59.4375 139.914062 59.398438 139.933594 59.367188 140.027344 59.238281 140.113281 59.410156 139.972656 58.535156 139.933594 58.3125 139.757812 58.078125 139.757812 57.851562 139.757812 57.449219 138.363281 58.292969 137.996094 59.015625 137.914062 59.179688 138.261719 59.652344 138.261719 59.746094 138.3125 65.46875 137.695312 76.777344 139.214844 81.894531 140.152344 85.0625 141.867188 87.507812 143.417969 89.773438 144.347656 91.222656 145.691406 92.789062 146.097656 94.464844zm0 0"/><path style="stroke:none;fill-rule:nonzero;fill:#fff;fill-opacity:1" d="M128.707031 77.699219C128.691406 77.699219 128.617188 77.6875 128.550781 77.679688 128.066406 77.621094 127.546875 77.414062 127.167969 77.132812 126.628906 76.730469 126.269531 76.082031 126.152344 75.292969 126.117188 75.070312 126.117188 74.5 126.152344 74.28125 126.246094 73.667969 126.472656 73.128906 126.792969 72.734375 126.886719 72.617188 127.070312 72.441406 127.183594 72.355469 127.445312 72.15625 127.785156 72 128.144531 71.910156 128.402344 71.847656 128.5625 71.828125 128.871094 71.820312 129.300781 71.808594 129.601562 71.847656 129.941406 71.960938 130.375 72.101562 130.710938 72.335938 130.949219 72.652344 131.109375 72.867188 131.320312 73.339844 131.347656 73.5625 131.363281 73.679688 131.316406 73.769531 131.210938 73.816406 131.179688 73.828125 131.011719 73.878906 130.839844 73.925781 130.492188 74.019531 130.445312 74.019531 130.367188 73.957031 130.316406 73.914062 130.296875 73.878906 130.253906 73.738281 130.230469 73.679688 130.179688 73.558594 130.140625 73.472656 130.074219 73.339844 130.046875 73.300781 129.957031 73.210938 129.867188 73.121094 129.832031 73.09375 129.699219 73.027344 129.40625 72.886719 129.074219 72.835938 128.695312 72.882812 128.417969 72.917969 128.117188 73.03125 127.929688 73.171875 127.507812 73.488281 127.273438 74.117188 127.296875 74.855469 127.332031 75.863281 127.757812 76.417969 128.636719 76.597656 128.804688 76.628906 129.171875 76.628906 129.351562 76.597656 129.613281 76.546875 130 76.398438 130.214844 76.257812L130.292969 76.207031V75.886719L130.296875 75.566406 129.601562 75.558594 128.910156 75.554688 128.867188 75.523438C128.839844 75.507812 128.808594 75.472656 128.792969 75.449219 128.761719 75.40625 128.761719 75.398438 128.761719 75.023438 128.761719 74.644531 128.761719 74.636719 128.792969 74.59375 128.808594 74.570312 128.84375 74.539062 128.867188 74.519531L128.910156 74.488281 130.097656 74.492188H131.289062L131.328125 74.523438C131.355469 74.542969 131.386719 74.578125 131.40625 74.605469L131.4375 74.65625V75.644531C131.441406 76.691406 131.4375 76.734375 131.375 76.8125 131.359375 76.832031 131.277344 76.902344 131.195312 76.960938 130.632812 77.375 130.039062 77.621094 129.425781 77.691406 129.265625 77.707031 128.804688 77.714844 128.707031 77.699219zM134.917969 77.753906C134.296875 77.707031 133.828125 77.519531 133.484375 77.1875 133.148438 76.863281 132.980469 76.453125 132.90625 75.773438 132.882812 75.585938 132.882812 75.386719 132.882812 73.847656 132.886719 72.191406 132.886719 72.128906 132.914062 72.078125 132.929688 72.050781 132.960938 72.007812 132.988281 71.988281L133.035156 71.953125 133.445312 71.949219C133.835938 71.945312 133.855469 71.945312 133.910156 71.976562 133.949219 71.992188 133.984375 72.023438 134.003906 72.054688L134.035156 72.105469 134.039062 73.882812C134.042969 75.449219 134.046875 75.679688 134.066406 75.800781 134.117188 76.125 134.167969 76.242188 134.316406 76.394531 134.507812 76.582031 134.703125 76.652344 135.078125 76.664062 135.421875 76.675781 135.65625 76.636719 135.859375 76.539062 136.089844 76.421875 136.195312 76.246094 136.277344 75.835938 136.304688 75.679688 136.304688 75.65625 136.316406 73.902344 136.328125 71.914062 136.320312 72.078125 136.425781 71.996094L136.476562 71.960938H136.902344C137.375 71.960938 137.359375 71.957031 137.433594 72.058594L137.472656 72.109375 137.476562 73.703125C137.476562 75.304688 137.46875 75.640625 137.425781 75.941406 137.335938 76.582031 137.121094 76.988281 136.714844 77.304688 136.578125 77.410156 136.519531 77.449219 136.382812 77.515625 136.175781 77.621094 135.9375 77.691406 135.667969 77.730469 135.527344 77.75 135.0625 77.765625 134.917969 77.753906zM140.476562 77.667969C140.457031 77.664062 140.417969 77.632812 140.386719 77.601562 140.320312 77.535156 140.300781 77.476562 140.320312 77.394531 140.34375 77.292969 142.355469 72.09375 142.390625 72.050781 142.453125 71.964844 142.46875 71.964844 142.941406 71.964844 143.410156 71.964844 143.429688 71.96875 143.492188 72.050781 143.511719 72.078125 144.007812 73.285156 144.601562 74.742188 145.542969 77.058594 145.679688 77.402344 145.679688 77.460938 145.679688 77.539062 145.648438 77.59375 145.574219 77.648438 145.53125 77.679688 145.527344 77.679688 145.058594 77.675781H144.585938L144.535156 77.636719C144.46875 77.585938 144.472656 77.59375 144.167969 76.792969 144.027344 76.429688 143.90625 76.121094 143.898438 76.105469 143.886719 76.082031 143.828125 76.082031 142.953125 76.082031 142.078125 76.078125 142.019531 76.082031 142.011719 76.101562 142.007812 76.117188 141.886719 76.441406 141.75 76.824219 141.609375 77.207031 141.484375 77.539062 141.46875 77.566406 141.453125 77.589844 141.421875 77.625 141.398438 77.640625 141.355469 77.671875 141.347656 77.671875 140.929688 77.671875 140.699219 77.671875 140.492188 77.671875 140.476562 77.667969zM143.488281 75.003906C143.46875 74.945312 142.96875 73.609375 142.957031 73.578125 142.949219 73.5625 142.945312 73.570312 142.933594 73.597656 142.910156 73.667969 142.402344 75.03125 142.394531 75.042969 142.390625 75.050781 142.640625 75.054688 142.945312 75.054688h.5625zM147.75 77.660156C147.691406 77.644531 147.625 77.574219 147.609375 77.511719 147.601562 77.476562 147.597656 76.59375 147.605469 74.78125L147.613281 72.101562 147.648438 72.050781C147.722656 71.957031 147.714844 71.960938 148.359375 71.960938 148.894531 71.960938 148.941406 71.964844 148.984375 71.984375 149.011719 72 149.046875 72.03125 149.0625 72.054688 149.078125 72.078125 149.375 72.960938 149.726562 74.011719 150.078125 75.066406 150.367188 75.929688 150.371094 75.929688 150.375 75.929688 150.671875 75.074219 151.035156 74.027344 151.445312 72.835938 151.703125 72.101562 151.726562 72.070312 151.796875 71.964844 151.792969 71.96875 152.382812 71.96875 152.886719 71.96875 152.90625 71.96875 152.957031 71.996094 152.984375 72.011719 153.019531 72.046875 153.039062 72.074219L153.074219 72.125 153.070312 74.820312C153.0625 77.359375 153.0625 77.519531 153.039062 77.558594 153.027344 77.582031 152.992188 77.621094 152.964844 77.640625L152.914062 77.679688 152.503906 77.675781c-.40625.0-.41015600000000063.0-.453125-.03125C152.027344 77.628906 151.992188 77.59375 151.976562 77.570312L151.945312 77.527344 151.941406 75.980469 151.9375 74.4375 151.863281 74.640625C151.824219 74.753906 151.578125 75.453125 151.320312 76.199219 150.867188 77.5 150.847656 77.554688 150.796875 77.609375 150.761719 77.640625 150.722656 77.667969 150.695312 77.671875 150.671875 77.675781 150.5 77.679688 150.3125 77.679688 149.992188 77.679688 149.976562 77.679688 149.917969 77.648438 149.882812 77.632812 149.84375 77.597656 149.828125 77.574219 149.8125 77.550781 149.5625 76.828125 149.269531 75.964844 148.980469 75.101562 148.738281 74.394531 148.734375 74.394531 148.726562 74.394531 148.722656 75.09375 148.71875 75.949219 148.714844 77.691406 148.722656 77.5625 148.617188 77.636719L148.558594 77.671875H148.175781C147.964844 77.671875 147.773438 77.667969 147.75 77.660156zm0 0"/><path style="stroke:none;fill-rule:nonzero;fill:#bd0728;fill-opacity:1" d="M128.671875 77.460938C127.972656 77.382812 127.347656 77.074219 126.96875 76.621094 126.648438 76.242188 126.445312 75.742188 126.375 75.183594 126.355469 74.996094 126.355469 74.558594 126.378906 74.378906 126.457031 73.769531 126.699219 73.199219 127.046875 72.804688 127.636719 72.132812 128.863281 71.863281 129.855469 72.183594 130.484375 72.386719 130.859375 72.769531 131.070312 73.429688 131.097656 73.519531 131.121094 73.597656 131.117188 73.601562 131.109375 73.605469 130.574219 73.753906 130.535156 73.761719 130.511719 73.765625 130.5 73.742188 130.464844 73.640625 130.367188 73.347656 130.21875 73.105469 130.050781 72.972656 129.683594 72.679688 129.171875 72.574219 128.566406 72.664062 128.179688 72.722656 127.796875 72.921875 127.578125 73.179688 127.246094 73.5625 127.085938 74.03125 127.0625 74.648438 127.042969 75.261719 127.15625 75.730469 127.410156 76.117188 127.828125 76.746094 128.792969 77.027344 129.652344 76.769531 129.929688 76.6875 130.230469 76.542969 130.441406 76.394531L130.539062 76.324219V75.328125H128.984375V74.71875L130.097656 74.722656h1.109375L131.203125 75.691406v.96875L131.082031 76.75C130.582031 77.121094 130.078125 77.34375 129.542969 77.4375 129.34375 77.472656 128.871094 77.484375 128.671875 77.460938zM134.828125 77.511719C134.324219 77.453125 133.929688 77.292969 133.652344 77.023438 133.398438 76.777344 133.253906 76.46875 133.179688 76.027344 133.125 75.707031 133.121094 75.542969 133.125 73.839844V72.175781H133.804688L133.808594 73.953125C133.8125 75.84375 133.808594 75.8125 133.882812 76.097656 133.972656 76.460938 134.242188 76.730469 134.628906 76.839844 134.9375 76.929688 135.355469 76.933594 135.707031 76.84375 136.121094 76.742188 136.347656 76.515625 136.460938 76.089844 136.546875 75.765625 136.546875 75.796875 136.554688 73.914062L136.5625 72.179688 136.90625 72.183594H137.242188L137.238281 73.789062C137.238281 74.714844 137.230469 75.484375 137.222656 75.609375 137.164062 76.425781 136.953125 76.863281 136.460938 77.199219 136.265625 77.332031 136.003906 77.429688 135.710938 77.484375 135.585938 77.507812 134.972656 77.527344 134.828125 77.511719zM140.582031 77.363281C140.597656 77.320312 141.050781 76.140625 141.589844 74.742188L142.570312 72.199219 142.9375 72.195312 143.308594 72.191406 144.367188 74.796875C144.945312 76.226562 145.425781 77.410156 145.429688 77.421875 145.441406 77.449219 145.417969 77.449219 145.054688 77.449219H144.671875L144.601562 77.273438C144.566406 77.179688 144.429688 76.820312 144.300781 76.484375L144.066406 75.867188 142.957031 75.863281 141.847656 75.855469 141.5625 76.648438 141.273438 77.441406H140.550781zM143.839844 75.269531C143.835938 75.253906 143.683594 74.847656 143.503906 74.367188 143.324219 73.886719 143.121094 73.328125 143.054688 73.121094 142.988281 72.921875 142.929688 72.75 142.925781 72.746094 142.921875 72.742188 142.898438 72.832031 142.871094 72.945312 142.78125 73.316406 142.695312 73.574219 142.378906 74.410156 142.207031 74.867188 142.0625 75.253906 142.058594 75.265625 142.046875 75.292969 142.097656 75.292969 142.945312 75.292969 143.796875 75.296875 143.847656 75.292969 143.839844 75.269531zM147.839844 74.8125 147.847656 72.1875 148.359375 72.191406 148.875 72.195312 149.570312 74.289062C149.949219 75.441406 150.285156 76.453125 150.308594 76.542969 150.335938 76.632812 150.363281 76.699219 150.367188 76.699219 150.367188 76.695312 150.453125 76.445312 150.554688 76.144531 150.660156 75.84375 151.007812 74.832031 151.328125 73.898438L151.917969 72.203125 152.378906 72.199219 152.835938 72.195312 152.832031 74.820312 152.828125 77.449219H152.175781L152.179688 75.242188C152.183594 74.027344 152.179688 73.042969 152.171875 73.050781 152.164062 73.054688 151.84375 73.972656 151.453125 75.085938 151.066406 76.199219 150.722656 77.1875 150.691406 77.277344L150.632812 77.445312H150.019531L149.269531 75.21875C148.859375 73.996094 148.515625 72.988281 148.511719 72.972656 148.503906 72.960938 148.496094 73.960938 148.492188 75.195312L148.488281 77.441406H148.164062L147.835938 77.4375zm0 0"/><path style="stroke:none;fill-rule:evenodd;fill:#109421;fill-opacity:1" d="M125.089844 57.816406C125.1875 57.953125 125.175781 58.539062 125.175781 58.539062 125.257812 58.589844 126.570312 57.421875 126.570312 57.472656 126.570312 57.71875 126.601562 58.226562 126.601562 58.226562 126.601562 58.226562 127.960938 56.929688 128.019531 57.066406 128.082031 57.21875 128.011719 57.972656 128.011719 57.972656c0 0 .90625-1 1.0742189999999994-1.1796870000000013C129.203125 56.664062 129.183594 56.953125 129.195312 57.425781 129.199219 57.507812 130.679688 56.328125 130.769531 56.308594 130.960938 56.265625 131.019531 56.921875 131.011719 57.082031 131.003906 57.203125 132.378906 56.296875 132.316406 56.417969L132.417969 57.113281C132.800781 57.0625 133.714844 56.71875 134.265625 56.808594 134.441406 56.835938 134.429688 56.925781 134.273438 56.992188 131.628906 58.0625 129.59375 59.683594 128.40625 61.9375 128.003906 62.707031 127.878906 63.375 127.984375 63.542969 127.984375 63.542969 128.460938 62.519531 129 62.359375 129.070312 62.335938 129.117188 63.015625 129.191406 62.976562c0 0 .40625-1.027343000000002.6992189999999994-1.40625C129.96875 61.46875 130.101562 62.109375 130.183594 62.011719c0 0 .21093700000000126-.6875.625-1.1640629999999987C130.867188 60.777344 130.972656 61.496094 131.039062 61.4375 131.46875 61.039062 131.871094 60.046875 132.03125 59.976562 132.140625 59.886719 132.160156 60.800781 132.269531 60.722656c0 0 .609375-1.230468000000002.9765629999999987-1.453125C133.476562 59.125 133.46875 59.941406 133.46875 59.941406 133.933594 59.480469 134.449219 58.71875 134.691406 58.386719 134.804688 58.234375 134.742188 59.390625 134.859375 59.4375 135.015625 59.496094 136.015625 58.550781 136.128906 58.53125 136.203125 58.519531 136.292969 58.800781 136.097656 59.027344 136.082031 59.042969 134.855469 60.460938 134.855469 60.460938 135.09375 60.503906 135.1875 60.4375 135.359375 60.484375 135.867188 60.617188 134.40625 61.457031 134.429688 61.613281c0 0 .7070310000000006-.011718999999999369.46875.125C134.730469 61.835938 133.800781 63.035156 133.800781 62.992188 133.800781 62.972656 134.265625 63.003906 134.265625 63.136719 134.261719 63.386719 133.492188 64.667969 133.484375 64.660156 133.441406 64.617188 133.894531 64.605469 133.957031 64.730469 134.070312 64.964844 133.167969 66 133.34375 66.179688 133.371094 66.203125 133.859375 66.183594 134.078125 66.234375 134.183594 66.257812 134.480469 68.117188 134.40625 68.042969 134.390625 68.027344 134.722656 66.300781 134.925781 65.773438 135.046875 65.453125 135.441406 66.253906 135.472656 66.183594 135.457031 66.183594 135.394531 65.046875 135.449219 64.53125 135.464844 64.386719 135.75 64.683594 135.746094 64.542969 135.734375 64.230469 135.710938 63.894531 135.773438 63.589844 135.824219 63.359375 136.066406 64.007812 136.160156 63.832031c0 0-.296875-1.121093000000002-.171875-1.4414060000000006C136.070312 62.183594 136.265625 62.898438 136.390625 62.925781 136.390625 62.925781 136.320312 62.050781 136.457031 61.828125l.40625.4375C136.953125 62.125 136.933594 60.761719 137.015625 60.636719 137.085938 60.527344 137.507812 61.144531 137.570312 61.050781 137.628906 60.960938 137.394531 59.953125 137.445312 59.871094 137.519531 59.757812 137.984375 60.152344 137.992188 60.144531 138.183594 59.953125 138.175781 59.480469 138.253906 59.300781 138.46875 58.824219 139.695312 58.761719 139.835938 59.101562 139.910156 59.269531 139.859375 59.480469 139.832031 59.738281 139.84375 59.746094 140.445312 59.789062 140.449219 59.746094 140.449219 59.746094 140.378906 60.308594 140.421875 60.925781 140.425781 61.007812 141.03125 60.90625 141.039062 60.988281 141.09375 61.574219 140.960938 61.625 140.960938 61.625 140.964844 61.667969 141.367188 61.566406 141.375 61.609375 141.417969 61.894531 141.328125 62.242188 141.148438 62.574219 141.121094 62.621094 141.722656 62.527344 141.730469 62.585938 141.804688 63.023438 141.820312 63.371094 141.742188 63.988281 141.738281 64.039062 142.332031 63.550781 142.34375 63.601562 142.433594 64.121094 142.328125 64.683594 142.382812 65.222656 142.394531 65.347656 142.777344 64.851562 142.8125 64.996094 142.847656 65.136719 142.726562 66.167969 142.785156 66.226562 142.785156 66.226562 143.425781 66.191406 143.480469 66.246094 143.988281 66.722656 143.890625 67.554688 143.890625 67.554688 144.03125 67.453125 143.976562 66.449219 143.835938 65.535156 143.820312 65.4375 144.328125 65.472656 144.3125 65.382812 144.3125 65.382812 143.757812 65.050781 143.574219 64.117188 143.535156 63.917969 144.109375 63.957031 144.109375 63.957031 143.953125 63.589844 143.671875 63.519531 143.433594 63.167969 143.355469 63.050781 144.03125 63 144.03125 62.964844 144.03125 62.613281 143.460938 62.445312 143.167969 62.082031 143.039062 61.925781 143.78125 61.917969 143.78125 61.917969 143.5625 61.613281 142.847656 61.480469 142.484375 61.082031 142.285156 60.863281 143.210938 60.648438 143.199219 60.613281 143.097656 60.289062 142.226562 60.191406 141.804688 59.828125 141.714844 59.753906 142.355469 59.5 142.355469 59.5 142.289062 59.363281 140.898438 58.449219 141.605469 58.53125 141.90625 58.566406 142.511719 58.992188 142.558594 58.929688 142.558594 58.929688 142.53125 58.394531 142.59375 58.328125 142.828125 58.085938 143.628906 59.359375 143.902344 59.304688 143.902344 59.304688 144.003906 58.398438 144.125 58.371094 144.417969 58.316406 144.777344 59.695312 145.066406 59.695312 145.105469 59.695312 145.125 58.898438 145.277344 58.855469 145.445312 58.804688 145.632812 59.75 145.847656 59.957031 146.042969 60.148438 146.046875 59.222656 146.164062 59.398438 146.359375 59.683594 146.40625 60.277344 146.675781 60.539062 146.851562 60.707031 146.882812 59.71875 147.078125 59.851562 147.300781 60.003906 147.25 60.515625 147.503906 60.769531 147.625 60.890625 147.703125 60.117188 147.84375 60.230469 147.964844 60.328125 148.046875 61.273438 148.179688 61.425781 148.34375 61.617188 148.539062 60.925781 148.710938 61.035156 148.835938 61.117188 148.808594 61.933594 148.921875 62.109375 149.160156 62.472656 149.28125 61.667969 149.441406 61.792969 149.550781 61.875 149.785156 62.816406 149.886719 62.890625 150.105469 63.058594 150.226562 62.464844 150.394531 62.546875 150.511719 62.609375 150.757812 63.820312 150.859375 63.789062 150.925781 63.765625 151.085938 61.027344 150.035156 59.871094 148.320312 57.988281 145.25 56.902344 142.746094 56.875 142.746094 56.875 144.003906 56.621094 144.039062 56.414062 144.105469 55.996094 144.730469 56.046875 145.164062 56.140625 145.242188 56.160156 145.203125 55.40625 145.210938 55.402344 145.601562 55.394531 145.949219 55.625 146.324219 55.851562 146.4375 55.921875 146.085938 55.097656 146.210938 55.167969 146.6875 55.445312 147.222656 55.527344 147.542969 55.863281 147.628906 55.949219 147.445312 55.226562 147.445312 55.226562 147.6875 55.167969 148.15625 55.515625 148.34375 55.835938 148.433594 55.996094 148.335938 54.992188 148.410156 55.171875 148.410156 55.171875 149.242188 55.457031 149.332031 55.808594 149.332031 55.808594 149.398438 55.171875 149.511719 55.203125 149.847656 55.292969 150.140625 55.855469 150.402344 55.9375 150.402344 55.9375 150.292969 55.371094 150.378906 55.394531 151.003906 55.550781 151.6875 55.941406 151.683594 55.9375 151.332031 55.050781 149.992188 54.121094 147.628906 53.875 147.195312 53.828125 145.4375 53.757812 143.949219 54.101562 142.726562 54.386719 141.761719 54.546875 141.960938 54.355469 142.769531 53.5625 144.074219 53.464844 144.433594 53.28125 144.691406 53.148438 143.566406 52.714844 143.789062 52.652344 144.011719 52.601562 145.011719 52.515625 145.011719 52.515625 145.230469 52.347656 144.285156 52.015625 144.425781 51.765625 144.707031 51.269531 146.382812 51.722656 146.523438 51.535156 146.570312 51.472656 145.804688 51.019531 145.835938 50.949219c.125-.25 1.6132810000000006.1875 1.6484370000000013-.03125C147.484375 50.917969 147.03125 50.578125 146.710938 50.300781 146.671875 50.269531 148.039062 49.902344 148.039062 49.902344 148.015625 49.875 147.808594 49.726562 147.492188 49.605469 147.207031 49.492188 148.695312 49.105469 148.695312 49.105469 146.808594 48.242188 141.914062 50.699219 140.945312 53.246094 140.691406 53.855469 140.683594 53.195312 140.738281 52.679688 140.789062 52.125 140.855469 51.636719 140.796875 51.128906 140.78125 50.980469 140.398438 51.53125 140.371094 51.382812 140.273438 50.84375 140.5625 50.25 140.433594 49.648438 140.386719 49.445312 139.882812 50.246094 139.8125 50.042969 139.628906 49.488281 139.953125 48.707031 139.820312 47.941406 139.769531 47.640625 139.292969 48.582031 139.128906 48.3125 138.941406 48.003906 139.023438 46.851562 138.9375 46.679688 138.863281 46.539062 138.4375 47.230469 138.402344 47.097656 137.824219 44.988281 138.589844 44.726562 137.480469 45.917969 137.441406 45.957031 137.195312 44.667969 137.152344 44.714844 136.695312 45.691406 135.953125 44.015625 135.695312 44.171875 135.507812 44.292969 136.214844 44.9375 136.222656 45.230469 136.226562 45.371094 135.570312 45.378906 135.570312 45.378906 135.585938 45.621094 136.820312 46.296875 136.859375 46.558594 136.894531 46.777344 135.984375 46.722656 135.984375 46.722656 136.015625 47.019531 137.042969 47.300781 137.101562 47.613281 137.132812 47.785156 136.617188 47.824219 136.636719 48 136.664062 48.269531 137.628906 48.800781 137.664062 49.074219 137.683594 49.265625 137.042969 49.34375 137.027344 49.523438 137.007812 49.738281 138.316406 50.457031 138.316406 50.660156 138.316406 50.945312 137.796875 50.800781 137.558594 50.945312 137.226562 51.144531 138.628906 51.964844 138.6875 52.199219 138.734375 52.402344 138.128906 52.222656 138.105469 52.410156 138.082031 52.65625 138.792969 53.023438 138.957031 53.445312 139.121094 53.859375 138.953125 53.964844 138.71875 53.800781 138.25 53.46875 136.355469 51.453125 135.855469 50.917969 135.125 50.136719 133.628906 49.261719 132.136719 49.210938 131.980469 49.257812 132.9375 49.9375 132.945312 50.183594 132.945312 50.246094 132.515625 50.339844 132.535156 50.359375 132.796875 50.625 133.621094 50.941406 133.621094 50.941406L133.386719 51.367188C133.441406 51.492188 133.832031 51.523438 134.457031 51.730469 134.457031 51.730469 133.988281 52.023438 134.023438 52.050781 134.355469 52.316406 135 52.511719 135 52.511719L134.367188 52.722656C134.328125 52.847656 135.789062 53.433594 135.789062 53.433594 135.789062 53.433594 135.332031 53.828125 135.351562 53.847656 135.464844 53.960938 136.539062 54.207031 136.539062 54.207031 136.558594 54.226562 135.78125 54.46875 135.785156 54.472656 136.066406 54.753906 136.84375 54.847656 137.023438 55.3125 137.023438 55.3125 137.132812 55.578125 136.824219 55.527344 135.617188 55.089844 133.742188 54.179688 130.113281 54.535156 126.402344 55.019531 123.574219 58.253906 123.621094 58.574219c0 0 1.328125-.953125 1.46875-.7578129999999987zm0 0"/><path style="stroke:none;fill-rule:evenodd;fill:#8c4200;fill-opacity:1" d="M139.183594 57.625C138.933594 57.238281 138.4375 57.113281 138.070312 57.347656 137.707031 57.585938 137.613281 58.089844 137.863281 58.476562 138.113281 58.863281 138.609375 58.984375 138.972656 58.75 139.335938 58.515625 139.429688 58.011719 139.183594 57.625zm0 0"/><path style="stroke:none;fill-rule:evenodd;fill:#8c4200;fill-opacity:1" d="M139.074219 58.316406C139.359375 57.875 139.925781 57.734375 140.34375 58 140.757812 58.269531 140.867188 58.84375 140.582031 59.289062 140.296875 59.730469 139.730469 59.871094 139.3125 59.601562 138.898438 59.332031 138.792969 58.757812 139.074219 58.316406zm0 0"/><path style="stroke:none;fill-rule:evenodd;fill:#8c4200;fill-opacity:1" d="M137.964844 59.027344C138.265625 58.554688 138.871094 58.40625 139.316406 58.691406 139.761719 58.976562 139.875 59.59375 139.570312 60.0625 139.269531 60.535156 138.664062 60.6875 138.21875 60.398438 137.773438 60.113281 137.660156 59.5 137.964844 59.027344zm0 0"/><path style="stroke:none;fill-rule:evenodd;fill:#000;fill-opacity:1" d="M131.425781 89.816406H132.605469V90.699219H131.425781zm0 0"/><path style="stroke:none;fill-rule:evenodd;fill:#8c4200;fill-opacity:1" d="M125.515625 90.382812C125.515625 90.382812 133.277344 90.976562 138.039062 89.953125 138.039062 89.953125 138.4375 90.226562 137.863281 90.898438 137.289062 91.570312 135.835938 91.710938 135.035156 91.855469 135.035156 91.855469 134.84375 92.289062 134.859375 92.511719 134.875 92.738281 135.363281 92.714844 135.601562 92.664062L135.84375 92.617188C135.84375 92.617188 135.730469 93.457031 132.792969 93.570312 131.828125 93.605469 128.648438 93.675781 127.976562 92.730469c0 0 .5820319999999981.046875.7304689999999994.0C128.859375 92.683594 128.75 92.074219 128.695312 91.984375 128.636719 91.898438 126.632812 91.984375 125.578125 91.007812 125.316406 90.730469 125.191406 90.433594 125.191406 90.328125 125.191406 90.320312 125.515625 90.382812 125.515625 90.382812zM129.558594 92.015625c0 0 2.125.27343700000000126 4.570312000000001.0.0.0.06640600000000063.46484399999999937-.046875.640625C133.96875 92.832031 131.148438 92.96875 129.726562 92.722656 129.5 92.648438 129.492188 92.367188 129.558594 92.015625zm0 0"/><path style="stroke:none;fill-rule:evenodd;fill:#fdf9ff;fill-opacity:1" d="M126.59375 90.003906c0 0 2.8828120000000013-3.0664060000000006 2-9.472656C128.59375 80.53125 131.59375 81.308594 134.652344 85.730469 134.652344 85.730469 135.546875 86.628906 136.597656 89.832031zm0 0"/><path style="stroke:none;fill-rule:evenodd;fill:#c62139;fill-opacity:1" d="M139.578125 34.644531c0 0-24.664063 18.398438-24.664063 40.09375.0 21.695313 24.664063 40.617188 24.664063 40.617188.0.0 24.507813-17.359375 24.507813-40.617188.0-23.253906-24.507813-40.09375-24.507813-40.09375zM139.570312 39.097656c0 0-21.945312 16.367188-21.945312 35.667969.0 19.304687 21.945312 36.136719 21.945312 36.136719.0.0 21.804688-15.445312999999999 21.804688-36.136719.0-20.6875-21.804688-35.667969-21.804688-35.667969zm0 0"/></g></svg>