<svg xmlns="http://www.w3.org/2000/svg" xmlns:xlink="http://www.w3.org/1999/xlink" width="225pt" height="150pt" viewBox="0 0 225 150"><g id="surface1"><path d="M0 0h225v150H0z" style="fill:#0085ce;fill-opacity:1;stroke:none"/><path style="fill-rule:nonzero;fill:#fff;fill-opacity:1;stroke-width:2.260365;stroke-linecap:butt;stroke-linejoin:miter;stroke:#fbffff;stroke-opacity:1;stroke-miterlimit:4" d="M-443.078665 241.179948-419.157938 229.808775-414.115031 240.428744C-413.100569 242.549792-412.556582 244.273143-412.453665 245.598798-412.350749 246.909724-412.688903 248.161731-413.468127 249.340091-414.23265 250.518451-415.291219 251.416951-416.599728 252.03559-418.305201 252.845712-419.995972 252.978277-421.67204 252.433286-423.36281 251.888295-424.906557 250.533181-426.317983 248.397403-426.317983 249.428468-426.406197 250.25332-426.597328 250.871959-427.008994 252.197614-427.655897 253.582187-428.538038 255.010948L-433.066363 262.257862-434.962966 258.280897-431.478509 252.742605C-430.493451 251.13709-429.743631 249.855624-429.273156 248.898206-428.787978 247.940789-428.508634 247.145396-428.435122 246.526757-428.36161 245.908118-428.376313 245.333667-428.479229 244.788676-428.582145 244.390979-428.817383 243.78707-429.214347 242.962218L-430.949224 239.294572-441.579025 244.346791zM-428.214587 237.998376-424.980069 244.803405C-424.289059 246.246896-423.598048 247.30742-422.92174 247.984977-422.230729 248.662534-421.451505 249.045501-420.598768 249.163337-419.731329 249.266444-418.9227 249.148608-418.143475 248.78037-417.011394 248.235379-416.276277 247.395797-415.938123 246.217437-415.599968 245.053807-415.849908 243.580857-416.702645 241.813317L-420.290019 234.242354zm0 0" transform="matrix(0.265689,0,0,0.265199,188.971029,24.906483)"/><path style="fill-rule:nonzero;fill:#fff;fill-opacity:1;stroke-width:2.260365;stroke-linecap:butt;stroke-linejoin:miter;stroke:#fbffff;stroke-opacity:1;stroke-miterlimit:4" d="M-427.023696 270.845161-405.087787 256.012554-394.355069 271.876226-396.942683 273.629036-405.705285 260.667076-412.42426 265.218492-404.220348 277.355599-406.793259 279.09368-415.011874 266.956573-422.465967 272.008791-413.365211 285.471554-415.952825 287.224364zm0 0" transform="matrix(0.265689,0,0,0.265199,188.971029,24.906483)"/><path style="fill-rule:nonzero;fill:#fff;fill-opacity:1;stroke-width:2.260365;stroke-linecap:butt;stroke-linejoin:miter;stroke:#fbffff;stroke-opacity:1;stroke-miterlimit:4" d="M-392.326145 297.093129-389.959066 295.075187-382.666699 303.588838-390.135494 309.966712C-392.29674 309.554286-394.237451 308.876729-395.942923 307.934041-397.663099 306.991353-399.148036 305.783534-400.397736 304.325313-402.088507 302.35156-403.205885 300.186324-403.73517 297.844333-404.279157 295.517072-404.088027 293.248729-403.191183 291.054034-402.29434 288.859339-400.853509 286.915045-398.883394 285.221152-396.927981 283.541989-394.737331 282.393088-392.340847 281.75972-389.944364 281.126351-387.680202 281.229458-385.533658 282.069039-383.401817 282.893891-381.475809 284.322653-379.755634 286.325865-378.520636 287.784085-377.623793 289.301224-377.094508 290.87728-376.550521 292.453336-376.432902 293.941016-376.697544 295.325589-376.962187 296.710162-377.638495 298.168382-378.682362 299.670791L-381.402297 297.829604C-380.637775 296.651244-380.152597 295.59072-379.946764 294.633302-379.740931 293.690614-379.829145 292.64482-380.182002 291.510649-380.549561 290.376477-381.152357 289.301224-382.034498 288.284888-383.063663 287.06234-384.151637 286.17857-385.283718 285.604119-386.415799 285.029669-387.518476 284.735079-388.577045 284.70562-389.650317 284.676161-390.679481 284.823456-391.664539 285.132775-393.340607 285.692496-394.913759 286.590996-396.369292 287.828274-398.162979 289.360142-399.397976 290.950928-400.074284 292.600631-400.765295 294.250335-400.882914 295.929498-400.471248 297.608661-400.04488 299.287824-399.265655 300.790233-398.133574 302.115888-397.148516 303.279519-395.957626 304.207477-394.575605 304.929223-393.193584 305.650968-392.002693 306.078124-391.017635 306.210689L-387.268536 303.014388zm0 0" transform="matrix(0.265689,0,0,0.265199,188.971029,24.906483)"/><path style="fill-rule:nonzero;fill:#fff;fill-opacity:1;stroke-width:2.260365;stroke-linecap:butt;stroke-linejoin:miter;stroke:#fbffff;stroke-opacity:1;stroke-miterlimit:4" d="M-384.166339 321.043295-365.597268 302.160077-363.097869 304.619903-381.666939 323.503122zm0 0" transform="matrix(0.265689,0,0,0.265199,188.971029,24.906483)"/><path style="fill-rule:nonzero;fill:#fff;fill-opacity:1;stroke-width:2.260365;stroke-linecap:butt;stroke-linejoin:miter;stroke:#fbffff;stroke-opacity:1;stroke-miterlimit:4" d="M-362.215727 319.14319C-359.451685 315.711216-356.378894 313.781652-352.967948 313.325037-349.571705 312.868423-346.425401 313.82584-343.514335 316.167831-341.617732 317.699699-340.265116 319.540886-339.471189 321.676664-338.677262 323.827171-338.530238 326.036596-339.04482 328.304939-339.559403 330.573282-340.647377 332.738518-342.308743 334.800648-343.999513 336.892237-345.925521 338.424105-348.101469 339.396252-350.277417 340.368399-352.48277 340.648259-354.717528 340.250563-356.937583 339.852866-358.951805 338.924908-360.745492 337.481417-362.686203 335.92009-364.038819 334.049443-364.818044 331.869477-365.582566 329.704241-365.700185 327.494816-365.185603 325.241203-364.67102 322.97286-363.67126 320.940189-362.215727 319.14319zM-359.436983 321.440992C-361.436503 323.930277-362.348049 326.419563-362.17162 328.938307-361.995192 331.442322-360.892516 333.504452-358.878293 335.139426-356.819964 336.78913-354.555802 337.437228-352.056402 337.054261-349.571705 336.686024-347.248733 335.168885-345.116892 332.517575-343.764275 330.838413-342.85273 329.14452-342.411659 327.435898-341.970588 325.727276-342.014695 324.092302-342.558683 322.516245-343.087967 320.954918-344.04362 319.614534-345.396236 318.524551-347.322245 316.963224-349.527597 316.285667-351.98289 316.49188-354.452885 316.698093-356.937583 318.347797-359.436983 321.440992zm0 0" transform="matrix(0.265689,0,0,0.265199,188.971029,24.906483)"/><path style="fill-rule:nonzero;fill:#fff;fill-opacity:1;stroke-width:2.260365;stroke-linecap:butt;stroke-linejoin:miter;stroke:#fbffff;stroke-opacity:1;stroke-miterlimit:4" d="M-337.10411 351.356605-332.619892 325.255932-329.076626 325.874571-318.887895 348.720025-315.374033 328.231291-312.051302 328.791012-316.550221 354.891685-320.093488 354.287776-330.267516 331.412863-333.796081 351.931056zm0 0" transform="matrix(0.265689,0,0,0.265199,188.971029,24.906483)"/><path style="fill-rule:nonzero;fill:#fff;fill-opacity:1;stroke-width:2.260365;stroke-linecap:butt;stroke-linejoin:miter;stroke:#fbffff;stroke-opacity:1;stroke-miterlimit:4" d="M-302.935843 357.41043-302.891736 330.92679-283.734571 330.956249-283.749274 334.078902-299.392576 334.049443-299.407279 342.165398-284.749034 342.194857-284.763736 345.302781-299.407279 345.273322-299.421981 354.287776-283.161179 354.317235-283.175882 357.439889zm0 0" transform="matrix(0.265689,0,0,0.265199,188.971029,24.906483)"/><path style="fill-rule:nonzero;fill:#fff;fill-opacity:1;stroke-width:2.260365;stroke-linecap:butt;stroke-linejoin:miter;stroke:#fbffff;stroke-opacity:1;stroke-miterlimit:4" d="M-251.315885 352.770637-262.533779 328.776283-257.755515 326.537399-244.141137 340.883931C-242.876734 342.209586-241.935784 343.225922-241.332987 343.888749-241.465309 342.887143-241.641737 341.414193-241.84757 339.45517L-243.905899 320.071148-239.642217 318.067936-228.424322 342.062291-231.482411 343.505782-240.862512 323.414745-238.451326 346.761002-241.318285 348.101386-257.799622 330.91206-248.257795 351.341876zm0 0" transform="matrix(0.265689,0,0,0.265199,188.971029,24.906483)"/><path style="fill-rule:nonzero;fill:#fff;fill-opacity:1;stroke-width:2.260365;stroke-linecap:butt;stroke-linejoin:miter;stroke:#fbffff;stroke-opacity:1;stroke-miterlimit:4" d="M-224.719329 324.254326C-226.762956 320.365738-227.321646 316.77174-226.395397 313.472332-225.469149 310.172925-223.352011 307.65418-220.043981 305.916099-217.882736 304.767198-215.66268 304.266395-213.383816 304.384231-211.090249 304.502067-209.017217 305.238542-207.135316 306.608386-205.238713 307.978229-203.680263 309.834146-202.445266 312.176136-201.195566 314.562315-200.563365 316.933765-200.53396 319.319944-200.504555 321.691393-201.107352 323.827171-202.357052 325.727276-203.606752 327.612652-205.253415 329.100332-207.28234 330.160856-209.502395 331.324486-211.751855 331.840018-214.045422 331.677994-216.338989 331.530699-218.426723 330.764765-220.293921 329.394922-222.16112 328.025078-223.631355 326.316456-224.719329 324.254326zM-221.499514 322.619352C-219.999874 325.447416-218.073866 327.273874-215.706787 328.098726-213.325006 328.923578-210.987332 328.732094-208.708468 327.524275-206.370794 326.286997-204.885856 324.460539-204.238953 322.030172-203.592049 319.585075-204.062524 316.860117-205.650378 313.855299-206.664841 311.940464-207.855731 310.452785-209.252455 309.362802-210.649178 308.287549-212.163521 307.66891-213.824886 307.551074-215.47155 307.418508-217.074106 307.757287-218.617853 308.567409-220.823206 309.73104-222.308144 311.469121-223.102071 313.811111-223.881295 316.153101-223.352011 319.099001-221.499514 322.619352zm0 0" transform="matrix(0.265689,0,0,0.265199,188.971029,24.906483)"/><path style="fill-rule:nonzero;fill:#fff;fill-opacity:1;stroke-width:2.260365;stroke-linecap:butt;stroke-linejoin:miter;stroke:#fbffff;stroke-opacity:1;stroke-miterlimit:4" d="M-187.875235 313.221931-207.679303 295.620179-205.341629 293.013057-187.889937 308.523221-179.215549 298.772292-176.877875 300.849151zm0 0" transform="matrix(0.265689,0,0,0.265199,188.971029,24.906483)"/><path style="fill-rule:nonzero;fill:#fff;fill-opacity:1;stroke-width:2.260365;stroke-linecap:butt;stroke-linejoin:miter;stroke:#fbffff;stroke-opacity:1;stroke-miterlimit:4" d="M-168.365213 292.291312-189.992373 277.002091-187.963449 274.144568-166.336289 289.433789zm0 0" transform="matrix(0.265689,0,0,0.265199,188.971029,24.906483)"/><path style="fill-rule:nonzero;fill:#fff;fill-opacity:1;stroke-width:2.260365;stroke-linecap:butt;stroke-linejoin:miter;stroke:#fbffff;stroke-opacity:1;stroke-miterlimit:4" d="M-164.763137 276.280346-163.439925 273.246069C-162.204928 273.732142-161.072846 273.938355-160.058384 273.835249-159.02922 273.746872-158.014757 273.290257-156.97089 272.480135-155.941726 271.670013-155.059584 270.609489-154.339169 269.283834-153.692266 268.120203-153.310004 266.986032-153.162981 265.896049-153.03066 264.806066-153.148279 263.878107-153.515837 263.112173-153.883396 262.33151-154.427383 261.757059-155.147799 261.359363-155.868214 260.961666-156.632736 260.829101-157.397258 260.961666-158.176483 261.079502-159.014517 261.536117-159.911361 262.302051-160.499455 262.788124-161.631536 263.966484-163.307604 265.822401-164.983672 267.678318-166.277479 268.915596-167.203727 269.519506-168.379916 270.314899-169.556104 270.756784-170.71759 270.830431-171.879075 270.904079-172.996454 270.653677-174.055024 270.064497-175.231212 269.431129-176.142758 268.50317-176.804363 267.280622-177.465969 266.058073-177.715909 264.658771-177.539481 263.097444-177.377755 261.521387-176.863173 259.96006-176.010436 258.398733-175.069486 256.675382-173.966809 255.305538-172.687705 254.289203-171.423302 253.272867-170.055984 252.698417-168.585748 252.580581-167.115513 252.462745-165.689385 252.742605-164.307364 253.434892L-165.689385 256.513357C-167.247834 255.865259-168.644558 255.791612-169.894258 256.307144-171.143958 256.807947-172.261337 257.956848-173.231692 259.739118-174.246154 261.609764-174.643118 263.141632-174.422582 264.364181-174.202047 265.586729-173.613953 266.470499-172.643598 266.986032-171.820266 267.442646-170.96753 267.516294-170.100091 267.206974-169.232652 266.912384-167.835929 265.660377-165.90992 263.465681-163.983912 261.285715-162.557784 259.827495-161.616834 259.135208-160.264217 258.118873-158.926303 257.544422-157.617794 257.426586-156.309284 257.294021-155.03018 257.573881-153.78048 258.251438-152.545482 258.928995-151.575127 259.915872-150.869414 261.226797-150.148999 262.537723-149.854952 264.010673-149.972571 265.675106-150.090189 267.32481-150.590069 268.989244-151.501615 270.653677-152.648399 272.759995-153.912801 274.350781-155.294822 275.440764-156.691546 276.530747-158.22059 277.149386-159.896658 277.281952-161.572726 277.414517-163.189985 277.090468-164.763137 276.280346zm0 0" transform="matrix(0.265689,0,0,0.265199,188.971029,24.906483)"/><path style="fill-rule:nonzero;fill:#fff;fill-opacity:1;stroke-width:2.260365;stroke-linecap:butt;stroke-linejoin:miter;stroke:#fbffff;stroke-opacity:1;stroke-miterlimit:4" d="M-140.960029 253.213949-164.939565 241.975341-156.809164 224.63872-153.97161 225.964375-160.617074 240.119424-153.2806 243.566127-147.046802 230.309578-144.238653 231.620503-150.457748 244.891782-142.297943 248.721452-135.387837 233.991952-132.564985 235.332337zm0 0" transform="matrix(0.265689,0,0,0.265199,188.971029,24.906483)"/><path style="fill-rule:nonzero;fill:#d71919;fill-opacity:1;stroke-width:12;stroke-linecap:butt;stroke-linejoin:miter;stroke:#bebebe;stroke-opacity:1;stroke-miterlimit:4" d="M5.995313 7.005208V39.895833C6.034375 98.463542 19.198438 216.471354 118.495313 247.5 217.805208 216.471354 230.95625 98.463542 230.995313 39.895833V7.005208" transform="matrix(0.3,0,0,0.3,77.01,30)"/><path style="stroke:none;fill-rule:evenodd;fill:#bebebe;fill-opacity:1" d="M98.917969 51.597656 94.65625 50.171875 92.652344 54.1875l-2-4.015625L86.390625 51.597656 87.820312 47.34375 83.796875 45.34375 87.820312 43.34375 86.390625 39.089844 90.652344 40.515625l2-4.015625L94.65625 40.515625 98.917969 39.089844 97.488281 43.34375 101.511719 45.34375 97.488281 47.34375zm0 0"/><path style="stroke:none;fill-rule:evenodd;fill:#bebebe;fill-opacity:1" d="M138.046875 33.371094 88.089844 81.054688C90.152344 85.84375 92.765625 90.164062 96.078125 93.410156l49.558594-47.304687-.203125-12.546875zm0 0"/><path style="stroke:none;fill-rule:evenodd;fill:#bebebe;fill-opacity:1" d="M77.011719 30.148438h71.097656V33.75H77.011719zm0 0"/></g></svg>