<svg xmlns="http://www.w3.org/2000/svg" xmlns:xlink="http://www.w3.org/1999/xlink" width="225pt" height="150pt" viewBox="0 0 225 150"><g id="surface1"><path d="M0 0h225v150H0z" style="fill:#ffce00;fill-opacity:1;stroke:none"/><path style="stroke:none;fill-rule:nonzero;fill:#d00;fill-opacity:1" d="M0 0H225V1e2H0zM0 0"/><path style="stroke:none;fill-rule:nonzero;fill:#000;fill-opacity:1" d="M0 0H225V50H0zM0 0"/><path style="stroke:none;fill-rule:nonzero;fill:#d00;fill-opacity:1" d="M105.0625 125.132812c-24.003906.0-43.46875-19.460937-43.46875-43.46875V25.335938h86.9375V81.664062c0 24.007813-19.460938 43.46875-43.46875 43.46875"/><path style="stroke:none;fill-rule:nonzero;fill:#000;fill-opacity:1" d="M148.570312 81.433594C148.570312 105.492188 129.0625 125 105 125c-24.0625.0-43.566406-19.507812-43.566406-43.566406V25h87.140625V81.433594M105 122.949219c22.933594.0 41.523438-18.738281 41.523438-41.667969V27.050781H63.480469V81.433594C63.480469 104.359375 82.070312 122.949219 105 122.949219zm0 0"/><path style="stroke:none;fill-rule:nonzero;fill:#000;fill-opacity:1" d="M106.410156 58.296875C107.210938 58.082031 107.257812 56.582031 107.070312 55.820312 106.394531 54.578125 108.1875 53.5 107.375 52.078125 107.339844 51.203125 106.222656 50.683594 106.820312 49.84375 107.21875 48.210938 106.5 46.441406 105.195312 45.46875 105.183594 44.007812 105.121094 41.976562 103.445312 41.429688 102.328125 41.300781 102.789062 40.191406 102.320312 39.484375 101.824219 38.855469 101.089844 38.664062 100.90625 37.820312 100.085938 36.355469 97.84375 37.5625 97.132812 36.117188 96.460938 34.859375 96.457031 33.347656 96.070312 32.054688 94.667969 31.695312 94.277344 33.421875 93.984375 34.390625 93.285156 33.9375 94.886719 32.476562 93 33.117188 93.398438 31.457031 91.65625 32.132812 91.304688 33.054688 91.234375 34.257812 89.851562 33.601562 89.117188 34.140625 88.15625 34.558594 88.132812 36.046875 88.78125 36.710938 87.921875 37.265625 86.117188 36.96875 86.070312 38.445312 84.949219 39.359375 83.804688 40.144531 82.695312 41.117188 81.628906 41.242188 81.066406 42.222656 80.28125 42.828125 79.710938 44.003906 80.636719 45.167969 80.257812 46.40625 80.027344 48.316406 82.734375 47.292969 82.929688 48.453125 83.355469 49.703125 84.90625 48.96875 85.835938 49.195312 87.222656 49.039062 87.046875 46.65625 88.640625 47.265625 89.507812 47.613281 90.398438 46.992188 91.140625 46.976562 92.183594 48.28125 91.054688 50.085938 90.1875 51.195312 88.742188 52.796875 87.015625 54.554688 87.015625 56.898438 86.429688 57.820312 85.246094 58.308594 84.90625 59.453125 84.429688 59.960938 84.894531 62.054688 83.789062 60.984375 82.457031 60.304688 80.855469 60.132812 79.984375 58.78125 78.769531 58.449219 77.371094 58.449219 76.117188 58.476562 75.058594 58.695312 74.675781 59.753906 74.304688 60.585938 73.054688 62.015625 71.835938 63.796875 70.164062 64.875 69.550781 65.582031 68.375 65.910156 68.335938 66.984375 67.65625 68.277344 68.578125 69.730469 68.246094 71.144531 68.113281 72.40625 68.078125 73.863281 69.609375 74.1875 70.367188 74.796875 71.351562 75.925781 72.335938 75.398438 73.042969 73.589844 73.886719 71.550781 73.265625 69.625 72.664062 69.203125 72.390625 68.515625 71.65625 68.289062 71.367188 67.324219 72.535156 66.503906 72.953125 67.703125 74.714844 67.402344 75.046875 65.21875 75.851562 63.867188 76.28125 62.226562 78.675781 62.160156 79.34375 63.648438 80.199219 64.863281 81.292969 66.164062 82.203125 67.234375 80.585938 67.234375 79.066406 66.585938 77.65625 65.9375 76.476562 65.59375 75.855469 66.628906 75.445312 67.5 74.269531 68.097656 73.71875 69.601562 74.40625 70.757812 74.664062 73.3125 74.75 75.902344 74.117188 78.386719 73.605469 79.734375 74.792969 80.628906 74.753906 81.902344 74.863281 83.066406 75.929688 83.722656 75.960938 84.875 76.453125 85.929688 77.886719 85.808594 78.84375 86.335938 80.152344 86.902344 81.324219 86.105469 80.832031 84.707031 80.757812 83.214844 80.914062 81.207031 79.648438 80.210938 78.65625 79.964844 76.820312 80.007812 77.523438 78.398438 78.453125 78.015625 79.382812 77.753906 78.757812 76.5 78.105469 74.847656 77.238281 73.140625 77.742188 71.285156 78.3125 70.003906 80.214844 70.824219 80.796875 71.734375 82.785156 73.820312 85.019531 76.003906 88.015625 76.5 89.492188 76.574219 90.691406 78.4375 92.242188 77.65625 92.589844 76.5625 93.632812 76.75 94.507812 77.238281 96.195312 77.945312 97.679688 79.113281 99.507812 79.484375 102.453125 80.5 105.640625 80.285156 108.664062 79.734375c1.5625-.15625 3.0625.75 3.7031259999999975 2.109375C113.261719 83.082031 114.863281 82.585938 116.117188 82.84375 116.917969 84.382812 118.8125 84.109375 120.289062 84.289062 122.402344 85.382812 123.242188 87.855469 124.140625 89.90625 125.273438 92.351562 125.171875 95.460938 123.382812 97.523438 122.882812 98.640625 121.015625 98.546875 121.140625 100.039062 120.839844 101.335938 119.40625 102.550781 119.617188 104.0625 121.074219 104.621094 122.875 104.265625 124.378906 103.914062 125.976562 103.652344 127.726562 102.457031 127.289062 100.601562 126.570312 99.691406 127.046875 98.652344 127.851562 97.976562 128.171875 97.179688 128.613281 96.5625 129.539062 96.664062 130.75 97.097656 130.222656 95.164062 130.15625 94.46875 129.984375 93.238281 129.007812 92.316406 128.695312 91.078125 128.453125 90.265625 127.765625 87.851562 129.109375 89.242188 130.671875 90.816406 132.019531 92.664062 132.328125 94.953125 132.910156 96.84375 132.496094 98.800781 131.984375 100.632812 131.472656 101.648438 130.765625 102.617188 129.703125 103.0625 129.355469 103.808594 129.113281 104.546875 128.609375 105.242188 128.300781 106.292969 127.128906 107.347656 127.679688 108.414062 130.042969 108.839844 132.792969 108.457031 134.640625 106.859375 135.441406 105.535156 134.007812 103.71875 135.410156 102.621094 135.851562 101.738281 136.644531 101.347656 137.613281 101.226562 138.886719 100.949219 138.417969 99.101562 138.203125 98.160156 137.332031 96.375 136.332031 94.632812 136.085938 92.601562 135.585938 91.3125 135.105469 89.910156 135.335938 88.535156 134.753906 86.609375 132.21875 86.628906 131.25 85.019531 130.46875 83.832031 129.675781 82.613281 128.585938 81.636719c.0625-1.609375.65625-3.316406999999998.0-4.945312999999999C128.011719 75.140625 128.652344 73.367188 127.976562 71.792969 127.835938 70.988281 127.394531 70.253906 127.210938 69.511719 128.925781 69.683594 130.675781 68.769531 131.3125 67.175781 132.414062 66.125 133.757812 67.96875 132.8125 68.972656 132.171875 70.007812 131.050781 70.910156 131.148438 72.300781 130.851562 74.519531 132.199219 76.40625 133.78125 77.738281 134.59375 78.722656 134.183594 80.578125 132.796875 79.941406 132.800781 81.417969 134.714844 80.726562 135.414062 80.199219 136.046875 78.984375 136.363281 78.167969 136.179688 80.222656 136.085938 80.957031 134.363281 81.863281 136.023438 81.621094 137.214844 81.300781 137.496094 79.910156 137.75 78.941406 137.574219 80.667969 138.609375 79.628906 138.625 78.613281 138.921875 78.429688 138.847656 80.832031 138.421875 81.589844 137.921875 82.644531 135.960938 83.566406 135.304688 82.277344 134.359375 83.390625 136.664062 84.128906 137.578125 83.636719 139.832031 83.050781 141.269531 80.695312 141.34375 78.472656 141.273438 77.453125 140.675781 76.605469 140.28125 75.738281 141.351562 76.484375 142.914062 76.316406 143.359375 75.003906 143.871094 73.195312 142.160156 75.5625 141.4375 74.316406 140.230469 72.515625 142.226562 70.773438 142.046875 68.902344 142.511719 67.207031 141.539062 65.617188 140.570312 64.363281 141.101562 62.273438 141.039062 59.707031 139.210938 58.277344 138.3125 57.1875 136.730469 57.296875 135.46875 57.152344 134.429688 54.894531 131.230469 55.070312 129.25 55.988281 126.625 57.015625 125.183594 60.816406 127.046875 63.101562 128.242188 63.679688 128.996094 65.558594 127.585938 66.328125 126.300781 67.363281 124.578125 66.183594 123.4375 65.46875 121.132812 63.570312 118.078125 62.515625 115.039062 62.800781 111.832031 63.160156 108.542969 62.40625 105.71875 60.925781 104.847656 60.421875 105.183594 60.042969 105.742188 59.449219 105.875 58.972656 106.238281 58.714844 106.410156 58.296875zm0 0"/><path style="stroke:none;fill-rule:nonzero;fill:#fff;fill-opacity:1" d="M106.253906 58.496094C105.402344 57.773438 106.261719 56.84375 105.921875 56 104.855469 54.914062 104.714844 55.003906 105.601562 56.226562 104.910156 56.636719 104.011719 55.195312 103.671875 54.820312 103.90625 56.058594 105.449219 56.382812 105.507812 57.75 105.371094 59.105469 104.917969 59.339844 104.882812 57.882812 104.773438 56.765625 103.230469 56.707031 103.25 55.515625 102.886719 56.195312 103.851562 56.96875 104.398438 57.382812 104.882812 58.050781 104.78125 59.738281 103.71875 59.585938 104.425781 58.523438 103.738281 57.554688 102.851562 56.992188 102.121094 56.023438 102.664062 58.128906 102.890625 58.984375 102.304688 57.792969 102.871094 61.1875 103.675781 60.117188 106.308594 62.347656 109.925781 63.402344 113.351562 63.296875 115.511719 63.367188 117.769531 63.164062 119.8125 64.0625 122.308594 64.820312 124.039062 67.144531 126.746094 67.300781 128.210938 67.320312 129.511719 65.773438 128.753906 64.375 128.46875 63.136719 126.808594 62.671875 126.78125 61.289062 126.398438 59.496094 127.449219 57.574219 129.03125 56.734375 130.449219 55.808594 132.578125 55.636719 134.117188 56.394531 134.945312 56.636719 134.84375 57.9375 135.789062 57.84375 137.328125 57.757812 138.863281 58.292969 139.640625 59.695312 140.757812 61.144531 139.988281 63.054688 140.148438 64.679688 140.886719 65.8125 141.765625 66.96875 141.570312 68.453125 141.542969 69.78125 141.117188 71.136719 140.53125 72.25 140.542969 70.730469 141.359375 69.175781 140.640625 67.703125 141.210938 69.679688 139.625 71.609375 140.4375 73.546875 140.652344 74.421875 141.316406 75.238281 142.078125 75.46875 140.191406 75.5625 138.84375 73.433594 139.332031 71.652344 139.367188 70.179688 140.023438 68.355469 138.742188 67.21875 138.816406 68.132812 139.183594 69.613281 138.890625 70.757812 138.285156 72.582031 138.433594 74.71875 139.710938 76.179688 140.976562 78.074219 140.699219 81.21875 138.695312 82.429688 138.785156 81.859375 139.375 81 139.28125 80.210938 140.003906 78.121094 138.300781 76.449219 137.179688 74.984375 135.894531 73.304688 137.453125 71.238281 136.757812 69.476562 136.796875 70.109375 136.84375 71.144531 136.5625 71.921875 136.015625 73.628906 136.785156 75.289062 137.84375 76.554688 138.675781 78.78125 137.878906 77.941406 137.121094 76.816406 136.34375 75.492188 134.710938 74.566406 134.757812 72.828125 134.394531 73.804688 135.191406 75.105469 135.992188 75.804688 136.816406 76.921875 137.636719 78.476562 136.9375 79.867188 136.550781 78.628906 136.277344 76.929688 134.921875 76.234375 133.855469 75.304688 133.046875 74.058594 133.117188 72.5625 132.679688 73.664062 133.488281 75.183594 134.25 76.117188 134.957031 76.914062 135.738281 78.574219 134.789062 79.351562 134.867188 77.941406 133.957031 76.890625 132.945312 76.070312 131.632812 74.761719 131.425781 72.640625 131.914062 70.921875 132.925781 69.882812 134.328125 68.367188 133.203125 66.867188 132.910156 66.359375 131.15625 66.363281 132.375 65.898438 133.207031 65.210938 134.644531 67.796875 134.296875 66.515625 133.730469 65.164062 131.578125 64.992188 131.03125 66.421875 130.609375 68.519531 128.058594 69.582031 126.179688 68.640625 124.707031 68.730469 127.078125 69.863281 126.960938 70.742188 127.605469 72.40625 127.804688 74.28125 127.5625 76.070312 128.191406 77.777344 128.449219 79.761719 127.640625 81.433594 128.585938 82.097656 129.5 83.148438 130.101562 84.242188 130.78125 85.40625 131.597656 86.578125 132.929688 87.078125 133.566406 87.570312 134.621094 88.054688 134.5625 88.9375 134.535156 90.898438 135.363281 92.816406 135.921875 94.695312 136.285156 96.648438 138.035156 98.164062 137.617188 100.304688 136.976562 101.027344 135.472656 100.121094 135.5 101.085938 135.273438 102.21875 134.054688 102.851562 133.75 103.9375 131.871094 103.667969 135.253906 105.15625 133.925781 105.226562 133.007812 104.523438 131.398438 104.644531 130.554688 104.554688 131.734375 105.15625 133.726562 104.671875 134.21875 106.210938 132.832031 107.71875 130.484375 107.972656 128.53125 107.882812 127.753906 107.386719 128.867188 106.402344 129.039062 105.734375 129.355469 104.878906 130.207031 104.347656 130.144531 103.382812 131.492188 102.855469 132.207031 101.433594 132.953125 100.273438 133.25 101.496094 133.578125 100.421875 134.65625 100.144531 134.667969 99.605469 132.671875 99.867188 133.046875 98.820312 133.664062 97.183594 132.949219 95.375 132.664062 93.71875 132.328125 92.203125 131.574219 90.960938 130.609375 89.796875 129.667969 88.371094 128.121094 87.671875 126.53125 87.210938 124.566406 86.707031 122.746094 85.707031 121.460938 84.234375 120.621094 83.542969 119.792969 82.8125 118.65625 82.632812 117.121094 82.441406 116.1875 81.140625 115.757812 79.757812 114.84375 78.082031 112.730469 77.414062 110.953125 77.335938 110.078125 77.503906 112.328125 77.570312 112.851562 77.875 113.9375 78.246094 115.28125 78.9375 115.507812 80.132812 114.605469 80.355469 113.296875 80.421875 112.851562 79.335938 111.867188 78.421875 114.125 78.652344 111.789062 78.382812 108.453125 78.894531 105.058594 79.941406 101.660156 79.175781 99.179688 78.863281 96.949219 77.699219 94.804688 76.515625 93.320312 76.28125 93.621094 75.429688 94.945312 75.96875 95.820312 76.476562 95.839844 76.265625 95.265625 75.40625 94.820312 74.839844 95.730469 72.394531 95.558594 74.210938 95.621094 77.476562 96.1875 74.449219 96.117188 72.984375 94.910156 73.324219 94.28125 74.429688 93.46875 75.265625 92.496094 75.460938 92.21875 76.445312 91.789062 77.15625 90.242188 77.207031 89.292969 75.59375 87.6875 75.703125 85.535156 75.039062 83.632812 73.804688 82.070312 72.171875 80.980469 70.980469 79.480469 69.144531 77.65625 70.078125 76.90625 70.753906 76.511719 72.105469 76.789062 73.007812 77.125 71.328125 77.070312 73.957031 77.320312 74.5 77.390625 75.484375 78.714844 76.449219 78.039062 77.351562 76.46875 77.511719 76.550781 79.6875 77.585938 80.445312 77.410156 81.625 79.144531 79.84375 79.734375 81.015625 80.328125 82.503906 80.507812 84.3125 80.117188 85.828125 79.003906 85.796875 77.804688 85.285156 76.773438 85 75.878906 84.742188 76.710938 83.804688 75.953125 83.375 75.164062 82.445312 75.234375 81.148438 75.015625 80.007812 76.160156 80.515625 76.304688 77.609375 75.4375 79.484375 74.417969 80.5625 74.515625 78.539062 74.796875 77.789062 75.289062 75.394531 75.105469 72.886719 74.9375 70.492188 74.335938 69.394531 74.964844 68.34375 75.875 67.742188 76.332031 66.914062 77.203125 65.910156 78.210938 66.710938 80.105469 67.824219 82.3125 67.613281 84.359375 68.21875 85.75 68.734375 87.011719 69.503906 87.9375 70.625 88.160156 70.121094 85.8125 68.582031 87.578125 69.078125 88.328125 69.363281 88.960938 70.402344 89.859375 70.0625 89.253906 69.664062 88.363281 69.347656 87.726562 68.828125 86.5625 68.617188 86.238281 67.960938 86.84375 66.859375 87.585938 65.363281 86.746094 63.582031 87.652344 62.097656 88.054688 60.832031 89.277344 60.132812 90.300781 59.488281 91.03125 58.613281 92.128906 58.328125 93.132812 57.914062 92.035156 57.828125 90.574219 58.578125 89.75 59.53125 88.148438 59.96875 87.183594 61.59375 86.820312 63.164062 86.722656 64.46875 86.976562 65.804688 86.179688 66.9375 86.050781 67.78125 85.921875 68.90625 84.929688 68.015625 84.066406 67.289062 84.597656 65.71875 84.960938 64.742188 85.679688 63.070312 84.609375 61.132812 85.601562 59.5 86.300781 58.101562 86.515625 58.78125 86.089844 59.976562 85.785156 60.511719 86.398438 62.605469 86.476562 61.296875 85.988281 59.457031 87.773438 58.121094 87.75 56.347656 87.929688 54.136719 89.886719 52.859375 91.0625 51.21875 91.796875 50.085938 92.425781 48.675781 92.109375 47.25 92.585938 47.515625 94.078125 46.972656 93.929688 47.015625 92.671875 48.109375 93.679688 47.886719 94.375 46.835938 94.703125 45.917969 96.023438 45.667969 96.0625 44.554688 96.625 42.214844 96.003906 41.652344 95.707031 44.019531 95.546875 45.8125 93.257812 46.824219 91.703125 45.929688 90.472656 45.941406 89.363281 46.960938 88.0625 46.445312 87.828125 45.113281 87.449219 47.175781 86.695312 47.273438 86.152344 49.601562 85.375 47.46875 84.335938 48.484375 82.757812 48.554688 85.285156 48.113281 85.320312 47.234375 86.332031 46.613281 86.472656 45.679688 84.96875 46.0625 83.914062 46.363281 83.332031 47.839844 82.03125 47.273438 80.898438 47.539062 80.1875 46.105469 80.992188 45.367188 81.019531 44.488281 80.195312 43.246094 81.328125 42.742188 81.757812 41.84375 82.722656 41.875 83.4375 41.414062 84.140625 39.964844 86.09375 39.820312 86.851562 38.492188 86.941406 37.121094 88.832031 37.816406 89.507812 36.882812 90.300781 35.996094 91.222656 36.753906 92.148438 36.6875 92.304688 36.136719 90.707031 36.210938 90.46875 35.375 89.246094 35.746094 88.167969 35.582031 89.609375 34.488281 90.570312 34.085938 91.699219 34.691406 92.34375 35.21875 92.417969 33.222656 93.53125 34.109375 93.914062 35.414062 93.714844 36.277344 93.699219 37.335938 94.296875 38.03125 94.285156 37.410156 93.90625 36.445312 94.289062 35.609375 94.707031 34.648438 94.441406 33.261719 95.46875 32.65625 95.847656 33.558594 95.902344 34.878906 96.363281 35.890625 96.738281 36.84375 97.257812 38.453125 95.976562 38.945312 95.316406 39.167969 97.332031 39.296875 97.078125 39.632812 97.660156 40.167969 97.519531 41.0625 97.484375 41.765625 97.78125 40.65625 97.585938 38.8125 98.234375 40.851562 98.675781 41.398438 97.707031 43.46875 98.539062 42.273438 98.265625 40.414062 98.832031 40.695312 99.398438 42.058594 99.769531 43.292969 100.292969 44.632812 99.921875 45.898438 100.730469 45.410156 99.96875 43.617188 99.765625 42.71875 99.542969 41.375 100.503906 42.953125 100.492188 43.484375 100.746094 44.164062 100.554688 42.328125 101.117188 44.007812 101.875 45.972656 102.441406 47.996094 102.464844 50.117188 102.660156 52.484375 101.949219 54.804688 101.0625 56.976562 101.390625 56.960938 102.078125 54.875 101.648438 56.585938 101.566406 56.886719 100.941406 58.421875 101.335938 57.796875 102.734375 54.664062 103.089844 51.101562 102.5 47.714844 101.953125 44.980469 100.917969 42.394531 99.226562 40.234375 98.808594 39.390625 98.019531 38.816406 97.34375 38.234375 96.945312 37.0625 98.792969 37.78125 99.609375 37.796875 100.886719 37.921875 100.625 39.292969 99.390625 38.796875 98.066406 38.5625 100.160156 39.355469 100.632812 39.117188 101.417969 39.191406 102.574219 40.164062 101.75 40.890625 100.53125 39.820312 101.214844 40.976562 101.90625 41.539062 102.574219 41.851562 103.804688 41.804688 103.90625 42.75 102.808594 42.390625 101.273438 42.597656 103.179688 42.804688 104.09375 42.890625 104.839844 44.464844 103.507812 43.648438 102.539062 43.316406 101.207031 43.335938 102.984375 43.703125 103.730469 43.746094 105.105469 45.195312 103.71875 45.226562 102.777344 44.765625 102.128906 44.339844 103.367188 45.304688 104.246094 45.75 105.582031 45.992188 105.734375 47.179688 105.0625 47.339844 102.761719 45.863281 103.953125 46.914062 104.9375 47.25 106.328125 47.609375 106.234375 48.96875 106.550781 50.421875 105.402344 50.625 105.664062 49.023438 105.441406 47.875 104.066406 48.203125 103.414062 47.515625 103.878906 48.433594 105.785156 48.359375 105.320312 49.773438 105.003906 51.113281 103.117188 48.035156 104.296875 50.03125 105.179688 50.597656 106.324219 50.800781 106.773438 51.882812 107.660156 52.472656 106.082031 55.191406 106.335938 54.078125 106.902344 53.042969 106.167969 51.53125 105 51.421875 105.488281 51.851562 106.449219 52.570312 106.085938 53.257812 105.464844 52.617188 104.371094 52.648438 104.164062 51.609375 103.707031 51.308594 104.648438 53.167969 105.460938 53.109375 106.703125 54.550781 103.921875 54.34375 104.015625 52.972656 103.464844 52.6875 104.398438 54.425781 105.039062 54.414062 106.636719 54.792969 106.800781 56.785156 106.269531 58.046875 106.203125 58.253906 106.679688 58.3125 106.253906 58.496094zm0 0"/><path style="stroke:none;fill-rule:nonzero;fill:#fff;fill-opacity:1" d="M114.914062 80.910156C115.164062 80.921875 115.410156 81.003906 115.621094 81.136719 115.722656 81.238281 115.785156 81.371094 115.855469 81.492188 115.917969 81.597656 115.925781 81.726562 115.875 81.839844 115.847656 81.933594 115.785156 82.027344 115.679688 82.042969 115.570312 82.09375 115.453125 82.117188 115.332031 82.105469 115.035156 82.101562 114.738281 82.113281 114.4375 82.113281 114.296875 82.085938 114.152344 82.09375 114.007812 82.070312 113.839844 82.007812 113.671875 81.949219 113.5 81.894531 113.421875 81.867188 113.363281 81.808594 113.292969 81.765625 113.25 81.640625 113.269531 81.515625 113.347656 81.414062 113.425781 81.289062 113.554688 81.210938 113.683594 81.148438 113.785156 81.097656 113.894531 81.089844 114.007812 81.09375 114.1875 81.082031 114.375 81.0625 114.546875 80.988281 114.660156 80.941406 114.785156 80.894531 114.914062 80.910156zm0 0"/><path style="stroke:none;fill-rule:nonzero;fill:#fff;fill-opacity:1" d="M92.15625 32.875C92.222656 32.875 92.308594 32.859375 92.355469 32.921875 92.433594 33.058594 92.421875 33.222656 92.429688 33.375 92.484375 33.5625 92.417969 33.761719 92.324219 33.925781 92.257812 34.046875 92.199219 34.179688 92.097656 34.28125 92.015625 34.332031 91.910156 34.296875 91.824219 34.273438 91.699219 34.230469 91.617188 34.101562 91.625 33.96875 91.613281 33.8125 91.597656 33.648438 91.660156 33.5 91.695312 33.414062 91.730469 33.328125 91.777344 33.25 91.8125 33.195312 91.867188 33.15625 91.90625 33.109375 91.953125 33.054688 91.984375 32.992188 92.039062 32.949219"/><path style="stroke:none;fill-rule:nonzero;fill:#fff;fill-opacity:1" d="M85.21875 46.808594C85.179688 46.988281 85.03125 47.117188 84.929688 47.261719 84.839844 47.378906 84.710938 47.453125 84.617188 47.570312 84.519531 47.695312 84.398438 47.808594 84.253906 47.882812 84.089844 47.96875 83.910156 48.027344 83.726562 48.035156 83.621094 48.019531 83.496094 48.046875 83.414062 47.960938 83.375 47.929688 83.339844 47.898438 83.300781 47.867188 83.269531 47.777344 83.375 47.726562 83.453125 47.738281 83.570312 47.761719 83.695312 47.738281 83.8125 47.722656 83.910156 47.707031 84 47.664062 84.097656 47.671875 84.171875 47.671875 84.257812 47.652344 84.292969 47.578125 84.363281 47.488281 84.441406 47.398438 84.492188 47.296875 84.644531 47.191406 84.703125 46.992188 84.867188 46.902344 84.972656 46.835938 85.097656 46.808594 85.21875 46.808594"/><path style="stroke:none;fill-rule:nonzero;fill:#fff;fill-opacity:1" d="M69.351562 66.300781C69.5625 66.199219 69.765625 66.082031 69.917969 65.894531 70.273438 65.605469 70.589844 65.265625 71.003906 65.070312 71.269531 64.789062 71.601562 64.574219 71.863281 64.289062 72.347656 63.855469 72.777344 63.367188 73.179688 62.863281 73.550781 62.386719 73.964844 61.949219 74.332031 61.472656 74.488281 61.214844 74.757812 61.011719 74.898438 60.742188 75 60.414062 75.246094 60.148438 75.332031 59.808594 75.523438 59.527344 75.691406 59.207031 76.015625 59.089844 76.347656 58.972656 76.707031 58.882812 77.039062 59.039062 77.597656 59.21875 78.160156 59.21875 78.714844 59.085938 79.109375 59.019531 79.597656 58.9375 79.878906 59.285156 80.097656 59.386719 80.074219 59.660156 80.277344 59.78125 80.496094 60.089844 80.726562 60.425781 81.125 60.503906 81.730469 60.769531 82.386719 60.917969 82.96875 61.25 83.472656 61.527344 84.113281 61.605469 84.472656 62.105469 84.796875 62.289062 84.710938 62.726562 84.769531 63.039062 84.765625 63.496094 84.765625 63.960938 84.5625 64.375 84.1875 64.476562 84.234375 64.871094 84.042969 65.148438 83.472656 65.25 84.304688 64.394531 83.644531 64.664062 83.308594 65.039062 82.851562 65.371094 82.320312 65.359375 82.289062 65.78125 82.824219 65.796875 82.890625 66.1875 82.996094 66.4375 83.191406 66.652344 83.417969 66.792969 83.640625 66.90625 84.074219 66.890625 84.039062 67.230469 83.859375 67.417969 83.355469 67.28125 83.179688 67.054688 82.792969 66.707031 82.359375 66.402344 81.996094 66.035156 81.839844 65.835938 81.746094 65.574219 81.53125 65.410156 81.109375 65.027344 80.707031 64.609375 80.4375 64.109375 80.34375 63.878906 80.125 63.753906 80.042969 63.511719 79.90625 63.308594 79.78125 63.140625 79.664062 62.929688 79.304688 62.515625 78.820312 62.269531 78.304688 62.125 77.980469 61.996094 77.609375 61.941406 77.265625 61.925781 76.707031 61.941406 76.261719 62.292969 75.792969 62.546875 75.46875 62.953125 75.257812 63.425781 75.054688 63.902344 74.777344 64.582031 74.484375 65.253906 74.136719 65.902344 73.960938 66.078125 73.789062 66.269531 73.667969 66.5 73.476562 66.847656 73.125 66.933594 72.898438 66.582031 72.636719 66.378906 72.261719 66.390625 71.964844 66.421875 71.707031 66.625 71.394531 66.816406 71.261719 67.132812 70.949219 67.6875 70.839844 68.40625 71.09375 68.996094 71.308594 69.253906 71.820312 68.847656 71.988281 69.246094 72.128906 69.460938 72.414062 69.535156 72.527344 69.769531 72.929688 70.335938 72.894531 71.070312 72.75 71.71875 72.769531 72.355469 72.527344 72.957031 72.386719 73.570312 72.21875 73.910156 72.164062 74.300781 71.984375 74.625 71.777344 74.976562 71.378906 74.6875 71.105469 74.578125 70.828125 74.40625 70.535156 74.28125 70.304688 74.054688 70.097656 73.96875 69.945312 73.800781 69.765625 73.660156 69.554688 73.628906 69.144531 73.316406 69.464844 73.140625 69.746094 73.039062 70 72.851562 70.183594 72.621094 70.464844 72.160156 70.621094 71.613281 70.839844 71.113281 70.886719 70.847656 71.117188 70.683594 71.195312 70.433594 71.359375 70.199219 71.566406 69.996094 71.816406 69.855469 71.582031 69.480469 71.070312 70.179688 70.820312 70.445312 70.5625 70.984375 70.335938 71.558594 70.132812 72.121094 69.972656 72.363281 69.714844 72.539062 69.527344 72.730469 69.449219 73.285156 68.558594 73.257812 68.824219 72.699219 69.328125 72.492188 68.769531 71.9375 68.832031 71.566406 68.921875 70.921875 68.9375 70.265625 68.941406 69.621094 68.929688 69.164062 68.867188 68.699219 68.640625 68.292969 68.585938 68.003906 68.566406 67.660156 68.8125 67.453125 68.925781 67.105469 68.921875 66.683594 69.25 66.449219 69.257812 66.367188 69.328125 66.335938 69.382812 66.289062"/><path style="stroke:none;fill-rule:nonzero;fill:#fff;fill-opacity:1" d="M126.789062 95.292969C126.578125 95.28125 126.390625 95.378906 126.191406 95.28125 125.945312 95.222656 125.804688 94.960938 125.5625 94.875 125.308594 94.621094 125.289062 94.210938 125.460938 93.902344 125.488281 93.503906 125.480469 93.105469 125.449219 92.695312 125.335938 92.09375 125.167969 91.5 125.058594 90.898438 124.886719 90.421875 124.683594 89.957031 124.578125 89.457031 124.378906 89.023438 124.273438 88.550781 124.070312 88.113281 123.996094 87.910156 123.613281 87.570312 123.9375 87.4375 124.222656 87.417969 124.582031 87.171875 124.800781 87.445312 124.957031 87.523438 125.121094 87.640625 125.257812 87.761719 125.511719 87.898438 125.703125 88.117188 125.8125 88.386719 125.9375 88.5625 126.015625 88.828125 126.28125 88.796875 126.664062 88.859375 126.582031 89.367188 126.730469 89.644531 126.804688 90.003906 127.03125 89.730469 126.921875 89.492188 126.839844 89.101562 126.601562 88.707031 126.726562 88.308594 126.898438 87.875 127.402344 88.125 127.378906 88.554688 127.578125 89.21875 127.71875 89.898438 127.796875 90.582031 127.976562 91.085938 128.042969 91.640625 128.273438 92.121094 128.425781 92.367188 128.476562 92.710938 128.71875 92.898438 128.945312 93.171875 129.023438 93.535156 129.273438 93.792969 129.4375 94.253906 129.523438 94.746094 129.621094 95.230469 129.605469 95.523438 129.4375 95.734375 129.261719 95.957031 128.933594 96.042969 128.632812 96.320312 128.277344 96.160156 127.960938 96.25 127.746094 95.632812 127.523438 96.101562 127.296875 96.488281 127.566406 96.953125 127.3125 97.332031 127.132812 97.515625 127.125 97.8125 126.929688 97.988281 126.878906 98.230469 126.589844 98.335938 126.53125 98.585938 126.433594 98.882812 126.332031 99.179688 126.265625 99.488281 126.152344 99.722656 125.511719 99.382812 125.652344 99.726562 125.925781 99.8125 126.238281 99.890625 126.363281 100.183594 126.710938 100.582031 126.390625 101.011719 125.972656 100.683594 125.238281 100.40625 124.425781 100.347656 123.648438 100.433594 123.390625 100.523438 122.371094 100.152344 122.75 100.527344 123.394531 100.816406 124.089844 100.503906 124.757812 100.648438 125.078125 100.652344 125.40625 100.664062 125.664062 100.875 126.007812 101.007812 126.289062 101.230469 126.496094 101.535156 126.578125 101.761719 126.691406 102.027344 126.449219 102.207031 126.152344 102.421875 125.945312 102.777344 125.5625 102.871094 125.128906 103.078125 124.667969 103.210938 124.207031 103.335938 123.636719 103.515625 123.035156 103.585938 122.441406 103.683594 121.996094 103.730469 121.546875 103.800781 121.101562 103.75 120.824219 103.660156 120.136719 103.933594 120.296875 103.410156 120.335938 102.773438 120.660156 102.199219 120.984375 101.660156 121.152344 101.40625 121.308594 101.152344 121.402344 100.859375 121.527344 100.632812 121.449219 100.335938 121.675781 100.164062 121.792969 99.824219 121.617188 99.320312 122.007812 99.125 122.371094 99.050781 122.636719 98.789062 122.960938 98.632812 123.125 98.507812 123.28125 98.40625 123.445312 98.277344 123.765625 98.070312 123.835938 97.6875 124.058594 97.40625 124.316406 96.960938 124.589844 96.527344 124.855469 96.085938 124.960938 95.90625 125.066406 95.75 125.21875 95.59375c.36328100000000063-.375.296875.28125.25.53125C125.792969 96.210938 125.910156 96 126.15625 95.855469 126.417969 95.761719 126.769531 95.617188 126.792969 95.296875"/><path style="stroke:none;fill-rule:nonzero;fill:#fff;fill-opacity:1" d="M102.914062 57.453125C102.964844 57.5 103.023438 57.535156 103.074219 57.578125 103.132812 57.625 103.191406 57.671875 103.246094 57.722656 103.304688 57.78125 103.363281 57.839844 103.417969 57.90625 103.441406 57.933594 103.46875 57.964844 103.480469 58 103.503906 58.042969 103.519531 58.089844 103.53125 58.136719 103.550781 58.195312 103.582031 58.246094 103.601562 58.304688 103.636719 58.402344 103.652344 58.515625 103.609375 58.617188 103.589844 58.675781 103.578125 58.738281 103.558594 58.792969 103.546875 58.820312 103.535156 58.839844 103.535156 58.796875 103.488281 58.578125 103.410156 58.371094 103.3125 58.167969 103.195312 57.921875 103.046875 57.691406 102.914062 57.453125zm0 0"/><path style="stroke:none;fill-rule:nonzero;fill:#000;fill-opacity:1" d="M95.328125 34.507812C95.160156 34.519531 95.09375 34.707031 95.078125 34.851562 95.019531 35.238281 95.113281 35.636719 95.019531 36.019531 95.011719 36.164062 94.925781 36.28125 94.875 36.414062 94.84375 36.578125 94.789062 36.738281 94.761719 36.90625 94.734375 37.058594 94.765625 37.214844 94.824219 37.355469 94.835938 37.449219 94.890625 37.527344 94.964844 37.578125 95.011719 37.617188 95.054688 37.65625 95.101562 37.695312 95.285156 37.742188 95.285156 37.515625 95.230469 37.402344 95.238281 37.253906 95.148438 37.113281 95.175781 36.964844 95.167969 36.808594 95.410156 36.765625 95.449219 36.917969 95.570312 37.082031 95.59375 37.308594 95.523438 37.5 95.453125 37.589844 95.382812 37.6875 95.34375 37.792969 95.261719 37.9375 95.390625 38.183594 95.5625 38.058594 95.691406 37.953125 95.816406 37.832031 95.882812 37.671875 95.960938 37.5 96.027344 37.289062 95.945312 37.105469 95.917969 36.96875 95.875 36.839844 95.839844 36.707031 95.808594 36.5625 95.703125 36.453125 95.652344 36.320312 95.566406 36.238281 95.542969 36.132812 95.5 36.027344 95.449219 35.910156 95.417969 35.796875 95.390625 35.671875 95.316406 35.542969 95.320312 35.394531 95.300781 35.253906c-.003906000000000631-.15625.0-.3125.015625-.46875C95.339844 34.695312 95.351562 34.601562 95.328125 34.507812zm0 0"/><path style="stroke:none;fill-rule:nonzero;fill:#000;fill-opacity:1" d="M89.921875 38.1875C89.769531 38.242188 89.601562 38.238281 89.457031 38.308594 89.320312 38.320312 89.1875 38.335938 89.0625 38.398438 88.875 38.433594 88.710938 38.539062 88.539062 38.617188 88.351562 38.730469 88.261719 38.9375 88.199219 39.136719 88.132812 39.292969 88.359375 39.390625 88.40625 39.214844 88.449219 39.082031 88.527344 38.964844 88.605469 38.851562 88.667969 38.75 88.761719 38.660156 88.863281 38.601562 88.972656 38.546875 89.085938 38.476562 89.214844 38.5 89.367188 38.511719 89.515625 38.472656 89.65625 38.40625 89.800781 38.363281 89.957031 38.367188 90.105469 38.382812 90.25 38.410156 90.398438 38.402344 90.535156 38.464844 90.707031 38.515625 90.839844 38.632812 90.964844 38.753906 91.085938 38.828125 91.1875 38.945312 91.222656 39.085938 91.195312 39.226562 91.378906 39.371094 91.449219 39.203125 91.53125 39.050781 91.492188 38.84375 91.347656 38.746094 91.246094 38.679688 91.148438 38.617188 91.078125 38.511719 90.957031 38.460938 90.871094 38.355469 90.75 38.3125 90.625 38.269531 90.484375 38.296875 90.371094 38.226562 90.226562 38.207031 90.082031 38.222656 89.941406 38.199219zm0 0"/><path style="stroke:none;fill-rule:nonzero;fill:#000;fill-opacity:1" d="M93.085938 38.3125C93.015625 38.382812 92.914062 38.421875 92.894531 38.527344 92.828125 38.675781 92.8125 38.835938 92.757812 38.988281 92.761719 39.0625 92.710938 39.125 92.6875 39.191406 92.605469 39.238281 92.617188 39.332031 92.5625 39.394531 92.507812 39.449219 92.492188 39.527344 92.421875 39.566406 92.347656 39.632812 92.289062 39.722656 92.191406 39.75 92.121094 39.792969 92.042969 39.832031 92.003906 39.90625 91.972656 39.988281 92.023438 40.105469 92.125 40.085938 92.234375 40.078125 92.332031 40.023438 92.425781 39.972656 92.496094 39.953125 92.546875 39.898438 92.601562 39.863281 92.679688 39.820312 92.734375 39.757812 92.789062 39.691406 92.832031 39.640625 92.886719 39.589844 92.894531 39.519531 92.917969 39.46875 92.9375 39.417969 92.960938 39.367188 92.980469 39.316406 92.972656 39.226562 93.015625 39.171875 93.027344 39.097656 93.046875 39.027344 93.03125 38.953125 93.023438 38.765625 93.066406 38.582031 93.144531 38.414062 93.160156 38.371094 93.125 38.328125 93.085938 38.3125zm0 0"/><path style="stroke:none;fill-rule:nonzero;fill:#000;fill-opacity:1" d="M89.367188 38.828125C89.230469 38.878906 89.085938 38.90625 88.949219 38.96875 88.792969 39.046875 88.664062 39.171875 88.570312 39.316406 88.464844 39.390625 88.433594 39.527344 88.363281 39.625 88.304688 39.742188 88.210938 39.835938 88.136719 39.941406 88.027344 40.074219 88.226562 40.253906 88.347656 40.136719 88.460938 40.054688 88.589844 40 88.675781 39.882812 88.769531 39.789062 88.804688 39.652344 88.867188 39.535156 88.9375 39.4375 89.03125 39.328125 89.136719 39.257812 89.25 39.214844 89.429688 39.1875 89.496094 39.320312 89.542969 39.46875 89.429688 39.613281 89.3125 39.691406 89.164062 39.75 89.164062 39.9375 89.300781 40.011719 89.410156 40.132812 89.582031 40.136719 89.726562 40.097656 89.875 40.046875 89.953125 39.875 90.117188 39.867188 90.210938 39.84375 90.257812 39.933594 90.320312 39.984375 90.394531 40.054688 90.472656 40.125 90.546875 40.195312 90.722656 40.210938 90.882812 40.285156 91.050781 40.324219 91.195312 40.3125 91.375 40.289062 91.460938 40.164062 91.558594 40.019531 91.375 39.953125 91.261719 39.996094 91.160156 39.992188 91.046875 40.046875 90.957031 39.984375 90.84375 39.929688 90.730469 39.875 90.617188 39.820312 90.496094 39.671875 90.382812 39.511719 90.316406 39.332031 90.234375 39.195312 90.105469 39.089844 89.988281 38.992188 89.804688 38.875 89.582031 38.824219 89.367188 38.828125zm0 0"/><path style="stroke:none;fill-rule:nonzero;fill:#000;fill-opacity:1" d="M88.851562 40.25C88.839844 40.300781 88.828125 40.359375 88.851562 40.410156 88.902344 40.511719 89.011719 40.5625 89.109375 40.601562 89.195312 40.632812 89.28125 40.660156 89.367188 40.679688 89.488281 40.691406 89.601562 40.652344 89.714844 40.625 89.777344 40.617188 89.832031 40.589844 89.894531 40.578125 89.96875 40.558594 90.050781 40.515625 90.074219 40.4375 90.089844 40.394531 90.058594 40.359375 90.046875 40.320312 89.949219 40.316406 89.851562 40.355469 89.769531 40.40625 89.726562 40.4375 89.675781 40.457031 89.621094 40.457031 89.550781 40.464844 89.476562 40.480469 89.402344 40.476562 89.324219 40.484375 89.253906 40.441406 89.179688 40.421875 89.152344 40.390625 89.097656 40.390625 89.085938 40.34375 89.058594 40.296875 89.007812 40.277344 88.960938 40.261719 88.925781 40.253906 88.886719 40.25 88.851562 40.25zm0 0"/><path style="stroke:none;fill-rule:nonzero;fill:#000;fill-opacity:1" d="M86.382812 40.664062C86.226562 40.769531 86.050781 40.835938 85.882812 40.914062 85.707031 41.089844 85.480469 41.203125 85.277344 41.335938 85.054688 41.460938 84.855469 41.625 84.691406 41.820312 84.519531 41.96875 84.359375 42.117188 84.265625 42.328125 84.117188 42.570312 84.183594 42.867188 84.140625 43.132812 84.101562 43.492188 83.957031 43.855469 83.667969 44.085938 83.472656 44.277344 83.199219 44.367188 83 44.550781 82.855469 44.597656 82.722656 44.917969 82.976562 44.859375 83.316406 44.707031 83.632812 44.507812 83.941406 44.296875 84.074219 44.175781 84.128906 43.996094 84.273438 43.886719 84.390625 43.738281 84.449219 43.554688 84.488281 43.378906 84.519531 43.125 84.410156 42.882812 84.414062 42.632812 84.445312 42.402344 84.59375 42.214844 84.757812 42.058594 85.027344 41.773438 85.367188 41.566406 85.6875 41.339844 85.871094 41.238281 86.011719 41.078125 86.1875 40.964844 86.304688 40.9375 86.65625 40.746094 86.40625 40.667969zm0 0"/><path style="stroke:none;fill-rule:nonzero;fill:#000;fill-opacity:1" d="M83.132812 42.523438C82.988281 42.535156 82.863281 42.617188 82.71875 42.617188 82.644531 42.714844 82.511719 42.730469 82.429688 42.808594 82.355469 42.925781 82.25 43.015625 82.15625 43.117188 82.046875 43.214844 81.933594 43.304688 81.820312 43.394531 81.695312 43.464844 81.617188 43.59375 81.570312 43.726562 81.542969 43.828125 81.542969 43.960938 81.625 44.042969 81.722656 44.09375 81.789062 43.976562 81.839844 43.910156 81.898438 43.820312 82.003906 43.726562 82.117188 43.769531 82.21875 43.804688 82.300781 43.910156 82.417969 43.902344 82.558594 43.96875 82.351562 44.101562 82.296875 44.167969 82.25 44.273438 82.140625 44.320312 82.09375 44.417969 82.007812 44.507812 81.882812 44.667969 82.007812 44.777344 82.144531 44.804688 82.199219 44.628906 82.277344 44.550781 82.367188 44.421875 82.492188 44.324219 82.617188 44.226562 82.726562 44.171875 82.835938 44.125 82.921875 44.03125 83.015625 43.960938 83.128906 43.921875 83.214844 43.84375 83.3125 43.785156 83.378906 43.6875 83.457031 43.605469 83.535156 43.496094 83.59375 43.367188 83.632812 43.242188 83.648438 43.101562 83.636719 42.957031 83.570312 42.828125 83.488281 42.679688 83.351562 42.53125 83.171875 42.519531H83.152344zm0 0"/><path style="stroke:none;fill-rule:nonzero;fill:#000;fill-opacity:1" d="M90.445312 42.992188C90.351562 42.992188 90.28125 43.191406 90.28125 43.375 90.28125 43.570312 90.347656 43.742188 90.429688 44.007812 90.511719 44.273438 90.617188 44.644531 90.53125 44.9375 90.433594 45.242188 90.171875 45.484375 89.851562 45.664062 89.53125 45.816406 89.175781 45.925781 89.09375 46.023438 89.023438 46.121094 89.222656 46.222656 89.460938 46.179688 89.699219 46.152344 89.949219 46.011719 90.226562 45.789062 90.492188 45.566406 90.777344 45.289062 90.890625 44.953125 91 44.605469 90.933594 44.222656 90.835938 43.820312 90.738281 43.445312 90.582031 43.070312 90.484375 43 90.46875 42.992188 90.457031 42.992188 90.445312 42.992188zm0 0"/><path style="stroke:none;fill-rule:nonzero;fill:#000;fill-opacity:1" d="M94.382812 43.101562C94.324219 43.101562 94.261719 43.121094 94.21875 43.15625 94.105469 43.269531 94.152344 43.5 94.140625 43.695312 94.125 43.890625 94.066406 44.042969 93.96875 44.265625 93.84375 44.488281 93.664062 44.753906 93.703125 44.796875 93.757812 44.824219 94.050781 44.632812 94.273438 44.3125 94.480469 43.980469 94.652344 43.542969 94.609375 43.304688 94.582031 43.167969 94.484375 43.105469 94.382812 43.101562zm0 0"/><path style="stroke:none;fill-rule:nonzero;fill:#000;fill-opacity:1" d="M95.21875 43.132812C95.160156 43.140625 95.085938 43.230469 95.03125 43.351562 94.949219 43.558594 94.910156 43.867188 94.851562 44.171875 94.796875 44.492188 94.710938 44.800781 94.570312 44.953125 94.433594 45.105469 94.238281 45.121094 94.070312 45.148438 93.902344 45.1875 93.761719 45.238281 93.71875 45.351562 93.679688 45.449219 93.757812 45.636719 93.953125 45.664062 94.136719 45.664062 94.460938 45.539062 94.695312 45.273438 94.933594 44.996094 95.101562 44.589844 95.210938 44.1875 95.308594 43.769531 95.347656 43.363281 95.304688 43.210938 95.285156 43.152344 95.257812 43.128906 95.21875 43.132812zm0 0"/><path style="stroke:none;fill-rule:nonzero;fill:#000;fill-opacity:1" d="M100.585938 46.335938C100.53125 46.34375 100.480469 46.390625 100.445312 46.46875 100.347656 46.621094 100.335938 46.898438 100.265625 47.148438 100.195312 47.398438 100.070312 47.625 99.875 47.960938 99.707031 48.277344 99.488281 48.679688 99.460938 48.820312 99.417969 48.957031 99.570312 48.832031 99.710938 48.679688 99.847656 48.527344 99.972656 48.316406 100.085938 48.164062 100.183594 47.996094 100.277344 47.875 100.375 47.765625 100.457031 47.640625 100.542969 47.515625 100.625 47.25 100.695312 47 100.75 46.621094 100.710938 46.453125 100.6875 46.363281 100.636719 46.328125 100.585938 46.335938zm0 0"/><path style="stroke:none;fill-rule:nonzero;fill:#000;fill-opacity:1" d="M94.460938 47.773438C94.386719 47.789062 94.292969 47.832031 94.210938 47.890625 94.027344 48 93.886719 48.140625 93.75 48.28125 93.609375 48.433594 93.472656 48.570312 93.25 48.78125 93.027344 48.988281 92.71875 49.265625 92.664062 49.40625 92.621094 49.542969 92.84375 49.527344 93.054688 49.445312 93.25 49.347656 93.429688 49.160156 93.625 48.992188 93.820312 48.796875 94.023438 48.613281 94.21875 48.390625 94.414062 48.167969 94.597656 47.917969 94.585938 47.820312 94.585938 47.769531 94.53125 47.757812 94.460938 47.773438zm0 0"/><path style="stroke:none;fill-rule:nonzero;fill:#000;fill-opacity:1" d="M100.867188 47.929688C100.785156 47.957031 100.753906 48.222656 100.671875 48.5 100.589844 48.792969 100.433594 49.140625 100.265625 49.515625 100.097656 49.910156 99.902344 50.34375 99.960938 50.382812 100.015625 50.410156 100.3125 50.03125 100.5625 49.625 100.828125 49.222656 101.035156 48.796875 101.0625 48.460938 101.105469 48.128906 100.949219 47.917969 100.867188 47.929688zm0 0"/><path style="stroke:none;fill-rule:nonzero;fill:#000;fill-opacity:1" d="M93.867188 49.320312C93.777344 49.332031 93.640625 49.46875 93.445312 49.640625 93.207031 49.820312 92.898438 50.074219 92.882812 50.1875 92.867188 50.300781 93.160156 50.300781 93.398438 50.203125 93.664062 50.105469 93.847656 49.90625 93.929688 49.710938 94.011719 49.53125 93.980469 49.347656 93.898438 49.320312 93.886719 49.316406 93.878906 49.316406 93.867188 49.320312zm0 0"/><path style="stroke:none;fill-rule:nonzero;fill:#000;fill-opacity:1" d="M101.15625 49.851562C101.101562 49.847656 101.03125 49.894531 100.960938 49.976562 100.835938 50.160156 100.734375 50.480469 100.625 50.773438 100.5 51.082031 100.363281 51.355469 100.265625 51.5625 100.167969 51.785156 100.117188 51.945312 100.1875 52 100.246094 52.050781 100.445312 52.007812 100.554688 51.859375 100.679688 51.734375 100.726562 51.511719 100.851562 51.148438 100.988281 50.789062 101.210938 50.269531 101.226562 50.03125 101.238281 49.914062 101.207031 49.859375 101.15625 49.851562zm0 0"/><path style="stroke:none;fill-rule:nonzero;fill:#000;fill-opacity:1" d="M101.445312 51.359375C101.371094 51.359375 101.28125 51.398438 101.226562 51.46875 101.128906 51.609375 101.144531 51.847656 101.101562 52.054688 101.058594 52.265625 100.957031 52.441406 100.75 52.804688 100.542969 53.152344 100.238281 53.691406 100.195312 53.929688 100.140625 54.167969 100.363281 54.113281 100.53125 53.945312 100.699219 53.792969 100.792969 53.539062 100.90625 53.289062 101.015625 53.039062 101.144531 52.804688 101.296875 52.46875 101.4375 52.121094 101.613281 51.703125 101.585938 51.507812 101.578125 51.402344 101.519531 51.363281 101.445312 51.359375zm0 0"/><path style="stroke:none;fill-rule:nonzero;fill:#000;fill-opacity:1" d="M90.90625 54.90625C90.777344 54.894531 90.429688 55.011719 90.125 55.171875 89.804688 55.339844 89.542969 55.601562 89.5 55.757812 89.441406 55.910156 89.59375 55.980469 89.789062 55.914062 89.984375 55.855469 90.226562 55.660156 90.492188 55.4375 90.742188 55.214844 91 54.976562 90.945312 54.921875 90.933594 54.914062 90.921875 54.90625 90.90625 54.90625zm0 0"/><path style="stroke:none;fill-rule:nonzero;fill:#000;fill-opacity:1" d="M91.21875 55.546875C91.148438 55.535156 91.03125 55.558594 90.90625 55.601562 90.671875 55.699219 90.425781 55.851562 90.171875 56.046875 89.921875 56.230469 89.6875 56.4375 89.476562 56.617188 89.285156 56.816406 89.117188 56.980469 88.976562 57.1875H88.96875C88.832031 57.410156 88.726562 57.691406 88.640625 57.898438 88.542969 58.121094 88.46875 58.289062 88.523438 58.359375 88.582031 58.414062 88.78125 58.359375 88.90625 58.234375 89.003906 58.109375 89.046875 57.902344 89.101562 57.75 89.171875 57.570312 89.265625 57.421875 89.429688 57.242188 89.597656 57.0625 89.828125 56.832031 90.1875 56.539062 90.566406 56.246094 91.089844 55.871094 91.242188 55.703125 91.3125 55.605469 91.289062 55.558594 91.21875 55.546875zm0 0"/><path style="stroke:none;fill-rule:nonzero;fill:#000;fill-opacity:1" d="M131.804688 57.445312C131.699219 57.457031 131.628906 57.5 131.59375 57.5625 131.523438 57.671875 131.597656 57.855469 131.835938 57.953125 132.085938 58.0625 132.519531 58.105469 132.796875 58.148438 133.101562 58.175781 133.257812 58.21875 133.367188 58.234375 133.464844 58.25 133.523438 58.25 133.5625 58.21875 133.117188 57.882812 132.597656 57.601562 132.234375 57.492188 132.054688 57.441406 131.910156 57.429688 131.804688 57.445312zm0 0"/><path style="stroke:none;fill-rule:nonzero;fill:#000;fill-opacity:1" d="M131.289062 58.46875C130.957031 58.480469 130.648438 58.496094 130.523438 58.609375 130.386719 58.71875 130.445312 58.925781 130.570312 58.984375 130.695312 59.023438 130.886719 58.929688 131.109375 58.875 131.34375 58.828125 131.613281 58.832031 131.835938 58.859375 132.058594 58.886719 132.242188 58.972656 132.4375 59.03125 132.648438 59.085938 132.847656 59.128906 133.015625 59.242188 133.183594 59.339844 133.296875 59.488281 133.367188 59.476562 133.410156 59.449219 133.421875 59.238281 133.335938 59.085938 133.253906 58.933594 133.074219 58.835938 132.90625 58.726562 132.710938 58.628906 132.527344 58.539062 132.25 58.5 131.972656 58.457031 131.625 58.46875 131.289062 58.46875zm0 0"/><path style="stroke:none;fill-rule:nonzero;fill:#000;fill-opacity:1" d="M135.515625 58.757812C135.496094 58.757812 135.476562 58.769531 135.46875 58.78125 135.414062 58.835938 135.46875 58.941406 135.59375 59.039062 135.734375 59.148438 135.972656 59.238281 136.195312 59.351562 136.40625 59.460938 136.582031 59.597656 136.804688 59.75 137.011719 59.902344 137.253906 60.0625 137.351562 60.046875 137.421875 60.019531 137.351562 59.820312 137.226562 59.679688 137.113281 59.539062 136.960938 59.449219 136.835938 59.335938 136.695312 59.238281 136.570312 59.128906 136.390625 59.03125 136.222656 58.933594 135.980469 58.878906 135.8125 58.835938 135.664062 58.792969 135.574219 58.753906 135.515625 58.757812zm0 0"/><path style="stroke:none;fill-rule:nonzero;fill:#000;fill-opacity:1" d="M135.328125 59.632812C135.109375 59.636719 135.03125 59.769531 135.09375 59.867188 135.148438 59.976562 135.398438 60.019531 135.609375 60.101562 135.816406 60.15625 135.996094 60.269531 136.21875 60.421875 136.429688 60.601562 136.695312 60.851562 136.890625 60.921875 137.070312 60.976562 137.195312 60.878906 137.140625 60.726562 137.097656 60.574219 136.886719 60.363281 136.539062 60.15625 136.203125 59.933594 135.722656 59.683594 135.429688 59.640625 135.390625 59.636719 135.359375 59.632812 135.328125 59.632812zm0 0"/><path style="stroke:none;fill-rule:nonzero;fill:#000;fill-opacity:1" d="M134.703125 60.320312C134.480469 60.335938 134.449219 60.492188 134.546875 60.578125 134.644531 60.675781 134.878906 60.671875 135.046875 60.726562 135.238281 60.796875 135.398438 60.898438 135.5625 61.023438 135.757812 61.148438 135.96875 61.3125 136.179688 61.367188 136.386719 61.421875 136.59375 61.378906 136.59375 61.28125 136.605469 61.199219 136.414062 61.078125 136.234375 60.9375 136.066406 60.8125 135.925781 60.671875 135.632812 60.5625 135.351562 60.421875 134.925781 60.304688 134.703125 60.320312zm0 0"/><path style="stroke:none;fill-rule:nonzero;fill:#000;fill-opacity:1" d="M90.757812 60.367188C90.707031 60.367188 90.652344 60.375 90.601562 60.382812 90.390625 60.425781 90.222656 60.519531 90.054688 60.617188 89.875 60.730469 89.742188 60.855469 89.546875 61.0625 89.335938 61.269531 89.101562 61.5625 88.90625 61.882812 88.695312 62.203125 88.523438 62.566406 88.539062 62.71875 88.539062 62.871094 88.707031 62.828125 88.804688 62.703125 88.914062 62.59375 88.945312 62.410156 89 62.257812 89.054688 62.105469 89.136719 61.996094 89.375 61.757812 89.609375 61.535156 90 61.214844 90.335938 60.976562 90.683594 60.726562 90.988281 60.574219 91.015625 60.476562 91.035156 60.402344 90.910156 60.367188 90.757812 60.367188zm0 0"/><path style="stroke:none;fill-rule:nonzero;fill:#000;fill-opacity:1" d="M102.054688 60.859375C101.941406 60.863281 101.847656 60.964844 101.835938 61.101562 101.808594 61.28125 101.910156 61.523438 102.007812 61.84375 102.121094 62.164062 102.214844 62.5625 102.3125 62.828125 102.410156 63.074219 102.515625 63.226562 102.570312 63.34375 102.625 62.777344 102.621094 62.226562 102.5625 61.796875 102.480469 61.296875 102.324219 60.996094 102.171875 60.898438 102.128906 60.875 102.09375 60.859375 102.054688 60.859375zm0 0"/><path style="stroke:none;fill-rule:nonzero;fill:#000;fill-opacity:1" d="M102.570312 63.34375C102.558594 63.453125 102.546875 63.566406 102.53125 63.679688H102.539062C102.621094 63.609375 102.648438 63.515625 102.59375 63.390625 102.589844 63.375 102.578125 63.359375 102.570312 63.34375zm0 0"/><path style="stroke:none;fill-rule:nonzero;fill:#000;fill-opacity:1" d="M103.304688 61.382812C103.261719 61.382812 103.226562 61.394531 103.203125 61.414062 103.09375 61.484375 103.160156 61.632812 103.242188 61.898438 103.296875 62.148438 103.382812 62.511719 103.367188 62.859375 103.339844 63.195312 103.246094 63.539062 103.257812 63.75 103.285156 63.988281 103.441406 64.085938 103.523438 64.03125 103.609375 63.976562 103.621094 63.765625 103.648438 63.570312 103.675781 63.390625 103.707031 63.207031 103.734375 62.859375 103.777344 62.496094 103.800781 61.957031 103.703125 61.664062 103.609375 61.453125 103.429688 61.378906 103.304688 61.382812zm0 0"/><path style="stroke:none;fill-rule:nonzero;fill:#000;fill-opacity:1" d="M104.453125 62.132812C104.398438 62.132812 104.34375 62.15625 104.3125 62.203125 104.242188 62.3125 104.289062 62.582031 104.304688 62.929688 104.304688 63.292969 104.257812 63.703125 104.34375 63.84375 104.429688 63.96875 104.621094 63.792969 104.71875 63.609375c.109375-.16796899999999937.109375-.375.109375-.625C104.828125 62.746094 104.828125 62.457031 104.71875 62.289062 104.648438 62.183594 104.542969 62.128906 104.453125 62.132812zm0 0"/><path style="stroke:none;fill-rule:nonzero;fill:#000;fill-opacity:1" d="M90.09375 62.1875C90.050781 62.1875 90.007812 62.191406 89.960938 62.203125 89.765625 62.257812 89.542969 62.410156 89.320312 62.578125 89.097656 62.746094 88.886719 62.925781 88.664062 63.203125 88.441406 63.496094 88.242188 63.910156 88.195312 64.09375 88.167969 64.304688 88.320312 64.269531 88.429688 64.15625 88.542969 64.058594 88.597656 63.890625 88.734375 63.695312 88.859375 63.488281 89.058594 63.257812 89.265625 63.078125 89.488281 62.882812 89.722656 62.75 89.929688 62.625 90.140625 62.484375 90.320312 62.371094 90.320312 62.289062 90.320312 62.226562 90.222656 62.183594 90.09375 62.1875zm0 0"/><path style="stroke:none;fill-rule:nonzero;fill:#000;fill-opacity:1" d="M105.429688 62.71875C105.347656 62.71875 105.246094 62.828125 105.195312 62.984375 105.140625 63.195312 105.136719 63.472656 105.164062 63.695312 105.179688 63.917969 105.21875 64.097656 105.289062 64.054688 105.34375 64.042969 105.445312 63.808594 105.5 63.515625 105.542969 63.238281 105.554688 62.871094 105.5 62.757812 105.480469 62.730469 105.457031 62.71875 105.429688 62.71875zm0 0"/><path style="stroke:none;fill-rule:nonzero;fill:#000;fill-opacity:1" d="M98.859375 63.796875C98.800781 63.792969 98.71875 63.839844 98.632812 63.914062 98.535156 64.011719 98.441406 64.164062 98.273438 64.554688 98.089844 64.933594 97.855469 65.578125 97.507812 66.148438 97.144531 66.707031 96.683594 67.199219 96.320312 67.5625 95.957031 67.925781 95.699219 68.148438 95.65625 68.257812 95.644531 68.371094 95.863281 68.371094 96.070312 68.257812 96.308594 68.148438 96.546875 67.941406 96.867188 67.632812 97.1875 67.3125 97.582031 66.910156 97.914062 66.421875 98.261719 65.949219 98.519531 65.375 98.6875 65 98.839844 64.609375 98.902344 64.40625 98.929688 64.210938 98.957031 64.03125 98.96875 63.863281 98.914062 63.820312 98.902344 63.808594 98.878906 63.796875 98.859375 63.796875zm0 0"/><path style="stroke:none;fill-rule:nonzero;fill:#000;fill-opacity:1" d="M98.875 65.875C98.820312 65.882812 98.761719 65.964844 98.6875 66.078125 98.605469 66.230469 98.476562 66.425781 98.367188 66.648438 98.257812 66.859375 98.148438 67.066406 97.96875 67.289062 97.816406 67.5 97.574219 67.71875 97.296875 67.984375 97.03125 68.25 96.699219 68.542969 96.351562 68.820312 96.003906 69.113281 95.617188 69.371094 95.40625 69.539062 95.210938 69.6875 95.164062 69.753906 95.148438 69.804688 95.855469 69.511719 96.519531 69.140625 97.046875 68.765625 97.5625 68.363281 97.941406 67.957031 98.273438 67.554688 98.59375 67.164062 98.871094 66.757812 98.96875 66.453125 99.066406 66.148438 98.984375 65.945312 98.929688 65.890625 98.914062 65.875 98.894531 65.871094 98.875 65.875zm0 0"/><path style="stroke:none;fill-rule:nonzero;fill:#000;fill-opacity:1" d="M98.796875 67.703125C98.695312 67.695312 98.507812 67.859375 98.375 68.054688 98.238281 68.25 98.167969 68.507812 98.054688 68.71875 97.929688 68.953125 97.773438 69.167969 97.632812 69.335938 97.492188 69.503906 97.355469 69.644531 97.171875 69.796875 96.976562 69.976562 96.742188 70.167969 96.742188 70.265625 96.742188 70.375 96.996094 70.375 97.21875 70.265625 97.441406 70.152344 97.625 69.949219 97.804688 69.726562 97.972656 69.503906 98.140625 69.277344 98.320312 69.070312 98.488281 68.847656 98.65625 68.625 98.765625 68.359375 98.878906 68.09375 98.925781 67.789062 98.828125 67.71875 98.816406 67.710938 98.8125 67.703125 98.796875 67.703125zm0 0"/><path style="stroke:none;fill-rule:nonzero;fill:#000;fill-opacity:1" d="M77.257812 67.898438C77.175781 67.910156 76.964844 68.207031 76.757812 68.515625 76.5625 68.820312 76.394531 69.109375 76.492188 69.25 76.59375 69.398438 76.925781 69.386719 77.234375 69.234375 77.539062 69.082031 77.800781 68.792969 77.828125 68.695312 77.871094 68.582031 77.652344 68.664062 77.5 68.664062 77.359375 68.664062 77.257812 68.570312 77.257812 68.390625 77.242188 68.207031 77.328125 67.898438 77.257812 67.898438zm0 0"/><path style="stroke:none;fill-rule:nonzero;fill:#000;fill-opacity:1" d="M124.109375 69.40625C124.097656 69.40625 124.085938 69.40625 124.078125 69.414062 123.996094 69.441406 123.996094 69.640625 124.09375 69.835938 124.179688 70.015625 124.339844 70.226562 124.492188 70.421875 124.660156 70.617188 124.847656 70.824219 124.984375 71.1875 125.109375 71.570312 125.230469 72.109375 125.273438 72.554688 125.316406 73.007812 125.304688 73.367188 125.304688 73.632812 125.304688 73.9375 125.3125 74.160156 125.382812 74.273438 125.453125 74.382812 125.582031 74.386719 125.664062 74.304688 125.75 74.21875 125.800781 74.054688 125.828125 73.875 125.855469 73.679688 125.84375 73.476562 125.828125 73.1875 125.828125 72.878906 125.820312 72.507812 125.640625 71.953125 125.488281 71.410156 125.160156 70.699219 124.9375 70.28125c-.234375-.41796899999999937-.375-.546875-.515625-.65625C124.289062 69.5 124.183594 69.398438 124.109375 69.40625zm0 0"/><path style="stroke:none;fill-rule:nonzero;fill:#000;fill-opacity:1" d="M96.414062 70.492188C96.34375 70.492188 96.246094 70.515625 96.15625 70.5625 95.976562 70.660156 95.808594 70.863281 95.820312 70.960938 95.851562 71.042969 96.046875 71.003906 96.226562 70.90625 96.410156 70.808594 96.574219 70.660156 96.546875 70.5625 96.539062 70.519531 96.488281 70.496094 96.414062 70.492188zm0 0"/><path style="stroke:none;fill-rule:nonzero;fill:#000;fill-opacity:1" d="M123.617188 72.421875C123.535156 72.425781 123.445312 72.460938 123.390625 72.523438 123.28125 72.664062 123.285156 72.871094 123.3125 73.203125 123.328125 73.523438 123.351562 73.945312 123.296875 74.195312 123.242188 74.445312 123.113281 74.53125 123.015625 74.710938 122.90625 74.863281 122.8125 75.128906 122.867188 75.226562 122.9375 75.324219 123.132812 75.265625 123.257812 75.140625 123.371094 75.015625 123.425781 74.824219 123.507812 74.515625 123.605469 74.195312 123.746094 73.789062 123.828125 73.414062 123.898438 73.023438 123.925781 72.691406 123.828125 72.539062 123.78125 72.457031 123.699219 72.421875 123.617188 72.421875zm0 0"/><path style="stroke:none;fill-rule:nonzero;fill:#000;fill-opacity:1" d="M84.609375 72.898438C84.335938 72.988281 84.800781 73.269531 84.886719 73.402344 85.183594 73.554688 85.363281 73.839844 85.640625 74.011719c.265625.09375.5078129999999987.25.7265629999999987.40625C86.699219 74.542969 87.074219 74.550781 87.324219 74.824219 87.570312 74.925781 87.847656 74.835938 88.105469 74.90625 88.527344 74.992188 88.976562 74.964844 89.363281 75.179688 89.664062 75.285156 89.863281 75.53125 90.109375 75.707031 90.316406 75.90625 90.640625 75.988281 90.929688 76.007812 91.230469 76.074219 91.566406 76.023438 91.726562 75.730469 91.929688 75.53125 92.066406 75.277344 92.191406 75.015625 92.355469 74.714844 92.695312 74.554688 92.996094 74.414062 93.234375 74.378906 93.539062 73.859375 93.105469 74.023438 92.90625 74.1875 92.644531 74.261719 92.425781 74.40625 92.167969 74.535156 91.9375 74.710938 91.75 74.933594 91.53125 75.238281 91.214844 75.535156 90.820312 75.578125 90.472656 75.527344 90.121094 75.394531 89.914062 75.097656 89.667969 74.855469 89.339844 74.632812 88.972656 74.707031 88.460938 74.730469 87.941406 74.667969 87.457031 74.511719 87.191406 74.390625 86.898438 74.355469 86.632812 74.230469 86.347656 74.171875 86.152344 73.96875 85.902344 73.851562 85.613281 73.625 85.339844 73.386719 85.039062 73.171875 84.898438 73.089844 84.785156 72.929688 84.609375 72.898438zm0 0"/><path style="stroke:none;fill-rule:nonzero;fill:#000;fill-opacity:1" d="M97.046875 73.40625C96.972656 73.417969 96.886719 73.589844 96.8125 73.773438 96.730469 73.980469 96.683594 74.191406 96.65625 74.609375 96.617188 75.011719 96.589844 75.628906 96.6875 75.9375 96.785156 76.242188 97.003906 76.238281 97.101562 76.140625 97.199219 76.027344 97.1875 75.808594 97.171875 75.421875 97.171875 75.042969 97.171875 74.496094 97.15625 74.09375 97.15625 73.703125 97.148438 73.441406 97.078125 73.414062 97.066406 73.40625 97.058594 73.402344 97.046875 73.40625zm0 0"/><path style="stroke:none;fill-rule:nonzero;fill:#000;fill-opacity:1" d="M124.234375 73.773438C124.171875 73.761719 124.097656 73.914062 124.046875 74.085938 123.992188 74.28125 123.9375 74.488281 123.882812 74.710938 123.828125 74.917969 123.789062 75.113281 123.648438 75.40625 123.523438 75.683594 123.3125 76.046875 123.148438 76.3125 122.96875 76.578125 122.839844 76.738281 122.867188 76.78125 122.894531 76.820312 123.085938 76.75 123.226562 76.640625 123.378906 76.515625 123.480469 76.355469 123.578125 76.1875 123.691406 76.003906 123.785156 75.832031 123.9375 75.570312 124.089844 75.277344 124.296875 74.902344 124.367188 74.554688 124.421875 74.191406 124.34375 73.871094 124.257812 73.789062 124.25 73.78125 124.242188 73.773438 124.234375 73.773438zm0 0"/><path style="stroke:none;fill-rule:nonzero;fill:#000;fill-opacity:1" d="M98.125 73.796875C98.019531 73.769531 97.84375 74.050781 97.757812 74.429688 97.644531 74.859375 97.644531 75.414062 97.742188 75.789062V75.796875C97.824219 76.171875 98.007812 76.363281 98.148438 76.390625 98.273438 76.390625 98.359375 76.238281 98.359375 76.085938 98.359375 75.933594 98.292969 75.792969 98.25 75.625 98.207031 75.457031 98.1875 75.25 98.203125 74.875 98.21875 74.5 98.261719 73.941406 98.164062 73.828125 98.152344 73.8125 98.140625 73.800781 98.125 73.796875zm0 0"/><path style="stroke:none;fill-rule:nonzero;fill:#000;fill-opacity:1" d="M99.203125 74.140625C99.140625 74.136719 99.046875 74.21875 98.984375 74.304688 98.886719 74.402344 98.855469 74.480469 98.828125 74.59375 98.785156 74.691406 98.773438 74.824219 98.773438 75.101562 98.773438 75.382812 98.792969 75.78125 98.875 76.046875 98.945312 76.308594 99.070312 76.417969 99.195312 76.390625 99.292969 76.375 99.402344 76.222656 99.429688 76.070312 99.441406 75.902344 99.359375 75.753906 99.289062 75.546875 99.21875 75.351562 99.132812 75.113281 99.148438 74.835938 99.160156 74.570312 99.261719 74.261719 99.25 74.179688 99.238281 74.15625 99.222656 74.140625 99.203125 74.140625zm0 0"/><path style="stroke:none;fill-rule:nonzero;fill:#000;fill-opacity:1" d="M100.171875 75C100.113281 74.988281 100.054688 75.109375 100.03125 75.28125 100.019531 75.476562 100.054688 75.738281 100.109375 75.976562 100.195312 76.199219 100.292969 76.394531 100.390625 76.40625 100.476562 76.421875 100.570312 76.238281 100.570312 76.070312 100.570312 75.902344 100.476562 75.742188 100.390625 75.53125 100.320312 75.320312 100.265625 75.070312 100.195312 75.015625 100.1875 75.007812 100.179688 75 100.171875 75zm0 0"/><path style="stroke:none;fill-rule:nonzero;fill:#000;fill-opacity:1" d="M124.828125 75.351562C124.746094 75.34375 124.636719 75.390625 124.5625 75.460938 124.464844 75.546875 124.441406 75.703125 124.414062 75.882812 124.398438 76.050781 124.382812 76.242188 124.453125 76.296875 124.511719 76.355469 124.644531 76.242188 124.742188 76.132812 124.839844 76.007812 124.902344 75.882812 124.929688 75.742188 124.957031 75.589844 124.96875 75.417969 124.898438 75.375 124.875 75.363281 124.855469 75.355469 124.828125 75.351562zm0 0"/><path style="stroke:none;fill-rule:nonzero;fill:#000;fill-opacity:1" d="M125.796875 75.359375C125.695312 75.351562 125.65625 75.515625 125.679688 75.671875 125.679688 75.839844 125.761719 76.023438 125.84375 76.257812 125.929688 76.507812 126 76.800781 125.984375 77.273438 125.984375 77.75 125.886719 78.398438 125.734375 78.828125 125.582031 79.261719 125.375 79.484375 125.179688 79.71875 125 79.957031 124.816406 80.210938 124.84375 80.351562 124.859375 80.464844 125.050781 80.464844 125.203125 80.351562 125.34375 80.242188 125.445312 80.027344 125.640625 79.664062 125.851562 79.300781 126.152344 78.800781 126.304688 78.171875 126.457031 77.546875 126.449219 76.8125 126.335938 76.296875 126.226562 75.769531 125.984375 75.445312 125.84375 75.375 125.828125 75.367188 125.8125 75.363281 125.796875 75.359375zm0 0"/><path style="stroke:none;fill-rule:nonzero;fill:#000;fill-opacity:1" d="M124.289062 76.6875C124.234375 76.691406 124.140625 76.757812 124.0625 76.84375 123.9375 76.984375 123.882812 77.171875 123.742188 77.367188 123.617188 77.546875 123.417969 77.730469 123.40625 77.84375 123.394531 77.96875 123.5625 78.007812 123.671875 77.953125 123.8125 77.882812 123.886719 77.71875 124.023438 77.46875 124.148438 77.21875 124.34375 76.871094 124.34375 76.757812 124.34375 76.707031 124.324219 76.6875 124.289062 76.6875zm0 0"/><path style="stroke:none;fill-rule:nonzero;fill:#000;fill-opacity:1" d="M125.234375 76.96875C124.886719 77.511719 124.5 78.035156 124.164062 78.453125 123.832031 78.855469 123.519531 79.136719 123.421875 79.320312 123.339844 79.527344 123.453125 79.625 123.578125 79.585938 123.71875 79.558594 123.855469 79.375 124.007812 79.195312 124.175781 79.011719 124.339844 78.859375 124.492188 78.609375 124.644531 78.371094 124.804688 78.050781 124.929688 77.789062 125.054688 77.523438 125.144531 77.328125 125.1875 77.203125 125.246094 77.0625 125.25 77.023438 125.234375 76.96875zm0 0"/><path style="stroke:none;fill-rule:nonzero;fill:#000;fill-opacity:1" d="M123.140625 78.164062C123.015625 78.164062 122.863281 78.34375 122.90625 78.453125 122.949219 78.535156 123.175781 78.550781 123.257812 78.453125 123.328125 78.34375 123.25 78.164062 123.140625 78.164062zm0 0"/><path style="stroke:none;fill-rule:nonzero;fill:#000;fill-opacity:1" d="M126.429688 79.171875C126.414062 79.175781 126.40625 79.1875 126.390625 79.195312 126.308594 79.265625 126.289062 79.511719 126.234375 79.71875 126.191406 79.929688 126.109375 80.125 125.929688 80.390625 125.746094 80.65625 125.472656 81.015625 125.390625 81.265625 125.320312 81.488281 125.429688 81.617188 125.625 81.421875 125.835938 81.226562 126.128906 80.742188 126.351562 80.335938 126.546875 79.917969 126.6875 79.609375 126.671875 79.398438 126.660156 79.230469 126.535156 79.144531 126.429688 79.171875zm0 0"/><path style="stroke:none;fill-rule:nonzero;fill:#000;fill-opacity:1" d="M122.375 80.210938C121.886719 80.210938 121.078125 80.613281 120.523438 80.671875 119.257812 80.8125 118.144531 80.179688 117.101562 80.234375 116.976562 80.234375 116.875 80.414062 116.890625 80.484375 116.90625 80.539062 117.015625 80.554688 117.15625 80.585938 117.28125 80.597656 117.5 80.710938 117.710938 80.78125 118.535156 81.03125 119.328125 81.265625 120.21875 81.265625 120.773438 81.265625 122.296875 80.851562 122.601562 80.351562 122.671875 80.238281 122.5 80.210938 122.375 80.210938zm0 0"/><path style="stroke:none;fill-rule:nonzero;fill:#000;fill-opacity:1" d="M78.4375 81.171875C78.285156 81.347656 78.214844 81.578125 78.101562 81.78125 78.035156 81.964844 77.976562 82.160156 77.992188 82.359375 77.96875 82.550781 77.957031 82.746094 77.945312 82.941406 77.929688 83.105469 77.914062 83.269531 77.890625 83.433594 77.851562 83.601562 77.8125 83.773438 77.710938 83.914062 77.5625 84.167969 77.351562 84.378906 77.136719 84.578125 77.015625 84.644531 76.953125 84.976562 77.171875 84.878906 77.292969 84.765625 77.414062 84.652344 77.527344 84.53125 77.644531 84.410156 77.777344 84.304688 77.90625 84.195312 78.015625 83.949219 78.152344 83.707031 78.195312 83.441406 78.210938 83.171875 78.269531 82.90625 78.277344 82.636719 78.292969 82.496094 78.296875 82.351562 78.304688 82.210938 78.363281 81.980469 78.398438 81.734375 78.519531 81.519531 78.550781 81.417969 78.683594 81.238281 78.539062 81.175781 78.507812 81.167969 78.472656 81.167969 78.4375 81.171875zm0 0"/><path style="stroke:none;fill-rule:nonzero;fill:#000;fill-opacity:1" d="M123.078125 81.195312C122.953125 81.167969 122.757812 81.285156 122.5625 81.382812 122.351562 81.492188 122.144531 81.578125 121.867188 81.632812 121.601562 81.675781 121.265625 81.675781 121.015625 81.632812 120.75 81.578125 120.558594 81.503906 120.460938 81.546875 120.347656 81.589844 120.320312 81.742188 120.320312 81.828125 120.320312 81.925781 120.34375 81.925781 120.484375 81.953125 120.621094 81.980469 120.890625 82.035156 121.085938 82.0625 121.28125 82.089844 121.433594 82.089844 121.78125 82.007812 122.15625 81.925781 122.757812 81.746094 123.023438 81.578125 123.273438 81.394531 123.214844 81.222656 123.078125 81.195312zm0 0"/><path style="stroke:none;fill-rule:nonzero;fill:#000;fill-opacity:1" d="M127.46875 82.226562C127.296875 82.242188 127.148438 82.332031 127.1875 82.476562 127.246094 82.644531 127.632812 82.914062 127.9375 83.164062 128.257812 83.402344 128.496094 83.617188 128.5625 83.617188 128.648438 83.617188 128.605469 83.410156 128.507812 83.257812 128.425781 83.089844 128.3125 82.953125 128.171875 82.757812 128.035156 82.578125 127.863281 82.328125 127.640625 82.242188 127.585938 82.230469 127.527344 82.222656 127.46875 82.226562zm0 0"/><path style="stroke:none;fill-rule:nonzero;fill:#000;fill-opacity:1" d="M70.132812 67.519531H70.230469C70.28125 67.578125 70.300781 67.671875 70.257812 67.738281 70.210938 67.859375 70.074219 67.90625 70.003906 68.011719 69.890625 68.148438 69.785156 68.300781 69.632812 68.398438 69.460938 68.515625 69.246094 68.5625 69.042969 68.535156 68.957031 68.519531 68.890625 68.410156 68.9375 68.328125 68.984375 68.253906 69.078125 68.242188 69.15625 68.253906 69.226562 68.265625 69.292969 68.261719 69.359375 68.238281 69.460938 68.210938 69.5625 68.167969 69.644531 68.101562 69.707031 68.035156 69.761719 67.957031 69.84375 67.910156 69.90625 67.84375 69.953125 67.765625 70.019531 67.699219 70.0625 67.644531 70.089844 67.578125 70.132812 67.519531"/><path style="stroke:none;fill-rule:nonzero;fill:#000;fill-opacity:1" d="M76.605469 60.183594C76.1875 60.308594 75.9375 60.617188 75.910156 60.769531 75.882812 60.921875 76.089844 60.894531 76.328125 60.824219 76.578125 60.769531 76.855469 60.660156 77.300781 60.699219 77.746094 60.742188 78.375 60.921875 78.707031 60.9375 79.042969 60.953125 79.113281 60.769531 79.152344 60.519531 79.195312 60.269531 79.222656 59.960938 79.054688 59.890625 78.886719 59.824219 78.5 60.019531 78.039062 60.074219 77.578125 60.140625 77.007812 60.058594 76.605469 60.183594zm0 0"/><path style="stroke:none;fill-rule:nonzero;fill:#000;fill-opacity:1" d="M82.328125 63.136719C82.496094 63.097656 82.648438 63.011719 82.816406 62.871094 82.984375 62.761719 83.179688 62.609375 83.164062 62.523438 83.136719 62.46875 82.902344 62.46875 82.707031 62.523438 82.511719 62.59375 82.359375 62.71875 82.203125 62.84375 82.066406 62.96875 81.910156 63.082031 81.925781 63.136719 81.953125 63.191406 82.144531 63.179688 82.328125 63.136719zm0 0"/><path style="stroke:none;fill-rule:nonzero;fill:#000;fill-opacity:1" d="M82.609375 63.988281C82.773438 63.960938 82.96875 63.847656 83.191406 63.738281 83.414062 63.625 83.652344 63.527344 83.695312 63.417969 83.734375 63.304688 83.570312 63.179688 83.414062 63.207031 83.234375 63.222656 83.054688 63.390625 82.859375 63.515625 82.664062 63.640625 82.441406 63.75 82.34375 63.792969 82.230469 63.847656 82.230469 63.847656 82.285156 63.890625 82.34375 63.933594 82.453125 63.996094 82.605469 63.984375zm0 0"/><path style="stroke:none;fill-rule:nonzero;fill:#fff;fill-opacity:1" d="M82.683594 43.828125C82.703125 43.75 82.792969 43.714844 82.824219 43.640625 82.855469 43.601562 82.851562 43.539062 82.898438 43.515625 82.941406 43.5 82.949219 43.453125 82.964844 43.417969 82.980469 43.367188 82.996094 43.3125 83.019531 43.261719 83.039062 43.207031 83.042969 43.152344 83.050781 43.101562 83.070312 43.054688 83.082031 43.007812 83.113281 42.972656 83.140625 42.929688 83.207031 42.914062 83.246094 42.945312 83.332031 42.996094 83.367188 43.097656 83.363281 43.191406 83.359375 43.257812 83.34375 43.324219 83.3125 43.382812 83.273438 43.417969 83.226562 43.4375 83.207031 43.484375 83.105469 43.621094 82.972656 43.746094 82.808594 43.804688 82.769531 43.820312 82.726562 43.828125 82.683594 43.828125"/></g></svg>