<svg xmlns="http://www.w3.org/2000/svg" xmlns:xlink="http://www.w3.org/1999/xlink" width="225pt" height="150pt" viewBox="0 0 225 150"><g id="surface1"><path d="M0 0h225v150H0z" style="fill:#da121a;fill-opacity:1;stroke:none"/><path style="fill-rule:nonzero;fill:#fff;fill-opacity:1;stroke-width:1.2;stroke-linecap:butt;stroke-linejoin:miter;stroke:#000;stroke-opacity:1;stroke-miterlimit:4" d="M309.302083 75.375C309.302083 75.375 309.8125 66.520833 302.010417 65.125V55.604167H308.28125v-4.0625H302.010417V46.333333H298.125V51.541667H291.854167v4.0625H298.125V65.125C290.333333 66.520833 290.84375 75.375 290.84375 75.375" transform="matrix(0.375,0,0,0.375,0,0)"/><path style="fill-rule:nonzero;fill:#fff;fill-opacity:1;stroke-width:1.2;stroke-linecap:butt;stroke-linejoin:miter;stroke:#000;stroke-opacity:1;stroke-miterlimit:4" d="M277.895833 94.90625H322.041667C322.041667 82.927083 310.927083 73.333333 299.96875 73.333333 289.010417 73.333333 277.895833 82.927083 277.895833 94.90625zm0 0" transform="matrix(0.375,0,0,0.375,0,0)"/><path style="fill-rule:nonzero;fill:#fff;fill-opacity:1;stroke-width:1.2;stroke-linecap:butt;stroke-linejoin:miter;stroke:#000;stroke-opacity:1;stroke-miterlimit:4" d="M322.895833 105.5 325.395833 104.645833v-9.75H274.666667v9.75L277.166667 105.5zm0 0" transform="matrix(0.375,0,0,0.375,0,0)"/><path style="fill-rule:nonzero;fill:#fff;fill-opacity:1;stroke-width:1.2;stroke-linecap:butt;stroke-linejoin:miter;stroke:#000;stroke-opacity:1;stroke-miterlimit:4" d="M322.395833 200.604167V105.489583h-44.84375v95.114584" transform="matrix(0.375,0,0,0.375,0,0)"/><path style="fill-rule:nonzero;fill:#fff;fill-opacity:1;stroke-width:1;stroke-linecap:butt;stroke-linejoin:miter;stroke:#000;stroke-opacity:1;stroke-miterlimit:4" d="M207.895833 276.697917C215.270833 243.302083 212.604167 210.21875 212.604167 210.21875H387.395833C387.395833 210.21875 384.729167 243.302083 392.09375 276.697917 400.09375 312.958333 407.270833 325.5 407.270833 325.5v14.59375H192.770833L192.75 325.5C192.75 325.5 199.895833 312.958333 207.895833 276.697917zm0 0" transform="matrix(0.375,0,0,0.375,0,0)"/><path style="fill-rule:nonzero;fill:#fff;fill-opacity:1;stroke-width:1.2;stroke-linecap:butt;stroke-linejoin:miter;stroke:#000;stroke-opacity:1;stroke-miterlimit:4" d="M233.895833 82.385417H242.260417V93.520833h5.40625V82.385417H256.354167V93.520833h5.71875V82.385417h8.3125V104.3125L267.59375 105.510417H222.135417L218.770833 104.3125V82.385417h8.75V93.520833H233.90625zm0 0" transform="matrix(0.375,0,0,0.375,0,0)"/><path style="fill-rule:nonzero;fill:#fff;fill-opacity:1;stroke-width:1.2;stroke-linecap:butt;stroke-linejoin:miter;stroke:#000;stroke-opacity:1;stroke-miterlimit:4" d="M222.104167 105.5H267.5V201.927083H222.104167zm0 0" transform="matrix(0.375,0,0,0.375,0,0)"/><path style="fill-rule:nonzero;fill:#fff;fill-opacity:1;stroke-width:1.2;stroke-linecap:butt;stroke-linejoin:miter;stroke:#000;stroke-opacity:1;stroke-miterlimit:4" d="M232.604167 69.302083 236.71875 62.166667 232.604167 55.041667H240.84375L244.958333 47.90625 249.083333 55.041667H257.322917L253.197917 62.166667 257.322917 69.302083H249.083333L244.958333 76.4375 240.84375 69.302083zm0 0" transform="matrix(0.375,0,0,0.375,0,0)"/><path style="fill-rule:nonzero;fill:#fff;fill-opacity:1;stroke-width:1.2;stroke-linecap:butt;stroke-linejoin:miter;stroke:#000;stroke-opacity:1;stroke-miterlimit:4" d="M301 185.395833h-8.03125v13.0625H279.916667v-13.0625H265.583333v13.0625H253.614583v-13.0625h-13.875v13.0625h-11.875v-13.0625H211.697917V210.135417L215.552083 211.083333H301" transform="matrix(0.375,0,0,0.375,0,0)"/><path style="fill:none;stroke-width:2;stroke-linecap:butt;stroke-linejoin:miter;stroke:#000;stroke-opacity:1;stroke-miterlimit:4" d="M222.104167 106H267.458333" transform="matrix(0.375,0,0,0.375,0,0)"/><path style="fill:none;stroke-width:2.5;stroke-linecap:butt;stroke-linejoin:miter;stroke:#000;stroke-opacity:1;stroke-miterlimit:4" d="M266.395833 340.104167v-73.78125C266.395833 259.635417 275.447917 235.510417 3e2 235.510417" transform="matrix(0.375,0,0,0.375,0,0)"/><path style="fill:none;stroke-width:1;stroke-linecap:butt;stroke-linejoin:miter;stroke:#000;stroke-opacity:1;stroke-miterlimit:4" d="M277 340.104167v-69.84375C277 258.875 286.072917 245.833333 3e2 245.833333" transform="matrix(0.375,0,0,0.375,0,0)"/><path style="fill-rule:nonzero;fill:#000;fill-opacity:1;stroke-width:1;stroke-linecap:butt;stroke-linejoin:miter;stroke:#000;stroke-opacity:1;stroke-miterlimit:4" d="M283.895833 321.302083C283.895833 318.135417 285.083333 318.135417 286 318.135417 286.927083 318.135417 285.885417 319.40625 285.885417 321.135417 285.885417 322.875 286.885417 324.4375 286 324.4375 285.114583 324.4375 283.895833 324.15625 283.895833 321.28125zM277 321.197917H283.447917" transform="matrix(0.375,0,0,0.375,0,0)"/><path style="fill:none;stroke-width:2;stroke-linecap:butt;stroke-linejoin:miter;stroke:#000;stroke-opacity:1;stroke-miterlimit:4" d="M193 325.5h73" transform="matrix(0.375,0,0,0.375,0,0)"/><path style="fill-rule:nonzero;fill:#000;fill-opacity:1;stroke-width:1;stroke-linecap:butt;stroke-linejoin:miter;stroke:#000;stroke-opacity:1;stroke-miterlimit:4" d="M283.895833 321.302083C283.895833 318.135417 285.083333 318.135417 286 318.135417 286.927083 318.135417 285.885417 319.40625 285.885417 321.135417 285.885417 322.875 286.885417 324.4375 286 324.4375 285.114583 324.4375 283.895833 324.15625 283.895833 321.28125zM277 321.197917H283.447917" transform="matrix(0.375,0,0,0.375,0,-18.75)"/><path style="fill-rule:nonzero;fill:#fff;fill-opacity:1;stroke-width:1.2;stroke-linecap:butt;stroke-linejoin:miter;stroke:#000;stroke-opacity:1;stroke-miterlimit:4" d="M233.895833 82.385417H242.260417V93.520833h5.40625V82.385417H256.354167V93.520833h5.71875V82.385417h8.3125V104.3125L267.59375 105.510417H222.135417L218.770833 104.3125V82.385417h8.75V93.520833H233.90625zm0 0" transform="matrix(-0.375,0,0,0.375,225,0)"/><path style="fill-rule:nonzero;fill:#fff;fill-opacity:1;stroke-width:1.2;stroke-linecap:butt;stroke-linejoin:miter;stroke:#000;stroke-opacity:1;stroke-miterlimit:4" d="M222.104167 105.5H267.5V201.927083H222.104167zm0 0" transform="matrix(-0.375,0,0,0.375,225,0)"/><path style="fill-rule:nonzero;fill:#fff;fill-opacity:1;stroke-width:1.2;stroke-linecap:butt;stroke-linejoin:miter;stroke:#000;stroke-opacity:1;stroke-miterlimit:4" d="M232.604167 69.302083 236.71875 62.166667 232.604167 55.041667H240.84375L244.958333 47.90625 249.083333 55.041667H257.322917L253.197917 62.166667 257.322917 69.302083H249.083333L244.958333 76.4375 240.84375 69.302083zm0 0" transform="matrix(-0.375,0,0,0.375,225,0)"/><path style="fill-rule:nonzero;fill:#fff;fill-opacity:1;stroke-width:1.2;stroke-linecap:butt;stroke-linejoin:miter;stroke:#000;stroke-opacity:1;stroke-miterlimit:4" d="M301 185.395833h-8.03125v13.0625H279.916667v-13.0625H265.583333v13.0625H253.614583v-13.0625h-13.875v13.0625h-11.875v-13.0625H211.697917V210.135417L215.552083 211.083333H301" transform="matrix(-0.375,0,0,0.375,225,0)"/><path style="fill:none;stroke-width:2;stroke-linecap:butt;stroke-linejoin:miter;stroke:#000;stroke-opacity:1;stroke-miterlimit:4" d="M222.104167 106H267.458333" transform="matrix(-0.375,0,0,0.375,225,0)"/><path style="fill:none;stroke-width:2.5;stroke-linecap:butt;stroke-linejoin:miter;stroke:#000;stroke-opacity:1;stroke-miterlimit:4" d="M266.395833 340.104167v-73.78125C266.395833 259.635417 275.447917 235.510417 3e2 235.510417" transform="matrix(-0.375,0,0,0.375,225,0)"/><path style="fill:none;stroke-width:1;stroke-linecap:butt;stroke-linejoin:miter;stroke:#000;stroke-opacity:1;stroke-miterlimit:4" d="M277 340.104167v-69.84375C277 258.875 286.072917 245.833333 3e2 245.833333" transform="matrix(-0.375,0,0,0.375,225,0)"/><path style="fill-rule:nonzero;fill:#000;fill-opacity:1;stroke-width:1;stroke-linecap:butt;stroke-linejoin:miter;stroke:#000;stroke-opacity:1;stroke-miterlimit:4" d="M283.895833 321.302083C283.895833 318.135417 285.083333 318.135417 286 318.135417 286.927083 318.135417 285.885417 319.40625 285.885417 321.135417 285.885417 322.875 286.885417 324.4375 286 324.4375 285.114583 324.4375 283.895833 324.15625 283.895833 321.28125zM277 321.197917H283.447917" transform="matrix(-0.375,0,0,0.375,225,0)"/><path style="fill:none;stroke-width:2;stroke-linecap:butt;stroke-linejoin:miter;stroke:#000;stroke-opacity:1;stroke-miterlimit:4" d="M193 325.5h73" transform="matrix(-0.375,0,0,0.375,225,0)"/><path style="fill-rule:nonzero;fill:#000;fill-opacity:1;stroke-width:1;stroke-linecap:butt;stroke-linejoin:miter;stroke:#000;stroke-opacity:1;stroke-miterlimit:4" d="M283.895833 321.302083C283.895833 318.135417 285.083333 318.135417 286 318.135417 286.927083 318.135417 285.885417 319.40625 285.885417 321.135417 285.885417 322.875 286.885417 324.4375 286 324.4375 285.114583 324.4375 283.895833 324.15625 283.895833 321.28125zM277 321.197917H283.447917" transform="matrix(-0.375,0,0,0.375,225,-18.75)"/><path style="fill-rule:nonzero;fill:#000;fill-opacity:1;stroke-width:2;stroke-linecap:butt;stroke-linejoin:miter;stroke:#000;stroke-opacity:1;stroke-miterlimit:4" d="M212.197917 210.197917H387.802083M277.802083 106h44.15625" transform="matrix(0.375,0,0,0.375,0,0)"/><path style="fill:none;stroke-width:1;stroke-linecap:butt;stroke-linejoin:miter;stroke:#000;stroke-opacity:1;stroke-miterlimit:4" d="M3e2 245.802083V340.072917" transform="matrix(0.375,0,0,0.375,0,0)"/></g></svg>