<svg xmlns="http://www.w3.org/2000/svg" xmlns:xlink="http://www.w3.org/1999/xlink" width="300pt" height="150pt" viewBox="0 0 300 150"><g id="surface1"><path d="M0 0h3e2v150H0z" style="fill:#fff;fill-opacity:1;stroke:none"/><path style="stroke:none;fill-rule:nonzero;fill:#e81b39;fill-opacity:1" d="M75 7.5 70.363281 21.765625 77.496094 24.082031zm0 0"/><path style="stroke:none;fill-rule:nonzero;fill:#e81b39;fill-opacity:1" d="M75 7.5 79.636719 21.765625 72.503906 24.082031zm0 0"/><path style="stroke:none;fill-rule:nonzero;fill:#e81b39;fill-opacity:1" d="M89.265625 17.863281h-15v7.5zm0 0"/><path style="stroke:none;fill-rule:nonzero;fill:#e81b39;fill-opacity:1" d="M89.265625 17.863281 77.128906 26.679688 72.722656 20.613281zm0 0"/><path style="stroke:none;fill-rule:nonzero;fill:#e81b39;fill-opacity:1" d="M83.816406 34.636719 79.179688 20.371094 72.046875 22.6875zm0 0"/><path style="stroke:none;fill-rule:nonzero;fill:#e81b39;fill-opacity:1" d="M83.816406 34.636719 71.679688 25.820312 76.089844 19.75zm0 0"/><path style="stroke:none;fill-rule:nonzero;fill:#e81b39;fill-opacity:1" d="M66.183594 34.636719 78.320312 25.820312 73.910156 19.75zm0 0"/><path style="stroke:none;fill-rule:nonzero;fill:#e81b39;fill-opacity:1" d="M66.183594 34.636719 70.820312 20.371094 77.953125 22.6875zm0 0"/><path style="stroke:none;fill-rule:nonzero;fill:#e81b39;fill-opacity:1" d="M60.734375 17.863281 72.871094 26.679688 77.277344 20.613281zm0 0"/><path style="stroke:none;fill-rule:nonzero;fill:#e81b39;fill-opacity:1" d="M60.734375 17.863281h15v7.5zm0 0"/><path style="stroke:none;fill-rule:nonzero;fill:#e81b39;fill-opacity:1" d="M150 7.5 145.363281 21.765625 152.496094 24.082031zm0 0"/><path style="stroke:none;fill-rule:nonzero;fill:#e81b39;fill-opacity:1" d="M150 7.5 154.636719 21.765625 147.503906 24.082031zm0 0"/><path style="stroke:none;fill-rule:nonzero;fill:#e81b39;fill-opacity:1" d="M164.265625 17.863281h-15v7.5zm0 0"/><path style="stroke:none;fill-rule:nonzero;fill:#e81b39;fill-opacity:1" d="M164.265625 17.863281 152.128906 26.679688 147.722656 20.613281zm0 0"/><path style="stroke:none;fill-rule:nonzero;fill:#e81b39;fill-opacity:1" d="M158.816406 34.636719 154.179688 20.371094 147.046875 22.6875zm0 0"/><path style="stroke:none;fill-rule:nonzero;fill:#e81b39;fill-opacity:1" d="M158.816406 34.636719 146.679688 25.820312 151.089844 19.75zm0 0"/><path style="stroke:none;fill-rule:nonzero;fill:#e81b39;fill-opacity:1" d="M141.183594 34.636719 153.320312 25.820312 148.910156 19.75zm0 0"/><path style="stroke:none;fill-rule:nonzero;fill:#e81b39;fill-opacity:1" d="M141.183594 34.636719 145.820312 20.371094 152.953125 22.6875zm0 0"/><path style="stroke:none;fill-rule:nonzero;fill:#e81b39;fill-opacity:1" d="M135.734375 17.863281 147.871094 26.679688 152.277344 20.613281zm0 0"/><path style="stroke:none;fill-rule:nonzero;fill:#e81b39;fill-opacity:1" d="M135.734375 17.863281h15v7.5zm0 0"/><path style="stroke:none;fill-rule:nonzero;fill:#e81b39;fill-opacity:1" d="M225 7.5 220.363281 21.765625 227.496094 24.082031zm0 0"/><path style="stroke:none;fill-rule:nonzero;fill:#e81b39;fill-opacity:1" d="M225 7.5 229.636719 21.765625 222.503906 24.082031zm0 0"/><path style="stroke:none;fill-rule:nonzero;fill:#e81b39;fill-opacity:1" d="M239.265625 17.863281h-15v7.5zm0 0"/><path style="stroke:none;fill-rule:nonzero;fill:#e81b39;fill-opacity:1" d="M239.265625 17.863281 227.128906 26.679688 222.722656 20.613281zm0 0"/><path style="stroke:none;fill-rule:nonzero;fill:#e81b39;fill-opacity:1" d="M233.816406 34.636719 229.179688 20.371094 222.046875 22.6875zm0 0"/><path style="stroke:none;fill-rule:nonzero;fill:#e81b39;fill-opacity:1" d="M233.816406 34.636719 221.679688 25.820312 226.089844 19.75zm0 0"/><path style="stroke:none;fill-rule:nonzero;fill:#e81b39;fill-opacity:1" d="M216.183594 34.636719 228.320312 25.820312 223.910156 19.75zm0 0"/><path style="stroke:none;fill-rule:nonzero;fill:#e81b39;fill-opacity:1" d="M216.183594 34.636719 220.820312 20.371094 227.953125 22.6875zm0 0"/><path style="stroke:none;fill-rule:nonzero;fill:#e81b39;fill-opacity:1" d="M210.734375 17.863281 222.871094 26.679688 227.277344 20.613281zm0 0"/><path style="stroke:none;fill-rule:nonzero;fill:#e81b39;fill-opacity:1" d="M210.734375 17.863281h15v7.5zm0 0"/><path style="stroke:none;fill-rule:nonzero;fill:#e81b39;fill-opacity:1" d="M0 45H3e2V75H0zm0 0"/><path style="stroke:none;fill-rule:nonzero;fill:#e81b39;fill-opacity:1" d="M0 90H3e2v30H0zm0 0"/></g></svg>