<svg xmlns="http://www.w3.org/2000/svg" xmlns:xlink="http://www.w3.org/1999/xlink" width="225pt" height="150pt" viewBox="0 0 225 150"><g id="surface1"><path d="M0 0h225v150H0z" style="fill:#036;fill-opacity:1;stroke:none"/><path style="stroke:none;fill-rule:evenodd;fill:#fff;fill-opacity:1" d="M12.457031 28.003906C6.113281 49.152344 31.621094 66.242188 49 50.910156 67.222656 31.773438 46.886719 5.929688 25.765625 14.179688 41.179688 11.53125 50.367188 29.339844 40.003906 40.453125 29.992188 50.679688 11.734375 43.957031 12.457031 28.003906zm0 0"/><path style="stroke:none;fill-rule:evenodd;fill:#fff;fill-opacity:1" d="M123.769531 25.382812C122.960938 25.757812 122.363281 26.851562 122.023438 27.714844 121.210938 30.125 120.378906 32.527344 119.566406 34.933594 119.140625 36.015625 118.730469 37.117188 118.304688 38.1875 117.519531 38.082031 118.613281 36.742188 118.554688 36.167969 118.8125 34.992188 119.390625 33.839844 119.4375 32.636719 119.242188 31.738281 119.460938 30.570312 119.011719 29.835938 118.34375 31.375 117.5 32.847656 116.925781 34.421875 116.496094 36.3125 115.914062 38.167969 115.671875 40.09375 115.527344 41.089844 115.351562 42.074219 115.03125 43.03125 114.230469 42.957031 114.441406 41.546875 113.972656 40.96875 113.546875 39.613281 112.6875 38.441406 112.066406 37.167969 111.75 36.851562 111.019531 34.636719 111.035156 35.871094 110.964844 36.761719 110.902344 37.65625 110.820312 38.546875 109.046875 35.230469 107.265625 31.914062 105.488281 28.601562 105.632812 29.675781 105.484375 30.839844 105.875 31.855469 106.738281 33.714844 107.523438 35.605469 108.347656 37.480469 107.914062 37.890625 107.828125 37.214844 107.609375 36.9375 105.96875 34.039062 104.328125 31.140625 102.683594 28.242188 102.023438 28.707031 102.484375 29.566406 102.398438 30.238281 102.667969 31.179688 103.292969 32.023438 103.71875 32.914062 104.496094 34.367188 105.292969 35.816406 106.089844 37.253906 105.519531 37.886719 105.207031 36.097656 104.796875 35.695312 103.3125 33.121094 101.84375 30.535156 100.316406 27.988281 99.644531 28.21875 99.4375 28.707031 99.550781 29.359375 99.441406 30.007812 99.710938 30.5625 100.085938 31.085938 101.234375 33.074219 102.394531 35.054688 103.554688 37.039062 103.160156 37.492188 103.039062 36.828125 102.8125 36.5625 100.949219 33.613281 99.082031 30.664062 97.21875 27.710938 96.765625 27.507812 96.125 26.964844 96.269531 27.867188 96.054688 29 97.285156 29.789062 97.6875 30.769531 99.34375 33.335938 101.050781 35.914062 102.703125 38.453125 102.359375 38.917969 102.199219 38.324219 101.976562 38.066406 100.929688 36.582031 99.882812 35.097656 98.832031 33.613281 98.441406 33.507812 97.941406 33.253906 98.089844 33.890625 98.0625 34.292969 97.953125 34.71875 98.296875 35.019531 99.972656 37.535156 101.679688 40.039062 103.335938 42.5625 103.871094 43.660156 104.363281 44.792969 104.929688 45.871094 105.886719 46.855469 106.84375 47.839844 107.800781 48.824219 107.113281 49.378906 106.417969 47.621094 105.734375 47.304688 105.007812 46.492188 104.035156 45.839844 103.625 44.792969 103.128906 44.015625 102.84375 43.089844 102.074219 42.519531 101.226562 41.882812 100.574219 40.722656 99.589844 40.433594 99.269531 41.136719 99.53125 42.714844 100.484375 43.257812 100.578125 43.519531 101.917969 44.421875 101.183594 44.238281 99.742188 44.078125 98.390625 43.574219 97.039062 43.078125 96.226562 43.859375 98.988281 44.484375 97.4375 44.804688 96.316406 44.820312 95.449219 43.804688 94.425781 43.425781 91.871094 42.03125 89.253906 40.742188 86.644531 39.460938 86.101562 39.300781 85.558594 39.136719 85.015625 38.972656 84.867188 39.917969 86.34375 40.183594 86.835938 40.855469 88.816406 41.921875 90.847656 42.9375 92.832031 44.011719 92.769531 44.609375 92.230469 44.15625 91.871094 44.101562 88.152344 42.902344 84.4375 41.707031 80.722656 40.511719 80.097656 40.363281 80.207031 40.6875 80.460938 41.109375 80.523438 41.597656 81.003906 41.621094 81.382812 41.761719 84.300781 42.742188 87.214844 43.726562 90.132812 44.699219 90.246094 45.160156 90.34375 45.625 90.445312 46.089844 89.78125 45.542969 89.128906 44.917969 88.21875 44.859375 86.320312 44.386719 84.363281 44.785156 82.4375 44.808594 81.410156 44.5625 81.273438 45.390625 82.296875 45.570312 83.121094 46.207031 84.179688 45.847656 85.136719 45.898438 86.691406 45.855469 88.246094 45.804688 89.800781 45.75 90.078125 46.632812 88.285156 46.042969 88.214844 46.761719 88.035156 47.617188 89.648438 47.617188 90.230469 47.441406 91.121094 47.457031 91.734375 46.136719 92.492188 46.363281 92.292969 47.207031 90.808594 47.394531 90.640625 48.269531 90.53125 49.148438 92.316406 48.890625 92.832031 48.515625 93.429688 48.019531 94.457031 47.269531 94.511719 48.597656 94.683594 49.800781 96.273438 49.335938 97.136719 49.742188 98.671875 49.976562 100.25 50.074219 101.773438 50.324219 103.230469 50.988281 104.691406 51.644531 106.148438 52.308594 105.847656 53.132812 104.566406 51.882812 103.902344 51.929688 102.800781 51.625 101.785156 51 100.617188 50.988281 99.605469 50.800781 98.589844 50.824219 97.574219 50.941406 94.5 51.199219 91.421875 51.40625 88.351562 51.691406 85.492188 52.175781 82.625 52.636719 79.769531 53.109375 79.042969 53.335938 77.464844 53.761719 78.976562 54.054688 82.222656 53.902344 85.457031 53.628906 88.699219 53.382812 88.933594 53.949219 88.234375 53.757812 87.886719 53.847656 85.195312 54.121094 82.5 54.394531 79.808594 54.667969 78.976562 55.28125 77.871094 55.617188 77.417969 56.621094 77.550781 58.050781 79.335938 56.742188 80.222656 56.839844 82.554688 56.445312 84.875 56.074219 87.121094 55.355469 87.789062 55.410156 89.464844 54.214844 89.566406 55.074219 87.023438 55.855469 84.476562 56.652344 81.914062 57.363281 81.371094 57.488281 80.824219 57.617188 80.277344 57.746094 80.121094 59.054688 82.101562 58.289062 82.914062 58.5 84.691406 58.082031 86.386719 57.367188 88.140625 56.867188 89.078125 56.789062 90.5 55.691406 91.179688 56.144531 90.574219 56.757812 89.171875 57.085938 88.296875 57.59375 86.488281 58.382812 84.65625 59.109375 82.894531 60.007812 81.734375 61.183594 84.125 61.078125 84.714844 60.46875 86.597656 59.605469 88.457031 58.691406 90.3125 57.761719 90.765625 58.140625 90.097656 58.320312 89.859375 58.578125 88.808594 59.398438 87.785156 60.25 86.613281 60.898438 86.160156 61.261719 85.417969 61.390625 85.328125 62.058594 86.359375 62.644531 87.339844 61.933594 88.261719 61.472656 90.675781 59.910156 93.113281 58.382812 95.570312 56.894531 96.628906 56.417969 97.71875 56.007812 98.796875 55.574219 99.210938 55.988281 98.53125 56.117188 98.273438 56.359375 97.089844 57.152344 95.902344 57.9375 94.71875 58.734375 93.425781 60.070312 92.257812 61.539062 90.730469 62.625 90.019531 63.21875 89.292969 63.757812 88.730469 64.414062 87.617188 65.535156 86.460938 66.617188 85.355469 67.75 85.011719 68.890625 84.277344 69.96875 84.359375 71.195312 84.371094 72.515625 84.222656 73.851562 84.347656 75.164062 84.480469 75.707031 84.796875 76.949219 84.902344 75.707031 84.964844 75.140625 85.355469 73.179688 85.777344 74.554688 86.007812 75.070312 86.234375 76.621094 86.507812 76.351562 86.910156 75.554688 86.984375 74.4375 87.632812 73.835938 88.207031 74.171875 88.660156 75 89.210938 74.046875 89.90625 73.238281 89.804688 72.019531 90.148438 71.03125 90.449219 69.75 90.746094 68.472656 91.046875 67.191406 91.59375 67.035156 91.464844 67.695312 91.601562 68.03125 91.773438 68.824219 91.949219 69.613281 92.125 70.402344 93.3125 69.882812 92.828125 68.273438 93.210938 67.257812 93.289062 66.492188 93.53125 64.484375 94.351562 66.019531 94.832031 67.171875 96.164062 65.839844 96.125 65 96.398438 63.671875 96.660156 62.339844 96.9375 61.007812 97.292969 61.644531 97.667969 62.273438 98.03125 62.90625 99.273438 62.847656 99.703125 61.601562 100.507812 60.863281 101.234375 60.109375 101.878906 59.238281 102.683594 58.585938 103.601562 58.113281 104.460938 57.480469 105.402344 57.074219 106.324219 57.925781 104.933594 59.074219 104.410156 59.800781 103.246094 61.242188 101.804688 62.429688 100.585938 63.824219 100.101562 64.382812 99.347656 64.847656 99.550781 65.675781 100.164062 65.949219 100.804688 66.199219 101.421875 66.472656 100.488281 66.941406 99.484375 67.34375 98.625 67.910156 97.792969 68.628906 96.894531 69.269531 96.019531 69.9375 95.785156 70.570312 95.632812 71.289062 96.570312 71.023438 97.238281 70.910156 99.042969 71.195312 97.625 71.855469 96.292969 72.722656 94.753906 73.265625 93.433594 74.128906 93.070312 74.617188 92.089844 75.378906 93.285156 75.347656 94.082031 75.230469 95.273438 74.015625 95.867188 74.632812 95.027344 75.558594 93.941406 76.449219 93.027344 77.375 92.558594 77.738281 91.523438 78.742188 92.136719 79.023438 93.589844 78.328125 94.609375 77.023438 95.847656 76.03125 96.28125 75.339844 97.449219 74.726562 97.078125 76.070312 95.640625 77.859375 94.253906 79.699219 92.773438 81.441406 92.921875 83.191406 94.046875 80.941406 94.601562 80.472656 95.46875 79.449219 96.269531 78.359375 97.398438 77.613281 97.792969 77.527344 98.828125 76.054688 98.882812 76.65625 98.855469 77.15625 99.007812 77.714844 98.582031 78.105469 97.691406 79.308594 97.09375 80.6875 96.359375 81.988281 96.242188 82.550781 96.113281 84.167969 96.925781 83.40625 97.894531 81.601562 99.074219 79.914062 99.835938 78.003906 100.617188 76.367188 101.144531 74.609375 101.796875 72.929688 102.347656 72.109375 102.617188 72.386719 102.539062 73.246094 102.628906 74.042969 102.59375 75.753906 103.148438 75.875 104.148438 73.582031 105.40625 71.417969 106.476562 69.160156 106.847656 68.058594 107.285156 66.980469 107.742188 65.90625 108.320312 65.847656 108.054688 66.472656 108.113281 66.835938 108.074219 67.5625 108.1875 68.316406 108.054688 69.03125 107.433594 70.8125 106.96875 72.652344 106.101562 74.34375 105.578125 75.425781 104.835938 76.40625 104.328125 77.496094 103.816406 78.160156 104.007812 78.164062 104.582031 77.777344 105.59375 77.3125 106.273438 76.441406 106.976562 75.613281 108.085938 74.726562 107.261719 76.742188 107.007812 77.171875 106.40625 78.875 106.015625 80.664062 105.335938 82.347656 105.328125 82.859375 105.152344 84.03125 105.800781 83.132812 107.023438 82.179688 107.464844 80.652344 108.195312 79.347656 108.640625 79.996094 109.472656 80.367188 109.875 79.570312 109.808594 78.5625 109.34375 77.519531 109.796875 76.542969 110.246094 74.929688 110.613281 73.285156 110.863281 71.632812 110.988281 70.625 111.054688 69.609375 111.179688 68.605469 111.738281 68.320312 111.5 69.207031 111.546875 69.542969 111.546875 70.3125 111.546875 71.078125 111.546875 71.84375 112.09375 71.90625 113.101562 70.933594 113.386719 71.570312 112.832031 72.042969 111.988281 72.339844 111.488281 72.855469 111.464844 73.496094 111.445312 74.136719 111.425781 74.78125 112.105469 74.363281 112.789062 73.949219 113.472656 73.535156 113.957031 73.875 113.316406 74.109375 113.09375 74.390625 112.535156 74.914062 111.976562 75.4375 111.414062 75.960938 111.40625 76.414062 111.394531 76.867188 111.386719 77.320312 111.859375 77.167969 112.339844 77.03125 112.8125 76.875 113.199219 77.316406 112.527344 77.417969 112.25 77.648438 111.9375 77.941406 111.226562 77.992188 111.332031 78.542969 111.292969 79.925781 111.242188 81.304688 111.1875 82.6875 111.4375 82.195312 112.316406 81.003906 112.191406 80.9375 111.902344 81.503906 110.851562 81.539062 111.566406 80.953125 111.863281 80.589844 113.484375 79.4375 112.910156 80.589844 112.355469 81.394531 111.867188 82.464844 111.285156 83.125 111.117188 83.109375 110.917969 84.292969 111.421875 84.058594 111.839844 84.34375 113.132812 84.472656 112.242188 84.96875 111.859375 85.355469 111.378906 85.695312 111.054688 86.105469 111.082031 87.261719 110.789062 89.191406 111.015625 89.863281 111.359375 89.382812 112.480469 88.515625 112.246094 88.289062 111.773438 88.515625 110.328125 88.40625 111.339844 88.039062 111.953125 87.808594 113.675781 87.742188 112.574219 88.710938 111.988281 89.753906 110.597656 90.082031 110.859375 91.222656 110.863281 92.066406 110.519531 92.582031 111.550781 92.425781 112.730469 92.324219 112.8125 93.472656 111.75 93.789062 111.015625 94.214844 110.378906 94.1875 110.820312 95.15625 111.046875 95.792969 112.621094 96.222656 112.226562 96.882812 112.167969 96.140625 112 97.171875 111.59375 96.421875 111.09375 96.023438 110.445312 95.074219 110.660156 96.335938 110.566406 98.738281 110.472656 101.140625 110.375 103.546875 110.871094 103.394531 111.753906 104.089844 111.761719 104.410156 111.25 104.886719 110.027344 102.8125 110.347656 104.453125 110.363281 105.191406 110.167969 106.558594 110.320312 106.902344 110.566406 106.695312 110.957031 107.289062 111.257812 107.390625 111.601562 107.628906 111.949219 107.867188 112.292969 108.105469 112.101562 108.691406 111.699219 108.085938 111.375 107.929688 110.996094 107.667969 110.613281 107.40625 110.234375 107.140625 110.324219 108.121094 109.894531 109.917969 110.289062 110.421875 110.738281 110.753906 111.910156 111.703125 111.878906 112.234375 111.300781 112.390625 110.460938 110.660156 110.097656 110.757812 110.039062 112.21875 109.988281 113.675781 109.933594 115.136719 110.542969 115.339844 111.777344 116.132812 112.097656 116.632812 111.546875 117.097656 110.386719 115.367188 109.910156 115.585938 109.824219 116.765625 109.894531 117.96875 109.726562 119.136719 109.5 119.980469 111.835938 119.773438 111.328125 120.636719 110.46875 120.355469 109.273438 119.125 109.269531 120.714844 109.085938 121.984375 107.929688 123.277344 108.828125 124.480469 109.175781 125.457031 110.28125 125.871094 111.113281 126.367188 112.09375 126.210938 113.035156 125.726562 114.054688 125.691406 115.558594 125.457031 117.089844 125.375 118.585938 125.132812 119.222656 124.667969 120.007812 124.234375 119.050781 123.640625 118.289062 122.707031 118.472656 121.378906 118.03125 120.316406c0-.859375-.17968799999999874-1.234375-.9375-.6132810000000006C116.5 119.820312 115.574219 121.089844 115.238281 120.296875 116.125 119.867188 116.933594 119.308594 117.832031 118.890625 117.726562 117.765625 117.507812 116.640625 117.53125 115.503906 116.820312 115.964844 115.769531 116.917969 115.085938 116.785156 115.363281 116.148438 116.726562 115.871094 117.304688 115.203125 117.726562 115.195312 117.449219 114.597656 117.523438 114.246094 117.511719 113.261719 117.503906 112.277344 117.492188 111.296875 116.835938 112.039062 116.046875 112.570312 115.046875 112.730469 114.308594 112.082031 116.179688 112.316406 116.421875 111.761719 116.871094 111.257812 117.699219 110.941406 117.476562 110.148438 117.46875 109.277344 117.460938 108.410156 117.453125 107.539062 116.875 107.921875 115.8125 109.304688 115.253906 108.730469 115.859375 108.191406 117.167969 107.675781 117.445312 106.871094 117.429688 105.738281 117.417969 104.609375 117.40625 103.480469 116.78125 104.316406 115.929688 104.886719 114.921875 105.148438 114.425781 105.699219 113.414062 105.210938 114.421875 104.9375 115.40625 104.609375 116.398438 104.253906 117.007812 103.363281 117.5625 103.0625 117.375 102.535156 117.398438 101.988281 117.386719 101.183594 117.378906 100.378906 117.371094 99.574219 116.195312 100.613281 115.136719 101.765625 113.972656 102.820312 113.359375 102.171875 115.109375 101.613281 115.359375 100.96875 115.9375 100.277344 116.921875 99.605469 117.367188 99.007812 117.359375 98.128906 117.351562 97.25 117.339844 96.375 116.894531 96.789062 116.171875 97.3125 117.085938 96.816406 117.496094 97.277344 116.777344 97.328125 116.476562 97.527344 116.058594 97.722656 115.640625 97.914062 115.226562 98.109375 114.792969 97.296875 116.632812 96.894531 116.996094 96.179688 117.492188 96.300781 117.308594 95.832031 117.332031 95.351562 117.328125 94.738281 117.320312 94.125 117.3125 93.515625 116.699219 94.628906 115.480469 93.984375 114.503906 93.78125 113.785156 93.722656 114.460938 93.5 114.761719 93.324219 115.53125 92.910156 116.304688 92.496094 117.078125 92.078125 117.511719 92.519531 116.792969 92.601562 116.503906 92.816406 116.046875 93.058594 115.589844 93.300781 115.132812 93.542969 115.988281 94.023438 117.039062 93.714844 117.300781 92.882812 117.304688 91.410156 117.261719 89.964844 117.191406 88.492188 116.515625 89.171875 116.125 89.917969 115.285156 90.21875 115.679688 90.039062 117.300781 90.273438 116.210938 90.558594 115.582031 90.683594 113.492188 90.765625 114.957031 89.96875 115.703125 89.675781 116.1875 89.128906 116.664062 88.503906 117.226562 88.175781 117.222656 87.957031 117.144531 87.292969 117.105469 86.386719 117.070312 85.480469 117.03125 84.578125 116.6875 84.996094 115.226562 86.152344 115.601562 86.148438 116.039062 85.875 117.75 85.792969 116.730469 86.289062 116.078125 86.246094 114.667969 87.15625 114.433594 86.359375 115.34375 85.835938 116.015625 85.023438 116.773438 84.300781 117.21875 84.359375 116.925781 83.707031 116.980469 83.300781 116.871094 80.582031 116.761719 77.867188 116.652344 75.148438 116.226562 75.527344 114.433594 76.972656 115.089844 75.539062 115.527344 75.035156 115.976562 74.15625 116.460938 73.984375 116.78125 73.820312 116.492188 73.226562 116.566406 72.890625 116.636719 72.058594 116.132812 71.351562 115.882812 70.585938 115.867188 70.273438 115.28125 69.730469 115.777344 69.636719 116.320312 70.097656 116.574219 71.347656 117.015625 72.085938 117.683594 73.628906 118.445312 75.140625 119.03125 76.714844 119.355469 78.023438 119.703125 79.332031 119.75 80.6875 120.082031 80.566406 120.703125 80.765625 120.679688 80.246094 120.757812 79.738281 121.128906 79.210938 120.804688 78.71875 119.339844 74.742188 117.679688 70.84375 116.132812 66.898438 116.5 66.519531 116.621094 67.039062 116.765625 67.347656 117.664062 69.140625 118.25 71.066406 119 72.925781 119.761719 74.941406 120.558594 76.945312 121.476562 78.894531 122.882812 78.074219 121.71875 76.609375 121.519531 75.417969 120.863281 73.238281 119.972656 71.132812 119.210938 68.988281 118.984375 68.605469 118.488281 68.429688 118.160156 68.125 117.675781 67.765625 117.175781 67.40625 116.699219 67.050781 117.097656 66.300781 117.980469 67.617188 118.589844 67.683594 119.636719 68.789062 119.894531 67.089844 120.824219 66.894531 121.085938 67.851562 119.316406 68.628906 120.257812 69.730469 120.9375 72.046875 121.546875 74.382812 122.445312 76.625 122.59375 77.03125 122.742188 77.433594 122.890625 77.835938 122.585938 78.273438 123.019531 80.144531 123.640625 79.660156 123.851562 78.652344 124.496094 77.652344 123.949219 76.632812 123.144531 73.558594 122.039062 70.570312 121.109375 67.53125 121.121094 66.425781 121.8125 68.003906 121.890625 68.480469 122.960938 71.382812 124.117188 74.257812 125.0625 77.207031 124.859375 78.070312 124.867188 79.898438 125.996094 78.867188 126.046875 77.710938 126.136719 76.527344 125.65625 75.441406 124.679688 72.839844 123.902344 70.164062 123.03125 67.523438 122.535156 68.0625 121.601562 67.542969 121.457031 66.949219 121.625 65.636719 120.539062 65.671875 119.5625 65.757812 119.132812 65.714844 120.308594 65.101562 120.445312 64.878906 120.976562 64.589844 122.101562 63.699219 121.015625 63.460938 120.667969 63.300781 120.324219 63.136719 119.976562 62.980469 120.492188 62.089844 121.03125 61.214844 121.71875 60.4375 122.140625 59.667969 121.820312 58.285156 120.996094 57.8125 120.402344 57.484375 120.46875 56.730469 120.234375 56.171875c-.3125-.328125.0-.9609370000000013.25-.484375C120.636719 56.21875 120.792969 56.75 120.945312 57.28125 121.84375 57.761719 122.257812 58.550781 122.238281 59.546875 122.648438 60.476562 121.570312 61.039062 121.171875 61.742188 120.9375 62.085938 120.734375 62.457031 120.511719 62.8125 121.011719 63.046875 121.523438 63.261719 122.011719 63.511719 122.117188 64.449219 120.5 65.070312 120.617188 65.390625 122.1875 64.96875 121.234375 67.15625 122.417969 67.335938 122.824219 67.332031 123.171875 66.929688 123.554688 66.765625 124.234375 66.894531 123.269531 67.210938 123.429688 67.515625 124.699219 70.960938 126 74.414062 127.203125 77.875 127.089844 79.128906 128.28125 79.292969 129.027344 79.808594 129.128906 80.476562 129.449219 81.746094 130.152344 81.472656 130.183594 79.6875 130.296875 77.890625 130.300781 76.109375 130.402344 75.5 129.367188 74.023438 130.214844 73.949219 130.691406 75.347656 131.324219 76.707031 131.652344 78.144531 131.882812 79.078125 131.421875 80.597656 132.761719 80.734375 133.351562 80.976562 132.894531 78.828125 133.527344 79.414062 133.878906 79.691406 134.226562 79.96875 134.574219 80.246094 135.992188 80.277344 134.9375 78.722656 134.960938 77.933594 134.515625 76.824219 134.09375 75.703125 133.652344 74.589844 134.308594 74.316406 133.296875 74.6875 133.488281 73.980469 133.335938 72.882812 132.625 72.058594 131.988281 71.203125 131.71875 70.621094 131.738281 69.933594 131.234375 70.757812 130.632812 71.253906 130.898438 72.074219 131.320312 72.597656 132.003906 73.65625 131.933594 75.054688 132.789062 76.011719c.375.6132810000000006.8789069999999981 1.234375.75 2C133.570312 78.363281 133.597656 79.0625 133.160156 78.726562 133.101562 78.128906 133.320312 77.480469 132.949219 77.007812 132.496094 76.117188 131.847656 75.5625 131.667969 74.5625 131.472656 73.558594 130.910156 72.699219 130.488281 71.789062 130.582031 71.566406 129.078125 71.910156 129.195312 71.4375 129.613281 71.378906 129.539062 71.195312 130.242188 71.355469 130.777344 70.902344 130.773438 70.050781 130.414062 69.484375 129.703125 67.898438 128.613281 66.503906 127.816406 64.964844 127.617188 63.960938 128.015625 62.722656 127.054688 62.019531 126.058594 61.050781 125.554688 59.742188 124.996094 58.5 124.355469 57.605469 123.3125 57.082031 122.570312 56.273438 122.164062 56.398438 120.636719 56.449219 121.398438 55.992188 122.441406 55.574219 123.160156 56.167969 123.824219 56.875 124.582031 57.464844 125.390625 58.074219 125.644531 59.042969 126.117188 60.171875 126.730469 61.21875 127.605469 62.085938 128.378906 62.808594 127.980469 63.96875 128.1875 64.898438 129.136719 66.621094 130.40625 68.195312 131.046875 70.070312 130.90625 70.890625 131.273438 69.808594 131.660156 69.902344 131.625 68.972656 131.949219 67.71875 131.347656 66.851562 130.71875 65.683594 129.988281 64.5625 129.421875 63.371094 129.027344 62.519531 128.542969 61.457031 128.105469 60.527344 127.640625 59.453125 126.972656 58.492188 126.335938 57.519531 126.96875 56.855469 127.296875 58.761719 127.789062 59.09375 128.894531 61.050781 129.589844 63.207031 130.796875 65.109375 131.152344 65.941406 131.898438 66.675781 132.054688 67.5625 132.179688 68.09375 131.84375 69.8125 132.277344 69.671875 132.492188 69.257812 132.710938 68.84375 132.921875 68.429688 133.269531 68.265625 133.949219 68.367188 134.03125 67.992188 134.152344 66.832031 132.984375 65.988281 132.867188 64.851562 132.539062 63.300781 131.914062 61.832031 131.144531 60.449219 130.316406 58.632812 129.097656 57.015625 128.445312 55.117188 128.269531 54.011719 129.167969 55.425781 129.1875 55.941406 129.824219 57.390625 130.753906 58.695312 131.414062 60.140625 132.039062 61.316406 132.640625 62.503906 132.984375 63.800781 133.222656 65.015625 133.722656 66.144531 134.359375 67.210938 134.46875 67.695312 134.34375 68.078125 134.757812 68.121094 134.949219 68.566406 134.019531 68.339844 134.386719 69.027344 134.492188 69.457031 134.277344 71.078125 133.953125 70.15625 133.984375 69.394531 134.339844 68.15625 133.253906 68.738281 132.964844 68.988281 132.855469 69.46875 132.632812 69.804688 132.449219 70.261719 131.765625 70.230469 132.230469 70.878906c.609375.90625 1.421875 1.7148439999999994 1.578125 2.84375C133.941406 74.730469 134.777344 75.414062 135.28125 76.28125 135.832031 76.847656 136.476562 78.574219 137.027344 78.265625 137.273438 77.191406 136.332031 76.476562 135.984375 75.542969 135.25 73.96875 134.582031 72.359375 133.878906 70.769531 134.449219 71.179688 135.175781 71.421875 135.503906 72.097656 136.8125 73.839844 138.101562 75.601562 139.445312 77.320312 140.855469 77.996094 139.988281 76.238281 139.558594 75.6875 138.484375 73.515625 137.011719 71.574219 135.742188 69.515625 135.464844 69.234375 134.582031 67.867188 135.40625 68.289062 136.855469 70.078125 138.308594 71.867188 139.757812 73.65625 140.246094 73.992188 141.132812 74.269531 140.835938 73.4375 139.59375 71.164062 138.011719 69.105469 136.625 66.917969 135.179688 64.859375 133.949219 62.65625 132.648438 60.5 133.332031 59.945312 134.230469 61.335938 134.992188 61.515625 136.210938 62.183594 137.296875 63.03125 138.292969 63.992188 139.976562 65.457031 141.59375 67.003906 143.339844 68.382812 144.210938 68.859375 144.890625 69.695312 145.824219 70.003906 145.839844 69.691406 144.867188 68.507812 145.277344 68.515625 146.257812 68.792969 147.1875 69.199219 148.09375 69.652344 148.699219 69.953125 150.601562 70.667969 149.648438 69.429688 149.34375 68.808594 147.902344 68.472656 148.136719 67.800781 148.40625 67.65625 148.839844 68.109375 149.171875 68.195312 149.933594 68.652344 150.792969 68.859375 151.667969 68.984375 152.945312 68.925781 152.144531 67.59375 151.277344 67.585938 149.296875 66.53125 147.328125 65.441406 145.351562 64.371094 145.761719 63.539062 147.101562 64.855469 147.875 64.8125 148.324219 64.671875 149.980469 65.011719 149.402344 64.230469 149.15625 63.929688 148.648438 63.917969 148.296875 63.738281 145.59375 62.757812 142.882812 61.789062 140.179688 60.800781 139.027344 60.027344 137.855469 59.273438 136.699219 58.507812 136.875 57.800781 138.039062 58.714844 138.613281 58.640625 139.625 58.90625 140.644531 59.125 141.695312 59.109375 142.371094 59.128906 143.785156 59.300781 144.03125 59.1875 143.585938 58.949219 141.613281 58.375 142.738281 58.070312 143.300781 58.035156 145.078125 58 143.566406 57.941406 142.492188 57.832031 141.371094 57.867188 140.332031 57.582031 140.464844 57.199219 141 57.34375 141.703125 57.417969 142.464844 57.679688 144.015625 57.230469 144.316406 57.875 145.074219 58.117188 146.40625 57.804688 147.382812 57.863281 148.734375 57.746094 150.222656 57.929688 151.488281 57.597656 151.929688 56.910156 153.25 56.6875 153.226562 55.792969 153.136719 54.964844 153.128906 54.113281 152.992188 53.300781 152.710938 52.992188 152.652344 52.367188 152.175781 52.339844 150.898438 52.132812 149.679688 51.78125 148.46875 51.34375 145.949219 51.285156 143.421875 51.304688 140.910156 51.15625 140.09375 51.105469 139.125 51.839844 138.191406 51.789062 136.746094 51.933594 135.269531 51.816406 133.867188 52.261719 133.328125 52.679688 132.578125 52.074219 133.441406 51.96875 134.523438 51.683594 135.621094 51.484375 136.742188 51.503906 137.886719 51.464844 139.035156 51.382812 140.09375 50.914062 140.742188 50.472656 140.886719 51.222656 141.011719 50.40625 141.605469 50.179688 143.507812 50.339844 143.058594 49.710938 140.714844 49.792969 138.367188 49.820312 136.019531 49.863281 135.175781 49.78125 134.097656 50.300781 133.261719 50.703125 132.285156 51.097656 133.09375 50.105469 133.699219 50.082031 134.738281 49.464844 136.03125 49.617188 137.039062 48.949219 138.617188 48.214844 140.097656 47.28125 141.636719 46.476562 142.035156 46.121094 143.144531 45.570312 141.96875 45.457031 141.046875 45.242188 140.0625 45.773438 139.105469 45.785156 137.84375 46.007812 139.105469 44.910156 139.582031 44.699219 141.050781 43.941406 142.492188 43.113281 143.898438 42.238281 144.347656 41.898438 145.664062 41.664062 145.238281 41.09375 144.046875 41.496094 142.867188 42.066406 141.644531 42.398438 141.230469 42.496094 139.359375 42.726562 140.28125 41.996094 142.082031 40.808594 143.851562 39.578125 145.636719 38.367188 146.230469 37.570312 145.800781 37.550781 145.085938 37.875 144.261719 38.125 143.644531 38.800781 142.875 39.195312 142.613281 39.65625 141.132812 40.050781 141.917969 39.246094 142.714844 38.554688 143.492188 37.839844 144.324219 37.1875 144.746094 36.601562 145.175781 35.210938 144.035156 35.867188 143.296875 36.253906 142.351562 36.3125 141.839844 37.027344 140.933594 37.96875 140.011719 38.902344 139.113281 39.851562 138.460938 39.234375 140.152344 38.558594 140.363281 37.910156 141.097656 37.066406 141.871094 36.25 142.53125 35.347656 142.671875 34.609375 142.703125 34.089844 141.953125 34.605469 141.589844 34.761719 141.226562 34.917969 140.859375 35.074219 140.96875 35.835938 139.355469 36.632812 138.839844 37.386719 137.972656 38.128906 136.792969 38.4375 136.027344 39.320312 135.417969 38.667969 137.097656 38.175781 137.53125 37.792969 138.75 37.199219 139.574219 36.078125 140.558594 35.179688 139.484375 35.394531 138.246094 35.351562 137.613281 36.425781 135.984375 37.972656 134.402344 39.574219 132.734375 41.078125 130.703125 42.484375 128.636719 43.867188 126.554688 45.183594 125.597656 45.566406 124.242188 45.25 123.792969 46.402344 122.996094 47.519531 122.050781 48.523438 121.164062 49.570312 122.117188 49.359375 123.023438 49.578125 123.886719 50.003906c.828125.28906299999999874 1.53125.859375 2.328125 1.21875C126.035156 52.011719 124.949219 52.609375 124.089844 52.464844 123.554688 52.449219 123.070312 52.085938 122.550781 51.929688 122.601562 51.308594 123.128906 51.8125 123.480469 51.898438 124.171875 52.273438 125.105469 52.125 125.613281 51.515625 125.347656 50.96875 123.941406 50.417969 123.125 50.117188 122.382812 49.667969 121.535156 49.976562 120.730469 49.984375c-.953125.21875.265625-.625.40625-.953125C122.1875 47.847656 123.195312 46.628906 124.109375 45.332031 124.042969 44.378906 125.101562 43.703125 125.453125 42.820312 126.492188 41.289062 127.027344 39.488281 127.824219 37.824219 128.164062 37.132812 127.988281 36.320312 128.078125 35.570312 128.050781 35.164062 128.195312 34.71875 128.054688 34.339844 127.316406 35.699219 126.554688 37.054688 125.84375 38.425781 124.972656 38.476562 125.753906 37.089844 126.007812 36.730469 126.679688 35.371094 127.4375 34.035156 128.066406 32.667969 128.082031 32.09375 128.101562 31.523438 128.121094 30.949219 127.554688 30.457031 127.269531 32.136719 126.820312 32.53125 125.835938 34.167969 124.925781 35.859375 123.902344 37.46875 123.800781 38.011719 122.714844 38.40625 123.148438 37.636719 124.617188 34.941406 126.121094 32.253906 127.625 29.585938 128.226562 28.515625 128.035156 27.265625 128.121094 26.089844 127.539062 25.175781 127.136719 26.582031 126.671875 26.945312 126.078125 27.683594 125.859375 28.652344 125.40625 29.480469 124.664062 31.085938 123.898438 32.683594 123.144531 34.28125 122.304688 33.933594 123.632812 32.679688 123.640625 31.972656 124.363281 30.109375 125.082031 28.246094 125.796875 26.382812 125.4375 25.632812 124.632812 27.605469 124.25 28.0625 123.566406 29.589844 122.769531 31.070312 122.011719 32.5625 121.203125 32.210938 122.507812 30.96875 122.472656 30.289062 122.863281 29.15625 123.378906 28.035156 123.757812 26.921875 123.703125 26.5 124.300781 25.402344 123.769531 25.382812zM128.960938 45.691406C129.144531 46.4375 128.023438 46.777344 127.5625 47.351562 126.984375 47.570312 124.910156 48.078125 125.800781 48.542969 126.390625 48.230469 126.984375 47.921875 127.574219 47.609375 128.328125 48.324219 129.464844 49.089844 129.378906 50.183594 128.660156 50.363281 128.96875 48.777344 128.113281 48.628906 127.722656 47.949219 127.222656 48.125 126.695312 48.5 126.273438 48.726562 125.84375 48.9375 125.429688 49.175781 124.726562 48.214844 125.507812 47.4375 126.519531 47.320312 127.523438 47.164062 128.109375 46.296875 128.867188 45.71875L128.886719 45.703125zM134.300781 47.769531C134.371094 48.609375 132.894531 48.242188 132.496094 48.953125 131.851562 49.261719 131.199219 50.222656 130.621094 50.210938 129.984375 50.089844 131.386719 49.476562 131.609375 49.128906 132.414062 48.484375 133.238281 47.886719 134.300781 47.769531zM141.152344 51.050781C140.988281 51.210938 141.105469 51.179688 141.152344 51.050781zM121.796875 51.875C122.671875 52.203125 123.605469 52.414062 124.347656 53.019531 125.304688 53.355469 125.351562 54.453125 125.628906 55.28125 125.65625 55.8125 125.195312 57.507812 124.710938 57.148438 124.90625 56.363281 125.601562 55.402344 125.015625 54.507812 124.9375 53.523438 123.917969 53.25 123.226562 52.777344 122.707031 52.59375 122.183594 52.40625 121.664062 52.222656 121.707031 52.105469 121.753906 51.988281 121.796875 51.875zm24.671875.09375C148.246094 52.042969 150.039062 52.117188 151.808594 52.289062 152.007812 52.496094 151.453125 52.511719 151.535156 52.621094 149.242188 52.515625 146.953125 52.238281 144.660156 52.425781 143.585938 52.289062 142.648438 53.109375 141.558594 52.878906 140.980469 52.992188 139.644531 52.679688 140.558594 52.441406 141.601562 52.558594 142.660156 52.570312 143.632812 52.121094 144.554688 51.957031 145.53125 52.066406 146.46875 51.96875zM143.730469 53.460938C145.566406 53.722656 147.414062 53.882812 149.273438 53.863281 150.441406 53.925781 151.8125 53.808594 152.863281 53.996094 152.691406 54.777344 151.054688 54.023438 150.355469 54.257812 148.292969 54.234375 146.226562 54.234375 144.183594 53.894531 143.789062 53.90625 143.664062 53.84375 143.730469 53.460938zM145.722656 55.515625C146.476562 56.304688 147.558594 56.445312 148.648438 56.269531 149.929688 56.1875 151.242188 56.535156 152.484375 56.058594 153.5625 55.957031 152.40625 56.664062 151.839844 56.59375 150.585938 56.859375 149.300781 56.507812 148.035156 56.667969 147.019531 57.027344 146.191406 56.171875 145.464844 55.984375 144.921875 56.304688 144.324219 56.375 143.707031 56.328125c-.8828120000000013.0-1.765625.0-2.6484370000000013.0C140.878906 55.738281 141.558594 56.007812 141.910156 55.949219 142.792969 55.945312 143.679688 55.964844 144.5625 55.941406 144.941406 55.792969 145.316406 55.59375 145.722656 55.515625zM109.640625 56.714844C110.558594 57.09375 108.894531 58.003906 109.164062 58.605469 109.207031 59.230469 109.28125 59.679688 109.574219 58.8125 109.710938 58.40625 109.835938 57.996094 109.980469 57.59375 110.351562 58.207031 110.839844 58.550781 111.546875 58.554688 111.847656 59.074219 111.992188 60.246094 112.3125 59.164062 112.601562 58.601562 112.828125 57.957031 113.246094 57.5 113.925781 57.886719 113.152344 59.273438 113.347656 59.980469 113.292969 61.097656 113.53125 62.214844 113.371094 63.335938 113.46875 64.003906 112.8125 65.699219 113.996094 64.890625 114.40625 64.695312 114.460938 64.121094 114.710938 63.753906 115.164062 62.875 114.996094 61.808594 115.292969 60.878906 116.171875 60.652344 115.375 63.320312 116.222656 62.472656 116.46875 61.570312 115.800781 60.808594 115.726562 59.8125c0-.59375.0-1.1835939999999994.0-1.7773439999999994C116.316406 57.859375 116.046875 58.535156 116.105469 58.890625 116.0625 59.601562 116.136719 60.308594 116.445312 60.960938 117.414062 61.484375 117.257812 59.683594 118.03125 59.320312 118.871094 58.984375 118.398438 57.234375 119.25 57.421875 119.167969 58.503906 118.566406 59.394531 117.824219 60.132812 117.519531 60.648438 117.375 61.886719 116.5 61.386719 117.136719 62.039062 116.417969 63.402344 115.632812 63.171875 115.460938 62.59375 115.445312 61.917969 115.355469 62.90625 115.328125 63.730469 114.75 64.382812 114.453125 65.125 113.742188 65.515625 112.460938 65.945312 112.929688 64.617188 113.015625 63.199219 113.117188 61.777344 112.945312 60.359375 112.925781 59.894531 113.179688 58.425781 112.949219 58.714844 112.621094 59.378906 112.308594 60.050781 111.980469 60.71875 111.574219 60.109375 111.738281 58.675781 110.777344 58.820312 110.242188 58.714844 110.054688 58.082031 109.921875 58.941406 109.6875 59.199219 109.394531 60.625 108.96875 59.980469 108.867188 59.195312 108.933594 57.976562 108.035156 58.933594 107.871094 58.296875 107.714844 57.65625 107.554688 57.015625 108.082031 56.695312 107.988281 57.417969 108.128906 57.75 108.097656 58.832031 109.257812 57.777344 109.394531 57.214844 109.476562 57.046875 109.558594 56.882812 109.640625 56.714844zM124.4375 61.5C125.445312 63.539062 126.511719 65.554688 127.589844 67.558594 128.175781 68.984375 128.878906 70.371094 129.125 71.902344 128.894531 72.632812 130.609375 73.617188 129.769531 73.808594 128.847656 73.085938 128.75 71.9375 128.496094 70.882812 127.894531 69 127.023438 67.203125 126.054688 65.476562 125.359375 64.238281 124.769531 62.949219 124.117188 61.6875 124.226562 61.625 124.332031 61.5625 124.4375 61.5zM122.382812 63.726562C123.34375 63.839844 121.507812 64.839844 122.703125 64.953125 123.324219 65.054688 123.164062 65.929688 123.726562 66.074219 125.136719 66.15625 123.570312 68.167969 125.023438 67.871094 125.722656 68.417969 124.988281 69.839844 126.082031 70.203125 126.988281 70.640625 126.730469 71.714844 127.15625 72.460938 127.257812 73.03125 127.585938 72.945312 127.980469 72.664062 128.273438 72.46875 128.859375 72.167969 128.75 72.703125 128.238281 72.957031 127.726562 73.210938 127.214844 73.46875 126.804688 72.675781 126.441406 71.863281 126.355469 70.964844 125.554688 70.363281 124.832031 69.695312 124.957031 68.597656 125.144531 67.753906 123.539062 68.613281 123.964844 67.550781 124.519531 66.472656 123.273438 66.613281 123.019531 65.886719 122.945312 65.164062 121.859375 65.28125 121.796875 64.644531 121.976562 64.328125 122.199219 64.042969 122.382812 63.726562zM116.613281 74.136719C116.457031 74.605469 114.945312 76.015625 116.0625 75.125 116.640625 74.777344 116.722656 75.003906 116.621094 74.230469L116.617188 74.164062zM116.386719 77.488281C117.480469 77.675781 115.03125 78.726562 115.558594 78.75 115.878906 78.519531 116.5625 78.546875 116.207031 78.953125 115.675781 79.117188 115.144531 79.277344 114.613281 79.441406 114.21875 78.59375 115.957031 78.171875 116.371094 77.507812zM116.5 81.101562C117.398438 81.128906 116.011719 82.035156 115.757812 82.425781 114.777344 83.21875 116.917969 81.636719 116.746094 82.421875 116.335938 82.710938 114.851562 83.644531 114.335938 83.128906 114.980469 82.394531 115.902344 81.917969 116.5 81.101562zM111.121094 84.339844C111.074219 85.03125 110.941406 85.898438 111.605469 85.039062 112.34375 84.585938 111.527344 84.605469 111.121094 84.339844zM110.800781 92.691406C110.785156 93.339844 110.539062 94.371094 111.394531 93.5625 112.027344 93.285156 112.503906 92.789062 111.484375 92.796875 111.257812 92.761719 111.027344 92.726562 110.800781 92.691406zM110.640625 99.769531C111.210938 100.117188 112.664062 100.207031 112.628906 100.855469 112.21875 100.789062 110.710938 100.441406 110.640625 99.953125c0-.0625.0-.12109399999999937.0-.18359399999999937zm-2.59375 23.851563C105.816406 123.683594 103.578125 123.609375 101.355469 123.6875 100.390625 124.300781 99.28125 124.703125 98.527344 125.589844 97.960938 126.390625 99.484375 127.074219 100.269531 126.894531 100.664062 127.160156 102.074219 126.644531 101.835938 127.386719 101.464844 128.457031 100.261719 128.644531 99.464844 129.292969 98.976562 130.3125 100.140625 131.578125 101.015625 130.605469 101.53125 130.113281 101.980469 130.054688 102.347656 130.664062 102.953125 131.140625 101.921875 132.421875 103.25 132.351562 104.121094 131.914062 104.894531 131.148438 105.710938 130.570312 106.25 129.878906 107.125 129.109375 107.46875 130.417969 108.265625 131.097656 109.261719 130.925781 110.210938 130.863281 111.375 130.824219 112.660156 130.667969 113.332031 129.570312 114.421875 129.046875 115.460938 130.113281 116.011719 130.964844 116.746094 131.449219 117.972656 131.511719 117.597656 130.289062 117.308594 129.488281 117.558594 128.640625 118.523438 129.15625 119.578125 129.355469 120.398438 130.15625 121.410156 130.433594 121.347656 129.664062 121.335938 128.214844 122.40625 129.199219 123.304688 129.851562 124.246094 130.484375 125.335938 130.773438 125.375 130.320312 125.253906 129.824219 125.402344 129.398438 126.101562 128.675781 127.5 130.789062 127.195312 129.179688 127.339844 128.628906 126.585938 127.40625 127.355469 127.492188 128.417969 127.9375 129.542969 128.25 130.675781 128.453125c-.75-1.25-2.09375-1.9375-3.234375-2.7734370000000013C126.335938 125.21875 125.171875 124.855469 123.964844 124.878906 122.660156 124.757812 121.328125 124.8125 120.042969 124.621094 119.492188 124.222656 119.582031 124.578125 119.683594 124.695312 118.914062 125.796875 117.539062 125.585938 116.378906 125.792969 114.753906 125.949219 113.113281 126.109375 111.574219 126.6875 110.511719 126.828125 109.570312 125.886719 108.800781 125.234375 108.464844 124.765625 108.304688 124.148438 108.046875 123.621094zm0 0"/></g></svg>