<svg xmlns="http://www.w3.org/2000/svg" xmlns:xlink="http://www.w3.org/1999/xlink" width="225pt" height="150pt" viewBox="0 0 225 150"><g id="surface1"><path d="M0 0h225v150H0z" style="fill:#120a8f;fill-opacity:1;stroke:none"/><path style="stroke:none;fill-rule:nonzero;fill:#c5c5c5;fill-opacity:1" d="M147.0625 109.558594c0 1.296875-1.0507810000000006 2.34375-2.34375 2.34375-8.683594.0-17.363281.0-26.046875.0-3.453125.0-6.25 2.8007810000000006-6.25 6.25C112.421875 114.703125 109.621094 111.902344 106.167969 111.902344c-8.207031.0-17.835938.0-25.523438.0C79.347656 111.902344 78.296875 110.855469 78.296875 109.558594V30.125H147.0625zm0 0"/><path style="fill:none;stroke-width:8;stroke-linecap:butt;stroke-linejoin:miter;stroke:#2c4878;stroke-opacity:1;stroke-miterlimit:4" d="M581.003125 895.711116C581.003125 900.838095 576.846701 904.992184 571.732292 904.992184c-34.34843799999999.0-68.69687500000003.0-103.02986100000004.0C455.043403 904.992184 443.964757 916.049163 443.964757 929.700517 443.964757 916.049163 432.901562 904.992184 419.242535 904.992184c-32.463368.0-70.551042.0-100.97482699999995.0C313.153299 904.992184 308.996875 900.838095 308.996875 895.711116V581.699085H581.003125zm0 0" transform="matrix(0.252809,0,0,0.252951,0,-116.110171)"/><path style="stroke:none;fill-rule:nonzero;fill:#2c4878;fill-opacity:1" d="M147.402344 79.015625C146.355469 79.867188 145.023438 80.378906 143.574219 80.378906 142.121094 80.378906 140.789062 79.867188 139.695312 79.046875 138.632812 78.308594 137.363281 77.847656 135.988281 77.847656 134.597656 77.847656 133.3125 78.320312 132.253906 79.066406 131.179688 79.871094 129.851562 80.378906 128.40625 80.378906 126.949219 80.378906 125.613281 79.867188 124.523438 79.042969 123.460938 78.304688 122.195312 77.847656 120.820312 77.847656 119.425781 77.847656 118.144531 78.320312 117.09375 79.0625 116.023438 79.867188 114.6875 80.378906 113.234375 80.378906 111.78125 80.378906 110.445312 79.867188 109.367188 79.050781 108.308594 78.3125 107.035156 77.847656 105.652344 77.847656 104.265625 77.847656 102.984375 78.316406 101.921875 79.0625 100.839844 79.871094 99.511719 80.378906 98.066406 80.378906 96.605469 80.378906 95.261719 79.859375 94.179688 79.039062 93.128906 78.308594 91.859375 77.847656 90.484375 77.847656 89.097656 77.847656 87.820312 78.3125 86.757812 79.058594 85.675781 79.871094 84.347656 80.378906 82.898438 80.378906 81.394531 80.378906 80.015625 79.832031 78.957031 78.921875L78.792969 81.8125C79.871094 82.804688 81.316406 83.414062 82.898438 83.414062 84.347656 83.414062 85.679688 82.90625 86.757812 82.097656 87.8125 81.351562 89.09375 80.882812 90.484375 80.882812 91.859375 80.882812 93.128906 81.34375 94.195312 82.085938 95.285156 82.90625 96.617188 83.414062 98.066406 83.414062 99.519531 83.414062 100.855469 82.902344 101.933594 82.089844 102.988281 81.351562 104.265625 80.882812 105.652344 80.882812 107.03125 80.882812 108.304688 81.34375 109.359375 82.082031 110.441406 82.898438 111.777344 83.414062 113.234375 83.414062 114.683594 83.414062 116.007812 82.90625 117.097656 82.09375 118.164062 81.347656 119.4375 80.882812 120.820312 80.882812 122.195312 80.882812 123.464844 81.34375 124.515625 82.070312 125.59375 82.894531 126.9375 83.414062 128.40625 83.414062 129.855469 83.414062 131.1875 82.902344 132.265625 82.09375 133.324219 81.351562 134.601562 80.882812 135.988281 80.882812 137.367188 80.882812 138.636719 81.34375 139.707031 82.121094 140.773438 82.898438 142.113281 83.414062 143.574219 83.414062 145.023438 83.414062 146.355469 82.90625 147.398438 82.054688zm0 0"/><path style="stroke:none;fill-rule:nonzero;fill:#2c4878;fill-opacity:1" d="M147.402344 72.945312C146.355469 73.796875 145.023438 74.308594 143.574219 74.308594 142.121094 74.308594 140.789062 73.796875 139.695312 72.976562 138.632812 72.234375 137.363281 71.777344 135.988281 71.777344c-1.390625.0-2.6757810000000006.46875-3.734375 1.21875C131.179688 73.800781 129.851562 74.308594 128.40625 74.308594 126.949219 74.308594 125.613281 73.792969 124.523438 72.972656 123.460938 72.234375 122.195312 71.777344 120.820312 71.777344 119.425781 71.777344 118.144531 72.246094 117.09375 72.992188 116.023438 73.796875 114.6875 74.308594 113.234375 74.308594 111.78125 74.308594 110.445312 73.796875 109.367188 72.980469 108.308594 72.242188 107.035156 71.777344 105.652344 71.777344 104.265625 71.777344 102.984375 72.242188 101.921875 72.992188 100.839844 73.800781 99.511719 74.308594 98.066406 74.308594 96.605469 74.308594 95.261719 73.789062 94.179688 72.96875 93.128906 72.234375 91.859375 71.777344 90.484375 71.777344 89.097656 71.777344 87.820312 72.242188 86.757812 72.988281 85.675781 73.800781 84.347656 74.308594 82.898438 74.308594 81.03125 74.308594 79.363281 73.464844 78.25 72.136719L78.335938 75.273438C79.445312 76.542969 81.078125 77.34375 82.898438 77.34375 84.347656 77.34375 85.679688 76.835938 86.757812 76.027344 87.8125 75.28125 89.09375 74.8125 90.484375 74.8125 91.859375 74.8125 93.128906 75.273438 94.195312 76.015625 95.285156 76.832031 96.617188 77.34375 98.066406 77.34375 99.519531 77.34375 100.855469 76.832031 101.933594 76.019531 102.988281 75.277344 104.265625 74.8125 105.652344 74.8125 107.03125 74.8125 108.304688 75.273438 109.359375 76.011719 110.441406 76.828125 111.777344 77.34375 113.234375 77.34375 114.683594 77.34375 116.007812 76.835938 117.097656 76.023438 118.164062 75.277344 119.4375 74.8125 120.820312 74.8125 122.195312 74.8125 123.464844 75.273438 124.515625 76 125.59375 76.824219 126.9375 77.34375 128.40625 77.34375 129.855469 77.34375 131.1875 76.832031 132.265625 76.023438 133.324219 75.28125 134.601562 74.8125 135.988281 74.8125 137.367188 74.8125 138.636719 75.273438 139.707031 76.050781 140.773438 76.828125 142.113281 77.34375 143.574219 77.34375 145.023438 77.34375 146.355469 76.835938 147.398438 75.984375zm0 0"/><path style="stroke:none;fill-rule:nonzero;fill:#2c4878;fill-opacity:1" d="M147.402344 66.875C146.355469 67.726562 145.023438 68.238281 143.574219 68.238281 142.121094 68.238281 140.789062 67.726562 139.695312 66.90625 138.632812 66.164062 137.363281 65.707031 135.988281 65.707031c-1.390625.0-2.6757810000000006.46875-3.734375 1.21875C131.179688 67.730469 129.851562 68.238281 128.40625 68.238281 126.949219 68.238281 125.613281 67.722656 124.523438 66.902344 123.460938 66.164062 122.195312 65.707031 120.820312 65.707031 119.425781 65.707031 118.144531 66.175781 117.09375 66.921875 116.023438 67.726562 114.6875 68.238281 113.234375 68.238281 111.78125 68.238281 110.445312 67.722656 109.367188 66.910156 108.308594 66.171875 107.035156 65.707031 105.652344 65.707031 104.265625 65.707031 102.984375 66.171875 101.921875 66.921875 100.839844 67.730469 99.511719 68.238281 98.066406 68.238281 96.605469 68.238281 95.261719 67.71875 94.179688 66.898438 93.128906 66.164062 91.859375 65.707031 90.484375 65.707031 89.097656 65.707031 87.820312 66.171875 86.757812 66.917969 85.675781 67.730469 84.347656 68.238281 82.898438 68.238281 81.121094 68.238281 79.523438 67.472656 78.414062 66.253906L78.308594 69.171875C79.421875 70.457031 81.066406 71.273438 82.898438 71.273438 84.347656 71.273438 85.679688 70.765625 86.757812 69.957031 87.8125 69.210938 89.09375 68.742188 90.484375 68.742188 91.859375 68.742188 93.128906 69.203125 94.195312 69.945312 95.285156 70.761719 96.617188 71.273438 98.066406 71.273438 99.519531 71.273438 100.855469 70.761719 101.933594 69.949219 102.988281 69.207031 104.265625 68.742188 105.652344 68.742188 107.03125 68.742188 108.304688 69.203125 109.359375 69.941406 110.441406 70.757812 111.777344 71.273438 113.234375 71.273438 114.683594 71.273438 116.007812 70.765625 117.097656 69.953125 118.164062 69.203125 119.4375 68.742188 120.820312 68.742188 122.195312 68.742188 123.464844 69.199219 124.515625 69.929688 125.59375 70.753906 126.9375 71.273438 128.40625 71.273438 129.855469 71.273438 131.1875 70.761719 132.265625 69.953125 133.324219 69.207031 134.601562 68.742188 135.988281 68.742188 137.367188 68.742188 138.636719 69.203125 139.707031 69.980469 140.773438 70.757812 142.113281 71.273438 143.574219 71.273438 145.023438 71.273438 146.355469 70.761719 147.398438 69.914062zm0 0"/><path style="stroke:none;fill-rule:nonzero;fill:#2c4878;fill-opacity:1" d="M147.402344 60.804688C146.355469 61.65625 145.023438 62.164062 143.574219 62.164062 142.121094 62.164062 140.789062 61.65625 139.695312 60.835938 138.632812 60.09375 137.363281 59.636719 135.988281 59.636719c-1.390625.0-2.6757810000000006.46875-3.734375 1.21875C131.179688 61.660156 129.851562 62.164062 128.40625 62.164062 126.949219 62.164062 125.613281 61.652344 124.523438 60.832031 123.460938 60.09375 122.195312 59.636719 120.820312 59.636719 119.425781 59.636719 118.144531 60.105469 117.09375 60.847656 116.023438 61.65625 114.6875 62.164062 113.234375 62.164062 111.78125 62.164062 110.445312 61.652344 109.367188 60.839844 108.308594 60.097656 107.035156 59.636719 105.652344 59.636719 104.265625 59.636719 102.984375 60.101562 101.921875 60.851562 100.839844 61.660156 99.511719 62.164062 98.066406 62.164062 96.605469 62.164062 95.261719 61.648438 94.179688 60.828125 93.128906 60.09375 91.859375 59.636719 90.484375 59.636719 89.097656 59.636719 87.820312 60.101562 86.757812 60.847656 85.675781 61.65625 84.347656 62.164062 82.898438 62.164062 81.078125 62.164062 79.449219 61.363281 78.335938 60.097656L78.347656 63.148438C79.460938 64.40625 81.085938 65.203125 82.898438 65.203125 84.347656 65.203125 85.679688 64.691406 86.757812 63.886719 87.8125 63.140625 89.09375 62.671875 90.484375 62.671875 91.859375 62.671875 93.128906 63.128906 94.195312 63.875 95.285156 64.691406 96.617188 65.203125 98.066406 65.203125 99.519531 65.203125 100.855469 64.691406 101.933594 63.878906 102.988281 63.136719 104.265625 62.671875 105.652344 62.671875 107.03125 62.671875 108.304688 63.132812 109.359375 63.871094 110.441406 64.6875 111.777344 65.203125 113.234375 65.203125 114.683594 65.203125 116.007812 64.695312 117.097656 63.882812 118.164062 63.132812 119.4375 62.671875 120.820312 62.671875 122.195312 62.671875 123.464844 63.128906 124.515625 63.859375 125.59375 64.679688 126.9375 65.203125 128.40625 65.203125 129.855469 65.203125 131.1875 64.691406 132.265625 63.882812 133.324219 63.136719 134.601562 62.671875 135.988281 62.671875 137.367188 62.671875 138.636719 63.128906 139.707031 63.910156 140.773438 64.6875 142.113281 65.203125 143.574219 65.203125 145.023438 65.203125 146.355469 64.691406 147.398438 63.84375zm0 0"/></g></svg>