<svg xmlns="http://www.w3.org/2000/svg" xmlns:xlink="http://www.w3.org/1999/xlink" width="225pt" height="150pt" viewBox="0 0 225 150"><g id="surface1"><path style="stroke:none;fill-rule:evenodd;fill:#bf0a30;fill-opacity:1" d="M75.007812.0117188H225V75.03125H75.007812zm0 0"/><path style="stroke:none;fill-rule:evenodd;fill:#002868;fill-opacity:1" d="M0 0H75.007812V150H0zM0 0"/><path style="stroke:none;fill-rule:evenodd;fill:#fff;fill-opacity:1" d="M75.023438 75.050781H224.984375V150H75.023438zm0 0"/><path style="fill-rule:evenodd;fill:#ffca00;fill-opacity:1;stroke-width:1;stroke-linecap:butt;stroke-linejoin:miter;stroke:#002868;stroke-opacity:1;stroke-miterlimit:4" d="M37.395833 117.304688C21.757812 126.041667 18.932292 129.674479 10.364583 136.367188L29.361979 136.770833C29.140625 138.541667 24.986979 160.559896 24.596354 162.122396 38.893229 152.617188 45.677083 148.255208 65.195312 142.760417 72.955729 140.611979 64.583333 132.734375 63.776042 130.638021 58.476562 133.020833 54.401042 135.872396 50.494792 139.348958" transform="matrix(0.3,0,0,0.3,0,0)"/><path style="fill-rule:evenodd;fill:#ffca00;fill-opacity:1;stroke-width:1;stroke-linecap:butt;stroke-linejoin:miter;stroke:#002868;stroke-opacity:1;stroke-miterlimit:4" d="M50.742188 139.166667C79.882812 112.473958 176.302083 113.111979 203.164062 139.986979 204.023438 139.674479 221.40625 110.364583 220.533854 110.677083 167.8125 73.75 73.333333 80.078125 33.684896 109.21875L34.153646 110.963542zm0 0" transform="matrix(0.3,0,0,0.3,0,0)"/><path style="fill:none;stroke-width:3.124997;stroke-linecap:round;stroke-linejoin:round;stroke:#002868;stroke-opacity:1;stroke-miterlimit:4" d="M55.755208 127.578125C55.611979 127.200521 47.278646 111.692708 47.278646 111.692708L60.911458 123.710938 57.747396 106.158854 66.666667 121.171875" transform="matrix(0.3,0,0,0.3,0,0)"/><path style="fill:none;stroke-width:3.124997;stroke-linecap:round;stroke-linejoin:round;stroke:#002868;stroke-opacity:1;stroke-miterlimit:4" d="M105.195312 100.794271C105.247396 96.054688 109.049479 95.729167 111.666667 96.549479 113.203125 97.721354 114.010417 101.536458 112.174479 103.710938L108.476562 106.861979C107.200521 108.450521 105.78125 110.273438 105.872396 112.278646L114.21875 111.966146" transform="matrix(0.3,0,0,0.3,0,0)"/><path style="fill:none;stroke-width:3.124997;stroke-linecap:round;stroke-linejoin:round;stroke:#002868;stroke-opacity:1;stroke-miterlimit:4" d="M120.338542 95.729167C118.815104 96.471354 118.294271 97.65625 117.942708 99.401042 117.721354 101.40625 117.825521 106.145833 118.229167 108.098958 118.59375 109.570312 118.958333 110.520833 120.052083 111.484375 121.328125 112.213542 122.747396 112.070312 123.515625 111.575521 124.570312 110.976562 125.299479 109.752604 125.664062 108.28125 126.25 106.419271 126.210938 100.950521 125.794271 98.945312 125.416667 97.604167 124.947917 96.536458 123.880208 95.755208 122.604167 95.208333 121.106771 95.325521 120.338542 95.729167zm0 0" transform="matrix(0.3,0,0,0.3,0,0)"/><path style="fill:none;stroke-width:3.124996;stroke-linecap:round;stroke-linejoin:round;stroke:#002868;stroke-opacity:1;stroke-miterlimit:4" d="M160.182292 100.286458C161.757812 99.622396 162.96875 98.815104 164.296875 97.252604L161.953125 113.763021" transform="matrix(0.3,0,0,0.3,0,0)"/><path style="fill:none;stroke-width:3.125001;stroke-linecap:round;stroke-linejoin:round;stroke:#002868;stroke-opacity:1;stroke-miterlimit:4" d="M172.369792 99.440104C172.565104 99.518229 180.299479 101.757812 180.299479 101.757812 176.536458 106.484375 173.4375 110.664062 170.911458 115.989583" transform="matrix(0.3,0,0,0.3,0,0)"/><path style="fill:none;stroke-width:3.125004;stroke-linecap:round;stroke-linejoin:round;stroke:#002868;stroke-opacity:1;stroke-miterlimit:4" d="M187.070312 103.554688 194.739583 107.34375C190.182292 110.598958 186.432292 114.6875 183.125 119.479167" transform="matrix(0.3,0,0,0.3,0,0)"/><path style="fill:none;stroke-width:3.124999;stroke-linecap:round;stroke-linejoin:round;stroke:#002868;stroke-opacity:1;stroke-miterlimit:4" d="M206.523438 113.476562 201.497396 110.533854l-4.453125 6.015625C200.234375 115.924479 202.382812 116.888021 203.307292 119.778646 203.867188 124.049479 201.315104 126.484375 198.541667 126.5625 195.638021 126.497396 194.140625 124.895833 193.723958 121.549479" transform="matrix(0.3,0,0,0.3,0,0)"/><path style="fill:none;stroke-width:3.125001;stroke-linecap:round;stroke-linejoin:round;stroke:#002868;stroke-opacity:1;stroke-miterlimit:4" d="M70.9375 119.023438C70.9375 119.023438 71.419271 101.09375 71.601562 101.119792 71.679688 100.390625 81.731771 115.976562 81.731771 115.976562" transform="matrix(0.3,0,0,0.3,0,0)"/><path style="fill:none;stroke-width:3.125001;stroke-linecap:round;stroke-linejoin:round;stroke:#002868;stroke-opacity:1;stroke-miterlimit:4" d="M71.263021 112.643229 78.085938 110.625" transform="matrix(0.3,0,0,0.3,0,0)"/><path style="stroke:none;fill-rule:evenodd;fill:#ffca00;fill-opacity:1" d="M9.429688 86.441406 12.421875 86.480469l-.09375-12.953125L18.058594 86.550781H21.171875V67.492188L18.132812 67.535156 18.179688 79.582031 12.824219 67.585938 9.476562 67.628906zm0 0"/><path style="stroke:none;fill-rule:evenodd;fill:#ffca00;fill-opacity:1" d="M64.089844 73.539062H67.273438L67.234375 71.859375C67.144531 70.773438 66.734375 69.402344 65.664062 68.386719 64.953125 67.59375 64.109375 67.144531 63.015625 66.84375 62.089844 66.480469 59.816406 66.589844 58.660156 67.234375 57.296875 67.996094 56.144531 69.355469 55.375 71.546875 54.363281 75.230469 54.820312 79.847656 55.460938 82.023438 56.222656 84.324219 57.417969 85.554688 59.007812 86.328125 59.996094 86.660156 61.722656 86.914062 63.339844 86.476562 65.097656 85.8125 65.902344 84.65625 66.601562 83.425781 67.027344 82.589844 67.511719 80.992188 67.425781 79.21875L64.105469 79.257812C64.105469 79.90625 63.976562 80.65625 63.808594 81.304688 63.433594 82.210938 62.851562 82.816406 61.410156 82.816406 60.441406 82.816406 59.789062 82.417969 59.246094 81.703125 58.515625 81 58.324219 79.417969 58.273438 78.972656 58.054688 76.957031 58.046875 74.960938 58.628906 72.855469 58.851562 72.007812 59.289062 71.21875 59.867188 70.835938 60.800781 70.332031 61.765625 70.40625 62.308594 70.566406 63.027344 70.785156 63.6875 71.320312 63.894531 72.03125 64.054688 72.699219 64.078125 73.101562 64.089844 73.539062zm0 0"/><path style="stroke:none;fill-rule:evenodd;fill:#fff;fill-opacity:1" d="M45.597656 87.066406 38.460938 81.519531 31.132812 87.03125 34.035156 78.398438 26.605469 72.929688 35.539062 73.140625 38.277344 64.25 40.894531 73.015625 50.015625 72.988281 42.699219 78.191406zm0 0"/><path style="fill:none;stroke-width:1.25;stroke-linecap:butt;stroke-linejoin:miter;stroke:#000;stroke-opacity:1;stroke-miterlimit:4" d="M50.755208 139.270833v0" transform="matrix(0.3,0,0,0.3,0,0)"/><path style="fill:none;stroke-width:1;stroke-linecap:butt;stroke-linejoin:miter;stroke:#002868;stroke-opacity:1;stroke-miterlimit:4" d="M50.833333 139.179688C51.875 140.247396 53.945312 139.986979 56.809896 139.440104 59.088542 139.166667 61.692708 139.0625 63.736979 138.828125 67.135417 139.101562 69.075521 139.895833 67.682292 141.510417" transform="matrix(0.3,0,0,0.3,0,0)"/><path style="fill-rule:evenodd;fill:#ffca00;fill-opacity:1;stroke-width:1;stroke-linecap:butt;stroke-linejoin:miter;stroke:#002868;stroke-opacity:1;stroke-miterlimit:4" d="M216.640625 118.255208C232.278646 126.979167 235.104167 130.625 243.671875 137.317708L224.674479 137.708333C224.908854 139.479167 229.049479 161.510417 229.440104 163.059896 215.143229 153.554688 208.359375 149.205729 188.841146 143.697917 181.09375 141.549479 189.726562 133.528646 190.533854 131.432292 195.833333 133.828125 200.338542 136.666667 203.541667 140.286458" transform="matrix(0.3,0,0,0.3,0,0)"/><path style="fill:none;stroke-width:1.25;stroke-linecap:butt;stroke-linejoin:miter;stroke:#000;stroke-opacity:1;stroke-miterlimit:4" d="M203.28125 140.208333v0" transform="matrix(0.3,0,0,0.3,0,0)"/><path style="fill:none;stroke-width:1;stroke-linecap:butt;stroke-linejoin:miter;stroke:#002868;stroke-opacity:1;stroke-miterlimit:4" d="M202.981771 140.130208C201.223958 140.9375 199.414062 140.572917 197.226562 140.390625 195.143229 140.091146 192.786458 139.726562 190.455729 139.648438 186.536458 139.674479 185.117188 141.315104 186.354167 142.447917" transform="matrix(0.3,0,0,0.3,0,0)"/><path style="fill:none;stroke-width:2.249997;stroke-linecap:round;stroke-linejoin:round;stroke:#002868;stroke-opacity:1;stroke-miterlimit:4" d="M129.375 101.875C132.395833 101.927083 135.325521 102.044271 135.325521 102.044271" transform="matrix(0.3,0,0,0.3,0,0)"/><path style="fill:none;stroke-width:2.250005;stroke-linecap:round;stroke-linejoin:round;stroke:#002868;stroke-opacity:1;stroke-miterlimit:4" d="M138.671875 97.916667 138.307292 112.330729" transform="matrix(0.3,0,0,0.3,0,0)"/><path style="fill:none;stroke-width:2.250005;stroke-linecap:round;stroke-linejoin:round;stroke:#002868;stroke-opacity:1;stroke-miterlimit:4" d="M144.947917 112.994792C145.794271 102.643229 144.440104 102.265625 139.427083 102.291667" transform="matrix(0.3,0,0,0.3,0,0)"/><path style="fill:none;stroke-width:2.25;stroke-linecap:round;stroke-linejoin:round;stroke:#002868;stroke-opacity:1;stroke-miterlimit:4" d="M131.731771 97.395833 131.510417 109.375C131.484375 111.653646 132.1875 112.304688 134.166667 112.304688" transform="matrix(0.3,0,0,0.3,0,0)"/><path style="fill:none;stroke-width:3.125003;stroke-linecap:round;stroke-linejoin:round;stroke:#002868;stroke-opacity:1;stroke-miterlimit:4" d="M80.598958 98.958333 88.007812 106.484375 89.348958 114.648438" transform="matrix(0.3,0,0,0.3,0,0)"/><path style="fill:none;stroke-width:3.125003;stroke-linecap:round;stroke-linejoin:round;stroke:#002868;stroke-opacity:1;stroke-miterlimit:4" d="M92.252604 96.380208 88.190104 106.835938" transform="matrix(0.3,0,0,0.3,0,0)"/><path style="fill-rule:evenodd;fill:#ffca00;fill-opacity:1;stroke-width:1;stroke-linecap:butt;stroke-linejoin:miter;stroke:#002868;stroke-opacity:1;stroke-miterlimit:4" d="M38.020833 387.447917C22.395833 378.919271 19.557292 375.351562 10.989583 368.815104L29.986979 368.424479C29.765625 366.692708 25.611979 345.15625 25.221354 343.632812 39.53125 352.929688 46.315104 357.1875 65.833333 362.565104 73.580729 364.661458 65.221354 372.369792 64.414062 374.414062 59.114583 372.083333 55.039062 369.296875 51.119792 365.898438" transform="matrix(0.3,0,0,0.3,0,0)"/><path style="fill-rule:evenodd;fill:#ffca00;fill-opacity:1;stroke-width:1;stroke-linecap:butt;stroke-linejoin:miter;stroke:#002868;stroke-opacity:1;stroke-miterlimit:4" d="M51.380208 366.080729C80.520833 392.174479 176.940104 391.5625 203.789062 365.273438 204.661458 365.572917 222.03125 394.231771 221.158854 393.932292 168.4375 430.052083 73.971354 423.867188 34.322917 395.364583L34.791667 393.658854zm0 0" transform="matrix(0.3,0,0,0.3,0,0)"/><path style="fill:none;stroke-width:1.236091;stroke-linecap:butt;stroke-linejoin:miter;stroke:#000;stroke-opacity:1;stroke-miterlimit:4" d="M50.755208 366.289062v0" transform="matrix(0.3,0,0,0.3,0,0)"/><path style="fill:none;stroke-width:1;stroke-linecap:butt;stroke-linejoin:miter;stroke:#002868;stroke-opacity:1;stroke-miterlimit:4" d="M51.458333 366.067708C52.513021 365.013021 54.583333 365.273438 57.434896 365.807292 59.726562 366.067708 62.330729 366.171875 64.375 366.40625 67.760417 366.132812 69.700521 365.364583 68.307292 363.789062" transform="matrix(0.3,0,0,0.3,0,0)"/><path style="fill-rule:evenodd;fill:#ffca00;fill-opacity:1;stroke-width:1;stroke-linecap:butt;stroke-linejoin:miter;stroke:#002868;stroke-opacity:1;stroke-miterlimit:4" d="M217.278646 386.523438C232.903646 377.994792 235.742188 374.440104 244.309896 367.890625L225.3125 367.5C225.533854 365.768229 229.6875 344.231771 230.078125 342.708333 215.768229 352.005208 208.984375 356.263021 189.466146 361.640625 181.71875 363.75 190.364583 371.588542 191.171875 373.632812 196.471354 371.289062 200.963542 368.515625 204.179688 364.973958" transform="matrix(0.3,0,0,0.3,0,0)"/><path style="fill:none;stroke-width:1.236091;stroke-linecap:butt;stroke-linejoin:miter;stroke:#000;stroke-opacity:1;stroke-miterlimit:4" d="M203.28125 365.364583v0" transform="matrix(0.3,0,0,0.3,0,0)"/><path style="fill:none;stroke-width:1;stroke-linecap:butt;stroke-linejoin:miter;stroke:#002868;stroke-opacity:1;stroke-miterlimit:4" d="M203.619792 365.143229C201.861979 364.348958 200.052083 364.700521 197.851562 364.882812 195.78125 365.182292 193.424479 365.520833 191.080729 365.598958 187.174479 365.572917 185.755208 363.971354 186.992188 362.864583" transform="matrix(0.3,0,0,0.3,0,0)"/><path style="fill:none;stroke-width:3.125;stroke-linecap:round;stroke-linejoin:round;stroke:#002868;stroke-opacity:1;stroke-miterlimit:4" d="M126.71875 400.3125C127.981771 396.002604 130.833333 396.523438 133.385417 397.122396 135.442708 398.528646 135.729167 402.356771 133.776042 404.583333l-3.59375 2.734375C128.671875 408.320312 127.161458 410.195312 127.213542 412.291667L135.911458 412.109375" transform="matrix(0.3,0,0,0.3,0,0)"/><path style="fill:none;stroke-width:3.124998;stroke-linecap:round;stroke-linejoin:round;stroke:#002868;stroke-opacity:1;stroke-miterlimit:4" d="M117.942708 399.726562C119.518229 398.867188 119.895833 398.528646 121.106771 396.783854L120.429688 412.356771" transform="matrix(0.3,0,0,0.3,0,0)"/><path style="fill:none;stroke-width:3.125001;stroke-linecap:round;stroke-linejoin:miter;stroke:#002868;stroke-opacity:1;stroke-miterlimit:4" d="M98.776042 392.877604C98.763021 392.96875 96.119792 409.140625 96.002604 409.804688L104.427083 411.002604" transform="matrix(0.3,0,0,0.3,0,0)"/><path style="fill:none;stroke-width:3.124999;stroke-linecap:round;stroke-linejoin:round;stroke:#002868;stroke-opacity:1;stroke-miterlimit:4" d="M88.880208 408.945312 91.471354 391.302083" transform="matrix(0.3,0,0,0.3,0,0)"/><path style="fill:none;stroke-width:3.124999;stroke-linecap:round;stroke-linejoin:miter;stroke:#002868;stroke-opacity:1;stroke-miterlimit:4" d="M58.789062 399.700521 65.221354 383.372396C67.135417 384.348958 69.622396 384.726562 71.757812 386.627604 73.151042 388.945312 72.513021 393.671875 68.528646 394.127604 66.341146 393.828125 64.505208 392.773438 62.578125 391.901042" transform="matrix(0.3,0,0,0.3,0,0)"/><path style="fill:none;stroke-width:3.084307;stroke-linecap:round;stroke-linejoin:round;stroke:#002868;stroke-opacity:1;stroke-miterlimit:4" d="M163.90625 396.393229C165.182292 395.15625 166.041667 393.90625 166.770833 391.875L170.052083 409.192708" transform="matrix(0.3,0,0,0.3,0,0)"/><path style="fill:none;stroke-width:3.125003;stroke-linecap:round;stroke-linejoin:round;stroke:#002868;stroke-opacity:1;stroke-miterlimit:4" d="M171.328125 391.40625C171.523438 391.354167 179.739583 388.489583 179.739583 388.489583 179.361979 394.765625 179.244792 400.794271 180.026042 406.367188" transform="matrix(0.3,0,0,0.3,0,0)"/><path style="fill:none;stroke-width:3.124997;stroke-linecap:round;stroke-linejoin:round;stroke:#002868;stroke-opacity:1;stroke-miterlimit:4" d="M184.049479 387.005208 192.460938 383.710938C192.096354 390.078125 191.705729 396.848958 192.877604 401.627604" transform="matrix(0.3,0,0,0.3,0,0)"/><path style="fill:none;stroke-width:3.124996;stroke-linecap:round;stroke-linejoin:round;stroke:#002868;stroke-opacity:1;stroke-miterlimit:4" d="M204.036458 380.403646C203.072917 378.815104 201.601562 378.229167 199.544271 378.776042 197.630208 380.455729 197.278646 381.770833 197.135417 383.815104 197.213542 386.354167 197.916667 388.854167 199.0625 391.080729 199.856771 393.164062 201.5625 394.648438 202.838542 394.973958 204.296875 395.520833 205.390625 395.377604 206.549479 394.375 207.434896 393.242188 207.851562 391.367188 207.760417 389.947917 207.486979 388.059896 206.640625 386.354167 204.713542 385.351562 203.229167 384.739583 202.617188 384.609375 201.263021 385.182292 199.231771 386.393229 198.854167 388.619792 199.166667 390.898438" transform="matrix(0.3,0,0,0.3,0,0)"/><path style="fill:none;stroke-width:2.249999;stroke-linecap:round;stroke-linejoin:round;stroke:#002868;stroke-opacity:1;stroke-miterlimit:4" d="M138.007812 401.705729C141.028646 401.5625 143.958333 401.497396 143.958333 401.497396" transform="matrix(0.3,0,0,0.3,0,0)"/><path style="fill:none;stroke-width:2.250001;stroke-linecap:round;stroke-linejoin:round;stroke:#002868;stroke-opacity:1;stroke-miterlimit:4" d="M140.065104 397.083333 140.625 409.0625C140.729167 411.341146 141.484375 411.940104 143.450521 411.809896" transform="matrix(0.3,0,0,0.3,0,0)"/><path style="fill:none;stroke-width:2.250004;stroke-linecap:round;stroke-linejoin:round;stroke:#002868;stroke-opacity:1;stroke-miterlimit:4" d="M145.924479 396.966146 147.591146 411.289062" transform="matrix(0.3,0,0,0.3,0,0)"/><path style="fill:none;stroke-width:2.250004;stroke-linecap:round;stroke-linejoin:round;stroke:#002868;stroke-opacity:1;stroke-miterlimit:4" d="M154.244792 411.015625C153.645833 400.651042 152.252604 400.46875 147.304688 401.197917" transform="matrix(0.3,0,0,0.3,0,0)"/><path style="fill:none;stroke-width:3.125001;stroke-linecap:round;stroke-linejoin:round;stroke:#002868;stroke-opacity:1;stroke-miterlimit:4" d="M43.763021 392.408854C43.763021 392.408854 56.627604 378.880208 56.757812 379.023438 57.330729 378.515625 54.231771 397.578125 54.231771 397.578125" transform="matrix(0.3,0,0,0.3,0,0)"/><path style="fill:none;stroke-width:3.125001;stroke-linecap:round;stroke-linejoin:round;stroke:#002868;stroke-opacity:1;stroke-miterlimit:4" d="M48.463542 387.695312 55.143229 390.898438" transform="matrix(0.3,0,0,0.3,0,0)"/><path style="fill:none;stroke-width:3.124999;stroke-linecap:round;stroke-linejoin:miter;stroke:#002868;stroke-opacity:1;stroke-miterlimit:4" d="M72.799479 405.546875C72.799479 405.442708 77.486979 388.033854 77.486979 388.033854 79.492188 388.528646 81.588542 388.815104 83.515625 389.505208 84.856771 389.934896 86.888021 391.601562 86.106771 394.283854 85.729167 395.911458 84.973958 397.34375 83.828125 398.229167" transform="matrix(0.3,0,0,0.3,0,0)"/><path style="fill:none;stroke-width:3.124999;stroke-linecap:round;stroke-linejoin:round;stroke:#002868;stroke-opacity:1;stroke-miterlimit:4" d="M75.429688 396.549479l6.40625 1.640625C83.554688 398.815104 83.971354 400.325521 83.984375 400.416667 84.296875 401.835938 83.216146 407.942708 83.216146 407.942708" transform="matrix(0.3,0,0,0.3,0,0)"/></g></svg>