<svg xmlns="http://www.w3.org/2000/svg" xmlns:xlink="http://www.w3.org/1999/xlink" width="225pt" height="150pt" viewBox="0 0 225 150"><g id="surface1"><path d="M0 0h225v150H0z" style="fill:#fff;fill-opacity:1;stroke:none"/><path style="stroke:none;fill-rule:nonzero;fill:#009149;fill-opacity:1" d="M45 0H60V150H45zm0 0"/><path style="stroke:none;fill-rule:nonzero;fill:#e2001a;fill-opacity:1" d="M165 0h15V150H165zm0 0"/><path style="fill-rule:nonzero;fill:#fabb00;fill-opacity:1;stroke-width:2.000091;stroke-linecap:butt;stroke-linejoin:miter;stroke:#fabb00;stroke-opacity:1;stroke-miterlimit:4" d="M-258.734147-125.748518V-148.301626C-258.734147-149.030826-258.656018-149.52564-258.525804-149.760025-258.39559-149.968368-258.21329-150.07254-258.03099-150.07254-257.66639-150.098582-257.145533-150.150668-256.442376-150.176711-255.739219-150.202754-254.853762-150.228797-253.786005-150.228797-249.567064-150.25484-246.207536-149.265211-243.733465-147.311998-241.259395-145.358784-239.983295-142.233642-239.931209-137.988657-239.957252-135.696887-240.321852-133.769716-241.025009-132.129016-241.754209-130.51436-242.76988-129.186174-244.098065-128.14446-245.165822-127.285046-246.467965-126.660018-248.056578-126.269375-249.619149-125.904775-251.54632-125.722475-253.864134-125.748518zM-270.818029-101.737011H-251.207763V-102.856853C-254.541248-102.934982-256.650719-103.533968-257.562218-104.601724-258.473718-105.695524-258.864361-107.778952-258.734147-110.852008V-124.133861C-255.426705-124.21199-252.952634-124.055733-251.337977-123.743219-249.723321-123.430705-248.447221-122.571291-247.535721-121.191019-243.577208-114.70635-240.321852-110.04468-237.769653-107.179966-235.217454-104.315253-232.925683-102.544339-230.894341-101.867225-228.889041-101.190111-226.701442-100.90364-224.331542-101.033854L-224.097157-102.075568C-226.206628-102.700596-228.498398-104.341296-230.946426-106.945581-233.420497-109.523823-235.634139-112.102065-237.613396-114.628221-238.915538-116.399135-240.269766-118.326306-241.623995-120.435777-243.004266-122.545248-244.04598-124.238033-244.749137-125.592261-241.650037-126.946489-239.228052-128.717403-237.56131-130.87896-235.868525-133.040516-235.009111-135.827101-234.983068-139.186629-235.165368-144.186856-236.936282-147.572426-240.295809-149.34334-243.629294-151.114254-247.379464-151.947625-251.54632-151.817411H-270.427386V-150.619439C-267.17203-150.489225-265.114645-149.942325-264.229188-148.97874-263.343731-148.015155-262.953088-146.009855-263.05726-142.936799V-110.852008C-262.927045-107.778952-263.343731-105.695524-264.281274-104.601724-265.192773-103.533968-267.380373-102.934982-270.818029-102.856853zm0 0" transform="matrix(0.149993,0,0,0.149993,104.913828,30.002046)"/><path style="fill-rule:nonzero;fill:#fabb00;fill-opacity:1;stroke-width:2.000091;stroke-linecap:butt;stroke-linejoin:miter;stroke:#fabb00;stroke-opacity:1;stroke-miterlimit:4" d="M-220.815758-101.737011h37.423575C-183.027583-103.273539-182.558812-105.38301-181.985869-108.065423-181.386884-110.721794-180.892069-112.88335-180.501427-114.550093H-181.855655C-182.506726-112.727093-183.235926-111.164522-184.069297-109.810294-184.928711-108.456066-185.683954-107.388309-186.335025-106.633067-187.66321-105.20071-189.434124-104.315253-191.595681-104.002739-193.78328-103.664182-196.101094-103.533968-198.575164-103.586053-201.908649-103.429796-204.38272-103.74231-206.049462-104.523596-207.690162-105.304881-208.49749-107.492481-208.49749-111.112437V-126.712104H-199.148107C-196.179222-126.816275-194.095794-126.503761-192.819695-125.774561-191.569638-125.045361-190.658138-123.196319-190.111238-120.227434H-188.75701V-135.097901H-190.111238C-190.606052-132.493616-191.491509-130.800831-192.715523-130.019545-193.939537-129.212217-196.075051-128.87366-199.148107-128.951789H-208.49749V-147.650555C-208.549576-148.666226-208.445404-149.291254-208.184976-149.551683-207.95059-149.838154-207.299519-149.942325-206.257805-149.89024H-198.757464C-194.069751-149.968368-190.944609-149.239168-189.30391-147.676597-187.689253-146.140069-186.543368-143.353484-185.866254-139.342886L-184.512026-139.577271C-184.668283-141.973213-184.82454-144.264984-184.980797-146.426541-185.137054-148.588097-185.215182-150.385054-185.215182-151.817411H-220.034472V-150.697568C-216.805159-150.645482-214.773817-150.020454-213.88836-148.874569-213.028946-147.728683-212.638303-145.488998-212.742474-142.129471V-110.77388C-212.61226-107.778952-213.028946-105.74761-213.966488-104.65381-214.904031-103.586053-217.195802-102.987068-220.815758-102.856853zm0 0" transform="matrix(0.149993,0,0,0.149993,104.913828,30.002046)"/><path style="fill-rule:nonzero;fill:#fabb00;fill-opacity:1;stroke-width:2.000091;stroke-linecap:butt;stroke-linejoin:miter;stroke:#fabb00;stroke-opacity:1;stroke-miterlimit:4" d="M-122.139401-124.21199H-140.86421V-123.092148C-136.489011-122.831719-133.754512-122.232733-132.686755-121.243105-131.618998-120.27952-131.17627-118.612777-131.35857-116.216835V-109.263394C-131.332527-107.544566-131.592955-106.29451-132.139855-105.513224-132.660712-104.757981-133.520126-104.185039-134.718097-103.820439-135.916068-103.429796-137.400511-103.117282-139.145382-102.882896-140.890253-102.648511-142.817423-102.544339-144.952937-102.544339-150.812578-102.648511-155.500291-103.950653-159.042119-106.502852-162.583946-109.055052-165.136145-112.206236-166.724759-115.98245-168.28733-119.784706-169.068616-123.586962-169.01653-127.415261-169.01653-134.889558-167.011231-140.671071-163.07876-144.811884-159.120247-148.952697-153.286649-151.036125-145.577965-151.114254-141.437152-151.218425-137.869282-150.43714-134.92644-148.770397-131.983598-147.077612-129.822042-143.77017-128.467813-138.874114L-127.191714-139.030371C-127.556314-141.530485-127.842785-143.848299-128.051128-145.931727-128.259471-148.015155-128.44177-149.655854-128.545942-150.853825-129.952256-151.296554-132.061727-151.765325-134.822269-152.234096-137.582811-152.72891-140.68191-152.989339-144.145609-153.015382-149.484393-153.015382-154.458577-151.99971-159.068162-149.994411-163.677746-147.963069-167.427916-144.968141-170.29263-141.009628-173.157343-137.051115-174.615743-132.155059-174.693871-126.295418-174.563657-118.586735-171.777072-112.388536-166.360159-107.726866-160.96929-103.065196-153.807506-100.669254-144.952937-100.53904-141.619452-100.591126-138.364096-100.981768-135.160826-101.710968-131.957555-102.414125-129.014713-103.117282-126.384385-103.820439-126.6969-104.627767-126.905242-105.617395-126.983371-106.763281-127.087542-107.935209-127.113585-109.211309-127.113585-110.617623V-117.831492C-127.191714-119.55032-126.957328-120.774334-126.384385-121.503534-125.837486-122.258776-124.431172-122.779633-122.139401-123.092148zm0 0" transform="matrix(0.149993,0,0,0.149993,104.913828,30.002046)"/><path style="fill-rule:nonzero;fill:#fabb00;fill-opacity:1;stroke-width:2.000091;stroke-linecap:butt;stroke-linejoin:miter;stroke:#fabb00;stroke-opacity:1;stroke-miterlimit:4" d="M-117.061045-101.737011H-97.711208V-102.856853C-101.044693-102.934982-103.154164-103.533968-104.091706-104.601724-105.003206-105.695524-105.419892-107.778952-105.31572-110.852008V-142.702413C-105.419892-145.749427-105.003206-147.806812-104.091706-148.900611-103.154164-149.968368-101.044693-150.593397-97.711208-150.697568V-151.817411H-117.061045V-150.697568C-113.701518-150.593397-111.566004-149.968368-110.654504-148.900611-109.743005-147.806812-109.352362-145.749427-109.456533-142.702413V-110.852008C-109.352362-107.778952-109.743005-105.695524-110.654504-104.601724-111.566004-103.533968-113.701518-102.934982-117.061045-102.856853zm0 0" transform="matrix(0.149993,0,0,0.149993,104.913828,30.002046)"/><path style="fill-rule:nonzero;fill:#fabb00;fill-opacity:1;stroke-width:2.000091;stroke-linecap:butt;stroke-linejoin:miter;stroke:#fabb00;stroke-opacity:1;stroke-miterlimit:4" d="M-62.709618-153.015382C-68.673431-152.937253-73.777829-151.609068-77.970728-149.030826-82.163627-146.478626-85.366897-143.145142-87.606582-139.082457-89.820225-135.019773-90.940067-130.69666-90.96611-126.139161-90.757767-118.612777-88.179525-112.492708-83.205341-107.804995-78.231157-103.091239-71.980873-100.695297-64.480532-100.53904-56.667677-100.669254-50.104879-103.169368-44.818181-108.065423-39.531482-112.935436-36.77094-119.420106-36.562597-127.493389-36.823026-135.35833-39.505439-141.556528-44.635881-146.087984-49.740279-150.619439-55.78222-152.937253-62.709618-153.015382zM-65.027432-151.114254C-58.438591-151.114254-52.995635-148.900611-48.698565-144.421241-44.375452-139.967914-42.16181-133.222816-42.005553-124.133861-42.187853-116.998121-44.245238-111.607251-48.229794-107.961252-52.188307-104.315253-56.980191-102.466211-62.553361-102.466211-69.168245-102.570382-74.585158-104.966324-78.804099-109.601951-83.049084-114.263622-85.21064-120.565991-85.366897-128.456975-85.184597-136.165658-83.127212-141.842999-79.194742-145.541084-75.262272-149.239168-70.548516-151.088211-65.027432-151.114254zm0 0" transform="matrix(0.149993,0,0,0.149993,104.913828,30.002046)"/><path style="fill-rule:nonzero;fill:#fabb00;fill-opacity:1;stroke-width:2.000091;stroke-linecap:butt;stroke-linejoin:miter;stroke:#fabb00;stroke-opacity:1;stroke-miterlimit:4" d="M-30.442528-101.737011h19.92278V-102.856853C-13.176118-103.065196-15.155375-103.533968-16.509603-104.237124-17.837789-104.966324-18.67116-105.92991-19.009717-107.179966-19.270145-108.273766-19.452445-109.992594-19.530574-112.362494-19.634745-114.70635-19.686831-117.883578-19.712874-121.894176V-143.171185H-19.556617L17.320058-101.190111H18.205515V-132.389445C18.179472-136.113572 18.231558-139.082457 18.335729-141.322142 18.439901-143.535784 18.648244-145.254612 19.012844-146.452584 19.325358-147.624512 20.0806-148.588097 21.200443-149.291254 22.346328-150.020454 24.065156-150.489225 26.356927-150.697568V-151.817411H6.512276V-150.697568C11.017689-150.645482 13.752188-149.447511 14.741816-147.15574 15.757487-144.86397 16.14813-139.941871 15.96583-132.389445v22.813536H15.731445l-36.980847-42.241502h-9.818154V-150.697568C-29.010171-150.463182-27.421557-150.124625-26.3538-149.629811-25.286043-149.16104-24.426629-148.536012-23.801601-147.754726-23.098444-147.051569-22.60363-146.322369-22.343201-145.515041-22.082773-144.707713-21.952559-142.624285-21.952559-139.264757v17.370581C-21.952559-117.90962-22.030687-114.70635-22.160902-112.336451-22.291116-109.966551-22.525501-108.195638-22.838016-107.023709-23.15053-105.877824-23.905772-104.966324-25.103744-104.211082-26.327757-103.481882-28.098671-103.039153-30.442528-102.856853zm0 0" transform="matrix(0.149993,0,0,0.149993,104.913828,30.002046)"/><path style="fill-rule:nonzero;fill:#fabb00;fill-opacity:1;stroke-width:2.000091;stroke-linecap:butt;stroke-linejoin:miter;stroke:#fabb00;stroke-opacity:1;stroke-miterlimit:4" d="M30.263355-101.737011H67.712972C68.051529-103.273539 68.520301-105.38301 69.119286-108.065423 69.692229-110.721794 70.187043-112.88335 70.577686-114.550093H69.223457C68.598429-112.727093 67.869229-111.164522 67.009815-109.810294 66.176444-108.456066 65.421201-107.388309 64.744087-106.633067 63.415902-105.20071 61.671031-104.315253 59.509475-104.002739 57.321875-103.664182 55.004062-103.533968 52.503948-103.586053 49.196506-103.429796 46.696393-103.74231 45.055693-104.523596 43.414994-105.304881 42.581622-107.492481 42.581622-111.112437V-126.712104H51.957048C54.89989-126.816275 57.009361-126.503761 58.259418-125.774561 59.535517-125.045361 60.420974-123.196319 60.993917-120.227434H62.348145V-135.097901H60.993917C60.47306-132.493616 59.613646-130.800831 58.389632-130.019545 57.165618-129.212217 55.004062-128.87366 51.957048-128.951789H42.581622V-147.650555C42.55558-148.666226 42.659751-149.291254 42.894137-149.551683 43.154565-149.838154 43.779593-149.942325 44.821307-149.89024h7.526384C57.009361-149.968368 60.160546-149.239168 61.775202-147.676597 63.415902-146.140069 64.561787-143.353484 65.238901-139.342886L66.59313-139.577271C66.41083-141.973213 66.254573-144.264984 66.098316-146.426541 65.968101-148.588097 65.86393-150.385054 65.86393-151.817411H31.070683V-150.697568C34.273953-150.645482 36.331339-150.020454 37.190753-148.874569 38.076209-147.728683 38.466852-145.488998 38.336638-142.129471V-110.77388C38.492895-107.778952 38.076209-105.74761 37.138667-104.65381 36.175081-103.586053 33.883311-102.987068 30.263355-102.856853zm0 0" transform="matrix(0.149993,0,0,0.149993,104.913828,30.002046)"/><path style="fill-rule:nonzero;fill:#fabb00;fill-opacity:1;stroke-width:2.000091;stroke-linecap:butt;stroke-linejoin:miter;stroke:#fabb00;stroke-opacity:1;stroke-miterlimit:4" d="M104.225047-148.06724C104.225047-148.874569 104.303176-149.421468 104.407347-149.655854 104.537561-149.916283 104.745904-150.046497 105.032376-150.07254 105.370933-150.150668 105.89179-150.176711 106.516818-150.202754 107.167889-150.228797 108.027303-150.228797 109.121103-150.228797 114.043202-150.228797 117.741286-149.213126 120.2414-147.129698 122.741513-145.04627 123.99157-141.842999 123.99157-137.493843 123.887399-132.910302 122.637342-129.576817 120.189314-127.545475 117.741286-125.514133 114.694273-124.498461 111.022231-124.550547 109.147146-124.57659 107.662703-124.706804 106.542861-124.993276 105.449061-125.279747 104.667776-125.514133 104.225047-125.748518zM92.401594-101.737011H112.949402V-102.856853C109.016932-103.013111 106.542861-103.586053 105.52719-104.627767 104.511519-105.643438 104.094833-107.674781 104.225047-110.695751V-123.977604L110.631588-122.232733C113.235873-121.946262 115.94433-122.310862 118.809043-123.326533 121.647714-124.342204 124.095741-126.061032 126.101041-128.456975 128.132383-130.87896 129.174097-134.004101 129.278268-137.910529 129.148054-142.259685 128.002169-145.436912 125.866655-147.416169 123.731142-149.395426 121.309157-150.645482 118.6007-151.166339 115.892244-151.687196 113.626516-151.895539 111.829559-151.817411H92.870365V-150.619439C96.255935-150.541311 98.287278-149.994411 99.04252-148.952697 99.77172-147.88494 100.058191-145.801512 99.901934-142.702413V-110.852008C100.032148-107.778952 99.641506-105.695524 98.730006-104.601724 97.818506-103.533968 95.709035-102.934982 92.401594-102.856853zm0 0" transform="matrix(0.149993,0,0,0.149993,104.913828,30.002046)"/><path style="fill-rule:nonzero;fill:#fabb00;fill-opacity:1;stroke-width:2.000091;stroke-linecap:butt;stroke-linejoin:miter;stroke:#fabb00;stroke-opacity:1;stroke-miterlimit:4" d="M183.186967-131.816502C183.186967-136.113572 183.265096-139.316843 183.421353-141.426314 183.603653-143.535784 183.785953-145.176484 183.994295-146.296326 184.202638-147.546383 184.931838-148.536012 186.207938-149.239168 187.484037-149.968368 189.202865-150.463182 191.416507-150.697568V-151.817411H171.754156V-150.697568C174.514698-150.43714 176.598126-149.942325 177.952354-149.213126 179.306582-148.483926 180.139954-147.494298 180.374339-146.218198 180.660811-145.124398 180.843111-143.509742 180.921239-141.400271 180.999368-139.264757 181.025411-136.087529 181.025411-131.816502V-127.571518C181.051453-120.513905 179.801397-114.88865 177.249197-110.669708 174.696998-106.47681 170.373885-104.315253 164.305901-104.211082 158.862946-104.185039 154.617961-105.825738 151.623033-109.107137 148.602063-112.414579 147.065535-117.571063 147.013449-124.628676V-142.389899C146.909278-145.515041 147.273878-147.676597 148.159334-148.874569 149.018748-150.07254 151.102176-150.697568 154.383575-150.697568V-151.817411H135.111867V-150.697568C138.549523-150.515268 140.737122-149.89024 141.648622-148.874569 142.586165-147.858897 142.976807-145.697341 142.872636-142.389899V-122.154605C142.872636-117.675235 143.393493-114.081322 144.46125-111.32078 145.529007-108.58628 147.091578-106.398681 149.175006-104.784024 151.050091-103.325625 153.081433-102.283911 155.321118-101.684925 157.53476-101.059897 159.852574-100.773425 162.222473-100.773425 165.061144-100.799468 167.7696-101.294282 170.321799-102.257868 172.873999-103.247496 175.061598-104.601724 176.858555-106.372638 179.306582-108.898795 180.973325-111.893722 181.884825-115.357421 182.796324-118.82112 183.239053-123.040062 183.186967-127.988203zm0 0" transform="matrix(0.149993,0,0,0.149993,104.913828,30.002046)"/><path style="fill-rule:nonzero;fill:#fabb00;fill-opacity:1;stroke-width:2.000091;stroke-linecap:butt;stroke-linejoin:miter;stroke:#fabb00;stroke-opacity:1;stroke-miterlimit:4" d="M249.413933-124.21199H230.689125V-123.092148C235.090366-122.831719 237.798822-122.232733 238.866579-121.243105 239.934336-120.27952 240.377065-118.612777 240.220807-116.216835V-109.263394C240.220807-107.544566 239.960379-106.29451 239.439522-105.513224 238.892622-104.757981 238.033208-104.185039 236.86128-103.820439 235.637266-103.429796 234.178866-103.117282 232.433995-102.882896 230.689125-102.648511 228.735911-102.544339 226.62644-102.544339 220.740756-102.648511 216.053043-103.950653 212.511216-106.502852 208.969388-109.055052 206.417189-112.206236 204.854618-115.98245 203.266004-119.784706 202.510761-123.586962 202.536804-127.415261 202.562847-134.889558 204.542104-140.671071 208.500617-144.811884 212.45913-148.952697 218.266685-151.036125 225.975369-151.114254 230.116182-151.218425 233.684052-150.43714 236.626894-148.770397 239.595779-147.077612 241.731293-143.77017 243.085521-138.874114L244.387663-139.030371C244.023064-141.530485 243.736592-143.848299 243.528249-145.931727 243.293864-148.015155 243.137607-149.655854 243.007392-150.853825 241.601079-151.296554 239.517651-151.765325 236.757109-152.234096 233.970524-152.72891 230.871425-152.989339 227.407726-153.015382 222.068941-153.015382 217.094757-151.99971 212.485173-149.994411 207.875588-147.963069 204.151461-144.968141 201.286747-141.009628 198.422034-137.051115 196.937592-132.155059 196.859463-126.295418 197.01572-118.586735 199.776262-112.388536 205.193175-107.726866 210.610088-103.065196 217.745828-100.669254 226.62644-100.53904 229.933882-100.591126 233.189238-100.981768 236.418551-101.710968 239.621822-102.414125 242.538621-103.117282 245.168949-103.820439 244.856435-104.627767 244.674135-105.617395 244.569963-106.763281 244.491835-107.935209 244.439749-109.211309 244.465792-110.617623V-117.831492C244.361621-119.55032 244.596006-120.774334 245.168949-121.503534 245.715849-122.258776 247.148205-122.779633 249.413933-123.092148zm0 0" transform="matrix(0.149993,0,0,0.149993,104.913828,30.002046)"/><path style="fill-rule:nonzero;fill:#fabb00;fill-opacity:1;stroke-width:2.000091;stroke-linecap:butt;stroke-linejoin:miter;stroke:#fabb00;stroke-opacity:1;stroke-miterlimit:4" d="M290.978321-114.211536C290.301207-112.440622 289.59805-110.904094 288.816765-109.601951 288.035479-108.299809 287.358365-107.284138 286.811465-106.554938 285.873923-105.591353 284.493652-104.862153 282.696695-104.393382 280.873696-103.898567 278.764225-103.664182 276.34224-103.664182 272.357684-103.507925 269.649227-103.898567 268.242914-104.83611 266.8366-105.799695 266.159486-108.299809 266.263657-112.388536V-142.702413C266.133443-145.749427 266.550128-147.806812 267.539757-148.900611 268.503342-149.968368 270.743027-150.593397 274.258812-150.697568V-151.817411H254.41416V-150.697568C257.851817-150.593397 260.013373-149.968368 260.924873-148.900611 261.836373-147.806812 262.227015-145.749427 262.096801-142.702413V-111.268694C262.227015-107.987295 261.836373-105.799695 260.976959-104.65381 260.091502-103.533968 258.008074-102.934982 254.726675-102.856853V-101.737011H289.545965C289.858479-103.638139 290.353293-105.825738 290.978321-108.299809 291.60335-110.799923 292.098164-112.779179 292.410678-114.211536zm0 0" transform="matrix(0.149993,0,0,0.149993,104.913828,30.002046)"/><path style="fill-rule:nonzero;fill:#fabb00;fill-opacity:1;stroke-width:2.000091;stroke-linecap:butt;stroke-linejoin:miter;stroke:#fabb00;stroke-opacity:1;stroke-miterlimit:4" d="M296.525448-101.737011H315.901328V-102.856853C312.567843-102.934982 310.43233-103.533968 309.52083-104.601724 308.583288-105.695524 308.166602-107.778952 308.296816-110.852008V-142.702413C308.166602-145.749427 308.583288-147.806812 309.52083-148.900611 310.43233-149.968368 312.567843-150.593397 315.901328-150.697568V-151.817411H296.525448V-150.697568C299.884976-150.593397 302.020489-149.968368 302.931989-148.900611 303.843489-147.806812 304.234132-145.749427 304.12996-142.702413V-110.852008C304.234132-107.778952 303.843489-105.695524 302.931989-104.601724 302.020489-103.533968 299.884976-102.934982 296.525448-102.856853zm0 0" transform="matrix(0.149993,0,0,0.149993,104.913828,30.002046)"/><path style="fill-rule:nonzero;fill:#fabb00;fill-opacity:1;stroke-width:2.000091;stroke-linecap:butt;stroke-linejoin:miter;stroke:#fabb00;stroke-opacity:1;stroke-miterlimit:4" d="M354.158274-101.737011H372.466397V-102.856853C369.810027-103.19541 367.987027-103.846482 366.945313-104.810067 365.929642-105.773653 364.887928-107.674781 363.846214-110.539494 362.309686-114.419879 360.668987-118.742992 358.924116-123.508833 357.179245-128.274675 355.356245-133.17073 353.507203-138.223043L348.168419-153.015382 347.204833-152.624739 329.834253-111.893722C328.480025-108.456066 327.229968-106.190338 326.031997-105.096538 324.834026-104.028782 322.906855-103.273539 320.224441-102.856853V-101.737011H338.40235V-102.856853C336.162665-103.169368 334.495923-103.586053 333.402123-104.080867 332.308323-104.575681 331.761424-105.487181 331.761424-106.789324 331.813509-107.726866 332.152066-109.263394 332.82918-111.372865 333.480252-113.508379 334.209451-115.591807 334.964694-117.623149 335.719937-119.654491 336.240794-120.956634 336.553308-121.581662H355.043731C356.554216-117.831492 357.830316-114.576136 358.819944-111.763508 359.835615-108.95088 360.356472-106.997667 360.408558-105.903867 360.434601-104.966324 359.939787-104.315253 358.976201-103.898567 358.012616-103.507925 356.424002-103.143325 354.158274-102.856853zM346.553762-145.59317 354.314531-124.133861H337.516893C338.819036-127.519432 340.199307-131.061259 341.709792-134.707258 343.220277-138.3793 344.782848-141.999256 346.397505-145.59317zm0 0" transform="matrix(0.149993,0,0,0.149993,104.913828,30.002046)"/><path style="fill-rule:nonzero;fill:#008ac9;fill-opacity:1;stroke-width:2.976378;stroke-linecap:butt;stroke-linejoin:miter;stroke:#000;stroke-opacity:1;stroke-miterlimit:4" d="M578.526396 942.52238C578.526396 972.427718 554.273394 996.704321 524.323958 996.704321H341.433884C311.527603 996.704321 287.274601 1020.937956 287.274601 1050.843294 287.274601 1020.937956 263.021599 996.704321 233.115318 996.704321H55.66275C25.756468 996.704321 1.503467 972.427718 1.503467 942.52238V292.382063H578.526396zm0 0" transform="matrix(0.0905171,0,0,0.0909119,86.309223,24.329158)"/><path style="fill-rule:nonzero;fill:#e2001a;fill-opacity:1;stroke-width:2.231123;stroke-linecap:butt;stroke-linejoin:miter;stroke:#000;stroke-opacity:1;stroke-miterlimit:4" d="M1519.212295 1026.908255 1343.052055 1059.32494 1195.565085 957.666514 1163.186327 781.536826 1264.815447 634.058013 1440.975687 601.641329 1588.462657 703.299755 1620.847221 879.461123zm0 0" transform="matrix(0.118774,0.0218632,-0.0217682,0.119292,-34.698262,-40.822133)"/><path style="fill-rule:nonzero;fill:#fff;fill-opacity:1;stroke-width:2.899455;stroke-linecap:butt;stroke-linejoin:miter;stroke:#000;stroke-opacity:1;stroke-miterlimit:4" d="M1519.224109 1026.938127 1343.043628 1059.312648 1195.601984 957.693782 1163.182598 781.503694 1264.849077 634.059413 1440.980661 601.651299 1588.471202 703.303758 1620.841691 879.460253zm0 0" transform="matrix(0.0913963,0.0168237,-0.0167506,0.0917948,-0.755037,-10.971043)"/><path style="fill-rule:nonzero;fill:#009149;fill-opacity:1;stroke-width:2.976378;stroke-linecap:butt;stroke-linejoin:miter;stroke:#000;stroke-opacity:1;stroke-miterlimit:4" d="M303.889202 666.327683C303.889202 666.327683 290.813295 660.226307 300.91152 641.449536 306.780574 655.328019 303.889202 666.327683 303.889202 666.327683zm0 0" transform="matrix(0.0905171,0,0,0.0909119,86.309223,24.329158)"/><path style="fill-rule:nonzero;fill:#009149;fill-opacity:1;stroke-width:2.976378;stroke-linecap:butt;stroke-linejoin:miter;stroke:#000;stroke-opacity:1;stroke-miterlimit:4" d="M312.002306 655.972531C312.002306 655.972531 301.774616 644.457257 313.642188 636.336411 316.61987 644.843964 312.002306 655.972531 312.002306 655.972531zm0 0" transform="matrix(0.0905171,0,0,0.0909119,86.309223,24.329158)"/><path style="fill-rule:nonzero;fill:#009149;fill-opacity:1;stroke-width:2.976378;stroke-linecap:butt;stroke-linejoin:miter;stroke:#000;stroke-opacity:1;stroke-miterlimit:4" d="M325.59607 656.574075C325.59607 656.574075 315.368381 656.445172 306.262716 665.855042 306.262716 665.855042 312.390699 675.60865 325.59607 656.574075zm0 0" transform="matrix(0.0905171,0,0,0.0909119,86.309223,24.329158)"/><path style="fill-rule:nonzero;fill:#009149;fill-opacity:1;stroke-width:2.976378;stroke-linecap:butt;stroke-linejoin:miter;stroke:#000;stroke-opacity:1;stroke-miterlimit:4" d="M327.581191 640.461285C327.581191 640.461285 320.244874 639.601936 319.727016 637.109825 319.727016 637.109825 323.610949 630.235035 328.357978 631.738895 328.357978 631.738895 329.609467 635.477062 327.710656 640.976894" transform="matrix(0.0905171,0,0,0.0909119,86.309223,24.329158)"/><path style="fill-rule:nonzero;fill:#009149;fill-opacity:1;stroke-width:2.976378;stroke-linecap:butt;stroke-linejoin:miter;stroke:#000;stroke-opacity:1;stroke-miterlimit:4" d="M330.08417 674.792269C330.08417 674.792269 324.085652 665.898009 330.602028 656.531107 334.313341 670.796297 330.08417 674.792269 330.08417 674.792269zm0 0" transform="matrix(0.0905171,0,0,0.0909119,86.309223,24.329158)"/><path style="fill-rule:nonzero;fill:#009149;fill-opacity:1;stroke-width:2.976378;stroke-linecap:butt;stroke-linejoin:miter;stroke:#000;stroke-opacity:1;stroke-miterlimit:4" d="M343.764244 661.171591C343.764244 661.171591 333.752329 650.300829 344.972578 640.031611 347.863951 655.285052 343.764244 661.171591 343.764244 661.171591zm0 0" transform="matrix(0.0905171,0,0,0.0909119,86.309223,24.329158)"/><path style="fill-rule:nonzero;fill:#009149;fill-opacity:1;stroke-width:2.976378;stroke-linecap:butt;stroke-linejoin:miter;stroke:#000;stroke-opacity:1;stroke-miterlimit:4" d="M333.838638 675.694585C333.838638 675.694585 343.289541 666.843293 355.416042 675.479748 342.081206 681.838929 333.838638 675.694585 333.838638 675.694585zm0 0" transform="matrix(0.0905171,0,0,0.0909119,86.309223,24.329158)"/><path style="fill-rule:nonzero;fill:#009149;fill-opacity:1;stroke-width:2.976378;stroke-linecap:butt;stroke-linejoin:miter;stroke:#000;stroke-opacity:1;stroke-miterlimit:4" d="M349.288059 658.722447C349.288059 658.722447 349.417524 650.343796 356.667531 645.57441 359.041046 654.855377 349.288059 658.722447 349.288059 658.722447zm0 0" transform="matrix(0.0905171,0,0,0.0909119,86.309223,24.329158)"/><path style="fill-rule:nonzero;fill:#009149;fill-opacity:1;stroke-width:2.976378;stroke-linecap:butt;stroke-linejoin:miter;stroke:#000;stroke-opacity:1;stroke-miterlimit:4" d="M351.057406 659.581796C351.057406 659.581796 353.301456 668.218251 368.880342 668.819795 358.134795 658.851349 351.057406 659.581796 351.057406 659.581796zm0 0" transform="matrix(0.0905171,0,0,0.0909119,86.309223,24.329158)"/><path style="fill-rule:nonzero;fill:#009149;fill-opacity:1;stroke-width:2.976378;stroke-linecap:butt;stroke-linejoin:miter;stroke:#000;stroke-opacity:1;stroke-miterlimit:4" d="M365.255338 652.707005C365.255338 652.707005 364.392242 638.828523 377.597613 633.973202 374.361002 648.453229 365.255338 652.707005 365.255338 652.707005zm0 0" transform="matrix(0.0905171,0,0,0.0909119,86.309223,24.329158)"/><path style="fill-rule:nonzero;fill:#009149;fill-opacity:1;stroke-width:2.976378;stroke-linecap:butt;stroke-linejoin:miter;stroke:#000;stroke-opacity:1;stroke-miterlimit:4" d="M383.596131 643.511973C383.596131 643.511973 383.207738 634.402876 395.808942 629.891295 395.07531 643.640876 383.596131 643.511973 383.596131 643.511973zm0 0" transform="matrix(0.0905171,0,0,0.0909119,86.309223,24.329158)"/><path style="fill-rule:nonzero;fill:#009149;fill-opacity:1;stroke-width:2.976378;stroke-linecap:butt;stroke-linejoin:miter;stroke:#000;stroke-opacity:1;stroke-miterlimit:4" d="M346.655616 692.322984C346.655616 692.322984 332.846078 691.850342 327.969584 683.729496 327.969584 683.729496 337.679416 676.725804 346.655616 692.322984zm0 0" transform="matrix(0.0905171,0,0,0.0909119,86.309223,24.329158)"/><path style="fill-rule:nonzero;fill:#009149;fill-opacity:1;stroke-width:2.976378;stroke-linecap:butt;stroke-linejoin:miter;stroke:#000;stroke-opacity:1;stroke-miterlimit:4" d="M363.874384 685.405226C363.874384 685.405226 349.546988 692.151114 348.295499 680.635841 348.295499 680.635841 352.395205 678.659338 363.874384 685.405226zm0 0" transform="matrix(0.0905171,0,0,0.0909119,86.309223,24.329158)"/><path style="fill-rule:nonzero;fill:#009149;fill-opacity:1;stroke-width:2.976378;stroke-linecap:butt;stroke-linejoin:miter;stroke:#000;stroke-opacity:1;stroke-miterlimit:4" d="M362.881824 674.964139C362.881824 674.964139 372.246417 683.815431 381.093152 676.339097 371.512785 668.476055 362.881824 674.964139 362.881824 674.964139zm0 0" transform="matrix(0.0905171,0,0,0.0909119,86.309223,24.329158)"/><path style="fill-rule:nonzero;fill:#009149;fill-opacity:1;stroke-width:2.976378;stroke-linecap:butt;stroke-linejoin:miter;stroke:#000;stroke-opacity:1;stroke-miterlimit:4" d="M232.079602 689.573068C232.079602 689.573068 238.552823 697.693914 248.694203 688.241077 240.840028 685.233357 232.079602 689.573068 232.079602 689.573068zm0 0" transform="matrix(0.0905171,0,0,0.0909119,86.309223,24.329158)"/><path style="fill-rule:nonzero;fill:#009149;fill-opacity:1;stroke-width:2.976378;stroke-linecap:butt;stroke-linejoin:miter;stroke:#000;stroke-opacity:1;stroke-miterlimit:4" d="M163.808697 630.192067C163.808697 630.192067 165.146496 639.000392 182.322109 646.261889 173.432219 628.344467 163.808697 630.192067 163.808697 630.192067zm0 0" transform="matrix(0.0905171,0,0,0.0909119,86.309223,24.329158)"/><path style="fill-rule:nonzero;fill:#009149;fill-opacity:1;stroke-width:2.976378;stroke-linecap:butt;stroke-linejoin:miter;stroke:#000;stroke-opacity:1;stroke-miterlimit:4" d="M184.005147 649.09774C184.005147 649.09774 180.164369 664.737888 168.85781 651.718754 168.85781 651.718754 179.085499 653.394484 184.005147 649.09774zm0 0" transform="matrix(0.0905171,0,0,0.0909119,86.309223,24.329158)"/><path style="fill-rule:nonzero;fill:#009149;fill-opacity:1;stroke-width:2.976378;stroke-linecap:butt;stroke-linejoin:miter;stroke:#000;stroke-opacity:1;stroke-miterlimit:4" d="M189.744736 647.980587C189.744736 647.980587 182.278955 641.234699 182.710503 638.226978 182.710503 638.226978 187.932234 628.000728 189.744736 647.980587zm0 0" transform="matrix(0.0905171,0,0,0.0909119,86.309223,24.329158)"/><path style="fill-rule:nonzero;fill:#009149;fill-opacity:1;stroke-width:2.976378;stroke-linecap:butt;stroke-linejoin:miter;stroke:#000;stroke-opacity:1;stroke-miterlimit:4" d="M174.942637 684.717747C174.942637 684.717747 178.999189 673.245441 186.249197 678.788241 182.365264 687.123924 174.942637 684.717747 174.942637 684.717747zm0 0" transform="matrix(0.0905171,0,0,0.0909119,86.309223,24.329158)"/><path style="fill-rule:nonzero;fill:#009149;fill-opacity:1;stroke-width:2.976378;stroke-linecap:butt;stroke-linejoin:miter;stroke:#000;stroke-opacity:1;stroke-miterlimit:4" d="M217.018575 686.393477C217.018575 686.393477 218.183754 674.921171 231.389125 675.78052 225.045369 686.651282 217.018575 686.393477 217.018575 686.393477zm0 0" transform="matrix(0.0905171,0,0,0.0909119,86.309223,24.329158)"/><path style="fill-rule:nonzero;fill:#009149;fill-opacity:1;stroke-width:2.976378;stroke-linecap:butt;stroke-linejoin:miter;stroke:#000;stroke-opacity:1;stroke-miterlimit:4" d="M205.625705 652.449201C205.625705 652.449201 190.478368 642.910429 192.592954 632.684179 192.592954 632.684179 205.280467 634.961453 205.625705 652.449201zm0 0" transform="matrix(0.0905171,0,0,0.0909119,86.309223,24.329158)"/><path style="fill-rule:nonzero;fill:#009149;fill-opacity:1;stroke-width:2.976378;stroke-linecap:butt;stroke-linejoin:miter;stroke:#000;stroke-opacity:1;stroke-miterlimit:4" d="M229.965017 668.304186C229.965017 668.304186 221.420365 664.050409 221.679294 647.336075 221.679294 647.336075 230.137636 646.004085 229.965017 668.304186zm0 0" transform="matrix(0.0905171,0,0,0.0909119,86.309223,24.329158)"/><path style="fill-rule:nonzero;fill:#009149;fill-opacity:1;stroke-width:2.976378;stroke-linecap:butt;stroke-linejoin:miter;stroke:#000;stroke-opacity:1;stroke-miterlimit:4" d="M335.219592 631.910765C335.219592 631.910765 343.721089 619.922849 359.515749 621.684514 351.4458 633.715397 335.219592 631.910765 335.219592 631.910765zm0 0" transform="matrix(0.0905171,0,0,0.0909119,86.309223,24.329158)"/><path style="fill-rule:nonzero;fill:#009149;fill-opacity:1;stroke-width:2.976378;stroke-linecap:butt;stroke-linejoin:miter;stroke:#000;stroke-opacity:1;stroke-miterlimit:4" d="M347.907105 612.403548C347.907105 612.403548 359.299975 606.001399 367.715162 612.919157 356.063364 620.309556 347.907105 612.403548 347.907105 612.403548zm0 0" transform="matrix(0.0905171,0,0,0.0909119,86.309223,24.329158)"/><path style="fill-rule:nonzero;fill:#009149;fill-opacity:1;stroke-width:2.976378;stroke-linecap:butt;stroke-linejoin:miter;stroke:#000;stroke-opacity:1;stroke-miterlimit:4" d="M340.05293 612.274645C340.05293 612.274645 330.860956 605.958432 327.796965 590.790926 327.796965 590.790926 341.002336 593.0682 340.05293 612.274645zm0 0" transform="matrix(0.0905171,0,0,0.0909119,86.309223,24.329158)"/><path style="fill-rule:nonzero;fill:#009149;fill-opacity:1;stroke-width:2.976378;stroke-linecap:butt;stroke-linejoin:miter;stroke:#000;stroke-opacity:1;stroke-miterlimit:4" d="M338.801441 581.338089C338.801441 581.338089 327.969584 588.685521 323.783568 576.010127 323.783568 576.010127 328.444287 569.522044 338.801441 581.338089zm0 0" transform="matrix(0.0905171,0,0,0.0909119,86.309223,24.329158)"/><path style="fill-rule:nonzero;fill:#009149;fill-opacity:1;stroke-width:2.976378;stroke-linecap:butt;stroke-linejoin:miter;stroke:#000;stroke-opacity:1;stroke-miterlimit:4" d="M338.671977 576.096062C338.671977 576.096062 331.810362 573.475048 334.140722 562.303514 334.140722 562.303514 340.441324 563.291765 338.671977 576.096062zm0 0" transform="matrix(0.0905171,0,0,0.0909119,86.309223,24.329158)"/><path style="fill-rule:nonzero;fill:#009149;fill-opacity:1;stroke-width:2.976378;stroke-linecap:butt;stroke-linejoin:miter;stroke:#000;stroke-opacity:1;stroke-miterlimit:4" d="M365.514267 593.841614C365.514267 593.841614 366.463673 580.135001 379.841663 576.353866 379.971127 586.107475 365.514267 593.841614 365.514267 593.841614zm0 0" transform="matrix(0.0905171,0,0,0.0909119,86.309223,24.329158)"/><path style="fill-rule:nonzero;fill:#009149;fill-opacity:1;stroke-width:2.976378;stroke-linecap:butt;stroke-linejoin:miter;stroke:#000;stroke-opacity:1;stroke-miterlimit:4" d="M357.962175 598.611C357.962175 598.611 356.279138 587.568368 362.407121 581.595894 367.887781 587.998042 357.962175 598.611 357.962175 598.611zm0 0" transform="matrix(0.0905171,0,0,0.0909119,86.309223,24.329158)"/><path style="fill-rule:nonzero;fill:#009149;fill-opacity:1;stroke-width:2.976378;stroke-linecap:butt;stroke-linejoin:miter;stroke:#000;stroke-opacity:1;stroke-miterlimit:4" d="M193.067656 667.831544C193.067656 667.831544 203.467965 658.980251 216.198633 661.042688 207.049814 674.448529 193.067656 667.831544 193.067656 667.831544zm0 0" transform="matrix(0.0905171,0,0,0.0909119,86.309223,24.329158)"/><path style="fill-rule:nonzero;fill:#009149;fill-opacity:1;stroke-width:2.976378;stroke-linecap:butt;stroke-linejoin:miter;stroke:#000;stroke-opacity:1;stroke-miterlimit:4" d="M220.21203 675.823487C220.21203 675.823487 205.107848 678.917143 204.805764 669.421339 219.003696 668.218251 220.21203 675.823487 220.21203 675.823487zm0 0" transform="matrix(0.0905171,0,0,0.0909119,86.309223,24.329158)"/><path style="fill-rule:nonzero;fill:#009149;fill-opacity:1;stroke-width:2.976378;stroke-linecap:butt;stroke-linejoin:miter;stroke:#000;stroke-opacity:1;stroke-miterlimit:4" d="M259.482905 671.268939C259.482905 671.268939 245.500747 671.827516 239.113836 662.546549 239.113836 662.546549 255.857901 661.773135 259.482905 671.268939zm0 0" transform="matrix(0.0905171,0,0,0.0909119,86.309223,24.329158)"/><path style="fill-rule:nonzero;fill:#009149;fill-opacity:1;stroke-width:2.976378;stroke-linecap:butt;stroke-linejoin:miter;stroke:#000;stroke-opacity:1;stroke-miterlimit:4" d="M243.386162 676.510966C243.386162 676.510966 237.776037 671.097069 240.581099 664.651953 240.581099 664.651953 247.572178 668.39012 243.386162 676.510966zm0 0" transform="matrix(0.0905171,0,0,0.0909119,86.309223,24.329158)"/><path style="fill-rule:nonzero;fill:#009149;fill-opacity:1;stroke-width:2.976378;stroke-linecap:butt;stroke-linejoin:miter;stroke:#000;stroke-opacity:1;stroke-miterlimit:4" d="M259.569215 653.910094C259.569215 653.910094 256.246294 640.031611 264.747792 635.734867 267.034996 649.09774 259.569215 653.910094 259.569215 653.910094zm0 0" transform="matrix(0.0905171,0,0,0.0909119,86.309223,24.329158)"/><path style="fill-rule:nonzero;fill:#009149;fill-opacity:1;stroke-width:2.976378;stroke-linecap:butt;stroke-linejoin:miter;stroke:#000;stroke-opacity:1;stroke-miterlimit:4" d="M280.326677 661.085656C280.326677 661.085656 270.401071 658.034968 270.357916 643.168234 270.357916 643.168234 279.808819 644.113518 280.326677 661.085656zm0 0" transform="matrix(0.0905171,0,0,0.0909119,86.309223,24.329158)"/><path style="fill-rule:nonzero;fill:#009149;fill-opacity:1;stroke-width:2.976378;stroke-linecap:butt;stroke-linejoin:miter;stroke:#000;stroke-opacity:1;stroke-miterlimit:4" d="M270.573691 673.331376C270.573691 673.331376 263.366838 657.476391 270.012678 650.386764 277.564769 663.964474 270.573691 673.331376 270.573691 673.331376zm0 0" transform="matrix(0.0905171,0,0,0.0909119,86.309223,24.329158)"/><path style="fill-rule:nonzero;fill:#009149;fill-opacity:1;stroke-width:2.976378;stroke-linecap:butt;stroke-linejoin:miter;stroke:#000;stroke-opacity:1;stroke-miterlimit:4" d="M283.994836 637.324662C283.994836 637.324662 265.783507 637.281695 265.049875 629.719426 265.049875 629.719426 280.067748 624.348496 283.994836 637.324662zm0 0" transform="matrix(0.0905171,0,0,0.0909119,86.309223,24.329158)"/><path style="fill-rule:nonzero;fill:#009149;fill-opacity:1;stroke-width:2.976378;stroke-linecap:butt;stroke-linejoin:miter;stroke:#000;stroke-opacity:1;stroke-miterlimit:4" d="M285.634718 616.098747C285.634718 616.098747 271.393632 617.172933 266.1719 605.399855 266.1719 605.399855 278.384711 602.993679 285.634718 616.098747zm0 0" transform="matrix(0.0905171,0,0,0.0909119,86.309223,24.329158)"/><path style="fill-rule:nonzero;fill:#009149;fill-opacity:1;stroke-width:2.976378;stroke-linecap:butt;stroke-linejoin:miter;stroke:#000;stroke-opacity:1;stroke-miterlimit:4" d="M255.167424 631.266253C255.167424 631.266253 243.127233 628.086663 243.127233 616.571389 243.127233 616.571389 247.615333 614.38005 255.167424 631.266253zm0 0" transform="matrix(0.0905171,0,0,0.0909119,86.309223,24.329158)"/><path style="fill-rule:nonzero;fill:#009149;fill-opacity:1;stroke-width:2.976378;stroke-linecap:butt;stroke-linejoin:miter;stroke:#000;stroke-opacity:1;stroke-miterlimit:4" d="M254.994805 602.864776C254.994805 602.864776 251.154027 590.790926 262.244813 581.16622 263.064754 596.59153 254.994805 602.864776 254.994805 602.864776zm0 0" transform="matrix(0.0905171,0,0,0.0909119,86.309223,24.329158)"/><path style="fill-rule:nonzero;fill:#009149;fill-opacity:1;stroke-width:2.976378;stroke-linecap:butt;stroke-linejoin:miter;stroke:#000;stroke-opacity:1;stroke-miterlimit:4" d="M250.808789 571.627448C250.808789 571.627448 235.273058 560.02624 246.406998 543.698613 246.493308 543.655645 250.334086 549.241413 250.808789 571.627448zm0 0" transform="matrix(0.0905171,0,0,0.0909119,86.309223,24.329158)"/><path style="fill-rule:nonzero;fill:#009149;fill-opacity:1;stroke-width:2.976378;stroke-linecap:butt;stroke-linejoin:miter;stroke:#000;stroke-opacity:1;stroke-miterlimit:4" d="M254.304328 574.506267C254.304328 574.506267 248.607894 562.690221 257.584094 554.31157 260.734394 566.514323 254.304328 574.506267 254.304328 574.506267zm0 0" transform="matrix(0.0905171,0,0,0.0909119,86.309223,24.329158)"/><path style="fill-rule:nonzero;fill:#009149;fill-opacity:1;stroke-width:2.976378;stroke-linecap:butt;stroke-linejoin:miter;stroke:#000;stroke-opacity:1;stroke-miterlimit:4" d="M268.718034 549.928892C268.718034 549.928892 251.240337 549.370315 248.823668 538.671423 248.823668 538.671423 262.805825 535.921507 268.718034 549.928892zm0 0" transform="matrix(0.0905171,0,0,0.0909119,86.309223,24.329158)"/><path style="fill-rule:nonzero;fill:#009149;fill-opacity:1;stroke-width:2.976378;stroke-linecap:butt;stroke-linejoin:miter;stroke:#000;stroke-opacity:1;stroke-miterlimit:4" d="M266.215055 541.722111C266.215055 541.722111 260.475466 535.405897 259.051357 521.871154 259.051357 521.871154 272.343038 528.917814 266.215055 541.722111zm0 0" transform="matrix(0.0905171,0,0,0.0909119,86.309223,24.329158)"/><path style="fill-rule:nonzero;fill:#009149;fill-opacity:1;stroke-width:2.976378;stroke-linecap:butt;stroke-linejoin:miter;stroke:#000;stroke-opacity:1;stroke-miterlimit:4" d="M286.929363 575.494518C286.929363 575.494518 277.564769 566.72916 286.670434 555.299821 286.670434 555.299821 294.049906 564.237049 286.929363 575.494518zm0 0" transform="matrix(0.0905171,0,0,0.0909119,86.309223,24.329158)"/><path style="fill-rule:nonzero;fill:#009149;fill-opacity:1;stroke-width:2.976378;stroke-linecap:butt;stroke-linejoin:miter;stroke:#000;stroke-opacity:1;stroke-miterlimit:4" d="M277.133221 565.2253C277.133221 565.2253 261.424871 568.74863 258.662964 557.362258 258.662964 557.362258 267.207616 554.870147 277.133221 565.2253zm0 0" transform="matrix(0.0905171,0,0,0.0909119,86.309223,24.329158)"/><path style="fill-rule:nonzero;fill:#009149;fill-opacity:1;stroke-width:2.976378;stroke-linecap:butt;stroke-linejoin:miter;stroke:#000;stroke-opacity:1;stroke-miterlimit:4" d="M284.987396 575.494518C284.987396 575.494518 267.596009 575.27968 266.646603 568.533793 266.646603 568.533793 275.881732 562.690221 284.987396 575.494518zm0 0" transform="matrix(0.0905171,0,0,0.0909119,86.309223,24.329158)"/><path style="fill-rule:nonzero;fill:#009149;fill-opacity:1;stroke-width:2.976378;stroke-linecap:butt;stroke-linejoin:miter;stroke:#000;stroke-opacity:1;stroke-miterlimit:4" d="M292.841571 586.837922C292.841571 586.837922 274.889171 592.89633 270.228452 576.740573 270.228452 576.740573 279.895129 575.27968 292.841571 586.837922zm0 0" transform="matrix(0.0905171,0,0,0.0909119,86.309223,24.329158)"/><path style="fill-rule:nonzero;fill:#009149;fill-opacity:1;stroke-width:2.976378;stroke-linecap:butt;stroke-linejoin:miter;stroke:#000;stroke-opacity:1;stroke-miterlimit:4" d="M256.246294 632.512309C256.246294 632.512309 259.957608 624.047724 268.157021 619.493175 267.639164 632.512309 256.246294 632.512309 256.246294 632.512309zm0 0" transform="matrix(0.0905171,0,0,0.0909119,86.309223,24.329158)"/><path style="fill-rule:nonzero;fill:#009149;fill-opacity:1;stroke-width:2.976378;stroke-linecap:butt;stroke-linejoin:miter;stroke:#000;stroke-opacity:1;stroke-miterlimit:4" d="M239.847468 633.8443C239.847468 633.8443 232.640615 623.961789 236.222464 610.813752 236.222464 610.813752 243.81771 619.40724 239.847468 633.8443zm0 0" transform="matrix(0.0905171,0,0,0.0909119,86.309223,24.329158)"/><path style="fill-rule:nonzero;fill:#009149;fill-opacity:1;stroke-width:2.976378;stroke-linecap:butt;stroke-linejoin:miter;stroke:#000;stroke-opacity:1;stroke-miterlimit:4" d="M228.886147 629.762393C228.886147 629.762393 218.485838 639.215229 206.704576 630.106132 206.704576 630.106132 215.162918 625.637519 228.886147 629.762393zm0 0" transform="matrix(0.0905171,0,0,0.0909119,86.309223,24.329158)"/><path style="fill-rule:nonzero;fill:#009149;fill-opacity:1;stroke-width:2.976378;stroke-linecap:butt;stroke-linejoin:miter;stroke:#000;stroke-opacity:1;stroke-miterlimit:4" d="M230.35341 627.614021C230.35341 627.614021 223.362331 625.250812 227.850431 616.184682 227.850431 616.184682 231.259661 618.547891 230.35341 627.614021zm0 0" transform="matrix(0.0905171,0,0,0.0909119,86.309223,24.329158)"/><path style="fill-rule:nonzero;fill:#009149;fill-opacity:1;stroke-width:2.976378;stroke-linecap:butt;stroke-linejoin:miter;stroke:#000;stroke-opacity:1;stroke-miterlimit:4" d="M222.499235 619.922849C222.499235 619.922849 213.005177 607.50526 220.255185 596.247791 220.255185 596.247791 228.540908 608.751315 222.499235 619.922849zm0 0" transform="matrix(0.0905171,0,0,0.0909119,86.309223,24.329158)"/><path style="fill-rule:nonzero;fill:#009149;fill-opacity:1;stroke-width:2.976378;stroke-linecap:butt;stroke-linejoin:miter;stroke:#000;stroke-opacity:1;stroke-miterlimit:4" d="M246.406998 597.021205C246.406998 597.021205 234.107878 601.189046 235.747761 609.481762 235.747761 609.481762 244.119794 609.997371 246.406998 597.021205zm0 0" transform="matrix(0.0905171,0,0,0.0909119,86.309223,24.329158)"/><path style="fill-rule:nonzero;fill:#009149;fill-opacity:1;stroke-width:2.976378;stroke-linecap:butt;stroke-linejoin:miter;stroke:#000;stroke-opacity:1;stroke-miterlimit:4" d="M210.200115 576.740573C210.200115 576.740573 214.127202 589.415968 231.302816 582.541178 218.572148 574.205495 210.200115 576.740573 210.200115 576.740573zm0 0" transform="matrix(0.0905171,0,0,0.0909119,86.309223,24.329158)"/><path style="fill-rule:nonzero;fill:#009149;fill-opacity:1;stroke-width:2.976378;stroke-linecap:butt;stroke-linejoin:miter;stroke:#000;stroke-opacity:1;stroke-miterlimit:4" d="M234.798355 579.834229C234.798355 579.834229 221.247746 567.029932 230.828113 553.108482 230.828113 553.108482 235.963535 562.432416 234.798355 579.834229zm0 0" transform="matrix(0.0905171,0,0,0.0909119,86.309223,24.329158)"/><path style="fill-rule:nonzero;fill:#009149;fill-opacity:1;stroke-width:2.976378;stroke-linecap:butt;stroke-linejoin:miter;stroke:#000;stroke-opacity:1;stroke-miterlimit:4" d="M222.110842 562.690221C222.110842 562.690221 209.811722 549.413282 214.386131 540.304185 214.386131 540.304185 225.520072 549.413282 222.110842 562.690221zm0 0" transform="matrix(0.0905171,0,0,0.0909119,86.309223,24.329158)"/><path style="fill-rule:nonzero;fill:#009149;fill-opacity:1;stroke-width:2.976378;stroke-linecap:butt;stroke-linejoin:miter;stroke:#000;stroke-opacity:1;stroke-miterlimit:4" d="M222.973938 567.201802C222.973938 567.201802 216.328098 577.685857 209.250709 568.877532 209.250709 568.877532 212.832558 562.948026 222.973938 567.201802zm0 0" transform="matrix(0.0905171,0,0,0.0909119,86.309223,24.329158)"/><path style="fill-rule:nonzero;fill:#009149;fill-opacity:1;stroke-width:2.976378;stroke-linecap:butt;stroke-linejoin:miter;stroke:#000;stroke-opacity:1;stroke-miterlimit:4" d="M180.595917 610.770785C180.595917 610.770785 191.168845 621.383742 208.560232 612.231678 196.088493 607.934934 180.595917 610.770785 180.595917 610.770785zm0 0" transform="matrix(0.0905171,0,0,0.0909119,86.309223,24.329158)"/><path style="fill-rule:nonzero;fill:#009149;fill-opacity:1;stroke-width:2.976378;stroke-linecap:butt;stroke-linejoin:miter;stroke:#000;stroke-opacity:1;stroke-miterlimit:4" d="M205.625705 607.977901C205.625705 607.977901 201.784928 591.908079 206.963504 586.279345 206.963504 586.279345 213.436726 596.720432 205.625705 607.977901zm0 0" transform="matrix(0.0905171,0,0,0.0909119,86.309223,24.329158)"/><path style="fill-rule:nonzero;fill:#009149;fill-opacity:1;stroke-width:2.976378;stroke-linecap:butt;stroke-linejoin:miter;stroke:#000;stroke-opacity:1;stroke-miterlimit:4" d="M195.398016 598.997707C195.398016 598.997707 182.839967 593.755679 183.40098 578.674108 183.40098 578.674108 195.398016 584.34581 195.398016 598.997707zm0 0" transform="matrix(0.0905171,0,0,0.0909119,86.309223,24.329158)"/><path style="fill-rule:nonzero;fill:#009149;fill-opacity:1;stroke-width:2.976378;stroke-linecap:butt;stroke-linejoin:miter;stroke:#000;stroke-opacity:1;stroke-miterlimit:4" d="M309.80141 622.157156C309.80141 622.157156 300.393662 618.848663 309.930875 612.70432 311.311829 614.03631 309.80141 622.157156 309.80141 622.157156zm0 0" transform="matrix(0.0905171,0,0,0.0909119,86.309223,24.329158)"/><path style="fill-rule:nonzero;fill:#009149;fill-opacity:1;stroke-width:2.976378;stroke-linecap:butt;stroke-linejoin:miter;stroke:#000;stroke-opacity:1;stroke-miterlimit:4" d="M315.929393 615.239399C315.929393 615.239399 312.692783 600.845307 322.18684 594.872833 325.50976 602.392134 317.526121 616.829194 315.929393 615.239399zm0 0" transform="matrix(0.0905171,0,0,0.0909119,86.309223,24.329158)"/><path style="fill-rule:nonzero;fill:#009149;fill-opacity:1;stroke-width:2.976378;stroke-linecap:butt;stroke-linejoin:miter;stroke:#000;stroke-opacity:1;stroke-miterlimit:4" d="M302.16301 608.536478C302.16301 608.536478 304.148131 593.368972 320.590112 585.806703 321.151125 601.360916 302.16301 608.536478 302.16301 608.536478zm0 0" transform="matrix(0.0905171,0,0,0.0909119,86.309223,24.329158)"/><path style="fill-rule:nonzero;fill:#009149;fill-opacity:1;stroke-width:2.976378;stroke-linecap:butt;stroke-linejoin:miter;stroke:#000;stroke-opacity:1;stroke-miterlimit:4" d="M296.337111 610.555948C296.337111 610.555948 280.456141 604.153799 279.765665 600.415632 279.765665 600.415632 297.243361 597.536814 296.337111 610.555948zm0 0" transform="matrix(0.0905171,0,0,0.0909119,86.309223,24.329158)"/><path style="fill-rule:nonzero;fill:#009149;fill-opacity:1;stroke-width:2.976378;stroke-linecap:butt;stroke-linejoin:miter;stroke:#000;stroke-opacity:1;stroke-miterlimit:4" d="M296.42342 587.224628C296.42342 587.224628 289.907044 580.65061 295.215086 570.42436 295.215086 570.42436 300.523127 576.053094 296.42342 587.224628zm0 0" transform="matrix(0.0905171,0,0,0.0909119,86.309223,24.329158)"/><path style="fill-rule:nonzero;fill:#009149;fill-opacity:1;stroke-width:2.976378;stroke-linecap:butt;stroke-linejoin:miter;stroke:#000;stroke-opacity:1;stroke-miterlimit:4" d="M307.686825 592.982265C307.686825 592.982265 295.171931 582.283373 303.630273 569.049402 303.630273 569.049402 307.212122 573.088341 307.686825 592.982265zm0 0" transform="matrix(0.0905171,0,0,0.0909119,86.309223,24.329158)"/><path style="fill-rule:nonzero;fill:#009149;fill-opacity:1;stroke-width:2.976378;stroke-linecap:butt;stroke-linejoin:miter;stroke:#000;stroke-opacity:1;stroke-miterlimit:4" d="M310.276113 576.740573C310.276113 576.740573 315.799929 562.733188 326.718095 559.123923 325.768689 573.346146 310.276113 576.740573 310.276113 576.740573zm0 0" transform="matrix(0.0905171,0,0,0.0909119,86.309223,24.329158)"/><path style="fill-rule:nonzero;fill:#009149;fill-opacity:1;stroke-width:2.976378;stroke-linecap:butt;stroke-linejoin:miter;stroke:#000;stroke-opacity:1;stroke-miterlimit:4" d="M298.149612 549.971859C298.149612 549.971859 295.301395 533.558297 303.630273 527.113182 309.499327 547.050073 298.149612 549.971859 298.149612 549.971859zm0 0" transform="matrix(0.0905171,0,0,0.0909119,86.309223,24.329158)"/><path style="fill-rule:nonzero;fill:#009149;fill-opacity:1;stroke-width:2.976378;stroke-linecap:butt;stroke-linejoin:miter;stroke:#000;stroke-opacity:1;stroke-miterlimit:4" d="M296.293956 549.370315C296.293956 549.370315 284.426384 540.862762 289.69127 527.499888 289.69127 527.499888 300.264198 533.128623 296.293956 549.370315zm0 0" transform="matrix(0.0905171,0,0,0.0909119,86.309223,24.329158)"/><path style="fill-rule:nonzero;fill:#009149;fill-opacity:1;stroke-width:2.976378;stroke-linecap:butt;stroke-linejoin:miter;stroke:#000;stroke-opacity:1;stroke-miterlimit:4" d="M279.938284 542.796297C279.938284 542.796297 283.261204 553.667059 294.308835 548.339096 288.69871 539.187032 279.938284 542.796297 279.938284 542.796297zm0 0" transform="matrix(0.0905171,0,0,0.0909119,86.309223,24.329158)"/><path style="fill-rule:nonzero;fill:#009149;fill-opacity:1;stroke-width:2.976378;stroke-linecap:butt;stroke-linejoin:miter;stroke:#000;stroke-opacity:1;stroke-miterlimit:4" d="M313.814808 546.921171C313.814808 546.921171 316.447251 537.855041 335.435366 534.804353 327.969584 548.124259 313.814808 546.921171 313.814808 546.921171zm0 0" transform="matrix(0.0905171,0,0,0.0909119,86.309223,24.329158)"/><path style="fill-rule:nonzero;fill:#009149;fill-opacity:1;stroke-width:2.976378;stroke-linecap:butt;stroke-linejoin:miter;stroke:#000;stroke-opacity:1;stroke-miterlimit:4" d="M319.985945 533.300493C319.985945 533.300493 315.325226 519.07827 323.826723 513.191731 332.41453 526.554605 319.985945 533.300493 319.985945 533.300493zm0 0" transform="matrix(0.0905171,0,0,0.0909119,86.309223,24.329158)"/><path style="fill-rule:nonzero;fill:#fabb00;fill-opacity:1;stroke-width:2.976378;stroke-linecap:butt;stroke-linejoin:miter;stroke:#000;stroke-opacity:1;stroke-miterlimit:4" d="M316.965108 691.54957C309.88772 696.147086 303.802892 704.998378 301.084139 716.685522 293.316274 749.555612 295.948717 802.663367 301.472533 826.166556 303.285035 833.857727 312.692783 836.951383 320.590112 839.271625 330.429408 842.064508 337.032094 851.646247 337.549952 852.204824 348.424963 866.856721 351.27318 865.095056 351.27318 865.095056 343.289541 866.212209 332.457684 855.857056 332.457684 855.857056 333.32078 862.345139 330.558873 865.481762 330.558873 865.481762 322.229995 840.474713 296.639194 844.083978 296.639194 844.083978 329.091609 877.727483 324.301426 881.164878 324.301426 881.164878 310.923435 868.102776 305.270156 864.536479 305.270156 864.536479 302.810332 865.653632 300.954675 873.215901 300.954675 873.215901 301.947235 861.82953 291.978475 849.669745 277.996317 839.099755 275.277565 849.283038 265.308804 864.192739 265.308804 864.235707L262.676361 857.661689C240.624254 871.840943 249.255216 887.180319 249.255216 887.180319c0 0-1.553573-5.199060000000031-1.553573-13.105069000000071C248.348965 867.844972 250.808789 856.286731 265.049875 836.736546 265.049875 836.736546 260.302846 834.974881 245.845986 850.400191 245.845986 850.400191 248.30581 844.513652 245.932296 840.216908 245.932296 840.216908 228.497753 843.912108 209.07809 869.907409 209.07809 869.907409 208.214994 853.708684 242.65253 836.349839 242.65253 836.349839 270.573691 827.240742 270.314762 795.101098 270.314762 795.101098 272.213573 723.25954 266.085591 705.513988 266.085591 705.513988 260.993323 693.869812 247.270095 684.889617 247.270095 684.889617 232.68377 676.382064 228.670373 669.378372 228.670373 669.378372 221.075126 660.613014 217.450123 657.863098c0 0 20.19645 15.897951999999918 23.303596 16.49949599999991C240.753719 674.362594 247.011166 674.878204 252.621291 682.741245 252.621291 682.741245 263.712076 693.268268 273.076669 694.385421 273.076669 694.385421 270.314762 681.237385 265.826662 675.522715 265.826662 675.522715 259.871298 671.397841 257.756713 661.128623 257.756713 661.128623 252.88022 647.76575 247.270095 642.523722 247.270095 642.523722 255.124269 637.883239 264.229934 664.136344 264.229934 664.136344 274.198694 679.518687 282.052869 684.116203 282.052869 684.116203 277.435305 642.39482 290.295438 636.250476 290.295438 636.250476 286.28204 663.749637 293.920441 679.13198 293.920441 679.13198 300.005269 666.241749 305.615394 661.386428L328.962145 639.129295C328.962145 639.129295 311.009745 658.120903 304.752298 673.76105L300.523127 684.631812C300.523127 684.631812 299.530566 691.3777 309.240398 690.002742 309.585636 689.5301 314.332665 690.647254 325.078212 676.768771 328.530597 672.686864 330.645182 674.921171 338.067809 677.112511 338.067809 677.112511 343.936863 679.862427 357.789556 674.878204 319.511242 686.264575 317.180883 692.065179 316.965108 691.54957zm0 0" transform="matrix(0.0905171,0,0,0.0909119,86.309223,24.329158)"/><path style="fill:none;stroke-width:2.976378;stroke-linecap:butt;stroke-linejoin:miter;stroke:#000;stroke-opacity:1;stroke-miterlimit:4" d="M315.368381 687.123924C315.368381 687.123924 318.087133 682.612343 317.482966 678.186697" transform="matrix(0.0905171,0,0,0.0909119,86.309223,24.329158)"/><path style="fill:none;stroke-width:2.976378;stroke-linecap:butt;stroke-linejoin:miter;stroke:#000;stroke-opacity:1;stroke-miterlimit:4" d="M356.063364 675.393813 373.368442 670.23772" transform="matrix(0.0905171,0,0,0.0909119,86.309223,24.329158)"/><path style="fill:none;stroke-width:2.976378;stroke-linecap:butt;stroke-linejoin:miter;stroke:#000;stroke-opacity:1;stroke-miterlimit:4" d="M332.069291 673.073571C330.472563 677.198445 338.456203 659.323991 362.105037 654.425703 364.219623 653.609322 373.541061 655.027247 383.509821 642.480755" transform="matrix(0.0905171,0,0,0.0909119,86.309223,24.329158)"/><path style="fill:none;stroke-width:2.976378;stroke-linecap:butt;stroke-linejoin:miter;stroke:#000;stroke-opacity:1;stroke-miterlimit:4" d="M371.599095 652.578103 377.856542 655.413954" transform="matrix(0.0905171,0,0,0.0909119,86.309223,24.329158)"/><path style="fill:none;stroke-width:2.976378;stroke-linecap:butt;stroke-linejoin:miter;stroke:#000;stroke-opacity:1;stroke-miterlimit:4" d="M186.162887 678.874176C186.162887 678.874176 193.714979 675.694585 207.653981 676.425032L234.7552 675.995357" transform="matrix(0.0905171,0,0,0.0909119,86.309223,24.329158)"/><path style="fill:none;stroke-width:2.976378;stroke-linecap:butt;stroke-linejoin:miter;stroke:#000;stroke-opacity:1;stroke-miterlimit:4" d="M203.683739 682.053766 208.473923 676.596901" transform="matrix(0.0905171,0,0,0.0909119,86.309223,24.329158)"/><path style="fill:none;stroke-width:2.976378;stroke-linecap:butt;stroke-linejoin:miter;stroke:#000;stroke-opacity:1;stroke-miterlimit:4" d="M182.537883 646.261889C182.537883 646.261889 192.938192 652.363266 205.712015 653.953061 206.014099 654.081963 216.112324 654.210866 225.217988 664.308214" transform="matrix(0.0905171,0,0,0.0909119,86.309223,24.329158)"/><path style="fill:none;stroke-width:2.976378;stroke-linecap:butt;stroke-linejoin:miter;stroke:#000;stroke-opacity:1;stroke-miterlimit:4" d="M212.616784 655.757693 216.845955 648.496196" transform="matrix(0.0905171,0,0,0.0909119,86.309223,24.329158)"/><path style="fill:none;stroke-width:2.976378;stroke-linecap:butt;stroke-linejoin:miter;stroke:#000;stroke-opacity:1;stroke-miterlimit:4" d="M193.024502 658.550577 200.878677 653.093712" transform="matrix(0.0905171,0,0,0.0909119,86.309223,24.329158)"/><path style="fill:none;stroke-width:2.976378;stroke-linecap:butt;stroke-linejoin:miter;stroke:#000;stroke-opacity:1;stroke-miterlimit:4" d="M252.189743 682.956082 255.555818 677.370315" transform="matrix(0.0905171,0,0,0.0909119,86.309223,24.329158)"/><path style="fill:none;stroke-width:2.976378;stroke-linecap:butt;stroke-linejoin:miter;stroke:#000;stroke-opacity:1;stroke-miterlimit:4" d="M195.225397 599.083642 247.787952 642.652625" transform="matrix(0.0905171,0,0,0.0909119,86.309223,24.329158)"/><path style="fill:none;stroke-width:2.976378;stroke-linecap:butt;stroke-linejoin:miter;stroke:#000;stroke-opacity:1;stroke-miterlimit:4" d="M212.357855 613.133994 212.271546 606.517009" transform="matrix(0.0905171,0,0,0.0909119,86.309223,24.329158)"/><path style="fill:none;stroke-width:2.976378;stroke-linecap:butt;stroke-linejoin:miter;stroke:#000;stroke-opacity:1;stroke-miterlimit:4" d="M185.774494 601.661688 198.850401 602.177297" transform="matrix(0.0905171,0,0,0.0909119,86.309223,24.329158)"/><path style="fill:none;stroke-width:2.976378;stroke-linecap:butt;stroke-linejoin:miter;stroke:#000;stroke-opacity:1;stroke-miterlimit:4" d="M206.790885 622.157156 222.758164 621.641547" transform="matrix(0.0905171,0,0,0.0909119,86.309223,24.329158)"/><path style="fill:none;stroke-width:2.976378;stroke-linecap:butt;stroke-linejoin:miter;stroke:#000;stroke-opacity:1;stroke-miterlimit:4" d="M230.698649 638.226978 241.875744 637.711369" transform="matrix(0.0905171,0,0,0.0909119,86.309223,24.329158)"/><path style="fill:none;stroke-width:2.976378;stroke-linecap:butt;stroke-linejoin:miter;stroke:#000;stroke-opacity:1;stroke-miterlimit:4" d="M244.162948 653.953061 252.837065 651.160177" transform="matrix(0.0905171,0,0,0.0909119,86.309223,24.329158)"/><path style="fill:none;stroke-width:2.976378;stroke-linecap:butt;stroke-linejoin:miter;stroke:#000;stroke-opacity:1;stroke-miterlimit:4" d="M255.642127 646.734531 253.613851 570.639197" transform="matrix(0.0905171,0,0,0.0909119,86.309223,24.329158)"/><path style="fill:none;stroke-width:2.976378;stroke-linecap:butt;stroke-linejoin:miter;stroke:#000;stroke-opacity:1;stroke-miterlimit:4" d="M254.390638 601.575753C254.390638 601.575753 228.756682 583.099754 222.412926 563.119895" transform="matrix(0.0905171,0,0,0.0909119,86.309223,24.329158)"/><path style="fill:none;stroke-width:2.976378;stroke-linecap:butt;stroke-linejoin:miter;stroke:#000;stroke-opacity:1;stroke-miterlimit:4" d="M239.933777 588.943326 242.436756 577.685857" transform="matrix(0.0905171,0,0,0.0909119,86.309223,24.329158)"/><path style="fill:none;stroke-width:2.976378;stroke-linecap:butt;stroke-linejoin:miter;stroke:#000;stroke-opacity:1;stroke-miterlimit:4" d="M230.051326 596.247791 239.502229 589.287066" transform="matrix(0.0905171,0,0,0.0909119,86.309223,24.329158)"/><path style="fill:none;stroke-width:2.976378;stroke-linecap:butt;stroke-linejoin:miter;stroke:#000;stroke-opacity:1;stroke-miterlimit:4" d="M255.383198 615.454236 269.66744 609.00912" transform="matrix(0.0905171,0,0,0.0909119,86.309223,24.329158)"/><path style="fill:none;stroke-width:2.976378;stroke-linecap:butt;stroke-linejoin:miter;stroke:#000;stroke-opacity:1;stroke-miterlimit:4" d="M289.432341 636.723118C289.432341 636.723118 298.926399 611.243427 298.149612 599.083642 298.149612 599.083642 298.538006 592.724461 286.799898 576.740573L265.610888 543.870483" transform="matrix(0.0905171,0,0,0.0909119,86.309223,24.329158)"/><path style="fill:none;stroke-width:2.976378;stroke-linecap:butt;stroke-linejoin:miter;stroke:#000;stroke-opacity:1;stroke-miterlimit:4" d="M271.221013 551.733524 272.472502 543.612678" transform="matrix(0.0905171,0,0,0.0909119,86.309223,24.329158)"/><path style="fill:none;stroke-width:2.976378;stroke-linecap:butt;stroke-linejoin:miter;stroke:#000;stroke-opacity:1;stroke-miterlimit:4" d="M289.432341 592.982265 297.415981 595.732181" transform="matrix(0.0905171,0,0,0.0909119,86.309223,24.329158)"/><path style="fill:none;stroke-width:2.976378;stroke-linecap:butt;stroke-linejoin:miter;stroke:#000;stroke-opacity:1;stroke-miterlimit:4" d="M295.042466 548.854706 309.154088 565.998714" transform="matrix(0.0905171,0,0,0.0909119,86.309223,24.329158)"/><path style="fill:none;stroke-width:2.976378;stroke-linecap:butt;stroke-linejoin:miter;stroke:#000;stroke-opacity:1;stroke-miterlimit:4" d="M308.420457 592.767428 309.024624 563.592537C309.024624 563.592537 311.268674 546.749301 319.856481 533.472362" transform="matrix(0.0905171,0,0,0.0909119,86.309223,24.329158)"/><path style="fill:none;stroke-width:2.976378;stroke-linecap:butt;stroke-linejoin:miter;stroke:#000;stroke-opacity:1;stroke-miterlimit:4" d="M315.756774 540.21825 312.520163 533.730167" transform="matrix(0.0905171,0,0,0.0909119,86.309223,24.329158)"/><path style="fill:none;stroke-width:2.976378;stroke-linecap:butt;stroke-linejoin:miter;stroke:#000;stroke-opacity:1;stroke-miterlimit:4" d="M309.154088 561.744937 316.102012 558.092705" transform="matrix(0.0905171,0,0,0.0909119,86.309223,24.329158)"/><path style="fill:none;stroke-width:2.976378;stroke-linecap:butt;stroke-linejoin:miter;stroke:#000;stroke-opacity:1;stroke-miterlimit:4" d="M324.344581 644.113518C324.344581 644.113518 335.953224 633.199788 339.448763 617.344803" transform="matrix(0.0905171,0,0,0.0909119,86.309223,24.329158)"/><path style="fill:none;stroke-width:2.976378;stroke-linecap:butt;stroke-linejoin:miter;stroke:#000;stroke-opacity:1;stroke-miterlimit:4" d="M329.954705 616.958096 338.197274 621.727482" transform="matrix(0.0905171,0,0,0.0909119,86.309223,24.329158)"/><path style="fill:none;stroke-width:2.976378;stroke-linecap:butt;stroke-linejoin:miter;stroke:#000;stroke-opacity:1;stroke-miterlimit:4" d="M328.789526 639.902709 337.377332 642.480755" transform="matrix(0.0905171,0,0,0.0909119,86.309223,24.329158)"/><path style="fill:none;stroke-width:2.976378;stroke-linecap:butt;stroke-linejoin:miter;stroke:#000;stroke-opacity:1;stroke-miterlimit:4" d="M338.326738 576.224964C338.326738 576.224964 345.490436 590.919828 338.499357 620.180654" transform="matrix(0.0905171,0,0,0.0909119,86.309223,24.329158)"/><path style="fill:none;stroke-width:2.976378;stroke-linecap:butt;stroke-linejoin:miter;stroke:#000;stroke-opacity:1;stroke-miterlimit:4" d="M338.456203 619.708012 365.125874 593.24007" transform="matrix(0.0905171,0,0,0.0909119,86.309223,24.329158)"/><path style="fill:none;stroke-width:2.976378;stroke-linecap:butt;stroke-linejoin:miter;stroke:#000;stroke-opacity:1;stroke-miterlimit:4" d="M360.508309 598.482097 367.887781 602.220265" transform="matrix(0.0905171,0,0,0.0909119,86.309223,24.329158)"/><path style="fill:none;stroke-width:2.976378;stroke-linecap:butt;stroke-linejoin:miter;stroke:#000;stroke-opacity:1;stroke-miterlimit:4" d="M341.477039 588.21288 348.813356 583.959103" transform="matrix(0.0905171,0,0,0.0909119,86.309223,24.329158)"/><path style="fill:none;stroke-width:2.976378;stroke-linecap:butt;stroke-linejoin:miter;stroke:#000;stroke-opacity:1;stroke-miterlimit:4" d="M289.518651 637.19576C289.518651 637.19576 300.99783 635.949704 316.663025 615.153464" transform="matrix(0.0905171,0,0,0.0909119,86.309223,24.329158)"/><path style="fill:none;stroke-width:2.976378;stroke-linecap:butt;stroke-linejoin:miter;stroke:#000;stroke-opacity:1;stroke-miterlimit:4" d="M286.36835 638.355881C286.36835 638.355881 279.463581 623.618049 287.015672 616.485454" transform="matrix(0.0905171,0,0,0.0909119,86.309223,24.329158)"/><path style="fill-rule:evenodd;fill:#fabb00;fill-opacity:1;stroke-width:2.976378;stroke-linecap:butt;stroke-linejoin:miter;stroke:#000;stroke-opacity:1;stroke-miterlimit:4" d="M1.503467 292.382063H578.526396V419.350845H1.503467zm0 0" transform="matrix(0.0905171,0,0,0.0909119,86.309223,24.329158)"/><path style="fill-rule:nonzero;fill:#009149;fill-opacity:1;stroke-width:2.66169;stroke-linecap:butt;stroke-linejoin:miter;stroke:#000;stroke-opacity:1;stroke-miterlimit:4" d="M1534.930425 30.520128C1534.930425 42.452702 1525.399754 52.138234 1513.649088 52.138234 1501.898422 52.138234 1492.367751 42.452702 1492.367751 30.520128 1492.367751 18.548811 1501.898422 8.863279 1513.649088 8.863279 1525.399754 8.863279 1534.930425 18.548811 1534.930425 30.520128zm0 0" transform="matrix(0.102055,0,0,0.100827,-60.698696,53.512593)"/><path style="fill-rule:nonzero;fill:#009149;fill-opacity:1;stroke-width:2.66169;stroke-linecap:butt;stroke-linejoin:miter;stroke:#000;stroke-opacity:1;stroke-miterlimit:4" d="M1534.918624 30.520128C1534.918624 42.452702 1525.387953 52.138234 1513.637287 52.138234 1501.886621 52.138234 1492.35595 42.452702 1492.35595 30.520128 1492.35595 18.548811 1501.886621 8.863279 1513.637287 8.863279 1525.387953 8.863279 1534.918624 18.548811 1534.918624 30.520128zm0 0" transform="matrix(0.102055,0,0,0.100827,-53.185773,53.512593)"/><path style="fill-rule:nonzero;fill:#009149;fill-opacity:1;stroke-width:2.66169;stroke-linecap:butt;stroke-linejoin:miter;stroke:#000;stroke-opacity:1;stroke-miterlimit:4" d="M1534.945098 30.520128C1534.945098 42.452702 1525.414428 52.138234 1513.663762 52.138234 1501.87482 52.138234 1492.344149 42.452702 1492.344149 30.520128 1492.344149 18.548811 1501.87482 8.863279 1513.663762 8.863279 1525.414428 8.863279 1534.945098 18.548811 1534.945098 30.520128zm0 0" transform="matrix(0.102055,0,0,0.100827,-45.67285,53.512593)"/><path style="fill-rule:nonzero;fill:#009149;fill-opacity:1;stroke-width:2.66169;stroke-linecap:butt;stroke-linejoin:miter;stroke:#000;stroke-opacity:1;stroke-miterlimit:4" d="M1534.933297 30.520128C1534.933297 42.452702 1525.402627 52.138234 1513.65196 52.138234 1501.901294 52.138234 1492.370624 42.452702 1492.370624 30.520128 1492.370624 18.548811 1501.901294 8.863279 1513.65196 8.863279 1525.402627 8.863279 1534.933297 18.548811 1534.933297 30.520128zm0 0" transform="matrix(0.102055,0,0,0.100827,-38.159927,53.512593)"/><path style="fill-rule:nonzero;fill:#009149;fill-opacity:1;stroke-width:2.66169;stroke-linecap:butt;stroke-linejoin:miter;stroke:#000;stroke-opacity:1;stroke-miterlimit:4" d="M1534.921496 30.520128C1534.921496 42.452702 1525.390825 52.138234 1513.640159 52.138234 1501.889493 52.138234 1492.358823 42.452702 1492.358823 30.520128 1492.358823 18.548811 1501.889493 8.863279 1513.640159 8.863279 1525.390825 8.863279 1534.921496 18.548811 1534.921496 30.520128zm0 0" transform="matrix(0.102055,0,0,0.100827,-30.647004,53.512593)"/><path style="fill-rule:nonzero;fill:#009149;fill-opacity:1;stroke-width:2.66169;stroke-linecap:butt;stroke-linejoin:miter;stroke:#000;stroke-opacity:1;stroke-miterlimit:4" d="M1534.947971 30.520128C1534.947971 42.452702 1525.4173 52.138234 1513.628358 52.138234 1501.877692 52.138234 1492.347022 42.452702 1492.347022 30.520128 1492.347022 18.548811 1501.877692 8.863279 1513.628358 8.863279 1525.4173 8.863279 1534.947971 18.548811 1534.947971 30.520128zm0 0" transform="matrix(0.102055,0,0,0.100827,-23.134081,53.512593)"/><path style="fill-rule:nonzero;fill:#fabb00;fill-opacity:1;stroke-width:2.976378;stroke-linecap:butt;stroke-linejoin:miter;stroke:#000;stroke-opacity:1;stroke-miterlimit:4" d="M82.375576 188.959438 70.853242 129.406568C70.853242 129.406568 64.121092 127.172261 64.380021 118.922512 64.380021 118.922512 64.293711 107.536141 91.56755 96.536477 91.56755 96.536477 200.058735 58.510293 306.823729 64.525735 306.823729 64.525735 439.222678 70.541176 496.489107 100.962123 496.489107 100.962123 516.815021 111.532113 515.951925 124.551247 515.951925 124.551247 517.332879 134.175953 506.328403 140.535134L499.20786 188.959438C360.24938 189.646917 221.290901 189.131308 82.375576 188.959438zm0 0" transform="matrix(0.0905171,0,0,0.0909119,86.309223,24.329158)"/><path style="fill-rule:nonzero;fill:#fabb00;fill-opacity:1;stroke-width:1.618338;stroke-linecap:butt;stroke-linejoin:miter;stroke:#000;stroke-opacity:1;stroke-miterlimit:4" d="M4417.393075 460.714411C4417.374463 463.789949 4409.654569 466.272924 4400.081187 466.273045 4390.538453 466.274883 4382.787702 463.783515 4382.773241 460.724011 4382.791853 457.648473 4390.542394 455.167216 4400.085128 455.165378 4409.627862 455.163539 4417.378614 457.654907 4417.393075 460.714411zm0 0" transform="matrix(0.12649,-0.0122382,0.0172768,0.218384,-462.392691,-10.80151)"/><path style="fill-rule:nonzero;fill:#009149;fill-opacity:1;stroke-width:2.126141;stroke-linecap:butt;stroke-linejoin:miter;stroke:#000;stroke-opacity:1;stroke-miterlimit:4" d="M4417.387913 460.707753C4417.393031 463.774881 4409.648808 466.284073 4400.090753 466.267824 4390.529346 466.27612 4382.773701 463.788689 4382.768583 460.721561 4382.801721 457.656577 4390.545944 455.147385 4400.103998 455.163634 4409.627149 455.153194 4417.382795 457.640625 4417.387913 460.707753zm0 0" transform="matrix(0.101331,-0.00885092,0.0138404,0.157939,-350.056206,2.177787)"/><path style="fill-rule:evenodd;fill:#fabb00;fill-opacity:1;stroke-width:2.540657;stroke-linecap:butt;stroke-linejoin:miter;stroke:#000;stroke-opacity:1;stroke-miterlimit:4" d="M4356.415368 452.900703C4356.415368 455.083929 4354.355833 456.8578 4351.821019 456.8578 4349.286206 456.8578 4347.22667 455.083929 4347.22667 452.900703 4347.22667 450.683364 4349.286206 448.909493 4351.821019 448.909493 4354.355833 448.909493 4356.415368 450.683364 4356.415368 452.900703zm0 0" transform="matrix(0.0986266,0,0,0.114509,-331.572478,-16.291097)"/><path style="fill-rule:evenodd;fill:#fabb00;fill-opacity:1;stroke-width:2.540657;stroke-linecap:butt;stroke-linejoin:miter;stroke:#000;stroke-opacity:1;stroke-miterlimit:4" d="M4356.425567 452.900675C4356.425567 455.0839 4354.366031 456.857772 4351.831218 456.857772 4349.296405 456.857772 4347.236869 455.0839 4347.236869 452.900675 4347.236869 450.683336 4349.296405 448.909465 4351.831218 448.909465 4354.366031 448.909465 4356.425567 450.683336 4356.425567 452.900675zm0 0" transform="matrix(0.0986266,0,0,0.114509,-331.116452,-13.658282)"/><path style="fill-rule:evenodd;fill:#fabb00;fill-opacity:1;stroke-width:2.540657;stroke-linecap:butt;stroke-linejoin:miter;stroke:#000;stroke-opacity:1;stroke-miterlimit:4" d="M4356.415865 452.894988C4356.415865 455.078213 4354.356329 456.852085 4351.821516 456.852085 4349.286702 456.852085 4347.227167 455.078213 4347.227167 452.894988 4347.227167 450.711762 4349.286702 448.903778 4351.821516 448.903778 4354.356329 448.903778 4356.415865 450.711762 4356.415865 452.894988zm0 0" transform="matrix(0.0986266,0,0,0.114509,-322.967058,-15.056068)"/><path style="fill-rule:evenodd;fill:#fabb00;fill-opacity:1;stroke-width:2.540657;stroke-linecap:butt;stroke-linejoin:miter;stroke:#000;stroke-opacity:1;stroke-miterlimit:4" d="M4356.438812 452.885309C4356.438812 455.102648 4354.379276 456.876519 4351.844463 456.876519 4349.309649 456.876519 4347.250114 455.102648 4347.250114 452.885309 4347.250114 450.702083 4349.309649 448.928212 4351.844463 448.928212 4354.379276 448.928212 4356.438812 450.702083 4356.438812 452.885309zm0 0" transform="matrix(0.0986266,0,0,0.114509,-323.332602,-18.058866)"/><path style="fill-rule:nonzero;fill:#fabb00;fill-opacity:1;stroke-width:2.976378;stroke-linecap:butt;stroke-linejoin:miter;stroke:#000;stroke-opacity:1;stroke-miterlimit:4" d="M63.991628 161.07357 79.527358 173.14742 108.26846 142.210864 74.996104 141.351516zm0 0" transform="matrix(0.0905171,0,0,0.0909119,86.309223,24.329158)"/><path style="fill-rule:nonzero;fill:#e2001a;fill-opacity:1;stroke-width:2.976378;stroke-linecap:butt;stroke-linejoin:miter;stroke:#000;stroke-opacity:1;stroke-miterlimit:4" d="M64.077937 160.987635 76.549677 170.698276 99.637499 145.820129 72.924673 145.13265zm0 0" transform="matrix(0.0905171,0,0,0.0909119,86.309223,24.329158)"/><path style="fill-rule:nonzero;fill:#fabb00;fill-opacity:1;stroke-width:1.618338;stroke-linecap:butt;stroke-linejoin:miter;stroke:#000;stroke-opacity:1;stroke-miterlimit:4" d="M4417.379351 460.713646C4417.391387 463.790902 4409.640845 466.272159 4400.098111 466.273997 4390.52473 466.274118 4382.773978 463.78275 4382.790165 460.724963 4382.778129 457.647708 4390.52867 455.166451 4400.071404 455.164613 4409.644786 455.164492 4417.395537 457.65586 4417.379351 460.713646zm0 0" transform="matrix(-0.12649,-0.0122382,-0.0172768,0.218384,687.480785,-10.801511)"/><path style="fill-rule:nonzero;fill:#009149;fill-opacity:1;stroke-width:2.126141;stroke-linecap:butt;stroke-linejoin:miter;stroke:#000;stroke-opacity:1;stroke-miterlimit:4" d="M4417.370693 460.706788C4417.375811 463.773916 4409.631589 466.283108 4400.073534 466.266859 4390.550383 466.277299 4382.794738 463.789868 4382.78962 460.72274 4382.784502 457.655612 4390.528724 455.14642 4400.086779 455.162669 4409.648186 455.154372 4417.403832 457.641804 4417.370693 460.706788zm0 0" transform="matrix(-0.101331,-0.00885092,-0.0138404,0.157939,575.144291,2.177787)"/><path style="fill-rule:evenodd;fill:#fabb00;fill-opacity:1;stroke-width:2.540657;stroke-linecap:butt;stroke-linejoin:miter;stroke:#000;stroke-opacity:1;stroke-miterlimit:4" d="M4356.43724 452.900703C4356.43724 455.083929 4354.377704 456.8578 4351.842891 456.8578 4349.308077 456.8578 4347.248542 455.083929 4347.248542 452.900703 4347.248542 450.683364 4349.308077 448.909493 4351.842891 448.909493 4354.377704 448.909493 4356.43724 450.683364 4356.43724 452.900703zm0 0" transform="matrix(-0.0986266,0,0,0.114509,556.660572,-16.291097)"/><path style="fill-rule:evenodd;fill:#fabb00;fill-opacity:1;stroke-width:2.540657;stroke-linecap:butt;stroke-linejoin:miter;stroke:#000;stroke-opacity:1;stroke-miterlimit:4" d="M4356.40774 452.900682C4356.40774 455.083908 4354.348204 456.857779 4351.813391 456.857779 4349.278578 456.857779 4347.219042 455.083908 4347.219042 452.900682 4347.219042 450.683344 4349.278578 448.909473 4351.813391 448.909473 4354.348204 448.909473 4356.40774 450.683344 4356.40774 452.900682zm0 0" transform="matrix(-0.0986266,0,0,0.114509,556.204538,-13.658282)"/><path style="fill-rule:evenodd;fill:#fabb00;fill-opacity:1;stroke-width:2.540657;stroke-linecap:butt;stroke-linejoin:miter;stroke:#000;stroke-opacity:1;stroke-miterlimit:4" d="M4356.437644 452.894988C4356.437644 455.078213 4354.378108 456.852085 4351.843295 456.852085 4349.308482 456.852085 4347.248946 455.078213 4347.248946 452.894988 4347.248946 450.711762 4349.308482 448.903778 4351.843295 448.903778 4354.378108 448.903778 4356.437644 450.711762 4356.437644 452.894988zm0 0" transform="matrix(-0.0986266,0,0,0.114509,548.055143,-15.056068)"/><path style="fill-rule:evenodd;fill:#fabb00;fill-opacity:1;stroke-width:2.540657;stroke-linecap:butt;stroke-linejoin:miter;stroke:#000;stroke-opacity:1;stroke-miterlimit:4" d="M4356.421077 452.885309C4356.421077 455.102648 4354.361541 456.876519 4351.826727 456.876519 4349.291914 456.876519 4347.232378 455.102648 4347.232378 452.885309 4347.232378 450.702083 4349.291914 448.928212 4351.826727 448.928212 4354.361541 448.928212 4356.421077 450.702083 4356.421077 452.885309zm0 0" transform="matrix(-0.0986266,0,0,0.114509,548.420697,-18.058866)"/><path style="fill-rule:nonzero;fill:#fabb00;fill-opacity:1;stroke-width:2.976378;stroke-linecap:butt;stroke-linejoin:miter;stroke:#000;stroke-opacity:1;stroke-miterlimit:4" d="M515.649842 161.07357 500.114111 173.14742 471.416164 142.210864 504.645366 141.351516zm0 0" transform="matrix(0.0905171,0,0,0.0909119,86.309223,24.329158)"/><path style="fill-rule:nonzero;fill:#e2001a;fill-opacity:1;stroke-width:2.976378;stroke-linecap:butt;stroke-linejoin:miter;stroke:#000;stroke-opacity:1;stroke-miterlimit:4" d="M515.606687 160.987635 503.091793 170.698276 480.047126 145.820129 506.759951 145.13265zm0 0" transform="matrix(0.0905171,0,0,0.0909119,86.309223,24.329158)"/><path style="fill-rule:nonzero;fill:#fabb00;fill-opacity:1;stroke-width:2.976378;stroke-linecap:butt;stroke-linejoin:miter;stroke:#000;stroke-opacity:1;stroke-miterlimit:4" d="M245.457593 116.516336 288.482936 138.25786 329.350538 118.149099 286.972517 91.595221zm0 0" transform="matrix(0.0905171,0,0,0.0909119,86.309223,24.329158)"/><path style="fill-rule:nonzero;fill:#008ac9;fill-opacity:1;stroke-width:2.976378;stroke-linecap:butt;stroke-linejoin:miter;stroke:#000;stroke-opacity:1;stroke-miterlimit:4" d="M253.225458 116.215564 288.224007 134.261888 321.496363 117.590522 286.972517 95.591193zm0 0" transform="matrix(0.0905171,0,0,0.0909119,86.309223,24.329158)"/><path style="fill:none;stroke-width:2.976378;stroke-linecap:butt;stroke-linejoin:miter;stroke:#000;stroke-opacity:1;stroke-miterlimit:4" d="M70.896397 129.019861C70.896397 104.313583 363.140752 32.686863 515.779306 130.996363" transform="matrix(0.0905171,0,0,0.0909119,86.309223,24.329158)"/><path style="fill:none;stroke-width:2.976378;stroke-linecap:butt;stroke-linejoin:miter;stroke:#000;stroke-opacity:1;stroke-miterlimit:4" d="M72.104731 135.851683C72.104731 111.188373 360.292535 37.026574 512.931089 135.379042" transform="matrix(0.0905171,0,0,0.0909119,86.309223,24.329158)"/><path style="fill:none;stroke-width:2.976378;stroke-linecap:butt;stroke-linejoin:miter;stroke:#000;stroke-opacity:1;stroke-miterlimit:4" d="M80.649383 179.248797C93.984219 165.155477 309.671946 107.450206 500.761433 179.119894" transform="matrix(0.0905171,0,0,0.0909119,86.309223,24.329158)"/><path style="fill-rule:evenodd;fill:#fabb00;fill-opacity:1;stroke-width:2.976378;stroke-linecap:butt;stroke-linejoin:miter;stroke:#000;stroke-opacity:1;stroke-miterlimit:4" d="M503.60965 194.45927C473.487595 218.220264 358.782117 230.423016 291.244843 230.852691 179.128654 231.54017 65.113653 209.970515 73.744614 188.830535 79.484203 174.737216 219.435244 149.773134 291.244843 150.288743 409.057467 151.191059 518.23913 182.943996 503.60965 194.45927zm0 0" transform="matrix(0.0905171,0,0,0.0909119,86.309223,24.329158)"/><path style="fill-rule:evenodd;fill:#fff;fill-opacity:1;stroke-width:2.976378;stroke-linecap:butt;stroke-linejoin:miter;stroke:#000;stroke-opacity:1;stroke-miterlimit:4" d="M483.542665 194.63114C456.614065 211.560311 351.618419 223.075584 291.244843 223.376356 191.082535 223.891966 91.740169 208.20885 99.464879 193.127279 104.600301 183.072899 227.1168 165.456249 291.244843 165.842956 396.499418 166.487467 496.575417 186.381391 483.542665 194.63114zm0 0" transform="matrix(0.0905171,0,0,0.0909119,86.309223,24.329158)"/><path style="stroke:none;fill-rule:evenodd;fill:#fabb00;fill-opacity:1" d="M112.988281 34.34375C112.988281 34.582031 112.800781 34.773438 112.570312 34.773438 112.335938 34.773438 112.148438 34.582031 112.148438 34.34375 112.148438 34.105469 112.335938 33.914062 112.570312 33.914062 112.800781 33.914062 112.988281 34.105469 112.988281 34.34375zm0 0"/><path style="fill-rule:nonzero;fill:#fabb00;fill-opacity:1;stroke-width:3.072066;stroke-linecap:butt;stroke-linejoin:miter;stroke:#000;stroke-opacity:1;stroke-miterlimit:4" d="M4164.289493 1039.642642V1038.624724C4165.717791 1038.757496 4167.547797 1038.84601 4169.824147 1038.84601L4176.385389 1038.757496C4178.840276 1038.757496 4180.625648 1039.288584 4181.741505 1040.306502 4182.857363 1041.368677 4183.437609 1042.784911 4183.437609 1044.555203 4183.437609 1046.635296 4182.678826 1048.405589 4181.161259 1049.777565 4179.643693 1051.193799 4177.590515 1051.901916 4174.912457 1051.901916 4173.885868 1051.901916 4173.975137 1051.813401 4172.546839 1051.547857c0 1.7260349999999107.0 2.9652399999999943.0 3.7176139999999123C4172.546839 1058.053681 4172.591473 1059.691202 4172.725376 1060.178032 4172.770011 1060.355061 4172.859279 1060.487833 4173.037816 1060.620605 4173.350257 1060.797634 4173.127085 1060.930406 4174.867823 1061.19595 4175.04636 1061.19595 4175.269532 1061.240207 4175.537337 1061.328722V1062.302383C4173.439525 1062.169611 4171.475616 1062.125353 4169.64561 1062.125353 4167.904872 1062.125353 4166.1195 1062.169611 4164.289493 1062.302383V1061.328722C4164.735836 1061.19595 4165.048276 1061.151693 4165.271448 1061.107435 4166.74438 1060.797634 4167.547797 1060.576348 4167.726335 1060.443576 4167.99414 1060.222289 4168.128043 1059.55843 4168.128043 1058.496254L4168.172678 1050.441425V1041.988279C4168.172678 1041.280162 4168.083409 1040.837589 4167.860237 1040.616303 4167.637066 1040.439274 4166.74438 1040.17373 4165.137545 1039.819671 4164.959008 1039.775414 4164.691202 1039.731157 4164.289493 1039.642642zM4172.591473 1050.131624C4173.751965 1050.397167 4173.484159 1050.485682 4174.332211 1050.485682 4176.162218 1050.485682 4176.653195 1049.998852 4177.679784 1049.025191 4178.661738 1048.095787 4179.152716 1046.812326 4179.152716 1045.219063 4179.152716 1043.670057 4178.706373 1042.47511 4177.769052 1041.589963 4176.876366 1040.749075 4176.340755 1040.306502 4174.466114 1040.306502 4173.618062 1040.306502 4173.885868 1040.439274 4172.725376 1040.616303 4172.636108 1043.979858 4172.591473 1047.166384 4172.591473 1050.131624zm0 0" transform="matrix(0.0875168,0,0,0.0882623,-252.812359,-57.925275)"/></g></svg>