<svg xmlns="http://www.w3.org/2000/svg" xmlns:xlink="http://www.w3.org/1999/xlink" width="223pt" height="150pt" viewBox="0 0 223 150"><g id="surface1"><path d="M0 0h223v150H0z" style="fill:#fff;fill-opacity:1;stroke:none"/><path style="stroke:none;fill-rule:evenodd;fill:#d81921;fill-opacity:1" d="M104.15625.0V67.511719H0V82.488281H104.15625V150h14.6875V82.488281H223V67.511719H118.84375V0zm0 0"/><path style="stroke:none;fill-rule:evenodd;fill:#000;fill-opacity:1" d="M34.980469 11.355469C34.871094 11.207031 32.042969 11.0625 30.734375 13.644531 29.429688 16.230469 30.410156 21.359375 30.84375 22.523438 31.28125 23.6875 33.019531 27.621094 36.609375 29.65625 38.023438 30.457031 38.75 30.820312 38.75 30.820312 38.75 30.820312 39.585938 32.203125 39.621094 32.929688 39.65625 33.65625 39.476562 34.605469 38.351562 36.023438 37.226562 37.441406 37.335938 36.96875 36.429688 38.242188 35.523438 39.515625 34.652344 40.316406 34.507812 42.574219 34.363281 44.828125 34.980469 46.355469 36.828125 47.8125 38.675781 49.265625 44.007812 49.160156 44.007812 48.722656 44.007812 48.285156 43.355469 46.902344 43.355469 46.464844c0-.4375.6875-3.5664060000000006.36328100000000063-4C43.390625 42.027344 42.558594 41.042969 41.398438 41.117188 40.84375 41.40625 40.273438 44.246094 40.273438 44.246094 40.273438 44.246094 39.511719 44.320312 39.765625 42.316406 40.019531 40.316406 40.671875 39.1875 41.359375 38.644531 42.050781 38.097656 42.339844 37.734375 42.339844 37.734375 42.339844 37.734375 44.152344 39.917969 44.117188 41.917969 44.082031 43.917969 43.535156 47.195312 43.535156 47.195312l.546875 1.34375C44.082031 48.539062 47.816406 48.792969 49.992188 51.015625 52.167969 53.234375 55.394531 55.78125 56.011719 56.109375 56.628906 56.433594 58.007812 57.164062 59.566406 57.019531 61.125 56.871094 63.011719 56.109375 63.011719 56.109375 63.011719 56.109375 62.140625 54.144531 62.285156 53.089844 62.429688 52.03125 63.082031 50.433594 62.902344 49.851562 62.71875 49.265625 62.140625 47.410156 62.140625 47.410156 62.140625 47.410156 67.472656 47.59375 68.523438 47.046875 69.574219 46.503906 70.480469 45.957031 70.589844 44.28125 70.699219 42.609375 69.464844 42.609375 69.285156 41.917969 69.101562 41.226562 70.335938 40.027344 70.300781 39.589844 70.261719 39.152344 70.335938 38.824219 70.007812 38.714844 69.683594 38.605469 69.5 38.351562 69.5 38.351562 69.5 38.351562 70.261719 37.695312 70.261719 37.371094 70.261719 37.042969 69.101562 36.058594 69.320312 35.730469 69.539062 35.40625 72.332031 35.078125 72.621094 34.894531 72.910156 34.714844 73.019531 34.3125 72.800781 33.804688 72.585938 33.292969 68.921875 28.273438 68.921875 28.273438 68.921875 28.273438 68.847656 24.160156 68.558594 23.070312 68.269531 21.976562 65.984375 15.464844 60.980469 13.027344 55.976562 10.589844 49.808594 12.664062 48.757812 13.027344 47.707031 13.390625 39.761719 15.746094 38.316406 21.394531 37.261719 25.507812 38.097656 28.019531 38.097656 28.019531 38.097656 28.019531 36.03125 26.855469 35.339844 25.070312 34.652344 23.289062 34.109375 22.269531 34.289062 21.324219 34.472656 20.378906 35.488281 16.773438 36.863281 16.085938 35.160156 16.011719 34.253906 15.902344 34.253906 15.902344c0 0-.6523439999999994-3.675782.7265629999999987-4.546875zm0 0"/><path style="stroke:none;fill-rule:evenodd;fill:#fff;fill-opacity:1" d="M33.765625 23C33.765625 23 33.433594 25.816406 34.546875 27.074219 35.878906 28.585938 38.039062 29.960938 38.332031 30.089844 38.628906 30.214844 38.164062 29.027344 38.164062 29.027344 38.164062 29.027344 35.203125 27.15625 33.765625 23zm0 0"/><path style="stroke:none;fill-rule:evenodd;fill:#fff;fill-opacity:1" d="M33.257812 25.757812C33.257812 25.757812 31.332031 22.46875 30.949219 20.367188 30.570312 18.265625 30.613281 15.695312 31.078125 14.972656 31.457031 15.546875 31.308594 17.671875 31.308594 17.671875 31.308594 17.671875 31.5625 15.867188 31.5625 15.695312 31.5625 15.628906 32.070312 16.097656 32.113281 17.265625 32.15625 18.433594 32.664062 19.75 32.664062 19.75 32.664062 19.75 32.242188 16.289062 32.367188 16.058594 32.496094 15.824219 32.832031 16.863281 35.203125 16.820312 33.933594 18.988281 33.425781 20.8125 33.320312 21.808594c-.1054680000000019 1-.0625 3.96875-.0625 3.949218000000002zm0 0"/><path style="stroke:none;fill-rule:evenodd;fill:#fff;fill-opacity:1" d="M42.878906 47.019531C43.027344 47.511719 43.433594 47.984375 43.304688 48.199219 43.179688 48.414062 41.746094 48.667969 41.46875 48.304688 41.191406 47.941406 39.652344 46.183594 39.652344 46.183594 39.652344 46.183594 40.65625 48.328125 40.507812 48.285156 40.355469 48.242188 40.207031 48.5 39.394531 47.617188 38.582031 46.738281 37.300781 44.726562 37.300781 44.726562c0 0 .640625 1.7148439999999994.984375 2.0781259999999975C38.625 47.167969 38.839844 47.617188 38.777344 47.769531 38.710938 47.917969 38.175781 47.832031 37.773438 47.382812 37.367188 46.933594 36.617188 46.117188 36.617188 46.117188 36.617188 46.117188 37.535156 47.363281 37.429688 47.449219 37.324219 47.535156 36.253906 46.804688 35.914062 46.183594 35.570312 45.5625 34.566406 44.382812 35.292969 42.066406 36.019531 39.75 36.722656 38.871094 36.722656 38.871094 36.722656 38.871094 36.339844 40.992188 37.171875 42.453125 38.007812 43.910156 39.886719 44.789062 40.933594 44.9375 41.980469 45.089844 43.179688 44.960938 43.179688 44.960938 43.179688 44.960938 42.664062 45.925781 42.878906 47.019531zm0 0"/><path style="stroke:none;fill-rule:evenodd;fill:#fff;fill-opacity:1" d="M41.039062 43.394531C41.039062 43.394531 41.191406 42.128906 41.425781 41.980469 41.660156 41.832031 42.214844 41.660156 42.578125 42.042969 42.941406 42.429688 43.519531 42.816406 43.414062 43.417969 43.304688 44.015625 41.9375 44.53125 41.425781 44.382812 40.914062 44.230469 40.847656 44.230469 41.039062 43.394531zm0 0"/><path style="stroke:none;fill-rule:evenodd;fill:#fff;fill-opacity:1" d="M38.925781 43.546875C38.925781 43.546875 37.152344 41.894531 37.238281 40.4375 37.324219 38.980469 38.050781 37.371094 38.710938 36.425781 39.375 35.484375 40.847656 34.324219 40.847656 34.324219 40.847656 34.324219 40.914062 35.332031 41.125 35.65625 41.339844 35.976562 41.683594 36.726562 41.808594 36.855469 41.9375 36.984375 40.273438 38.121094 39.628906 39.644531 38.988281 41.164062 38.839844 42 38.925781 43.546875zm0 0"/><path style="stroke:none;fill-rule:evenodd;fill:#fff;fill-opacity:1" d="M63.046875 29.050781C63.046875 29.050781 64.042969 28.007812 65.484375 27.464844 65.617188 27.414062 66.050781 27.195312 66.253906 27.8125 66.460938 28.429688 66.625 29.0625 66.484375 29.71875 66.382812 30.203125 66.417969 30.238281 65.472656 30.296875 64.820312 30.339844 64.183594 30.214844 63.574219 29.988281 64.332031 29.859375 65.394531 29.976562 65.675781 29.886719 65.609375 29.398438 65.347656 28.742188 65.484375 28.25 65.242188 28.171875 63.300781 29.367188 63.046875 29.050781zm0 0"/><path style="stroke:none;fill-rule:evenodd;fill:#fff;fill-opacity:1" d="M34 11.976562C34 11.976562 31.730469 12.660156 31.539062 13.5625 31.347656 14.464844 31.691406 14.5 31.921875 14.695312 32.246094 14.96875 33.246094 15.574219 33.351562 15.523438 33.453125 15.46875 33.207031 14.441406 33.261719 13.84375 33.351562 12.824219 33.832031 12.054688 34 11.976562zm0 0"/><path style="stroke:none;fill-rule:evenodd;fill:#fff;fill-opacity:1" d="M60.296875 19.730469 56.871094 19.96875 63.582031 16.128906 65.449219 17.503906 63.226562 19.351562 66.15625 18.761719 66.699219 19.542969 64.527344 20.847656 67.101562 20.917969 67.335938 22.410156 65.566406 23.027344C65.566406 23.027344 67.078125 23.429688 67.386719 23.953125 67.691406 24.472656 67.785156 24.710938 67.785156 24.710938 67.785156 24.710938 63.960938 25.019531 62.683594 25.421875 61.40625 25.824219 54.648438 28.125 54.648438 28.125 54.648438 28.125 54.203125 26.085938 52.121094 25.941406 50.042969 25.800781 48.863281 26.703125 48.742188 27.292969 48.625 27.886719 48.789062 29.570312 49.238281 30.496094 49.6875 31.417969 50.726562 32.367188 51.152344 32.605469 51.578125 32.839844 52.6875 33.386719 52.6875 33.742188 52.6875 34.097656 53.375 35.851562 54.128906 36.539062 54.886719 37.226562 55.785156 37.582031 56.257812 37.582031 56.042969 38.199219 55.59375 38.484375 55.097656 38.414062 53.96875 38.25 52.640625 36.941406 52.40625 36.160156 52.167969 35.378906 51.328125 33.679688 50.773438 33.363281 50.445312 33.171875 49.121094 32.628906 48.957031 32.273438 48.789062 31.917969 48.269531 30.828125 47.917969 30.753906 47.5625 30.683594 45.199219 30.875 44.417969 31.417969 43.640625 31.964844 40.804688 33.550781 40.804688 33.550781 40.804688 33.550781 40.332031 33.578125 40.332031 33.195312 40.332031 32.816406 42.671875 30.898438 42.671875 30.898438 42.671875 30.898438 48.910156 24.402344 49.335938 24.234375 49.757812 24.070312 50.101562 23.753906 51.367188 23.597656 52.5 23.453125 52.808594 23.554688 52.808594 23.554688L50.179688 22.578125c0 0 2.714843000000002-.8476560000000006 5.15625-1.140625C57.601562 21.167969 59.398438 20.988281 59.398438 20.988281 59.398438 20.988281 60.226562 20.371094 60.296875 19.730469zm0 0"/><path style="stroke:none;fill-rule:evenodd;fill:#fff;fill-opacity:1" d="M40.203125 32.070312 40.34375 30.265625C40.34375 30.265625 42.421875 26.292969 44.191406 25.53125 45.960938 24.769531 49.332031 22.824219 49.332031 22.824219zm0 0"/><path style="stroke:none;fill-rule:evenodd;fill:#fff;fill-opacity:1" d="M51.550781 27.363281C51.550781 27.363281 50.671875 27.0625 50.316406 27.898438 50.0625 28.492188 50.0625 29.140625 50.316406 29.5625 50.667969 30.148438 51.132812 30.152344 51.496094 29.984375 51.046875 29.675781 50.765625 29.140625 50.820312 28.574219 50.878906 28.011719 51.101562 27.589844 51.550781 27.363281zm0 0"/><path style="stroke:none;fill-rule:evenodd;fill:#fff;fill-opacity:1" d="M54.023438 34.042969C54.023438 34.042969 54.082031 35.03125 54.953125 35.003906 55.824219 34.972656 55.792969 34.550781 55.851562 34.183594 55.316406 34.636719 55.457031 34.464844 55.035156 34.464844 54.753906 34.464844 54.417969 34.523438 54.023438 34.042969zm0 0"/><path style="stroke:none;fill-rule:evenodd;fill:#000;fill-opacity:1" d="M153.335938 11.355469C153.226562 11.207031 150.398438 11.0625 149.09375 13.644531 147.789062 16.230469 148.765625 21.359375 149.203125 22.523438 149.636719 23.6875 151.375 27.621094 154.96875 29.65625 156.382812 30.457031 157.109375 30.820312 157.109375 30.820312 157.109375 30.820312 157.941406 32.203125 157.976562 32.929688 158.015625 33.65625 157.832031 34.605469 156.707031 36.023438 155.585938 37.441406 155.691406 36.96875 154.785156 38.242188 153.878906 39.515625 153.011719 40.316406 152.863281 42.574219 152.71875 44.828125 153.335938 46.355469 155.1875 47.8125 157.035156 49.265625 162.367188 49.160156 162.367188 48.722656 162.367188 48.285156 161.714844 46.902344 161.714844 46.464844c0-.4375.6875-3.5664060000000006.359375-4C161.75 42.027344 160.914062 41.042969 159.753906 41.117188 159.199219 41.40625 158.628906 44.246094 158.628906 44.246094 158.628906 44.246094 157.867188 44.320312 158.121094 42.316406 158.375 40.316406 159.03125 39.1875 159.71875 38.644531 160.40625 38.097656 160.699219 37.734375 160.699219 37.734375 160.699219 37.734375 162.511719 39.917969 162.472656 41.917969 162.4375 43.917969 161.894531 47.195312 161.894531 47.195312L162.4375 48.539062C162.4375 48.539062 166.171875 48.792969 168.347656 51.015625 170.523438 53.234375 173.753906 55.78125 174.367188 56.109375 174.984375 56.433594 176.363281 57.164062 177.921875 57.019531 179.480469 56.871094 181.367188 56.109375 181.367188 56.109375 181.367188 56.109375 180.496094 54.144531 180.640625 53.089844 180.789062 52.03125 181.441406 50.433594 181.257812 49.851562 181.078125 49.265625 180.496094 47.410156 180.496094 47.410156 180.496094 47.410156 185.828125 47.59375 186.878906 47.046875 187.929688 46.503906 188.839844 45.957031 188.945312 44.28125 189.054688 42.609375 187.824219 42.609375 187.640625 41.917969 187.460938 41.226562 188.691406 40.027344 188.65625 39.589844 188.621094 39.152344 188.691406 38.824219 188.367188 38.714844 188.039062 38.605469 187.859375 38.351562 187.859375 38.351562 187.859375 38.351562 188.621094 37.695312 188.621094 37.371094 188.621094 37.042969 187.460938 36.058594 187.675781 35.730469 187.894531 35.40625 190.6875 35.078125 190.976562 34.894531 191.269531 34.714844 191.375 34.3125 191.160156 33.804688 190.941406 33.292969 187.277344 28.273438 187.277344 28.273438 187.277344 28.273438 187.207031 24.160156 186.917969 23.070312 186.625 21.976562 184.339844 15.464844 179.335938 13.027344 174.332031 10.589844 168.167969 12.664062 167.117188 13.027344 166.066406 13.390625 158.117188 15.746094 156.671875 21.394531 155.621094 25.507812 156.453125 28.019531 156.453125 28.019531 156.453125 28.019531 154.386719 26.855469 153.699219 25.070312 153.011719 23.289062 152.464844 22.269531 152.648438 21.324219 152.828125 20.378906 153.84375 16.773438 155.222656 16.085938 153.515625 16.011719 152.609375 15.902344 152.609375 15.902344c0 0-.6523439999999994-3.675782.7265629999999987-4.546875zm0 0"/><path style="stroke:none;fill-rule:evenodd;fill:#fff;fill-opacity:1" d="M152.121094 23c0 0-.328125 2.8164060000000006.78125 4.074218999999999C154.238281 28.585938 156.394531 29.960938 156.691406 30.089844c.296875.125-.171875-1.0625-.171875-1.0625C156.519531 29.027344 153.558594 27.15625 152.121094 23zm0 0"/><path style="stroke:none;fill-rule:evenodd;fill:#fff;fill-opacity:1" d="M151.613281 25.757812C151.613281 25.757812 149.6875 22.46875 149.308594 20.367188 148.925781 18.265625 148.96875 15.695312 149.433594 14.972656 149.816406 15.546875 149.667969 17.671875 149.667969 17.671875 149.667969 17.671875 149.921875 15.867188 149.921875 15.695312 149.921875 15.628906 150.429688 16.097656 150.472656 17.265625 150.511719 18.433594 151.019531 19.75 151.019531 19.75 151.019531 19.75 150.597656 16.289062 150.726562 16.058594 150.851562 15.824219 151.191406 16.863281 153.558594 16.820312 152.289062 18.988281 151.78125 20.8125 151.675781 21.808594c-.10546899999999937 1-.0625 3.96875-.0625 3.949218000000002zm0 0"/><path style="stroke:none;fill-rule:evenodd;fill:#fff;fill-opacity:1" d="M161.234375 47.019531C161.386719 47.511719 161.792969 47.984375 161.664062 48.199219 161.535156 48.414062 160.101562 48.667969 159.824219 48.304688 159.546875 47.941406 158.007812 46.183594 158.007812 46.183594 158.007812 46.183594 159.015625 48.328125 158.863281 48.285156 158.714844 48.242188 158.566406 48.5 157.753906 47.617188 156.941406 46.738281 155.660156 44.726562 155.660156 44.726562 155.660156 44.726562 156.300781 46.441406 156.640625 46.804688 156.984375 47.167969 157.199219 47.617188 157.132812 47.769531 157.070312 47.917969 156.535156 47.832031 156.128906 47.382812 155.722656 46.933594 154.976562 46.117188 154.976562 46.117188 154.976562 46.117188 155.894531 47.363281 155.785156 47.449219 155.679688 47.535156 154.613281 46.804688 154.269531 46.183594 153.929688 45.5625 152.921875 44.382812 153.648438 42.066406 154.375 39.75 155.082031 38.871094 155.082031 38.871094 155.082031 38.871094 154.699219 40.992188 155.53125 42.453125 156.363281 43.910156 158.246094 44.789062 159.292969 44.9375 160.339844 45.089844 161.535156 44.960938 161.535156 44.960938 161.535156 44.960938 161.023438 45.925781 161.234375 47.019531zm0 0"/><path style="stroke:none;fill-rule:evenodd;fill:#fff;fill-opacity:1" d="M159.398438 43.394531C159.398438 43.394531 159.546875 42.128906 159.78125 41.980469 160.019531 41.832031 160.574219 41.660156 160.9375 42.042969 161.300781 42.429688 161.878906 42.816406 161.769531 43.417969 161.664062 44.015625 160.296875 44.53125 159.78125 44.382812 159.269531 44.230469 159.207031 44.230469 159.398438 43.394531zm0 0"/><path style="stroke:none;fill-rule:evenodd;fill:#fff;fill-opacity:1" d="M157.28125 43.546875c0 0-1.7734379999999987-1.6523439999999994-1.6875-3.109375C155.679688 38.980469 156.40625 37.371094 157.070312 36.425781 157.730469 35.484375 159.207031 34.324219 159.207031 34.324219 159.207031 34.324219 159.269531 35.332031 159.484375 35.65625 159.699219 35.976562 160.039062 36.726562 160.167969 36.855469 160.296875 36.984375 158.628906 38.121094 157.988281 39.644531 157.347656 41.164062 157.199219 42 157.28125 43.546875zm0 0"/><path style="stroke:none;fill-rule:evenodd;fill:#fff;fill-opacity:1" d="M181.40625 29.050781C181.40625 29.050781 182.398438 28.007812 183.84375 27.464844 183.972656 27.414062 184.40625 27.195312 184.613281 27.8125 184.816406 28.429688 184.980469 29.0625 184.84375 29.71875 184.742188 30.203125 184.773438 30.238281 183.828125 30.296875 183.175781 30.339844 182.542969 30.214844 181.929688 29.988281 182.6875 29.859375 183.75 29.976562 184.035156 29.886719 183.96875 29.398438 183.707031 28.742188 183.84375 28.25 183.597656 28.171875 181.65625 29.367188 181.40625 29.050781zm0 0"/><path style="stroke:none;fill-rule:evenodd;fill:#fff;fill-opacity:1" d="M152.355469 11.976562C152.355469 11.976562 150.089844 12.660156 149.898438 13.5625 149.703125 14.464844 150.046875 14.5 150.28125 14.695312 150.605469 14.96875 151.605469 15.574219 151.707031 15.523438 151.8125 15.46875 151.566406 14.441406 151.617188 13.84375 151.707031 12.824219 152.1875 12.054688 152.355469 11.976562zm0 0"/><path style="stroke:none;fill-rule:evenodd;fill:#fff;fill-opacity:1" d="M178.65625 19.730469 175.226562 19.96875 181.9375 16.128906 183.804688 17.503906 181.585938 19.351562 184.515625 18.761719 185.058594 19.542969 182.882812 20.847656 185.457031 20.917969 185.695312 22.410156 183.921875 23.027344C183.921875 23.027344 185.433594 23.429688 185.742188 23.953125 186.050781 24.472656 186.144531 24.710938 186.144531 24.710938 186.144531 24.710938 182.316406 25.019531 181.039062 25.421875 179.765625 25.824219 173.007812 28.125 173.007812 28.125 173.007812 28.125 172.558594 26.085938 170.480469 25.941406 168.398438 25.800781 167.21875 26.703125 167.101562 27.292969 166.984375 27.886719 167.148438 29.570312 167.597656 30.496094 168.046875 31.417969 169.085938 32.367188 169.511719 32.605469 169.9375 32.839844 171.046875 33.386719 171.046875 33.742188 171.046875 34.097656 171.730469 35.851562 172.488281 36.539062 173.242188 37.226562 174.140625 37.582031 174.613281 37.582031 174.402344 38.199219 173.953125 38.484375 173.457031 38.414062 172.328125 38.25 171 36.941406 170.761719 36.160156 170.527344 35.378906 169.683594 33.679688 169.132812 33.363281 168.800781 33.171875 167.480469 32.628906 167.3125 32.273438 167.148438 31.917969 166.628906 30.828125 166.273438 30.753906 165.917969 30.683594 163.558594 30.875 162.777344 31.417969 161.996094 31.964844 159.164062 33.550781 159.164062 33.550781 159.164062 33.550781 158.691406 33.578125 158.691406 33.195312 158.691406 32.816406 161.027344 30.898438 161.027344 30.898438 161.027344 30.898438 167.265625 24.402344 167.691406 24.234375 168.117188 24.070312 168.457031 23.753906 169.722656 23.597656 170.859375 23.453125 171.164062 23.554688 171.164062 23.554688L168.539062 22.578125C168.539062 22.578125 171.25 21.730469 173.691406 21.4375 175.957031 21.167969 177.757812 20.988281 177.757812 20.988281 177.757812 20.988281 178.582031 20.371094 178.65625 19.730469zm0 0"/><path style="stroke:none;fill-rule:evenodd;fill:#fff;fill-opacity:1" d="M158.5625 32.070312 158.703125 30.265625c0 0 2.078125-3.9726560000000006 3.8476560000000006-4.734375C164.320312 24.769531 167.691406 22.824219 167.691406 22.824219zm0 0"/><path style="stroke:none;fill-rule:evenodd;fill:#fff;fill-opacity:1" d="M169.910156 27.363281C169.910156 27.363281 169.03125 27.0625 168.671875 27.898438c-.25.59375-.25 1.2421870000000013.0 1.6640620000000013C169.023438 30.148438 169.488281 30.152344 169.855469 29.984375 169.402344 29.675781 169.125 29.140625 169.179688 28.574219 169.234375 28.011719 169.460938 27.589844 169.910156 27.363281zm0 0"/><path style="stroke:none;fill-rule:evenodd;fill:#fff;fill-opacity:1" d="M172.382812 34.042969C172.382812 34.042969 172.4375 35.03125 173.308594 35.003906 174.179688 34.972656 174.152344 34.550781 174.207031 34.183594c-.53125.453125-.390625.28125-.8125.28125C173.113281 34.464844 172.773438 34.523438 172.382812 34.042969zm0 0"/><path style="stroke:none;fill-rule:evenodd;fill:#000;fill-opacity:1" d="M34.980469 92.867188C34.871094 92.722656 32.042969 92.574219 30.734375 95.160156 29.429688 97.742188 30.410156 102.871094 30.84375 104.039062 31.28125 105.203125 33.019531 109.136719 36.609375 111.167969 38.023438 111.96875 38.75 112.332031 38.75 112.332031 38.75 112.332031 39.585938 113.714844 39.621094 114.445312 39.65625 115.171875 39.476562 116.117188 38.351562 117.535156 37.226562 118.957031 37.335938 118.480469 36.429688 119.757812 35.523438 121.03125 34.652344 121.828125 34.507812 124.085938 34.363281 126.339844 34.980469 127.871094 36.828125 129.324219 38.675781 130.78125 44.007812 130.671875 44.007812 130.234375 44.007812 129.796875 43.355469 128.414062 43.355469 127.980469 43.355469 127.542969 44.042969 124.414062 43.71875 123.976562 43.390625 123.539062 42.558594 122.558594 41.398438 122.628906 40.84375 122.921875 40.273438 125.757812 40.273438 125.757812 40.273438 125.757812 39.511719 125.832031 39.765625 123.832031 40.019531 121.828125 40.671875 120.703125 41.359375 120.15625 42.050781 119.609375 42.339844 119.246094 42.339844 119.246094 42.339844 119.246094 44.152344 121.429688 44.117188 123.429688 44.082031 125.433594 43.535156 128.707031 43.535156 128.707031L44.082031 130.054688C44.082031 130.054688 47.816406 130.308594 49.992188 132.527344 52.167969 134.746094 55.394531 137.292969 56.011719 137.621094 56.628906 137.949219 58.007812 138.675781 59.566406 138.53125 61.125 138.386719 63.011719 137.621094 63.011719 137.621094 63.011719 137.621094 62.140625 135.65625 62.285156 134.601562 62.429688 133.546875 63.082031 131.945312 62.902344 131.363281 62.71875 130.78125 62.140625 128.925781 62.140625 128.925781 62.140625 128.925781 67.472656 129.105469 68.523438 128.5625 69.574219 128.015625 70.480469 127.46875 70.589844 125.796875 70.699219 124.121094 69.464844 124.121094 69.285156 123.429688 69.101562 122.738281 70.335938 121.539062 70.300781 121.101562 70.261719 120.664062 70.335938 120.339844 70.007812 120.230469 69.683594 120.121094 69.5 119.863281 69.5 119.863281 69.5 119.863281 70.261719 119.210938 70.261719 118.882812 70.261719 118.554688 69.101562 117.574219 69.320312 117.246094 69.539062 116.917969 72.332031 116.589844 72.621094 116.410156 72.910156 116.226562 73.019531 115.828125 72.800781 115.316406 72.585938 114.808594 68.921875 109.785156 68.921875 109.785156c0 0-.07421899999999937-4.109375-.36328100000000063-5.203125C68.269531 103.492188 65.984375 96.980469 60.980469 94.539062 55.976562 92.101562 49.808594 94.175781 48.757812 94.539062 47.707031 94.90625 39.761719 97.257812 38.316406 102.910156 37.261719 107.019531 38.097656 109.53125 38.097656 109.53125 38.097656 109.53125 36.03125 108.367188 35.339844 106.585938 34.652344 104.800781 34.109375 103.78125 34.289062 102.835938 34.472656 101.890625 35.488281 98.289062 36.863281 97.597656 35.160156 97.523438 34.253906 97.414062 34.253906 97.414062 34.253906 97.414062 33.601562 93.742188 34.980469 92.867188zm0 0"/><path style="stroke:none;fill-rule:evenodd;fill:#fff;fill-opacity:1" d="M33.765625 104.511719C33.765625 104.511719 33.433594 107.328125 34.546875 108.585938 35.878906 110.097656 38.039062 111.472656 38.332031 111.601562 38.628906 111.726562 38.164062 110.539062 38.164062 110.539062 38.164062 110.539062 35.203125 108.671875 33.765625 104.511719zm0 0"/><path style="stroke:none;fill-rule:evenodd;fill:#fff;fill-opacity:1" d="M33.257812 107.269531C33.257812 107.269531 31.332031 103.980469 30.949219 101.878906 30.570312 99.777344 30.613281 97.210938 31.078125 96.488281 31.457031 97.0625 31.308594 99.183594 31.308594 99.183594 31.308594 99.183594 31.5625 97.378906 31.5625 97.210938 31.5625 97.140625 32.070312 97.613281 32.113281 98.78125 32.15625 99.949219 32.664062 101.261719 32.664062 101.261719 32.664062 101.261719 32.242188 97.804688 32.367188 97.570312 32.496094 97.335938 32.832031 98.375 35.203125 98.335938 33.933594 100.5 33.425781 102.324219 33.320312 103.324219 33.214844 104.320312 33.257812 107.292969 33.257812 107.269531zm0 0"/><path style="stroke:none;fill-rule:evenodd;fill:#fff;fill-opacity:1" d="M42.878906 128.53125C43.027344 129.023438 43.433594 129.496094 43.304688 129.710938 43.179688 129.925781 41.746094 130.183594 41.46875 129.816406 41.191406 129.453125 39.652344 127.695312 39.652344 127.695312 39.652344 127.695312 40.65625 129.839844 40.507812 129.796875 40.355469 129.753906 40.207031 130.011719 39.394531 129.132812 38.582031 128.253906 37.300781 126.238281 37.300781 126.238281c0 0 .640625 1.7148439999999994.984375 2.078125C38.625 128.683594 38.839844 129.132812 38.777344 129.28125 38.710938 129.433594 38.175781 129.347656 37.773438 128.894531 37.367188 128.445312 36.617188 127.632812 36.617188 127.632812 36.617188 127.632812 37.535156 128.875 37.429688 128.960938 37.324219 129.046875 36.253906 128.316406 35.914062 127.695312 35.570312 127.074219 34.566406 125.894531 35.292969 123.578125 36.019531 121.261719 36.722656 120.382812 36.722656 120.382812 36.722656 120.382812 36.339844 122.507812 37.171875 123.964844 38.007812 125.421875 39.886719 126.300781 40.933594 126.453125 41.980469 126.601562 43.179688 126.472656 43.179688 126.472656 43.179688 126.472656 42.664062 127.4375 42.878906 128.53125zm0 0"/><path style="stroke:none;fill-rule:evenodd;fill:#fff;fill-opacity:1" d="M41.039062 124.910156C41.039062 124.910156 41.191406 123.644531 41.425781 123.492188 41.660156 123.34375 42.214844 123.171875 42.578125 123.558594 42.941406 123.945312 43.519531 124.328125 43.414062 124.929688 43.304688 125.53125 41.9375 126.042969 41.425781 125.894531 40.914062 125.746094 40.847656 125.746094 41.039062 124.910156zm0 0"/><path style="stroke:none;fill-rule:evenodd;fill:#fff;fill-opacity:1" d="M38.925781 125.058594c0 0-1.7734370000000013-1.6523439999999994-1.6875-3.109375C37.324219 120.492188 38.050781 118.882812 38.710938 117.941406 39.375 116.996094 40.847656 115.839844 40.847656 115.839844 40.847656 115.839844 40.914062 116.847656 41.125 117.167969 41.339844 117.488281 41.683594 118.242188 41.808594 118.371094 41.9375 118.496094 40.273438 119.632812 39.628906 121.15625 38.988281 122.679688 38.839844 123.515625 38.925781 125.058594zm0 0"/><path style="stroke:none;fill-rule:evenodd;fill:#fff;fill-opacity:1" d="M63.046875 110.5625C63.046875 110.5625 64.042969 109.523438 65.484375 108.980469 65.617188 108.929688 66.050781 108.707031 66.253906 109.328125 66.460938 109.945312 66.625 110.574219 66.484375 111.230469 66.382812 111.714844 66.417969 111.753906 65.472656 111.8125 64.820312 111.851562 64.183594 111.726562 63.574219 111.503906 64.332031 111.375 65.394531 111.488281 65.675781 111.398438 65.609375 110.914062 65.347656 110.253906 65.484375 109.765625 65.242188 109.6875 63.300781 110.878906 63.046875 110.5625zm0 0"/><path style="stroke:none;fill-rule:evenodd;fill:#fff;fill-opacity:1" d="M34 93.488281C34 93.488281 31.730469 94.171875 31.539062 95.074219 31.347656 95.980469 31.691406 96.011719 31.921875 96.210938 32.246094 96.484375 33.246094 97.085938 33.351562 97.035156 33.453125 96.984375 33.207031 95.953125 33.261719 95.355469 33.351562 94.335938 33.832031 93.566406 34 93.488281zm0 0"/><path style="stroke:none;fill-rule:evenodd;fill:#fff;fill-opacity:1" d="M60.296875 101.246094 56.871094 101.480469 63.582031 97.640625 65.449219 99.015625 63.226562 100.867188 66.15625 100.273438 66.699219 101.054688 64.527344 102.359375 67.101562 102.429688 67.335938 103.921875 65.566406 104.539062C65.566406 104.539062 67.078125 104.941406 67.386719 105.464844 67.691406 105.984375 67.785156 106.222656 67.785156 106.222656 67.785156 106.222656 63.960938 106.53125 62.683594 106.933594 61.40625 107.335938 54.648438 109.636719 54.648438 109.636719 54.648438 109.636719 54.203125 107.597656 52.121094 107.457031 50.042969 107.3125 48.863281 108.214844 48.742188 108.808594 48.625 109.398438 48.789062 111.082031 49.238281 112.007812 49.6875 112.933594 50.726562 113.878906 51.152344 114.117188 51.578125 114.355469 52.6875 114.898438 52.6875 115.253906 52.6875 115.609375 53.375 117.363281 54.128906 118.050781 54.886719 118.738281 55.785156 119.097656 56.257812 119.097656 56.042969 119.710938 55.59375 119.996094 55.097656 119.925781 53.96875 119.761719 52.640625 118.457031 52.40625 117.671875 52.167969 116.890625 51.328125 115.191406 50.773438 114.875 50.445312 114.6875 49.121094 114.140625 48.957031 113.785156 48.789062 113.429688 48.269531 112.339844 47.917969 112.269531 47.5625 112.195312 45.199219 112.386719 44.417969 112.933594 43.640625 113.476562 40.804688 115.066406 40.804688 115.066406 40.804688 115.066406 40.332031 115.089844 40.332031 114.710938 40.332031 114.332031 42.671875 112.410156 42.671875 112.410156 42.671875 112.410156 48.910156 105.914062 49.335938 105.75 49.757812 105.582031 50.101562 105.265625 51.367188 105.109375 52.5 104.96875 52.808594 105.066406 52.808594 105.066406L50.179688 104.089844C50.179688 104.089844 52.894531 103.242188 55.335938 102.953125 57.601562 102.683594 59.398438 102.5 59.398438 102.5 59.398438 102.5 60.226562 101.886719 60.296875 101.246094zm0 0"/><path style="stroke:none;fill-rule:evenodd;fill:#fff;fill-opacity:1" d="M40.203125 113.582031 40.34375 111.78125C40.34375 111.78125 42.421875 107.804688 44.191406 107.042969 45.960938 106.285156 49.332031 104.339844 49.332031 104.339844zm0 0"/><path style="stroke:none;fill-rule:evenodd;fill:#fff;fill-opacity:1" d="M51.550781 108.875C51.550781 108.875 50.671875 108.574219 50.316406 109.414062 50.0625 110.003906 50.0625 110.652344 50.316406 111.074219 50.667969 111.660156 51.132812 111.667969 51.496094 111.5 51.046875 111.1875 50.765625 110.652344 50.820312 110.089844 50.878906 109.523438 51.101562 109.101562 51.550781 108.875zm0 0"/><path style="stroke:none;fill-rule:evenodd;fill:#fff;fill-opacity:1" d="M54.023438 115.558594C54.023438 115.558594 54.082031 116.542969 54.953125 116.515625 55.824219 116.488281 55.792969 116.0625 55.851562 115.699219 55.316406 116.148438 55.457031 115.980469 55.035156 115.980469 54.753906 115.980469 54.417969 116.035156 54.023438 115.558594zm0 0"/><path style="stroke:none;fill-rule:evenodd;fill:#000;fill-opacity:1" d="M153.335938 92.867188C153.226562 92.722656 150.398438 92.574219 149.09375 95.160156 147.789062 97.742188 148.765625 102.871094 149.203125 104.039062 149.636719 105.203125 151.375 109.136719 154.96875 111.167969 156.382812 111.96875 157.109375 112.332031 157.109375 112.332031 157.109375 112.332031 157.941406 113.714844 157.976562 114.445312 158.015625 115.171875 157.832031 116.117188 156.707031 117.535156 155.585938 118.957031 155.691406 118.480469 154.785156 119.757812 153.878906 121.03125 153.011719 121.828125 152.863281 124.085938 152.71875 126.339844 153.335938 127.871094 155.1875 129.324219 157.035156 130.78125 162.367188 130.671875 162.367188 130.234375 162.367188 129.796875 161.714844 128.414062 161.714844 127.980469c0-.4375.6875-3.566406999999998.359375-4.003906999999998C161.75 123.539062 160.914062 122.558594 159.753906 122.628906 159.199219 122.921875 158.628906 125.757812 158.628906 125.757812 158.628906 125.757812 157.867188 125.832031 158.121094 123.832031 158.375 121.828125 159.03125 120.703125 159.71875 120.15625 160.40625 119.609375 160.699219 119.246094 160.699219 119.246094 160.699219 119.246094 162.511719 121.429688 162.472656 123.429688 162.4375 125.433594 161.894531 128.707031 161.894531 128.707031L162.4375 130.054688C162.4375 130.054688 166.171875 130.308594 168.347656 132.527344 170.523438 134.746094 173.753906 137.292969 174.367188 137.621094 174.984375 137.949219 176.363281 138.675781 177.921875 138.53125 179.480469 138.386719 181.367188 137.621094 181.367188 137.621094 181.367188 137.621094 180.496094 135.65625 180.640625 134.601562 180.789062 133.546875 181.441406 131.945312 181.257812 131.363281 181.078125 130.78125 180.496094 128.925781 180.496094 128.925781 180.496094 128.925781 185.828125 129.105469 186.878906 128.5625 187.929688 128.015625 188.839844 127.46875 188.945312 125.796875 189.054688 124.121094 187.824219 124.121094 187.640625 123.429688 187.460938 122.738281 188.691406 121.539062 188.65625 121.101562 188.621094 120.664062 188.691406 120.339844 188.367188 120.230469 188.039062 120.121094 187.859375 119.863281 187.859375 119.863281 187.859375 119.863281 188.621094 119.210938 188.621094 118.882812 188.621094 118.554688 187.460938 117.574219 187.675781 117.246094 187.894531 116.917969 190.6875 116.589844 190.976562 116.410156 191.269531 116.226562 191.375 115.828125 191.160156 115.316406 190.941406 114.808594 187.277344 109.785156 187.277344 109.785156c0 0-.07031299999999874-4.109375-.359375-5.203125C186.625 103.492188 184.339844 96.980469 179.335938 94.539062 174.332031 92.101562 168.167969 94.175781 167.117188 94.539062 166.066406 94.90625 158.117188 97.257812 156.671875 102.910156 155.621094 107.019531 156.453125 109.53125 156.453125 109.53125 156.453125 109.53125 154.386719 108.367188 153.699219 106.585938 153.011719 104.800781 152.464844 103.78125 152.648438 102.835938 152.828125 101.890625 153.84375 98.289062 155.222656 97.597656 153.515625 97.523438 152.609375 97.414062 152.609375 97.414062 152.609375 97.414062 151.957031 93.742188 153.335938 92.867188zm0 0"/><path style="stroke:none;fill-rule:evenodd;fill:#fff;fill-opacity:1" d="M152.121094 104.511719c0 0-.328125 2.8164060000000006.78125 4.074218999999999C154.238281 110.097656 156.394531 111.472656 156.691406 111.601562c.296875.125-.171875-1.0625-.171875-1.0625C156.519531 110.539062 153.558594 108.671875 152.121094 104.511719zm0 0"/><path style="stroke:none;fill-rule:evenodd;fill:#fff;fill-opacity:1" d="M151.613281 107.269531C151.613281 107.269531 149.6875 103.980469 149.308594 101.878906 148.925781 99.777344 148.96875 97.210938 149.433594 96.488281 149.816406 97.0625 149.667969 99.183594 149.667969 99.183594 149.667969 99.183594 149.921875 97.378906 149.921875 97.210938 149.921875 97.140625 150.429688 97.613281 150.472656 98.78125 150.511719 99.949219 151.019531 101.261719 151.019531 101.261719 151.019531 101.261719 150.597656 97.804688 150.726562 97.570312 150.851562 97.335938 151.191406 98.375 153.558594 98.335938 152.289062 100.5 151.78125 102.324219 151.675781 103.324219 151.570312 104.320312 151.613281 107.292969 151.613281 107.269531zm0 0"/><path style="stroke:none;fill-rule:evenodd;fill:#fff;fill-opacity:1" d="M161.234375 128.53125C161.386719 129.023438 161.792969 129.496094 161.664062 129.710938 161.535156 129.925781 160.101562 130.183594 159.824219 129.816406 159.546875 129.453125 158.007812 127.695312 158.007812 127.695312 158.007812 127.695312 159.015625 129.839844 158.863281 129.796875 158.714844 129.753906 158.566406 130.011719 157.753906 129.132812 156.941406 128.253906 155.660156 126.238281 155.660156 126.238281c0 0 .640625 1.7148439999999994.9804689999999994 2.078125C156.984375 128.683594 157.199219 129.132812 157.132812 129.28125 157.070312 129.433594 156.535156 129.347656 156.128906 128.894531 155.722656 128.445312 154.976562 127.632812 154.976562 127.632812 154.976562 127.632812 155.894531 128.875 155.785156 128.960938 155.679688 129.046875 154.613281 128.316406 154.269531 127.695312 153.929688 127.074219 152.921875 125.894531 153.648438 123.578125 154.375 121.261719 155.082031 120.382812 155.082031 120.382812 155.082031 120.382812 154.699219 122.507812 155.53125 123.964844 156.363281 125.421875 158.246094 126.300781 159.292969 126.453125 160.339844 126.601562 161.535156 126.472656 161.535156 126.472656 161.535156 126.472656 161.023438 127.4375 161.234375 128.53125zm0 0"/><path style="stroke:none;fill-rule:evenodd;fill:#fff;fill-opacity:1" d="M159.398438 124.910156C159.398438 124.910156 159.546875 123.644531 159.78125 123.492188 160.019531 123.34375 160.574219 123.171875 160.9375 123.558594 161.300781 123.945312 161.878906 124.328125 161.769531 124.929688 161.664062 125.53125 160.296875 126.042969 159.78125 125.894531 159.269531 125.746094 159.207031 125.746094 159.398438 124.910156zm0 0"/><path style="stroke:none;fill-rule:evenodd;fill:#fff;fill-opacity:1" d="M157.28125 125.058594c0 0-1.7734379999999987-1.6523439999999994-1.6875-3.109375C155.679688 120.492188 156.40625 118.882812 157.070312 117.941406 157.730469 116.996094 159.207031 115.839844 159.207031 115.839844c0 0 .0625 1.0078120000000013.27734399999999937 1.328125C159.699219 117.488281 160.039062 118.242188 160.167969 118.371094 160.296875 118.496094 158.628906 119.632812 157.988281 121.15625 157.347656 122.679688 157.199219 123.515625 157.28125 125.058594zm0 0"/><path style="stroke:none;fill-rule:evenodd;fill:#fff;fill-opacity:1" d="M181.40625 110.5625C181.40625 110.5625 182.398438 109.523438 183.84375 108.980469 183.972656 108.929688 184.40625 108.707031 184.613281 109.328125 184.816406 109.945312 184.980469 110.574219 184.84375 111.230469 184.742188 111.714844 184.773438 111.753906 183.828125 111.8125 183.175781 111.851562 182.542969 111.726562 181.929688 111.503906 182.6875 111.375 183.75 111.488281 184.035156 111.398438 183.96875 110.914062 183.707031 110.253906 183.84375 109.765625 183.597656 109.6875 181.65625 110.878906 181.40625 110.5625zm0 0"/><path style="stroke:none;fill-rule:evenodd;fill:#fff;fill-opacity:1" d="M152.355469 93.488281C152.355469 93.488281 150.089844 94.171875 149.898438 95.074219 149.703125 95.980469 150.046875 96.011719 150.28125 96.210938 150.605469 96.484375 151.605469 97.085938 151.707031 97.035156 151.8125 96.984375 151.566406 95.953125 151.617188 95.355469 151.707031 94.335938 152.1875 93.566406 152.355469 93.488281zm0 0"/><path style="stroke:none;fill-rule:evenodd;fill:#fff;fill-opacity:1" d="M178.65625 101.246094 175.226562 101.480469 181.9375 97.640625 183.804688 99.015625 181.585938 100.867188 184.515625 100.273438 185.058594 101.054688 182.882812 102.359375 185.457031 102.429688 185.695312 103.921875 183.921875 104.539062C183.921875 104.539062 185.433594 104.941406 185.742188 105.464844 186.050781 105.984375 186.144531 106.222656 186.144531 106.222656 186.144531 106.222656 182.316406 106.53125 181.039062 106.933594 179.765625 107.335938 173.007812 109.636719 173.007812 109.636719 173.007812 109.636719 172.558594 107.597656 170.480469 107.457031 168.398438 107.3125 167.21875 108.214844 167.101562 108.808594 166.984375 109.398438 167.148438 111.082031 167.597656 112.007812 168.046875 112.933594 169.085938 113.878906 169.511719 114.117188 169.9375 114.355469 171.046875 114.898438 171.046875 115.253906 171.046875 115.609375 171.730469 117.363281 172.488281 118.050781 173.242188 118.738281 174.140625 119.097656 174.613281 119.097656 174.402344 119.710938 173.953125 119.996094 173.457031 119.925781 172.328125 119.761719 171 118.457031 170.761719 117.671875 170.527344 116.890625 169.683594 115.191406 169.132812 114.875 168.800781 114.6875 167.480469 114.140625 167.3125 113.785156 167.148438 113.429688 166.628906 112.339844 166.273438 112.269531 165.917969 112.195312 163.558594 112.386719 162.777344 112.933594 161.996094 113.476562 159.164062 115.066406 159.164062 115.066406 159.164062 115.066406 158.691406 115.089844 158.691406 114.710938 158.691406 114.332031 161.027344 112.410156 161.027344 112.410156 161.027344 112.410156 167.265625 105.914062 167.691406 105.75 168.117188 105.582031 168.457031 105.265625 169.722656 105.109375 170.859375 104.96875 171.164062 105.066406 171.164062 105.066406L168.539062 104.089844C168.539062 104.089844 171.25 103.242188 173.691406 102.953125 175.957031 102.683594 177.757812 102.5 177.757812 102.5 177.757812 102.5 178.582031 101.886719 178.65625 101.246094zm0 0"/><path style="stroke:none;fill-rule:evenodd;fill:#fff;fill-opacity:1" d="M158.5625 113.582031 158.703125 111.78125C158.703125 111.78125 160.78125 107.804688 162.550781 107.042969 164.320312 106.285156 167.691406 104.339844 167.691406 104.339844zm0 0"/><path style="stroke:none;fill-rule:evenodd;fill:#fff;fill-opacity:1" d="M169.910156 108.875C169.910156 108.875 169.03125 108.574219 168.671875 109.414062c-.25.5898439999999994-.25 1.238281999999998.0 1.660156999999998C169.023438 111.660156 169.488281 111.667969 169.855469 111.5 169.402344 111.1875 169.125 110.652344 169.179688 110.089844 169.234375 109.523438 169.460938 109.101562 169.910156 108.875zm0 0"/><path style="stroke:none;fill-rule:evenodd;fill:#fff;fill-opacity:1" d="M172.382812 115.558594C172.382812 115.558594 172.4375 116.542969 173.308594 116.515625 174.179688 116.488281 174.152344 116.0625 174.207031 115.699219c-.53125.44921899999999937-.390625.28125-.8125.28125C173.113281 115.980469 172.773438 116.035156 172.382812 115.558594zm0 0"/></g></svg>