<svg xmlns="http://www.w3.org/2000/svg" xmlns:xlink="http://www.w3.org/1999/xlink" width="225pt" height="150pt" viewBox="0 0 225 150"><defs><radialGradient id="radial0" gradientUnits="userSpaceOnUse" cx="79.311195" cy="182.97906" fx="79.311195" fy="182.97906" r="10.848755" gradientTransform="matrix(1,0,0,0.948274,0,9.464744)"><stop offset="0" style="stop-color:#014004;stop-opacity:1"/><stop offset="1" style="stop-color:#014004;stop-opacity:0"/></radialGradient><radialGradient id="radial1" gradientUnits="userSpaceOnUse" cx="86.411697" cy="158.86601" fx="86.411697" fy="158.86601" r="10.747751" gradientTransform="matrix(1,0,-0.000000000000000014,1.016389,0,-2.603596)"><stop offset="0" style="stop-color:#014004;stop-opacity:1"/><stop offset="1" style="stop-color:#014004;stop-opacity:0"/></radialGradient><radialGradient id="radial2" gradientUnits="userSpaceOnUse" cx="63.26545" cy="165.39787" fx="63.26545" fy="165.39787" r="6.975572" gradientTransform="matrix(1,0,0,1.351548,0,-58.145304)"><stop offset="0" style="stop-color:#014004;stop-opacity:1"/><stop offset="1" style="stop-color:#014004;stop-opacity:0"/></radialGradient><radialGradient id="radial3" gradientUnits="userSpaceOnUse" cx="62.873631" cy="141.39333" fx="62.873631" fy="141.39333" r="9.732916" gradientTransform="matrix(1,0,-0.000000000000000007,0.725878,0.000000000000001776,38.759054)"><stop offset="0" style="stop-color:#014004;stop-opacity:1"/><stop offset="1" style="stop-color:#014004;stop-opacity:0"/></radialGradient><radialGradient id="radial4" gradientUnits="userSpaceOnUse" cx="59.14267" cy="118.90606" fx="59.14267" fy="118.90606" r="6.907371" gradientTransform="matrix(1,0,-0.000000000000000014,1.157971,-0.000000000000001776,-18.783666)"><stop offset="0" style="stop-color:#014004;stop-opacity:1"/><stop offset="1" style="stop-color:#014004;stop-opacity:0"/></radialGradient><radialGradient id="radial5" gradientUnits="userSpaceOnUse" cx="77.340126" cy="102.59047" fx="77.340126" fy="102.59047" r="8.255014" gradientTransform="matrix(1,0,-0.000000000000000007,0.694891,-0.000000000000001776,31.30127)"><stop offset="0" style="stop-color:#014004;stop-opacity:1"/><stop offset="1" style="stop-color:#014004;stop-opacity:0"/></radialGradient><radialGradient id="radial6" gradientUnits="userSpaceOnUse" cx="95.646194" cy="127.45675" fx="95.646194" fy="127.45675" r="9.389383" gradientTransform="matrix(1,0,0,0.977248,-0.000000000000001776,2.89989)"><stop offset="0" style="stop-color:#014004;stop-opacity:1"/><stop offset="1" style="stop-color:#014004;stop-opacity:0"/></radialGradient><radialGradient id="radial7" gradientUnits="userSpaceOnUse" cx="79.311195" cy="182.97906" fx="79.311195" fy="182.97906" r="10.848755" gradientTransform="matrix(1,0.000000000000000056,0,0.948274,0.000000000000113687,9.464744)"><stop offset="0" style="stop-color:#014004;stop-opacity:1"/><stop offset="1" style="stop-color:#014004;stop-opacity:0"/></radialGradient><radialGradient id="radial8" gradientUnits="userSpaceOnUse" cx="86.411697" cy="158.86601" fx="86.411697" fy="158.86601" r="10.747751" gradientTransform="matrix(1,0.000000000000000056,0,1.016389,0.000000000000056843,-2.603596)"><stop offset="0" style="stop-color:#014004;stop-opacity:1"/><stop offset="1" style="stop-color:#014004;stop-opacity:0"/></radialGradient><radialGradient id="radial9" gradientUnits="userSpaceOnUse" cx="63.26545" cy="165.39787" fx="63.26545" fy="165.39787" r="6.975572" gradientTransform="matrix(1,0.000000000000000028,-0.000000000000000014,1.351548,0,-58.145304)"><stop offset="0" style="stop-color:#014004;stop-opacity:1"/><stop offset="1" style="stop-color:#014004;stop-opacity:0"/></radialGradient><radialGradient id="radial10" gradientUnits="userSpaceOnUse" cx="62.873631" cy="141.39333" fx="62.873631" fy="141.39333" r="9.732916" gradientTransform="matrix(1,0,-0.000000000000000007,0.725878,-0.000000000000056843,38.759054)"><stop offset="0" style="stop-color:#014004;stop-opacity:1"/><stop offset="1" style="stop-color:#014004;stop-opacity:0"/></radialGradient><radialGradient id="radial11" gradientUnits="userSpaceOnUse" cx="59.14267" cy="118.90606" fx="59.14267" fy="118.90606" r="6.907371" gradientTransform="matrix(1,0.000000000000000056,0,1.157971,0,-18.783666)"><stop offset="0" style="stop-color:#014004;stop-opacity:1"/><stop offset="1" style="stop-color:#014004;stop-opacity:0"/></radialGradient><radialGradient id="radial12" gradientUnits="userSpaceOnUse" cx="77.340126" cy="102.59047" fx="77.340126" fy="102.59047" r="8.255014" gradientTransform="matrix(1,0.000000000000000056,0,0.694891,-0.000000000000056843,31.30127)"><stop offset="0" style="stop-color:#014004;stop-opacity:1"/><stop offset="1" style="stop-color:#014004;stop-opacity:0"/></radialGradient><radialGradient id="radial13" gradientUnits="userSpaceOnUse" cx="95.646194" cy="127.45675" fx="95.646194" fy="127.45675" r="9.389383" gradientTransform="matrix(1,0,0,0.977248,0.000000000000056843,2.89989)"><stop offset="0" style="stop-color:#014004;stop-opacity:1"/><stop offset="1" style="stop-color:#014004;stop-opacity:0"/></radialGradient></defs><g id="surface1"><path d="M0 0h225v150H0z" style="fill:#0047ab;fill-opacity:1;stroke:none"/><path style="fill-rule:evenodd;fill:#ffdf00;fill-opacity:.941176;stroke-width:1.25;stroke-linecap:butt;stroke-linejoin:miter;stroke:#000;stroke-opacity:1;stroke-miterlimit:4" d="M61.454698 74.332794C54.468101 86.830179 34.977814 86.830179 33.972363 91.325641 32.979802 95.821103 36.975826 100.072525 36.975826 100.072525 36.975826 100.072525 65.708531 91.068757 71.702567 82.077833 77.696604 73.086909 61.454698 74.332794 61.454698 74.332794zm0 0" transform="matrix(-0.303036,0,0,0.304126,90.974522,2.901267)"/><path style="fill-rule:evenodd;fill:#ffdf00;fill-opacity:1;stroke-width:1.25;stroke-linecap:butt;stroke-linejoin:miter;stroke:#000;stroke-opacity:1;stroke-miterlimit:4" d="M33.830569 92.944007C33.456747 96.18074 45.225683 92.070603 47.713531 92.327487 50.214269 92.571526 52.715006 95.564219 51.722445 97.323871 50.716994 99.07068 44.46515 101.819333 41.229659 102.063373 37.981278 102.320256 33.302062 96.604598 33.830569 92.944007zm0 0" transform="matrix(-0.303036,0,0,0.304126,90.974522,2.901267)"/><path style="fill-rule:evenodd;fill:#ffdf00;fill-opacity:.941176;stroke-width:1.25;stroke-linecap:butt;stroke-linejoin:miter;stroke:#000;stroke-opacity:1;stroke-miterlimit:4" d="M39.97929 111.144206C36.975826 101.896399 54.094279 95.358712 47.571736 93.637593 51.077925 93.457774 56.337209 97.580755 53.720458 101.151436 52.766568 102.435854 40.726933 105.145975 39.97929 111.144206zm0 0" transform="matrix(-0.303036,0,0,0.304126,90.974522,2.901267)"/><path style="fill-rule:evenodd;fill:#ffdf00;fill-opacity:1;stroke-width:1.25;stroke-linecap:butt;stroke-linejoin:miter;stroke:#000;stroke-opacity:1;stroke-miterlimit:4" d="M61.456862 74.33163C54.470264 86.829014 34.979978 86.829014 33.974526 91.324476 32.981965 95.819938 36.97799 100.071361 36.97799 100.071361 36.97799 100.071361 65.710694 91.067593 71.704731 82.076669 77.698767 73.085745 61.456862 74.33163 61.456862 74.33163zm0 0" transform="matrix(0.303036,0,0,0.304126,3.688885,2.737558)"/><path style="fill-rule:evenodd;fill:#ffdf00;fill-opacity:.941176;stroke-width:1.25;stroke-linecap:butt;stroke-linejoin:miter;stroke:#000;stroke-opacity:1;stroke-miterlimit:4" d="M33.832732 92.955687C33.45891 96.179575 45.214956 92.069439 47.715694 92.326322 50.216432 92.570362 52.71717 95.575899 51.711718 97.322707 50.719157 99.069515 44.467313 101.818169 41.218932 102.062208 37.970551 102.319092 33.304225 96.616277 33.832732 92.955687zm0 0" transform="matrix(0.303036,0,0,0.304126,3.688885,2.737558)"/><path style="fill-rule:evenodd;fill:#ffdf00;fill-opacity:1;stroke-width:1.25;stroke-linecap:butt;stroke-linejoin:miter;stroke:#000;stroke-opacity:1;stroke-miterlimit:4" d="M39.968563 109.807247C36.97799 100.572284 54.096443 94.034598 47.5739 92.313478 51.080089 92.133659 56.339372 96.243796 53.709731 99.814477 52.768731 101.098895 40.729097 103.809016 39.968563 109.807247zm0 0" transform="matrix(0.303036,0,0,0.304126,3.688885,2.737558)"/><path style="fill-rule:evenodd;fill:#ffdf00;fill-opacity:1;stroke-width:1.25;stroke-linecap:butt;stroke-linejoin:miter;stroke:#000;stroke-opacity:1;stroke-miterlimit:4" d="M37.167868 56.016514C32.333968 45.70264 49.76179 33.860309 33.249186 42.530128 34.821815 32.90984 46.629423 37.238327 46.629423 40.963139 46.629423 44.68795 41.692399 48.322852 41.782632 51.32839 41.859974 54.321083 46.796998 56.427528 46.796998 56.427528zm0 0" transform="matrix(-0.303036,0,0,0.304126,90.724123,2.647507)"/><path style="fill-rule:evenodd;fill:#ffdf00;fill-opacity:1;stroke-width:1.25;stroke-linecap:butt;stroke-linejoin:miter;stroke:#000;stroke-opacity:1;stroke-miterlimit:4" d="M63.013123 38.497057C53.306651 37.469523 48.1376 55.451371 37.180759 56.273398 36.884279 57.275244 39.733058 60.075274 45.237259 60.100963 53.409774 60.139495 69.767693 43.878767 69.767693 43.878767zm0 0" transform="matrix(-0.303036,0,0,0.304126,90.724123,2.647507)"/><path style="fill-rule:evenodd;fill:#ffdf00;fill-opacity:1;stroke-width:1.25;stroke-linecap:butt;stroke-linejoin:miter;stroke:#000;stroke-opacity:1;stroke-miterlimit:4" d="M51.553556 68.835003C51.837145 61.770706 65.436518 52.49721 66.622435 44.970522 67.473201 39.601656 62.381493 38.471368 62.381493 38.471368 62.381493 38.471368 68.878255 36.493365 82.993245 55.977982 97.108234 75.449754 51.734022 68.860691 51.553556 68.835003zm0 0" transform="matrix(-0.303036,0,0,0.304126,90.724123,2.647507)"/><path style="fill-rule:evenodd;fill:#ffdf00;fill-opacity:1;stroke-width:1.25;stroke-linecap:butt;stroke-linejoin:miter;stroke:#000;stroke-opacity:1;stroke-miterlimit:4" d="M37.158455 56.015833C32.337445 45.701959 49.765268 33.859628 33.252664 42.529447 34.812402 32.909159 46.6329 37.237647 46.6329 40.962458 46.6329 44.687269 41.695877 48.322171 41.773219 51.327709 41.863452 54.320402 46.800475 56.426847 46.800475 56.426847zm0 0" transform="matrix(0.303036,0,0,0.304126,3.688885,2.737558)"/><path style="fill-rule:evenodd;fill:#ffdf00;fill-opacity:1;stroke-width:1.25;stroke-linecap:butt;stroke-linejoin:miter;stroke:#000;stroke-opacity:1;stroke-miterlimit:4" d="M63.0166 38.496376C53.310128 37.468842 48.141077 55.45069 37.184236 56.272717 36.874867 57.274563 39.736536 60.074593 45.227847 60.100282 53.413251 60.151658 69.75828 43.878086 69.75828 43.878086zm0 0" transform="matrix(0.303036,0,0,0.304126,3.688885,2.737558)"/><path style="fill-rule:evenodd;fill:#ffdf00;fill-opacity:1;stroke-width:1.25;stroke-linecap:butt;stroke-linejoin:miter;stroke:#000;stroke-opacity:1;stroke-miterlimit:4" d="M51.557034 68.834322C51.840622 61.770025 65.427105 52.496529 66.625913 44.969841 67.463789 39.600975 62.384971 38.470688 62.384971 38.470688 62.384971 38.470688 68.881733 36.492684 82.996722 55.977301 97.111712 75.449073 51.737499 68.860011 51.557034 68.834322zm0 0" transform="matrix(0.303036,0,0,0.304126,3.688885,2.737558)"/><path style="fill-rule:evenodd;fill:#ffdf00;fill-opacity:1;stroke-width:1.25;stroke-linecap:butt;stroke-linejoin:miter;stroke:#000;stroke-opacity:1;stroke-miterlimit:4" d="M52.188663 68.693036C71.640279 68.937076 94.353166 31.085286 143.749183 31.085286 193.312776 31.085286 220.42129 67.305865 234.458937 67.93523 241.265069 68.230646 216.347923 91.979529 212.609707 92.19788 204.35985 92.673115 173.397106 58.995683 144.239018 58.995683 119.038284 58.995683 91.182127 90.964839 75.159358 90.579514 72.117224 90.515293 47.174297 68.628815 52.188663 68.693036zm0 0" transform="matrix(0.303036,0,0,0.304126,3.688885,2.737558)"/><path style="stroke:none;fill-rule:nonzero;fill:#000;fill-opacity:1" d="M67.535156 22.558594 64.269531 26.65625l-.796875-.640625L64.488281 23.773438 63 25.636719 62.242188 25.027344 65.511719 20.933594 66.269531 21.542969 65.304688 23.792969 66.777344 21.949219 67.535156 22.558594"/><path style="stroke:none;fill-rule:nonzero;fill:#000;fill-opacity:1" d="M61.84375 18.472656 62.539062 18.910156C63.003906 19.199219 63.304688 19.417969 63.441406 19.5625 63.582031 19.710938 63.648438 19.902344 63.644531 20.140625 63.640625 20.378906 63.519531 20.6875 63.285156 21.066406 63.066406 21.414062 62.886719 21.621094 62.738281 21.695312 62.589844 21.769531 62.402344 21.75 62.171875 21.636719 62.332031 21.816406 62.414062 21.976562 62.421875 22.113281 62.429688 22.25 62.417969 22.363281 62.382812 22.453125 62.351562 22.542969 62.222656 22.769531 62 23.125L61.265625 24.300781 60.351562 23.726562 61.273438 22.246094C61.421875 22.007812 61.5 21.851562 61.5 21.773438 61.503906 21.699219 61.441406 21.617188 61.304688 21.53125L60.054688 23.539062 59.070312 22.917969 61.84375 18.472656M62.351562 19.851562 61.734375 20.839844C61.847656 20.910156 61.933594 20.941406 62 20.933594 62.066406 20.925781 62.164062 20.824219 62.285156 20.625L62.4375 20.382812C62.527344 20.242188 62.5625 20.136719 62.546875 20.0625 62.53125 19.992188 62.464844 19.921875 62.351562 19.851562"/><path style="stroke:none;fill-rule:nonzero;fill:#000;fill-opacity:1" d="M58.867188 20.359375C58.65625 20.832031 58.496094 21.164062 58.386719 21.351562 58.28125 21.539062 58.144531 21.691406 57.96875 21.808594 57.796875 21.929688 57.609375 21.992188 57.398438 22.003906 57.191406 22.015625 56.972656 21.96875 56.746094 21.867188 56.53125 21.773438 56.355469 21.644531 56.222656 21.484375 56.089844 21.328125 56.007812 21.140625 55.976562 20.929688 55.945312 20.71875 55.964844 20.511719 56.03125 20.308594 56.097656 20.105469 56.238281 19.761719 56.453125 19.277344L56.8125 18.472656C57.023438 18 57.183594 17.667969 57.289062 17.480469 57.394531 17.292969 57.535156 17.136719 57.707031 17.019531 57.878906 16.902344 58.070312 16.835938 58.28125 16.828125 58.488281 16.816406 58.707031 16.859375 58.933594 16.960938 59.148438 17.058594 59.320312 17.1875 59.453125 17.347656c.13671899999999937.15625.21875.34375.25.5546879999999987C59.734375 18.113281 59.714844 18.320312 59.648438 18.523438 59.582031 18.726562 59.441406 19.070312 59.226562 19.554688L58.867188 20.359375M58.511719 18.34375C58.609375 18.125 58.664062 17.980469 58.667969 17.910156 58.675781 17.839844 58.648438 17.789062 58.582031 17.761719 58.527344 17.738281 58.476562 17.742188 58.421875 17.78125 58.375 17.816406 58.292969 17.957031 58.1875 18.199219L57.207031 20.394531C57.085938 20.667969 57.019531 20.84375 57.007812 20.914062 57 20.988281 57.03125 21.039062 57.097656 21.070312 57.171875 21.101562 57.230469 21.085938 57.285156 21.019531 57.335938 20.957031 57.425781 20.785156 57.550781 20.507812L58.511719 18.34375"/><path style="stroke:none;fill-rule:nonzero;fill:#000;fill-opacity:1" d="M53.398438 15 54.511719 15.320312C54.863281 15.421875 55.121094 15.527344 55.28125 15.644531 55.445312 15.761719 55.554688 15.933594 55.609375 16.164062 55.664062 16.390625 55.632812 16.722656 55.507812 17.160156 55.421875 17.453125 55.324219 17.648438 55.210938 17.742188 55.101562 17.835938 54.921875 17.882812 54.671875 17.875 54.910156 18.019531 55.050781 18.183594 55.097656 18.371094 55.144531 18.554688 55.121094 18.8125 55.027344 19.140625L54.894531 19.605469C54.796875 19.945312 54.691406 20.191406 54.578125 20.335938 54.464844 20.480469 54.328125 20.5625 54.167969 20.582031 54.003906 20.597656 53.699219 20.542969 53.25 20.414062L51.957031 20.042969 53.398438 15M54.265625 16.183594 53.945312 17.304688C53.996094 17.316406 54.03125 17.324219 54.058594 17.332031 54.167969 17.363281 54.246094 17.355469 54.296875 17.300781 54.34375 17.246094 54.410156 17.066406 54.496094 16.769531 54.542969 16.609375 54.558594 16.496094 54.554688 16.425781 54.546875 16.355469 54.527344 16.304688 54.488281 16.277344 54.457031 16.25 54.382812 16.21875 54.265625 16.183594M53.722656 18.089844 53.320312 19.5C53.480469 19.539062 53.585938 19.539062 53.644531 19.5 53.703125 19.460938 53.761719 19.339844 53.820312 19.136719L53.953125 18.664062C54.015625 18.449219 54.035156 18.3125 54.007812 18.257812 53.984375 18.199219 53.886719 18.144531 53.722656 18.089844"/><path style="stroke:none;fill-rule:nonzero;fill:#000;fill-opacity:1" d="M46.183594 13.996094H48.132812V15.050781h-.78125v1H48.082031V17.054688H47.351562v.9375H48.210938V19.046875H46.183594V13.996094"/><path style="stroke:none;fill-rule:nonzero;fill:#000;fill-opacity:1" d="M43.234375 14.363281 44.015625 18.375 45.152344 18.148438 45.351562 19.140625 43.097656 19.597656 42.125 14.582031l1.109375-.21875"/><path style="stroke:none;fill-rule:nonzero;fill:#000;fill-opacity:1" d="M40.207031 15.121094 40.566406 16.109375 39.921875 16.347656 41.359375 20.289062 40.265625 20.6875 38.828125 16.746094 38.183594 16.984375 37.824219 16 40.207031 15.121094"/><path style="stroke:none;fill-rule:nonzero;fill:#000;fill-opacity:1" d="M36.371094 16.664062l.46875.9375L36.222656 17.910156 38.097656 21.664062 37.058594 22.1875 35.183594 18.433594 34.570312 18.742188l-.46875-.9375L36.371094 16.664062"/><path style="stroke:none;fill-rule:nonzero;fill:#000;fill-opacity:1" d="M32.328125 19.011719 35.726562 23.054688 34.730469 23.703125 34.171875 22.941406 33.820312 23.167969 34.273438 23.996094 33.265625 24.652344 30.917969 19.925781 32.328125 19.011719M33.640625 22.179688C33.269531 21.710938 32.820312 21.128906 32.300781 20.429688 32.742188 21.332031 33.078125 21.988281 33.304688 22.394531L33.640625 22.179688"/><path style="stroke:none;fill-rule:nonzero;fill:#000;fill-opacity:1" d="M26.980469 22.347656 27.929688 21.683594C28.230469 21.472656 28.476562 21.339844 28.667969 21.289062 28.863281 21.234375 29.066406 21.257812 29.277344 21.359375 29.488281 21.460938 29.722656 21.695312 29.980469 22.070312 30.15625 22.320312 30.246094 22.519531 30.246094 22.667969 30.25 22.8125 30.167969 22.980469 30.007812 23.171875 30.269531 23.078125 30.488281 23.070312 30.660156 23.152344 30.832031 23.230469 31.015625 23.410156 31.210938 23.691406L31.488281 24.089844C31.6875 24.378906 31.808594 24.617188 31.851562 24.796875 31.890625 24.976562 31.867188 25.132812 31.78125 25.269531 31.691406 25.410156 31.457031 25.613281 31.074219 25.878906L29.972656 26.652344 26.980469 22.347656M28.445312 22.417969 29.109375 23.375C29.148438 23.34375 29.179688 23.320312 29.203125 23.304688 29.296875 23.238281 29.339844 23.171875 29.328125 23.101562 29.3125 23.027344 29.21875 22.863281 29.042969 22.609375 28.949219 22.472656 28.871094 22.386719 28.816406 22.347656 28.753906 22.308594 28.703125 22.292969 28.660156 22.304688 28.617188 22.3125 28.542969 22.351562 28.445312 22.417969M29.574219 24.042969 30.414062 25.25C30.542969 25.148438 30.609375 25.066406 30.617188 24.996094 30.625 24.925781 30.566406 24.800781 30.445312 24.628906L30.167969 24.226562C30.039062 24.042969 29.945312 23.941406 29.882812 23.925781 29.824219 23.910156 29.722656 23.949219 29.574219 24.042969"/><path style="stroke:none;fill-rule:evenodd;fill:#c9c0bb;fill-opacity:1" d="M47.203125 23.570312 49.925781 31.125H57.726562l-6.53125 4.828125L53.828125 43.507812 47.566406 38.683594 40.855469 43.417969 43.304688 35.953125 36.773438 31.125 44.9375 30.945312zm0 0"/><path style="fill-rule:evenodd;fill:#017b21;fill-opacity:1;stroke-width:1.250264;stroke-linecap:butt;stroke-linejoin:miter;stroke:#014004;stroke-opacity:1;stroke-miterlimit:4" d="M178.460757 223.044489C173.784313 226.448337 165.257581 209.83229 142.687866 206.433621 120.119212 203.021884 122.241889 224.312413 111.166936 217.503882 100.093043 210.682282 126.498675 206.847957 126.498675 206.847957 126.498675 206.847957 119.684444 207.27653 115.433829 206.851196 111.170186 206.428765 103.934214 211.109081 98.820776 211.543411 93.708398 211.964673 91.145112 208.558139 90.295646 205.154458 89.44724 201.737708 89.023272 198.765285 89.023272 198.765285 89.023272 198.765285 95.404997 204.297568 98.81173 204.718573 102.230429 205.149741 109.04466 204.721168 109.04466 204.721168 109.04466 204.721168 103.508315 202.170007 99.238323 199.618808 94.982419 197.051635 90.304809 193.21825 90.304809 193.21825 90.304809 193.21825 82.20678 197.487649 74.533378 196.208587 66.873002 194.92662 61.760553 182.579624 61.760553 182.579624 61.760553 182.579624 69.426182 191.521383 74.960266 192.366335 80.506317 193.22145 83.911553 190.665663 83.911553 190.665663 83.911553 190.665663 78.366597 184.279523 75.386753 180.016267 72.405848 175.76608 71.986698 177.46359 72.405848 175.76608 72.839085 174.052596 72.836824 172.346387 72.836824 172.346387L66.869066 170.225058 63.032312 165.960376C63.032312 165.960376 57.929969 160.42515 57.498122 157.865122 57.078241 155.315259 62.61342 150.629186 64.744859 151.475692 66.875237 152.335267 63.465148 155.739077 63.888055 158.724569 64.310963 161.71006 71.124864 165.541929 71.124864 165.541929 71.124864 165.541929 67.720286 159.576832 67.722878 157.022599 67.725469 154.468367 67.291796 153.19199 67.291796 153.19199 67.291796 153.19199 68.14794 154.463998 65.16627 151.484392 62.1846 148.504786 56.64975 148.930417 56.645227 145.517998 56.652671 142.115743 56.228998 140.400833 56.228998 140.400833 56.228998 140.400833 58.352698 143.392081 60.913722 145.092405 63.46172 146.795634 65.598011 146.794117 65.598011 146.794117 65.598011 146.794117 63.038812 143.810143 60.057907 139.559955 57.078063 135.296699 46.427843 130.190008 46.856993 128.053966 47.273116 125.920828 48.558115 123.799281 48.558115 123.799281 48.558115 123.799281 49.837167 128.05678 54.096722 128.056651 58.356278 128.056522 58.356937 119.535638 58.356937 119.535638 58.356937 119.535638 60.902779 126.78296 63.461541 126.777074 66.020304 126.771188 69.003834 122.949188 69.003834 122.949188 69.003834 122.949188 68.156266 131.030114 66.447735 133.169099 64.740264 135.295015 62.18785 137.42967 63.887112 139.97659 65.59834 142.533675 69.007005 148.921331 69.007005 148.921331 69.007005 148.921331 70.280474 149.77948 71.976743 146.372817 73.68604 142.96325 76.245897 137.426341 73.682611 134.019807 71.132353 130.610369 68.15477 128.053322 68.15477 128.053322 68.15477 128.053322 71.985175 130.189236 72.834971 129.332475 73.684767 128.475714 71.976894 122.093815 70.28311 115.695943 68.575237 109.314044 64.739248 103.778779 64.739248 103.778779 64.739248 103.778779 68.581916 107.18237 74.968822 107.606189 81.355729 108.030007 88.596224 106.76211 88.596224 106.76211 88.596224 106.76211 83.908579 108.885213 81.357991 109.736216 78.794375 110.590125 76.669285 111.872388 76.669285 111.872388 76.669285 111.872388 81.778636 111.015498 81.358426 112.726077 80.92625 114.426491 74.532665 116.134346 74.96966 119.103864 75.392567 122.089356 81.776481 116.559591 86.042715 114.427789 90.295922 112.298891 95.834858 112.29582 95.834858 112.29582 95.834858 112.29582 90.297088 119.536125 87.73756 120.812592 85.191059 122.086155 78.377264 125.504589 78.377264 125.504589 78.377264 125.504589 80.50385 127.199118 83.063378 125.92265 85.609879 124.649088 87.739822 122.518802 87.739822 122.518802 87.739822 122.518802 86.036109 129.32772 83.052283 131.892207 80.069518 134.443625 77.094197 133.592788 77.094197 133.592788 77.094197 133.592788 76.67096 134.867739 76.662456 138.283063 76.668039 141.682414 75.820505 144.245384 75.820505 144.245384 75.820505 144.245384 81.783008 138.70692 83.051954 136.152649 84.333926 133.595474 89.870601 131.886192 89.870601 131.886192L88.599065 136.994696 95.406216 130.18998 97.114854 135.301297C97.114854 135.301297 97.539587 137.003138 100.09835 136.997252 102.656052 137.004435 103.926494 137.426956 103.926494 137.426956 103.926494 137.426956 97.968407 139.127538 92.433558 139.553168 86.885681 139.981704 83.903246 138.27268 83.051624 140.413091 82.201063 142.540434 83.057208 143.812442 80.499941 146.795119 77.942674 149.777796 75.393253 157.866034 75.384749 161.281358 75.390332 164.680708 76.663801 165.538857 76.663801 165.538857 76.663801 165.538857 76.667888 165.961416 78.804509 161.699457 80.928102 157.440403 85.618338 152.763068 85.618338 152.763068 85.618338 152.763068 82.210181 162.13353 80.928209 164.690705 79.646236 167.247881 77.524468 170.223284 79.217817 173.631296 80.924193 177.036404 89.876318 186.833408 94.131457 190.671162 98.387656 194.495848 102.651734 197.908138 102.651734 197.908138 102.651734 197.908138 100.093301 193.653582 101.797745 191.092038 103.501129 188.543562 108.612412 193.653324 110.3147 196.635873 112.016989 199.618421 113.723365 203.023529 115.854804 203.870035 117.986243 204.716541 117.559684 204.298351 117.559684 204.298351L117.13528 198.336068C117.13528 198.336068 119.685539 201.745506 122.673887 202.593439 125.649209 203.444276 129.49038 203.871075 129.49038 203.871075 129.49038 203.871075 124.378331 200.031894 120.967076 196.198471 117.554759 192.378116 114.577176 189.82107 113.292942 190.672035 112.021736 191.520096 110.739763 194.077271 108.615003 191.099092 106.478276 188.110748 104.784927 184.702736 101.800665 184.277363 98.816404 183.85199 96.683871 188.536508 96.683871 188.536508 96.683871 188.536508 95.83623 183.849176 95.834734 180.872384 95.833238 177.895593 100.092793 177.895464 99.242562 175.762364 98.39233 173.629265 96.260126 174.053341 94.551489 168.942023 92.855878 163.827802 88.596652 159.567488 88.596652 159.567488 88.596652 159.567488 95.833461 166.384848 97.965665 165.960772 100.097869 165.536697 104.351405 159.147357 104.351405 159.147357 104.351405 159.147357 103.50128 164.26456 103.500185 169.795584 103.49803 175.339677 103.496935 180.870701 106.058725 181.300443 108.608548 181.720021 107.760907 177.032689 110.73849 179.589735 113.7291 182.143877 116.279029 189.813758 118.835966 191.091523 121.392904 192.369288 122.674876 189.812112 121.390971 186.402636 120.119034 183.003323 116.707448 183.430342 116.276366 179.599733 115.859372 175.75315 116.70402 174.486899 116.70402 174.486899 116.70402 174.486899 118.411892 180.868798 120.112685 180.874555 121.814538 180.867243 123.523433 168.94986 123.523433 168.94986 123.523433 168.94986 129.484182 177.463304 129.061381 181.728115 128.626614 185.982762 124.79847 185.553058 124.802993 188.965478 124.795549 192.367733 124.371983 197.903126 126.504187 197.47905 128.636391 197.054974 131.615398 189.820555 131.615398 189.820555 131.615398 189.820555 132.460011 194.072259 134.175327 197.051903 135.877616 200.034451 137.579905 203.017 137.579905 203.017 137.579905 203.017 138.860052 201.743475 137.582826 196.202325 136.305599 190.661175 134.590283 187.681531 134.166316 184.709109 133.743408 181.723617 135.875176 178.309681 138.005555 179.169256 140.136993 180.015762 140.128489 183.431086 139.70901 189.389038 139.276504 195.349895 138.851112 202.168939 140.551904 202.174696 142.266784 202.164479 154.184889 204.729968 162.711845 209.835271 171.225774 214.943478 180.165966 219.212363 178.460757 223.044489zm0 0" transform="matrix(0.30538,0.0678713,0.024779,0.304404,-3.790843,-1.058875)"/><path style="fill-rule:evenodd;fill:#ffdf00;fill-opacity:1;stroke-width:1;stroke-linecap:butt;stroke-linejoin:miter;stroke:url(#radial0);stroke-miterlimit:4" d="M73.509171 182.346934C70.854689 180.064323 67.428559 180.828228 69.715592 177.392506 71.988538 173.972757 75.040056 174.357469 77.321604 175.87629 79.603153 177.395111 75.803816 172.82694 79.225697 173.218902 82.648638 173.597795 87.973201 178.916652 86.065477 180.830569 84.171842 182.728512 88.738746 182.724018 89.494452 185.391491 90.250158 188.058963 88.355287 193.755583 84.546385 192.615805 80.75051 191.473122 76.173149 192.237062 75.800834 189.573934 75.415491 186.91371 73.889099 178.92579 73.509171 182.346934zm0 0" transform="matrix(0.30538,0.0678713,0.024779,0.304404,-3.790843,-1.058875)"/><path style="fill-rule:evenodd;fill:#ffdf00;fill-opacity:1;stroke-width:1;stroke-linecap:butt;stroke-linejoin:miter;stroke:url(#radial1);stroke-miterlimit:4" d="M79.043091 160.966143C81.909913 168.514038 84.777077 169.594309 88.733982 169.225357 92.689827 168.869475 98.791105 159.886641 95.909263 156.307317 93.041508 152.712021 88.368527 159.541357 88.368527 159.541357 88.368527 159.541357 88.373688 157.743665 87.65009 155.941639 86.938459 154.149778 85.147537 154.151284 85.147537 154.151284 85.147537 154.151284 87.295331 155.584435 90.174933 154.146776 93.041508 152.712021 93.405066 150.911414 91.60264 149.478252 89.813242 148.042186 83.340293 148.04819 79.754348 149.835825 76.167343 151.636529 76.160195 156.296297 76.164423 158.451204 76.168651 160.606111 76.162899 159.888777 79.043091 160.966143zm0 0" transform="matrix(0.30538,0.0678713,0.024779,0.304404,-3.790843,-1.058875)"/><path style="fill-rule:evenodd;fill:#ffdf00;fill-opacity:1;stroke-width:1;stroke-linecap:butt;stroke-linejoin:miter;stroke:url(#radial2);stroke-miterlimit:4" d="M60.902806 171.080522C55.371278 173.199293 56.220672 163.834717 58.777939 160.85204 61.335205 157.869363 62.181679 155.319461 64.320232 157.024154 66.446818 158.718683 63.041581 161.27447 65.59217 160.423466 68.155785 159.569558 66.445322 155.741891 68.576761 156.588397 70.707139 157.447972 69.428488 161.698288 68.576102 165.109282 67.723715 168.520275 66.866475 172.779291 64.738359 173.625926 62.609182 174.485629 60.058593 175.336633 60.902806 171.080522zm0 0" transform="matrix(0.30538,0.0678713,0.024779,0.304404,-3.790843,-1.058875)"/><path style="fill-rule:evenodd;fill:#ffdf00;fill-opacity:1;stroke-width:1;stroke-linecap:butt;stroke-linejoin:miter;stroke:url(#radial3);stroke-miterlimit:4" d="M63.043335 147.222562C56.226078 147.215508 57.0789 146.794375 56.65008 144.669975 56.22232 142.532506 59.632079 143.389138 57.076968 140.827723 54.520796 138.279376 54.090881 141.686 53.667974 138.700509 53.245066 135.715018 57.921946 135.30103 61.333531 134.874011 64.745116 134.446993 62.610321 137.425301 65.590495 137.428115 68.570669 137.430929 70.277375 136.575594 70.277375 136.575594L69.007664 140.400447C69.007664 140.400447 72.833547 139.123941 71.977073 142.112375 71.133626 145.097905 70.280474 149.77948 63.043335 147.222562zm0 0" transform="matrix(0.30538,0.0678713,0.024779,0.304404,-3.790843,-1.058875)"/><path style="fill-rule:evenodd;fill:#ffdf00;fill-opacity:1;stroke-width:1;stroke-linecap:butt;stroke-linejoin:miter;stroke:url(#radial4);stroke-miterlimit:4" d="M58.347997 119.961102C57.072373 124.647046 59.637485 126.769929 55.795253 126.356198 51.967109 125.926494 52.815409 122.092942 52.819825 118.255059 52.811215 114.420081 54.941923 111.019213 58.783094 111.446013 62.611238 111.875717 65.588056 115.703345 63.466288 118.678749 61.330432 121.670126 67.717668 117.833502 64.73793 120.820548 61.759253 123.794525 60.054373 123.366209 58.347997 119.961102zm0 0" transform="matrix(0.30538,0.0678713,0.024779,0.304404,-3.790843,-1.058875)"/><path style="fill-rule:evenodd;fill:#ffdf00;fill-opacity:1;stroke-width:1;stroke-linecap:butt;stroke-linejoin:miter;stroke:url(#radial5);stroke-miterlimit:4" d="M70.710691 97.814851C71.985656 101.649791 66.450477 106.335864 72.41006 107.612074 78.369642 108.888284 86.884995 104.205026 84.764322 101.649405 82.630622 99.096689 80.070328 101.643739 76.667683 101.645294 73.265037 101.646849 74.106988 95.684527 70.710691 97.814851zm0 0" transform="matrix(0.30538,0.0678713,0.024779,0.304404,-3.790843,-1.058875)"/><path style="fill-rule:evenodd;fill:#ffdf00;fill-opacity:1;stroke-width:1;stroke-linecap:butt;stroke-linejoin:miter;stroke:url(#radial6);stroke-miterlimit:4" d="M103.924997 134.450165C101.375905 138.27796 98.387121 134.440167 94.980388 134.019163 91.573655 133.598159 87.740659 134.016478 86.89528 131.035356 86.036874 128.057138 89.449955 130.606911 91.570958 128.902089 93.703927 127.207432 91.582489 125.922393 93.705753 125.923781 95.829017 125.925169 95.410633 126.352097 97.114747 128.050995 98.817802 129.762961 96.267107 123.363663 97.539079 121.24502 98.812112 119.113308 102.655874 116.985875 103.078016 121.241948 103.500158 125.498022 101.794949 129.330148 100.94924 130.609468 100.090505 131.891692 106.481828 128.477627 103.924997 134.450165zm0 0" transform="matrix(0.30538,0.0678713,0.024779,0.304404,-3.790843,-1.058875)"/><path style="fill-rule:evenodd;fill:#017b21;fill-opacity:1;stroke-width:1.250264;stroke-linecap:butt;stroke-linejoin:miter;stroke:#014004;stroke-opacity:1;stroke-miterlimit:4" d="M178.46065 223.045742C173.784207 226.44959 165.257475 209.833543 142.688823 206.421805 120.119111 203.023136 122.241788 224.313666 111.166836 217.505134 100.092944 210.683533 126.498573 206.849209 126.498573 206.849209 126.498573 206.849209 119.684343 207.277783 115.433728 206.852448 111.170086 206.430017 103.934115 211.110333 98.821738 211.531594 93.7083 211.965925 91.145014 208.559391 90.295548 205.155709 89.447142 201.738959 89.024235 198.753468 89.024235 198.753468 89.024235 198.753468 95.404899 204.29882 98.811631 204.719824 102.23033 205.150993 109.04456 204.722419 109.04456 204.722419 109.04456 204.722419 103.508215 202.171258 99.239285 199.60699 94.982321 197.052887 90.304711 193.219501 90.304711 193.219501 90.304711 193.219501 82.207743 197.475832 74.533281 196.209838 66.872907 194.927871 61.760458 182.580875 61.760458 182.580875 61.760458 182.580875 69.426086 191.522634 74.96017 192.367586 80.50622 193.222701 83.911456 190.666914 83.911456 190.666914 83.911456 190.666914 78.366501 184.280774 75.386657 180.017518 72.406813 175.754262 71.986603 177.464841 72.406813 175.754262 72.838989 174.053847 72.836728 172.347638 72.836728 172.347638L66.868971 170.226309 63.032217 165.961627C63.032217 165.961627 57.929875 160.426401 57.498027 157.866373 57.078147 155.31651 62.613325 150.630437 64.744764 151.476943 66.875142 152.336518 63.465053 155.740328 63.88796 158.725819 64.310868 161.711311 71.124768 165.543179 71.124768 165.543179 71.124768 165.543179 67.720191 159.578082 67.722782 157.02385 67.726434 154.456549 67.292761 153.180172 67.292761 153.180172 67.292761 153.180172 68.147845 154.465249 65.166175 151.485643 62.184505 148.506037 56.649656 148.931668 56.645133 145.519248 56.653637 142.103924 56.228904 140.402084 56.228904 140.402084 56.228904 140.402084 58.352604 143.393332 60.913628 145.093656 63.461625 146.796885 65.597916 146.795368 65.597916 146.795368 65.597916 146.795368 63.038718 143.811393 60.057813 139.561206 57.077969 135.297949 46.428811 130.17819 46.8569 128.055216 47.273023 125.922078 48.558022 123.800531 48.558022 123.800531 48.558022 123.800531 49.837074 128.05803 54.096629 128.057902 58.356183 128.057773 58.356843 119.536889 58.356843 119.536889 58.356843 119.536889 60.902684 126.78421 63.461447 126.778325 66.020209 126.772439 69.0048 122.93737 69.0048 122.93737 69.0048 122.93737 68.156171 131.031364 66.44764 133.17035 64.740169 135.296266 62.187755 137.43092 63.887017 139.977841 65.598245 142.534926 69.00691 148.922582 69.00691 148.922582 69.00691 148.922582 70.280378 149.780731 71.976647 146.374068 73.685944 142.964501 76.245801 137.427592 73.682516 134.021058 71.132257 130.61162 68.154675 128.054573 68.154675 128.054573 68.154675 128.054573 71.98508 130.190487 72.834875 129.333726 73.684671 128.476965 71.976799 122.095066 70.283014 115.697193 68.575142 109.315294 64.739154 103.78003 64.739154 103.78003 64.739154 103.78003 68.581821 107.183621 74.968727 107.607439 81.355633 108.031258 88.596127 106.763362 88.596127 106.763362 88.596127 106.763362 83.908482 108.886464 81.357894 109.737468 78.794279 110.591376 76.66919 111.873639 76.66919 111.873639 76.66919 111.873639 81.77854 111.016749 81.359391 112.714259 80.926153 114.427742 74.532569 116.135597 74.969564 119.105115 75.392471 122.090607 81.776385 116.560842 86.042618 114.42904 90.295824 112.300143 95.834761 112.297071 95.834761 112.297071 95.834761 112.297071 90.296991 119.537376 87.737463 120.813844 85.190962 122.087406 78.378228 125.492771 78.378228 125.492771 78.378228 125.492771 80.503754 127.200369 83.063282 125.923902 85.609782 124.650339 87.739725 122.520053 87.739725 122.520053 87.739725 122.520053 86.036012 129.328971 83.052187 131.893458 80.069422 134.444876 77.094101 133.594039 77.094101 133.594039 77.094101 133.594039 76.670864 134.86899 76.66236 138.284314 76.667943 141.683665 75.82147 144.233566 75.82147 144.233566 75.82147 144.233566 81.782912 138.708171 83.051857 136.1539 84.333829 133.596725 89.870504 131.887444 89.870504 131.887444L88.598968 136.995947 95.406118 130.191231 97.115816 135.28948C97.115816 135.28948 97.539489 137.004389 100.098251 136.998504 102.657014 136.992618 103.926395 137.428208 103.926395 137.428208 103.926395 137.428208 97.968309 139.128789 92.43346 139.55442 86.885584 139.982955 83.903149 138.273931 83.051527 140.414342 82.200967 142.541685 83.057111 143.813693 80.499845 146.79637 77.942578 149.779047 75.393157 157.867285 75.384653 161.282609 75.390236 164.681959 76.663705 165.540108 76.663705 165.540108 76.663705 165.540108 76.667792 165.962667 78.804412 161.700708 80.928006 157.441654 85.618241 152.76432 85.618241 152.76432 85.618241 152.76432 82.210084 162.134781 80.929173 164.678888 79.6472 167.236063 77.524372 170.224535 79.217721 173.632548 80.924097 177.037655 89.87622 186.834659 94.131359 190.672414 98.387557 194.497099 102.651635 197.90939 102.651635 197.90939 102.651635 197.90939 100.093202 193.654834 101.797646 191.093289 103.50209 188.531745 108.612312 193.654576 110.314601 196.637125 112.01795 199.606604 113.723265 203.024781 115.854703 203.871287 117.986142 204.717793 117.559583 204.299603 117.559583 204.299603L117.13518 198.33732C117.13518 198.33732 119.685438 201.746759 122.673786 202.594691 125.649107 203.445528 129.490278 203.872327 129.490278 203.872327 129.490278 203.872327 124.37823 200.033147 120.966975 196.199723 117.555719 192.366299 114.578136 189.809253 113.292842 190.673287 112.021635 191.521348 110.739663 194.078523 108.615963 191.087275 106.478176 188.112 104.784827 184.703988 101.800567 184.278615 98.816306 183.853241 96.683772 188.537759 96.683772 188.537759 96.683772 188.537759 95.836132 183.850427 95.834636 180.873636 95.8342 177.883775 100.093755 177.883647 99.242463 175.763616 98.392232 173.630516 96.260028 174.054592 94.55139 168.943275 92.85578 163.829053 88.596555 159.568739 88.596555 159.568739 88.596555 159.568739 95.833363 166.3861 97.965567 165.962024 100.09777 165.537948 104.351306 159.148609 104.351306 159.148609 104.351306 159.148609 103.501181 164.265812 103.500086 169.796836 103.497931 175.340928 103.496836 180.871952 106.058625 181.301695 108.608448 181.721273 107.760808 177.033941 110.73839 179.590987 113.729 182.145129 116.278929 189.81501 118.835866 191.092775 121.392803 192.37054 122.674775 189.813364 121.390871 186.403888 120.118933 183.004576 116.707348 183.431594 116.277326 179.587916 115.859272 175.754402 116.70392 174.488151 116.70392 174.488151 116.70392 174.488151 118.411792 180.87005 120.112584 180.875807 121.814437 180.868495 123.524392 168.938044 123.524392 168.938044 123.524392 168.938044 129.484081 177.464556 129.06234 181.716299 128.626512 185.984014 124.798368 185.55431 124.802891 188.96673 124.795448 192.368985 124.371881 197.904378 126.504085 197.480302 128.636289 197.056226 131.616356 189.808738 131.616356 189.808738 131.616356 189.808738 132.459909 194.073511 134.175225 197.053155 135.877514 200.035704 137.579802 203.018252 137.579802 203.018252 137.579802 203.018252 138.859949 201.744727 137.582723 196.203577 136.305497 190.662427 134.590181 187.682784 134.166213 184.710361 133.743306 181.72487 135.875074 178.310934 138.005452 179.170509 140.13689 180.017015 140.128386 183.432339 139.708907 189.390291 139.276401 195.351147 138.851009 202.170191 140.552862 202.162879 142.266681 202.165732 154.185845 204.718152 162.71174 209.836524 171.225668 214.944731 180.166919 219.200547 178.46065 223.045742zm0 0" transform="matrix(-0.30538,0.0678713,-0.024779,0.304404,98.290848,-0.758468)"/><path style="fill-rule:evenodd;fill:#ffdf00;fill-opacity:1;stroke-width:1;stroke-linecap:butt;stroke-linejoin:miter;stroke:url(#radial7);stroke-miterlimit:4" d="M73.509075 182.348185C70.854593 180.065574 67.428464 180.829479 69.715497 177.393757 71.988442 173.974008 75.039959 174.35872 77.321508 175.877541 79.603057 177.396362 75.80372 172.828191 79.226661 173.207084 82.648541 173.599046 87.973103 178.917903 86.06644 180.818751 84.171745 182.729763 88.738648 182.725269 89.494354 185.392742 90.25112 188.047146 88.355189 193.756835 84.546287 192.617056 80.750413 191.474373 76.173053 192.238313 75.800737 189.575185 75.415394 186.914961 73.889003 178.927041 73.509075 182.348185zm0 0" transform="matrix(-0.30538,0.0678713,-0.024779,0.304404,98.290848,-0.758468)"/><path style="fill-rule:evenodd;fill:#ffdf00;fill-opacity:1;stroke-width:1;stroke-linecap:butt;stroke-linejoin:miter;stroke:url(#radial8);stroke-miterlimit:4" d="M79.042994 160.967394C81.909816 168.515289 84.77698 169.59556 88.733885 169.226609 92.689729 168.870726 98.791007 159.887892 95.909165 156.308569 93.04141 152.713272 88.36949 159.52954 88.36949 159.52954 88.36949 159.52954 88.374651 157.731848 87.649993 155.942891 86.938361 154.151029 85.1485 154.139466 85.1485 154.139466 85.1485 154.139466 87.295234 155.585686 90.174836 154.148027 93.04141 152.713272 93.404968 150.912665 91.602543 149.479503 89.813145 148.043437 83.340196 148.049441 79.754252 149.837076 76.167247 151.63778 76.160099 156.297548 76.164327 158.452455 76.168555 160.607362 76.162803 159.890028 79.042994 160.967394zm0 0" transform="matrix(-0.30538,0.0678713,-0.024779,0.304404,98.290848,-0.758468)"/><path style="fill-rule:evenodd;fill:#ffdf00;fill-opacity:1;stroke-width:1;stroke-linecap:butt;stroke-linejoin:miter;stroke:url(#radial9);stroke-miterlimit:4" d="M60.902711 171.081773C55.371184 173.200544 56.220578 163.835968 58.777844 160.853291 61.335111 157.870613 62.181585 155.320712 64.321197 157.012336 66.446723 158.719934 63.041487 161.275721 65.592075 160.424717 68.15569 159.570809 66.445227 155.743142 68.576665 156.589648 70.707043 157.449223 69.428393 161.699539 68.576006 165.110533 67.723619 168.521526 66.86638 172.780542 64.738264 173.627177 62.609087 174.48688 60.058499 175.337884 60.902711 171.081773zm0 0" transform="matrix(-0.30538,0.0678713,-0.024779,0.304404,98.290848,-0.758468)"/><path style="fill-rule:evenodd;fill:#ffdf00;fill-opacity:1;stroke-width:1;stroke-linecap:butt;stroke-linejoin:miter;stroke:url(#radial10);stroke-miterlimit:4" d="M63.043241 147.223813C56.225984 147.216758 57.078806 146.795625 56.649986 144.671226 56.222226 142.533757 59.631985 143.390389 57.076874 140.828973 54.520703 138.280627 54.090787 141.687251 53.66788 138.701759 53.244973 135.716268 57.921852 135.30228 61.333437 134.875262 64.745022 134.448243 62.610227 137.426551 65.5904 137.429366 68.570574 137.43218 70.277279 136.576845 70.277279 136.576845L69.007569 140.401698C69.007569 140.401698 72.833451 139.125192 71.976977 142.113626 71.134591 145.086087 70.280378 149.780731 63.043241 147.223813zm0 0" transform="matrix(-0.30538,0.0678713,-0.024779,0.304404,98.290848,-0.758468)"/><path style="fill-rule:evenodd;fill:#ffdf00;fill-opacity:1;stroke-width:1;stroke-linecap:butt;stroke-linejoin:miter;stroke:url(#radial11);stroke-miterlimit:4" d="M58.347903 119.962352C57.072279 124.648296 59.63739 126.77118 55.795159 126.357449 51.967016 125.927745 52.815315 122.094193 52.819732 118.25631 52.811122 114.421331 54.941829 111.020464 58.783 111.447263 62.612204 111.863898 65.587961 115.704596 63.466193 118.679999 61.330338 121.671376 67.717574 117.834753 64.738896 120.80873 61.759158 123.795776 60.054279 123.36746 58.347903 119.962352zm0 0" transform="matrix(-0.30538,0.0678713,-0.024779,0.304404,98.290848,-0.758468)"/><path style="fill-rule:evenodd;fill:#ffdf00;fill-opacity:1;stroke-width:1;stroke-linecap:butt;stroke-linejoin:miter;stroke:url(#radial12);stroke-miterlimit:4" d="M70.710596 97.816102C71.985561 101.651042 66.450382 106.337115 72.409964 107.613325 78.369546 108.889535 86.884898 104.206277 84.764225 101.650656 82.630526 99.097941 80.070232 101.64499 76.667587 101.646545 73.264942 101.648099 74.106893 95.685778 70.710596 97.816102zm0 0" transform="matrix(-0.30538,0.0678713,-0.024779,0.304404,98.290848,-0.758468)"/><path style="fill-rule:evenodd;fill:#ffdf00;fill-opacity:1;stroke-width:1;stroke-linecap:butt;stroke-linejoin:miter;stroke:url(#radial13);stroke-miterlimit:4" d="M103.925959 134.438347C101.375807 138.279212 98.387023 134.441419 94.98029 134.020415 91.574618 133.586342 87.740562 134.017729 86.895183 131.036607 86.036777 128.058389 89.449858 130.608162 91.570861 128.90334 93.70383 127.208683 91.582392 125.923644 93.705655 125.925032 95.828919 125.92642 95.410535 126.353348 97.114649 128.052246 98.817703 129.764213 96.267009 123.364914 97.538981 121.246271 98.812014 119.11456 102.656836 116.974058 103.077917 121.2432 103.500059 125.499273 101.79485 129.331399 100.949142 130.610719 100.090406 131.892944 106.481729 128.478879 103.925959 134.438347zm0 0" transform="matrix(-0.30538,0.0678713,-0.024779,0.304404,98.290848,-0.758468)"/><path style="stroke:none;fill-rule:nonzero;fill:#ffdf00;fill-opacity:1" d="M56.726562 44.550781 59.972656 47.617188 58.910156 48.421875 58.382812 47.828125 58.007812 48.113281 58.421875 48.789062 57.347656 49.605469 55.226562 45.691406l1.5-1.140625M57.882812 47.230469C57.527344 46.871094 57.105469 46.417969 56.613281 45.875 57.015625 46.625 57.320312 47.167969 57.527344 47.5L57.882812 47.230469"/><path style="stroke:none;fill-rule:nonzero;fill:#ffdf00;fill-opacity:1" d="M51.324219 48.03125 52.164062 47.574219C52.703125 47.28125 53.078125 47.105469 53.292969 47.046875 53.507812 46.984375 53.691406 46.980469 53.847656 47.027344 54 47.078125 54.125 47.15625 54.21875 47.269531 54.308594 47.378906 54.453125 47.621094 54.652344 47.988281L55.382812 49.34375C55.570312 49.691406 55.679688 49.933594 55.707031 50.074219 55.734375 50.210938 55.71875 50.335938 55.664062 50.453125 55.609375 50.566406 55.523438 50.671875 55.40625 50.773438 55.285156 50.871094 55.09375 50.992188 54.828125 51.140625L53.417969 51.90625l-2.09375-3.875M52.800781 48.085938 54.175781 50.636719C54.335938 50.546875 54.421875 50.464844 54.425781 50.386719 54.433594 50.308594 54.367188 50.136719 54.226562 49.878906L53.414062 48.375C53.320312 48.199219 53.253906 48.089844 53.214844 48.046875 53.175781 48.003906 53.125 47.984375 53.070312 47.984375 53.011719 47.984375 52.921875 48.019531 52.800781 48.085938"/><path style="stroke:none;fill-rule:nonzero;fill:#ffdf00;fill-opacity:1" d="M49.644531 48.363281 51.328125 52.503906 50.027344 52.792969 49.792969 52.035156 49.335938 52.136719 49.433594 52.925781 48.117188 53.222656 47.808594 48.773438 49.644531 48.363281M49.585938 51.28125C49.414062 50.808594 49.214844 50.222656 48.992188 49.519531 49.046875 50.371094 49.101562 50.988281 49.152344 51.378906L49.585938 51.28125"/><path style="stroke:none;fill-rule:nonzero;fill:#ffdf00;fill-opacity:1" d="M47.359375 48.757812 46.101562 53.039062 44.082031 52.765625 43.898438 48.296875 45.300781 48.484375C45.300781 49.707031 45.28125 50.742188 45.242188 51.582031 45.421875 50.75 45.59375 50.015625 45.757812 49.371094L45.957031 48.570312 47.359375 48.757812"/><path style="stroke:none;fill-rule:nonzero;fill:#ffdf00;fill-opacity:1" d="M40.371094 47.226562 43.21875 48.160156 42.953125 49 41.816406 48.628906 41.5625 49.425781 42.628906 49.773438 42.378906 50.574219 41.3125 50.222656 41.019531 51.148438 42.273438 51.558594 42.007812 52.398438 39.050781 51.429688 40.371094 47.226562"/><path style="stroke:none;fill-rule:nonzero;fill:#ffdf00;fill-opacity:1" d="M40.027344 47 37.5 50.605469 36.335938 49.78125 36.789062 47.652344 35.640625 49.292969 34.527344 48.507812 37.054688 44.902344 38.167969 45.6875 37.777344 47.839844 38.914062 46.214844 40.027344 47"/></g></svg>