<svg xmlns="http://www.w3.org/2000/svg" xmlns:xlink="http://www.w3.org/1999/xlink" width="224pt" height="150pt" viewBox="0 0 224 150"><defs><clipPath id="clip1"><path d="M76 30h72v90H76zm0 0"/></clipPath><clipPath id="clip2"><path d="M76.398438 30.21875v73.226562C76.398438 111.316406 83.675781 114.671875 91.863281 115.164062 96.367188 115.433594 101.960938 115.765625 106.175781 116.167969 110.347656 116.566406 112.007812 119.675781 112.007812 119.675781 112.007812 119.675781 113.671875 116.566406 117.84375 116.167969 122.058594 115.765625 127.652344 115.433594 132.15625 115.164062 140.34375 114.671875 147.601562 111.316406 147.601562 103.445312V30.21875zm0 0"/></clipPath></defs><g id="surface1"><path style="stroke:none;fill-rule:nonzero;fill:#2c70ac;fill-opacity:1" d="M0 0H224V149.894531H0zM0 0"/><path style="stroke:none;fill-rule:nonzero;fill:#fff;fill-opacity:1" d="M76.398438 30.21875v73.226562C76.398438 111.316406 83.675781 114.671875 91.863281 115.164062 96.367188 115.433594 101.960938 115.765625 106.175781 116.167969 110.347656 116.566406 112.007812 119.675781 112.007812 119.675781 112.007812 119.675781 113.671875 116.566406 117.84375 116.167969 122.058594 115.765625 127.652344 115.433594 132.15625 115.164062 140.34375 114.671875 147.601562 111.316406 147.601562 103.445312V30.21875zm0 0"/><g clip-path="url(#clip1)" clip-rule="nonzero"><g clip-path="url(#clip2)" clip-rule="nonzero"><path style="fill:none;stroke-width:45.85281;stroke-linecap:butt;stroke-linejoin:miter;stroke:#d20019;stroke-opacity:1;stroke-miterlimit:4" d="M137.203864-692603e-9 455.602624 399.994794" transform="matrix(0.320402,0,0,0.327084,15.87944,6.074445)"/></g></g><path style="fill:none;stroke-width:1.485513;stroke-linecap:butt;stroke-linejoin:miter;stroke:#000;stroke-opacity:1;stroke-miterlimit:4" d="M188.884533 73.816884V297.693975C188.884533 321.758433 211.597693 332.017178 237.151522 333.521953 251.208566 334.345996 268.667098 335.361122 281.821956 336.591216 294.842705 337.809367 300.024183 347.315724 300.024183 347.315724 300.024183 347.315724 305.217852 337.809367 318.238601 336.591216 331.393459 335.361122 348.851991 334.345996 362.909035 333.521953 388.462864 332.017178 411.115066 321.758433 411.115066 297.693975V73.816884zm0 0" transform="matrix(0.320402,0,0,0.327084,15.87944,6.074445)"/></g></svg>