<svg xmlns="http://www.w3.org/2000/svg" xmlns:xlink="http://www.w3.org/1999/xlink" width="225pt" height="150pt" viewBox="0 0 225 150"><g id="surface1"><path d="M0 0h225v150H0z" style="fill:#fff;fill-opacity:1;stroke:none"/><path style="stroke:none;fill-rule:evenodd;fill:#fff;fill-opacity:1" d="M74.234375 44.222656V100.28125c0 21.121094 17.144531 38.265625 38.265625 38.265625 21.121094.0 38.265625-17.144531 38.265625-38.265625V44.222656zm0 0"/><path style="stroke:none;fill-rule:evenodd;fill:#000;fill-opacity:1" d="M131.929688 61.464844C129.816406 61.425781 127.726562 62.230469 126.179688 63.789062L107.726562 82.398438 118.859375 93.53125 123.898438 88.453125v18.972656C123.855469 110.265625 125.351562 112.90625 127.804688 114.335938 130.257812 115.765625 133.285156 115.765625 135.738281 114.335938 138.1875 112.90625 139.683594 110.265625 139.644531 107.425781V69.339844C139.644531 66.148438 137.722656 63.273438 134.773438 62.054688 133.851562 61.675781 132.886719 61.484375 131.929688 61.464844zm0 0"/><path style="stroke:none;fill-rule:evenodd;fill:#000;fill-opacity:1" d="M85.710938 70.675781v36.703125c0 4.578125 3.7343740000000025 8.324219 8.316406 8.324219C98.609375 115.703125 102.34375 111.957031 102.34375 107.378906V104.445312C105.25 106.4375 108.769531 107.605469 112.550781 107.605469 117.632812 107.605469 122.226562 105.488281 125.519531 102.101562L102.34375 78.925781V70.160156L99.195312 73.199219V77.300781C96.25 80.523438 94.441406 84.800781 94.441406 89.496094 94.441406 94.191406 96.246094 98.476562 99.195312 101.699219V107.378906C99.195312 110.269531 96.917969 112.554688 94.027344 112.554688 91.136719 112.554688 88.859375 110.269531 88.859375 107.378906V73.199219C88.859375 73.199219 85.710938 70.675781 85.710938 70.675781zM100.128906 81.167969l20.757813 20.757812C120.304688 102.316406 119.699219 102.671875 119.066406 102.976562L108.574219 92.488281l-2.234375 2.234375L115.746094 104.121094C115.1875 104.242188 114.617188 104.328125 114.035156 104.386719L105.355469 95.707031 103.121094 97.9375 109.28125 104.101562C102.582031 102.609375 97.589844 96.648438 97.589844 89.496094 97.589844 86.40625 98.53125 83.546875 100.128906 81.167969zM100.523438 103.007812C100.65625 103.125 100.789062 103.246094 100.925781 103.363281 100.789062 103.246094 100.65625 103.128906 100.523438 103.007812zm0 0"/><path style="fill:none;stroke-width:10.299145;stroke-linecap:round;stroke-linejoin:round;stroke:#000;stroke-opacity:1;stroke-miterlimit:4" d="M87.127784 74.476847C87.127784 87.838632 76.295286 98.683904 62.933501 98.683904 49.558943 98.683904 38.726444 87.838632 38.726444 74.476847 38.726444 61.102288 49.558943 50.257016 62.933501 50.257016 76.295286 50.257016 87.127784 61.102288 87.127784 74.476847zm0 0" transform="matrix(0.305793,0,0,0.305793,74.739763,46.541923)"/><path style="fill:none;stroke-width:10;stroke-linecap:butt;stroke-linejoin:miter;stroke:#000;stroke-opacity:1;stroke-miterlimit:4" d="M41.705209 76.708328 14.889633 100.162654H54.368809" transform="matrix(0.314941,0,0,0.314941,73.447369,44.232061)"/><path style="stroke:none;fill-rule:evenodd;fill:#019903;fill-opacity:1" d="M74.234375 44.222656v29.21875L81.636719 66.957031V52.566406h61.726562V98.707031c0 17.382813-13.480469 31.492188-30.863281 31.492188-17.382812.0-30.863281-14.109375-30.863281-31.492188V80.105469H74.234375V100.28125c0 21.121094 17.144531 38.265625 38.265625 38.265625 21.121094.0 38.265625-17.144531 38.265625-38.265625V44.222656zm0 0"/><path style="stroke:none;fill-rule:evenodd;fill:#000;fill-opacity:1" d="M131.929688 61.464844C129.816406 61.425781 127.726562 62.230469 126.179688 63.789062L107.726562 82.398438 118.859375 93.53125 123.898438 88.453125v18.972656C123.855469 110.265625 125.351562 112.90625 127.804688 114.335938 130.257812 115.765625 133.285156 115.765625 135.738281 114.335938 138.1875 112.90625 139.683594 110.265625 139.644531 107.425781V69.339844C139.644531 66.148438 137.722656 63.273438 134.773438 62.054688 133.851562 61.675781 132.886719 61.484375 131.929688 61.464844zm0 0"/><path style="stroke:none;fill-rule:evenodd;fill:#000;fill-opacity:1" d="M85.710938 70.675781v36.703125c0 4.578125 3.7343740000000025 8.324219 8.316406 8.324219C98.609375 115.703125 102.34375 111.957031 102.34375 107.378906V104.445312C105.25 106.4375 108.769531 107.605469 112.550781 107.605469 117.632812 107.605469 122.226562 105.488281 125.519531 102.101562L102.34375 78.925781V70.160156L99.195312 73.199219V77.300781C96.25 80.523438 94.441406 84.800781 94.441406 89.496094 94.441406 94.191406 96.246094 98.476562 99.195312 101.699219V107.378906C99.195312 110.269531 96.917969 112.554688 94.027344 112.554688 91.136719 112.554688 88.859375 110.269531 88.859375 107.378906V73.199219C88.859375 73.199219 85.710938 70.675781 85.710938 70.675781zM100.128906 81.167969l20.757813 20.757812C120.304688 102.316406 119.699219 102.671875 119.066406 102.976562L108.574219 92.488281l-2.234375 2.234375L115.746094 104.121094C115.1875 104.242188 114.617188 104.328125 114.035156 104.386719L105.355469 95.707031 103.121094 97.9375 109.28125 104.101562C102.582031 102.609375 97.589844 96.648438 97.589844 89.496094 97.589844 86.40625 98.53125 83.546875 100.128906 81.167969zM100.523438 103.007812C100.65625 103.125 100.789062 103.246094 100.925781 103.363281 100.789062 103.246094 100.65625 103.128906 100.523438 103.007812zm0 0"/><path style="fill:none;stroke-width:10.299145;stroke-linecap:round;stroke-linejoin:round;stroke:#000;stroke-opacity:1;stroke-miterlimit:4" d="M87.127784 74.476847C87.127784 87.838632 76.295286 98.683904 62.933501 98.683904 49.558943 98.683904 38.726444 87.838632 38.726444 74.476847 38.726444 61.102288 49.558943 50.257016 62.933501 50.257016 76.295286 50.257016 87.127784 61.102288 87.127784 74.476847zm0 0" transform="matrix(0.305793,0,0,0.305793,74.739763,46.541923)"/><path style="fill:none;stroke-width:10;stroke-linecap:butt;stroke-linejoin:miter;stroke:#000;stroke-opacity:1;stroke-miterlimit:4" d="M41.705209 76.708328 14.889633 100.162654H54.368809" transform="matrix(0.314941,0,0,0.314941,73.447369,44.232061)"/><path style="stroke:none;fill-rule:nonzero;fill:#07814b;fill-opacity:1" d="M52.863281 47.179688 54.832031 48.726562C55.210938 49.027344 55.46875 49.191406 55.605469 49.222656 55.738281 49.253906 55.882812 49.230469 56.035156 49.160156 56.183594 49.089844 56.386719 48.894531 56.636719 48.570312L56.832031 48.722656 54.003906 52.320312 53.8125 52.167969C54.066406 51.84375 54.210938 51.601562 54.242188 51.4375 54.269531 51.273438 54.257812 51.128906 54.195312 51.007812 54.136719 50.886719 53.917969 50.675781 53.535156 50.375L48.976562 46.792969C48.59375 46.492188 48.335938 46.328125 48.203125 46.296875 48.066406 46.269531 47.921875 46.289062 47.773438 46.359375 47.621094 46.429688 47.417969 46.628906 47.167969 46.949219L46.976562 46.796875 49.542969 43.53125C50.207031 42.683594 50.757812 42.105469 51.183594 41.804688 51.609375 41.503906 52.078125 41.351562 52.589844 41.351562 53.101562 41.351562 53.570312 41.519531 53.996094 41.851562 54.515625 42.257812 54.796875 42.78125 54.84375 43.421875 54.867188 43.828125 54.769531 44.289062 54.539062 44.800781L58.246094 44.980469C58.726562 45 59.042969 44.992188 59.191406 44.960938 59.410156 44.902344 59.597656 44.785156 59.753906 44.605469L59.945312 44.757812 58.207031 46.96875l-4.984375-.25zM49.414062 44.472656 52.492188 46.890625 52.726562 46.597656C53.101562 46.117188 53.339844 45.722656 53.441406 45.414062 53.539062 45.105469 53.527344 44.792969 53.40625 44.476562 53.28125 44.160156 53.035156 43.855469 52.667969 43.566406 52.132812 43.144531 51.636719 42.957031 51.183594 43.007812 50.730469 43.058594 50.289062 43.359375 49.851562 43.917969zM56.65625 36.253906 59.195312 38.859375 59.324219 38.734375C59.730469 38.335938 59.898438 37.921875 59.832031 37.492188 59.765625 37.058594 59.515625 36.566406 59.082031 36.023438L59.261719 35.847656 62.527344 39.199219 62.347656 39.371094C61.957031 39.042969 61.585938 38.824219 61.238281 38.707031 60.886719 38.59375 60.59375 38.574219 60.355469 38.652344 60.117188 38.726562 59.847656 38.914062 59.539062 39.210938L61.300781 41.015625C61.644531 41.367188 61.867188 41.566406 61.972656 41.617188 62.082031 41.667969 62.199219 41.675781 62.332031 41.648438 62.460938 41.617188 62.617188 41.515625 62.800781 41.335938L63.183594 40.964844C63.78125 40.378906 64.125 39.773438 64.214844 39.144531 64.304688 38.519531 64.152344 37.84375 63.757812 37.125L63.933594 36.953125 65.628906 39.269531 60.097656 44.664062 59.925781 44.488281 60.140625 44.28125C60.324219 44.101562 60.441406 43.921875 60.492188 43.746094 60.53125 43.621094 60.519531 43.484375 60.457031 43.335938 60.417969 43.226562 60.242188 43.011719 59.929688 42.6875L55.824219 38.480469C55.542969 38.191406 55.363281 38.019531 55.28125 37.96875 55.144531 37.890625 55 37.863281 54.859375 37.886719 54.652344 37.914062 54.445312 38.027344 54.238281 38.230469L54.027344 38.4375l-.171875-.171875L59.210938 33.039062 61.058594 34.933594 60.878906 35.105469C60.335938 34.734375 59.882812 34.527344 59.523438 34.488281 59.160156 34.445312 58.785156 34.527344 58.390625 34.726562 58.15625 34.84375 57.800781 35.136719 57.316406 35.609375zM68.402344 25.621094 70.273438 28.15625 70.078125 28.300781C69.328125 27.78125 68.585938 27.515625 67.84375 27.503906 67.105469 27.496094 66.453125 27.695312 65.890625 28.113281 65.355469 28.507812 65.019531 28.988281 64.886719 29.554688 64.75 30.121094 64.808594 30.730469 65.058594 31.378906 65.3125 32.03125 65.644531 32.640625 66.066406 33.210938 66.574219 33.898438 67.101562 34.445312 67.648438 34.84375 68.195312 35.242188 68.738281 35.429688 69.28125 35.40625 69.824219 35.382812 70.34375 35.1875 70.84375 34.820312 71.015625 34.691406 71.179688 34.542969 71.335938 34.371094 71.492188 34.199219 71.636719 34.007812 71.777344 33.796875L70.671875 32.300781C70.464844 32.019531 70.308594 31.851562 70.207031 31.796875 70.109375 31.742188 69.972656 31.726562 69.800781 31.75 69.628906 31.769531 69.457031 31.847656 69.285156 31.972656L69.097656 32.109375 68.953125 31.914062 72.449219 29.335938 72.59375 29.53125C72.339844 29.746094 72.183594 29.917969 72.121094 30.050781 72.054688 30.179688 72.042969 30.332031 72.078125 30.5 72.097656 30.589844 72.203125 30.769531 72.394531 31.027344L73.5 32.523438C73.191406 33.070312 72.828125 33.578125 72.40625 34.046875 71.988281 34.519531 71.511719 34.953125 70.976562 35.34375 70.292969 35.847656 69.660156 36.175781 69.070312 36.320312 68.484375 36.46875 67.90625 36.519531 67.335938 36.46875 66.769531 36.421875 66.25 36.28125 65.777344 36.046875 65.167969 35.742188 64.640625 35.285156 64.195312 34.679688 63.394531 33.597656 63.101562 32.40625 63.3125 31.097656 63.519531 29.789062 64.203125 28.710938 65.355469 27.859375 65.710938 27.597656 66.054688 27.386719 66.382812 27.234375 66.558594 27.148438 66.871094 27.042969 67.316406 26.917969 67.761719 26.792969 68.019531 26.707031 68.082031 26.660156 68.179688 26.585938 68.246094 26.484375 68.277344 26.347656 68.308594 26.210938 68.285156 26.019531 68.207031 25.765625zM79.023438 29.703125 79.148438 29.914062 75.101562 32.257812 74.980469 32.046875 75.238281 31.898438C75.460938 31.765625 75.617188 31.621094 75.710938 31.464844 75.777344 31.351562 75.800781 31.21875 75.777344 31.058594 75.769531 30.941406 75.648438 30.691406 75.425781 30.300781L72.480469 25.214844C72.25 24.816406 72.085938 24.582031 71.988281 24.507812 71.890625 24.433594 71.753906 24.394531 71.582031 24.394531 71.414062 24.394531 71.21875 24.457031 71.003906 24.582031L70.746094 24.730469 70.625 24.519531 74.667969 22.179688 74.792969 22.390625 74.535156 22.539062C74.308594 22.667969 74.152344 22.8125 74.0625 22.972656 73.992188 23.082031 73.96875 23.21875 73.988281 23.382812 73.996094 23.496094 74.117188 23.75 74.339844 24.136719L77.285156 29.226562C77.515625 29.621094 77.679688 29.855469 77.78125 29.929688 77.882812 30.003906 78.015625 30.039062 78.1875 30.039062c.171875.0.36328100000000063-.0625.5820310000000006-.1875zM80.488281 19.234375C81.769531 18.613281 82.996094 18.53125 84.167969 18.984375 85.335938 19.433594 86.1875 20.269531 86.71875 21.484375 87.175781 22.523438 87.273438 23.570312 87.007812 24.625 86.664062 26.023438 85.753906 27.046875 84.285156 27.6875 82.8125 28.335938 81.457031 28.335938 80.214844 27.6875 79.230469 27.179688 78.503906 26.382812 78.027344 25.300781 77.496094 24.082031 77.464844 22.890625 77.9375 21.714844 78.410156 20.542969 79.257812 19.714844 80.488281 19.234375zM80.730469 19.589844C79.980469 19.917969 79.578125 20.550781 79.523438 21.484375 79.480469 22.253906 79.71875 23.222656 80.230469 24.398438 80.84375 25.796875 81.542969 26.71875 82.324219 27.171875 82.871094 27.488281 83.453125 27.515625 84.070312 27.242188 84.484375 27.0625 84.785156 26.808594 84.976562 26.488281 85.21875 26.074219 85.3125 25.542969 85.261719 24.890625 85.210938 24.238281 84.988281 23.457031 84.589844 22.546875 84.113281 21.464844 83.660156 20.699219 83.222656 20.25 82.785156 19.800781 82.363281 19.535156 81.953125 19.449219 81.542969 19.363281 81.136719 19.410156 80.730469 19.589844zM89.855469 15.925781 95.578125 20.097656 94.558594 16.394531C94.414062 15.875 94.246094 15.546875 94.046875 15.40625 93.773438 15.214844 93.402344 15.191406 92.925781 15.332031L92.859375 15.097656 95.707031 14.3125 95.773438 14.546875C95.421875 14.695312 95.191406 14.824219 95.089844 14.929688 94.984375 15.039062 94.917969 15.1875 94.894531 15.375 94.871094 15.5625 94.914062 15.859375 95.027344 16.265625L97.003906 23.4375 96.789062 23.5 88.984375 17.929688 90.492188 23.40625C90.628906 23.902344 90.835938 24.207031 91.109375 24.316406 91.382812 24.429688 91.667969 24.445312 91.960938 24.363281L92.164062 24.308594l.0625.234375L89.171875 25.386719 89.105469 25.148438C89.578125 25.015625 89.882812 24.828125 90.015625 24.585938 90.152344 24.34375 90.15625 23.992188 90.03125 23.535156L88.355469 17.453125 88.105469 17.273438C87.863281 17.097656 87.660156 16.992188 87.5 16.957031 87.339844 16.921875 87.128906 16.9375 86.863281 17.003906L86.796875 16.765625zM100.917969 14.023438 101.410156 17.628906 101.585938 17.605469C102.148438 17.527344 102.53125 17.296875 102.734375 16.910156 102.941406 16.523438 103.03125 15.980469 103.007812 15.28125L103.253906 15.25 103.886719 19.886719l-.25.03125C103.515625 19.421875 103.351562 19.023438 103.140625 18.722656 102.929688 18.425781 102.703125 18.234375 102.464844 18.152344 102.230469 18.074219 101.898438 18.0625 101.476562 18.117188L101.816406 20.613281C101.882812 21.101562 101.945312 21.398438 102 21.5 102.058594 21.601562 102.144531 21.683594 102.269531 21.734375 102.390625 21.789062 102.578125 21.800781 102.832031 21.765625L103.359375 21.695312C104.1875 21.582031 104.824219 21.300781 105.273438 20.847656 105.71875 20.398438 105.996094 19.765625 106.109375 18.953125L106.347656 18.917969 106.335938 21.789062 98.679688 22.832031 98.644531 22.589844 98.941406 22.550781C99.195312 22.515625 99.398438 22.441406 99.542969 22.328125 99.648438 22.25 99.71875 22.132812 99.761719 21.976562 99.792969 21.867188 99.78125 21.589844 99.71875 21.144531L98.925781 15.320312C98.871094 14.917969 98.828125 14.675781 98.792969 14.585938 98.730469 14.4375 98.632812 14.332031 98.503906 14.265625 98.320312 14.167969 98.085938 14.136719 97.800781 14.175781L97.507812 14.214844 97.472656 13.972656 104.886719 12.964844 105.242188 15.582031 104.996094 15.617188C104.78125 14.996094 104.542969 14.558594 104.273438 14.3125 104.007812 14.0625 103.65625 13.902344 103.222656 13.828125 102.964844 13.785156 102.503906 13.808594 101.832031 13.898438zM127.8125 20.160156 131.402344 14.894531 134.960938 15.644531 134.914062 15.882812 134.628906 15.820312C134.371094 15.765625 134.15625 15.769531 133.980469 15.828125 133.859375 15.863281 133.753906 15.945312 133.660156 16.074219 133.589844 16.167969 133.507812 16.433594 133.417969 16.867188L132.203125 22.632812C132.109375 23.082031 132.074219 23.363281 132.097656 23.488281 132.121094 23.609375 132.199219 23.726562 132.328125 23.839844 132.453125 23.957031 132.640625 24.039062 132.886719 24.089844L133.171875 24.152344 133.121094 24.390625 128.554688 23.425781 128.605469 23.1875l.28125.0625C129.144531 23.304688 129.363281 23.300781 129.535156 23.242188 129.65625 23.207031 129.761719 23.121094 129.859375 22.988281 129.925781 22.894531 130.007812 22.628906 130.101562 22.191406L131.464844 15.707031 126.429688 22.980469 126.277344 22.949219 124.539062 14.308594 123.242188 20.46875C123.152344 20.898438 123.105469 21.167969 123.105469 21.269531 123.117188 21.496094 123.203125 21.699219 123.359375 21.871094 123.519531 22.046875 123.796875 22.175781 124.199219 22.261719L124.148438 22.5 121.15625 21.867188 121.207031 21.628906 121.296875 21.648438C121.488281 21.695312 121.675781 21.703125 121.855469 21.671875c.1835930000000019-.03125.328125-.09375.4375-.1875C122.402344 21.390625 122.503906 21.246094 122.59375 21.054688 122.613281 21.007812 122.664062 20.789062 122.746094 20.398438L123.910156 14.863281C124.003906 14.421875 124.039062 14.140625 124.015625 14.019531 123.988281 13.902344 123.914062 13.785156 123.785156 13.667969 123.65625 13.554688 123.46875 13.472656 123.222656 13.417969L122.945312 13.359375 122.996094 13.121094 126.570312 13.875zM139.496094 24.203125 136.550781 23.070312 135.886719 23.746094C135.667969 23.972656 135.523438 24.171875 135.457031 24.347656 135.367188 24.582031 135.394531 24.792969 135.539062 24.976562 135.625 25.082031 135.878906 25.238281 136.300781 25.4375L136.214844 25.664062 133.441406 24.597656 133.527344 24.371094C133.84375 24.4375 134.136719 24.410156 134.410156 24.28125 134.679688 24.152344 135.078125 23.824219 135.609375 23.296875L141.15625 17.792969 141.273438 17.835938l.3710930000000019 8C141.683594 26.59375 141.761719 27.09375 141.878906 27.332031 141.972656 27.515625 142.140625 27.664062 142.386719 27.78125L142.296875 28.007812 138.261719 26.453125 138.351562 26.226562 138.515625 26.292969C138.839844 26.417969 139.085938 26.457031 139.25 26.417969 139.367188 26.386719 139.449219 26.3125 139.496094 26.1875 139.523438 26.113281 139.542969 26.035156 139.546875 25.945312 139.550781 25.90625 139.550781 25.730469 139.539062 25.414062zM139.464844 23.667969 139.328125 20.316406 136.941406 22.695312zM147.570312 26.25 146.355469 28.441406C146.121094 28.863281 146 29.144531 145.992188 29.28125 145.980469 29.421875 146.023438 29.558594 146.121094 29.695312 146.214844 29.835938 146.441406 30.003906 146.796875 30.199219L146.679688 30.414062l-4-2.21875L142.796875 27.980469C143.15625 28.183594 143.421875 28.285156 143.585938 28.289062 143.753906 28.292969 143.890625 28.253906 144.003906 28.175781 144.117188 28.097656 144.289062 27.847656 144.523438 27.425781L147.335938 22.351562C147.570312 21.929688 147.691406 21.648438 147.699219 21.511719 147.710938 21.371094 147.667969 21.234375 147.574219 21.09375 147.476562 20.957031 147.253906 20.789062 146.894531 20.589844L147.011719 20.378906 150.644531 22.390625C151.589844 22.917969 152.246094 23.367188 152.613281 23.738281 152.976562 24.113281 153.199219 24.550781 153.28125 25.058594 153.363281 25.5625 153.273438 26.050781 153.011719 26.523438 152.691406 27.101562 152.21875 27.460938 151.597656 27.609375 151.199219 27.699219 150.730469 27.671875 150.1875 27.527344L150.597656 31.214844C150.65625 31.695312 150.710938 32.003906 150.769531 32.148438 150.859375 32.351562 151.007812 32.519531 151.207031 32.644531L151.089844 32.859375 148.628906 31.496094 148.082031 26.535156zM149.695312 22.417969 147.796875 25.839844 148.125 26.023438C148.660156 26.320312 149.085938 26.492188 149.40625 26.542969 149.726562 26.589844 150.03125 26.527344 150.328125 26.359375 150.621094 26.1875 150.882812 25.894531 151.109375 25.484375 151.4375 24.886719 151.542969 24.371094 151.421875 23.933594 151.300781 23.492188 150.933594 23.101562 150.3125 22.757812zM163.699219 30.914062 161.839844 33.390625 161.632812 33.238281C161.964844 32.472656 162.046875 31.761719 161.886719 31.101562 161.722656 30.441406 161.375 29.910156 160.839844 29.507812 160.394531 29.171875 159.886719 28.992188 159.320312 28.972656 158.757812 28.949219 158.230469 29.078125 157.75 29.363281 157.128906 29.730469 156.574219 30.234375 156.085938 30.886719 155.605469 31.527344 155.25 32.167969 155.015625 32.816406 154.785156 33.460938 154.738281 34.050781 154.882812 34.578125 155.023438 35.105469 155.371094 35.574219 155.917969 35.984375 156.367188 36.324219 156.851562 36.535156 157.375 36.617188 157.898438 36.703125 158.546875 36.660156 159.324219 36.488281L158.859375 37.105469C158.144531 37.222656 157.5 37.214844 156.925781 37.074219 156.351562 36.9375 155.773438 36.652344 155.191406 36.214844 154.429688 35.644531 153.867188 34.980469 153.503906 34.230469 153.140625 33.480469 153.015625 32.699219 153.125 31.882812 153.230469 31.070312 153.53125 30.339844 154.015625 29.691406 154.527344 29.011719 155.191406 28.5 156.007812 28.15625 156.824219 27.8125 157.660156 27.699219 158.519531 27.816406 159.378906 27.933594 160.148438 28.25 160.832031 28.761719 161.332031 29.136719 161.78125 29.644531 162.179688 30.28125 162.40625 30.652344 162.5625 30.871094 162.652344 30.9375 162.765625 31.019531 162.894531 31.050781 163.039062 31.03125 163.183594 31.011719 163.335938 30.921875 163.492188 30.757812zM164.484375 38.242188 162.523438 40.195312C162.199219 40.519531 162.015625 40.738281 161.972656 40.855469 161.925781 40.972656 161.925781 41.113281 161.96875 41.277344 162.011719 41.441406 162.121094 41.613281 162.300781 41.789062L162.507812 42 162.335938 42.171875 159.035156 38.863281l.171875-.171875L159.417969 38.902344C159.601562 39.085938 159.78125 39.199219 159.957031 39.246094 160.082031 39.285156 160.21875 39.273438 160.367188 39.210938 160.476562 39.171875 160.6875 38.992188 161.007812 38.675781L165.167969 34.523438C165.492188 34.199219 165.675781 33.980469 165.722656 33.867188 165.769531 33.75 165.773438 33.609375 165.730469 33.445312 165.6875 33.28125 165.574219 33.109375 165.398438 32.933594L165.1875 32.722656 165.363281 32.550781 168.664062 35.859375 168.492188 36.03125 168.28125 35.820312C168.097656 35.636719 167.917969 35.523438 167.742188 35.476562 167.617188 35.4375 167.476562 35.449219 167.324219 35.507812 167.214844 35.546875 167.003906 35.726562 166.6875 36.042969L164.894531 37.832031 167.125 40.066406 168.917969 38.277344C169.242188 37.957031 169.425781 37.738281 169.472656 37.621094 169.519531 37.507812 169.519531 37.367188 169.476562 37.199219 169.429688 37.035156 169.320312 36.863281 169.140625 36.683594l-.203125-.203125.171875-.171875L172.40625 39.609375l-.171875.171875L172.027344 39.578125C171.84375 39.390625 171.664062 39.277344 171.488281 39.230469 171.363281 39.195312 171.226562 39.203125 171.074219 39.265625 170.964844 39.304688 170.753906 39.484375 170.433594 39.800781L166.273438 43.953125C165.949219 44.277344 165.765625 44.496094 165.71875 44.609375 165.671875 44.722656 165.667969 44.863281 165.714844 45.03125 165.757812 45.199219 165.871094 45.371094 166.046875 45.546875L166.253906 45.75 166.078125 45.925781 162.78125 42.621094 162.957031 42.449219l.203125.203125C163.347656 42.839844 163.527344 42.957031 163.699219 43 163.824219 43.035156 163.964844 43.027344 164.117188 42.96875 164.226562 42.925781 164.4375 42.75 164.753906 42.433594L166.714844 40.476562zm10.671875 5.75L172.253906 46.183594 172.363281 46.328125C172.703125 46.78125 173.09375 47 173.53125 46.988281 173.96875 46.976562 174.488281 46.789062 175.082031 46.429688L175.234375 46.628906 171.5 49.449219 171.347656 49.25C171.722656 48.902344 171.988281 48.558594 172.148438 48.230469 172.304688 47.898438 172.359375 47.609375 172.316406 47.363281 172.269531 47.117188 172.117188 46.824219 171.859375 46.484375L169.851562 48C169.460938 48.296875 169.230469 48.496094 169.167969 48.597656 169.105469 48.695312 169.082031 48.8125 169.09375 48.945312 169.109375 49.078125 169.191406 49.246094 169.34375 49.453125L169.667969 49.878906C170.171875 50.542969 170.726562 50.960938 171.339844 51.128906 171.953125 51.296875 172.640625 51.230469 173.402344 50.929688L173.550781 51.121094 171.039062 52.515625 166.382812 46.351562 166.578125 46.207031 166.757812 46.441406C166.914062 46.648438 167.074219 46.789062 167.242188 46.859375 167.363281 46.910156 167.5 46.917969 167.65625 46.878906 167.769531 46.851562 168.003906 46.703125 168.363281 46.433594L173.050781 42.890625C173.375 42.644531 173.566406 42.488281 173.625 42.414062 173.722656 42.285156 173.769531 42.148438 173.761719 42.003906 173.761719 41.796875 173.671875 41.578125 173.496094 41.347656L173.320312 41.109375 173.511719 40.960938 178.023438 46.929688 175.914062 48.523438 175.765625 48.324219C176.203125 47.832031 176.464844 47.410156 176.550781 47.058594 176.636719 46.703125 176.605469 46.320312 176.453125 45.902344 176.367188 45.660156 176.121094 45.265625 175.714844 44.726562zm0 0"/></g></svg>